<?xml version="1.0" encoding="UTF-8" standalone="no"?><!DOCTYPE svg PUBLIC "-//W3C//DTD SVG 1.1//EN" "http://www.w3.org/Graphics/SVG/1.1/DTD/svg11.dtd"><svg width="100%" height="100%" viewBox="0 0 192 192" version="1.1" xmlns="http://www.w3.org/2000/svg" xmlns:xlink="http://www.w3.org/1999/xlink" xml:space="preserve" xmlns:serif="http://www.serif.com/" style="fill-rule:evenodd;clip-rule:evenodd;stroke-linejoin:round;stroke-miterlimit:1.41421;"><path d="M187.365,96.002c0,50.46 -40.906,91.367 -91.367,91.367c-50.46,0 -91.366,-40.907 -91.367,-91.367c0,-50.461 40.907,-91.367 91.367,-91.367c50.461,0 91.367,40.906 91.367,91.367Z" style="fill:#1e1d51;fill-rule:nonzero;"/><path d="M95.643,31.873c-7.803,0.147 -15.29,1.536 -22.249,3.965l0,50.158l22.249,0l0,-54.123Zm-40.47,14.948c-11.603,9.848 -19.785,23.429 -22.567,38.816l22.567,0l0,-38.816Zm17.434,56.97l0,52.438c7.142,2.425 14.824,3.812 22.833,3.958l0,-56.396l-22.833,0Zm-40.074,0.143c2.313,16.387 10.669,30.881 22.783,41.242l0,-41.242l-22.783,0Z" style="fill:url(#_Linear1);fill-rule:nonzero;"/><path d="M97.262,32.519c34.475,0.674 62.22,28.848 62.22,63.484c0,34.637 -27.745,62.795 -62.22,63.468l0,-126.952Z" style="fill:url(#_Linear2);fill-rule:nonzero;"/><path d="M71.736,36.634l0,50.784l23.559,0l0,14.991l-23.559,0l0,53.093c-5.404,-2.23 -10.482,-5.181 -15.096,-8.772l0,-44.321l-24.543,0c-0.208,-2.105 -0.312,-4.219 -0.311,-6.334c-0.001,-2.896 0.194,-5.788 0.583,-8.657l24.271,0l0,-42.008c4.614,-3.592 9.692,-6.544 15.096,-8.776Z" style="fill:url(#_Linear3);fill-rule:nonzero;"/><rect x="113.333" y="53.899" width="21.84" height="3.047" style="fill:#9d0d16;fill-rule:nonzero;"/><path d="M96.265,0.006c-33.237,-0.053 -65.599,17.168 -83.4,47.999c-26.494,45.889 -10.752,104.636 35.137,131.13c45.889,26.494 104.636,10.752 131.13,-35.137c26.494,-45.889 10.752,-104.636 -35.137,-131.13c-15.058,-8.693 -31.498,-12.836 -47.73,-12.862Zm-0.267,4.628c50.435,0 91.368,40.933 91.368,91.368c0,50.434 -40.933,91.367 -91.368,91.367c-50.434,0 -91.367,-40.933 -91.367,-91.367c0,-50.435 40.933,-91.368 91.367,-91.368Zm-5.501,3.2l0,18.938l5.771,0l0,-6.38l4.66,6.38l7.593,1.111l-6.58,-8.504c1.444,-0.3 4.152,-1.833 4.152,-5.063c0,-4.836 -4.354,-6.381 -7.088,-6.381l-8.508,-0.101Zm7.292,4.152c1.569,0 2.682,1.064 2.733,2.228c0.051,1.165 -0.755,2.429 -2.53,2.429l-1.825,0l-0.099,-4.556l1.721,-0.101Zm27.204,1.076c-0.102,-0.001 -0.206,0.001 -0.308,0.003c-4.979,0.101 -9.188,3.12 -10.196,8.05c-1.003,4.91 3.456,10.721 8.907,11.958c5.915,1.343 11.434,-1.466 12.679,-7.841c1.065,-5.458 -2.947,-10.818 -8.904,-11.954c-0.733,-0.14 -1.461,-0.212 -2.178,-0.216Zm-69.836,4.999l-5.165,2.734l2.429,21.366l5.469,-4.05l-0.708,-3.238l5.974,-3.546l2.733,2.025l6.279,-2.529l-17.011,-12.762Zm69.969,0.235c0.351,0.001 0.708,0.033 1.067,0.102c2.875,0.548 4.699,3.033 4.196,5.669c-0.502,2.636 -3.144,4.431 -6.018,3.883c-2.875,-0.549 -4.293,-3.332 -3.79,-5.968c0.439,-2.307 2.088,-3.692 4.545,-3.686Zm-69.766,6.549l4.352,3.343l-3.139,1.822l-1.213,-5.165Zm96.301,2.736l-16.202,11.241l4.758,3.745l7.8,-6.075l-3.952,9.821l2.025,1.924l9.926,-4.05l-5.974,8.101l3.644,5.164l11.444,-16.405l-3.648,-4.352l-9.317,3.746l3.749,-9.419l-4.253,-3.441Zm-55.663,2.394c-36.432,0 -66.029,29.597 -66.029,66.03c0,36.433 29.597,66.026 66.029,66.026c36.433,0 66.03,-29.593 66.03,-66.026c0,-36.433 -29.597,-66.03 -66.03,-66.03Zm-60.487,2.162l-7.898,9.113l13.77,12.253l3.851,-4.453l-5.266,-4.66l3.847,-4.152l-3.343,-3.038l-3.847,4.253l-1.924,-1.822l4.152,-4.558l-3.342,-2.936Zm59.211,0.384l0,52.402l-20.541,0l0,-48.564c6.426,-2.353 13.337,-3.696 20.541,-3.838Zm2.54,0c24.178,0.472 45.046,14.472 55.354,34.74c-0.132,-0.177 -0.268,-0.352 -0.406,-0.524c-2.526,-3.137 -5.708,-5.218 -8.418,-6.961c-0.216,-0.138 -0.468,-0.208 -0.724,-0.2c-0.395,0.011 -0.763,0.206 -0.994,0.527c-0.631,0.873 -1.821,1.6 -3.374,1.6l-11.698,0c-0.587,0 -1.144,0.16 -1.625,0.508c-0.481,0.348 -0.908,0.97 -0.908,1.707l0,1.334c-0.006,0.007 -0.016,0.028 -0.066,0.066c-0.115,0.088 -0.34,0.181 -0.591,0.181l-10.078,0l0.009,-0.841l0,-0.016c0,-1.534 -0.782,-2.928 -1.99,-3.809l-0.019,-0.016l-0.016,-0.01l-4.406,-2.987l-0.006,-0.006l-0.007,-0.003c-0.701,-0.463 -1.485,-0.683 -2.225,-0.667c-0.243,0.006 -0.485,0.038 -0.721,0.096c-0.929,0.227 -1.685,0.814 -2.174,1.565c-0.977,1.5 -0.753,3.871 1.127,5.215l2.066,1.581l0.016,0.013l0.016,0.009c0.435,0.311 0.676,0.687 0.676,0.79l-0.051,3.349l0,0.02c0,0.04 -0.006,0.05 -0.009,0.066c-0.058,0 -0.169,-0.013 -0.4,-0.089c-0.489,-0.16 -0.86,-0.366 -1.435,-0.584c-0.575,-0.217 -1.315,-0.39 -2.266,-0.39c-1.676,0 -3.052,0.756 -3.914,1.762c-0.293,0.341 -0.543,0.717 -0.743,1.12l0,-39.146l0,0Zm-25.62,4.831l0,50.11l23.08,0l0,14.793l-23.08,0l0,52.39c-5.299,-2.204 -10.274,-5.116 -14.79,-8.657l0,-43.733l-24.046,0c-0.203,-2.077 -0.304,-4.163 -0.304,-6.25c-0.001,-2.857 0.19,-5.711 0.571,-8.543l23.779,0l0,-41.45c4.516,-3.542 9.491,-6.455 14.79,-8.66Zm43.041,9.761c-1.038,0 -1.88,0.842 -1.88,1.879c0,1.038 0.842,1.88 1.88,1.88c1.037,0 1.879,-0.842 1.879,-1.88c0,-1.037 -0.842,-1.879 -1.879,-1.879Zm4.787,0c-1.038,0 -1.88,0.842 -1.88,1.879c0,1.038 0.842,1.88 1.88,1.88c1.037,0 1.879,-0.842 1.879,-1.88c0,-1.037 -0.842,-1.879 -1.879,-1.879Zm4.783,0c-1.037,0 -1.879,0.842 -1.879,1.879c0,1.038 0.842,1.88 1.879,1.88c1.038,0 1.88,-0.842 1.88,-1.88c0,-1.037 -0.842,-1.879 -1.88,-1.879Zm4.784,0c-1.037,0 -1.879,0.842 -1.879,1.879c0,1.038 0.842,1.88 1.879,1.88c1.038,0 1.879,-0.842 1.879,-1.88c0,-1.037 -0.841,-1.879 -1.879,-1.879Zm4.787,0c-1.037,0 -1.879,0.842 -1.879,1.879c0,1.038 0.842,1.88 1.879,1.88c1.038,0 1.879,-0.842 1.879,-1.88c0,-1.037 -0.841,-1.879 -1.879,-1.879Zm-79.511,1l0,36.81l-20.846,0c2.57,-14.592 10.127,-27.471 20.846,-36.81Zm59.021,3.911l0,3.047l21.839,0l0,-3.047l-21.839,0Zm0,4.101l0,3.048l21.839,0l0,-3.048l-21.839,0Zm60.808,0.013l-17.215,6.987l4.86,11.342l4.555,-1.924l-2.53,-5.774l2.127,-1.013l2.432,5.571l4.149,-1.724l-2.327,-5.364l2.025,-0.911l2.429,5.771l4.253,-1.721l-4.758,-11.24Zm-157.265,2.127l-2.428,5.364l16.808,7.8l5.368,-10.939l-4.152,-2.127l-3.241,5.673l-12.355,-5.771Zm88.27,1.412c0.2,-0.011 0.434,0.041 0.752,0.251l4.393,2.981c0.548,0.399 0.912,1.137 0.912,1.733l-0.051,4.117l0,0.016c0,1.622 0.82,3.003 1.879,3.968c0.624,0.569 1.34,1.018 2.105,1.292c-0.765,0.274 -1.48,0.723 -2.105,1.292c-1.059,0.965 -1.879,2.346 -1.879,3.968l0,0.016l0.051,4.133c0,0.595 -0.402,1.343 -0.95,1.742l-4.368,2.962c-0.424,0.28 -0.684,0.276 -0.93,0.216c-0.245,-0.06 -0.487,-0.235 -0.65,-0.486c-0.327,-0.501 -0.469,-1.086 0.476,-1.762l0.016,-0.012l0.016,-0.013l2.101,-1.603c0.711,-0.508 1.705,-1.363 1.705,-2.831l0,-0.02l-0.051,-3.368c0,-0.718 -0.258,-1.529 -0.984,-2.079c-0.726,-0.549 -1.763,-0.617 -2.756,-0.292c-0.708,0.232 -1.171,0.482 -1.542,0.622c-0.371,0.141 -0.686,0.226 -1.369,0.226c-0.956,0 -1.544,-0.36 -1.987,-0.876c-0.442,-0.517 -0.669,-1.236 -0.669,-1.708l0,-0.254c0,-0.472 0.227,-1.192 0.669,-1.708c0.443,-0.516 1.031,-0.876 1.987,-0.876c0.683,0 0.998,0.085 1.369,0.225c0.371,0.141 0.834,0.39 1.542,0.623c0.993,0.325 2.03,0.257 2.756,-0.292c0.726,-0.55 0.984,-1.38 0.984,-2.099l0.051,-3.349l0,-0.019c0,-1.468 -1.026,-2.345 -1.737,-2.853l-2.069,-1.581l-0.016,-0.013l-0.016,-0.013c-0.945,-0.675 -0.803,-1.26 -0.476,-1.761c0.163,-0.251 0.405,-0.426 0.65,-0.486c0.063,-0.015 0.127,-0.025 0.191,-0.029Zm38.162,2.822c2.431,1.589 4.951,3.382 6.923,5.832c2.214,2.749 3.781,6.286 3.781,11.5c0,9.797 -9.148,17.666 -17.948,17.666l-21.265,0c-0.604,0 -1.222,0.277 -1.597,0.704c-0.374,0.428 -0.524,0.945 -0.52,1.438c0.004,0.494 0.163,0.999 0.533,1.419c0.37,0.421 0.979,0.702 1.584,0.702l20.76,0c7.464,0 11.444,4.804 11.444,10.475c0,5.527 -4.134,10.723 -11.393,10.723l-21.392,0c-0.518,0 -1.069,0.235 -1.409,0.613c-0.34,0.378 -0.482,0.837 -0.48,1.276c0.003,0.439 0.146,0.891 0.483,1.263c0.337,0.373 0.886,0.61 1.406,0.61l15.923,0c3.427,0 6.342,3.34 6.342,6.529c0,1.618 -0.46,3.111 -1.476,4.197c-1.016,1.086 -2.64,1.873 -5.371,1.873l-9.548,0c-0.381,0 -0.781,0.083 -1.149,0.349c-0.369,0.266 -0.67,0.774 -0.654,1.301c0.015,0.528 0.319,0.98 0.673,1.232c0.353,0.252 0.748,0.343 1.13,0.343l6.332,0c0.894,0 1.555,0.391 2.077,1.025c0.522,0.635 0.825,1.524 0.825,2.235c0,0.885 -0.327,1.704 -0.905,2.216c-0.374,0.332 -0.892,0.563 -1.603,0.619c0.035,-0.366 0.041,-0.781 -0.203,-1.276c-0.29,-0.589 -1.097,-1.057 -1.784,-1.057l-3.8,0c-1.323,0 -2.783,-0.499 -3.863,-1.442c-1.079,-0.942 -1.819,-2.277 -1.819,-4.199c0,-1.768 0.739,-3.028 1.788,-3.933c1.048,-0.905 2.44,-1.378 3.466,-1.378l9.339,0c0.422,0 0.832,-0.073 1.225,-0.311c0.393,-0.238 0.798,-0.74 0.797,-1.365c-0.001,-0.624 -0.408,-1.127 -0.8,-1.365c-0.392,-0.238 -0.8,-0.308 -1.222,-0.308l-14.631,0c-5.629,0 -8.764,-3.984 -8.764,-8.279c0,-3.832 3.282,-8.374 8.256,-8.374l21.773,0c0.593,0 1.203,-0.276 1.565,-0.698c0.363,-0.422 0.505,-0.924 0.502,-1.403c-0.003,-0.479 -0.152,-0.972 -0.511,-1.387c-0.359,-0.416 -0.961,-0.695 -1.555,-0.695l-22.177,0c-6.199,0 -11.103,-4.597 -11.103,-11.539c0,-5.799 4.744,-11.745 11.761,-11.745l20.1,0c1.096,0 2.079,-0.494 2.682,-1.213c0.603,-0.72 0.872,-1.606 0.876,-2.479c0.005,-0.873 -0.256,-1.768 -0.86,-2.492c-0.605,-0.725 -1.595,-1.216 -2.698,-1.216l-21.446,0l-0.016,-1.203c0,-0.743 0.403,-1.49 1.051,-2.079c0.647,-0.59 1.517,-0.927 2.05,-0.927l12.018,0c0.465,0 0.926,-0.108 1.378,-0.419c0.452,-0.312 0.873,-0.983 0.873,-1.822c0,-0.864 -0.257,-1.301 -0.873,-1.822c-0.452,-0.312 -0.913,-0.419 -1.378,-0.419l-12.018,0c-0.532,0 -1.403,-0.338 -2.05,-0.927c-0.648,-0.59 -1.051,-1.35 -1.051,-2.092l0.009,-0.737l14.669,0c0.812,0 1.553,-0.26 2.136,-0.708c0.584,-0.447 1.061,-1.134 1.061,-2l0,-1.088l7.133,0c1.849,0 3.457,-0.69 4.608,-1.743Zm12.942,13.453c2.097,6.304 3.231,13.047 3.231,20.053c0,22.178 -11.373,41.698 -28.607,53.05c0.673,-0.957 0.987,-2.111 0.987,-3.251c0,-1.357 -0.487,-2.734 -1.403,-3.847c-0.036,-0.044 -0.079,-0.084 -0.117,-0.127c2.889,-0.14 5.087,-1.117 6.52,-2.648c1.549,-1.654 2.162,-3.828 2.162,-5.932c0,-3.11 -1.741,-6.102 -4.378,-7.752l0.965,0c8.508,0 13.933,-6.427 13.933,-13.263c0,-5.795 -3.77,-10.988 -10.041,-12.535c9.003,-1.691 17.05,-9.793 17.05,-19.868c0,-1.38 -0.107,-2.67 -0.302,-3.88Zm-58.989,0.451c0.2,0.403 0.45,0.779 0.742,1.121c0.863,1.005 2.239,1.761 3.914,1.761c0.952,0 1.692,-0.173 2.267,-0.39c0.575,-0.218 0.946,-0.424 1.435,-0.584c0.231,-0.076 0.342,-0.089 0.4,-0.089c0.003,0.016 0.009,0.027 0.009,0.067l0,0.019l0.051,3.368c0,0.103 -0.241,0.46 -0.676,0.771l-0.016,0.01l-0.016,0.012l-2.098,1.606c-1.88,1.344 -2.072,3.69 -1.095,5.191c0.416,0.638 1.026,1.156 1.771,1.438c-2.034,2.546 -3.196,5.728 -3.196,8.926c0,7.053 4.574,12.4 10.64,13.742c-4.543,1.552 -7.39,6.091 -7.39,10.354c0,5.591 4.428,10.819 11.304,10.819l0.498,0c-0.111,0.087 -0.225,0.17 -0.333,0.263c-1.523,1.316 -2.666,3.345 -2.666,5.857c0,2.611 1.104,4.733 2.685,6.114c1.582,1.38 3.596,2.066 5.536,2.066l3.181,0c-0.066,0.232 -0.14,0.448 -0.14,0.448c-0.071,0.161 -0.108,0.336 -0.108,0.512c0,0.604 0.431,1.128 1.023,1.246c0.908,0.18 1.767,0.193 2.545,0.061c-8.948,5.13 -19.265,8.146 -30.267,8.361l0,-83.07Zm-68.433,2.213l-19.748,6.482l-0.708,5.872l18.735,10.126l-0.101,-6.783l-2.832,-1.311l0.426,-6.974l3.317,-0.829l0.911,-6.583Zm145.211,0.609c-6.61,0 -9.923,5.417 -9.923,10.834c0,5.418 3.92,10.837 9.923,10.837c6.001,0.001 10.025,-4.913 10.025,-10.837c0,-5.822 -3.516,-10.834 -10.025,-10.834Zm-60.303,3.8l21.417,0c0.434,0 0.593,0.118 0.749,0.305c0.156,0.187 0.272,0.508 0.27,0.85c-0.002,0.342 -0.122,0.669 -0.282,0.861c-0.161,0.191 -0.321,0.304 -0.737,0.304l-20.1,0c-0.612,0 -1.21,0.039 -1.793,0.111c0.308,-0.62 0.482,-1.307 0.482,-2.028l0,-0.016l-0.006,-0.387Zm60.43,2.073c2.914,0 4.612,2.72 4.612,4.961c0,2.19 -1.761,4.962 -4.612,4.962c-2.852,0 -4.511,-2.405 -4.511,-4.962c0,-2.557 1.598,-4.961 4.511,-4.961Zm-154.01,2.041l-0.242,3.885l-5.364,-2.485l5.606,-1.4Zm12.948,17.656l21.208,0l0,39.092c-11.277,-9.821 -19.055,-23.56 -21.208,-39.092Zm41.076,0l20.541,0l0,54.678c-7.204,-0.142 -14.115,-1.487 -20.541,-3.838l0,-50.84Z" style="fill:url(#_Linear4);fill-rule:nonzero;"/><path d="M105.147,59.677c0.2,-0.011 0.434,0.041 0.752,0.251l4.393,2.981c0.548,0.399 0.912,1.137 0.912,1.733l-0.051,4.117l0,0.016c0,1.622 0.82,3.003 1.879,3.968c0.624,0.569 1.34,1.018 2.105,1.292c-0.765,0.274 -1.48,0.723 -2.105,1.292c-1.059,0.965 -1.879,2.346 -1.879,3.968l0,0.016l0.051,4.133c0,0.595 -0.402,1.343 -0.95,1.742l-4.368,2.962c-0.424,0.28 -0.684,0.276 -0.93,0.216c-0.245,-0.06 -0.487,-0.235 -0.65,-0.486c-0.327,-0.501 -0.469,-1.086 0.476,-1.762l0.016,-0.012l0.016,-0.013l2.101,-1.603c0.711,-0.508 1.705,-1.363 1.705,-2.831l0,-0.02l-0.051,-3.368c0,-0.718 -0.258,-1.529 -0.984,-2.079c-0.726,-0.549 -1.763,-0.617 -2.756,-0.292c-0.708,0.232 -1.171,0.482 -1.542,0.622c-0.371,0.141 -0.686,0.226 -1.369,0.226c-0.956,0 -1.544,-0.36 -1.987,-0.876c-0.442,-0.517 -0.669,-1.236 -0.669,-1.708l0,-0.254c0,-0.472 0.227,-1.192 0.669,-1.708c0.443,-0.516 1.031,-0.876 1.987,-0.876c0.683,0 0.998,0.085 1.369,0.225c0.371,0.141 0.834,0.39 1.542,0.623c0.993,0.325 2.03,0.257 2.756,-0.292c0.726,-0.55 0.984,-1.38 0.984,-2.099l0.051,-3.349l0,-0.019c0,-1.468 -1.026,-2.345 -1.737,-2.853l-2.069,-1.581l-0.016,-0.013l-0.016,-0.013c-0.945,-0.675 -0.803,-1.26 -0.476,-1.761c0.163,-0.251 0.405,-0.426 0.65,-0.486c0.063,-0.015 0.127,-0.025 0.191,-0.029Z" style="fill:#9d0d16;fill-rule:nonzero;"/><path d="M143.309,62.499c2.431,1.589 4.951,3.382 6.923,5.832c2.214,2.749 3.781,6.286 3.781,11.5c0,9.797 -9.148,17.666 -17.948,17.666l-21.265,0c-0.604,0 -1.222,0.277 -1.597,0.704c-0.374,0.428 -0.524,0.945 -0.52,1.438c0.004,0.494 0.163,0.999 0.533,1.419c0.37,0.421 0.979,0.702 1.584,0.702l20.76,0c7.464,0 11.444,4.804 11.444,10.475c0,5.527 -4.134,10.723 -11.393,10.723l-21.392,0c-0.518,0 -1.069,0.235 -1.409,0.613c-0.34,0.378 -0.482,0.837 -0.48,1.276c0.003,0.439 0.146,0.891 0.483,1.263c0.337,0.373 0.886,0.61 1.406,0.61l15.923,0c3.427,0 6.342,3.34 6.342,6.529c0,1.618 -0.46,3.111 -1.476,4.197c-1.016,1.086 -2.64,1.873 -5.371,1.873l-9.548,0c-0.381,0 -0.781,0.083 -1.149,0.349c-0.369,0.266 -0.67,0.774 -0.654,1.301c0.015,0.528 0.319,0.98 0.673,1.232c0.353,0.252 0.748,0.343 1.13,0.343l6.332,0c0.894,0 1.555,0.391 2.077,1.025c0.522,0.635 0.825,1.524 0.825,2.235c0,0.885 -0.327,1.704 -0.905,2.216c-0.374,0.332 -0.892,0.563 -1.603,0.619c0.035,-0.366 0.041,-0.781 -0.203,-1.276c-0.29,-0.589 -1.097,-1.057 -1.784,-1.057l-3.8,0c-1.323,0 -2.783,-0.499 -3.863,-1.442c-1.079,-0.942 -1.819,-2.277 -1.819,-4.199c0,-1.768 0.739,-3.028 1.788,-3.933c1.048,-0.905 2.44,-1.378 3.466,-1.378l9.339,0c0.422,0 0.832,-0.073 1.225,-0.311c0.393,-0.238 0.798,-0.74 0.797,-1.365c-0.001,-0.624 -0.408,-1.127 -0.8,-1.365c-0.392,-0.238 -0.8,-0.308 -1.222,-0.308l-14.631,0c-5.629,0 -8.764,-3.984 -8.764,-8.279c0,-3.832 3.282,-8.374 8.256,-8.374l21.773,0c0.593,0 1.203,-0.276 1.565,-0.698c0.363,-0.422 0.505,-0.924 0.502,-1.403c-0.003,-0.479 -0.152,-0.972 -0.511,-1.387c-0.359,-0.416 -0.961,-0.695 -1.555,-0.695l-22.177,0c-6.199,0 -11.103,-4.597 -11.103,-11.539c0,-5.799 4.744,-11.745 11.761,-11.745l20.1,0c1.096,0 2.079,-0.494 2.682,-1.213c0.603,-0.72 0.872,-1.606 0.876,-2.479c0.005,-0.873 -0.256,-1.768 -0.86,-2.492c-0.605,-0.725 -1.595,-1.216 -2.698,-1.216l-21.446,0l-0.016,-1.203c0,-0.743 0.403,-1.49 1.051,-2.079c0.647,-0.59 1.517,-0.927 2.05,-0.927l12.018,0c0.465,0 0.926,-0.108 1.378,-0.419c0.452,-0.312 0.873,-0.983 0.873,-1.822c0,-0.864 -0.257,-1.301 -0.873,-1.822c-0.452,-0.312 -0.913,-0.419 -1.378,-0.419l-12.018,0c-0.532,0 -1.403,-0.338 -2.05,-0.927c-0.648,-0.59 -1.051,-1.35 -1.051,-2.092l0.009,-0.737l14.669,0c0.812,0 1.553,-0.26 2.136,-0.708c0.584,-0.447 1.061,-1.134 1.061,-2l0,-1.088l7.133,0c1.849,0 3.457,-0.69 4.608,-1.743Z" style="fill:url(#_Linear5);fill-rule:nonzero;"/><defs><linearGradient id="_Linear1" x1="0" y1="0" x2="1" y2="0" gradientUnits="userSpaceOnUse" gradientTransform="matrix(40.871,110.985,-110.985,40.871,57.8746,77.1307)"><stop offset="0" style="stop-color:#fff;stop-opacity:1"/><stop offset="1" style="stop-color:#53eeef;stop-opacity:1"/></linearGradient><linearGradient id="_Linear2" x1="0" y1="0" x2="1" y2="0" gradientUnits="userSpaceOnUse" gradientTransform="matrix(42.7781,122.614,-122.614,42.7781,98.0155,59.2863)"><stop offset="0" style="stop-color:#2f7fbe;stop-opacity:1"/><stop offset="1" style="stop-color:#225d8b;stop-opacity:1"/></linearGradient><linearGradient id="_Linear3" x1="0" y1="0" x2="1" y2="0" gradientUnits="userSpaceOnUse" gradientTransform="matrix(56.8936,109.599,-109.599,56.8936,42.24,75.4907)"><stop offset="0" style="stop-color:#d50d16;stop-opacity:1"/><stop offset="0.5" style="stop-color:#880d16;stop-opacity:1"/><stop offset="1" style="stop-color:#520d16;stop-opacity:1"/></linearGradient><linearGradient id="_Linear4" x1="0" y1="0" x2="1" y2="0" gradientUnits="userSpaceOnUse" gradientTransform="matrix(124.25,106.124,-106.124,124.25,30.1495,63.7228)"><stop offset="0" style="stop-color:#f8ffbf;stop-opacity:1"/><stop offset="0.51" style="stop-color:#f8e45e;stop-opacity:1"/><stop offset="0.75" style="stop-color:#f8d35e;stop-opacity:1"/><stop offset="1" style="stop-color:#ee8e0a;stop-opacity:1"/></linearGradient><linearGradient id="_Linear5" x1="0" y1="0" x2="1" y2="0" gradientUnits="userSpaceOnUse" gradientTransform="matrix(25.2015,74.9352,-74.9352,25.2015,119.667,93.1349)"><stop offset="0" style="stop-color:#157031;stop-opacity:1"/><stop offset="1" style="stop-color:#0f5324;stop-opacity:1"/></linearGradient></defs></svg>