<?xml version="1.0" encoding="UTF-8" standalone="no"?><!DOCTYPE svg PUBLIC "-//W3C//DTD SVG 1.1//EN" "http://www.w3.org/Graphics/SVG/1.1/DTD/svg11.dtd"><svg width="100%" height="100%" viewBox="0 0 192 192" version="1.1" xmlns="http://www.w3.org/2000/svg" xmlns:xlink="http://www.w3.org/1999/xlink" xml:space="preserve" xmlns:serif="http://www.serif.com/" style="fill-rule:evenodd;clip-rule:evenodd;stroke-linejoin:round;stroke-miterlimit:1.41421;"><g><g id="svg_1982"><path id="svg_1981" d="M191.615,162.154l0,-34.726l-14.438,0l0,34.726l14.438,0Zm-76.449,-14.53l0,-20.196l-13.999,0l0,15.502c0,4.429 -0.179,5.67 -0.444,6.822c-0.976,3.188 -4.343,4.606 -7.796,4.606c-4.785,0 -6.998,-1.86 -7.885,-4.785c-0.265,-0.973 -0.354,-2.035 -0.444,-3.098c-0.089,-1.15 0,-2.393 0,-3.722l0,-15.325l-14.174,0l0,20.285c0,4.518 1.506,7.885 3.986,10.188c4.252,4.165 11.429,5.404 18.072,5.404c8.062,0 14.265,-1.151 18.694,-5.493c2.306,-2.214 3.99,-5.137 3.99,-10.188l0,0Zm-69.445,-2.69l-19.273,0l9.606,-15.846l9.667,15.846l0,0Zm27.188,17.22l-31.894,-47.838l-17.896,0l4.944,5.847l-28.063,41.991l16.123,0l4.81,-7.884l30.41,0l4.91,7.884l16.656,0l0,0Zm100.37,-17.983c0,-3.898 -1.595,-8.416 -6.555,-14.707l-11.96,-15.148l-16.656,0l9.48,10.63c1.595,1.772 3.632,3.365 3.632,3.365c-2.303,-1.327 -5.226,-1.859 -7.53,-1.859c-5.492,0 -11.073,1.151 -16.035,3.898c-5.316,2.923 -8.86,7.797 -8.86,14.263c0,4.96 2.215,8.77 5.049,11.694c6.378,6.378 17.984,6.998 22.236,6.998c6.289,0 16.123,-1.419 21.703,-6.468c3.282,-3.011 5.496,-7.175 5.496,-12.666l0,0Zm-13.82,0.442c0,3.633 -2.393,6.378 -5.405,7.885c-2.478,1.329 -5.402,1.683 -7.971,1.683c-2.57,0 -5.582,-0.529 -8.062,-1.772c-3.012,-1.504 -5.316,-4.429 -5.316,-7.619c0,-3.809 2.923,-6.82 6.379,-8.327c2.124,-0.975 4.696,-1.329 6.732,-1.329c1.949,0 4.783,0.265 6.998,1.152c3.986,1.684 6.645,4.87 6.645,8.327l0,0Z" style="fill:#cc1e47;fill-rule:nonzero;"/></g><g id="svg_1987"><path id="svg_1988" d="M26.513,35.184c-11.157,2.247 -21.865,11.906 -25.459,23.064c-0.974,2.92 -1.199,5.84 -0.974,11.606c0.225,7.189 0.449,8.162 3.07,13.404c7.713,15.725 25.609,22.913 42.233,17.073c2.172,-0.749 4.942,-2.097 6.215,-2.995l2.321,-1.648l5.392,2.696c11.232,5.691 24.86,5.167 34.37,-1.348l2.546,-1.722l2.621,1.797c5.017,3.444 10.259,4.942 17.897,5.017c7.937,0.075 12.43,-1.123 18.196,-4.792c2.021,-1.273 3.669,-1.873 3.894,-1.423c1.048,1.647 9.584,5.167 14.601,5.99c14.602,2.471 29.653,-5.391 36.168,-18.795c2.321,-4.717 2.396,-5.167 2.396,-14.602c0,-9.21 -0.075,-9.959 -2.172,-14.227c-2.845,-5.841 -10.708,-13.703 -16.174,-16.249c-10.858,-5.017 -24.561,-4.268 -32.947,1.647l-2.322,1.648l-5.391,-2.771c-10.484,-5.242 -21.042,-5.317 -31.525,-0.075l-5.317,2.621l-5.241,-2.621c-10.484,-5.167 -21.192,-5.167 -31.45,0.075l-5.317,2.621l-4.418,-2.322c-7.263,-3.968 -15.35,-5.241 -23.213,-3.669Zm12.805,1.648c0.299,0.449 0.149,1.048 -0.375,1.198c-0.524,0.15 1.273,1.048 3.969,1.947c2.696,0.898 6.44,2.77 8.312,4.118l3.369,2.396l0,-1.872c0,-2.396 4.344,-5.316 10.858,-7.338c4.044,-1.273 11.607,-1.498 16.624,-0.524c1.422,0.299 0.299,1.423 -1.498,1.497c-0.898,0 0.225,0.525 2.471,1.124c4.343,1.198 9.585,3.893 11.232,5.84c1.423,1.798 2.247,1.423 2.247,-0.973c0,-1.872 0.599,-2.396 5.466,-4.867c4.343,-2.247 6.59,-2.846 11.157,-3.22c6.141,-0.45 11.083,0.15 11.083,1.348c0,0.449 -0.3,0.599 -0.599,0.374c-0.3,-0.15 -1.049,-0.075 -1.648,0.374c-0.898,0.525 -0.674,0.674 0.749,0.674c2.247,0 9.21,3.145 12.505,5.691l2.396,1.797l0.225,-2.021c0.225,-1.797 1.123,-2.546 5.991,-5.017c4.717,-2.397 6.739,-2.996 11.307,-3.295c6.215,-0.375 11.007,0.225 11.007,1.423c0,0.449 -0.299,0.599 -0.599,0.374c-0.3,-0.15 -1.048,-0.075 -1.572,0.225c-0.674,0.449 0,0.823 1.946,1.198c7.713,1.423 16.624,8.761 20.293,16.698c2.621,5.691 3.145,15.351 1.273,21.491c-2.696,8.387 -9.809,15.875 -18.346,19.244c-3.07,1.124 -5.766,1.573 -10.483,1.573c-7.114,0 -11.681,-1.348 -17.447,-5.317l-3.37,-2.396l-3.819,2.546c-5.391,3.669 -10.708,5.242 -17.297,5.242c-6.59,-0.075 -13.03,-2.097 -17.298,-5.541c-3.22,-2.546 -3.894,-2.696 -5.242,-1.049c-1.722,2.022 -9.21,5.392 -14.152,6.29c-7.863,1.423 -16.249,-0.674 -22.989,-5.691l-2.396,-1.797l-4.567,2.921c-12.206,7.937 -27.557,6.29 -37.815,-3.969c-2.322,-2.247 -5.017,-5.916 -5.991,-8.087c-1.048,-2.172 -1.872,-3.52 -1.872,-3.07c0,0.524 -0.449,0.973 -1.048,0.973c-0.674,0 -1.348,-1.423 -1.872,-3.744c-3.669,-16.923 6.065,-33.322 22.764,-38.639c3.893,-1.273 14.302,-1.347 15.051,-0.149Z" style="fill:#696969;fill-rule:nonzero;"/><path id="svg_1989" d="M25.764,40.651c-11.531,3.893 -18.645,11.906 -20.667,23.587c-1.647,9.061 1.722,18.346 9.061,25.085c4.268,3.969 10.932,7.339 14.077,7.189c0.749,0 0.899,-0.225 0.375,-0.449c-2.172,-0.824 -0.749,-1.348 3.07,-1.124c4.867,0.3 11.606,-1.422 15.575,-4.043c1.573,-0.974 3.519,-1.797 4.343,-1.797c1.348,0 1.273,-0.3 -0.973,-3.595c-1.423,-1.947 -3.07,-4.867 -3.819,-6.514c-1.123,-2.771 -1.198,-2.846 -0.749,-0.599c0.674,3.744 -0.899,2.995 -2.246,-1.049c-2.546,-7.488 -0.824,-20.068 3.669,-26.657c1.572,-2.247 2.396,-2.771 4.343,-2.771l2.396,0l-1.872,-1.498c-1.048,-0.823 -3.969,-2.545 -6.515,-3.818c-3.819,-1.947 -5.765,-2.397 -10.857,-2.621c-3.969,-0.225 -7.339,0.075 -9.211,0.674Zm15.8,3.893c2.022,0.599 4.343,1.498 5.092,2.097c1.273,0.974 1.273,1.198 -0.899,5.092c-5.99,10.633 -6.065,22.914 -0.074,33.547c1.273,2.171 2.171,4.043 2.021,4.193c-0.149,0.075 -1.722,0.973 -3.594,1.947c-2.845,1.498 -4.418,1.797 -10.483,1.797c-6.29,0 -7.638,-0.225 -11.382,-2.097c-10.409,-5.092 -16.249,-18.046 -13.104,-29.053c2.471,-8.312 8.761,-15.051 16.249,-17.448c4.418,-1.422 11.532,-1.497 16.174,-0.075Z" style="fill:#696969;fill-rule:nonzero;"/><path id="svg_1990" d="M66.499,41.1c-2.321,0.749 -5.765,2.396 -7.637,3.744l-3.52,2.396l2.696,3.669c7.488,10.484 7.488,23.962 -0.075,35.194l-2.471,3.744l1.947,1.423c5.167,3.594 13.254,6.515 12.505,4.418c-0.3,-0.749 0.899,-0.973 5.541,-0.973c5.392,-0.075 6.515,-0.375 11.457,-2.846c2.995,-1.497 6.065,-2.77 6.814,-2.77c1.198,0 1.123,-0.3 -0.674,-2.471c-1.123,-1.273 -2.845,-4.119 -3.819,-6.141c-1.048,-2.096 -1.722,-2.995 -1.497,-2.096c0.674,2.92 -0.749,2.62 -1.947,-0.375c-2.846,-7.338 -2.172,-16.024 2.096,-24.636c2.397,-4.867 2.921,-5.391 5.092,-5.616l2.397,-0.224l-3.295,-2.471c-6.814,-5.017 -17.298,-6.59 -25.61,-3.969Zm19.544,4.493c1.872,0.973 3.52,1.872 3.595,1.947c0.149,0.149 -0.599,1.572 -1.648,3.145c-6.514,9.51 -6.514,25.235 0,35.568c2.247,3.445 2.247,3.445 -4.043,5.841c-6.515,2.471 -16.249,1.647 -21.491,-1.797l-1.797,-1.198l1.797,-2.696c6.889,-10.184 6.889,-25.609 0,-35.793c-2.097,-3.07 -1.797,-3.445 3.894,-5.766c5.092,-2.022 14.976,-1.647 19.693,0.749Z" style="fill:#696969;fill-rule:nonzero;"/><path id="svg_1991" d="M109.182,40.651c-3.744,1.048 -9.585,4.268 -11.158,6.14c-0.823,0.973 -0.674,1.497 0.974,3.22c3.22,3.369 5.841,10.034 6.29,16.174c0.524,6.889 -1.423,14.078 -5.392,19.544l-2.62,3.744l2.021,1.722c2.846,2.247 7.563,4.493 10.708,5.092c2.247,0.375 2.471,0.3 1.423,-0.599c-0.973,-0.824 -0.15,-0.973 5.317,-0.973c5.99,0 6.964,-0.225 12.055,-2.771c3.071,-1.498 6.216,-2.845 7.039,-2.995c0.974,-0.15 1.573,-0.899 1.723,-2.321c0.149,-1.199 1.048,-3.295 2.096,-4.793c3.744,-5.616 4.867,-13.029 3.07,-20.218c-0.823,-3.145 -0.823,-3.744 0,-3.444c0.524,0.224 0.974,0.749 0.974,1.198c0,0.449 0.224,0.599 0.449,0.374c0.449,-0.524 -2.171,-5.915 -4.418,-9.135l-1.572,-2.172l-2.471,2.846c-7.264,8.386 -7.638,23.138 -0.824,33.247c1.198,1.797 2.022,3.37 1.872,3.594c-0.524,0.524 -4.418,-4.493 -5.916,-7.638c-1.273,-2.695 -1.422,-2.77 -1.123,-0.823l0.374,2.246l-1.422,-1.872c-4.343,-5.766 -3.595,-18.945 1.647,-28.155c2.022,-3.445 2.546,-3.969 4.643,-3.969l2.396,-0.075l-1.872,-1.572c-1.048,-0.824 -3.969,-2.546 -6.59,-3.744c-5.541,-2.621 -14.077,-3.445 -19.693,-1.872Zm16.698,4.268c5.991,2.246 6.44,2.621 4.942,4.268c-4.343,4.718 -7.039,16.249 -5.766,24.187c0.824,5.092 3.894,12.804 5.616,14.302c1.648,1.348 1.273,1.872 -2.845,3.744c-3.295,1.498 -5.242,1.797 -11.082,1.797c-6.066,0 -7.638,-0.299 -10.484,-1.797c-1.872,-0.974 -3.519,-1.872 -3.594,-1.947c-0.15,-0.15 0.599,-1.572 1.647,-3.145c6.44,-9.36 6.44,-26.283 0,-35.643c-1.048,-1.573 -1.797,-2.996 -1.647,-3.145c0.674,-0.524 5.691,-2.921 7.338,-3.445c3.744,-1.123 11.832,-0.749 15.875,0.824Zm16.1,22.464c0.224,5.317 0,7.039 -1.423,10.409c-0.974,2.246 -2.097,4.193 -2.546,4.343c-0.449,0.149 -1.648,-1.498 -2.621,-3.669c-2.621,-5.991 -2.471,-14.378 0.374,-20.443l2.097,-4.493l1.947,3.744c1.498,2.995 1.947,5.092 2.172,10.109Z" style="fill:#696969;fill-rule:nonzero;"/><path id="svg_1992" d="M151.714,40.426c-3.819,0.973 -9.585,3.969 -11.307,5.916c-1.423,1.572 -1.423,1.647 0.15,3.294c2.546,2.696 5.391,9.211 6.29,14.153c1.348,7.713 -0.824,16.174 -5.991,22.988l-1.947,2.546l2.546,2.172c2.621,2.096 9.435,5.092 11.757,5.092c1.123,0 1.123,-0.075 0,-0.974c-1.049,-0.749 -0.15,-0.898 5.316,-0.898c5.916,0 7.039,-0.225 11.532,-2.471c11.457,-5.616 17.297,-17.672 14.602,-30.103l-1.049,-4.792l1.498,1.797l1.498,1.872l-0.599,-1.872c-1.873,-6.514 -8.163,-13.329 -15.201,-16.623c-5.167,-2.471 -13.853,-3.37 -19.095,-2.097Zm16.249,4.568c5.467,2.022 11.083,7.188 13.703,12.505c1.798,3.669 2.097,5.167 2.097,10.633c0,5.766 -0.225,6.889 -2.471,11.382c-4.193,8.536 -11.307,13.329 -20.742,13.928c-5.466,0.374 -12.056,-0.974 -14.826,-2.996c-1.273,-0.898 -1.199,-1.273 1.048,-5.316c5.915,-11.008 5.915,-22.464 -0.15,-33.397c-1.273,-2.172 -2.171,-4.044 -2.022,-4.193c0.674,-0.599 5.691,-2.921 7.339,-3.445c3.819,-1.123 11.831,-0.749 16.024,0.899Z" style="fill:#696969;fill-rule:nonzero;"/><path id="svg_1993" d="M51.299,52.557c-5.616,8.536 -6.365,18.795 -2.097,27.781c1.198,2.545 2.92,5.466 3.744,6.514l1.573,1.872l0.074,-2.396c0,-1.273 0.3,-2.546 0.674,-2.771c1.273,-0.823 3.969,-7.488 4.568,-11.232c0.524,-3.519 0,-9.584 -1.198,-13.403c-0.449,-1.498 -0.374,-1.573 0.824,-0.525c1.273,1.049 1.273,0.974 0.748,-0.748c-0.748,-2.322 -5.017,-8.986 -5.765,-8.986c-0.3,0 -1.723,1.797 -3.145,3.894Zm5.616,5.99c2.695,5.991 2.546,14.452 -0.375,20.443l-2.096,4.493l-2.022,-4.119c-2.621,-5.616 -2.771,-15.725 -0.3,-21.191c0.899,-1.947 1.947,-3.52 2.322,-3.52c0.374,0 1.497,1.798 2.471,3.894Z" style="fill:#696969;fill-rule:nonzero;"/><path id="svg_1994" d="M93.981,51.134c-4.119,5.391 -5.317,9.285 -5.317,17.372c0,6.964 0.15,7.863 2.396,12.431c1.348,2.695 3.145,5.541 3.969,6.29c1.498,1.347 1.498,1.347 1.498,-0.525c0,-1.048 1.123,-4.043 2.471,-6.589c2.171,-4.268 2.396,-5.392 2.396,-11.157c0,-3.52 -0.3,-7.638 -0.599,-9.061l-0.599,-2.621l1.572,1.872l1.498,1.872l-0.749,-2.246c-1.123,-2.995 -4.118,-8.162 -5.541,-9.285c-0.899,-0.749 -1.423,-0.45 -2.995,1.647Zm4.568,7.039c2.845,6.29 2.845,13.778 -0.075,20.293c-2.022,4.343 -2.247,4.567 -3.22,3.219c-3.969,-5.691 -4.568,-16.024 -1.348,-23.213c1.123,-2.471 2.246,-4.567 2.396,-4.567c0.15,0 1.198,1.946 2.247,4.268Z" style="fill:#696969;fill-rule:nonzero;"/></g></g></svg>