<?xml version="1.0" encoding="UTF-8" standalone="no"?><!DOCTYPE svg PUBLIC "-//W3C//DTD SVG 1.1//EN" "http://www.w3.org/Graphics/SVG/1.1/DTD/svg11.dtd"><svg width="100%" height="100%" viewBox="0 0 192 192" version="1.1" xmlns="http://www.w3.org/2000/svg" xmlns:xlink="http://www.w3.org/1999/xlink" xml:space="preserve" xmlns:serif="http://www.serif.com/" style="fill-rule:evenodd;clip-rule:evenodd;stroke-linejoin:round;stroke-miterlimit:1.41421;"><g><g><path id="path0" d="M89.535,0.164c-14.267,0.656 -30.619,5.923 -42.295,13.625c-1.879,1.238 -3.481,2.332 -3.557,2.428c-0.077,0.095 -0.646,0.548 -1.262,1.007c-1.173,0.872 -1.93,1.501 -4.045,3.369c-2.511,2.216 -2.48,2.184 -6.022,6.31c-0.332,0.387 -0.978,1.206 -1.435,1.824c-0.46,0.616 -0.919,1.185 -1.022,1.262c-2.652,2.006 -7.669,14.344 -8.908,21.906c-0.557,3.408 -0.314,13.678 0.286,12.154c0.125,-0.313 0.153,-0.008 0.069,0.713c-0.235,2.004 0.931,6.452 2.987,11.392c3.589,8.62 10.498,17.237 18.65,23.257c0.616,0.455 1.247,0.922 1.402,1.039c8.107,6.086 20.993,11.595 32.275,13.801c7.758,1.516 9.85,1.694 19.608,1.674c9.446,-0.02 11.694,-0.221 19.771,-1.769c7.534,-1.443 17.987,-5.421 25.239,-9.606c0.848,-0.49 1.794,-1.03 2.104,-1.201c4.332,-2.398 12.251,-9.208 16.256,-13.978c1.6,-1.905 4.635,-6.246 4.635,-6.628c0,-0.146 0.111,-0.308 0.248,-0.358c1.583,-0.599 5.769,-12.514 6.629,-18.866c2.371,-17.523 -7.718,-37.703 -24.115,-48.235c-0.46,-0.294 -0.965,-0.639 -1.123,-0.767c-1.437,-1.161 -7.918,-4.88 -10.649,-6.11c-0.702,-0.314 -1.812,-0.814 -2.469,-1.108c-1.368,-0.615 -3.532,-1.419 -6.941,-2.585c-7.295,-2.492 -17.839,-4.528 -22.796,-4.4c-1.799,0.045 -1.851,0.062 -0.48,0.141c2.1,0.121 8.205,0.874 10.096,1.242c31.154,6.078 52.66,23.885 57.483,47.597c1.07,5.27 1.011,15.011 -0.101,16.293c-0.209,0.241 -0.323,0.596 -0.253,0.789c0.069,0.192 -0.042,0.358 -0.247,0.37c-0.205,0.01 -0.121,0.128 0.187,0.261c0.535,0.229 0.531,0.241 -0.069,0.261c-0.349,0.01 -0.874,0.261 -1.17,0.557c-0.294,0.294 -0.592,0.481 -0.661,0.414c-0.214,-0.214 -0.649,0.533 -1.326,2.273c-0.627,1.615 -1.881,4.158 -3.145,6.381c-0.58,1.019 -1.06,1.361 -1.06,0.753c0,-0.163 -0.134,-0.213 -0.299,-0.111c-0.165,0.101 -0.231,0.369 -0.145,0.593c0.088,0.227 0.034,0.329 -0.121,0.234c-0.264,-0.164 -0.406,0.25 -0.286,0.844c0.03,0.153 -0.037,0.187 -0.15,0.074c-0.113,-0.114 -0.357,0.076 -0.54,0.421c-1.392,2.608 -2.036,3.549 -4.659,6.796c-1.6,1.981 -5.595,6.041 -7.099,7.215c-0.45,0.35 -1.071,0.921 -1.382,1.269c-0.309,0.347 -0.786,0.631 -1.058,0.631c-0.271,0 -0.584,0.145 -0.693,0.323c-0.133,0.214 -0.076,0.247 0.166,0.098c0.231,-0.143 0.3,-0.118 0.184,0.07c-0.101,0.164 -0.446,0.229 -0.766,0.145c-0.446,-0.116 -0.56,-0.035 -0.491,0.348c0.05,0.275 -0.098,0.554 -0.329,0.62c-0.375,0.107 -0.375,0.087 0,-0.177c0.352,-0.249 0.325,-0.298 -0.164,-0.301c-0.322,-0.004 -0.673,0.085 -0.785,0.195c-0.657,0.659 -2.91,1.168 -4.835,1.092c-1.828,-0.072 -3.159,0.325 -2.598,0.774c0.641,0.515 3.368,1.752 3.476,1.577c0.077,-0.127 -0.017,-0.293 -0.21,-0.372c-0.253,-0.101 -0.258,-0.148 -0.019,-0.164c3.327,-0.22 -7.276,5.35 -15.187,7.98c-4.162,1.384 -7.263,2.195 -11.929,3.124c-1.777,0.354 -6.217,0.979 -7.992,1.128c-1.08,0.089 -1.999,0.254 -2.043,0.365c-0.045,0.111 -0.517,0.166 -1.05,0.124c-0.533,-0.042 -1.053,0.059 -1.156,0.224c-0.109,0.177 -0.052,0.219 0.136,0.101c0.177,-0.109 0.544,-0.056 0.815,0.119c0.456,0.293 0.454,0.303 -0.037,0.148c-0.295,-0.092 -0.855,0.048 -1.262,0.317c-0.402,0.266 -1.299,0.772 -1.994,1.126c-0.693,0.355 -1.072,0.652 -0.841,0.662c0.232,0.011 0.106,0.147 -0.28,0.303c-0.824,0.334 -9.762,-0.141 -14.163,-0.75c-30.652,-4.254 -54.552,-22.549 -60.42,-46.251c-0.303,-1.227 -0.503,-2.282 -0.442,-2.342c0.06,-0.061 0.25,0.439 0.42,1.11c1.382,5.425 5.847,14.823 7.046,14.823c0.139,0 0.222,0.141 0.183,0.314c-0.039,0.174 0.091,0.354 0.288,0.401c0.197,0.045 0.235,0.022 0.085,-0.054c-0.149,-0.076 -0.201,-0.318 -0.117,-0.538c0.084,-0.221 0.259,-0.335 0.39,-0.254c0.13,0.079 0.187,-0.108 0.128,-0.419c-0.067,-0.349 0.123,-0.727 0.496,-0.99c0.335,-0.232 0.446,-0.424 0.251,-0.424c-0.252,0 -0.279,-0.138 -0.093,-0.473c0.27,-0.481 0.041,-1.112 -0.77,-2.121c-0.217,-0.27 -0.293,-0.49 -0.167,-0.49c0.125,0 -0.001,-0.252 -0.281,-0.562c-0.279,-0.308 -0.437,-0.56 -0.35,-0.56c0.086,0 -0.252,-1.042 -0.752,-2.314c-0.898,-2.29 -1.743,-5.374 -2.44,-8.905c-0.878,-4.459 -0.331,-13.166 1.161,-18.509c0.867,-3.092 0.906,-3.34 0.33,-2.103c-0.469,1.01 -1.733,5.255 -1.878,6.31c-0.032,0.232 -0.207,0.791 -0.39,1.24c-0.182,0.451 -0.266,0.988 -0.189,1.193c0.08,0.204 0.034,0.372 -0.1,0.372c-0.327,0 -0.864,1.58 -0.626,1.844c0.102,0.115 0.028,0.118 -0.164,0.007c-0.21,-0.121 -0.351,-0.042 -0.351,0.195c0,0.219 -0.431,0.963 -0.959,1.654c-0.529,0.692 -1.151,1.878 -1.384,2.635l-0.422,1.376l-0.02,-3.388c-0.178,-31.045 31.814,-55.957 73.597,-57.309c6.433,-0.207 6.436,-0.209 1.541,-0.201c-2.699,0.005 -5.664,0.044 -6.589,0.086m-2.098,4.735c-8.341,0.87 -15.607,2.721 -21.587,5.497c-3.101,1.439 -4.198,2.486 -2.608,2.486c1.72,0 18.406,12.113 20.885,15.16c2.77,3.406 6.101,11.762 4.69,11.762c-0.145,0 -0.265,-0.133 -0.265,-0.298c0,-0.163 -0.116,-0.224 -0.257,-0.136c-0.141,0.087 -0.448,-0.032 -0.682,-0.264c-0.232,-0.233 -0.546,-0.425 -0.7,-0.425c-0.151,0 -0.351,-0.156 -0.442,-0.349c-0.089,-0.194 -0.103,0.028 -0.025,0.491c1.146,6.971 0.649,11.864 -2.534,24.958c-3.643,14.979 -6.201,21.23 -10.593,25.871c-0.472,0.501 -0.806,0.92 -0.737,0.932c0.069,0.012 0.379,0.079 0.687,0.148c0.454,0.101 2.884,0.342 3.872,0.382c1.132,0.047 -4.246,5.38 -7.909,7.843c-3.927,2.64 -5.643,3.199 -9.285,3.024l-2.944,-0.142l2.524,0.84c4.656,1.548 10.087,3.071 11.119,3.12c0.563,0.027 0.971,0.136 0.905,0.242c-0.064,0.106 0.106,0.195 0.38,0.199c0.554,0.005 0.828,0.058 4.422,0.869c3.017,0.682 6.063,1.225 9.675,1.732c3.531,0.493 16.325,0.49 19.913,-0.005c4.694,-0.648 9.603,-1.582 13.04,-2.48c0.308,-0.081 0.773,-0.16 1.03,-0.177c0.259,-0.017 0.407,-0.135 0.328,-0.263c-0.079,-0.127 0.184,-0.149 0.581,-0.05c0.469,0.118 0.725,0.067 0.725,-0.145c0,-0.18 0.128,-0.249 0.284,-0.151c0.293,0.182 5.349,-1.195 10.184,-2.771l2.756,-0.899l-2.799,0.113c-3.429,0.136 -4.783,-0.254 -8.204,-2.366c-3.032,-1.873 -6.742,-5.21 -5.342,-4.807c0.361,0.104 2.594,-1.75 2.428,-2.02c-0.078,-0.126 0.038,-0.213 0.259,-0.191c0.774,0.074 0.562,-0.286 -0.968,-1.644c-4.36,-3.867 -7.6,-10.005 -9.99,-18.923c-1.571,-5.868 -2.973,-11.528 -3.612,-14.59l-0.673,-3.226l0.16,2.174c0.159,2.177 0.085,2.366 -0.854,2.196c-0.134,-0.026 -0.158,0.18 -0.053,0.457c0.146,0.381 0.112,0.424 -0.135,0.179c-0.18,-0.179 -0.633,-1.945 -1.006,-3.928c-3.705,-19.628 -1.131,-25.566 16.022,-36.964c4.164,-2.766 7.688,-5.127 7.828,-5.245c0.141,-0.116 -0.112,-0.356 -0.561,-0.533c-6.983,-2.744 -14.782,-4.684 -22.483,-5.595c-1.584,-0.187 -2.96,-0.471 -3.059,-0.631c-0.113,-0.183 -0.041,-0.207 0.192,-0.062c0.267,0.165 0.323,0.103 0.196,-0.224c-0.119,-0.314 -0.052,-0.405 0.228,-0.298c0.405,0.155 1.44,-0.649 1.176,-0.915c-0.364,-0.362 -12.608,-0.33 -16.182,0.042m17.942,2.676c3.986,0.422 10.582,1.633 12.901,2.37c4.305,1.368 8.266,2.703 8.632,2.908c0.429,0.241 -0.039,0.587 -7.089,5.268c-1.236,0.82 -2.371,1.592 -2.524,1.715c-0.155,0.124 -0.692,0.466 -1.193,0.762c-0.502,0.296 -0.911,0.628 -0.911,0.739c0,0.109 -0.252,0.281 -0.56,0.378c-0.306,0.098 -0.717,0.334 -0.91,0.524c-0.194,0.188 -0.921,0.735 -1.616,1.211c-3.87,2.659 -7.699,8.269 -9.175,13.446c-0.576,2.014 -0.671,10.725 -0.152,13.564c0.184,1.003 0.475,2.77 0.647,3.927c0.173,1.156 0.481,2.923 0.688,3.926c0.205,1.003 0.5,2.517 0.653,3.365c0.154,0.848 0.417,2.3 0.585,3.226c0.168,0.925 0.638,3.323 1.042,5.327c0.404,2.006 0.838,4.213 0.966,4.908c2.243,12.263 7.548,19.6 19.269,26.642c0.643,0.387 1.171,0.787 1.175,0.891c0.016,0.397 -8.311,3.229 -12.122,4.124c-3.313,0.778 -3.796,0.864 -10.025,1.767c-3.154,0.458 -16.202,0.451 -19.351,-0.01c-7.546,-1.104 -11.029,-1.883 -16.515,-3.69c-6.367,-2.098 -6.145,-1.886 -3.656,-3.496c1.136,-0.734 2.352,-1.468 2.706,-1.628c0.351,-0.161 0.639,-0.388 0.639,-0.508c0,-0.119 0.23,-0.289 0.512,-0.378c0.281,-0.089 0.755,-0.382 1.055,-0.651c0.297,-0.268 1.172,-0.99 1.941,-1.604c3.175,-2.536 6.058,-6.276 7.998,-10.382c0.658,-1.388 1.317,-2.768 1.469,-3.066c0.772,-1.522 2.812,-10.126 4.158,-17.546c0.126,-0.694 0.361,-1.987 0.523,-2.874c0.16,-0.887 0.424,-2.339 0.587,-3.226c2.546,-13.941 2.65,-20.402 0.414,-25.47c-0.267,-0.606 -0.626,-1.417 -0.797,-1.802c-1.808,-4.067 -5.053,-7.261 -12.672,-12.46c-5.383,-3.675 -4.924,-3.369 -7.641,-5.092c-2.659,-1.686 -2.787,-1.521 2.734,-3.5c0.385,-0.138 1.457,-0.457 2.383,-0.708c0.925,-0.251 2.313,-0.639 3.086,-0.861c0.77,-0.223 2.064,-0.524 2.874,-0.67c0.809,-0.147 2.197,-0.401 3.084,-0.566c6.767,-1.253 16.766,-1.585 24.188,-0.8m-46.355,5.1l-2.467,1.188l6.113,3.585c3.362,1.971 6.554,3.853 7.094,4.185c2.253,1.376 0.119,-0.173 -3.927,-2.854c-6.028,-3.993 -6.59,-4.672 -4.387,-5.31l0.882,-0.256l-0.895,-0.025c-0.869,-0.025 -1.602,-0.596 -1.017,-0.791c0.36,-0.12 1.402,-0.899 1.21,-0.905c-0.077,-0.002 -1.25,0.53 -2.606,1.183m-12.257,12.288c-7.669,0.979 -13.037,6.335 -17.402,17.365c-0.853,2.157 -1.948,5.79 -1.948,6.463c0,0.424 0.843,0.309 1.013,-0.136c0.086,-0.223 0.525,-0.485 0.976,-0.584c0.451,-0.1 0.754,-0.288 0.673,-0.418c-0.081,-0.131 -0.025,-0.314 0.123,-0.405c0.156,-0.098 0.213,0.102 0.136,0.471c-0.92,4.395 -1.042,5.516 -1.068,9.892c-0.032,5.154 0.225,7.131 1.541,11.826c0.806,2.882 1.068,3.532 3.776,9.349c0.922,1.98 1.667,4.073 1.933,5.423c0.475,2.424 1.267,3.813 2.204,3.863c4.101,0.22 5.334,0.212 4.959,-0.032c-0.281,-0.182 -0.305,-0.274 -0.071,-0.276c0.221,-0.003 0.157,-0.2 -0.173,-0.528c-0.288,-0.288 -0.75,-1.139 -1.03,-1.893c-0.277,-0.754 -0.629,-1.531 -0.777,-1.727c-0.456,-0.597 -0.077,-0.656 2.083,-0.318c6.948,1.087 13.983,-0.819 18.517,-5.016c4.724,-4.371 5.925,-6.908 11.53,-24.315c4.062,-12.619 2.808,-15.674 -8.568,-20.89c-6.581,-3.019 -6.411,-2.906 -5.279,-3.492c0.482,-0.249 0.874,-0.553 0.874,-0.68c0,-0.124 0.19,-0.247 0.42,-0.272c0.233,-0.025 0.611,-0.068 0.842,-0.093c0.634,-0.07 0.537,-0.166 -0.911,-0.893c-3.102,-1.557 -10.038,-3.226 -12.263,-2.952c-0.158,0.021 -1.107,0.14 -2.11,0.268m93.247,0.008c-4.514,0.552 -7.824,1.762 -16.14,5.9c-3.95,1.967 -6.111,3.392 -7.237,4.777l-0.663,0.812l0.729,-0.131c0.399,-0.072 0.799,-0.015 0.887,0.13c0.089,0.143 0.54,0.261 1.003,0.261l0.839,0l-1.124,1.568c-2.421,3.382 -2.756,6.777 -1.184,12.032c6.621,22.137 9.902,27.888 18.053,31.651c1.317,0.609 1.314,0.644 -0.189,2.303c-0.681,0.754 -1.164,1.488 -1.075,1.634c0.096,0.155 -0.059,0.18 -0.374,0.061c-0.467,-0.177 -0.482,-0.155 -0.116,0.176c1.412,1.276 9.428,2.689 13.226,2.333l2.147,-0.201l0.464,-1.31c0.256,-0.721 0.657,-1.915 0.892,-2.652c0.417,-1.316 0.475,-1.363 3.015,-2.551c3.206,-1.498 3.504,-1.814 5.36,-5.676c2.651,-5.517 3.954,-10.733 4.169,-16.708c0.069,-1.898 0.076,-2.947 0.017,-2.329c-0.602,6.264 -0.814,7.893 -1.296,9.956c-1.45,6.212 -4.28,12.066 -6.478,13.397c-7.912,4.796 -18.834,3.498 -25.438,-3.022c-4.141,-4.089 -5.59,-6.894 -8.692,-16.826c-0.796,-2.544 -1.614,-5.068 -1.821,-5.608c-0.205,-0.541 -0.646,-1.929 -0.978,-3.085c-0.331,-1.157 -0.703,-2.355 -0.826,-2.665c-2.626,-6.591 0.296,-11.607 8.948,-15.352c0.539,-0.234 1.739,-0.773 2.664,-1.197c3.754,-1.723 5.41,-2.33 8.726,-3.198c3.68,-0.966 9.12,-0.112 12.664,1.99c2.073,1.23 6.784,5.928 7.464,7.446c0.291,0.649 0.638,1.115 0.769,1.035c0.131,-0.081 0.167,0.038 0.079,0.265c-0.087,0.229 0.108,0.682 0.434,1.008c0.327,0.325 0.527,0.7 0.446,0.832c-0.082,0.129 0.042,0.395 0.276,0.589c0.232,0.193 0.353,0.573 0.268,0.844c-0.086,0.269 0.032,0.678 0.26,0.909c0.229,0.229 0.357,0.476 0.283,0.55c-0.074,0.074 0.015,0.5 0.199,0.946c0.183,0.446 0.314,0.9 0.291,1.011c-0.024,0.109 0.101,0.552 0.274,0.981c0.173,0.429 0.338,1.033 0.365,1.341c0.027,0.31 0.074,0.853 0.103,1.21c0.027,0.355 0.151,0.585 0.272,0.51c0.123,-0.076 0.18,0.264 0.13,0.753c-0.051,0.492 0.023,1.649 0.165,2.575l0.257,1.683l0.046,-1.683l0.047,-1.683l0.382,1.07c0.21,0.589 0.577,1.288 0.818,1.554c0.908,1.002 1.305,2.542 1.332,5.158c0.022,2.021 0.089,2.44 0.306,1.893c0.33,-0.831 0.105,-10.035 -0.282,-11.497c-0.143,-0.54 -0.416,-1.676 -0.604,-2.524c-0.529,-2.361 -1.658,-5.524 -2.804,-7.853c-1.968,-4 -2.266,-4.466 -2.747,-4.281c-0.35,0.133 -0.404,0.054 -0.246,-0.358c0.113,-0.293 0.119,-0.447 0.015,-0.343c-0.103,0.104 -0.649,-0.72 -1.215,-1.833c-2.87,-5.647 -6.005,-7.827 -12.36,-8.6c-2.609,-0.318 -2.413,-0.318 -5.195,0.022m-85.567,4.48c2.748,0.72 3.549,0.989 6.202,2.094c10.005,4.162 12.241,5.597 13.964,8.955c1.192,2.321 1.252,5.922 0.155,9.119c-0.397,1.157 -0.887,2.672 -1.085,3.365c-1.716,5.953 -5.767,17.43 -6.221,17.622c-0.123,0.051 -0.224,0.241 -0.225,0.421c-0.019,1.967 -8.074,10.283 -9.96,10.283c-0.104,0 -0.587,0.175 -1.072,0.39c-3.239,1.428 -8.376,1.916 -12.243,1.161c-5.742,-1.122 -8.105,-2.645 -9.887,-6.371c-5.224,-10.918 -5.906,-20.883 -2.175,-31.778c1.573,-4.595 2.7,-6.47 5.742,-9.544c5.272,-5.325 10.943,-7.255 16.805,-5.717m50.437,18.206c0,0.538 0.057,0.76 0.128,0.489c0.071,-0.269 0.071,-0.711 0,-0.981c-0.071,-0.269 -0.128,-0.048 -0.128,0.492m0.279,1.962c0,0.54 0.059,0.76 0.13,0.491c0.069,-0.269 0.069,-0.712 0,-0.981c-0.071,-0.271 -0.13,-0.05 -0.13,0.49m0.283,2.103c0,0.463 0.096,1.22 0.214,1.683l0.213,0.841l0,-0.841c0,-0.463 -0.095,-1.22 -0.213,-1.683l-0.214,-0.841l0,0.841m59.564,11.858c-0.074,0.121 -0.204,0.846 -0.29,1.613c-0.185,1.669 0.273,1.124 0.559,-0.668c0.172,-1.077 0.059,-1.474 -0.269,-0.945m-0.675,3.303c0.086,0.085 -0.082,0.937 -0.372,1.893c-0.745,2.449 -0.622,2.675 0.189,0.35c0.777,-2.225 0.802,-2.4 0.353,-2.4c-0.18,0 -0.256,0.071 -0.17,0.157m-8.921,16.585c-1.306,3.606 -1.74,4.128 -3.902,4.685c-0.308,0.079 0.07,0.074 0.841,-0.01c1.651,-0.184 1.972,-0.404 2.426,-1.658c0.187,-0.516 0.426,-0.886 0.532,-0.821c0.106,0.066 0.417,-0.131 0.693,-0.436c0.453,-0.499 0.458,-0.553 0.037,-0.553c-0.565,0 -0.568,-0.12 -0.052,-1.836c0.65,-2.159 0.293,-1.77 -0.575,0.629m-86.629,8.304c-0.909,0.544 -1.915,1.316 -1.718,1.316c0.259,0 2.416,-1.381 2.416,-1.546c0,-0.179 -0.037,-0.165 -0.698,0.23m-26.907,0.818c0.435,0.345 1.27,1.079 1.852,1.632c1.77,1.684 5.518,4.254 5.876,4.032c0.195,-0.12 0.259,-0.086 0.153,0.084c-0.098,0.16 0.325,0.622 0.939,1.03c0.614,0.405 1.119,0.642 1.122,0.525c0.002,-0.118 0.138,-0.026 0.301,0.205c0.213,0.301 0.337,0.326 0.435,0.086c0.075,-0.184 0.286,-0.286 0.469,-0.226c0.559,0.182 2.866,-1.12 2.766,-1.561c-0.067,-0.3 -0.008,-0.322 0.234,-0.084c0.409,0.4 2.063,-0.345 1.779,-0.803c-0.111,-0.183 -0.054,-0.22 0.146,-0.098c0.187,0.116 1.873,-0.572 3.845,-1.568c4.794,-2.423 4.945,-2.507 4.784,-2.67c-0.079,-0.078 -0.815,0.2 -1.634,0.617c-0.821,0.419 -1.684,0.857 -1.922,0.975c-0.235,0.117 -0.836,0.302 -1.334,0.412c-0.498,0.109 -0.853,0.283 -0.789,0.387c0.064,0.102 -0.155,0.2 -0.488,0.215c-0.332,0.015 -1.804,0.253 -3.268,0.527c-2.894,0.54 -6.298,0.304 -8.815,-0.609c-0.628,-0.229 -1.267,-0.443 -1.422,-0.476c-0.513,-0.113 -2.224,-1.082 -3.84,-2.174c-1.743,-1.18 -2.458,-1.456 -1.189,-0.458m87.492,2.706c0.483,0.446 2.875,1.681 3.005,1.551c0.071,-0.071 0.286,0.066 0.481,0.3c0.195,0.235 0.593,0.427 0.882,0.427c0.289,0 0.527,0.099 0.527,0.219c0,0.493 1.647,0.863 1.992,0.447c0.404,-0.486 0.412,-0.479 -1.151,-0.925c-0.695,-0.199 -2.329,-0.789 -3.633,-1.314c-1.304,-0.524 -2.25,-0.842 -2.103,-0.705"/><path id="path3" d="M88.016,0.088c0.064,0.059 1.378,0.174 2.921,0.256c2.027,0.11 2.377,0.088 1.262,-0.079c-1.629,-0.24 -4.382,-0.358 -4.183,-0.177m11.615,0.174l-1.403,0.192l1.262,0.013c0.694,0.008 2.019,-0.079 2.944,-0.195l1.683,-0.209l-1.542,0.004c-0.849,0.001 -2.173,0.089 -2.944,0.195m-16.944,0.38c0.064,0.056 0.622,0.178 1.238,0.273c0.764,0.117 0.988,0.087 0.702,-0.096c-0.384,-0.244 -2.213,-0.411 -1.94,-0.177m21.361,0.094c0.269,0.069 0.712,0.069 0.981,0c0.269,-0.07 0.049,-0.129 -0.492,-0.129c-0.538,0 -0.76,0.059 -0.489,0.129m11.568,1.489c-0.353,0.152 -0.406,0.241 -0.141,0.241c0.232,0 0.673,-0.109 0.982,-0.241c0.354,-0.153 0.406,-0.242 0.14,-0.242c-0.232,0 -0.673,0.109 -0.981,0.242m3.936,0.815c-0.497,0.195 -0.475,0.235 0.22,0.409c0.426,0.107 0.988,0.062 1.252,-0.098c0.375,-0.229 0.303,-0.252 -0.333,-0.108c-0.576,0.132 -0.754,0.091 -0.614,-0.136c0.223,-0.362 0.228,-0.362 -0.525,-0.067m2.795,0.868c-0.354,0.151 -0.406,0.241 -0.142,0.241c0.232,0 0.673,-0.11 0.983,-0.241c0.353,-0.153 0.405,-0.242 0.139,-0.242c-0.232,0 -0.673,0.109 -0.98,0.242m1.657,0.739c0.604,0.212 1.161,0.321 1.238,0.244c0.078,-0.079 -0.037,-0.143 -0.255,-0.147c-0.286,-0.003 -0.303,-0.064 -0.066,-0.215c0.183,-0.116 -0.195,-0.224 -0.841,-0.239l-1.173,-0.027l1.097,0.384m-23.459,0.02c0.35,0.067 0.854,0.064 1.122,-0.005c0.267,-0.071 -0.017,-0.126 -0.635,-0.123c-0.617,0.003 -0.836,0.061 -0.487,0.128m-13.605,0.276c0.27,0.069 0.712,0.069 0.981,0c0.271,-0.071 0.049,-0.13 -0.489,-0.13c-0.54,0 -0.761,0.059 -0.492,0.13m16.468,0.38c-0.228,0.318 -0.622,0.52 -0.883,0.453c-0.331,-0.086 -0.421,0.005 -0.303,0.313c0.12,0.309 0.061,0.368 -0.203,0.205c-0.233,-0.145 -0.305,-0.121 -0.192,0.062c0.099,0.16 1.475,0.444 3.059,0.631c7.705,0.911 16.336,3.066 22.508,5.622c1.405,0.582 2.104,0.582 2.104,0c0,-0.88 -3.408,-2.536 -10.096,-4.908c-2.526,-0.894 -7.468,-1.942 -11.918,-2.526c-3.986,-0.522 -3.584,-0.537 -4.076,0.148m22.443,-0.013c0.233,0.149 0.61,0.272 0.842,0.272c0.373,0 0.373,-0.03 0,-0.272c-0.232,-0.15 -0.609,-0.273 -0.842,-0.273c-0.373,0 -0.373,0.03 0,0.273m1.453,0.424c0.05,0.048 1.085,0.483 2.3,0.966c5.024,1.993 12.175,5.939 16.335,9.012c5.031,3.717 12.027,10.673 11.381,11.319c-0.109,0.109 -0.01,0.158 0.221,0.106c0.244,-0.054 0.422,0.106 0.424,0.378c0.003,0.26 0.117,0.574 0.255,0.7c0.147,0.135 0.157,0.066 0.024,-0.163c-0.153,-0.266 -0.123,-0.328 0.096,-0.193c0.651,0.402 -0.313,1.285 -1.158,1.06c-0.119,-0.032 -0.291,0.133 -0.378,0.363c-0.09,0.232 -0.29,0.345 -0.443,0.249c-0.155,-0.094 -0.064,0.158 0.202,0.562c0.463,0.707 0.942,1.079 0.53,0.413c-0.128,-0.207 -0.076,-0.248 0.143,-0.112c0.189,0.117 0.278,0.384 0.197,0.596c-0.081,0.21 -0.039,0.451 0.096,0.534c1.183,0.73 5.569,9.212 6.821,13.188c3.3,10.485 2.753,20.532 -1.687,30.964c-0.118,0.276 -0.048,0.333 0.228,0.19c0.249,-0.129 0.233,-0.069 -0.045,0.163c-0.547,0.456 -1.291,1.787 -0.846,1.511c0.17,-0.104 0.309,-0.057 0.309,0.106c0,0.608 0.48,0.266 1.06,-0.753c1.264,-2.223 2.518,-4.766 3.145,-6.381c0.677,-1.74 1.112,-2.487 1.326,-2.273c0.069,0.067 0.367,-0.12 0.661,-0.414c0.296,-0.296 0.821,-0.547 1.17,-0.557c0.6,-0.02 0.604,-0.032 0.069,-0.261c-0.308,-0.133 -0.392,-0.251 -0.187,-0.261c0.205,-0.012 0.316,-0.178 0.247,-0.37c-0.07,-0.193 0.044,-0.548 0.253,-0.789c1.745,-2.011 0.964,-14.848 -1.318,-21.684c-0.457,-1.37 -0.767,-2.758 -0.686,-3.085c0.079,-0.326 0.067,-0.422 -0.027,-0.213c-0.211,0.469 -3.761,-6.618 -3.567,-7.121c0.074,-0.195 0.001,-0.436 -0.16,-0.537c-0.189,-0.116 -0.231,0.002 -0.116,0.321c0.259,0.717 0.011,0.443 -1.187,-1.317c-0.578,-0.848 -1.598,-2.268 -2.27,-3.158c-1.263,-1.676 -1.463,-2.07 -0.868,-1.712c0.243,0.145 0.232,0.064 -0.032,-0.26c-0.21,-0.26 -0.474,-0.414 -0.587,-0.345c-0.358,0.222 -1.772,-1.463 -1.541,-1.836c0.124,-0.202 0.099,-0.276 -0.061,-0.177c-0.365,0.226 -3.816,-3.269 -3.535,-3.579c0.119,-0.133 0.05,-0.143 -0.155,-0.025c-0.395,0.229 -2.093,-1.166 -1.868,-1.533c0.069,-0.109 -0.146,-0.437 -0.477,-0.729c-0.332,-0.289 -0.51,-0.37 -0.398,-0.176c0.339,0.579 -0.08,0.4 -1.235,-0.529c-0.6,-0.482 -1.066,-1.012 -1.034,-1.179c0.032,-0.165 -0.133,-0.306 -0.364,-0.315c-0.575,-0.018 -1.768,-0.72 -1.568,-0.92c0.21,-0.21 -0.375,-0.914 -0.764,-0.914c-0.165,0 -0.054,0.202 0.246,0.448c0.299,0.245 0.102,0.188 -0.438,-0.13c-0.54,-0.316 -0.981,-0.712 -0.981,-0.878c0,-0.441 -0.723,-0.816 -1.213,-0.628c-0.298,0.115 -0.353,0.052 -0.192,-0.21c0.147,-0.237 0.12,-0.305 -0.072,-0.183c-0.414,0.255 -2.354,-0.924 -2.125,-1.294c0.106,-0.172 0.048,-0.214 -0.135,-0.1c-0.375,0.231 -1.53,-0.319 -1.333,-0.636c0.074,-0.119 -0.144,-0.207 -0.483,-0.195c-0.341,0.01 -0.587,-0.131 -0.55,-0.32c0.041,-0.21 -0.111,-0.272 -0.397,-0.163c-0.308,0.118 -0.397,0.069 -0.262,-0.146c0.134,-0.221 0.043,-0.266 -0.281,-0.142c-0.312,0.122 -0.414,0.078 -0.29,-0.122c0.105,-0.17 0.042,-0.401 -0.138,-0.514c-0.205,-0.126 -0.254,-0.08 -0.128,0.122c0.276,0.449 0.167,0.422 -1.625,-0.399c-0.939,-0.429 -1.504,-0.847 -1.393,-1.025c0.111,-0.18 0.055,-0.22 -0.14,-0.101c-0.458,0.284 -1.491,-0.091 -1.264,-0.458c0.108,-0.173 0.059,-0.223 -0.114,-0.117c-0.167,0.104 -0.904,-0.049 -1.637,-0.337c-0.869,-0.342 -1.193,-0.585 -0.932,-0.702c0.22,-0.097 0.102,-0.102 -0.265,-0.01c-0.415,0.105 -0.6,0.061 -0.491,-0.117c0.108,-0.172 -0.071,-0.229 -0.454,-0.145c-0.416,0.091 -0.513,0.052 -0.285,-0.111c0.231,-0.165 0.01,-0.259 -0.651,-0.278c-0.548,-0.015 -0.957,0.012 -0.908,0.061m-39.102,1.736c0.347,0.067 0.916,0.067 1.262,0c0.347,-0.065 0.063,-0.121 -0.631,-0.121c-0.695,0 -0.977,0.056 -0.631,0.121m14.303,0c0.346,0.067 0.915,0.067 1.262,0c0.346,-0.065 0.062,-0.121 -0.631,-0.121c-0.695,0 -0.978,0.056 -0.631,0.121m-34.565,1.528c-2.314,0.781 -4.269,1.503 -4.346,1.6c-0.078,0.099 -0.392,0.224 -0.702,0.278c-0.308,0.054 -0.653,0.244 -0.766,0.421c-0.114,0.178 -0.208,0.228 -0.21,0.112c-0.003,-0.116 -0.267,0.052 -0.587,0.372c-0.321,0.321 -0.766,0.513 -0.988,0.428c-0.318,-0.122 -0.346,-0.044 -0.129,0.36c0.319,0.599 2.288,0.96 3.207,0.589l0.595,-0.241l-0.614,-0.017c-2.418,-0.071 0.377,-1.876 6.364,-4.112c4.424,-1.651 3.305,-1.523 -1.824,0.21m63.309,3.064c0.828,0.483 0.594,1.099 -0.42,1.111l-0.911,0.011l0.911,0.396c1.841,0.799 1.489,1.181 -5.116,5.546c-2.776,1.834 -5.11,3.412 -5.189,3.508c-0.077,0.096 0.175,-0.022 0.561,-0.261c0.385,-0.239 3.774,-2.241 7.533,-4.452l6.831,-4.02l-2.064,-1.056c-1.848,-0.946 -3.381,-1.508 -2.136,-0.783m-70.58,1.821c-0.826,0.826 -0.584,1.07 4.262,4.307c1.717,1.146 3.058,2.186 2.98,2.311c-0.077,0.124 0.061,0.149 0.307,0.055c0.289,-0.111 0.419,-0.035 0.365,0.214c-0.051,0.239 0.116,0.351 0.437,0.296c0.318,-0.056 0.446,0.029 0.33,0.217c-0.104,0.168 -0.086,0.288 0.042,0.266c0.597,-0.104 0.947,0.055 0.766,0.35c-0.125,0.2 -0.078,0.247 0.123,0.124c0.178,-0.111 0.324,-0.059 0.324,0.113c0,0.172 0.126,0.236 0.28,0.14c0.154,-0.094 0.281,-0.039 0.281,0.124c0,0.163 0.178,0.296 0.397,0.296c0.218,0 0.439,0.113 0.491,0.251c0.094,0.253 3.037,2.07 3.037,1.876c0,-0.057 -2.413,-1.788 -5.364,-3.85c-6.625,-4.625 -8.284,-6.096 -7.833,-6.939c0.399,-0.744 -0.52,-0.856 -1.225,-0.151m-11.728,3.555c-6.851,4.723 -12.461,10.293 -16.609,16.492c-0.862,1.287 -1.501,2.51 -1.422,2.719c0.081,0.209 0.022,0.303 -0.131,0.209c-0.458,-0.283 -3.308,5.907 -4.52,9.814c-1.756,5.666 -2.204,6.786 -3.513,8.777c-0.67,1.021 -1.218,2.075 -1.218,2.344c0,0.267 -0.126,0.565 -0.281,0.66c-0.153,0.095 -0.271,0.703 -0.261,1.349l0.02,1.174l0.422,-1.376c0.233,-0.757 0.855,-1.943 1.384,-2.635c0.528,-0.691 0.959,-1.435 0.959,-1.654c0,-0.237 0.141,-0.316 0.351,-0.195c0.192,0.111 0.266,0.108 0.164,-0.007c-0.249,-0.276 0.306,-1.844 0.651,-1.844c0.148,0 0.195,-0.121 0.104,-0.268c-0.232,-0.375 0.141,-1.723 0.427,-1.546c0.13,0.081 0.192,-0.091 0.135,-0.379c-0.094,-0.493 1.06,-4.931 1.824,-7.018c0.251,-0.685 0.409,-0.836 0.584,-0.562c0.155,0.246 0.241,0.263 0.242,0.051c0.004,-0.18 0.081,-0.559 0.172,-0.842c0.138,-0.427 0.116,-0.442 -0.136,-0.092c-0.216,0.298 -0.303,0.316 -0.307,0.06c-0.003,-0.197 0.175,-0.427 0.394,-0.511c0.22,-0.084 0.471,-0.34 0.559,-0.567c0.099,-0.259 0.04,-0.342 -0.155,-0.221c-0.19,0.118 -0.259,0.042 -0.172,-0.195c0.078,-0.214 0.293,-0.355 0.478,-0.313c0.224,0.052 0.273,-0.123 0.145,-0.525c-0.141,-0.446 -0.098,-0.547 0.163,-0.385c0.229,0.143 0.283,0.106 0.153,-0.104c-0.109,-0.179 -0.059,-0.325 0.113,-0.325c0.173,0 0.235,-0.126 0.141,-0.28c-0.096,-0.154 -0.032,-0.281 0.14,-0.281c0.172,0 0.235,-0.126 0.14,-0.281c-0.095,-0.153 -0.019,-0.279 0.171,-0.279c0.189,0 0.266,-0.077 0.174,-0.17c-0.095,-0.094 0.042,-0.404 0.302,-0.688c0.261,-0.284 0.853,-1.243 1.316,-2.132c0.463,-0.887 0.991,-1.807 1.176,-2.046c0.184,-0.237 1.227,-1.598 2.319,-3.022c4.104,-5.358 8.122,-9.032 15.162,-13.872c0.382,-0.262 0.621,-0.483 0.535,-0.491c-0.087,-0.008 -1.12,0.648 -2.295,1.457m-9.025,1.592c-0.263,0.289 -0.359,0.599 -0.216,0.688c0.145,0.089 0.476,-0.076 0.739,-0.365c0.261,-0.289 0.358,-0.599 0.214,-0.688c-0.143,-0.089 -0.475,0.076 -0.737,0.365m-1.986,2.27c-0.096,0.156 -0.296,0.21 -0.444,0.119c-0.147,-0.091 -0.232,0.002 -0.19,0.206c0.042,0.205 -0.111,0.329 -0.344,0.277c-0.232,-0.05 -0.324,0.004 -0.206,0.121c0.297,0.298 -1.21,1.816 -1.591,1.601c-0.168,-0.096 -0.212,-0.071 -0.095,0.057c0.116,0.128 -0.006,0.494 -0.271,0.816c-0.265,0.321 0.43,-0.296 1.543,-1.372c1.112,-1.075 2.022,-1.99 2.022,-2.034c0,-0.182 -0.261,-0.054 -0.424,0.209m74.836,1.467c-0.413,0.66 -0.374,1.119 0.065,0.756c0.217,-0.18 0.332,-0.429 0.256,-0.554c-0.077,-0.123 0.018,-0.288 0.214,-0.367c0.25,-0.101 0.257,-0.148 0.018,-0.163c-0.185,-0.012 -0.434,0.135 -0.553,0.328m-30.487,3.335c0.253,0.279 0.569,0.441 0.702,0.358c0.359,-0.222 0.296,-0.408 -0.108,-0.328c-0.191,0.039 -0.324,-0.067 -0.296,-0.234c0.031,-0.166 -0.128,-0.302 -0.351,-0.302c-0.335,0 -0.325,0.087 0.053,0.506m-49.649,0.212c-0.29,0.321 -0.37,0.602 -0.202,0.707c0.288,0.178 0.681,-0.273 0.776,-0.889c0.07,-0.469 -0.005,-0.444 -0.574,0.182m5.149,2.203l-0.968,1.051l1.052,-0.967c0.979,-0.899 1.181,-1.136 0.967,-1.136c-0.047,0 -0.52,0.473 -1.051,1.052m23.922,-0.611c0.885,0.479 0.934,0.569 0.35,0.634c-0.231,0.025 -0.609,0.068 -0.842,0.093c-0.23,0.025 -0.42,0.148 -0.42,0.272c0,0.127 -0.392,0.431 -0.874,0.68c-1.098,0.567 -1.107,0.562 3.184,2.526c2.391,1.093 3.458,1.714 3.226,1.878c-0.222,0.154 -0.137,0.185 0.237,0.08c0.68,-0.19 4.743,1.76 4.743,2.275c0,0.18 0.116,0.433 0.256,0.562c0.148,0.135 0.172,0.086 0.054,-0.117c-0.384,-0.667 0.232,-0.345 1.348,0.701c0.617,0.579 0.979,0.862 0.807,0.631c-0.173,-0.232 -0.355,-0.547 -0.407,-0.701c-0.052,-0.154 -0.21,-0.241 -0.352,-0.194c-0.141,0.047 -0.095,-0.111 0.105,-0.352c0.402,-0.484 0.703,-0.592 0.434,-0.154c-0.227,0.365 0.037,0.353 1.171,-0.058c0.513,-0.185 0.932,-0.444 0.932,-0.577c0,-0.133 -0.124,-0.163 -0.277,-0.069c-0.157,0.096 -0.209,-0.01 -0.118,-0.242c0.335,-0.875 -12.373,-8.371 -14.067,-8.299c-0.145,0.007 0.086,0.2 0.51,0.431m23.486,0.93c0,0.194 -0.153,0.258 -0.35,0.147c-0.281,-0.158 -0.281,-0.123 0,0.18c0.194,0.207 0.35,0.461 0.35,0.563c0,0.244 -2.248,-0.01 -2.837,-0.319c-0.893,-0.471 -0.745,0.101 0.539,2.078c1.324,2.041 3.111,6.035 3.155,7.057l0.025,0.56l0.24,-0.56c0.133,-0.308 0.251,-0.404 0.261,-0.21c0.01,0.193 0.155,0.349 0.32,0.349c0.165,0 0.491,0.192 0.723,0.425c0.234,0.232 0.541,0.351 0.682,0.264c0.141,-0.088 0.257,-0.027 0.257,0.136c0,0.165 0.12,0.298 0.265,0.298c0.341,0 0.109,-1.632 -0.568,-3.971c-0.296,-1.028 -0.496,-2.038 -0.444,-2.245c0.052,-0.205 0.037,-0.267 -0.032,-0.138c-0.107,0.204 -2.305,-3.528 -2.305,-3.917c0,-0.076 0.158,-0.044 0.35,0.072c0.22,0.132 0.197,0.007 -0.061,-0.335c-0.225,-0.299 -0.447,-0.597 -0.491,-0.661c-0.042,-0.064 -0.079,0.039 -0.079,0.227m72.285,4.564c0.578,1.167 1.144,2.069 1.258,2.005c0.113,-0.065 0.138,0.063 0.054,0.281c-0.165,0.428 0.608,0.882 0.845,0.498c0.121,-0.196 -2.22,-3.873 -2.953,-4.639c-0.142,-0.146 0.217,0.689 0.796,1.855m-41.622,2.864c-4.326,4.938 -4.439,8.684 -0.655,21.768c5.188,17.927 6.665,20.913 12.479,25.213c2.502,1.849 6.555,3.942 5.744,2.966c-0.299,-0.362 -0.276,-0.397 0.152,-0.234c0.292,0.113 0.437,0.083 0.343,-0.069c-0.089,-0.146 0.394,-0.88 1.075,-1.634c1.547,-1.708 1.555,-1.649 -0.313,-2.562c-2.029,-0.993 -3.84,-2.316 -3.631,-2.652c0.091,-0.148 -0.002,-0.205 -0.204,-0.126c-0.521,0.2 -3.715,-3.08 -3.437,-3.531c0.136,-0.218 0.104,-0.281 -0.084,-0.163c-0.167,0.103 -0.566,-0.181 -0.885,-0.631c-0.628,-0.881 -0.751,-1.289 -0.305,-1.014c0.162,0.101 0.204,-0.019 0.101,-0.288c-0.128,-0.332 -0.234,-0.365 -0.385,-0.121c-0.281,0.456 -2.346,-3.248 -2.127,-3.817c0.089,-0.235 0.054,-0.361 -0.081,-0.277c-0.358,0.222 -1.489,-2.999 -1.277,-3.641c0.119,-0.367 0.094,-0.431 -0.076,-0.196c-0.17,0.236 -1.024,-2.047 -2.578,-6.87c-3.032,-9.428 -2.895,-8.941 -2.69,-9.673c0.126,-0.45 0.101,-0.522 -0.089,-0.248c-0.307,0.441 -0.89,-1.839 -0.89,-3.473c0,-1.632 0.583,-3.913 0.89,-3.471c0.192,0.278 0.218,0.212 0.094,-0.23c-0.199,-0.709 0.646,-2.585 0.946,-2.099c0.122,0.197 0.331,0.086 0.578,-0.309c0.352,-0.567 0.345,-0.588 -0.08,-0.236c-0.689,0.569 -0.566,0.13 0.269,-0.964l0.734,-0.962l-0.859,0c-0.471,0 -0.93,-0.118 -1.019,-0.261c-0.088,-0.145 -0.503,-0.201 -0.922,-0.125l-0.763,0.14l0.675,-0.719c0.372,-0.395 0.601,-0.718 0.51,-0.718c-0.091,0 -0.65,0.552 -1.24,1.227m43.939,0.228c-0.005,0.254 1.137,2.189 1.292,2.189c0.067,0 -0.067,-0.346 -0.298,-0.77c-0.57,-1.055 -0.989,-1.651 -0.994,-1.419m-54.432,3.441c-0.402,1.797 -0.946,2.556 -2.028,2.827c-0.683,0.172 -0.754,0.312 -0.752,1.491c0.005,3.024 1.908,14.405 2.509,15.001c0.247,0.245 0.281,0.202 0.135,-0.179c-0.105,-0.277 -0.081,-0.483 0.053,-0.457c0.837,0.151 0.916,-0.083 0.862,-2.517c-0.03,-1.374 -0.135,-2.37 -0.231,-2.217c-0.269,0.435 -0.575,-2.143 -0.358,-3.013c0.15,-0.594 0.111,-0.72 -0.17,-0.547c-0.284,0.175 -0.33,-0.03 -0.207,-0.941c0.086,-0.641 0.057,-1.103 -0.062,-1.029c-0.216,0.133 -0.126,-5.37 0.104,-6.445c0.066,-0.308 0.261,-1.178 0.434,-1.93c0.172,-0.754 0.258,-1.425 0.189,-1.494c-0.069,-0.069 -0.285,0.584 -0.478,1.45m-2.711,1.414c0.004,0.616 0.061,0.836 0.128,0.486c0.066,-0.348 0.064,-0.853 -0.007,-1.121c-0.07,-0.269 -0.124,0.017 -0.121,0.635m-15.711,2.382c0,0.541 0.058,0.761 0.128,0.492c0.071,-0.269 0.071,-0.712 0,-0.981c-0.07,-0.271 -0.128,-0.051 -0.128,0.489m15.425,3.928c0,0.538 0.057,0.76 0.128,0.489c0.071,-0.269 0.071,-0.711 0,-0.981c-0.071,-0.269 -0.128,-0.048 -0.128,0.492m-72.172,-0.352c-0.018,0.116 -0.022,0.296 -0.006,0.4c0.013,0.105 -0.339,0.27 -0.786,0.369c-0.446,0.098 -0.88,0.358 -0.966,0.581c-0.189,0.491 -0.922,0.533 -1.08,0.062c-0.369,-1.107 -0.912,4.691 -0.901,9.596c0.026,9.392 2.216,16.273 7.853,24.657c2.011,2.994 2.866,3.98 2.566,2.963c-0.091,-0.306 -0.319,-1.378 -0.508,-2.381c-0.202,-1.07 -0.966,-3.096 -1.852,-4.906c-1.084,-2.213 -1.463,-3.281 -1.347,-3.786c0.112,-0.483 0.081,-0.581 -0.097,-0.313c-0.348,0.523 -1.235,-1.493 -2.265,-5.157c-1.302,-4.636 -1.561,-6.633 -1.529,-11.779c0.026,-4.375 0.149,-5.507 1.068,-9.885c0.072,-0.347 0.076,-0.631 0.007,-0.631c-0.068,0 -0.138,0.096 -0.157,0.21m132.358,7.018c-0.053,0.961 -0.003,1.747 0.113,1.747c0.116,0 0.211,-0.284 0.211,-0.631c0.001,-0.67 0.452,-0.002 1.563,2.314c1.438,3.001 -0.938,13.925 -4.493,20.642c-1.957,3.7 -3.634,6.226 -3.747,5.644c-0.094,-0.485 1.696,-5.992 2.376,-7.305c0.229,-0.442 0.353,-0.868 0.279,-0.944c-0.076,-0.075 -0.399,0.451 -0.715,1.17c-0.318,0.718 -0.697,1.233 -0.84,1.144c-0.143,-0.089 -0.205,0.061 -0.136,0.33c0.209,0.826 -1.264,2.056 -3.99,3.33c-2.54,1.188 -2.598,1.235 -3.015,2.551c-1.233,3.878 -1.284,3.966 -2.384,4.09c-0.564,0.064 -0.051,0.11 1.141,0.101c1.479,-0.01 2.207,-0.128 2.3,-0.37c0.106,-0.274 0.338,-0.286 1.006,-0.054c0.476,0.167 0.946,0.226 1.04,0.13c0.096,-0.095 -0.069,-0.177 -0.365,-0.184c-0.431,-0.008 -0.384,-0.094 0.234,-0.429c1.065,-0.577 0.977,-0.802 -0.096,-0.247c-1.197,0.619 -1.149,0.454 0.264,-0.921c0.671,-0.652 1.148,-0.994 1.055,-0.757c-0.101,0.266 -0.049,0.36 0.136,0.246c0.167,-0.103 0.241,-0.426 0.163,-0.717c-0.085,-0.331 -0.025,-0.459 0.165,-0.343c0.191,0.118 0.236,0.015 0.123,-0.279c-0.099,-0.258 -0.082,-0.468 0.037,-0.468c0.118,0 0.444,-0.636 0.725,-1.415c0.64,-1.779 0.84,-1.681 0.293,0.141c-0.525,1.74 -0.518,1.836 0.116,1.836c0.561,0 1.259,-0.645 0.99,-0.916c-0.089,-0.089 0.104,-0.304 0.43,-0.479c0.325,-0.173 0.519,-0.436 0.428,-0.582c-0.091,-0.147 -0.024,-0.268 0.15,-0.268c0.171,0 0.24,-0.118 0.149,-0.262c-0.089,-0.145 0.061,-0.394 0.335,-0.552c0.273,-0.16 0.377,-0.293 0.232,-0.298c-0.144,-0.005 -0.057,-0.167 0.196,-0.36c0.252,-0.192 0.498,-0.529 0.545,-0.747c0.045,-0.219 0.303,-0.626 0.569,-0.906c0.284,-0.297 0.408,-0.703 0.302,-0.98c-0.106,-0.28 -0.067,-0.403 0.096,-0.302c0.153,0.095 0.62,-0.526 1.037,-1.378c0.417,-0.851 0.629,-1.467 0.471,-1.369c-0.36,0.222 -0.365,-0.143 -0.007,-0.697c0.243,-0.375 0.274,-0.375 0.296,0c0.016,0.276 0.1,0.229 0.246,-0.141c0.123,-0.308 0.121,-0.626 -0.005,-0.709c-0.125,-0.081 -0.109,-0.333 0.035,-0.56c0.229,-0.362 0.264,-0.362 0.285,0.007c0.017,0.281 0.102,0.235 0.259,-0.14c0.128,-0.308 0.171,-0.877 0.097,-1.262c-0.096,-0.495 -0.058,-0.591 0.13,-0.323c0.333,0.471 0.656,-0.592 0.798,-2.622c0.141,-2.036 0.159,-2.103 0.57,-2.103c0.431,0 0.498,-0.602 0.113,-0.996c-0.354,-0.358 0.08,-2.248 0.494,-2.159c0.201,0.042 0.32,-0.286 0.308,-0.841c-0.017,-0.751 -0.06,-0.813 -0.249,-0.35c-0.143,0.353 -0.239,-0.399 -0.257,-2.035c-0.029,-2.614 -0.428,-4.156 -1.334,-5.158c-0.241,-0.266 -0.601,-0.961 -0.803,-1.547l-0.365,-1.065l-0.1,1.748m-141.508,-0.077c0.003,0.617 0.061,0.836 0.128,0.488c0.066,-0.348 0.064,-0.853 -0.007,-1.122c-0.07,-0.268 -0.124,0.018 -0.121,0.634m-0.53,3.927c0.002,1.542 0.049,2.137 0.104,1.323c0.058,-0.816 0.058,-2.078 0,-2.805c-0.059,-0.727 -0.104,-0.061 -0.104,1.482m145.267,-0.141c0,1.465 0.048,2.064 0.105,1.333c0.059,-0.732 0.059,-1.932 0,-2.664c-0.057,-0.734 -0.105,-0.135 -0.105,1.331m-140.256,-1.402c0,0.54 0.057,0.761 0.128,0.492c0.07,-0.271 0.07,-0.712 0,-0.983c-0.071,-0.269 -0.128,-0.049 -0.128,0.491m3.926,1.402c0,0.54 0.058,0.76 0.129,0.491c0.069,-0.269 0.069,-0.712 0,-0.981c-0.071,-0.271 -0.129,-0.05 -0.129,0.49m-3.926,1.403c0,0.539 0.057,0.761 0.128,0.49c0.07,-0.269 0.07,-0.712 0,-0.981c-0.071,-0.269 -0.128,-0.049 -0.128,0.491m137.048,1.612c0.134,0.968 0.153,0.988 0.245,0.246c0.056,-0.443 -0.01,-0.916 -0.144,-1.05c-0.142,-0.141 -0.184,0.202 -0.101,0.804m-141.421,3.214c-0.094,0.353 -0.16,0.895 -0.147,1.203c0.014,0.308 0.14,0.069 0.281,-0.533c0.273,-1.165 0.157,-1.752 -0.134,-0.67m0.279,2.327c-0.113,0.293 -0.061,0.379 0.15,0.249c0.229,-0.141 0.269,0.074 0.138,0.757c-0.13,0.672 -0.103,0.83 0.091,0.534c0.294,-0.45 0.427,0.348 0.35,2.103c-0.031,0.71 0.001,0.754 0.21,0.281c0.236,-0.537 0.247,-0.533 0.266,0.071c0.01,0.346 0.134,0.631 0.274,0.631c0.222,0 -0.9,-4.666 -1.193,-4.959c-0.062,-0.062 -0.192,0.087 -0.286,0.333m142.405,3.623c-0.102,0.412 -0.24,0.693 -0.306,0.627c-0.067,-0.065 -0.037,-0.456 0.067,-0.866c0.103,-0.412 0.241,-0.693 0.307,-0.628c0.067,0.066 0.037,0.456 -0.068,0.867m-139.894,3.767c-0.108,0.175 -0.059,0.32 0.109,0.32c0.214,0 0.205,0.192 -0.029,0.631c-0.306,0.572 -0.292,0.596 0.13,0.246c0.276,-0.228 0.466,-0.263 0.466,-0.086c0,0.163 -0.126,0.375 -0.279,0.471c-0.155,0.096 -0.281,0.32 -0.281,0.5c0,0.18 0.195,0.048 0.432,-0.291c0.375,-0.537 0.38,-0.717 0.042,-1.365c-0.251,-0.478 -0.463,-0.631 -0.59,-0.426m40.523,1.272c-0.265,0.318 -0.258,0.394 0.03,0.352c0.389,-0.057 0.638,-0.426 0.431,-0.633c-0.069,-0.069 -0.276,0.059 -0.461,0.281m-1.138,1.984c-0.357,0.38 -0.737,0.64 -0.843,0.574c-0.106,-0.066 -0.193,0.067 -0.193,0.298c0,0.272 0.324,0.102 0.935,-0.488c0.513,-0.498 0.934,-0.944 0.934,-0.991c0,-0.204 -0.224,-0.041 -0.833,0.607m14.314,3.668c-0.794,1.626 -1.628,3.027 -1.852,3.113c-0.224,0.086 -0.343,0.261 -0.264,0.389c0.079,0.128 -0.005,0.323 -0.185,0.434c-0.197,0.123 -0.255,0.082 -0.14,-0.101c0.103,-0.168 0.059,-0.384 -0.098,-0.481c-0.156,-0.096 -0.286,-0.01 -0.289,0.192c-0.004,0.281 -0.062,0.274 -0.254,-0.029c-0.209,-0.328 -0.988,-0.358 -4.553,-0.183c-2.366,0.117 -4.54,0.207 -4.83,0.2c-0.289,-0.007 -1.803,0.602 -3.365,1.353c-6.179,2.97 -12.734,4.078 -19.991,3.382c-2.018,-0.195 -3.786,-0.434 -3.929,-0.532c-0.561,-0.384 -3.473,-4.232 -5.02,-6.63c-0.895,-1.388 -1.741,-2.601 -1.879,-2.695c-0.138,-0.094 -0.231,-0.254 -0.207,-0.357c0.025,-0.102 -0.009,-0.341 -0.076,-0.53c-0.067,-0.188 -0.108,0.13 -0.091,0.709c0.017,0.577 0.153,1.051 0.303,1.051c0.15,0 0,0.192 -0.335,0.424c-0.373,0.263 -0.563,0.641 -0.496,0.99c0.059,0.311 -0.012,0.491 -0.158,0.4c-0.147,-0.091 -0.266,-0.035 -0.266,0.125c0,0.617 -0.857,-0.09 -1.698,-1.402c-1.038,-1.619 -1.433,-1.866 -0.491,-0.308c0.654,1.082 2.098,3.009 1.775,2.369c-0.118,-0.234 -0.025,-0.291 0.283,-0.171c0.338,0.129 0.368,0.232 0.116,0.387c-0.697,0.43 6.128,8.112 9.707,10.927c1.073,0.844 1.859,2.377 0.922,1.797c-0.214,-0.133 -0.247,-0.076 -0.098,0.166c0.177,0.285 0.318,0.249 0.643,-0.166c0.285,-0.365 0.367,-0.396 0.264,-0.093c-0.134,0.397 0.791,1.291 1.22,1.176c0.091,-0.023 0.163,0.118 0.163,0.315c0,0.197 -0.159,0.358 -0.358,0.358c-0.197,0 -0.333,-0.136 -0.303,-0.304c0.031,-0.167 -0.113,-0.269 -0.316,-0.227c-0.205,0.043 -0.293,-0.053 -0.195,-0.211c0.099,-0.156 0.075,-0.296 -0.049,-0.308c-0.83,-0.079 -1.351,-0.269 -1.437,-0.525c-0.054,-0.161 -0.236,-0.294 -0.404,-0.294c-0.168,0 -0.03,0.293 0.306,0.651c0.337,0.359 0.546,0.719 0.463,0.801c-0.082,0.083 0.067,0.327 0.332,0.54c0.318,0.259 0.41,0.273 0.27,0.041c-0.356,-0.594 0.196,-0.369 1.2,0.491c0.527,0.449 1.057,0.755 1.178,0.681c0.121,-0.075 0.172,0.118 0.111,0.426c-0.059,0.31 0.03,0.648 0.199,0.752c0.195,0.121 0.225,0.059 0.084,-0.17c-0.15,-0.242 -0.094,-0.314 0.166,-0.218c0.214,0.077 0.36,0.279 0.323,0.447c-0.037,0.167 0.09,0.251 0.281,0.184c0.191,-0.066 0.726,0.195 1.188,0.58c0.606,0.505 0.683,0.651 0.281,0.525c-0.425,-0.133 -0.466,-0.108 -0.166,0.106c0.217,0.153 0.533,0.231 0.701,0.172c0.169,-0.061 0.621,0.141 1.007,0.449c0.578,0.461 0.602,0.53 0.141,0.389c-0.441,-0.133 -0.473,-0.108 -0.155,0.119c0.224,0.158 0.507,0.227 0.628,0.152c0.36,-0.223 2.768,1.32 2.568,1.645c-0.106,0.173 -0.051,0.216 0.134,0.101c0.406,-0.251 1.521,0.332 1.304,0.682c-0.091,0.148 0.047,0.181 0.32,0.077c0.352,-0.135 0.419,-0.084 0.251,0.187c-0.148,0.24 -0.122,0.304 0.077,0.181c0.407,-0.25 5.122,2.099 4.908,2.445c-0.092,0.148 -0.02,0.18 0.158,0.069c0.179,-0.111 1.87,0.426 3.759,1.193c1.888,0.766 3.993,1.542 4.675,1.723c0.747,0.199 1.105,0.413 0.903,0.539c-0.188,0.116 0.071,0.205 0.583,0.203c0.506,-0.003 2.182,0.342 3.723,0.764c7.576,2.075 23.14,3.929 25.381,3.022c0.386,-0.156 0.512,-0.292 0.28,-0.303c-0.231,-0.01 0.148,-0.307 0.841,-0.662c0.695,-0.354 1.592,-0.86 1.994,-1.126c0.407,-0.269 0.967,-0.409 1.262,-0.317c0.491,0.155 0.493,0.145 0.037,-0.148c-0.271,-0.175 -0.638,-0.228 -0.815,-0.119c-0.188,0.118 -0.245,0.076 -0.136,-0.101c0.103,-0.165 0.628,-0.266 1.166,-0.222c0.539,0.042 0.979,-0.049 0.979,-0.202c0,-0.18 -1.213,-0.212 -3.435,-0.089c-14.73,0.816 -33.746,-3.754 -45.203,-10.865l-1.104,-0.685l1.385,-0.718c0.761,-0.397 1.282,-0.727 1.159,-0.734c-0.122,-0.007 -0.6,0.182 -1.06,0.419c-0.459,0.237 -0.947,0.363 -1.083,0.279c-0.137,-0.084 -0.313,0.005 -0.391,0.199c-0.109,0.266 -0.215,0.249 -0.441,-0.069c-0.163,-0.231 -0.299,-0.323 -0.301,-0.205c-0.003,0.117 -0.508,-0.12 -1.122,-0.525c-0.614,-0.408 -1.037,-0.87 -0.939,-1.03c0.106,-0.17 0.042,-0.204 -0.153,-0.084c-0.358,0.222 -4.106,-2.348 -5.876,-4.032c-0.582,-0.553 -1.417,-1.287 -1.852,-1.632c-1.269,-0.998 -0.554,-0.722 1.189,0.458c1.616,1.092 3.327,2.061 3.84,2.174c0.155,0.033 0.794,0.247 1.422,0.476c2.517,0.913 5.921,1.149 8.815,0.609c1.464,-0.274 2.936,-0.512 3.268,-0.527c0.333,-0.015 0.55,-0.116 0.483,-0.225c-0.068,-0.108 0.325,-0.28 0.871,-0.382c0.546,-0.103 1.062,-0.298 1.146,-0.434c0.084,-0.138 0.406,-0.249 0.715,-0.249c0.308,0 0.483,0.124 0.389,0.277c-0.099,0.162 0.02,0.204 0.288,0.101c0.341,-0.131 0.37,-0.23 0.113,-0.39c-0.231,-0.143 0.038,-0.411 0.806,-0.803c1.28,-0.653 1.571,-0.722 1.317,-0.311c-0.099,0.161 0.017,0.205 0.276,0.106c0.246,-0.094 0.384,-0.236 0.305,-0.315c-0.335,-0.335 1.889,-1.613 2.601,-1.496c0.21,0.036 0.294,-0.072 0.188,-0.242c-0.104,-0.171 -0.023,-0.272 0.184,-0.229c0.203,0.042 0.34,-0.077 0.304,-0.264c-0.037,-0.187 0.098,-0.278 0.298,-0.2c0.2,0.077 0.609,-0.148 0.909,-0.502l0.542,-0.641l-0.7,0.562l-0.702,0.561l0.528,-0.625c0.291,-0.343 0.618,-0.568 0.729,-0.501c0.21,0.131 1.75,-1.349 1.622,-1.558c-0.042,-0.066 -0.025,-0.093 0.034,-0.059c0.461,0.261 3.227,-4.341 4.681,-7.787c1.302,-3.086 1.013,-2.788 -0.704,0.728m81.373,1.409c-0.347,0.528 -0.576,0.96 -0.507,0.96c0.196,0 1.357,-1.702 1.241,-1.818c-0.058,-0.058 -0.387,0.329 -0.734,0.858m-103.592,-0.13c0.36,0.138 0.836,0.148 1.057,0.025c0.261,-0.146 0.032,-0.234 -0.656,-0.249c-0.909,-0.022 -0.965,0.01 -0.401,0.224m-1.637,0.702c-1.755,0.577 -7.516,0.814 -10.064,0.415c-2.16,-0.338 -2.539,-0.279 -2.083,0.318c0.148,0.196 0.5,0.973 0.777,1.727c0.28,0.754 0.742,1.605 1.03,1.893c0.33,0.328 0.394,0.525 0.173,0.528c-0.237,0.002 -0.213,0.098 0.071,0.296c0.308,0.214 0.022,0.263 -1.063,0.182c-0.818,-0.061 -1.55,-0.005 -1.631,0.125c-0.754,1.221 14.242,-0.371 16.367,-1.739c0.449,-0.287 0.444,-0.299 -0.042,-0.146c-0.469,0.15 -0.486,0.113 -0.14,-0.311c0.349,-0.428 0.33,-0.458 -0.163,-0.273c-0.303,0.114 -0.461,0.118 -0.35,0.007c0.111,-0.111 -0.17,-0.862 -0.624,-1.668c-0.454,-0.804 -0.749,-1.541 -0.655,-1.635c0.261,-0.259 -0.21,-0.177 -1.603,0.281m62.004,1.161c0.213,0.346 0.491,0.631 0.617,0.631c0.126,0 0.162,0.109 0.079,0.244c-0.303,0.489 2.665,4.237 4.531,5.722c2.025,1.612 4,2.891 4,2.59c0,-0.101 0.205,0.02 0.454,0.271c0.251,0.249 0.817,0.527 1.257,0.614c0.443,0.089 0.744,0.259 0.67,0.379c-0.074,0.119 0.061,0.291 0.3,0.383c0.245,0.095 0.36,0.047 0.264,-0.107c-0.096,-0.157 0.018,-0.202 0.264,-0.108c0.239,0.091 0.377,0.257 0.31,0.368c-0.069,0.112 0.467,0.48 1.193,0.818c1.209,0.567 1.161,0.401 -0.13,-0.429c-0.284,-0.182 0.747,0.162 2.288,0.764c1.543,0.602 3.216,1.176 3.717,1.274c0.978,0.192 1.124,0.432 0.551,0.907c-0.228,0.19 -0.51,0.203 -0.771,0.038c-0.226,-0.143 -0.537,-0.255 -0.692,-0.25c-0.154,0.006 0.584,0.454 1.641,0.996c1.057,0.542 1.974,0.934 2.036,0.871c0.064,-0.063 -0.39,-0.343 -1.01,-0.622c-1.955,-0.882 -1.258,-1.486 1.587,-1.376c1.859,0.072 4.109,-0.443 4.753,-1.089c0.112,-0.11 0.463,-0.199 0.785,-0.195c0.489,0.003 0.516,0.052 0.164,0.301c-0.375,0.264 -0.375,0.284 0,0.177c0.231,-0.066 0.379,-0.345 0.329,-0.62c-0.069,-0.383 0.045,-0.464 0.491,-0.348c0.32,0.084 0.665,0.019 0.766,-0.145c0.116,-0.188 0.047,-0.213 -0.184,-0.07c-0.242,0.149 -0.299,0.116 -0.166,-0.098c0.109,-0.178 0.422,-0.323 0.693,-0.323c0.272,0 0.749,-0.284 1.058,-0.631c0.311,-0.348 0.89,-0.883 1.287,-1.193c0.779,-0.606 3.968,-3.643 4.777,-4.548c0.49,-0.55 0.48,-0.555 -0.848,-0.345c-7.874,1.245 -16.791,-0.047 -23.346,-3.381c-0.54,-0.274 -1.089,-0.504 -1.219,-0.511c-0.129,-0.005 -0.408,-0.241 -0.622,-0.52c-0.212,-0.281 -0.392,-0.384 -0.399,-0.229c-0.007,0.153 -0.146,0.091 -0.311,-0.141c-0.264,-0.374 -0.283,-0.374 -0.17,0c0.069,0.232 0.278,0.387 0.463,0.345c0.185,-0.044 0.276,0.02 0.202,0.139c-0.073,0.12 -2.358,0.18 -5.077,0.135c-2.849,-0.047 -4.878,-0.19 -4.787,-0.337c0.086,-0.139 -0.125,-0.198 -0.466,-0.132c-0.345,0.065 -0.868,-0.098 -1.17,-0.366c-0.53,-0.471 -0.535,-0.466 -0.159,0.147m40.078,1.327c-0.19,0.231 -0.434,0.366 -0.54,0.3c-0.107,-0.067 -0.335,0.251 -0.505,0.703c-0.41,1.086 -0.299,1.042 0.763,-0.298c0.819,-1.036 1.066,-1.649 0.282,-0.705m-83.484,4.895c-0.952,0.907 -3.003,2.43 -4.558,3.386l-2.827,1.736l0.678,0.532c0.372,0.293 0.877,0.533 1.121,0.533c0.242,0 1.085,0.244 1.871,0.542c0.786,0.3 1.639,0.476 1.896,0.396c0.973,-0.31 -0.993,1.019 -2.892,1.955c-2.773,1.366 -4.437,1.913 -7.017,2.308l-2.243,0.344l2.307,0.032c1.831,0.025 2.691,-0.113 4.166,-0.668c1.022,-0.384 1.974,-0.628 2.117,-0.541c0.141,0.088 0.222,-0.006 0.18,-0.212c-0.042,-0.205 0.141,-0.353 0.411,-0.331c0.269,0.02 0.427,-0.061 0.353,-0.18c-0.2,-0.325 1.228,-1.176 1.593,-0.949c0.182,0.111 0.239,0.071 0.137,-0.098c-0.194,-0.313 1.093,-1.29 1.698,-1.29c0.196,0 0.296,-0.061 0.22,-0.137c-0.187,-0.188 0.419,-0.891 0.767,-0.891c0.155,0 0.108,0.222 -0.104,0.491c-0.35,0.446 -0.34,0.456 0.113,0.101c0.274,-0.215 0.43,-0.458 0.35,-0.54c-0.083,-0.081 0.779,-1.104 1.913,-2.273c1.987,-2.05 2.968,-3.378 2.509,-3.398c-1.002,-0.042 -3.414,-0.281 -3.867,-0.382c-0.308,-0.069 -0.618,-0.136 -0.687,-0.148c-0.069,-0.012 0.303,-0.462 0.827,-1.003c1.49,-1.536 0.881,-1.132 -1.032,0.685m-40.148,-0.912c0.174,0.211 0.382,0.315 0.463,0.234c0.081,-0.081 0.411,0.072 0.732,0.342c0.496,0.415 0.488,0.382 -0.052,-0.233c-0.665,-0.753 -1.757,-1.081 -1.143,-0.343m4.222,3.87c1.19,1.222 2.201,2.164 2.248,2.093c0.047,-0.068 -0.927,-1.07 -2.164,-2.221l-2.248,-2.094l2.164,2.222m85.259,-0.977c0.046,0.25 -0.121,0.404 -0.413,0.382c-0.268,-0.022 -0.423,0.065 -0.345,0.191c0.166,0.27 -2.067,2.124 -2.428,2.02c-0.536,-0.153 -0.196,0.481 0.622,1.171c0.74,0.622 0.922,0.932 1.075,1.83c0.012,0.069 0.165,-0.018 0.342,-0.193c0.239,-0.239 0.456,-0.165 0.861,0.294c0.3,0.337 0.451,0.436 0.339,0.221c-0.137,-0.264 -0.095,-0.327 0.126,-0.19c0.183,0.112 0.296,0.377 0.254,0.585c-0.042,0.211 0.049,0.359 0.204,0.33c0.153,-0.029 0.243,-0.158 0.2,-0.288c-0.042,-0.131 0.084,-0.183 0.281,-0.117c0.198,0.065 0.36,0.257 0.36,0.424c0,0.166 0.114,0.408 0.254,0.536c0.151,0.14 0.161,0.073 0.025,-0.163c-0.165,-0.283 -0.116,-0.352 0.165,-0.237c4.982,2.034 5.797,2.271 8.248,2.394c1.389,0.071 2.661,0.238 2.826,0.37c0.166,0.133 0.418,0.138 0.562,0.014c0.143,-0.125 0.799,-0.379 1.458,-0.567c0.682,-0.194 1.124,-0.465 1.023,-0.628c-0.096,-0.156 -0.353,-0.217 -0.568,-0.134c-0.216,0.082 -0.392,0.035 -0.392,-0.105c0,-0.139 -1.799,-1.161 -3.997,-2.268c-5.046,-2.542 -8.544,-4.413 -9.535,-5.098c-0.424,-0.293 -0.771,-0.436 -0.771,-0.32c0,0.118 -0.192,-0.032 -0.424,-0.331c-0.294,-0.377 -0.402,-0.414 -0.352,-0.123m17.815,7.757c0.193,0.079 0.277,0.264 0.185,0.412c-0.101,0.163 -0.35,0.126 -0.633,-0.094c-0.417,-0.327 -0.426,-0.313 -0.077,0.131c0.296,0.377 0.477,0.419 0.767,0.178c0.421,-0.348 0.262,-0.826 -0.261,-0.791c-0.239,0.016 -0.234,0.063 0.019,0.164m-13.502,0.987c0.135,0.217 0.046,0.265 -0.266,0.145c-0.664,-0.254 -0.577,0.005 0.128,0.382c0.348,0.187 0.522,0.202 0.419,0.035c-0.096,-0.156 -0.023,-0.336 0.163,-0.398c0.209,-0.069 0.152,-0.184 -0.153,-0.302c-0.333,-0.126 -0.427,-0.082 -0.291,0.138m-64.672,2.82c1.359,0.653 2.774,1.138 3.294,1.128c0.571,-0.012 0.842,0.092 0.727,0.279c-0.119,0.192 -0.045,0.21 0.212,0.049c0.216,-0.136 0.646,-0.222 0.954,-0.19c0.636,0.062 -0.478,-0.338 -4.415,-1.587c-3.542,-1.124 -3.67,-1.07 -0.772,0.321m58.33,2.346c-0.459,0.283 -0.508,0.362 -0.139,0.234c0.307,-0.109 0.784,-0.188 1.058,-0.177c0.273,0.01 0.422,-0.099 0.333,-0.244c-0.217,-0.351 -0.422,-0.321 -1.252,0.187m-46.249,0.224c-0.338,0.407 1.753,1.008 2.146,0.616c0.092,-0.093 -0.095,-0.169 -0.416,-0.169c-0.835,0 -1.496,-0.296 -1.314,-0.588c0.244,-0.398 -0.056,-0.293 -0.416,0.141m34.775,1.671c0.064,0.055 0.495,0.185 0.958,0.289c0.614,0.136 0.728,0.111 0.42,-0.097c-0.378,-0.256 -1.659,-0.435 -1.378,-0.192m-21.617,0.745c-0.435,0.143 -0.064,0.17 0.981,0.074c0.926,-0.086 1.735,-0.202 1.799,-0.257c0.227,-0.197 -2.088,-0.044 -2.78,0.183m16.288,-0.183c0.064,0.057 0.811,0.175 1.659,0.262c0.997,0.103 1.294,0.076 0.842,-0.074c-0.695,-0.232 -2.724,-0.385 -2.501,-0.188m-13.974,0.653c0.269,0.069 0.712,0.069 0.981,0c0.269,-0.071 0.049,-0.13 -0.491,-0.13c-0.539,0 -0.761,0.059 -0.49,0.13m13.044,0.005c0.348,0.065 0.853,0.064 1.12,-0.007c0.27,-0.071 -0.016,-0.125 -0.634,-0.121c-0.616,0.003 -0.836,0.06 -0.486,0.128m1.682,2.803c0.349,0.067 0.854,0.066 1.121,-0.005c0.269,-0.071 -0.017,-0.125 -0.634,-0.123c-0.616,0.003 -0.836,0.061 -0.487,0.128m-15.564,3.929c0.426,0.066 1.057,0.064 1.402,-0.003c0.345,-0.068 -0.004,-0.12 -0.774,-0.118c-0.773,0.003 -1.054,0.057 -0.628,0.121m14.863,0c0.427,0.066 1.058,0.064 1.403,-0.003c0.345,-0.068 -0.005,-0.12 -0.776,-0.118c-0.77,0.003 -1.053,0.057 -0.627,0.121" style="fill:#727071;"/></g><path id="path4" d="M0,154.537l0,25.496l18.399,0c18.918,0 19.478,-0.021 22.093,-0.815c3.322,-1.01 6.82,-3.963 8.634,-7.29c2.426,-4.447 2.03,-13.133 -0.732,-16.05c-0.135,-0.144 -0.491,-0.59 -0.79,-0.99l-0.545,-0.728l0.844,-1.145c4.952,-6.729 3.547,-15.635 -3.32,-21.056c-3.571,-2.818 -4.388,-2.908 -26.589,-2.913l-17.994,-0.003l0,25.494m73.349,-25.201c-5.056,0.759 -9.438,4.09 -11.574,8.801c-1.222,2.693 -1.175,1.78 -1.175,22.754l0,19.142l15.102,0l0,-5.098l0,-5.1l20.396,0l0,10.198l15.297,0l0,-18.618c0,-15.884 -0.043,-18.829 -0.297,-20.053c-1.346,-6.492 -6.603,-11.337 -13.137,-12.11c-2.59,-0.306 -22.465,-0.238 -24.612,0.084m47.657,25.201l0,25.496l15.297,0l0,-25.496l0,-25.494l-7.649,0l-7.648,0l0,25.494m38.205,-25.27c-5.936,0.68 -11.401,5.515 -12.825,11.347c-0.386,1.577 -0.384,26.281 0.001,27.849c1.15,4.671 5.238,9.18 9.705,10.707c2.408,0.822 3.348,0.863 19.973,0.863l15.935,0l0,-5.098l0,-5.1l-13.132,0c-15.68,0 -15.502,0.031 -17.111,-2.982l-0.449,-0.843l0,-11.473c0,-16.623 -1.748,-15.09 17.209,-15.095l13.483,-0.005l0,-5.198l0,-5.196l-15.641,0.025c-8.602,0.014 -16.318,0.103 -17.148,0.199m-126.537,10.592c3.722,1.749 3.756,7.221 0.056,9.063l-1.035,0.517l-8.198,0l-8.2,0l0,-4.985c0,-3.133 0.073,-5.009 0.196,-5.05c0.974,-0.326 16.388,0.082 17.181,0.455m60.49,-0.008c1.067,0.459 1.963,1.353 2.489,2.486c0.299,0.645 0.345,1.669 0.403,9.014l0.066,8.286l-10.211,0l-10.209,0l0,-7.809c0,-8.887 0.05,-9.266 1.394,-10.724c1.58,-1.715 1.909,-1.777 9.211,-1.719c5.519,0.044 5.94,0.072 6.857,0.466m-60.246,20.465c3.516,1.948 3.442,6.782 -0.137,8.886l-0.911,0.535l-8.237,0l-8.237,0l-0.053,-5.057l-0.052,-5.059l8.289,0.058l8.29,0.056l1.048,0.581" style="fill:#d12519;"/></g></svg>