<?xml version="1.0" encoding="UTF-8" standalone="no"?><!DOCTYPE svg PUBLIC "-//W3C//DTD SVG 1.1//EN" "http://www.w3.org/Graphics/SVG/1.1/DTD/svg11.dtd"><svg width="100%" height="100%" viewBox="0 0 192 192" version="1.1" xmlns="http://www.w3.org/2000/svg" xmlns:xlink="http://www.w3.org/1999/xlink" xml:space="preserve" xmlns:serif="http://www.serif.com/" style="fill-rule:evenodd;clip-rule:evenodd;stroke-linejoin:round;stroke-miterlimit:1.41421;"><path d="M96,28.88c-37.069,0 -67.122,30.05 -67.122,67.12c0,37.07 30.053,67.12 67.122,67.12c37.072,0 67.122,-30.05 67.122,-67.12c0,-37.07 -30.05,-67.12 -67.122,-67.12Zm0,130.884c-35.217,0 -63.763,-28.548 -63.763,-63.764c0,-35.216 28.546,-63.765 63.763,-63.765c35.217,0 63.765,28.549 63.765,63.765c0,35.216 -28.548,63.764 -63.765,63.764Z" style="fill:url(#_Linear1);fill-rule:nonzero;"/><path d="M160.246,96c0,35.479 -28.767,64.245 -64.246,64.245c-35.479,0 -64.243,-28.766 -64.243,-64.245c0,-35.481 28.764,-64.245 64.243,-64.245c35.479,0 64.246,28.764 64.246,64.245Z" style="fill:#333;fill-rule:nonzero;"/><path d="M159.765,96c0,35.216 -28.548,63.764 -63.765,63.764c-35.217,0 -63.763,-28.548 -63.763,-63.764c0,-35.216 28.546,-63.765 63.763,-63.765c35.217,0 63.765,28.549 63.765,63.765Z" style="fill:url(#_Radial2);fill-rule:nonzero;"/><path d="M138.75,96c0,23.609 -19.14,42.748 -42.75,42.748c-23.61,0 -42.749,-19.139 -42.749,-42.748c0,-23.61 19.139,-42.749 42.749,-42.749c23.61,-0.001 42.75,19.139 42.75,42.749Z" style="fill:url(#_Linear3);fill-rule:nonzero;"/><path d="M97.713,52.095l4.44,-11.77l0,11.77l3.373,0l0,-16.856l-5.069,0l-4.61,12.069l0.044,0l-4.61,-12.069l-5.069,0l0,16.856l3.373,0l0,-11.77l4.441,11.77l3.687,0Zm46.286,7.559l-5.763,8.402l9.051,-4.452l2.455,2.944l-14.245,7.153l-2.878,-3.485l5.522,-8.326l-0.033,-0.041l-9.185,3.932l-2.911,-3.462l9.605,-12.719l2.456,2.946l-6.015,8.099l9.308,-4.151l2.633,3.16Z" style="fill-rule:nonzero;"/><path d="M66.147,56.433c-1.358,-1.317 -3.452,-1.715 -5.422,-0.494c0.377,-0.975 0.224,-1.967 0.025,-2.518c-0.849,-1.544 -1.147,-1.74 -1.84,-2.326c-2.265,-1.896 -4.646,-0.277 -6.348,1.751l-8.225,9.803l12.931,10.849l8.674,-10.335c1.983,-2.362 2.289,-4.704 0.205,-6.73Zm-16.728,4.728l4.941,-5.888c0.573,-0.682 1.868,-0.654 2.698,0.045c0.915,0.767 0.917,1.854 0.303,2.588l-4.886,5.82l-3.056,-2.565Zm13.631,0.979l-5.151,6.139l-3.225,-2.711l5.189,-6.186c0.587,-0.699 1.895,-0.903 2.777,-0.163c0.994,0.836 1.092,2.107 0.41,2.921Z" style="fill:#333;fill-rule:nonzero;"/><path d="M97.748,51.444l4.441,-11.77l0,11.77l3.373,0l0,-16.856l-5.069,0l-4.61,12.068l0.043,0l-4.61,-12.068l-5.069,0l0,16.856l3.373,0l0,-11.77l4.441,11.77l3.687,0Z" style="fill:url(#_Radial4);fill-rule:nonzero;"/><path d="M144.032,58.523l-5.76,8.402l9.051,-4.453l2.452,2.945l-14.243,7.153l-2.878,-3.486l5.522,-8.325l-0.032,-0.042l-9.188,3.933l-2.908,-3.463l9.605,-12.717l2.455,2.944l-6.014,8.099l9.305,-4.15l2.633,3.16Z" style="fill:url(#_Radial5);fill-rule:nonzero;"/><path d="M65.543,56.102c-1.354,-1.318 -3.452,-1.716 -5.418,-0.496c0.374,-0.975 0.221,-1.968 0.022,-2.516c-0.85,-1.547 -1.145,-1.739 -1.844,-2.326c-2.264,-1.898 -4.643,-0.278 -6.342,1.752l-8.229,9.802l12.932,10.849l8.674,-10.337c1.98,-2.363 2.289,-4.703 0.205,-6.728Zm-16.728,4.727l4.941,-5.887c0.571,-0.682 1.865,-0.655 2.698,0.043c0.915,0.768 0.918,1.857 0.301,2.587l-4.883,5.822l-3.057,-2.565Zm13.634,0.979l-5.151,6.138l-3.231,-2.71l5.192,-6.187c0.587,-0.698 1.893,-0.902 2.775,-0.162c0.999,0.837 1.098,2.106 0.415,2.921Z" style="fill:url(#_Radial6);fill-rule:nonzero;"/><path d="M54.674,96.001c0,-22.825 18.503,-41.329 41.326,-41.329c22.826,0 41.327,18.504 41.327,41.329c0,22.823 -18.501,41.326 -41.327,41.326c-22.823,0 -41.326,-18.503 -41.326,-41.326Z" style="fill:url(#_Radial7);fill-rule:nonzero;"/><path d="M55.862,96.001c0,-22.169 17.97,-40.141 40.138,-40.141c22.169,0 40.142,17.972 40.142,40.141c0,22.168 -17.974,40.14 -40.142,40.14c-22.168,0 -40.138,-17.972 -40.138,-40.14Z" style="fill:url(#_Radial8);fill-rule:nonzero;"/><path d="M55.799,96.001l40.201,0l0,-40.202c-22.204,0 -40.201,17.998 -40.201,40.202Z" style="fill:url(#_Radial9);fill-rule:nonzero;"/><path d="M96,96.001l0,40.201c22.204,0 40.202,-18.001 40.202,-40.201l-40.202,0Z" style="fill:url(#_Radial10);fill-rule:nonzero;"/><path d="M136.535,95.286l-39.822,0l0,-39.822l-1.426,0l0,39.822l-39.822,0l0,1.426l39.822,0l0,39.823l1.426,0l0,-39.823l39.822,0l0,-1.426Z" style="fill:url(#_Radial11);fill-rule:nonzero;"/><path d="M96.713,56.592c21.207,0.377 38.32,17.489 38.699,38.694l0.71,0c-0.379,-21.599 -17.809,-39.031 -39.409,-39.408l0,0.714Z" style="fill:url(#_Linear12);fill-rule:nonzero;"/><path d="M56.52,95.281c0.376,-21.234 17.514,-38.37 38.748,-38.749l0,-0.713c-21.63,0.379 -39.081,17.834 -39.461,39.462l0.713,0Z" style="fill:#c2d7e8;fill-rule:nonzero;"/><path d="M95.287,135.408c-21.207,-0.376 -38.319,-17.489 -38.696,-38.696l-0.713,0c0.379,21.6 17.809,39.033 39.409,39.41l0,-0.714Z" style="fill:url(#_Linear13);fill-rule:nonzero;"/><path d="M135.412,96.712c-0.379,21.207 -17.492,38.32 -38.699,38.696l0,0.714c21.6,-0.377 39.032,-17.81 39.409,-39.41l-0.71,0Z" style="fill:#12404f;fill-rule:nonzero;"/><path d="M94.525,55.82l0,38.684l-38.683,0l0,0.763l39.445,0l0,-39.447l-0.762,0Z" style="fill:url(#_Linear14);fill-rule:nonzero;"/><path d="M94.46,135.747l0,-38.218l-38.298,0l0,-0.754l39.052,0l0,38.972l-0.754,0Z" style="fill:url(#_Linear15);fill-rule:nonzero;"/><path d="M97.53,135.747l0,-38.218l38.218,0l0,-0.754l-38.97,0l0,38.972l0.752,0Z" style="fill:url(#_Linear16);fill-rule:nonzero;"/><path d="M97.53,56.161l0,38.219l38.218,0l0,0.752l-38.97,0l0,-38.971l0.752,0Z" style="fill:url(#_Linear17);fill-rule:nonzero;"/><defs><linearGradient id="_Linear1" x1="0" y1="0" x2="1" y2="0" gradientUnits="userSpaceOnUse" gradientTransform="matrix(142.418,137.623,-137.623,142.418,19.0529,21.6399)"><stop offset="0" style="stop-color:#dff4ff;stop-opacity:1"/><stop offset="0.1" style="stop-color:#d6eaf5;stop-opacity:1"/><stop offset="0.27" style="stop-color:#bfd0d9;stop-opacity:1"/><stop offset="0.49" style="stop-color:#98a5ac;stop-opacity:1"/><stop offset="0.75" style="stop-color:#646b6e;stop-opacity:1"/><stop offset="1" style="stop-color:#2b2b2b;stop-opacity:1"/></linearGradient><radialGradient id="_Radial2" cx="0" cy="0" r="1" gradientUnits="userSpaceOnUse" gradientTransform="matrix(95.3615,0,0,-95.3615,28.0419,33.3163)"><stop offset="0" style="stop-color:#fff;stop-opacity:1"/><stop offset="0.31" style="stop-color:#a8a8a8;stop-opacity:1"/><stop offset="0.65" style="stop-color:#4f4f4f;stop-opacity:1"/><stop offset="0.89" style="stop-color:#161616;stop-opacity:1"/><stop offset="1" style="stop-color:#000;stop-opacity:1"/></radialGradient><linearGradient id="_Linear3" x1="0" y1="0" x2="1" y2="0" gradientUnits="userSpaceOnUse" gradientTransform="matrix(-90.7054,-87.6513,87.6513,-90.7054,145.008,143.357)"><stop offset="0" style="stop-color:#dff4ff;stop-opacity:1"/><stop offset="0.09" style="stop-color:#d6eaf5;stop-opacity:1"/><stop offset="0.23" style="stop-color:#bed0d9;stop-opacity:1"/><stop offset="0.42" style="stop-color:#96a4ac;stop-opacity:1"/><stop offset="0.65" style="stop-color:#5f686d;stop-opacity:1"/><stop offset="0.91" style="stop-color:#1a1d1e;stop-opacity:1"/><stop offset="1" style="stop-color:#000;stop-opacity:1"/></linearGradient><radialGradient id="_Radial4" cx="0" cy="0" r="1" gradientUnits="userSpaceOnUse" gradientTransform="matrix(229.14,0,0,-229.14,10.9152,23.605)"><stop offset="0" style="stop-color:#fff;stop-opacity:1"/><stop offset="0.31" style="stop-color:#fdfdfd;stop-opacity:1"/><stop offset="0.45" style="stop-color:#f6f6f6;stop-opacity:1"/><stop offset="0.56" style="stop-color:#e9e9e9;stop-opacity:1"/><stop offset="0.65" style="stop-color:#d7d7d7;stop-opacity:1"/><stop offset="0.72" style="stop-color:#bfbfbf;stop-opacity:1"/><stop offset="0.79" style="stop-color:#a2a2a2;stop-opacity:1"/><stop offset="0.86" style="stop-color:#808080;stop-opacity:1"/><stop offset="0.92" style="stop-color:#575757;stop-opacity:1"/><stop offset="0.98" style="stop-color:#2b2b2b;stop-opacity:1"/><stop offset="1" style="stop-color:#141414;stop-opacity:1"/></radialGradient><radialGradient id="_Radial5" cx="0" cy="0" r="1" gradientUnits="userSpaceOnUse" gradientTransform="matrix(229.159,0,0,-229.159,10.905,23.605)"><stop offset="0" style="stop-color:#fff;stop-opacity:1"/><stop offset="0.31" style="stop-color:#fdfdfd;stop-opacity:1"/><stop offset="0.45" style="stop-color:#f6f6f6;stop-opacity:1"/><stop offset="0.56" style="stop-color:#e9e9e9;stop-opacity:1"/><stop offset="0.65" style="stop-color:#d7d7d7;stop-opacity:1"/><stop offset="0.72" style="stop-color:#bfbfbf;stop-opacity:1"/><stop offset="0.79" style="stop-color:#a2a2a2;stop-opacity:1"/><stop offset="0.86" style="stop-color:#808080;stop-opacity:1"/><stop offset="0.92" style="stop-color:#575757;stop-opacity:1"/><stop offset="0.98" style="stop-color:#2b2b2b;stop-opacity:1"/><stop offset="1" style="stop-color:#141414;stop-opacity:1"/></radialGradient><radialGradient id="_Radial6" cx="0" cy="0" r="1" gradientUnits="userSpaceOnUse" gradientTransform="matrix(229.335,0,0,-229.335,10.8925,23.5378)"><stop offset="0" style="stop-color:#fff;stop-opacity:1"/><stop offset="0.31" style="stop-color:#fdfdfd;stop-opacity:1"/><stop offset="0.45" style="stop-color:#f6f6f6;stop-opacity:1"/><stop offset="0.56" style="stop-color:#e9e9e9;stop-opacity:1"/><stop offset="0.65" style="stop-color:#d7d7d7;stop-opacity:1"/><stop offset="0.72" style="stop-color:#bfbfbf;stop-opacity:1"/><stop offset="0.79" style="stop-color:#a2a2a2;stop-opacity:1"/><stop offset="0.86" style="stop-color:#808080;stop-opacity:1"/><stop offset="0.92" style="stop-color:#575757;stop-opacity:1"/><stop offset="0.98" style="stop-color:#2b2b2b;stop-opacity:1"/><stop offset="1" style="stop-color:#141414;stop-opacity:1"/></radialGradient><radialGradient id="_Radial7" cx="0" cy="0" r="1" gradientUnits="userSpaceOnUse" gradientTransform="matrix(61.8059,0,0,-61.8059,51.9541,55.3721)"><stop offset="0" style="stop-color:#e6e6e6;stop-opacity:1"/><stop offset="0.1" style="stop-color:#d6d6d6;stop-opacity:1"/><stop offset="0.31" style="stop-color:#adadad;stop-opacity:1"/><stop offset="0.59" style="stop-color:#6c6c6c;stop-opacity:1"/><stop offset="0.93" style="stop-color:#121212;stop-opacity:1"/><stop offset="1" style="stop-color:#000;stop-opacity:1"/></radialGradient><radialGradient id="_Radial8" cx="0" cy="0" r="1" gradientUnits="userSpaceOnUse" gradientTransform="matrix(89.8836,0,0,-89.8836,68.8588,63.685)"><stop offset="0" style="stop-color:#fff;stop-opacity:1"/><stop offset="0.34" style="stop-color:#fdfdfd;stop-opacity:1"/><stop offset="0.48" style="stop-color:#f6f6f6;stop-opacity:1"/><stop offset="0.58" style="stop-color:#eaeaea;stop-opacity:1"/><stop offset="0.67" style="stop-color:#d8d8d8;stop-opacity:1"/><stop offset="0.74" style="stop-color:#c2c2c2;stop-opacity:1"/><stop offset="0.8" style="stop-color:#a6a6a6;stop-opacity:1"/><stop offset="0.86" style="stop-color:#848484;stop-opacity:1"/><stop offset="0.91" style="stop-color:#5f5f5f;stop-opacity:1"/><stop offset="0.95" style="stop-color:#404040;stop-opacity:1"/><stop offset="0.96" style="stop-color:#404040;stop-opacity:1"/><stop offset="1" style="stop-color:#404040;stop-opacity:1"/><stop offset="1" style="stop-color:#000;stop-opacity:1"/></radialGradient><radialGradient id="_Radial9" cx="0" cy="0" r="1" gradientUnits="userSpaceOnUse" gradientTransform="matrix(159.185,0,0,-159.185,42.4678,29.6134)"><stop offset="0" style="stop-color:#fff;stop-opacity:1"/><stop offset="0.17" style="stop-color:#fff;stop-opacity:1"/><stop offset="0.2" style="stop-color:#e0eff7;stop-opacity:1"/><stop offset="0.24" style="stop-color:#b2d9ec;stop-opacity:1"/><stop offset="0.29" style="stop-color:#8bc5e2;stop-opacity:1"/><stop offset="0.34" style="stop-color:#6bb5da;stop-opacity:1"/><stop offset="0.38" style="stop-color:#52a9d4;stop-opacity:1"/><stop offset="0.44" style="stop-color:#41a0cf;stop-opacity:1"/><stop offset="0.49" style="stop-color:#369bcd;stop-opacity:1"/><stop offset="0.56" style="stop-color:#39c;stop-opacity:1"/><stop offset="0.61" style="stop-color:#3396c8;stop-opacity:1"/><stop offset="0.66" style="stop-color:#328ebc;stop-opacity:1"/><stop offset="0.71" style="stop-color:#3180a8;stop-opacity:1"/><stop offset="0.75" style="stop-color:#2f6d8c;stop-opacity:1"/><stop offset="0.8" style="stop-color:#2d5468;stop-opacity:1"/><stop offset="0.85" style="stop-color:#2a373d;stop-opacity:1"/><stop offset="0.87" style="stop-color:#292929;stop-opacity:1"/><stop offset="1" style="stop-color:#292929;stop-opacity:1"/></radialGradient><radialGradient id="_Radial10" cx="0" cy="0" r="1" gradientUnits="userSpaceOnUse" gradientTransform="matrix(159.182,0,0,-159.182,42.4678,29.6122)"><stop offset="0" style="stop-color:#fff;stop-opacity:1"/><stop offset="0.17" style="stop-color:#fff;stop-opacity:1"/><stop offset="0.2" style="stop-color:#e0eff7;stop-opacity:1"/><stop offset="0.24" style="stop-color:#b2d9ec;stop-opacity:1"/><stop offset="0.29" style="stop-color:#8bc5e2;stop-opacity:1"/><stop offset="0.34" style="stop-color:#6bb5da;stop-opacity:1"/><stop offset="0.38" style="stop-color:#52a9d4;stop-opacity:1"/><stop offset="0.44" style="stop-color:#41a0cf;stop-opacity:1"/><stop offset="0.49" style="stop-color:#369bcd;stop-opacity:1"/><stop offset="0.56" style="stop-color:#39c;stop-opacity:1"/><stop offset="0.61" style="stop-color:#3396c8;stop-opacity:1"/><stop offset="0.66" style="stop-color:#328ebc;stop-opacity:1"/><stop offset="0.71" style="stop-color:#3180a8;stop-opacity:1"/><stop offset="0.75" style="stop-color:#2f6d8c;stop-opacity:1"/><stop offset="0.8" style="stop-color:#2d5468;stop-opacity:1"/><stop offset="0.85" style="stop-color:#2a373d;stop-opacity:1"/><stop offset="0.87" style="stop-color:#292929;stop-opacity:1"/><stop offset="1" style="stop-color:#292929;stop-opacity:1"/></radialGradient><radialGradient id="_Radial11" cx="0" cy="0" r="1" gradientUnits="userSpaceOnUse" gradientTransform="matrix(60.6214,0,0,-60.6214,52.7982,56.1506)"><stop offset="0" style="stop-color:#e6e6e6;stop-opacity:1"/><stop offset="0.1" style="stop-color:#d6d6d6;stop-opacity:1"/><stop offset="0.31" style="stop-color:#adadad;stop-opacity:1"/><stop offset="0.59" style="stop-color:#6c6c6c;stop-opacity:1"/><stop offset="0.93" style="stop-color:#121212;stop-opacity:1"/><stop offset="1" style="stop-color:#000;stop-opacity:1"/></radialGradient><linearGradient id="_Linear12" x1="0" y1="0" x2="1" y2="0" gradientUnits="userSpaceOnUse" gradientTransform="matrix(59.1178,57.1273,-57.1273,59.1178,88.0512,41.0144)"><stop offset="0" style="stop-color:#f0f4ff;stop-opacity:1"/><stop offset="0.11" style="stop-color:#ebeff9;stop-opacity:1"/><stop offset="0.25" style="stop-color:#dce0ea;stop-opacity:1"/><stop offset="0.4" style="stop-color:#c4c7cf;stop-opacity:1"/><stop offset="0.57" style="stop-color:#a2a4ab;stop-opacity:1"/><stop offset="0.75" style="stop-color:#76777c;stop-opacity:1"/><stop offset="0.93" style="stop-color:#414243;stop-opacity:1"/><stop offset="1" style="stop-color:#2b2b2b;stop-opacity:1"/></linearGradient><linearGradient id="_Linear13" x1="0" y1="0" x2="1" y2="0" gradientUnits="userSpaceOnUse" gradientTransform="matrix(59.1186,57.1282,-57.1282,59.1186,40.0671,89.2462)"><stop offset="0" style="stop-color:#f0f4ff;stop-opacity:1"/><stop offset="0.11" style="stop-color:#ebeff9;stop-opacity:1"/><stop offset="0.25" style="stop-color:#dce0ea;stop-opacity:1"/><stop offset="0.4" style="stop-color:#c4c7cf;stop-opacity:1"/><stop offset="0.57" style="stop-color:#a2a4ab;stop-opacity:1"/><stop offset="0.75" style="stop-color:#76777c;stop-opacity:1"/><stop offset="0.93" style="stop-color:#414243;stop-opacity:1"/><stop offset="1" style="stop-color:#2b2b2b;stop-opacity:1"/></linearGradient><linearGradient id="_Linear14" x1="0" y1="0" x2="1" y2="0" gradientUnits="userSpaceOnUse" gradientTransform="matrix(30.6553,29.6232,-29.6232,30.6553,68.6672,68.8751)"><stop offset="0" style="stop-color:#c2d7e8;stop-opacity:1"/><stop offset="0.13" style="stop-color:#bacfe1;stop-opacity:1"/><stop offset="0.34" style="stop-color:#a4bacd;stop-opacity:1"/><stop offset="0.6" style="stop-color:#8098ac;stop-opacity:1"/><stop offset="0.89" style="stop-color:#4e697f;stop-opacity:1"/><stop offset="1" style="stop-color:#3a566d;stop-opacity:1"/></linearGradient><linearGradient id="_Linear15" x1="0" y1="0" x2="1" y2="0" gradientUnits="userSpaceOnUse" gradientTransform="matrix(58.5235,56.5531,-56.5531,58.5235,53.3146,76.1341)"><stop offset="0" style="stop-color:#f0f4ff;stop-opacity:1"/><stop offset="0.1" style="stop-color:#e8ebf6;stop-opacity:1"/><stop offset="0.26" style="stop-color:#d1d4dd;stop-opacity:1"/><stop offset="0.46" style="stop-color:#abaeb5;stop-opacity:1"/><stop offset="0.7" style="stop-color:#78797d;stop-opacity:1"/><stop offset="0.96" style="stop-color:#363637;stop-opacity:1"/><stop offset="1" style="stop-color:#2b2b2b;stop-opacity:1"/></linearGradient><linearGradient id="_Linear16" x1="0" y1="0" x2="1" y2="0" gradientUnits="userSpaceOnUse" gradientTransform="matrix(20.5285,19.8373,-19.8373,20.5285,96.4499,97.1122)"><stop offset="0" style="stop-color:#d9def0;stop-opacity:1"/><stop offset="0.12" style="stop-color:#d4daec;stop-opacity:1"/><stop offset="0.26" style="stop-color:#c7cfe2;stop-opacity:1"/><stop offset="0.41" style="stop-color:#b0bcd1;stop-opacity:1"/><stop offset="0.57" style="stop-color:#90a1b8;stop-opacity:1"/><stop offset="0.73" style="stop-color:#677f99;stop-opacity:1"/><stop offset="0.89" style="stop-color:#355674;stop-opacity:1"/><stop offset="0.97" style="stop-color:#173d5d;stop-opacity:1"/><stop offset="1" style="stop-color:#173d5d;stop-opacity:1"/></linearGradient><linearGradient id="_Linear17" x1="0" y1="0" x2="1" y2="0" gradientUnits="userSpaceOnUse" gradientTransform="matrix(58.4603,56.4918,-56.4918,58.4603,75.4501,54.6706)"><stop offset="0" style="stop-color:#f0f4ff;stop-opacity:1"/><stop offset="0.11" style="stop-color:#ebeff9;stop-opacity:1"/><stop offset="0.25" style="stop-color:#dce0ea;stop-opacity:1"/><stop offset="0.4" style="stop-color:#c4c7cf;stop-opacity:1"/><stop offset="0.57" style="stop-color:#a2a4ab;stop-opacity:1"/><stop offset="0.75" style="stop-color:#76777c;stop-opacity:1"/><stop offset="0.93" style="stop-color:#414243;stop-opacity:1"/><stop offset="1" style="stop-color:#2b2b2b;stop-opacity:1"/></linearGradient></defs></svg>