<?xml version="1.0" encoding="UTF-8" standalone="no"?><!DOCTYPE svg PUBLIC "-//W3C//DTD SVG 1.1//EN" "http://www.w3.org/Graphics/SVG/1.1/DTD/svg11.dtd"><svg width="100%" height="100%" viewBox="0 0 192 192" version="1.1" xmlns="http://www.w3.org/2000/svg" xmlns:xlink="http://www.w3.org/1999/xlink" xml:space="preserve" xmlns:serif="http://www.serif.com/" style="fill-rule:evenodd;clip-rule:evenodd;stroke-linejoin:round;stroke-miterlimit:1.41421;"><g id="svgg"><path id="path0" d="M96.692,33.254c-1.677,0.42 -2.719,1.826 -2.719,3.669l0,1.026l-0.445,0l-0.446,0l-0.039,-0.68c-0.124,-2.13 -2.126,-3.703 -4.249,-3.339c-2.232,0.382 -3.589,2.518 -2.999,4.716c0.07,0.263 0.129,0.486 0.129,0.496c0.002,0.03 -0.644,0.199 -0.76,0.199c-0.06,0.001 -0.109,-0.07 -0.109,-0.156c0,-1.462 -1.735,-3.083 -3.437,-3.212c-2.918,-0.221 -4.973,3.024 -3.509,5.541c0.11,0.188 0.141,0.314 0.082,0.333c-0.052,0.018 -0.273,0.123 -0.493,0.233c-0.265,0.135 -0.409,0.169 -0.429,0.103c-0.248,-0.809 -0.371,-1.084 -0.653,-1.458c-1.486,-1.978 -4.307,-2.044 -5.714,-0.135c-1.138,1.542 -0.919,3.899 0.484,5.228l0.27,0.256l0,5.012l-4.747,0.023l-4.747,0.022l9.494,9.959l0.002,11.118c0.001,6.9 0.034,11.348 0.088,11.726c0.423,2.976 1.775,4.834 4.125,5.67c1.023,0.364 1.354,0.389 6.226,0.464c9.068,0.139 11.858,0.869 14.859,3.888l0.807,0.812l0.275,-0.327c2.77,-3.298 6.583,-4.364 15.643,-4.374c1.747,-0.002 3.565,-0.041 4.041,-0.088c3.158,-0.307 5.017,-1.868 5.855,-4.915l0.239,-0.869l0.026,-11.529l0.026,-11.529l4.87,-5.002l4.871,-5.004l-4.874,-0.022l-4.874,-0.023l0,-2.566c0,-1.549 0.033,-2.565 0.082,-2.565c0.502,0 1.596,-1.634 1.769,-2.641c0.812,-4.745 -6.36,-5.956 -7.374,-1.245c-0.058,0.272 -0.147,0.275 -0.76,0.018l-0.313,-0.13l0.361,-0.708c1.039,-2.033 0.04,-4.485 -2.125,-5.217c-2.145,-0.724 -4.591,0.762 -4.849,2.947l-0.06,0.508l-0.499,-0.1c-0.636,-0.128 -0.62,-0.101 -0.408,-0.705c0.411,-1.173 0.094,-2.681 -0.757,-3.601c-2.36,-2.548 -6.558,-0.927 -6.558,2.532c0,0.365 -0.165,0.421 -0.837,0.287l-0.251,-0.05l0.03,-0.817c0.093,-2.529 -2.181,-4.39 -4.62,-3.779m1.959,2.136c1.014,0.705 1.011,2.229 -0.007,2.946c-0.916,0.645 -2.215,0.235 -2.664,-0.84c-0.655,-1.566 1.267,-3.082 2.671,-2.106m8.181,0.503c1.425,0.602 1.397,2.712 -0.045,3.314c-1.444,0.604 -2.918,-0.988 -2.251,-2.432c0.388,-0.841 1.438,-1.245 2.296,-0.882m-16.662,0.134c1.425,0.731 1.256,2.818 -0.264,3.27c-1.605,0.476 -2.968,-1.343 -2.005,-2.673c0.518,-0.715 1.523,-0.98 2.269,-0.597m25.121,2.034c1.192,0.802 1.048,2.525 -0.261,3.12c-1.582,0.719 -3.173,-1.214 -2.17,-2.638c0.553,-0.785 1.655,-1.003 2.431,-0.482m-33.427,-0.105c0.775,0.215 1.319,1.004 1.26,1.825c-0.108,1.49 -1.879,2.171 -2.974,1.144c-1.347,-1.263 -0.076,-3.466 1.714,-2.969m14.863,3.821c0.591,1.004 1.106,1.815 1.145,1.803c0.038,-0.012 0.514,-0.823 1.057,-1.803l0.987,-1.783l1.031,0.023c0.567,0.012 1.402,0.071 1.855,0.13l0.823,0.108l0.749,1.978c0.412,1.089 0.771,2.001 0.799,2.029c0.028,0.028 0.671,-0.716 1.43,-1.653c1.326,-1.637 1.389,-1.701 1.64,-1.653c0.144,0.028 0.91,0.206 1.703,0.397l1.441,0.347l0.328,1.714c0.452,2.367 0.491,2.541 0.576,2.541c0.04,0 0.789,-0.627 1.664,-1.393c0.876,-0.766 1.64,-1.392 1.7,-1.392c0.17,0 0.943,0.318 2.04,0.842l1.012,0.481l0.052,0.579c0.029,0.318 0.079,1.255 0.11,2.082c0.032,0.827 0.09,1.523 0.129,1.548c0.04,0.024 0.601,-0.31 1.247,-0.743c0.646,-0.432 1.196,-0.786 1.221,-0.786c0.025,0 0.046,0.841 0.046,1.869l0,1.869l-0.674,-0.4c-13.648,-8.105 -32.381,-8.127 -45.963,-0.054l-0.74,0.44l-0.065,-0.492c-0.037,-0.27 -0.056,-1.086 -0.044,-1.812l0.023,-1.32l1.296,0.734c0.713,0.404 1.312,0.719 1.331,0.7c0.018,-0.018 0.078,-0.961 0.133,-2.096l0.1,-2.062l0.571,-0.261c0.607,-0.279 1.668,-0.726 2.421,-1.023l0.457,-0.18l1.57,1.445c0.862,0.795 1.586,1.429 1.606,1.408c0.021,-0.021 0.245,-0.983 0.497,-2.139l0.459,-2.101l1.435,-0.346c0.79,-0.19 1.562,-0.371 1.716,-0.401c0.279,-0.056 0.287,-0.047 1.51,1.603c1.385,1.869 1.303,1.804 1.54,1.247c0.097,-0.227 0.478,-1.128 0.846,-2.001c0.368,-0.874 0.695,-1.591 0.727,-1.594c0.031,-0.003 0.507,-0.057 1.057,-0.119c0.55,-0.062 1.3,-0.119 1.666,-0.125l0.664,-0.011l1.076,1.826m26.24,-0.555c1.2,0.695 1.101,2.476 -0.175,3.136c-1.514,0.782 -3.172,-1.024 -2.302,-2.508c0.521,-0.89 1.568,-1.155 2.477,-0.628m-48.49,0.147c1.065,0.589 1.224,2.087 0.305,2.874c-0.729,0.624 -1.628,0.636 -2.316,0.033c-1.612,-1.416 0.137,-3.943 2.011,-2.907m27.414,5.231c4.892,0.532 10.043,1.979 14.096,3.962l1.044,0.511l-19.316,0l-19.316,0l1.131,-0.555c4.546,-2.228 10.188,-3.668 15.966,-4.075c1.022,-0.072 5.238,0.032 6.395,0.157m26.841,6.554c-0.002,0.036 -1.49,1.592 -3.307,3.458l-3.304,3.393l0,11.097c0,11.371 -0.013,11.871 -0.351,13.19c-0.503,1.968 -1.929,3.511 -3.449,3.732c-0.183,0.026 -2.526,0.06 -5.206,0.074c-5.239,0.027 -5.811,0.066 -8.044,0.543c-2.551,0.546 -4.905,1.657 -6.602,3.116c-0.561,0.483 -0.414,0.491 -1.263,-0.067c-4.334,-2.848 -8.332,-3.678 -17.415,-3.613c-3.257,0.023 -4.585,-0.517 -5.499,-2.234c-0.792,-1.492 -0.808,-1.77 -0.808,-14.841l-0.001,-11.018l-3.263,-3.369c-1.794,-1.853 -3.263,-3.404 -3.263,-3.448c0,-0.046 12.623,-0.078 30.888,-0.078c16.989,0 30.888,0.03 30.887,0.065m-31.951,3.263l-0.023,2.719l-11.686,0.044l-11.686,0.043l0.31,0.3c0.284,0.276 0.309,0.341 0.309,0.805l0,0.505l22.796,0l0,1.479l-11.398,0l-11.398,0l0,1.74l22.799,0l-0.023,2.676l-0.023,2.675l-11.377,0.023l-11.376,0.021l0,1.826l10.31,0.044l0,7.048l-5.155,0.023l-5.155,0.022l0,2.261l10.267,0l0,1.566l-5.133,0l-5.134,0l0,0.515c0,0.283 0.024,0.577 0.053,0.653c0.047,0.123 0.581,0.137 5.133,0.137l5.081,0l0,1.479l-4.922,0l-4.922,0l0.061,0.191c0.033,0.105 0.176,0.379 0.318,0.61l0.257,0.417l9.208,0l0,1.393l1.827,0l0,-3.437l0,-3.437l10.702,0l0,9.975l0.545,0.391l0.545,0.392l0.478,-0.398l0.477,-0.398l-0.023,-4.242l-0.022,-4.241l22.798,0l0,-2.828l0,-2.828l-11.398,0l-11.399,0l0,-2.653l0,-2.654l22.797,0l-0.002,-5.721l-0.002,-5.721l-0.484,0.5l-0.484,0.501l-4.778,0l-4.778,0l0,-0.785l0,-0.784l11.084,0.008l0.592,-0.588c0.326,-0.323 0.592,-0.618 0.592,-0.655c0,-0.037 -2.76,-0.067 -6.134,-0.067l-6.134,0l0,-0.783l0,-0.783l6.83,0c3.756,0 6.83,0.028 6.83,0.063c0,0.034 -0.283,0.357 -0.63,0.718c-0.347,0.359 -0.033,0.067 0.697,-0.651l1.327,-1.305l-7.527,-0.022l-7.527,-0.023l0,-0.739l0,-0.739l-0.957,0l-0.957,0l0,7.135l-5.177,0l-5.178,0l0,-3.568l0,-3.567l-0.999,0l-0.999,0l-0.023,2.719m30.425,-2.436l-0.256,0.283l0.283,-0.256c0.155,-0.14 0.282,-0.268 0.282,-0.283c0,-0.067 -0.071,-0.007 -0.309,0.256m-18.049,9.114l0,0.783l-5.177,0l-5.178,0l0,-0.783l0,-0.783l10.355,0l0,0.783m12.355,2.741l0,3.524l-5.221,0l-5.22,0l0,-3.524l0,-3.524l10.441,0l0,3.524m-12.355,0.043l0,0.783l-5.177,0l-5.178,0l0,-0.783l0,-0.783l10.355,0l0,0.783m0,2.741l0,0.827l-5.177,0l-5.178,0l0,-0.827l0,-0.826l10.355,0l0,0.826m-12.356,3.437l0,0.783l-5.22,0l-5.221,0l0,-0.783l0,-0.783l10.441,0l0,0.783m0,2.828l0,0.739l-5.177,0l-5.177,0l0,-0.739l0,-0.74l10.354,0l0,0.74m0,2.74l0,0.784l-5.22,0l-5.221,0l0,-0.784l0,-0.783l10.441,0l0,0.783m24.711,1.958l0,0.74l-11.355,0l-11.355,0l0,-0.74l0,-0.739l22.71,0l0,0.739"/><path id="path1" d="M67.183,53.366c0.091,0.105 1.566,1.637 3.277,3.404l3.11,3.214l0,11.279c0.002,14.008 0.003,14.018 1.45,15.466c1.167,1.166 1.671,1.263 6.99,1.343c4.838,0.072 5.91,0.152 8.178,0.614c2.333,0.474 4.767,1.472 6.787,2.782c0.455,0.295 0.873,0.554 0.93,0.575c0.057,0.022 0.366,-0.183 0.688,-0.456c3.303,-2.802 7.179,-3.69 15.646,-3.584c3.074,0.038 3.82,0.024 4.213,-0.078c1.476,-0.385 2.577,-1.524 3.142,-3.252c0.44,-1.348 0.439,-1.319 0.44,-13.403l0,-11.272l2.492,-2.562c1.371,-1.41 2.868,-2.945 3.326,-3.412l0.835,-0.848l-30.835,0l-30.835,0l0.166,0.19m43.888,0.985l0,0.74l15.118,0l0.598,-0.734c0.347,-0.426 0.666,-0.736 0.761,-0.74c0.179,-0.006 -0.114,0.31 -3.638,3.933l-2.181,2.242l-0.047,11.766c-0.052,13.172 0.001,12.142 -0.696,13.602c-0.41,0.859 -1.282,1.849 -1.906,2.164c-0.783,0.396 -1.092,0.414 -6.607,0.383l-5.187,-0.029l-1.208,0.24c-1.655,0.33 -3.895,1.086 -5.35,1.805c-1.006,0.498 -1.484,0.805 -2.746,1.768c-0.06,0.046 -0.358,-0.106 -0.793,-0.405c-2.884,-1.987 -7.038,-3.221 -11.307,-3.358l-1.653,-0.053l-0.026,-0.717l-0.025,-0.717l-4.622,-0.023l-4.622,-0.022l-0.29,-0.529c-0.361,-0.659 -0.6,-1.577 -0.681,-2.625l-0.064,-0.805l10.286,0l0,-0.739l0,-0.739l-5.112,-0.022l-5.111,-0.023l0,-10.403l-0.001,-10.404l-0.565,-0.617c-0.311,-0.339 -1.655,-1.756 -2.986,-3.148l-2.42,-2.531l43.081,0l0,0.74m0,5.699l0,0.696l9.531,0l0.692,-0.696l0.692,-0.696l-5.457,0l-5.458,0l0,0.696m-12.269,3.002l0,0.739l10.355,0l0,-0.739l0,-0.74l-5.177,0l-5.178,0l0,0.74m0,5.568l0,0.74l10.355,0l0,-0.74l0,-0.739l-5.177,0l-5.178,0l0,0.739m-12.355,3.437l0,0.696l10.267,0l0,-0.696l0,-0.696l-5.133,0l-5.134,0l0,0.696m0,5.568l0,0.697l10.267,0l0,-0.697l0,-0.695l-5.133,0l-5.134,0l0,0.695" style="fill:#fff;"/><path id="path2" d="M94.8,0.027c-35.479,0.976 -64.133,30.612 -64.133,66.331c0,37.399 30.623,66.412 66.318,66.435c4.657,0.003 9.4,-0.488 14.173,-1.518c27.273,-5.885 48.334,-28.9 51.763,-56.564c5.038,-40.656 -27.032,-75.815 -68.121,-74.684m4.631,2.337c38.052,1.537 66.435,35.51 61.06,73.087c-4.15,29.014 -27.945,51.791 -57.121,54.678c-40.884,4.046 -75.157,-31.295 -69.86,-72.037c3.996,-30.736 29.906,-54.475 60.817,-55.722c2.41,-0.098 2.831,-0.098 5.104,-0.006m-17.051,50.79c8.506,0.013 22.425,0.013 30.931,0c8.507,-0.012 1.547,-0.022 -15.466,-0.022c-17.012,0 -23.972,0.01 -15.465,0.022m14.925,0.522c0.301,0.017 0.771,0.016 1.044,-0.001c0.273,-0.017 0.027,-0.031 -0.547,-0.031c-0.574,0 -0.798,0.015 -0.497,0.032m12.309,-0.001c0.275,0.018 0.725,0.018 1,0c0.275,-0.017 0.05,-0.031 -0.5,-0.031c-0.551,0 -0.776,0.014 -0.5,0.031m17.804,0.001c-0.006,0.036 -0.007,0.092 -0.002,0.125c0.005,0.032 -0.118,0.165 -0.273,0.294c-0.154,0.129 -0.414,0.396 -0.577,0.594c-0.164,0.196 0.002,0.065 0.369,-0.292c0.367,-0.358 0.667,-0.681 0.667,-0.718c0,-0.087 -0.17,-0.089 -0.184,-0.003m-59.417,0.675c0.309,0.311 0.581,0.565 0.604,0.565c0.024,0 -0.208,-0.254 -0.517,-0.565c-0.308,-0.311 -0.58,-0.566 -0.604,-0.566c-0.024,0 0.209,0.255 0.517,0.566m8.768,0.647c-0.65,0.412 -0.743,0.621 -0.418,0.946c0.289,0.289 0.321,0.498 0.168,1.106c-0.284,1.128 1.448,1.853 3.007,1.258c0.883,-0.338 1.583,-1.174 1.835,-2.195l0.059,-0.239l-0.64,-0.008c-1.15,-0.014 -1.503,0.019 -2.008,0.188c-0.669,0.225 -0.677,0.222 -0.677,-0.211c0,-1.048 -0.503,-1.367 -1.326,-0.845m12.985,-0.072c-0.703,0.421 -0.931,0.775 -0.61,0.947c0.338,0.181 0.45,0.546 0.299,0.972c-0.671,1.889 2.859,2.337 4.23,0.538c0.229,-0.3 0.656,-1.4 0.575,-1.481c-0.13,-0.131 -2.071,-0.026 -2.557,0.138c-0.716,0.241 -0.719,0.24 -0.719,-0.197c0,-0.988 -0.488,-1.355 -1.218,-0.917m36.324,0.969l-0.782,0.805l0.805,-0.782c0.443,-0.429 0.805,-0.791 0.805,-0.804c0,-0.063 -0.102,0.033 -0.828,0.781m-15.007,1.282l0,0.782l6.18,0.023l6.179,0.023l0.566,-0.57c0.312,-0.314 0.545,-0.592 0.518,-0.619c-0.027,-0.026 0.011,-0.097 0.084,-0.158c0.074,-0.06 0.133,-0.144 0.133,-0.186c0,-0.043 -2.97,-0.076 -6.83,-0.076l-6.83,0l0,0.781m-40.372,-0.042c0.308,0.311 0.58,0.566 0.604,0.566c0.024,0 -0.209,-0.255 -0.517,-0.566c-0.309,-0.311 -0.581,-0.566 -0.604,-0.566c-0.024,0 0.208,0.255 0.517,0.566m53.771,-0.28c0,0.014 -0.225,0.239 -0.5,0.501l-0.501,0.475l0.476,-0.5c0.442,-0.465 0.525,-0.54 0.525,-0.476m-1.74,2.455c-0.356,0.359 -0.628,0.653 -0.605,0.653c0.024,0 0.335,-0.294 0.692,-0.653c0.356,-0.358 0.628,-0.652 0.605,-0.652c-0.024,0 -0.335,0.294 -0.692,0.652m-43.563,-0.152c3.246,0.013 8.532,0.013 11.746,0c3.215,-0.013 0.559,-0.023 -5.901,-0.023c-6.461,0 -9.091,0.01 -5.845,0.023m-6.01,0.504l0.325,0.351l0.023,11.221l0.022,11.22l0.022,-11.228l0.021,-11.228l-0.37,-0.344l-0.37,-0.344l0.327,0.352m48.572,-0.047c-0.137,0.143 -0.213,0.259 -0.168,0.256c0.076,-0.005 0.525,-0.517 0.452,-0.517c-0.019,0 -0.146,0.117 -0.284,0.261m0.347,11.659c0,6.197 0.01,8.733 0.023,5.634c0.013,-3.099 0.013,-8.169 0,-11.268c-0.013,-3.098 -0.023,-0.563 -0.023,5.634m-10.722,-10.465c0.179,0.019 0.472,0.019 0.652,0c0.18,-0.019 0.033,-0.034 -0.326,-0.034c-0.359,0 -0.506,0.015 -0.326,0.034m-37.349,0.763l0,0.74l22.796,0l0,-0.74l0,-0.739l-11.398,0l-11.398,0l0,0.739m27.392,2.284c1.451,0.014 3.8,0.014 5.221,0c1.42,-0.013 0.233,-0.024 -2.638,-0.024c-2.872,0 -4.034,0.011 -2.583,0.024m-2.595,2.023l0,0.783l10.355,0l0,-0.783l0,-0.783l-5.177,0l-5.178,0l0,0.783m-15.288,-0.52c-0.182,0.083 -0.465,0.293 -0.63,0.466l-0.299,0.315l0.266,0.283c0.356,0.38 0.393,0.521 0.243,0.945c-0.471,1.334 1.523,2.139 3.224,1.302c0.787,-0.388 1.349,-1.119 1.556,-2.025c0.094,-0.412 -1.583,-0.459 -2.68,-0.075c-0.283,0.099 -0.523,0.18 -0.534,0.18c-0.011,0 -0.036,-0.253 -0.055,-0.561c-0.055,-0.855 -0.424,-1.135 -1.091,-0.83m17.883,2.5c1.451,0.013 3.8,0.013 5.221,0c1.42,-0.014 0.233,-0.025 -2.638,-0.025c-2.872,0 -4.034,0.011 -2.583,0.025m-21.708,1.566c3.151,0.013 8.28,0.013 11.398,0c3.119,-0.012 0.542,-0.023 -5.728,-0.023c-6.268,0 -8.82,0.011 -5.67,0.023m21.708,0c1.451,0.014 3.8,0.014 5.221,0c1.42,-0.014 0.233,-0.025 -2.638,-0.025c-2.872,0 -4.034,0.011 -2.583,0.025m-15.005,2.632c0,0.454 0.014,0.641 0.032,0.413c0.018,-0.227 0.018,-0.599 0,-0.826c-0.018,-0.227 -0.032,-0.041 -0.032,0.413m35.158,1.871c0,1.483 0.012,2.103 0.027,1.375c0.014,-0.726 0.014,-1.94 0,-2.697c-0.015,-0.757 -0.026,-0.162 -0.027,1.322m-19.459,-1.219c-0.607,0.446 -0.676,0.626 -0.34,0.889c0.303,0.237 0.338,0.467 0.169,1.1c-0.145,0.543 0.066,0.878 0.788,1.253c1.585,0.819 3.619,-0.274 4.049,-2.176l0.054,-0.239l-1.038,0c-0.787,0 -1.171,0.041 -1.586,0.171c-0.65,0.202 -0.591,0.238 -0.686,-0.432c-0.133,-0.943 -0.626,-1.141 -1.41,-0.566m11.744,-0.04c-0.625,0.414 -0.761,0.677 -0.463,0.894c0.351,0.256 0.408,0.494 0.244,1.008c-0.194,0.605 -0.039,0.941 0.606,1.31c1.614,0.926 3.829,-0.162 4.211,-2.068l0.055,-0.277l-1.047,0c-0.795,0 -1.179,0.041 -1.595,0.171c-0.301,0.093 -0.554,0.162 -0.562,0.152c-0.008,-0.01 -0.058,-0.269 -0.111,-0.574c-0.16,-0.932 -0.574,-1.122 -1.338,-0.616m-27.388,2.216l0,0.739l10.354,0l0,-0.739l0,-0.74l-5.177,0l-5.177,0l0,0.74m-0.055,2.74c0,0.455 0.014,0.641 0.032,0.414c0.018,-0.227 0.018,-0.599 0,-0.827c-0.018,-0.227 -0.032,-0.041 -0.032,0.413m12.41,1.958l0,0.74l22.71,0l0,-0.74l0,-0.739l-11.355,0l-11.355,0l0,0.739m9.039,3.774c-0.217,0.136 -0.478,0.356 -0.58,0.486l-0.187,0.238l0.312,0.294c0.271,0.256 0.305,0.332 0.257,0.579c-0.185,0.972 -0.181,1.017 0.124,1.331c1.096,1.132 3.35,0.719 4.211,-0.772c0.323,-0.558 0.46,-1.095 0.305,-1.193c-0.201,-0.127 -1.645,-0.091 -2.213,0.055c-0.287,0.074 -0.605,0.155 -0.706,0.181c-0.167,0.042 -0.188,-0.001 -0.244,-0.493c-0.105,-0.93 -0.545,-1.173 -1.279,-0.706m-33.781,0.272c0.023,0.168 0.104,0.559 0.179,0.87l0.137,0.566l4.948,-0.023l4.948,-0.023l0,-0.738l0,-0.739l-5.083,0c-3.984,0 -5.092,-0.023 -5.127,-0.109c-0.025,-0.059 -0.026,0.028 -0.002,0.196m10.149,2.959c0,0.215 0.017,0.303 0.037,0.195c0.021,-0.107 0.021,-0.284 0,-0.391c-0.02,-0.108 -0.037,-0.02 -0.037,0.196m27.275,1.457c0.395,0.016 1.041,0.016 1.436,0c0.394,-0.017 0.071,-0.03 -0.718,-0.03c-0.79,0 -1.113,0.013 -0.718,0.03m-32.975,0.083c0.108,0.021 0.265,0.02 0.348,-0.001c0.083,-0.022 -0.005,-0.039 -0.197,-0.039c-0.192,0.001 -0.259,0.019 -0.151,0.04m4.743,0.003c0.229,0.017 0.582,0.017 0.784,-0.001c0.202,-0.018 0.014,-0.033 -0.417,-0.033c-0.43,0.001 -0.595,0.016 -0.367,0.034m25.578,-0.004c0.084,0.021 0.221,0.021 0.305,0c0.083,-0.022 0.015,-0.04 -0.153,-0.04c-0.167,0 -0.236,0.018 -0.152,0.04m-22.97,0.087c0.084,0.022 0.221,0.022 0.304,0c0.084,-0.022 0.016,-0.04 -0.152,-0.04c-0.168,0 -0.236,0.018 -0.152,0.04m-57.36,62.421c-10.117,1.148 -15.186,9.569 -10.002,16.614c1.607,2.183 5.235,4.607 6.897,4.607c0.249,0 0.232,0.143 -0.162,1.315c-3.133,9.332 -1.476,15.877 4.515,17.837c3.663,1.199 7.532,0.805 10.893,-1.11c8.926,-5.084 10.512,-16.769 2.154,-15.869c-3.901,0.42 -6.302,2.7 -6.524,6.194c-0.114,1.804 0.707,3.671 1.809,4.113c0.454,0.181 0.468,0.163 0.255,-0.334c-1.979,-4.617 2.864,-10.739 6.979,-8.821c5.259,2.45 0.279,12.441 -7.494,15.037c-8.74,2.919 -11.159,-4.028 -5.806,-16.679l0.41,-0.971l1.018,-0.055c12.8,-0.696 22.907,-7.771 22.939,-16.058c0.013,-3.345 -1.517,-4.747 -5.172,-4.737c-9.159,0.025 -18.595,7.098 -24.573,18.42c-0.322,0.61 -0.598,1.109 -0.613,1.109c-0.211,0 -1.392,-0.454 -1.971,-0.757c-4.933,-2.584 -6.264,-9.919 -2.626,-14.466c2.161,-2.701 6.439,-4.389 11.598,-4.576c1.862,-0.068 2.232,-0.114 2.032,-0.251c-0.774,-0.531 -4.222,-0.826 -6.556,-0.562m24.418,2.58c1.85,0.971 1.624,4.508 -0.56,8.758c-2.664,5.184 -10.777,9.517 -18.752,10.015l-0.94,0.059l0.128,-0.304c2.031,-4.863 8.255,-13.137 12.044,-16.014c3.028,-2.3 6.457,-3.367 8.08,-2.514m47.277,2.862c-1.268,0.114 -2.345,0.223 -2.393,0.241c-0.048,0.019 -2.299,4.419 -5.002,9.779l-4.914,9.745l-0.219,-0.449c-0.484,-0.991 -1.506,-1.407 -3.438,-1.401c-4.941,0.015 -9.557,2.998 -11.714,7.57c-0.256,0.544 -0.622,1.154 -0.857,1.429c-0.226,0.264 -0.991,1.244 -1.701,2.177c-3.351,4.408 -5.474,6.145 -6.903,5.647c-0.931,-0.324 -0.822,-0.595 3.855,-9.606c1.664,-3.206 3.184,-6.134 3.376,-6.506c0.192,-0.373 0.329,-0.699 0.304,-0.724c-0.041,-0.041 -4.358,0.438 -4.806,0.533c-0.109,0.023 -0.301,0.27 -0.513,0.662l-0.339,0.625l-0.157,-0.305c-1.162,-2.264 -6.696,-2.055 -10.345,0.391c-5.437,3.643 -8.006,13.252 -4.071,15.225c2.553,1.28 5.792,0.229 8.411,-2.731c0.412,-0.466 0.757,-0.839 0.767,-0.829c0.01,0.01 -0.06,0.271 -0.156,0.58c-0.715,2.295 0.375,3.479 3.201,3.476c2.674,-0.003 4.555,-1.412 8.156,-6.113c0.428,-0.559 0.788,-1.007 0.798,-0.997c0.01,0.011 -0.019,0.216 -0.065,0.455c-0.047,0.239 -0.085,0.867 -0.085,1.395c-0.002,6.228 6.181,7.092 10.608,1.484l0.269,-0.341l-0.141,0.514c-0.735,2.688 0.537,4.058 3.656,3.937c2.769,-0.108 6.404,-3.899 12.413,-12.949c0.397,-0.599 0.759,-1.127 0.804,-1.175c0.116,-0.123 -0.309,0.784 -1.977,4.22c-1.636,3.37 -1.742,3.634 -1.872,4.681c-0.618,4.968 4.304,7.067 8.208,3.498c0.302,-0.275 2.791,-3.498 6.507,-8.423c3.31,-4.388 6.078,-8.037 6.15,-8.109c0.119,-0.12 -4.005,8.12 -4.77,9.527c-1.66,3.056 -1.884,6.564 -0.507,7.954c1.009,1.017 3.156,1.071 5.046,0.124c1.425,-0.713 1.61,-0.935 8.172,-9.818c3.217,-4.354 5.889,-7.957 5.937,-8.004c0.049,-0.048 -0.068,0.207 -0.261,0.565c-1.759,3.281 -5.081,10.08 -5.399,11.051c-1.189,3.634 -0.728,6.162 1.229,6.743c2.468,0.733 5.198,-1.051 8.623,-5.634c0.277,-0.371 0.511,-0.675 0.518,-0.675c0.008,0 0.017,0.48 0.019,1.066c0.022,5.941 5.834,6.757 10.53,1.479c0.371,-0.417 0.65,-0.694 0.62,-0.616c-0.708,1.845 0.112,3.658 1.868,4.125c2.97,0.791 5.953,-1.232 9.675,-6.561l0.506,-0.724l-0.289,-0.298c-0.338,-0.349 -0.455,-0.369 -0.577,-0.102c-0.53,1.155 -3.58,4.657 -4.942,5.675c-1.352,1.01 -2.694,1.365 -2.92,0.772c-0.169,-0.446 0.194,-1.262 3.917,-8.807c2.064,-4.182 3.735,-7.62 3.714,-7.641c-0.036,-0.036 -4.311,0.455 -4.726,0.542c-0.128,0.028 -0.298,0.24 -0.517,0.646l-0.327,0.606l-0.105,-0.305c-0.638,-1.853 -3.314,-2.599 -6.057,-1.687c-3.799,1.264 -8.733,6.006 -9.817,9.438c-0.268,0.846 -2.812,4.241 -4.304,5.742c-2.22,2.234 -3.998,2.694 -3.84,0.992c0.156,-1.684 0.365,-2.134 8.822,-19.016c4.102,-8.19 7.44,-14.909 7.416,-14.93c-0.064,-0.058 -4.731,0.372 -4.802,0.441c-0.033,0.032 -1.483,2.946 -3.221,6.476l-3.162,6.417l-7.176,9.718c-8.125,11.003 -8.26,11.165 -9.746,11.675c-1.835,0.63 -2.219,0.007 -1.429,-2.316c0.526,-1.542 1.199,-2.937 8.69,-17.982c3.953,-7.939 7.177,-14.444 7.165,-14.455c-0.022,-0.02 -4.709,0.403 -4.733,0.427c-0.007,0.007 -1.462,2.909 -3.232,6.451l-3.219,6.438l-7.243,9.615c-3.985,5.288 -7.382,9.771 -7.551,9.962c-1.999,2.267 -5.238,2.889 -5.238,1.005c0,-0.829 0.143,-1.142 3.911,-8.586c2.006,-3.964 3.635,-7.221 3.618,-7.237c-0.034,-0.034 -4.809,0.313 -5.241,0.381c-0.257,0.041 -0.423,0.256 -1.964,2.542c-6.171,9.156 -9.907,13.473 -12.164,14.058c-1.325,0.343 -1.243,-0.558 0.333,-3.67c0.549,-1.085 4.342,-8.556 8.428,-16.602c7.38,-14.531 7.53,-14.834 7.321,-14.812c-0.06,0.006 -1.146,0.104 -2.414,0.219m5.655,8.808c-2.085,0.678 -2.679,3.173 -1.053,4.424c1.952,1.501 5.011,-1.392 3.705,-3.505c-0.495,-0.8 -1.715,-1.223 -2.652,-0.919m63.343,8.836c-7.601,1.365 -13.346,9.236 -10.693,14.654c1.619,3.307 6.164,4.458 10.08,2.555c1.745,-0.849 3.225,-2.214 5.602,-5.172l1.379,-1.716l-0.189,-0.307c-0.26,-0.419 -0.182,-0.478 -1.533,1.15c-3.463,4.171 -6.026,5.855 -8.953,5.885c-1.598,0.017 -2.399,-0.725 -2.93,-2.718c-0.612,-2.288 0.051,-4.37 2.386,-7.495c3.122,-4.178 6.133,-6.362 7.939,-5.76c0.488,0.162 0.502,0.174 0.218,0.184c-1.89,0.066 -2.259,2.736 -0.498,3.614c1.427,0.711 2.926,-0.23 2.932,-1.841c0.008,-2.271 -2.527,-3.611 -5.74,-3.033m-19.964,0.822c0.944,0.429 1.451,1.809 1.079,2.937c-0.116,0.351 -3.157,6.317 -3.662,7.183c-1.957,3.362 -6.016,6.574 -7.438,5.886c-2.392,-1.155 2.913,-12.571 7.192,-15.476c0.999,-0.678 2.063,-0.877 2.829,-0.53m-63.185,0.279c0.783,0.377 0.867,0.501 0.907,1.357c0.208,4.412 -6.682,13.997 -10.653,14.822c-2.151,0.446 -1.981,-2.771 0.403,-7.616c2.983,-6.063 6.961,-9.708 9.343,-8.563m-22.957,0.416c0.752,0.342 1.21,1.01 1.205,1.761c-0.005,0.572 -3.112,6.811 -4.221,8.474c-2.112,3.166 -4.97,5.438 -6.842,5.438c-1.917,0 -1.695,-3.345 0.586,-8.825c0.181,-0.434 0.382,-0.965 0.448,-1.18c0.84,-2.745 6.813,-6.582 8.824,-5.668" style="fill:#33348e;"/><path id="path3" d="M98.802,57.222l0,3.611l10.355,0l0,-3.611l0,-3.611l-5.177,0l-5.178,0l0,3.611m12.269,8.614l0,3.524l10.441,0l0,-3.524l0,-3.524l-5.221,0l-5.22,0l0,3.524m-37.066,9.005l0,3.569l5.155,-0.022l5.155,-0.023l0,-3.524l0,-3.524l-5.155,-0.022l-5.155,-0.022l0,3.568m12.094,9.354c0,3.215 0.01,3.437 0.153,3.437c2.747,0.013 8.254,1.567 10.158,2.866c0.143,0.098 0.29,0.178 0.326,0.178c0.036,0.001 0.065,-2.231 0.065,-4.959l0,-4.959l-5.351,0l-5.351,0l0,3.437" style="fill:#cc2229;"/><path id="path4" d="M128.298,53.568c-0.211,0.215 -0.364,0.391 -0.34,0.391c0.023,0 0.216,-0.176 0.427,-0.391c0.212,-0.216 0.365,-0.392 0.341,-0.392c-0.024,0 -0.216,0.176 -0.428,0.392m-31.545,2.784c0,1.532 0.012,2.145 0.026,1.365c0.015,-0.781 0.015,-2.034 0,-2.784c-0.014,-0.751 -0.026,-0.112 -0.026,1.419m-27.881,-1.131c0.162,0.167 0.314,0.304 0.338,0.304c0.024,0 -0.089,-0.137 -0.251,-0.304c-0.163,-0.168 -0.315,-0.305 -0.339,-0.305c-0.024,0 0.089,0.137 0.252,0.305m9.245,0.696c0.001,0.192 0.018,0.259 0.039,0.151c0.021,-0.108 0.02,-0.265 -0.002,-0.348c-0.022,-0.083 -0.039,0.005 -0.037,0.197m12.876,0c0.002,0.192 0.019,0.259 0.04,0.151c0.021,-0.108 0.021,-0.265 -0.001,-0.348c-0.022,-0.083 -0.039,0.005 -0.039,0.197m-11.353,-0.069c0.108,0.021 0.265,0.02 0.348,-0.002c0.083,-0.021 -0.006,-0.039 -0.197,-0.038c-0.191,0.001 -0.259,0.019 -0.151,0.04m0.783,0.002c0.157,0.019 0.392,0.018 0.523,-0.001c0.13,-0.02 0.002,-0.036 -0.285,-0.035c-0.287,0 -0.394,0.016 -0.238,0.036m12.049,-0.004c0.084,0.022 0.221,0.022 0.305,0c0.084,-0.021 0.015,-0.039 -0.152,-0.039c-0.168,0 -0.236,0.018 -0.153,0.039m0.784,0.003c0.131,0.02 0.347,0.02 0.478,0c0.132,-0.02 0.024,-0.036 -0.239,-0.036c-0.263,0 -0.371,0.016 -0.239,0.036m31.601,0.655l-0.344,0.37l0.371,-0.344c0.203,-0.189 0.369,-0.356 0.369,-0.37c0,-0.066 -0.076,0 -0.396,0.344m0.048,0.544c-0.211,0.215 -0.364,0.392 -0.34,0.392c0.023,0 0.216,-0.177 0.427,-0.392c0.212,-0.215 0.365,-0.391 0.341,-0.391c-0.024,0 -0.217,0.176 -0.428,0.391m-44.423,0.674l-0.256,0.283l0.283,-0.256c0.264,-0.238 0.323,-0.309 0.255,-0.309c-0.015,0 -0.142,0.127 -0.282,0.282m-8.913,0.283c0.162,0.168 0.315,0.304 0.338,0.304c0.024,0 -0.089,-0.136 -0.251,-0.304c-0.163,-0.167 -0.315,-0.304 -0.339,-0.304c-0.024,0 0.09,0.137 0.252,0.304m1.087,0.479c0.333,0.334 0.624,0.609 0.648,0.609c0.024,0 -0.228,-0.275 -0.56,-0.609c-0.333,-0.335 -0.625,-0.609 -0.648,-0.609c-0.024,0 0.228,0.274 0.56,0.609m49.242,1.065l-0.256,0.283l0.283,-0.255c0.264,-0.239 0.323,-0.31 0.256,-0.31c-0.015,0 -0.143,0.127 -0.283,0.282m-0.257,11.551c0,6.197 0.011,8.732 0.023,5.634c0.013,-3.099 0.013,-8.169 0,-11.268c-0.012,-3.099 -0.023,-0.564 -0.023,5.634m-8.417,-10.289c0.539,0.015 1.419,0.015 1.958,0c0.538,-0.015 0.098,-0.028 -0.979,-0.028c-1.077,0 -1.517,0.013 -0.979,0.028m-27.887,3.306l11.375,0.023l0.025,2.61l0.025,2.61l-0.002,-2.632l-0.002,-2.632l-11.399,-0.001l-11.397,0l11.375,0.022m-2.506,1.697l-0.256,0.283l0.283,-0.256c0.264,-0.238 0.323,-0.309 0.256,-0.309c-0.016,0 -0.142,0.126 -0.283,0.282m1.789,0.587c0,0.192 0.031,0.349 0.068,0.349c0.037,0 0.052,-0.157 0.034,-0.349c-0.018,-0.191 -0.048,-0.347 -0.068,-0.347c-0.019,0 -0.034,0.156 -0.034,0.347m0.022,2.671c0.084,0.022 0.22,0.022 0.305,0c0.083,-0.022 0.015,-0.04 -0.153,-0.04c-0.167,0 -0.236,0.018 -0.152,0.04m19.844,2.267c3.151,0.013 8.28,0.013 11.399,0c3.119,-0.013 0.541,-0.023 -5.728,-0.023c-6.269,0 -8.821,0.01 -5.671,0.023m-7.741,0.762c0,0.43 0.015,0.618 0.033,0.416c0.018,-0.202 0.018,-0.555 0,-0.783c-0.017,-0.229 -0.033,-0.064 -0.033,0.367m6.776,1.261c0,0.167 0.018,0.236 0.04,0.152c0.022,-0.083 0.022,-0.221 0,-0.304c-0.022,-0.084 -0.04,-0.015 -0.04,0.152m1.788,0.151c0.204,0.018 0.518,0.018 0.696,-0.001c0.178,-0.018 0.011,-0.033 -0.372,-0.033c-0.383,0 -0.529,0.015 -0.324,0.034m11.657,0c0.203,0.018 0.536,0.018 0.739,0c0.203,-0.019 0.037,-0.033 -0.37,-0.033c-0.406,0 -0.573,0.014 -0.369,0.033m-25.407,3.395l5.155,0.023l0,1.389l-5.111,0.024l-5.112,0.023l5.133,-0.001l5.134,-0.001l0,-0.74l0,-0.739l-5.177,-0.001l-5.177,-0.001l5.155,0.024m-15.003,3.828c1.427,0.013 3.737,0.013 5.134,0c1.396,-0.013 0.229,-0.024 -2.595,-0.024c-2.823,0 -3.966,0.011 -2.539,0.024m44.87,2.436c-0.001,0.108 0.038,0.196 0.086,0.196c0.109,0 0.109,-0.092 0,-0.261c-0.068,-0.105 -0.085,-0.093 -0.086,0.065m-22.584,3.894c0,1.962 0.011,2.777 0.026,1.811c0.014,-0.966 0.014,-2.571 0,-3.567c-0.015,-0.996 -0.026,-0.206 -0.026,1.756m12.702,-0.979l-0.256,0.283l0.283,-0.255c0.264,-0.239 0.323,-0.311 0.255,-0.311c-0.015,0 -0.142,0.128 -0.282,0.283m-4.041,0.006c0,0.015 0.128,0.142 0.283,0.283l0.283,0.255l-0.256,-0.283c-0.238,-0.263 -0.31,-0.323 -0.31,-0.255m-23.294,1.19c0,0.216 0.017,0.304 0.037,0.196c0.021,-0.107 0.021,-0.283 0,-0.391c-0.02,-0.108 -0.037,-0.02 -0.037,0.195m24.882,-0.287c0.084,0.021 0.221,0.021 0.305,0c0.083,-0.022 0.015,-0.04 -0.153,-0.04c-0.167,0 -0.236,0.018 -0.152,0.04m7.875,0.61c0.107,0.021 0.284,0.021 0.391,0c0.108,-0.021 0.019,-0.038 -0.196,-0.038c-0.215,0 -0.303,0.017 -0.195,0.038m-6.742,0.436c0.132,0.02 0.328,0.02 0.435,-0.001c0.107,-0.021 -0.001,-0.037 -0.241,-0.037c-0.239,0.001 -0.327,0.018 -0.194,0.038m3.607,0c0.155,0.02 0.429,0.02 0.609,0.001c0.181,-0.019 0.055,-0.034 -0.28,-0.035c-0.336,0 -0.483,0.015 -0.329,0.034m-29.319,0.086c0.109,0.021 0.265,0.02 0.348,-0.001c0.083,-0.022 -0.005,-0.039 -0.196,-0.039c-0.192,0.001 -0.26,0.019 -0.152,0.04" style="fill:#b19423;"/><path id="path5" d="M84.751,17.587c-3.461,0.27 -6.267,1.653 -8.053,3.967c-0.472,0.612 -0.491,0.603 1.039,0.482c4.222,-0.332 7.142,-1.492 9.138,-3.63c0.744,-0.797 0.747,-0.816 0.116,-0.817c-0.275,-0.001 -0.696,-0.016 -0.935,-0.036c-0.24,-0.018 -0.827,-0.003 -1.305,0.034m23.334,0.151c-0.12,0.194 1.207,1.525 2.178,2.184c1.965,1.333 5.429,2.279 8.349,2.279c0.668,0 0.666,0.029 0.05,-0.723c-1.483,-1.813 -3.589,-3.02 -6.196,-3.552c-0.948,-0.194 -4.289,-0.337 -4.381,-0.188m-33.429,1.457c-3.807,1.283 -5.746,3.012 -6.822,6.083l-0.27,0.771l0.328,-0.06c2.688,-0.497 6.033,-3.018 7.449,-5.615c0.95,-1.743 0.956,-1.732 -0.685,-1.179m44.855,-0.158c0,0.263 0.965,2.006 1.517,2.739c1.413,1.875 3.515,3.336 5.947,4.133c1.081,0.354 1.043,0.372 0.803,-0.372c-1.059,-3.278 -3.337,-5.173 -7.811,-6.498c-0.408,-0.12 -0.456,-0.121 -0.456,-0.002m-42.113,4.002c-2.773,0.307 -4.626,1.081 -6.286,2.629c-0.613,0.571 -0.629,0.566 1.436,0.51c3.327,-0.089 5.257,-0.58 6.881,-1.749c0.65,-0.467 1.421,-1.242 1.329,-1.334c-0.07,-0.07 -2.822,-0.116 -3.36,-0.056m-11.945,0.71c-3.724,1.952 -5.993,4.877 -6.545,8.436c-0.075,0.477 -0.043,0.472 0.883,-0.136c2.953,-1.94 5.566,-5.122 6.6,-8.037c0.325,-0.919 0.317,-0.921 -0.938,-0.263m49.272,-0.516c0,0.042 0.199,0.278 0.443,0.526c1.717,1.743 4.102,2.504 8.013,2.555c1.794,0.023 1.83,0.007 1.202,-0.559c-1.542,-1.388 -3.163,-2.135 -5.354,-2.465c-0.945,-0.143 -4.304,-0.187 -4.304,-0.057m14.223,0.339c0.698,2.81 3.729,6.613 6.986,8.766c0.768,0.507 0.78,0.498 0.592,-0.446c-0.694,-3.496 -3.001,-6.294 -6.725,-8.158c-0.944,-0.472 -0.929,-0.47 -0.853,-0.162m-58.959,3.506c-2.39,0.213 -4.248,1.051 -6.034,2.723l-0.608,0.57l1.207,0.005c3.272,0.011 5.974,-1.015 7.567,-2.875l0.329,-0.384l-0.332,-0.06c-0.409,-0.074 -1.139,-0.067 -2.129,0.021m53.176,0.182c0,0.055 0.303,0.399 0.674,0.764c1.679,1.652 3.69,2.386 6.852,2.498l1.479,0.053l-0.522,-0.539c-1.438,-1.486 -3.301,-2.428 -5.437,-2.75c-1.022,-0.154 -3.046,-0.171 -3.046,-0.026m-66.301,3.303c-2.25,1.68 -3.824,4.284 -4.299,7.119c-0.139,0.824 -0.179,3.333 -0.062,3.872l0.054,0.253l0.599,-0.645c2.165,-2.337 4.095,-6.88 4.291,-10.1c0.06,-0.981 0.062,-0.979 -0.583,-0.499m81.204,0.566c0.198,3.255 1.947,7.451 4.194,10.062c0.825,0.96 0.855,0.918 0.854,-1.197c-0.001,-4.053 -1.807,-7.62 -4.848,-9.577l-0.253,-0.163l0.053,0.875m-73.085,0.912c-3.277,0.292 -5.919,2.081 -7.413,5.019l-0.189,0.373l0.198,-0.046c0.11,-0.025 0.571,-0.126 1.025,-0.224c3.063,-0.663 5.564,-2.099 7.497,-4.304c0.856,-0.975 0.833,-0.991 -1.118,-0.818m63.938,0.362c1.543,2.193 4.767,4.159 8.012,4.887c1.307,0.294 1.26,0.307 0.932,-0.276c-1.855,-3.296 -4.589,-4.894 -8.374,-4.894l-0.769,0l0.199,0.283m-68.881,5.552c-3.567,1.322 -6.069,3.939 -7.387,7.725c-0.349,1.004 -0.341,0.971 -0.24,0.971c0.102,0 1.667,-0.985 2.406,-1.513c2.973,-2.126 5.332,-4.87 6.084,-7.077c0.159,-0.464 0.117,-0.469 -0.863,-0.106m74.436,-0.144c0,0.02 0.13,0.344 0.288,0.719c1.152,2.728 3.845,5.511 7.537,7.786c0.979,0.604 0.954,0.615 0.657,-0.291c-1.013,-3.084 -2.965,-5.559 -5.567,-7.059c-0.894,-0.515 -2.915,-1.316 -2.915,-1.155m-83.922,2.056c-1.976,3.168 -2.718,5.525 -2.626,8.341c0.048,1.471 0.118,1.893 0.555,3.337c0.277,0.918 0.258,0.914 0.705,0.13c1.55,-2.718 2.476,-7.669 2.107,-11.258c-0.157,-1.517 -0.144,-1.507 -0.741,-0.55m93.809,-0.343c-0.57,2.849 0.053,7.782 1.394,11.041c0.32,0.779 0.894,1.828 0.998,1.828c0.193,0 0.735,-2.228 0.856,-3.52c0.251,-2.674 -0.453,-5.18 -2.361,-8.404c-0.777,-1.315 -0.807,-1.346 -0.887,-0.945m-89.434,7.409c-3.332,2.005 -5.282,5.68 -5.286,9.963c-0.001,0.824 -0.001,0.823 0.372,0.4c2.513,-2.845 5.146,-7.319 5.722,-9.724c0.306,-1.275 0.282,-1.294 -0.808,-0.639m84.681,-0.174c0.006,1.934 3.31,7.908 5.909,10.681l0.366,0.391l-0.043,-1.262c-0.143,-4.251 -2.111,-7.734 -5.443,-9.632c-0.758,-0.432 -0.789,-0.439 -0.789,-0.178m-93.658,3.556c-2.019,4.758 -1.915,8.144 0.353,11.497c0.644,0.955 0.61,0.933 0.797,0.493c1.362,-3.208 1.206,-9.468 -0.307,-12.37c-0.389,-0.747 -0.359,-0.76 -0.843,0.38m102.972,-0.607c-1.567,2.563 -1.886,8.63 -0.649,12.364c0.294,0.887 0.288,0.888 0.9,-0.027c2.006,-2.999 2.352,-6.048 1.106,-9.759c-0.257,-0.765 -1.057,-2.744 -1.148,-2.839c-0.016,-0.018 -0.111,0.1 -0.209,0.261m-81.967,3.495c0,0.015 0.128,0.143 0.283,0.283l0.283,0.256l-0.256,-0.283c-0.238,-0.264 -0.31,-0.323 -0.31,-0.256m60.382,1.344l-0.563,0.587l0.587,-0.563c0.323,-0.31 0.588,-0.574 0.588,-0.588c0,-0.063 -0.089,0.018 -0.612,0.564m-1.058,0.502c-0.025,0.025 -3.448,0.054 -7.606,0.064l-7.561,0.019l7.523,0.023l7.523,0.023l-0.475,0.5c-0.448,0.471 -0.441,0.468 0.112,-0.063c0.323,-0.31 0.587,-0.574 0.587,-0.588c0,-0.038 -0.054,-0.027 -0.103,0.022m-72.516,0.406c-3.433,2.612 -5.077,5.91 -5.079,10.185c-0.001,1.334 -0.051,1.325 0.905,0.16c2.743,-3.343 4.123,-6.445 4.52,-10.166c0.045,-0.422 0.003,-0.444 -0.346,-0.179m87.703,0.64c0.259,3.359 2.162,7.306 5.097,10.567l0.274,0.305l-0.036,-1.566c-0.096,-4.102 -1.673,-7.25 -4.836,-9.657l-0.558,-0.424l0.059,0.775m-71.813,-0.091c0.26,0.263 0.492,0.478 0.516,0.478c0.023,0 -0.169,-0.215 -0.429,-0.478c-0.26,-0.264 -0.493,-0.479 -0.517,-0.479c-0.024,0 0.17,0.215 0.43,0.479m1.957,1.436c0.236,0.239 0.448,0.435 0.472,0.435c0.024,0 -0.149,-0.196 -0.385,-0.435c-0.236,-0.24 -0.448,-0.436 -0.471,-0.436c-0.024,0 0.149,0.196 0.384,0.436m52.29,0.63l-0.607,0.631l0.631,-0.607c0.586,-0.563 0.671,-0.654 0.607,-0.654c-0.013,0 -0.297,0.283 -0.631,0.63m-1.218,0.696l-0.52,0.544l0.544,-0.519c0.505,-0.483 0.584,-0.568 0.52,-0.568c-0.014,0 -0.259,0.244 -0.544,0.543m-50.332,0.022c0.26,0.263 0.492,0.479 0.516,0.479c0.024,0 -0.169,-0.216 -0.429,-0.479c-0.26,-0.263 -0.492,-0.479 -0.516,-0.479c-0.024,0 0.169,0.216 0.429,0.479m1.175,0.653c0.187,0.191 0.359,0.348 0.383,0.348c0.024,0 -0.11,-0.157 -0.297,-0.348c-0.187,-0.192 -0.359,-0.348 -0.383,-0.348c-0.024,0 0.11,0.156 0.297,0.348m40.263,-0.109c1.519,0.013 4.006,0.013 5.525,0c1.519,-0.013 0.276,-0.024 -2.763,-0.024c-3.039,0 -4.282,0.011 -2.762,0.024m-70.469,1.22c-0.486,6.177 0.47,9.224 3.94,12.549l0.772,0.74l0.029,-0.435c0.045,-0.687 -0.151,-2.844 -0.381,-4.187c-0.643,-3.749 -1.853,-6.804 -3.504,-8.847c-0.751,-0.93 -0.769,-0.926 -0.856,0.18m108.278,-0.26c-1.947,2.04 -3.513,6.359 -3.984,10.982c-0.103,1.01 -0.114,2.61 -0.017,2.61c0.039,0 0.461,-0.401 0.939,-0.892c3.282,-3.371 4.076,-5.897 3.727,-11.855c-0.087,-1.472 -0.078,-1.461 -0.665,-0.845m-77.643,1.716c0,1.196 0.012,1.697 0.027,1.114c0.015,-0.583 0.015,-1.562 0,-2.175c-0.015,-0.613 -0.027,-0.136 -0.027,1.061m46.905,-1.525l-0.249,0.26l-2.269,0.025l-2.269,0.024l4.533,0.041l0.296,-0.305c0.162,-0.167 0.275,-0.304 0.25,-0.304c-0.024,0 -0.156,0.117 -0.292,0.259m-69.145,5.023c-2.266,3.452 -2.583,7.91 -0.847,11.944c0.258,0.601 0.266,0.593 0.719,-0.803c1.293,-3.976 1.492,-7.538 0.606,-10.811c-0.187,-0.691 -0.224,-0.717 -0.478,-0.33m91.691,0.221c-0.956,3.358 -0.785,7.016 0.516,11.01c0.494,1.517 0.475,1.508 0.885,0.439c1.563,-4.08 1.269,-7.826 -0.894,-11.388c-0.38,-0.625 -0.347,-0.621 -0.507,-0.061m-69.448,9.288c0,3.135 0.011,4.417 0.024,2.85c0.013,-1.567 0.013,-4.132 0,-5.699c-0.013,-1.567 -0.024,-0.285 -0.024,2.849m-30.626,-3.38c0.425,5.026 1.976,7.257 7.292,10.486c0.93,0.565 0.944,0.566 0.804,0.051c-0.755,-2.785 -3.255,-6.559 -6.454,-9.74c-1.748,-1.739 -1.721,-1.726 -1.642,-0.797m107.204,0.966c-3.044,3.049 -5.425,6.569 -6.312,9.331c-0.311,0.967 -0.314,0.966 0.837,0.256c4.643,-2.861 6.215,-4.826 6.891,-8.608c0.193,-1.082 0.327,-2.567 0.232,-2.567c-0.035,0 -0.777,0.714 -1.648,1.588m-61.545,-1.262c1.424,0.013 3.753,0.013 5.177,0c1.424,-0.013 0.259,-0.024 -2.588,-0.024c-2.847,0 -4.012,0.011 -2.589,0.024m0,1.479c1.424,0.014 3.753,0.014 5.177,0c1.424,-0.013 0.259,-0.024 -2.588,-0.024c-2.847,0 -4.012,0.011 -2.589,0.024m-35.601,2.681c-1.074,3.794 -0.036,8.477 2.684,12.111c0.631,0.841 0.615,0.867 0.615,-1.045c0,-4.17 -1.02,-8.022 -2.897,-10.935l-0.305,-0.474l-0.097,0.343m88.278,0.49c-1.883,3.025 -2.845,6.673 -2.841,10.772c0.002,1.664 0.035,1.735 0.524,1.12c1.401,-1.76 2.473,-4.057 2.971,-6.369c0.34,-1.575 0.19,-5.711 -0.222,-6.123c-0.02,-0.019 -0.215,0.251 -0.432,0.6m-57.453,5.508c0,0.431 0.014,0.619 0.033,0.417c0.018,-0.202 0.018,-0.555 0,-0.784c-0.018,-0.228 -0.033,-0.063 -0.033,0.367m-37.88,0.338c0,0.019 0.159,0.416 0.354,0.883c1.88,4.519 4.242,6.689 9.554,8.778c0.974,0.383 0.979,0.38 0.618,-0.315c-1.416,-2.727 -5.076,-6.319 -8.537,-8.38c-1.342,-0.799 -1.989,-1.113 -1.989,-0.966m102.422,0.239c-3.321,1.431 -8.129,5.796 -10.023,9.1c-0.486,0.85 -0.463,0.859 0.831,0.336c5.219,-2.106 7.787,-4.569 9.433,-9.045c0.224,-0.61 0.234,-0.595 -0.241,-0.391m-74.815,0.555c0.001,0.239 0.017,0.327 0.037,0.194c0.021,-0.132 0.02,-0.328 -0.001,-0.435c-0.021,-0.107 -0.037,0.001 -0.036,0.241m-15.925,3.719c0.118,3.688 1.998,7.035 5.38,9.575c0.812,0.611 0.787,0.612 0.634,-0.047c-1.047,-4.516 -3.461,-9.183 -5.524,-10.677c-0.546,-0.396 -0.54,-0.412 -0.49,1.149m78.889,-0.895c-1.986,1.487 -4.202,5.748 -5.259,10.114c-0.283,1.17 -0.31,1.165 0.933,0.165c3.128,-2.517 4.854,-5.735 5,-9.328c0.061,-1.5 0.06,-1.501 -0.674,-0.951m-52.175,2.243c0.277,0.018 0.708,0.017 0.957,0c0.249,-0.018 0.023,-0.032 -0.503,-0.032c-0.527,0 -0.731,0.015 -0.454,0.032m28.231,0.001c0.921,0.014 2.429,0.014 3.35,0c0.921,-0.014 0.168,-0.026 -1.675,-0.026c-1.843,0 -2.596,0.012 -1.675,0.026m2.088,0.347c0.204,0.018 0.536,0.018 0.74,0c0.204,-0.019 0.037,-0.034 -0.37,-0.034c-0.407,0 -0.573,0.015 -0.37,0.034m-51.139,3.272c0,0.399 0.505,2.213 0.867,3.116c1.377,3.431 4.557,6.597 7.99,7.952c0.507,0.201 0.51,0.177 0.102,-0.755c-1.534,-3.501 -3.429,-6.123 -5.87,-8.119c-2.127,-1.739 -3.089,-2.422 -3.089,-2.194m66.257,1.021c-3.967,3.038 -5.663,5.186 -7.608,9.637c-0.359,0.821 -0.37,0.817 0.839,0.236c4.249,-2.042 7.208,-5.7 8.08,-9.989c0.218,-1.068 0.237,-1.07 -1.311,0.116m-78.438,-0.637c0,0.393 1.647,2.635 2.518,3.428c2.185,1.988 6.028,3.477 10.439,4.041l0.472,0.061l-0.297,-0.413c-1.694,-2.359 -7.143,-5.505 -11.913,-6.878c-1.126,-0.324 -1.219,-0.342 -1.219,-0.239m91.011,0.326c-5.011,1.449 -9.993,4.292 -12.022,6.859c-0.431,0.545 -0.491,0.528 0.978,0.274c6.217,-1.075 9.593,-2.982 11.736,-6.63c0.486,-0.829 0.471,-0.839 -0.692,-0.503m-70.558,5.547c1.231,3.16 4.644,6.484 8.713,8.489c1.108,0.546 3.003,1.287 3.083,1.206c0.017,-0.017 -0.41,-0.693 -0.949,-1.502c-2.729,-4.097 -4.294,-5.6 -7.416,-7.125c-1.105,-0.539 -3.407,-1.525 -3.562,-1.525c-0.025,0 0.033,0.205 0.131,0.457m49.934,0.199c-4.869,2.031 -6.407,3.315 -9.489,7.925c-1.332,1.993 -1.364,1.906 0.443,1.193c4.658,-1.836 8.635,-5.348 10.186,-8.993c0.337,-0.79 0.432,-0.779 -1.14,-0.125m-64.905,1.621c0,0.396 2.262,2.235 3.59,2.919c2.709,1.395 7.627,2.192 11.164,1.81l0.602,-0.066l-0.414,-0.366c-2.031,-1.791 -8.107,-3.708 -13.376,-4.221c-0.551,-0.054 -1.128,-0.113 -1.284,-0.132c-0.162,-0.02 -0.282,0.004 -0.282,0.056m80.091,0.13c-0.144,0.018 -0.751,0.092 -1.349,0.166c-4.268,0.526 -9.056,1.917 -11.405,3.314c-0.655,0.39 -1.487,1.015 -1.541,1.157c-0.086,0.228 4.437,0.164 6.322,-0.091c3.653,-0.494 6.957,-2.072 8.704,-4.159l0.373,-0.445l-0.421,0.013c-0.232,0.007 -0.54,0.027 -0.683,0.045m-55.655,2.264c0.964,1.766 4.202,4.875 7.278,6.988c0.574,0.394 0.946,0.694 0.825,0.666c-4.112,-0.952 -11.361,-0.185 -14.222,1.505c-0.475,0.28 -0.485,0.269 0.389,0.484c0.311,0.077 1.858,0.565 3.437,1.084c4.618,1.52 5.995,1.667 10.049,1.068c6.217,-0.919 7.092,-0.86 10.595,0.71c6.785,3.041 10.308,4.166 14.476,4.619l0.49,0.054l0.663,-0.958c0.364,-0.528 0.662,-0.98 0.662,-1.006c0,-0.026 -0.485,-0.047 -1.078,-0.047c-7.958,0 -16.052,-3.773 -23.459,-10.932c-0.868,-0.839 -1.755,-1.614 -2.06,-1.799c-1.79,-1.087 -4.663,-2.092 -6.866,-2.403c-0.378,-0.053 -0.817,-0.118 -0.976,-0.144c-0.258,-0.041 -0.279,-0.029 -0.203,0.111m31.118,0.113c-2.983,0.681 -7.624,2.804 -9.179,4.2c-1.878,1.685 -4.334,4.367 -4.235,4.624c0.161,0.419 3.284,2.154 4.708,2.616c2.586,0.837 6.339,0.835 10.142,-0.008c1.66,-0.368 6.231,-1.965 6.122,-2.14c-0.229,-0.371 -3.01,-1.351 -4.74,-1.669c-2.405,-0.443 -6.263,-0.526 -8.778,-0.188c-0.55,0.073 -1.037,0.135 -1.082,0.135c-0.046,0.001 0.307,-0.264 0.783,-0.587c2.991,-2.032 5.628,-4.519 7.175,-6.768l0.267,-0.388l-0.243,0.007c-0.134,0.004 -0.557,0.079 -0.94,0.166m-47.809,3.56l-0.39,0.052l0.868,0.622c4.709,3.375 6.805,3.722 13.349,2.212c1.223,-0.283 2.352,-0.54 2.507,-0.572c0.518,-0.105 0.235,-0.271 -1.402,-0.823c-3.101,-1.046 -11.783,-1.913 -14.932,-1.491m59.469,0.192c-3.543,0.243 -6.78,0.769 -8.799,1.428c-1.027,0.336 -1.793,0.702 -1.599,0.765c0.206,0.067 4.305,0.998 5.221,1.186c4.066,0.836 6.665,0.186 10.723,-2.684c0.513,-0.364 0.934,-0.69 0.934,-0.727c0.002,-0.085 -5.138,-0.06 -6.48,0.032m-33.511,9.254c-3.446,1.416 -9.274,2.57 -12.977,2.57c-0.305,0 -0.542,0.032 -0.526,0.07c0.15,0.367 1.265,1.844 1.391,1.844c2.178,0 9.687,-2.146 16.069,-4.591c0.329,-0.127 -0.254,-0.192 -1.683,-0.188l-1.566,0.003l-0.708,0.292" style="fill:#bbbcbf;"/><path id="path6" d="M68.829,54.503c0.477,0.49 1.69,1.724 2.695,2.741l1.827,1.849l23.363,0l0,-2.741l0,-2.741l-14.376,0l-14.377,0l0.868,0.892m9.082,0.464c0.107,0.137 0.199,0.427 0.235,0.74c0.032,0.283 0.062,0.514 0.069,0.514c0.005,0 0.225,-0.083 0.488,-0.184c0.528,-0.203 1.729,-0.311 2.375,-0.215l0.393,0.059l-0.087,0.323c-0.483,1.782 -2.424,2.856 -3.966,2.193c-0.904,-0.389 -1.048,-0.701 -0.837,-1.805c0.047,-0.243 0.011,-0.325 -0.265,-0.6l-0.318,-0.319l0.287,-0.302c0.634,-0.668 1.29,-0.831 1.626,-0.404m12.877,0c0.106,0.136 0.2,0.426 0.234,0.732l0.057,0.506l0.49,-0.173c0.556,-0.196 1.703,-0.299 2.315,-0.207l0.411,0.062l-0.056,0.301c-0.399,2.121 -3.253,3.181 -4.66,1.729c-0.302,-0.31 -0.306,-0.359 -0.121,-1.325c0.047,-0.243 0.011,-0.325 -0.263,-0.599c-0.309,-0.309 -0.313,-0.321 -0.162,-0.498c0.644,-0.754 1.399,-0.981 1.755,-0.528m-16.783,11.783l0,2.61l22.709,0l0,-2.61l0,-2.611l-11.355,0l-11.354,0l0,2.611m10.396,-1.358c0.153,0.153 0.224,0.347 0.268,0.739c0.034,0.292 0.085,0.53 0.115,0.529c0.029,-0.002 0.269,-0.079 0.532,-0.172c0.372,-0.13 0.719,-0.169 1.556,-0.171l1.077,-0.002l-0.05,0.307c-0.305,1.882 -2.613,3.04 -4.224,2.12c-0.729,-0.417 -0.768,-0.529 -0.571,-1.668c0.051,-0.298 0.027,-0.357 -0.255,-0.623l-0.312,-0.294l0.187,-0.238c0.509,-0.646 1.307,-0.897 1.677,-0.527m14.401,8.579l0,2.61l22.71,0l0,-2.61l0,-2.61l-11.355,0l-11.355,0l0,2.61m4.351,-1.522c0.276,0.142 0.433,0.544 0.434,1.104l0.001,0.322l0.5,-0.172c0.605,-0.209 1.556,-0.299 2.236,-0.215l0.5,0.063l-0.059,0.314c-0.329,1.756 -2.437,2.894 -4.007,2.162c-0.858,-0.399 -0.976,-0.673 -0.776,-1.804c0.051,-0.286 0.027,-0.337 -0.275,-0.586l-0.332,-0.273l0.381,-0.388c0.607,-0.619 0.961,-0.753 1.397,-0.527m11.802,0.053c0.148,0.123 0.291,0.638 0.291,1.051l0.001,0.322l0.495,-0.17c1.109,-0.382 2.85,-0.333 2.76,0.078c-0.482,2.203 -3.465,3.298 -4.768,1.749c-0.259,-0.307 -0.256,-0.266 -0.088,-1.306c0.045,-0.277 0.016,-0.34 -0.273,-0.594l-0.323,-0.284l0.337,-0.348c0.603,-0.623 1.192,-0.81 1.568,-0.498m-16.123,10.714c0.031,0.538 0.057,2.42 0.057,4.181l0.001,3.201l0.369,-0.254c0.898,-0.616 2.527,-1.317 3.981,-1.714c0.454,-0.123 1.03,-0.284 1.279,-0.357c1.807,-0.53 2.31,-0.57 7.987,-0.641c6.464,-0.082 6.613,-0.105 7.635,-1.209c0.842,-0.91 1.19,-1.826 1.336,-3.512l0.059,-0.674l-11.38,0l-11.38,0l0.056,0.979m9.973,-0.024c0.206,0.11 0.352,0.535 0.352,1.025c0,0.313 0.025,0.378 0.133,0.337c0.718,-0.276 1.345,-0.357 2.549,-0.33l0.637,0.014l-0.059,0.283c-0.442,2.103 -3.048,3.215 -4.539,1.938c-0.439,-0.375 -0.521,-0.675 -0.334,-1.225c0.157,-0.464 0.077,-0.684 -0.351,-0.964l-0.221,-0.145l0.331,-0.345c0.594,-0.62 1.084,-0.811 1.502,-0.588" style="fill:#f2ca30;"/></g></svg>