<?xml version="1.0" encoding="UTF-8" standalone="no"?><!DOCTYPE svg PUBLIC "-//W3C//DTD SVG 1.1//EN" "http://www.w3.org/Graphics/SVG/1.1/DTD/svg11.dtd"><svg width="100%" height="100%" viewBox="0 0 192 192" version="1.1" xmlns="http://www.w3.org/2000/svg" xmlns:xlink="http://www.w3.org/1999/xlink" xml:space="preserve" xmlns:serif="http://www.serif.com/" style="fill-rule:evenodd;clip-rule:evenodd;stroke-linejoin:round;stroke-miterlimit:1.41421;"><g><g><path d="M174.131,100.476c-3.087,2.759 -10.396,4.06 -19.166,3.898c-3.9,3.086 -14.296,3.736 -25.828,3.736c-18.029,0 -15.594,10.72 -33.136,10.72c-17.543,0 -15.269,-10.72 -33.137,-10.72c-11.533,0 -21.929,-0.651 -25.827,-3.736c-8.772,0.162 -16.081,-1.139 -19.168,-3.898c-12.507,-0.326 -15.593,-2.762 -16.73,-4.712c7.635,0.65 44.345,1.95 69.684,1.95c8.934,0 12.995,-5.686 25.178,-5.686c12.183,0 16.081,5.686 25.177,5.686c25.339,0 62.05,-1.3 69.686,-1.95c-1.14,1.949 -4.225,4.385 -16.733,4.712Z" style="fill:#fff;"/><path d="M95.999,94.14c-9.584,0 -17.542,4.547 -17.542,10.395c0,5.686 7.96,10.884 17.542,10.884c9.746,0 17.544,-5.198 17.544,-10.884c0,-5.848 -7.798,-10.395 -17.544,-10.395Z" style="fill:#0c0e0f;"/><path d="M111.593,104.535c0,5.36 -6.984,9.746 -15.594,9.746c-8.608,0 -15.431,-4.386 -15.431,-9.746c0,-5.198 6.823,-9.584 15.431,-9.584c8.61,0 15.594,4.386 15.594,9.584Zm-15.594,-8.608c-4.873,0 -8.771,3.899 -8.771,8.608c0,4.874 3.898,8.61 8.771,8.61c5.036,0 8.934,-3.736 8.934,-8.61c0,-4.709 -3.898,-8.608 -8.934,-8.608Zm8.122,1.625c1.788,1.785 2.762,4.386 2.762,6.983c0,2.762 -0.974,5.36 -2.762,7.148c3.575,-1.462 6.01,-4.224 6.01,-7.148c0,-2.924 -2.436,-5.521 -6.01,-6.983Zm-18.843,6.983c0,-2.598 0.975,-5.198 2.762,-6.983c-3.575,1.462 -6.011,4.06 -6.011,6.983c0,2.923 2.436,5.686 6.011,7.148c-1.787,-1.788 -2.762,-4.385 -2.762,-7.148Z" style="fill:#9b895d;"/><path d="M108.259,108.892c-0.324,0.895 -0.749,1.75 -1.266,2.548c-2.821,1.757 -6.706,2.843 -10.994,2.843c-4.5,0 -8.514,-1.197 -11.318,-3.109c-0.566,-0.915 -1.009,-1.901 -1.319,-2.931c1.06,1.419 2.695,2.63 4.679,3.441c-1.787,-1.788 -2.762,-4.386 -2.762,-7.148c0,-2.598 0.975,-5.197 2.762,-6.983c-1.926,0.787 -3.522,1.907 -4.585,3.228c0.32,-0.988 0.757,-1.922 1.298,-2.788c2.8,-1.859 6.783,-3.041 11.245,-3.041c4.253,0 8.111,1.072 10.925,2.783c0.497,0.762 0.917,1.581 1.245,2.443c-1.034,-1.058 -2.422,-1.962 -4.049,-2.625c1.788,1.786 2.762,4.386 2.762,6.983c0,2.762 -0.974,5.36 -2.762,7.148c1.675,-0.685 3.098,-1.654 4.139,-2.792Zm-12.26,-12.965c-4.873,0 -8.771,3.899 -8.771,8.608c0,4.874 3.898,8.61 8.771,8.61c5.036,0 8.934,-3.736 8.934,-8.61c0,-4.709 -3.898,-8.608 -8.934,-8.608Z" style="fill:#9b895d;"/><path d="M87.913,107.936c-0.451,-1.02 -0.684,-2.123 -0.685,-3.239l0,-0.077c0.007,1.14 0.24,2.267 0.685,3.316Z" style="fill:#d0b26f;"/><path d="M98.599,110.383c0.162,0 -0.161,0 0,0c0.974,-0.488 1.624,-0.323 2.274,-1.138c0.811,-0.648 0.811,-1.462 1.136,-2.274c0,-0.162 0.164,-0.323 0.164,-0.486l1.298,0.651l-0.812,4.872l-0.974,-0.651l-0.488,2.113l-2.598,-3.087Z" style="fill:#325e9e;"/><path d="M89.502,105.836c-0.162,-0.326 -0.325,-0.65 -0.325,-1.139c0,-0.973 0.65,-1.462 0.974,-2.435c0.325,-0.974 0.325,-1.625 1.138,-2.436c0.649,-0.651 1.299,-0.489 2.273,-0.977c0.974,-0.323 1.462,-0.811 2.436,-0.811c0.975,0 1.461,0.488 2.437,0.811c0.974,0.326 1.625,0.326 2.274,0.814l-11.207,6.173Zm6.66,5.359c-1.138,0 -1.462,-0.488 -2.6,-0.812c-0.813,-0.323 -1.461,-0.323 -2.111,-0.974l11.045,-6.174c0.162,0.326 0.488,0.812 0.488,1.3c0,0.812 -0.488,1.3 -0.812,1.95c0,0.163 -0.164,0.324 -0.164,0.486c-0.163,0.326 -0.163,0.488 -0.163,0.651c-0.162,0.162 -0.162,0.325 -0.162,0.325c-0.162,0.486 -0.323,0.974 -0.812,1.298c-0.488,0.65 -1.138,0.65 -1.95,0.976c-0.162,0 -0.323,0 -0.323,0.162l-0.163,0c-0.81,0.324 -1.298,0.812 -2.273,0.812Z" style="fill:#9b895d;"/><path d="M100.223,104.535c0,2.274 -1.785,4.224 -4.224,4.224c-2.273,0 -4.222,-1.95 -4.222,-4.224c0,-2.112 1.949,-4.06 4.222,-4.06c2.439,0.001 4.224,1.949 4.224,4.06Zm-4.224,-4.872c-2.76,0 -5.035,2.11 -5.035,4.872c0,2.762 2.275,5.036 5.035,5.036c2.923,0 5.198,-2.274 5.198,-5.036c0,-2.762 -2.273,-4.872 -5.198,-4.872Z" style="fill:#eece79;"/><path d="M95.512,99.663c0.163,0 0.487,0 0.487,0.163l0.487,0.485c-0.162,0.165 -0.324,0.165 -0.487,0l-0.487,-0.648Zm-0.812,0.163l0.487,0l0.65,0.485c-0.163,0.165 -0.487,0.326 -0.487,0.165l-0.65,-0.65Zm-0.812,0.485c0,-0.323 0.326,-0.323 0.487,-0.323l0.65,0.488c-0.162,0.162 -0.324,0.323 -0.486,0.162l-0.651,-0.327Zm-0.813,0.326c0,-0.162 0.325,-0.326 0.487,-0.162l0.651,0.162c0,0.324 -0.163,0.324 -0.326,0.324l-0.812,-0.324Zm-0.649,0.651c0,-0.326 0.325,-0.326 0.325,-0.326l0.812,0.162c-0.01,0.174 -0.15,0.315 -0.324,0.326l-0.813,-0.162Zm-0.487,0.65c0,-0.326 0.164,-0.488 0.325,-0.488l0.811,0c0,0.323 -0.162,0.488 -0.324,0.488l-0.812,0Zm-0.487,0.649c0,-0.164 0.162,-0.325 0.325,-0.325l0.649,-0.163c0.162,0.163 0,0.324 -0.162,0.488l-0.812,0Zm-0.326,0.813c0,-0.165 0.163,-0.326 0.163,-0.326l0.812,-0.323c0.163,0.162 0,0.323 -0.163,0.486l-0.812,0.163Zm-0.162,0.974c0,-0.326 0,-0.488 0.162,-0.488l0.651,-0.486c0.162,0.162 0.162,0.324 0,0.486l-0.813,0.488Zm0.162,0.812c-0.162,-0.163 -0.162,-0.489 0,-0.489l0.487,-0.485c0.164,0.162 0.164,0.323 0.164,0.485l-0.651,0.489Zm0.163,0.811c-0.163,-0.162 -0.163,-0.323 -0.163,-0.488l0.487,-0.65c0.164,0.164 0.325,0.325 0.164,0.488l-0.488,0.65Zm0.324,0.813c-0.162,-0.162 -0.324,-0.323 -0.162,-0.486l0.325,-0.65c0.162,0 0.324,0.323 0.162,0.323l-0.325,0.813Zm0.488,0.649c-0.324,0 -0.324,-0.323 -0.324,-0.323l0.324,-0.812c0.163,0 0.325,0.324 0.163,0.486l-0.163,0.649Zm0.487,0.651c-0.162,0 -0.324,-0.163 -0.324,-0.326l0.162,-0.812c0.162,0 0.325,0.165 0.325,0.326l-0.163,0.812Zm0.651,0.649c-0.164,0 -0.325,-0.326 -0.325,-0.488l0,-0.651c0.162,0 0.325,0 0.325,0.163l0,0.976Zm0.811,0.325c-0.163,0 -0.487,-0.163 -0.487,-0.324l-0.162,-0.65c0.325,-0.163 0.487,0 0.487,0.162l0.162,0.812Zm0.812,0.325c-0.162,0 -0.487,-0.164 -0.487,-0.164l-0.325,-0.812c0.325,-0.162 0.487,0 0.487,0.165l0.325,0.811Zm0.975,0c-0.326,0.163 -0.487,0.163 -0.65,0l-0.325,-0.65c0.162,-0.162 0.325,-0.162 0.487,0l0.488,0.65Zm0.813,0c-0.162,0.163 -0.487,0.163 -0.487,0l-0.487,-0.488c0,-0.162 0.325,-0.162 0.487,-0.162l0.487,0.65Zm0.811,-0.163c-0.162,0.165 -0.324,0.165 -0.486,0.165l-0.651,-0.488c0.162,-0.163 0.325,-0.324 0.487,-0.163l0.65,0.486Zm0.812,-0.325c0,0.163 -0.323,0.324 -0.486,0.163l-0.65,-0.324c0,-0.162 0.324,-0.326 0.488,-0.162l0.648,0.323Zm0.812,-0.323c-0.163,0.162 -0.324,0.162 -0.486,0.162l-0.812,-0.326c0.163,-0.162 0.324,-0.323 0.486,-0.162l0.812,0.326Zm0.65,-0.651c0,0.163 -0.323,0.324 -0.486,0.324l-0.811,-0.162c0.162,-0.163 0.323,-0.326 0.486,-0.326l0.811,0.164Zm0.488,-0.649c0,0.162 -0.162,0.324 -0.326,0.324l-0.811,0c0,-0.163 0.165,-0.324 0.326,-0.324l0.811,0Zm0.488,-0.813c0,0.324 -0.164,0.486 -0.325,0.486l-0.812,0.165c0,-0.165 0.162,-0.326 0.323,-0.488l0.814,-0.163Zm0.324,-0.811c0,0.323 -0.162,0.486 -0.324,0.486l-0.65,0.325c-0.165,-0.162 0,-0.325 0.162,-0.488l0.812,-0.323Zm0,-0.814c0.162,0.164 0,0.488 0,0.488l-0.812,0.488c0,-0.162 0,-0.488 0.163,-0.488l0.649,-0.488Zm0,-0.813c0.162,0.165 0.162,0.488 0,0.488l-0.651,0.488c-0.162,-0.164 -0.162,-0.326 0,-0.488l0.651,-0.488Zm-0.162,-0.812c0.162,0.165 0.162,0.326 0.162,0.489l-0.651,0.65c-0.162,-0.162 -0.162,-0.326 0,-0.488l0.489,-0.651Zm-0.326,-0.811c0.164,0.164 0.326,0.326 0.164,0.488l-0.325,0.65c-0.163,0 -0.324,-0.325 -0.324,-0.488l0.485,-0.65Zm-0.486,-0.813c0.323,0.162 0.323,0.326 0.323,0.488l-0.323,0.812c-0.165,-0.163 -0.326,-0.324 -0.326,-0.488l0.326,-0.812Zm-0.488,-0.488c0.162,0 0.323,0.165 0.323,0.326l-0.162,0.811c-0.173,-0.011 -0.312,-0.15 -0.324,-0.323l0.163,-0.814Zm-0.649,-0.647c0.162,0 0.325,0.323 0.325,0.323l0,0.812c-0.164,0 -0.325,-0.162 -0.325,-0.323l0,-0.812Zm-0.813,-0.327c0.162,0 0.326,0.162 0.326,0.162l0.162,0.812c-0.162,0 -0.326,0 -0.326,-0.162l-0.162,-0.812Zm-0.812,-0.323c0.162,0 0.326,0 0.488,0.162l0.163,0.811c-0.163,0 -0.324,0 -0.489,-0.162l-0.162,-0.811Zm-0.975,-0.163c0.162,0 0.487,0 0.487,0.163l0.487,0.65c-0.162,0.162 -0.487,0.162 -0.487,0l-0.487,-0.813Z" style="fill:#9b895d;"/><path d="M102.82,106.81c0.489,-0.812 0.814,-1.3 0.814,-2.274c0,-1.136 -0.488,-1.624 -0.976,-2.598c-0.486,-1.139 -0.486,-1.788 -1.297,-2.601c-0.814,-0.811 -1.627,-0.811 -2.601,-1.136c-1.136,-0.488 -1.624,-0.976 -2.762,-0.976c-1.137,0 -1.624,0.488 -2.599,0.976c-1.138,0.486 -1.949,0.486 -2.762,1.136c-0.812,0.812 -0.812,1.625 -1.137,2.601c-0.487,1.136 -0.974,1.624 -0.974,2.759c0,1.139 0.487,1.627 0.974,2.601c0.487,0.974 0.487,1.786 1.137,2.598c0.974,0.812 1.787,0.651 2.762,1.139c1.137,0.323 1.624,0.974 2.762,0.974c1.137,0 1.625,-0.651 2.599,-0.974l0.162,0l2.274,2.759l0.488,-2.11l0.974,0.486l1.139,-5.034l-0.977,-0.326Zm-13.318,-0.974c-0.162,-0.326 -0.325,-0.65 -0.325,-1.139c0,-0.973 0.65,-1.462 0.974,-2.435c0.325,-0.974 0.325,-1.625 1.138,-2.436c0.649,-0.651 1.299,-0.489 2.273,-0.977c0.974,-0.323 1.462,-0.811 2.436,-0.811c0.975,0 1.461,0.488 2.437,0.811c0.974,0.326 1.625,0.326 2.274,0.814l-11.207,6.173Zm6.66,5.359c-1.138,0 -1.462,-0.488 -2.6,-0.812c-0.813,-0.323 -1.461,-0.323 -2.111,-0.974l11.045,-6.174c0.162,0.326 0.488,0.812 0.488,1.3c0,0.812 -0.488,1.3 -0.812,1.95c0,0.163 -0.164,0.324 -0.164,0.486c-0.163,0.326 -0.163,0.488 -0.163,0.651c-0.162,0.162 -0.162,0.325 -0.162,0.325c-0.162,0.486 -0.323,0.974 -0.812,1.298c-0.488,0.65 -1.138,0.65 -1.95,0.976c-0.162,0 -0.323,0 -0.323,0.162l-0.163,0c-0.81,0.324 -1.298,0.812 -2.273,0.812Zm4.711,1.462l-1.463,-1.95c0.812,-0.162 1.463,-0.324 2.113,-0.974c0.162,-0.162 0.323,-0.324 0.323,-0.488l-0.973,3.412Zm1.462,-1.3l-0.489,-0.323l0.812,-2.924l-0.323,-0.163c0.162,-0.164 0.162,-0.488 0.323,-0.65l0.488,0.162l-0.811,3.898Z" style="fill:#eece79;"/><path d="M95.999,101.123c-1.786,0 -3.248,1.464 -3.411,3.089l4.872,-2.762c-0.454,-0.222 -0.955,-0.334 -1.461,-0.327Zm-1.462,6.499c0.487,0.325 0.974,0.488 1.462,0.488c1.848,0.017 3.417,-1.409 3.574,-3.25l-5.036,2.762Z" style="fill:#c82e37;"/><path d="M90.964,109.084c-0.325,-0.651 -0.487,-1.3 -0.812,-2.113c-0.162,-0.162 -0.162,-0.323 -0.324,-0.486l11.208,-6.336c0.488,0.65 0.488,1.139 0.974,2.113c0,0.162 0.165,0.325 0.326,0.488l-11.372,6.334Z" style="fill:#325e9e;"/><path d="M93.563,103.4l0.487,-1.138l0.163,0.488l1.137,-1.3l0.162,0.323l0.487,-0.485l-0.487,0.974l-0.162,-0.324l-1.137,1.135l-0.163,-0.161l-0.487,0.488Zm2.599,4.547l0.488,-1.137l0.325,0.326l1.136,-1.139l0.162,0.327l0.488,-0.488l-0.488,0.974l-0.162,-0.325l-1.136,1.137l-0.325,-0.324l-0.488,0.649Zm-3.574,-2.761l0.326,-0.163l0,1.137l0.487,-0.324l0,-1.139l0.325,-0.162l0,2.601l-0.325,0.162l0,-1.138l-0.487,0.325l0,1.137l-0.326,0.162l0,-2.598Zm1.787,0.323l0,-0.974l0.162,-0.162c0.163,0 0.163,0 0.163,0.162l0,0.488c0,0.163 0,0.163 -0.163,0.324l-0.162,0.162Zm0.487,-0.161c0.162,-0.162 0.162,-0.162 0.162,-0.324l0,-0.65c0,-0.326 -0.162,-0.488 -0.487,-0.326l-0.487,0.326l0,2.598l0.325,-0.162l0,-1.136l0.162,0l0.325,0.974l0.325,-0.324l-0.325,-0.976Zm0.65,-0.325l-0.487,-1.137l0.325,-0.162l0.325,0.811l0.324,-1.3l0.325,-0.162l-0.487,1.787l0,1.137l-0.325,0.163l0,-1.137Zm1.299,-0.811c-0.162,0.162 -0.325,0 -0.325,-0.165l0,-0.648c0,-0.326 0,-0.326 0.325,-0.488l0.325,-0.163c0.162,-0.162 0.324,-0.162 0.324,0.163l0,0.323l-0.324,0.165l0,-0.488l-0.325,0.162l0,0.974l0.325,-0.162c0.162,-0.163 0.324,-0.163 0.324,0.162l0,0.65c0,0.326 0,0.489 -0.324,0.651l-0.325,0.162c-0.162,0 -0.325,0 -0.325,-0.162l0,-0.488l0.163,-0.163l0,0.489l0.649,-0.163l0,-0.976l-0.487,0.165Zm0.976,-1.95l0.324,-0.163l0,2.436l0.488,-0.323l0,0.323l-0.812,0.488l0,-2.761Zm0.974,-0.489l0.974,-0.485l0,0.162l-0.65,0.323l0,0.977l0.488,-0.326l0,0.326l-0.488,0.162l0,0.974l0.65,-0.325l0,0.325l-0.974,0.488l0,-2.601Zm1.462,0.326l0,-0.811l0.163,-0.165c0.162,-0.162 0.325,0 0.325,0l0,0.65c0,0.165 -0.164,0.165 -0.164,0.165l-0.324,0.161Zm0.488,0c0.163,-0.162 0.324,-0.162 0.324,-0.488l0,-0.65c0,-0.163 -0.324,-0.324 -0.488,-0.163l-0.651,0.324l0,2.6l0.326,-0.162l0,-1.139l0.162,-0.162l0.326,0.974l0.324,-0.162l-0.323,-0.972Zm-8.772,4.386l0,-0.65l-0.487,0.323l0,1.951l0.487,-0.326l0,-0.486l0.325,-0.162l0,0.485c0,0.326 0,0.489 -0.325,0.489l-0.325,0.162c-0.162,0.162 -0.487,0.162 -0.487,-0.162l0,-1.786c0,-0.326 0.163,-0.488 0.487,-0.65l0.325,-0.165c0.164,0 0.325,0 0.325,0.326l0,0.488l-0.325,0.163Z" style="fill:#eece79;"/><path d="M190.698,95.114c-7.472,0.488 -43.856,1.787 -69.521,1.787c-4.061,0 -7.146,-1.138 -10.396,-2.437c-3.736,-1.461 -8.122,-3.086 -14.782,-3.086c-6.659,0 -11.044,1.624 -14.781,3.086c-3.249,1.299 -6.334,2.437 -10.396,2.437c-25.665,0 -62.05,-1.299 -69.522,-1.787l-1.3,-0.163l0.487,1.139c1.137,2.112 4.061,4.709 17.055,5.034c4.224,3.575 13.808,4.063 19.168,3.9c3.574,2.599 11.371,3.736 26.153,3.736c8.772,0 12.508,2.598 16.243,5.36c3.898,2.599 7.959,5.36 16.893,5.36c8.934,0 12.995,-2.761 16.732,-5.36c3.898,-2.762 7.634,-5.36 16.406,-5.36c14.619,0 22.578,-1.138 25.99,-3.736c5.523,0.163 15.107,-0.325 19.331,-3.9c12.994,-0.323 15.918,-2.922 16.892,-5.034l0.65,-1.139l-1.302,0.163Zm-16.567,5.362c-3.087,2.759 -10.396,4.06 -19.166,3.898c-3.9,3.086 -14.296,3.736 -25.828,3.736c-18.029,0 -15.594,10.72 -33.136,10.72c-17.543,0 -15.269,-10.72 -33.137,-10.72c-11.533,0 -21.929,-0.651 -25.827,-3.736c-8.772,0.162 -16.081,-1.139 -19.168,-3.898c-12.507,-0.326 -15.593,-2.762 -16.73,-4.712c7.635,0.65 44.345,1.95 69.684,1.95c8.934,0 12.995,-5.686 25.178,-5.686c12.183,0 16.081,5.686 25.177,5.686c25.339,0 62.05,-1.3 69.686,-1.95c-1.14,1.949 -4.225,4.385 -16.733,4.712Z" style="fill:#0c0e0f;"/><path d="M189.563,95.927l0.488,-0.164c0,0 -0.165,0.326 -0.488,0.65l-0.812,0c0.487,-0.161 0.812,-0.486 0.812,-0.486Z" style="fill:#0c0e0f;"/><path d="M188.75,96.413c-4.063,1.625 -17.706,3.25 -65.95,3.25c-5.198,0 -6.495,-0.65 -7.31,-0.65c-0.812,0 -0.974,0.65 -0.649,1.297c0.324,0.488 0.649,1.3 0.812,1.788c-0.165,-1.139 0.812,-0.812 4.872,-0.812c34.438,0 41.908,-0.65 52.306,-1.787c-4.386,2.924 -29.563,3.088 -49.544,3.088c-2.274,0.163 -4.71,0.163 -6.498,0.163c-0.65,0 -0.974,0.162 -0.811,0.811c0,0.486 0.162,1.462 0,2.113c0.65,-0.814 0.488,-1.462 4.548,-1.462c20.468,0 29.564,-0.651 33.301,-1.139c-3.248,1.786 -8.285,2.601 -31.188,2.601c-9.747,0 -10.884,10.72 -26.64,10.72c-15.755,0 -16.893,-10.72 -26.639,-10.72c-22.904,0 -27.939,-0.814 -31.188,-2.601c3.736,0.488 12.832,1.139 33.299,1.139c4.062,0 3.9,0.648 4.549,1.462c-0.162,-0.651 0,-1.627 0,-2.113c0.162,-0.65 -0.162,-0.811 -0.813,-0.811c-1.787,0 -4.223,0 -6.496,-0.163c-19.98,0 -45.157,-0.164 -49.543,-3.088c10.397,1.138 17.868,1.787 52.305,1.787c4.061,0 5.035,-0.325 4.873,0.812c0.163,-0.488 0.487,-1.3 0.813,-1.788c0.324,-0.648 0.162,-1.297 -0.65,-1.297c-0.813,0 -2.112,0.65 -7.31,0.65c-48.406,0 -61.888,-1.627 -65.949,-3.25l-0.812,0c1.949,1.3 5.36,2.274 15.918,3.087c2.6,2.438 9.26,3.088 18.842,3.574c3.087,2.924 11.371,3.413 29.239,3.413c13.482,0 13.157,10.881 29.564,10.881c16.405,0 16.081,-10.881 29.563,-10.881c17.868,0 25.99,-0.489 29.238,-3.413c9.421,-0.486 16.243,-1.136 18.844,-3.574c10.558,-0.812 13.968,-1.786 15.918,-3.087l-0.814,0Z" style="fill:#0c0e0f;"/></g><path d="M13.277,95.376l-0.428,-0.145c0,0 0.142,0.287 0.428,0.572l0.713,0c-0.428,-0.142 -0.713,-0.427 -0.713,-0.427Zm111.773,-11.992l17.274,0l0,-1.855l-11.991,0l0,-8.28l-5.283,0l0,10.135Zm-99.782,-10.135l0,10.135l5.281,0l0,-4.14l9.279,0l0,4.14l5.281,0l0,-10.135l-5.281,0l0,4.14l-9.279,0l0,-4.14l-5.281,0Zm66.236,0l-4.996,4.283l-4.997,-4.283l-6.138,0l7.423,5.995l0,4.14l5.282,0l0,-4.14c0.142,-0.142 6.994,-5.995 6.994,-5.995l-3.568,0Zm56.673,10.135l17.558,0l0,-1.713l-12.277,0l0,-2.569l11.848,0l0,-1.713l-11.848,0l0,-2.427l12.133,0l0,-1.713l-17.414,0l0,10.135Zm-48.68,-7.423c0,2.284 2.714,2.855 6.566,3.283c3.855,0.572 5.71,0.714 5.71,1.571c0,0.713 -1.142,1.142 -4.425,1.142c-3.853,0 -7.136,-0.856 -7.565,-1c0,0.143 -0.429,2.141 -0.429,2.141c0.429,0.143 3.571,0.856 8.139,0.856c5.137,0 9.991,-0.856 9.991,-3.569c0,-1.856 -1.998,-2.856 -7.709,-3.426c-2.283,-0.285 -4.711,-0.428 -4.711,-1.285c0,-0.713 0.572,-1 3.998,-1c3.283,0 6.137,0.715 6.566,0.715l0.43,-1.855c-0.572,-0.142 -3.855,-0.714 -8.28,-0.714c-3.568,0.001 -8.281,0.429 -8.281,3.141Zm-99.497,2.427c0,3.283 3.569,5.567 10.992,5.567c2.855,0 5.853,-0.428 6.424,-0.571l0.428,-2.14c-0.572,0.142 -3.142,0.427 -5.711,0.427c-4.138,0 -6.993,-0.999 -6.993,-3.283c0,-2.427 2.712,-3.426 6.993,-3.426c2.428,0 5.14,0.285 5.711,0.428l-0.428,-2.141c-0.714,-0.144 -3.426,-0.428 -6.282,-0.428c-7.565,0 -11.134,2.141 -11.134,5.567Zm53.247,4.996l5.281,0l0,-8.28c0.713,-0.142 1.57,-0.142 2.712,-0.142c1.284,0 2.283,0 2.998,0.142c1.57,0.143 2.141,0.715 2.141,1.428c0,0.571 -0.714,1.285 -2.285,1.427c-1.142,0.144 -1.855,0.286 -2.712,0.286c-0.572,0 -1,0 -1.713,-0.143l5.995,5.281l6.71,0l-5.995,-4.14c1.142,-0.142 1.57,-0.142 2.855,-0.57c1.57,-0.428 2.284,-1.284 2.426,-2.141c0,-1.285 -0.856,-2.285 -3.854,-2.998c-1.57,-0.285 -3.712,-0.429 -6.423,-0.429c-3.855,0 -7.709,0.144 -8.138,0.144l0,10.135l0.002,0Zm119.482,0l5.281,0l0,-8.28c0.858,-0.142 1.571,-0.142 2.856,-0.142c1.285,0 2.141,0 2.997,0.142c1.571,0.143 2.143,0.715 1.998,1.428c0,0.571 -0.713,1.285 -2.284,1.427c-1,0.144 -1.713,0.286 -2.712,0.286c-0.572,0 -1.001,0 -1.571,-0.143l5.997,5.281l6.709,0l-6.139,-4.14c1.285,-0.142 1.714,-0.142 2.856,-0.57c1.569,-0.428 2.425,-1.284 2.425,-2.141c0,-1.285 -0.713,-2.285 -3.71,-2.998c-1.714,-0.285 -3.712,-0.429 -6.566,-0.429c-3.712,0 -7.709,0.144 -8.138,0.144l0,10.135l0.001,0Z" style="fill:#0c0e0f;"/></g></svg>