<?xml version="1.0" encoding="UTF-8" standalone="no"?><!DOCTYPE svg PUBLIC "-//W3C//DTD SVG 1.1//EN" "http://www.w3.org/Graphics/SVG/1.1/DTD/svg11.dtd"><svg width="100%" height="100%" viewBox="0 0 192 192" version="1.1" xmlns="http://www.w3.org/2000/svg" xmlns:xlink="http://www.w3.org/1999/xlink" xml:space="preserve" xmlns:serif="http://www.serif.com/" style="fill-rule:evenodd;clip-rule:evenodd;stroke-linejoin:round;stroke-miterlimit:1.41421;"><g id="svgg"><path id="path0" d="M0.23,157.308c-0.333,0.871 -0.174,5.195 0.206,5.574c0.232,0.233 2.675,0.309 11.43,0.359c10.863,0.062 11.136,0.074 11.251,0.513c0.09,0.342 0.313,0.45 0.937,0.45c0.667,0 0.819,0.084 0.819,0.456c0,0.303 0.152,0.455 0.456,0.455c0.427,0 0.456,0.153 0.456,2.394c0,2.242 -0.029,2.394 -0.456,2.394c-0.304,0 -0.456,0.152 -0.456,0.456c0,0.298 -0.152,0.456 -0.44,0.456c-0.282,0 -0.466,0.183 -0.513,0.512l-0.073,0.513l-7.123,0.061l-7.124,0.06l-0.003,-3.366c-0.005,-4.891 0.509,-4.392 -4.526,-4.388c-2.336,0.002 -4.402,0.101 -4.59,0.219c-0.354,0.224 -0.666,12.13 -0.351,13.385l0.132,0.526l12.706,0c12.46,0 12.713,-0.009 12.992,-0.456c0.238,-0.38 0.532,-0.456 1.786,-0.456c1.309,0 1.517,-0.058 1.62,-0.455c0.093,-0.356 0.312,-0.456 0.99,-0.456c0.653,0 0.904,-0.108 1.006,-0.432c0.075,-0.237 0.339,-0.484 0.585,-0.548c0.247,-0.065 0.449,-0.269 0.449,-0.454c0,-0.186 0.205,-0.391 0.456,-0.456c0.251,-0.066 0.456,-0.271 0.456,-0.456c0,-0.185 0.205,-0.391 0.456,-0.456c0.276,-0.072 0.456,-0.311 0.456,-0.606c0,-0.268 0.205,-0.707 0.456,-0.976c0.705,-0.758 0.705,-8.838 0,-8.838c-0.381,0 -0.456,-0.152 -0.456,-0.912c0,-0.76 -0.076,-0.912 -0.456,-0.912c-0.304,0 -0.456,-0.152 -0.456,-0.456c0,-0.298 -0.152,-0.456 -0.44,-0.456c-0.283,0 -0.466,-0.183 -0.513,-0.513c-0.046,-0.321 -0.256,-0.539 -0.563,-0.582c-0.269,-0.039 -0.542,-0.27 -0.605,-0.513c-0.088,-0.334 -0.316,-0.443 -0.924,-0.443c-0.526,0 -0.884,-0.137 -1.027,-0.391c-0.165,-0.296 -0.613,-0.412 -1.861,-0.483c-1.218,-0.069 -1.756,-0.204 -2.073,-0.522c-0.409,-0.408 -0.991,-0.428 -12.63,-0.428l-12.202,0l-0.24,0.627m49.088,-0.171c-0.237,0.379 -0.532,0.456 -1.756,0.456c-1.239,0 -1.511,0.072 -1.716,0.456c-0.174,0.324 -0.478,0.456 -1.056,0.456c-0.619,0 -0.839,0.107 -0.93,0.455c-0.066,0.253 -0.311,0.456 -0.549,0.456c-0.306,0 -0.429,0.164 -0.429,0.57c0,0.4 -0.124,0.57 -0.416,0.57c-0.504,0 -1.407,0.914 -1.407,1.424c0,0.208 -0.223,0.4 -0.513,0.441c-0.461,0.065 -0.52,0.218 -0.581,1.498c-0.048,1.008 -0.158,1.424 -0.375,1.424c-0.756,0 -0.88,3.87 -0.141,4.388c0.327,0.229 0.461,0.634 0.513,1.551c0.062,1.09 0.134,1.251 0.584,1.315c0.421,0.06 0.513,0.217 0.513,0.876c0,0.612 0.108,0.832 0.455,0.923c0.252,0.065 0.456,0.311 0.456,0.546c0,0.321 0.225,0.463 0.912,0.572c0.688,0.11 0.912,0.251 0.912,0.573c0,0.343 0.172,0.427 0.885,0.427c0.694,0 0.911,0.098 1.005,0.456c0.103,0.393 0.311,0.455 1.508,0.455c1.237,0 1.389,0.051 1.389,0.456c0,0.448 0.152,0.456 8.456,0.456c8.264,0 8.459,-0.01 8.575,-0.456c0.102,-0.388 0.312,-0.456 1.406,-0.456c1.039,0 1.341,-0.087 1.571,-0.455c0.182,-0.291 0.532,-0.456 0.967,-0.456c0.53,0 0.682,-0.102 0.682,-0.456c0,-0.379 0.152,-0.456 0.896,-0.456c0.689,0 0.93,-0.103 1.038,-0.445c0.078,-0.244 0.341,-0.507 0.585,-0.585c0.244,-0.078 0.444,-0.288 0.444,-0.467c0,-0.18 0.205,-0.532 0.456,-0.783c0.321,-0.321 0.456,-0.76 0.456,-1.482c0,-0.873 0.068,-1.025 0.456,-1.025c0.434,0 0.456,-0.153 0.456,-3.213c0,-3.021 -0.027,-3.22 -0.456,-3.332c-0.35,-0.092 -0.456,-0.311 -0.456,-0.95c0,-0.574 -0.136,-0.916 -0.44,-1.105c-0.242,-0.151 -0.473,-0.561 -0.513,-0.91c-0.052,-0.457 -0.216,-0.655 -0.586,-0.708c-0.328,-0.046 -0.513,-0.23 -0.513,-0.51c0,-0.334 -0.215,-0.472 -0.911,-0.583c-0.688,-0.11 -0.912,-0.251 -0.912,-0.573c0,-0.343 -0.172,-0.426 -0.885,-0.426c-0.694,0 -0.912,-0.099 -1.005,-0.456c-0.101,-0.388 -0.311,-0.456 -1.395,-0.456c-0.971,0 -1.383,-0.109 -1.73,-0.456c-0.438,-0.438 -0.76,-0.456 -8.038,-0.456c-7.335,0 -7.592,0.015 -7.867,0.456m30.139,-0.133c-0.797,0.582 -0.787,4.611 0.013,5.562l0.611,0.726l10.757,0c10.475,0 10.767,0.012 11.148,0.456c0.23,0.268 0.672,0.456 1.076,0.456c0.534,0 0.686,0.1 0.686,0.456c0,0.303 0.152,0.455 0.456,0.455c0.38,0 0.456,0.153 0.456,0.912c0,0.76 0.076,0.912 0.456,0.912c0.328,0 0.456,0.152 0.456,0.543c0,0.352 -0.161,0.586 -0.456,0.663c-0.349,0.091 -0.456,0.311 -0.456,0.939c0,0.667 -0.084,0.819 -0.456,0.819c-0.298,0 -0.456,0.152 -0.456,0.44c0,0.282 -0.183,0.466 -0.513,0.513c-0.329,0.046 -0.539,0.256 -0.586,0.585l-0.072,0.513l-7.051,0l-7.051,0l0,-3.514c0,-4.708 0.494,-4.236 -4.435,-4.236c-5.53,0 -5.007,-0.728 -5.093,7.085c-0.045,4.081 0.015,6.281 0.179,6.588c0.385,0.72 25.313,0.724 25.929,0.004c0.314,-0.366 0.673,-0.456 1.821,-0.456c1.279,0 1.432,-0.048 1.432,-0.455c0,-0.381 0.152,-0.456 0.911,-0.456c0.76,0 0.912,-0.076 0.912,-0.456c0,-0.335 0.152,-0.456 0.57,-0.456c0.406,0 0.57,-0.123 0.57,-0.429c0,-0.238 0.203,-0.483 0.456,-0.549c0.251,-0.066 0.456,-0.271 0.456,-0.456c0,-0.185 0.205,-0.391 0.456,-0.456c0.262,-0.068 0.456,-0.311 0.456,-0.57c0,-0.259 0.193,-0.501 0.456,-0.57c0.437,-0.114 0.456,-0.311 0.456,-4.7c0,-4.276 -0.031,-4.61 -0.456,-5.036c-0.251,-0.251 -0.456,-0.661 -0.456,-0.912c0,-0.304 -0.152,-0.456 -0.456,-0.456c-0.304,0 -0.456,-0.152 -0.456,-0.456c0,-0.298 -0.152,-0.456 -0.44,-0.456c-0.283,0 -0.466,-0.183 -0.513,-0.513c-0.046,-0.321 -0.256,-0.539 -0.563,-0.582c-0.269,-0.039 -0.541,-0.27 -0.605,-0.513c-0.084,-0.319 -0.314,-0.443 -0.822,-0.443c-0.401,0 -0.901,-0.197 -1.16,-0.456c-0.37,-0.37 -0.76,-0.456 -2.052,-0.456c-1.212,0 -1.596,-0.077 -1.596,-0.318c0,-0.567 -0.57,-0.594 -12.627,-0.594c-9.917,0 -11.98,0.054 -12.348,0.323m49.367,0.133c-0.381,0.38 -0.76,0.456 -2.301,0.456c-1.653,0 -1.857,0.047 -1.964,0.456c-0.091,0.345 -0.311,0.456 -0.912,0.456c-0.601,0 -0.821,0.11 -0.912,0.455c-0.066,0.253 -0.311,0.456 -0.549,0.456c-0.306,0 -0.429,0.164 -0.429,0.57c0,0.418 -0.121,0.57 -0.456,0.57c-0.303,0 -0.456,0.152 -0.456,0.456c0,0.335 -0.152,0.456 -0.569,0.456c-0.407,0 -0.57,0.123 -0.57,0.429c0,0.238 -0.204,0.483 -0.456,0.549c-0.439,0.115 -0.456,0.311 -0.456,5.063c0,4.752 0.017,4.949 0.456,5.063c0.263,0.069 0.456,0.311 0.456,0.573c0,0.542 1.995,2.451 2.564,2.454c0.246,0.002 0.399,0.177 0.399,0.459c0,0.38 0.152,0.456 0.912,0.456c0.76,0 0.912,0.075 0.912,0.456c0,0.407 0.152,0.455 1.431,0.455c1.149,0 1.508,0.09 1.821,0.456c0.382,0.446 0.673,0.456 12.817,0.456l12.426,0l0,-7.067l0,-7.066l-9.46,0l-9.461,0l0,6.611l10.487,0l0,1.139l-7.181,0c-7.136,0 -7.181,-0.003 -7.181,-0.477c0,-0.283 -0.182,-0.525 -0.449,-0.595c-0.246,-0.064 -0.51,-0.311 -0.585,-0.548c-0.075,-0.237 -0.275,-0.431 -0.445,-0.431c-0.17,0 -0.379,-0.321 -0.465,-0.712c-0.092,-0.421 -0.332,-0.758 -0.588,-0.824c-0.603,-0.158 -0.596,-1.332 0.01,-1.49c0.289,-0.076 0.493,-0.397 0.594,-0.939c0.096,-0.505 0.285,-0.823 0.493,-0.823c0.186,0 0.391,-0.205 0.457,-0.455c0.065,-0.251 0.26,-0.456 0.432,-0.456c0.172,0 0.523,-0.18 0.778,-0.399c0.426,-0.364 1.418,-0.409 11.458,-0.513l10.992,-0.114l0.063,-3.249l0.064,-3.248l-11.861,0c-11.556,0 -11.872,0.012 -12.316,0.456m30.887,0.055c-0.068,0.283 -0.096,5.131 -0.061,10.773l0.063,10.258l16.128,0.059l16.129,0.058l-0.003,-2.68c-0.002,-1.474 -0.065,-2.911 -0.141,-3.193l-0.137,-0.513l-11.258,0l-11.257,0l0,-0.57l0,-0.569l10.803,0c9.642,0 10.819,-0.039 10.942,-0.361c0.234,-0.607 0.154,-5.34 -0.097,-5.809c-0.228,-0.427 -0.59,-0.441 -10.942,-0.441c-10.554,0 -10.706,-0.007 -10.706,-0.456c0,-0.45 0.152,-0.456 11.039,-0.456c13.159,0 11.796,0.421 11.707,-3.613l-0.064,-2.884l-16.01,-0.059l-16.009,-0.058l-0.126,0.514m-100.643,5.501c0,0.366 0.976,0.599 2.509,0.599c0.893,0 1.106,0.08 1.204,0.456c0.071,0.273 0.311,0.456 0.597,0.456c0.284,0 0.477,0.146 0.477,0.363c0,0.2 0.205,0.417 0.456,0.482c0.252,0.066 0.456,0.312 0.456,0.549c0,0.277 0.161,0.429 0.456,0.429c0.408,0 0.456,0.152 0.456,1.455c0,1.264 -0.06,1.471 -0.456,1.575c-0.273,0.071 -0.456,0.311 -0.456,0.597c0,0.271 -0.147,0.477 -0.342,0.477c-0.188,0 -0.342,0.105 -0.342,0.233c0,0.129 -0.266,0.335 -0.592,0.459c-0.326,0.124 -0.645,0.429 -0.71,0.678c-0.101,0.385 -0.313,0.453 -1.41,0.453c-1.03,0 -1.357,0.093 -1.62,0.456c-0.288,0.401 -0.589,0.456 -2.503,0.456c-1.927,0 -2.206,-0.052 -2.459,-0.456c-0.24,-0.385 -0.531,-0.456 -1.878,-0.456c-1.466,0 -1.594,-0.038 -1.594,-0.477c0,-0.278 -0.182,-0.525 -0.435,-0.591c-0.239,-0.062 -0.486,-0.309 -0.549,-0.548c-0.062,-0.24 -0.277,-0.435 -0.477,-0.435c-0.199,0 -0.363,-0.164 -0.363,-0.363c0,-0.2 -0.205,-0.418 -0.456,-0.483c-0.396,-0.104 -0.456,-0.311 -0.456,-1.575c0,-1.303 0.048,-1.455 0.456,-1.455c0.304,0 0.456,-0.152 0.456,-0.456c0,-0.303 0.152,-0.456 0.456,-0.456c0.295,0 0.456,-0.152 0.456,-0.43c0,-0.309 0.219,-0.472 0.776,-0.576c0.427,-0.08 0.833,-0.297 0.905,-0.482c0.09,-0.234 0.476,-0.335 1.277,-0.335c0.868,0 1.246,-0.112 1.54,-0.456c0.492,-0.575 4.165,-0.701 4.165,-0.143"/><path id="path1" d="M88.177,13.949c-0.098,0.373 -0.218,0.376 -12.415,0.376c-11.966,0 -12.328,0.011 -12.705,0.365c-0.366,0.344 -0.708,0.366 -6.117,0.391c-3.527,0.016 -5.729,0.095 -5.729,0.205c0,0.099 -0.084,0.128 -0.187,0.065c-0.102,-0.064 -0.186,0.015 -0.186,0.175c0,0.253 -0.451,0.291 -3.466,0.291c-3.31,0 -3.471,0.016 -3.564,0.372c-0.079,0.303 -0.261,0.376 -0.962,0.388c-1.475,0.024 -2.075,0.207 -2.075,0.632c0,0.197 -0.187,0.286 -0.606,0.288c-0.648,0.003 -1.118,0.214 -1.08,0.484c0.012,0.091 -0.148,0.193 -0.357,0.226c-0.226,0.035 -0.38,0.2 -0.38,0.408c0,0.268 -0.162,0.361 -0.699,0.406c-0.388,0.032 -0.71,0.162 -0.723,0.291c-0.013,0.128 -0.034,0.308 -0.046,0.399c-0.013,0.091 -0.171,0.154 -0.35,0.14c-0.179,-0.015 -0.309,0.066 -0.288,0.18c0.02,0.114 -0.21,0.444 -0.513,0.734c-0.303,0.29 -0.551,0.68 -0.551,0.866c0,0.186 -0.167,0.505 -0.372,0.71c-0.205,0.205 -0.373,0.573 -0.373,0.817c0,0.285 -0.132,0.479 -0.365,0.54c-0.32,0.084 -0.372,0.288 -0.42,1.653c-0.043,1.236 -0.112,1.558 -0.334,1.558c-0.499,0 -0.504,26.247 -0.004,26.746c0.354,0.355 0.367,0.729 0.418,12.256c0.043,9.749 0.097,11.881 0.299,11.839c0.143,-0.03 0.192,0.038 0.116,0.161c-0.072,0.116 -0.038,0.269 0.075,0.339c0.144,0.089 0.211,2.026 0.22,6.397c0.012,5.866 0.035,6.298 0.367,6.719c0.317,0.404 0.357,0.824 0.386,4.044c0.028,3.245 0.065,3.628 0.382,3.945c0.297,0.296 0.351,0.638 0.351,2.204c0,1.113 0.08,1.902 0.199,1.976c0.11,0.068 0.156,0.236 0.103,0.374c-0.054,0.142 0.062,0.302 0.267,0.367c0.306,0.097 0.363,0.289 0.363,1.221c0,0.858 0.084,1.19 0.373,1.479c0.251,0.251 0.373,0.621 0.373,1.136c0,0.606 0.076,0.783 0.373,0.86c0.309,0.082 0.373,0.255 0.373,1.019c0,0.567 0.071,0.877 0.186,0.806c0.103,-0.063 0.186,0.016 0.186,0.176c0,0.16 0.084,0.291 0.187,0.291c0.102,0 0.186,0.202 0.186,0.45c0,0.644 0.186,1.041 0.486,1.041c0.153,0 0.26,0.192 0.26,0.466c0,0.342 0.099,0.466 0.373,0.466c0.241,0 0.381,0.132 0.396,0.373c0.013,0.205 0.034,0.478 0.047,0.606c0.013,0.128 0.212,0.316 0.442,0.417c0.231,0.101 0.42,0.332 0.42,0.512c0,0.205 0.141,0.329 0.373,0.329c0.289,0 0.372,0.124 0.372,0.555c0,0.389 0.143,0.648 0.476,0.866c0.274,0.18 0.433,0.423 0.375,0.574c-0.056,0.144 -0.018,0.21 0.084,0.147c0.101,-0.062 0.184,-0.02 0.184,0.095c0,0.115 0.084,0.157 0.186,0.093c0.172,-0.106 0.27,0.15 0.204,0.529c-0.015,0.086 0.135,0.198 0.333,0.25c0.199,0.052 0.403,0.254 0.454,0.45c0.051,0.196 0.217,0.356 0.368,0.356c0.152,0 0.32,0.168 0.373,0.373c0.058,0.223 0.255,0.372 0.488,0.372c0.266,0 0.39,0.119 0.39,0.373c0,0.205 0.123,0.373 0.273,0.373c0.15,0 0.367,0.174 0.481,0.387c0.114,0.213 0.315,0.346 0.448,0.295c0.133,-0.051 0.423,0.152 0.644,0.452c0.221,0.299 0.568,0.544 0.77,0.544c0.242,0 0.367,0.126 0.367,0.373c0,0.244 0.124,0.373 0.36,0.373c0.198,0 0.414,0.167 0.479,0.372c0.089,0.281 0.282,0.373 0.775,0.373c0.501,0 0.681,0.089 0.755,0.373c0.054,0.207 0.255,0.373 0.449,0.373c0.226,0 0.351,0.132 0.351,0.37c0,0.289 0.166,0.398 0.746,0.49c0.414,0.066 0.745,0.224 0.745,0.355c0,0.13 0.21,0.288 0.466,0.353c0.257,0.064 0.467,0.232 0.467,0.373c0,0.297 0.399,0.482 1.04,0.482c0.326,0 0.451,0.103 0.451,0.373c0,0.311 0.124,0.373 0.746,0.373c0.621,0 0.745,0.062 0.745,0.373c0,0.263 0.125,0.373 0.422,0.373c0.231,0 0.525,0.168 0.653,0.373c0.142,0.226 0.435,0.372 0.747,0.372c0.353,0 0.57,0.131 0.697,0.42c0.125,0.283 0.375,0.438 0.771,0.476c0.395,0.039 0.618,0.176 0.682,0.42c0.052,0.199 0.228,0.362 0.392,0.362c0.163,0 0.464,0.168 0.67,0.373c0.205,0.205 0.572,0.373 0.817,0.373c0.287,0 0.479,0.131 0.542,0.373c0.074,0.285 0.254,0.373 0.767,0.373c0.61,0 0.766,0.136 0.692,0.605c-0.012,0.077 0.313,0.14 0.724,0.14c0.614,0 0.745,0.064 0.745,0.362c0,0.293 0.152,0.374 0.792,0.42c0.647,0.046 0.793,0.125 0.793,0.428c0,0.221 0.15,0.399 0.372,0.442c0.205,0.039 0.572,0.229 0.817,0.421c0.245,0.193 0.653,0.351 0.907,0.351c0.339,0 0.431,0.076 0.349,0.289c-0.063,0.166 -0.032,0.241 0.074,0.175c0.101,-0.062 0.184,-0.025 0.184,0.084c0,0.108 0.063,0.188 0.14,0.176c0.538,-0.086 0.97,0.074 1.072,0.394c0.091,0.29 0.282,0.373 0.851,0.373c0.609,0 0.733,0.063 0.733,0.373c0,0.311 0.125,0.373 0.746,0.373c0.621,0 0.746,0.062 0.746,0.373c0,0.309 0.124,0.372 0.732,0.372c0.618,0 0.742,0.066 0.792,0.42c0.05,0.349 0.194,0.429 0.852,0.477c0.641,0.046 0.793,0.126 0.793,0.419c0,0.278 0.129,0.362 0.558,0.362c0.355,0 0.641,0.135 0.79,0.373c0.128,0.205 0.392,0.373 0.587,0.373c0.194,0 0.468,0.147 0.608,0.326c0.238,0.305 0.246,0.304 0.129,-0.031c-0.087,-0.246 -0.058,-0.315 0.092,-0.221c0.12,0.074 0.218,0.255 0.218,0.403c0,0.159 0.182,0.269 0.445,0.269c0.287,0 0.479,0.131 0.542,0.372c0.074,0.286 0.254,0.373 0.767,0.373c0.551,0 0.67,0.068 0.67,0.382c0,0.209 0.105,0.367 0.233,0.35c0.694,-0.09 1.258,0.038 1.258,0.287c0,0.313 0.559,0.659 1.065,0.659c0.189,0 0.487,0.168 0.663,0.373c0.188,0.219 0.55,0.373 0.88,0.373c0.437,0 0.561,0.082 0.561,0.373c0,0.205 0.063,0.363 0.14,0.351c0.606,-0.096 1.352,0.059 1.352,0.281c0,0.316 0.402,0.486 1.144,0.486c0.36,0 0.511,0.073 0.427,0.207c-0.178,0.289 0.273,0.533 0.992,0.536c0.48,0.002 0.606,0.08 0.606,0.376c0,0.309 0.124,0.372 0.732,0.372c0.618,0 0.742,0.066 0.793,0.42c0.052,0.371 0.167,0.419 0.991,0.419c0.788,0 0.961,-0.064 1.117,-0.419c0.144,-0.33 0.336,-0.42 0.896,-0.42c0.392,0 0.667,-0.074 0.61,-0.165c-0.159,-0.259 0.327,-0.565 0.979,-0.614c0.539,-0.041 0.678,-0.171 0.615,-0.572c-0.012,-0.077 0.272,-0.14 0.63,-0.14c0.467,0 0.653,-0.083 0.653,-0.291c0,-0.16 0.084,-0.238 0.186,-0.175c0.103,0.063 0.187,0.027 0.187,-0.082c0,-0.109 0.167,-0.198 0.373,-0.198c0.205,0 0.372,-0.081 0.372,-0.18c0,-0.1 0.14,-0.127 0.311,-0.061c0.202,0.077 0.265,0.046 0.181,-0.091c-0.082,-0.133 0.143,-0.283 0.613,-0.41c0.409,-0.11 0.866,-0.323 1.017,-0.474c0.152,-0.151 0.449,-0.275 0.661,-0.275c0.213,0 0.387,-0.09 0.387,-0.2c0,-0.349 0.517,-0.732 0.99,-0.732c0.3,0 0.491,-0.128 0.555,-0.373c0.077,-0.296 0.254,-0.373 0.861,-0.373c0.638,0 0.763,-0.06 0.763,-0.373c0,-0.31 0.124,-0.372 0.745,-0.372c0.622,0 0.746,-0.062 0.746,-0.373c0,-0.311 0.124,-0.373 0.746,-0.373c0.621,0 0.745,-0.062 0.745,-0.373c0,-0.29 0.125,-0.373 0.561,-0.373c0.33,0 0.693,-0.153 0.88,-0.372c0.175,-0.204 0.605,-0.426 0.954,-0.491c0.399,-0.075 0.67,-0.249 0.727,-0.467c0.054,-0.206 0.271,-0.357 0.535,-0.371c0.841,-0.044 0.911,-0.071 0.911,-0.347c0,-0.152 0.167,-0.307 0.372,-0.343c0.206,-0.036 0.528,-0.247 0.717,-0.468c0.324,-0.38 0.337,-0.382 0.232,-0.03c-0.098,0.33 -0.084,0.338 0.126,0.071c0.129,-0.166 0.513,-0.363 0.852,-0.437c0.338,-0.075 0.661,-0.253 0.716,-0.398c0.055,-0.144 0.301,-0.262 0.547,-0.262c0.321,0 0.446,-0.104 0.446,-0.372c0,-0.3 0.124,-0.373 0.629,-0.373c0.583,0 1.173,-0.373 0.947,-0.599c-0.053,-0.053 0.249,-0.153 0.673,-0.221c0.549,-0.087 0.799,-0.229 0.867,-0.49c0.068,-0.259 0.256,-0.368 0.634,-0.368c0.363,0 0.537,-0.095 0.537,-0.291c0,-0.16 0.084,-0.238 0.187,-0.175c0.102,0.063 0.186,0.026 0.186,-0.082c0,-0.109 0.13,-0.198 0.288,-0.198c0.158,0 0.467,-0.167 0.687,-0.373c0.22,-0.205 0.602,-0.372 0.849,-0.372c0.291,0 0.482,-0.131 0.546,-0.373c0.076,-0.292 0.254,-0.373 0.821,-0.373c0.594,0 0.724,-0.065 0.724,-0.365c0,-0.27 0.172,-0.396 0.667,-0.489c0.367,-0.069 0.712,-0.24 0.766,-0.382c0.054,-0.14 0.255,-0.255 0.447,-0.255c0.218,0 0.394,-0.177 0.467,-0.466c0.1,-0.399 0.223,-0.467 0.853,-0.467c0.405,0 0.695,-0.067 0.645,-0.148c-0.183,-0.297 0.198,-0.597 0.826,-0.652c0.471,-0.042 0.635,-0.141 0.616,-0.374c-0.017,-0.212 0.113,-0.317 0.395,-0.317c0.23,0 0.619,-0.156 0.864,-0.347c0.245,-0.191 0.632,-0.406 0.86,-0.477c0.229,-0.072 0.397,-0.231 0.373,-0.352c-0.024,-0.126 0.221,-0.247 0.569,-0.281c0.355,-0.034 0.707,-0.21 0.837,-0.419c0.124,-0.199 0.368,-0.361 0.54,-0.361c0.186,0 0.34,-0.173 0.375,-0.419c0.049,-0.34 0.197,-0.431 0.779,-0.479c0.526,-0.043 0.746,-0.157 0.815,-0.419c0.051,-0.199 0.252,-0.361 0.445,-0.361c0.227,0 0.351,-0.132 0.351,-0.373c0,-0.303 0.125,-0.372 0.67,-0.372c0.513,0 0.693,-0.088 0.767,-0.373c0.054,-0.207 0.255,-0.373 0.449,-0.373c0.227,0 0.351,-0.132 0.351,-0.373c0,-0.248 0.125,-0.373 0.373,-0.373c0.241,0 0.373,-0.124 0.373,-0.351c0,-0.198 0.168,-0.395 0.387,-0.452c0.212,-0.056 0.432,-0.275 0.487,-0.488c0.056,-0.213 0.206,-0.387 0.334,-0.387c0.383,0 1.215,-0.748 1.215,-1.093c0,-0.201 0.226,-0.388 0.604,-0.499c0.429,-0.127 0.658,-0.341 0.79,-0.738c0.2,-0.602 0.457,-0.869 0.695,-0.722c0.081,0.05 0.148,-0.075 0.148,-0.279c0,-0.243 0.145,-0.392 0.42,-0.43c0.269,-0.039 0.441,-0.21 0.479,-0.48c0.032,-0.23 0.172,-0.419 0.31,-0.419c0.146,0 0.302,-0.309 0.376,-0.746c0.095,-0.566 0.212,-0.745 0.482,-0.745c0.216,0 0.357,-0.129 0.357,-0.328c0,-0.181 0.168,-0.433 0.373,-0.561c0.234,-0.147 0.372,-0.435 0.372,-0.778c0,-0.382 0.112,-0.581 0.373,-0.664c0.292,-0.092 0.373,-0.282 0.373,-0.868c0,-0.594 0.078,-0.772 0.373,-0.849c0.315,-0.082 0.373,-0.254 0.373,-1.101c0,-0.552 0.084,-1.013 0.186,-1.027c0.103,-0.012 0.287,-0.033 0.409,-0.046c0.135,-0.014 0.252,-0.46 0.297,-1.137c0.053,-0.787 0.171,-1.18 0.402,-1.342c0.252,-0.176 0.336,-0.533 0.365,-1.553c0.03,-1.029 0.12,-1.406 0.402,-1.687c0.323,-0.323 0.362,-0.635 0.362,-2.851c0,-2.251 0.036,-2.52 0.373,-2.825c0.355,-0.321 0.373,-0.576 0.375,-5.202c0.003,-4.863 0.083,-5.977 0.394,-5.486c0.118,0.186 0.166,0.155 0.189,-0.124c0.017,-0.205 0.051,-0.457 0.074,-0.56c0.024,-0.102 0.053,-3.66 0.065,-7.907c0.012,-4.246 0.077,-7.666 0.144,-7.598c0.601,0.601 0.623,-0.067 0.623,-19.169c0,-16.69 0.033,-18.903 0.285,-19.111c0.251,-0.209 0.252,-0.272 0.008,-0.541c-0.215,-0.238 -0.281,-0.934 -0.302,-3.189c-0.024,-2.712 -0.163,-3.497 -0.571,-3.244c-0.091,0.056 -0.165,-0.322 -0.165,-0.841c0,-0.819 -0.049,-0.943 -0.373,-0.943c-0.302,0 -0.373,-0.125 -0.373,-0.651c0,-0.449 -0.116,-0.723 -0.373,-0.884c-0.205,-0.128 -0.373,-0.38 -0.373,-0.561c0,-0.203 -0.141,-0.328 -0.373,-0.328c-0.216,0 -0.372,-0.124 -0.372,-0.297c0,-0.163 -0.16,-0.339 -0.356,-0.39c-0.196,-0.051 -0.398,-0.253 -0.449,-0.449c-0.054,-0.207 -0.256,-0.355 -0.483,-0.355c-0.266,0 -0.39,-0.119 -0.39,-0.373c0,-0.283 -0.125,-0.373 -0.518,-0.373c-0.305,0 -0.629,-0.154 -0.787,-0.373c-0.198,-0.274 -0.483,-0.373 -1.078,-0.373c-0.514,0 -0.764,-0.07 -0.688,-0.194c0.252,-0.407 -0.327,-0.738 -1.291,-0.738c-0.716,0 -1.039,-0.091 -1.267,-0.356c-0.277,-0.324 -0.601,-0.359 -3.497,-0.381c-2.905,-0.02 -3.225,-0.055 -3.558,-0.388c-0.348,-0.348 -0.653,-0.366 -6.342,-0.366c-3.428,0 -5.933,-0.07 -5.874,-0.165c0.13,-0.211 -0.347,-0.614 -0.672,-0.57c-0.735,0.1 -24.431,-0.03 -24.328,-0.133c0.538,-0.538 -0.373,-0.608 -8.017,-0.619c-7.608,-0.011 -7.738,-0.005 -7.834,0.365m22.078,6.901c0.459,0.362 0.756,0.373 9.725,0.373c9.104,0 9.255,0.006 9.488,0.38c0.13,0.208 0.339,0.366 0.464,0.35c1.792,-0.228 11.133,0.059 11.136,0.342c0.002,0.278 0.029,0.285 0.183,0.046c0.155,-0.239 0.182,-0.232 0.184,0.047c0.001,0.179 0.066,0.316 0.142,0.304c1.358,-0.214 5.453,0.067 5.453,0.375c0,0.402 0.347,0.579 1.134,0.579c0.299,0 0.544,0.063 0.545,0.14c0.002,0.167 0.905,0.606 1.248,0.606c0.133,0 0.242,0.168 0.242,0.373c0,0.248 0.125,0.373 0.373,0.373c0.304,0 0.373,0.124 0.373,0.669c0,0.513 0.087,0.693 0.373,0.768c0.334,0.088 0.373,0.255 0.375,1.614c0.003,1.76 0.126,2.355 0.486,2.355c0.379,0 0.365,3.328 -0.016,3.833c-0.337,0.445 -0.369,1.322 -0.053,1.45c0.181,0.074 0.177,0.134 -0.02,0.272c-0.157,0.11 -0.205,0.327 -0.127,0.573c0.076,0.24 0.045,0.396 -0.079,0.396c-0.142,0 -0.197,0.963 -0.178,3.123c0.087,10.315 -0.038,30.441 -0.189,30.348c-0.095,-0.059 -0.226,-0.022 -0.29,0.082c-0.065,0.104 -0.008,0.192 0.126,0.195c0.158,0.004 0.134,0.07 -0.067,0.188c-0.283,0.165 -0.314,0.868 -0.333,7.49c-0.011,4.02 -0.089,7.354 -0.173,7.409c-0.498,0.329 -0.581,1.105 -0.581,5.473c0,4.401 -0.013,4.561 -0.372,4.655c-0.351,0.092 -0.373,0.255 -0.373,2.725c0,2.503 -0.018,2.627 -0.373,2.627c-0.342,0 -0.373,0.125 -0.373,1.492c0,1.367 -0.031,1.491 -0.373,1.491c-0.205,0 -0.377,0.021 -0.382,0.047c-0.006,0.025 -0.056,0.424 -0.112,0.885c-0.056,0.461 -0.262,1.012 -0.457,1.224c-0.209,0.228 -0.354,0.656 -0.354,1.05c0,0.508 -0.088,0.688 -0.373,0.763c-0.251,0.066 -0.372,0.254 -0.372,0.579c0,0.28 -0.157,0.58 -0.373,0.715c-0.205,0.128 -0.373,0.422 -0.373,0.654c0,0.297 -0.11,0.421 -0.373,0.421c-0.248,0 -0.373,0.125 -0.373,0.373c0,0.205 -0.168,0.541 -0.373,0.746c-0.205,0.205 -0.372,0.54 -0.372,0.745c0,0.251 -0.125,0.373 -0.379,0.373c-0.208,0 -0.431,0.135 -0.493,0.299c-0.148,0.385 -1.044,1.293 -1.222,1.237c-0.075,-0.023 -0.187,0.159 -0.249,0.405c-0.062,0.246 -0.273,0.49 -0.47,0.541c-0.196,0.051 -0.357,0.227 -0.357,0.391c0,0.172 -0.156,0.296 -0.372,0.296c-0.249,0 -0.373,0.125 -0.373,0.373c0,0.244 -0.125,0.373 -0.359,0.373c-0.197,0 -0.616,0.217 -0.932,0.483c-0.315,0.265 -0.573,0.423 -0.573,0.35c0,-0.073 -0.125,-0.029 -0.278,0.097c-0.153,0.127 -0.232,0.305 -0.175,0.396c0.056,0.091 -0.113,0.165 -0.375,0.165c-0.353,0 -0.477,0.097 -0.477,0.373c0,0.233 -0.125,0.373 -0.332,0.373c-0.441,0 -1.194,0.539 -1.059,0.758c0.06,0.096 -0.107,0.174 -0.369,0.174c-0.353,0 -0.477,0.097 -0.477,0.373c0,0.313 -0.125,0.373 -0.777,0.373c-0.427,0 -0.725,0.052 -0.662,0.115c0.155,0.155 -0.334,0.631 -0.647,0.631c-0.137,0 -0.353,0.167 -0.481,0.372c-0.149,0.238 -0.435,0.373 -0.79,0.373c-0.434,0 -0.558,0.083 -0.558,0.373c0,0.301 -0.125,0.373 -0.646,0.373c-0.455,0 -0.705,0.11 -0.846,0.373c-0.109,0.205 -0.364,0.373 -0.565,0.373c-0.202,0 -0.367,0.084 -0.367,0.186c0,0.103 -0.105,0.165 -0.233,0.14c-0.128,-0.026 -0.221,0.1 -0.207,0.279c0.019,0.242 -0.114,0.327 -0.512,0.327c-0.415,0 -0.539,0.086 -0.539,0.373c0,0.31 -0.125,0.372 -0.746,0.372c-0.614,0 -0.745,0.064 -0.745,0.362c0,0.283 -0.152,0.374 -0.7,0.42c-0.425,0.034 -0.681,0.146 -0.654,0.284c0.024,0.124 -0.295,0.318 -0.709,0.429c-0.414,0.111 -0.799,0.324 -0.856,0.473c-0.058,0.148 -0.271,0.269 -0.474,0.269c-0.214,0 -0.412,0.158 -0.468,0.373c-0.064,0.243 -0.269,0.383 -0.589,0.402c-0.27,0.015 -0.616,0.036 -0.77,0.046c-0.154,0.01 -0.279,0.187 -0.279,0.392c-0.001,0.304 -0.144,0.382 -0.793,0.429c-0.64,0.046 -0.792,0.127 -0.792,0.42c0,0.298 -0.132,0.362 -0.746,0.362c-0.621,0 -0.746,0.062 -0.746,0.373c0,0.24 -0.124,0.373 -0.35,0.373c-0.192,0 -0.49,0.188 -0.663,0.419c-0.281,0.377 -0.302,0.382 -0.209,0.047c0.098,-0.348 0.087,-0.351 -0.149,-0.047c-0.14,0.179 -0.381,0.326 -0.535,0.326c-0.154,0 -0.494,0.168 -0.754,0.373c-0.261,0.205 -0.616,0.373 -0.789,0.373c-0.172,0 -0.356,0.158 -0.406,0.351c-0.063,0.24 -0.325,0.389 -0.822,0.469c-0.564,0.09 -0.729,0.2 -0.729,0.487c0,0.315 -0.126,0.371 -0.839,0.371c-0.461,0 -0.829,0.063 -0.817,0.14c0.077,0.481 -0.081,0.605 -0.767,0.605c-0.622,0 -0.746,0.062 -0.746,0.373c0,0.301 -0.124,0.373 -0.64,0.373c-0.476,0 -0.67,0.096 -0.758,0.373c-0.083,0.261 -0.282,0.373 -0.665,0.373c-0.301,0 -0.715,0.168 -0.92,0.373c-0.205,0.205 -0.581,0.372 -0.837,0.372c-0.263,0 -0.566,0.163 -0.697,0.373c-0.129,0.205 -0.376,0.373 -0.55,0.373c-0.175,0 -0.37,0.085 -0.434,0.19c-0.065,0.104 -0.201,0.137 -0.304,0.074c-0.102,-0.063 -0.232,0.061 -0.288,0.277c-0.056,0.215 -0.26,0.401 -0.454,0.415c-0.193,0.012 -0.434,0.044 -0.537,0.069c-0.103,0.026 -0.27,0.058 -0.373,0.07c-0.102,0.013 -0.186,0.149 -0.186,0.303c0,0.175 -0.176,0.28 -0.468,0.28c-0.257,0 -0.612,0.168 -0.787,0.373c-0.176,0.205 -0.511,0.373 -0.744,0.373c-0.3,0 -0.425,0.109 -0.425,0.372c0,0.313 -0.124,0.373 -0.763,0.373c-0.606,0 -0.783,0.077 -0.86,0.373c-0.054,0.205 -0.246,0.373 -0.427,0.373c-0.182,0 -0.374,-0.168 -0.427,-0.373c-0.074,-0.284 -0.255,-0.373 -0.755,-0.373c-0.494,0 -0.687,-0.093 -0.776,-0.373c-0.092,-0.289 -0.282,-0.372 -0.851,-0.372c-0.609,0 -0.733,-0.064 -0.733,-0.373c0,-0.311 -0.125,-0.373 -0.746,-0.373c-0.686,0 -0.844,-0.125 -0.768,-0.606c0.013,-0.077 -0.293,-0.14 -0.679,-0.14c-0.549,0 -0.742,-0.091 -0.886,-0.419c-0.135,-0.309 -0.369,-0.435 -0.883,-0.477c-0.547,-0.046 -0.699,-0.137 -0.699,-0.42c0,-0.296 -0.132,-0.362 -0.724,-0.362c-0.567,0 -0.745,-0.08 -0.821,-0.372c-0.075,-0.288 -0.255,-0.373 -0.785,-0.373c-0.511,0 -0.71,-0.088 -0.777,-0.344c-0.054,-0.206 -0.364,-0.414 -0.775,-0.519c-0.377,-0.098 -0.664,-0.279 -0.638,-0.403c0.026,-0.126 -0.149,-0.226 -0.398,-0.226c-0.269,0 -0.479,-0.131 -0.531,-0.331c-0.058,-0.221 -0.296,-0.346 -0.721,-0.378c-0.349,-0.026 -0.663,-0.131 -0.697,-0.232c-0.135,-0.391 -0.636,-0.736 -1.069,-0.736c-0.249,0 -0.62,-0.168 -0.826,-0.373c-0.205,-0.205 -0.582,-0.373 -0.838,-0.373c-0.342,0 -0.466,-0.099 -0.466,-0.373c0,-0.318 -0.125,-0.373 -0.851,-0.373c-0.576,0 -0.808,-0.066 -0.721,-0.207c0.179,-0.289 -0.273,-0.532 -0.992,-0.536c-0.48,-0.002 -0.606,-0.079 -0.606,-0.375c0,-0.247 -0.124,-0.373 -0.366,-0.373c-0.201,0 -0.453,-0.163 -0.559,-0.361c-0.117,-0.218 -0.434,-0.384 -0.799,-0.42c-0.339,-0.032 -0.606,-0.163 -0.606,-0.298c0,-0.312 -0.453,-0.592 -0.966,-0.596c-0.241,-0.002 -0.455,-0.154 -0.525,-0.376c-0.092,-0.289 -0.282,-0.373 -0.852,-0.373c-0.608,0 -0.733,-0.063 -0.733,-0.372c0,-0.311 -0.124,-0.373 -0.745,-0.373c-0.622,0 -0.746,-0.062 -0.746,-0.373c0,-0.264 -0.125,-0.373 -0.425,-0.373c-0.233,0 -0.568,-0.168 -0.743,-0.373c-0.176,-0.205 -0.53,-0.373 -0.788,-0.373c-0.343,0 -0.468,-0.099 -0.468,-0.372c0,-0.31 -0.124,-0.373 -0.732,-0.373c-0.614,0 -0.743,-0.067 -0.792,-0.413c-0.044,-0.301 -0.232,-0.447 -0.695,-0.542c-0.35,-0.071 -0.711,-0.263 -0.802,-0.426c-0.091,-0.163 -0.285,-0.297 -0.43,-0.297c-0.145,0 -0.353,-0.167 -0.462,-0.371c-0.109,-0.204 -0.26,-0.362 -0.333,-0.351c-0.686,0.104 -1.16,-0.058 -1.16,-0.397c0,-0.31 -0.124,-0.372 -0.745,-0.372c-0.622,0 -0.746,-0.062 -0.746,-0.373c0,-0.251 -0.125,-0.373 -0.379,-0.373c-0.223,0 -0.443,-0.173 -0.534,-0.42c-0.085,-0.23 -0.208,-0.398 -0.274,-0.372c-0.515,0.202 -1.237,0.012 -1.237,-0.327c0,-0.209 -0.124,-0.372 -0.284,-0.372c-0.156,0 -0.364,-0.211 -0.462,-0.468c-0.098,-0.257 -0.242,-0.457 -0.321,-0.444c-0.681,0.111 -1.17,-0.054 -1.17,-0.393c0,-0.241 -0.124,-0.373 -0.351,-0.373c-0.194,0 -0.394,-0.167 -0.448,-0.373c-0.054,-0.205 -0.226,-0.373 -0.382,-0.373c-0.157,0 -0.338,-0.168 -0.403,-0.373c-0.074,-0.231 -0.282,-0.373 -0.551,-0.373c-0.298,0 -0.425,-0.101 -0.407,-0.326c0.016,-0.204 -0.096,-0.316 -0.3,-0.3c-0.21,0.016 -0.327,-0.106 -0.327,-0.344c0,-0.212 -0.158,-0.411 -0.373,-0.467c-0.205,-0.053 -0.372,-0.181 -0.372,-0.284c0,-0.102 -0.321,-0.491 -0.712,-0.864c-0.392,-0.372 -0.767,-0.824 -0.833,-1.003c-0.067,-0.18 -0.25,-0.326 -0.407,-0.326c-0.161,0 -0.285,-0.163 -0.285,-0.373c0,-0.274 -0.125,-0.373 -0.466,-0.373c-0.423,0 -0.467,-0.073 -0.467,-0.777c0,-0.427 -0.055,-0.721 -0.122,-0.654c-0.192,0.192 -0.623,-0.253 -0.623,-0.643c0,-0.225 -0.133,-0.35 -0.373,-0.35c-0.305,0 -0.373,-0.124 -0.373,-0.686c0,-0.425 -0.139,-0.836 -0.362,-1.074c-0.218,-0.231 -0.382,-0.702 -0.41,-1.176c-0.033,-0.571 -0.139,-0.819 -0.383,-0.897c-0.256,-0.081 -0.336,-0.299 -0.336,-0.917c0,-0.989 -0.143,-1.401 -0.486,-1.401c-0.225,0 -0.424,-2.217 -0.276,-3.049c0.072,-0.398 -0.229,-0.866 -0.556,-0.866c-0.319,0 -0.603,-5.567 -0.377,-7.396c0.015,-0.121 -0.143,-0.273 -0.351,-0.339c-0.369,-0.117 -0.378,-0.264 -0.392,-6.119c-0.016,-6.545 -0.022,-6.64 -0.433,-6.941c-0.245,-0.179 -0.289,-1.654 -0.337,-11.253c-0.051,-10.267 -0.077,-11.062 -0.381,-11.284c-0.546,-0.399 -0.5,-27.419 0.047,-27.562c0.317,-0.083 0.373,-0.254 0.373,-1.14c0,-0.918 0.044,-1.043 0.372,-1.043c0.249,0 0.373,-0.124 0.373,-0.373c0,-0.248 0.125,-0.372 0.373,-0.372c0.249,0 0.373,-0.125 0.373,-0.373c0,-0.254 0.124,-0.373 0.39,-0.373c0.234,0 0.43,-0.15 0.488,-0.373c0.073,-0.278 0.254,-0.373 0.716,-0.373c0.84,0 1.575,-0.302 1.575,-0.648c0,-0.244 4.056,-0.483 5.096,-0.301c0.086,0.015 0.2,-0.142 0.255,-0.351c0.097,-0.369 0.229,-0.378 5.844,-0.378c5.581,0 5.747,-0.01 5.863,-0.372c0.105,-0.334 14.718,-0.632 18.585,-0.38c0.331,0.022 0.585,-0.099 0.744,-0.353c0.373,-0.597 27.864,-0.61 28.623,-0.013m-42.137,14.508c-0.173,0.033 -0.316,0.221 -0.316,0.419c0,0.331 -0.148,0.359 -1.882,0.359c-1.724,0 -1.889,0.032 -1.979,0.373c-0.084,0.32 -0.254,0.373 -1.202,0.373c-0.949,0 -1.097,0.046 -1.051,0.326c0.044,0.256 -0.099,0.339 -0.664,0.386c-0.526,0.043 -0.746,0.156 -0.815,0.419c-0.085,0.326 -0.474,0.457 -1.116,0.376c-0.126,-0.016 -0.334,0.141 -0.465,0.35c-0.13,0.209 -0.384,0.38 -0.565,0.38c-0.203,0 -0.328,0.141 -0.328,0.373c0,0.237 -0.124,0.373 -0.341,0.373c-0.188,0 -0.454,0.209 -0.591,0.466c-0.157,0.294 -0.411,0.466 -0.688,0.466c-0.302,0 -0.497,0.152 -0.624,0.485c-0.121,0.318 -0.28,0.448 -0.462,0.378c-0.182,-0.069 -0.276,0.01 -0.276,0.233c0,0.186 -0.189,0.429 -0.42,0.541c-0.231,0.111 -0.313,0.207 -0.183,0.214c0.13,0.007 -0.049,0.291 -0.399,0.63c-0.35,0.339 -0.666,0.78 -0.705,0.979c-0.038,0.199 -0.194,0.361 -0.346,0.361c-0.155,0 -0.305,0.206 -0.34,0.467c-0.034,0.256 -0.152,0.549 -0.261,0.652c-0.135,0.127 -0.156,0.113 -0.067,-0.044c0.087,-0.155 0.035,-0.195 -0.159,-0.121c-0.248,0.096 -0.416,0.98 -0.309,1.619c0.014,0.081 -0.123,0.123 -0.304,0.093c-0.591,-0.1 -0.564,2.109 0.03,2.337c0.35,0.134 1.785,-1.122 1.785,-1.564c0,-0.185 0.168,-0.391 0.373,-0.456c0.205,-0.065 0.372,-0.229 0.372,-0.363c0,-0.135 0.168,-0.29 0.373,-0.343c0.223,-0.059 0.373,-0.255 0.373,-0.488c0,-0.266 0.119,-0.39 0.373,-0.39c0.248,0 0.373,-0.125 0.373,-0.373c0,-0.249 0.124,-0.373 0.373,-0.373c0.248,0 0.372,-0.124 0.372,-0.373c0,-0.273 0.125,-0.373 0.468,-0.373c0.258,0 0.612,-0.168 0.788,-0.373c0.175,-0.205 0.476,-0.372 0.667,-0.372c0.192,0 0.393,-0.168 0.447,-0.373c0.062,-0.238 0.254,-0.373 0.531,-0.373c0.238,0 0.486,-0.085 0.55,-0.19c0.064,-0.104 0.195,-0.141 0.291,-0.082c0.095,0.059 0.173,-0.023 0.173,-0.183c0,-0.18 0.178,-0.3 0.466,-0.314c0.257,-0.013 0.543,-0.034 0.637,-0.047c0.249,-0.034 0.482,-0.301 0.482,-0.551c0,-0.133 0.456,-0.254 1.168,-0.311c0.643,-0.051 1.167,-0.156 1.165,-0.233c-0.002,-0.077 -0.003,-0.224 -0.003,-0.326c0,-0.119 1.526,-0.187 4.207,-0.187c4.035,0 5.102,0.126 4.829,0.569c-0.064,0.104 0.32,0.177 0.926,0.177c0.912,0 1.037,0.045 1.037,0.373c0,0.205 0.089,0.373 0.197,0.373c0.109,0 0.137,-0.099 0.062,-0.219c-0.074,-0.12 0.066,-0.078 0.311,0.093c0.244,0.172 0.56,0.312 0.7,0.312c0.141,0 0.469,0.168 0.73,0.373c0.26,0.205 0.62,0.373 0.799,0.373c0.18,0 0.37,0.168 0.424,0.373c0.075,0.285 0.254,0.373 0.768,0.373c0.545,0 0.669,0.069 0.669,0.372c0,0.249 0.125,0.373 0.373,0.373c0.217,0 0.373,0.125 0.373,0.297c0,0.164 0.165,0.34 0.367,0.393c0.201,0.053 0.417,0.255 0.478,0.449c0.079,0.248 0.289,0.354 0.706,0.355c0.383,0.002 0.507,0.058 0.35,0.157c-0.178,0.113 -0.053,0.324 0.482,0.808c0.399,0.359 0.777,0.791 0.842,0.958c0.069,0.181 0.234,0.26 0.403,0.195c0.257,-0.098 0.386,0.195 0.312,0.711c-0.009,0.071 0.139,0.178 0.331,0.239c0.192,0.061 0.392,0.276 0.445,0.478c0.053,0.201 0.23,0.366 0.393,0.366c0.173,0 0.297,0.157 0.297,0.373c0,0.249 0.125,0.373 0.373,0.373c0.254,0 0.373,0.125 0.373,0.39c0,0.234 0.149,0.43 0.373,0.488c0.212,0.056 0.373,0.255 0.373,0.461c0,0.564 0.37,1.126 0.666,1.012c0.185,-0.071 0.266,0.037 0.266,0.358c0,0.336 0.1,0.46 0.372,0.46c0.311,0 0.373,0.125 0.373,0.746c0,0.621 0.062,0.746 0.373,0.746c0.29,0 0.373,0.124 0.373,0.557c0,0.356 0.135,0.642 0.373,0.791c0.205,0.128 0.373,0.422 0.373,0.654c0,0.297 0.11,0.421 0.373,0.421c0.31,0 0.372,0.125 0.372,0.746c0,0.614 0.064,0.745 0.362,0.745c0.281,0 0.374,0.151 0.419,0.68c0.038,0.445 0.187,0.752 0.428,0.886c0.204,0.113 0.481,0.352 0.617,0.532c0.59,0.781 1.343,0.127 1.343,-1.166c0,-0.713 0.073,-0.929 0.34,-1.014c0.264,-0.084 0.348,-0.325 0.379,-1.085c0.029,-0.731 0.131,-1.041 0.406,-1.232c0.563,-0.393 0.558,-3.752 -0.006,-3.752c-0.304,0 -0.373,-0.125 -0.373,-0.67c0,-0.513 -0.087,-0.693 -0.373,-0.768c-0.205,-0.053 -0.383,-0.255 -0.396,-0.449c-0.012,-0.192 -0.044,-0.434 -0.07,-0.537c-0.025,-0.102 -0.057,-0.27 -0.07,-0.373c-0.012,-0.102 -0.191,-0.186 -0.396,-0.186c-0.263,0 -0.373,-0.125 -0.373,-0.421c0,-0.232 -0.156,-0.519 -0.346,-0.638c-0.191,-0.119 -0.398,-0.475 -0.462,-0.79c-0.068,-0.341 -0.23,-0.575 -0.399,-0.575c-0.16,0 -0.284,-0.163 -0.284,-0.372c0,-0.249 -0.124,-0.373 -0.373,-0.373c-0.336,0 -0.489,-0.38 -0.395,-0.979c0.013,-0.077 -0.067,-0.14 -0.175,-0.14c-0.109,0 -0.146,-0.084 -0.082,-0.186c0.063,-0.103 -0.016,-0.187 -0.176,-0.187c-0.159,0 -0.29,-0.121 -0.29,-0.269c0,-0.148 -0.153,-0.378 -0.339,-0.512c-0.186,-0.134 -0.393,-0.391 -0.46,-0.57c-0.067,-0.18 -0.292,-0.326 -0.5,-0.326c-0.255,0 -0.379,-0.123 -0.379,-0.373c0,-0.249 -0.125,-0.373 -0.373,-0.373c-0.248,0 -0.373,-0.125 -0.373,-0.373c0,-0.248 -0.124,-0.373 -0.373,-0.373c-0.248,0 -0.372,-0.124 -0.372,-0.373c0,-0.248 -0.125,-0.372 -0.373,-0.372c-0.249,0 -0.373,-0.125 -0.373,-0.373c0,-0.254 -0.125,-0.373 -0.39,-0.373c-0.234,0 -0.43,-0.15 -0.489,-0.374c-0.069,-0.264 -0.311,-0.409 -0.821,-0.49c-0.44,-0.071 -0.724,-0.218 -0.724,-0.376c0,-0.143 -0.214,-0.342 -0.477,-0.442c-0.262,-0.1 -0.425,-0.266 -0.361,-0.368c0.063,-0.103 0.026,-0.197 -0.083,-0.21c-0.108,-0.013 -0.281,-0.045 -0.384,-0.07c-0.102,-0.026 -0.344,-0.057 -0.537,-0.07c-0.193,-0.013 -0.395,-0.191 -0.449,-0.396c-0.075,-0.288 -0.254,-0.373 -0.785,-0.373c-0.53,0 -0.709,-0.085 -0.784,-0.373c-0.084,-0.32 -0.255,-0.373 -1.195,-0.373c-0.966,0 -1.096,-0.044 -1.096,-0.366c0,-0.339 -0.154,-0.371 -2.004,-0.42c-1.777,-0.047 -2.002,-0.09 -1.978,-0.379c0.014,-0.179 -0.112,-0.338 -0.28,-0.353c-0.666,-0.058 -5.192,-0.063 -5.489,-0.006m50.114,0.171c-0.258,0.136 -0.47,0.328 -0.47,0.427c0,0.103 -0.71,0.18 -1.649,0.18c-1.412,0 -1.697,0.054 -1.986,0.373c-0.238,0.264 -0.574,0.373 -1.147,0.373c-0.686,0 -0.81,0.057 -0.81,0.373c0,0.312 -0.125,0.373 -0.763,0.373c-0.606,0 -0.784,0.076 -0.861,0.373c-0.074,0.282 -0.254,0.372 -0.746,0.372c-0.491,0 -0.671,0.091 -0.745,0.373c-0.062,0.237 -0.255,0.373 -0.527,0.373c-0.609,0 -1.019,0.187 -1.019,0.464c0,0.131 -0.167,0.282 -0.373,0.336c-0.223,0.058 -0.372,0.254 -0.372,0.488c0,0.292 -0.118,0.39 -0.466,0.39c-0.342,0 -0.466,0.099 -0.466,0.373c0,0.24 -0.125,0.373 -0.351,0.373c-0.529,0 -3.378,2.927 -3.378,3.471c0,0.349 -0.1,0.443 -0.466,0.443c-0.332,0 -0.466,0.101 -0.466,0.351c0,0.195 -0.166,0.395 -0.373,0.449c-0.252,0.066 -0.373,0.255 -0.373,0.581c0,0.266 -0.063,0.474 -0.139,0.462c-0.369,-0.059 -0.485,0.045 -0.234,0.208c0.24,0.154 0.233,0.181 -0.046,0.184c-0.201,0.001 -0.326,0.145 -0.326,0.375c0,0.249 -0.125,0.373 -0.373,0.373c-0.274,0 -0.373,0.125 -0.373,0.466c0,0.256 -0.168,0.634 -0.373,0.839c-0.205,0.205 -0.373,0.541 -0.373,0.746c0,0.333 -0.194,0.46 -0.606,0.394c-0.076,-0.012 -0.13,0.041 -0.117,0.118c0.116,0.733 -0.056,1.352 -0.375,1.352c-0.392,0 -0.579,0.346 -0.579,1.067c0,0.262 -0.147,0.591 -0.327,0.73c-0.304,0.237 -0.3,0.247 0.047,0.145c0.349,-0.101 0.352,-0.091 0.046,0.16c-0.4,0.33 -0.418,0.619 -0.046,0.762c0.197,0.075 0.28,0.381 0.28,1.03c0,1.162 0.134,1.512 0.579,1.512c0.312,0 0.353,0.148 0.353,1.282c0,1.206 0.281,1.917 0.623,1.575c0.067,-0.068 0.122,0.049 0.122,0.258c0,0.956 1.238,0.998 1.427,0.049c0.06,-0.294 0.266,-0.678 0.459,-0.853c0.193,-0.175 0.351,-0.464 0.351,-0.642c0,-0.179 0.122,-0.371 0.27,-0.428c0.149,-0.057 0.361,-0.442 0.473,-0.856c0.111,-0.414 0.303,-0.734 0.427,-0.709c0.13,0.026 0.263,-0.251 0.319,-0.661c0.053,-0.388 0.159,-0.702 0.236,-0.699c0.077,0.003 0.218,0.006 0.315,0.006c0.096,0 0.201,-0.314 0.233,-0.699c0.046,-0.561 0.14,-0.711 0.477,-0.759c0.309,-0.043 0.419,-0.184 0.419,-0.532c0,-0.333 0.079,-0.443 0.266,-0.371c0.191,0.073 0.299,-0.102 0.387,-0.625c0.082,-0.484 0.243,-0.764 0.481,-0.84c0.197,-0.062 0.358,-0.228 0.358,-0.368c0,-0.14 0.159,-0.305 0.353,-0.367c0.224,-0.071 0.4,-0.362 0.481,-0.792c0.089,-0.475 0.175,-0.603 0.284,-0.426c0.11,0.177 0.196,0.046 0.286,-0.432c0.094,-0.503 0.223,-0.686 0.481,-0.686c0.227,0 0.352,-0.132 0.352,-0.373c0,-0.25 0.124,-0.373 0.377,-0.373c0.232,0 0.446,-0.181 0.555,-0.467c0.098,-0.258 0.255,-0.446 0.35,-0.42c0.095,0.027 0.187,-0.036 0.206,-0.138c0.06,-0.319 0.411,-0.653 0.578,-0.55c0.088,0.054 0.213,-0.114 0.279,-0.375c0.075,-0.298 0.249,-0.473 0.471,-0.473c0.229,0 0.353,-0.132 0.353,-0.373c0,-0.249 0.124,-0.373 0.373,-0.373c0.248,0 0.373,-0.124 0.373,-0.373c0,-0.338 0.57,-0.508 1.34,-0.398c0.07,0.009 0.181,-0.149 0.246,-0.351c0.064,-0.203 0.245,-0.369 0.401,-0.369c0.157,0 0.328,-0.168 0.382,-0.373c0.074,-0.283 0.255,-0.373 0.746,-0.373c0.491,0 0.671,-0.091 0.745,-0.373c0.061,-0.229 0.269,-0.383 0.542,-0.401c0.245,-0.015 0.549,-0.036 0.678,-0.046c0.128,-0.011 0.278,-0.187 0.333,-0.392c0.084,-0.308 0.303,-0.389 1.262,-0.466c0.638,-0.051 1.159,-0.156 1.158,-0.233c-0.002,-0.077 -0.004,-0.224 -0.004,-0.326c0,-0.411 8.529,-0.234 8.948,0.186c0.253,0.252 0.645,0.381 1.212,0.396c1.146,0.032 1.161,0.036 1.436,0.331c0.203,0.218 0.182,0.241 -0.131,0.139c-0.367,-0.119 -0.367,-0.117 -0.011,0.159c0.199,0.154 0.672,0.28 1.05,0.28c0.532,0 0.711,0.085 0.786,0.373c0.054,0.205 0.231,0.373 0.395,0.373c0.163,0 0.465,0.168 0.67,0.373c0.205,0.205 0.582,0.373 0.839,0.373c0.336,0 0.466,0.1 0.466,0.359c0,0.231 0.151,0.383 0.419,0.424c0.231,0.035 0.398,0.167 0.373,0.293c-0.026,0.126 0.037,0.239 0.14,0.252c0.102,0.013 0.249,0.034 0.326,0.046c0.077,0.013 0.328,0.212 0.559,0.443c0.231,0.231 0.587,0.42 0.792,0.42c0.269,0 0.373,0.124 0.373,0.446c0,0.245 0.13,0.496 0.288,0.557c0.159,0.06 0.411,0.405 0.562,0.765c0.15,0.36 0.398,0.655 0.551,0.655c0.153,0 0.277,0.167 0.277,0.373c0,0.258 0.124,0.373 0.405,0.373c0.222,0 0.565,0.146 0.763,0.324c0.34,0.308 0.37,0.306 0.62,-0.036c0.335,-0.459 0.341,-1.523 0.01,-1.651c-0.14,-0.053 -0.308,-0.439 -0.376,-0.857c-0.066,-0.419 -0.183,-0.752 -0.259,-0.74c-0.411,0.064 -0.604,-0.063 -0.604,-0.396c0,-0.205 -0.155,-0.528 -0.346,-0.718c-0.19,-0.191 -0.401,-0.568 -0.469,-0.839c-0.068,-0.272 -0.248,-0.493 -0.4,-0.493c-0.152,0 -0.276,-0.168 -0.276,-0.373c0,-0.249 -0.124,-0.373 -0.373,-0.373c-0.248,0 -0.373,-0.125 -0.373,-0.373c0,-0.248 -0.124,-0.373 -0.373,-0.373c-0.248,0 -0.372,-0.124 -0.372,-0.373c0,-0.248 -0.125,-0.372 -0.373,-0.372c-0.334,0 -0.46,-0.194 -0.395,-0.606c0.012,-0.077 -0.188,-0.14 -0.444,-0.14c-0.344,0 -0.466,-0.099 -0.466,-0.378c0,-0.231 -0.181,-0.446 -0.466,-0.554c-0.257,-0.098 -0.466,-0.305 -0.466,-0.462c0,-0.2 -0.192,-0.284 -0.653,-0.284c-0.528,0 -0.652,-0.071 -0.652,-0.373c0,-0.286 -0.125,-0.373 -0.539,-0.373c-0.398,0 -0.532,-0.084 -0.513,-0.326c0.021,-0.255 -0.145,-0.339 -0.766,-0.383c-0.508,-0.037 -0.792,-0.147 -0.792,-0.307c0,-0.323 -0.417,-0.475 -1.308,-0.475c-0.538,0 -0.746,-0.088 -0.828,-0.349c-0.098,-0.307 -0.332,-0.353 -1.911,-0.383c-1.835,-0.034 -2.187,-0.102 -2.012,-0.386c0.307,-0.498 -5.243,-0.709 -6.148,-0.235m-60.633,13.273c-0.154,0.247 -0.479,0.38 -1.024,0.419c-0.617,0.045 -0.839,0.153 -0.981,0.477c-0.161,0.366 -0.642,0.536 -1.255,0.444c-0.074,-0.012 -0.224,0.146 -0.333,0.351c-0.109,0.204 -0.364,0.371 -0.565,0.371c-0.201,0 -0.356,0.062 -0.344,0.139c0.065,0.412 -0.061,0.606 -0.395,0.606c-0.241,0 -0.373,0.125 -0.373,0.351c0,0.194 -0.166,0.395 -0.373,0.449c-0.205,0.054 -0.373,0.231 -0.373,0.395c0,0.172 -0.156,0.297 -0.372,0.297c-0.269,0 -0.373,0.124 -0.373,0.444c0,0.282 -0.132,0.478 -0.361,0.538c-0.237,0.062 -0.404,0.325 -0.487,0.768c-0.087,0.465 -0.226,0.673 -0.448,0.673c-0.241,0 -0.328,0.17 -0.347,0.679c-0.027,0.723 -0.122,0.906 -0.47,0.906c-0.241,0 -0.254,0.063 -0.287,1.398c-0.02,0.8 -0.076,0.932 -0.397,0.932c-0.205,0 -0.363,0.063 -0.351,0.14c0.083,0.523 -0.046,3.999 -0.144,3.9c-0.068,-0.067 -0.235,-0.029 -0.373,0.085c-0.294,0.245 -0.37,4.173 -0.077,3.992c0.096,-0.059 0.216,-0.039 0.267,0.044c0.082,0.132 -0.522,0.252 -1.372,0.272c-0.698,0.016 -0.733,0.252 -0.729,4.944c0.005,4.572 0.116,5.456 0.714,5.667c0.102,0.036 0.196,1.252 0.217,2.814c0.034,2.542 0.063,2.749 0.384,2.749c0.308,0 0.348,0.173 0.369,1.585c0.03,2.033 0.015,1.947 0.396,2.226c0.245,0.179 0.327,0.504 0.327,1.307c0,0.904 0.056,1.083 0.364,1.164c0.297,0.078 0.374,0.287 0.419,1.148c0.034,0.646 0.139,1.052 0.273,1.052c0.338,0 0.414,0.148 0.464,0.892c0.032,0.466 0.153,0.726 0.371,0.795c0.215,0.068 0.343,0.335 0.381,0.793c0.046,0.552 0.142,0.702 0.477,0.749c0.354,0.05 0.42,0.174 0.42,0.792c0,0.609 0.063,0.733 0.373,0.733c0.275,0 0.372,0.124 0.372,0.474c0,0.345 0.088,0.46 0.32,0.42c0.194,-0.034 0.349,0.088 0.393,0.307c0.041,0.2 0.27,0.516 0.509,0.704c0.239,0.188 0.488,0.511 0.554,0.717c0.069,0.221 0.343,0.421 0.663,0.485c0.369,0.074 0.544,0.221 0.544,0.458c0,0.249 0.135,0.35 0.466,0.35c0.342,0 0.466,0.099 0.466,0.373c0,0.311 0.125,0.373 0.746,0.373c0.616,0 0.746,0.063 0.746,0.364c0,0.271 0.172,0.397 0.678,0.492c0.372,0.07 0.839,0.288 1.036,0.485c0.515,0.515 7.676,0.444 8.06,-0.08c0.209,-0.286 0.674,-0.459 1.352,-0.502c0.121,-0.008 0.273,-0.182 0.338,-0.387c0.066,-0.205 0.281,-0.372 0.479,-0.372c0.236,0 0.36,-0.129 0.36,-0.373c0,-0.249 0.125,-0.373 0.373,-0.373c0.29,0 0.373,-0.125 0.373,-0.555c0,-0.387 0.142,-0.648 0.466,-0.861c0.365,-0.239 0.466,-0.462 0.466,-1.029c0,-0.532 0.077,-0.724 0.291,-0.724c0.16,0 0.242,-0.079 0.183,-0.174c-0.059,-0.095 -0.022,-0.226 0.082,-0.29c0.469,-0.29 0.186,-5.502 -0.298,-5.502c-0.188,0 -0.258,-0.275 -0.258,-1.013c0,-1.199 -0.254,-1.969 -0.648,-1.969c-0.212,0 -0.284,-0.212 -0.284,-0.839c0,-0.715 -0.056,-0.839 -0.373,-0.839c-0.247,0 -0.373,-0.125 -0.373,-0.369c0,-0.239 -0.165,-0.411 -0.465,-0.487c-1.007,-0.252 -1.026,-0.189 -1.026,3.531c0,3.383 -0.006,3.435 -0.412,3.54c-0.226,0.06 -0.354,0.165 -0.286,0.234c0.18,0.179 -0.218,0.853 -0.428,0.723c-0.096,-0.059 -0.124,0.026 -0.061,0.19c0.063,0.163 0.041,0.283 -0.049,0.267c-0.599,-0.11 -1.001,0.045 -1.001,0.387c0,0.571 -3.074,0.571 -3.223,0c-0.071,-0.271 -0.255,-0.373 -0.673,-0.373c-0.373,0 -0.657,-0.131 -0.808,-0.373c-0.128,-0.205 -0.38,-0.373 -0.561,-0.373c-0.203,0 -0.328,-0.141 -0.328,-0.373c0,-0.248 -0.124,-0.372 -0.373,-0.372c-0.248,0 -0.372,-0.125 -0.372,-0.373c0,-0.249 -0.125,-0.373 -0.373,-0.373c-0.249,0 -0.373,-0.124 -0.373,-0.373c0,-0.248 -0.125,-0.373 -0.373,-0.373c-0.217,0 -0.373,-0.124 -0.373,-0.296c0,-0.163 -0.167,-0.436 -0.371,-0.606c-0.314,-0.262 -0.477,-0.672 -0.547,-1.381c-0.008,-0.077 -0.182,-0.14 -0.387,-0.14c-0.235,0 -0.373,-0.125 -0.373,-0.336c0,-0.184 -0.104,-0.448 -0.233,-0.586c-0.186,-0.201 -0.186,-0.225 0,-0.12c0.129,0.072 0.233,0.035 0.233,-0.083c0,-0.118 -0.167,-0.259 -0.372,-0.312c-0.205,-0.054 -0.373,-0.218 -0.373,-0.364c0,-0.146 -0.168,-0.446 -0.373,-0.666c-0.205,-0.219 -0.373,-0.637 -0.373,-0.926c0,-0.295 -0.163,-0.666 -0.373,-0.845c-0.232,-0.198 -0.373,-0.55 -0.373,-0.93c0,-0.336 -0.089,-0.611 -0.197,-0.611c-0.109,0 -0.146,-0.084 -0.082,-0.187c0.063,-0.102 -0.016,-0.186 -0.175,-0.186c-0.194,0 -0.299,-0.187 -0.315,-0.559c-0.021,-0.527 -0.054,-0.74 -0.161,-1.072c-0.025,-0.077 -0.035,-0.205 -0.022,-0.285c0.013,-0.08 -0.103,-0.194 -0.257,-0.253c-0.182,-0.069 -0.282,-0.355 -0.282,-0.801c0,-0.499 -0.131,-0.817 -0.466,-1.131c-0.403,-0.379 -0.466,-0.599 -0.466,-1.635c0,-1.039 -0.049,-1.209 -0.373,-1.294c-0.333,-0.087 -0.373,-0.254 -0.373,-1.567c0,-1.345 -0.031,-1.47 -0.373,-1.47c-0.346,0 -0.372,-0.124 -0.372,-1.769l0,-1.77l0.466,0.405c0.406,0.353 0.466,0.558 0.466,1.601c0,1.038 0.049,1.208 0.373,1.293c0.321,0.084 0.372,0.254 0.372,1.242c0,0.944 0.066,1.187 0.373,1.378c0.285,0.178 0.373,0.435 0.373,1.088c0,0.698 0.069,0.873 0.373,0.952c0.28,0.073 0.373,0.255 0.373,0.729c0,0.382 0.147,0.777 0.373,1.003c0.207,0.207 0.372,0.621 0.372,0.932c0,0.435 0.083,0.56 0.373,0.56c0.267,0 0.38,0.131 0.396,0.466c0.013,0.256 0.034,0.57 0.047,0.699c0.013,0.128 0.212,0.26 0.443,0.292c0.352,0.05 0.419,0.175 0.419,0.78c0,0.556 0.085,0.747 0.373,0.838c0.205,0.066 0.373,0.281 0.373,0.479c0,0.198 0.063,0.351 0.14,0.338c0.469,-0.074 0.606,0.082 0.606,0.692c0,0.513 0.087,0.693 0.372,0.768c0.205,0.053 0.373,0.207 0.373,0.343c0,0.134 0.168,0.298 0.373,0.363c0.205,0.065 0.373,0.281 0.373,0.479c0,0.229 0.128,0.36 0.351,0.36c0.194,0 0.489,0.21 0.657,0.466c0.208,0.317 0.476,0.466 0.839,0.466c0.376,0 0.561,0.11 0.63,0.373c0.089,0.339 0.255,0.373 1.811,0.373c1.555,0 1.721,-0.034 1.81,-0.373c0.054,-0.206 0.254,-0.373 0.449,-0.373c0.29,0 0.35,-0.141 0.35,-0.817c0,-0.66 0.072,-0.836 0.373,-0.915c0.311,-0.081 0.373,-0.254 0.373,-1.034c0,-0.773 -0.065,-0.958 -0.373,-1.055c-0.338,-0.108 -0.373,-0.282 -0.373,-1.854c0,-1.521 -0.045,-1.768 -0.369,-1.992c-0.307,-0.212 -0.375,-0.491 -0.4,-1.631c-0.025,-1.17 -0.082,-1.39 -0.376,-1.467c-0.302,-0.079 -0.346,-0.287 -0.346,-1.625c0,-1.297 -0.057,-1.586 -0.373,-1.871c-0.348,-0.315 -0.373,-0.574 -0.373,-3.961c0,-3.467 0.017,-3.628 0.373,-3.721c0.28,-0.073 0.373,-0.255 0.373,-0.729c0,-0.498 0.075,-0.63 0.36,-0.63c0.231,0 0.381,-0.15 0.419,-0.42c0.073,-0.507 2.39,-0.775 2.39,-0.276c0,0.14 0.31,0.401 0.688,0.582c0.534,0.254 0.628,0.366 0.42,0.497c-0.225,0.143 -0.219,0.171 0.037,0.173c0.169,0.002 0.358,0.21 0.423,0.468c0.064,0.255 0.178,0.455 0.253,0.444c0.565,-0.087 0.603,0.065 0.603,2.426c0,2.161 -0.032,2.4 -0.322,2.377c-0.177,-0.015 -0.325,0.058 -0.329,0.16c-0.004,0.103 -0.073,0.289 -0.152,0.414c-0.154,0.242 -0.151,1.422 0.005,2.429c0.067,0.437 0.192,0.606 0.446,0.606c0.316,0 0.352,0.154 0.352,1.509c0,1.352 0.038,1.519 0.373,1.606c0.234,0.062 0.372,0.254 0.372,0.521c0,0.289 0.104,0.415 0.327,0.398c0.206,-0.017 0.348,0.128 0.385,0.393c0.039,0.27 0.189,0.42 0.42,0.42c0.235,0 0.36,0.128 0.36,0.373c0,0.306 0.125,0.373 0.699,0.375c0.473,0.002 0.615,0.056 0.441,0.167c-0.314,0.198 0.275,0.576 0.898,0.576c0.212,0 0.553,0.168 0.758,0.373c0.248,0.248 0.621,0.373 1.119,0.373c0.621,0 0.745,0.062 0.745,0.373c0,0.309 0.125,0.373 0.724,0.373c0.576,0 0.745,0.079 0.825,0.386c0.056,0.213 0.275,0.432 0.488,0.488c0.347,0.091 0.387,0.242 0.387,1.456c0,1.198 0.043,1.366 0.372,1.452c0.329,0.086 0.373,0.254 0.373,1.405c0,1.471 0.109,1.897 0.486,1.897c0.199,0 0.26,0.323 0.26,1.372c0,1.091 0.076,1.471 0.373,1.847c0.291,0.37 0.373,0.757 0.373,1.761c0,0.893 0.09,1.397 0.293,1.649c0.162,0.199 0.232,0.243 0.158,0.099c-0.09,-0.172 -0.062,-0.216 0.079,-0.128c0.118,0.073 0.215,0.505 0.215,0.961c0,0.455 0.084,0.827 0.187,0.827c0.102,0 0.186,0.126 0.186,0.28c0,0.154 0.079,0.28 0.174,0.28c0.096,0 0.201,0.23 0.233,0.512c0.042,0.368 0.179,0.53 0.479,0.573c0.353,0.05 0.419,0.174 0.419,0.792c0,0.608 0.064,0.733 0.373,0.733c0.311,0 0.373,0.124 0.373,0.745c0,0.621 0.062,0.746 0.373,0.746c0.273,0 0.373,0.124 0.373,0.466c0,0.256 0.167,0.634 0.372,0.839c0.205,0.205 0.373,0.54 0.373,0.746c0,0.248 0.125,0.372 0.373,0.372c0.354,0 0.456,0.303 0.424,1.253c-0.005,0.125 0.15,0.277 0.343,0.339c0.283,0.089 0.356,0.308 0.375,1.124c0.013,0.557 0.044,1.097 0.07,1.199c0.025,0.103 0.057,0.312 0.07,0.466c0.013,0.154 0.191,0.28 0.396,0.28c0.332,0 0.594,2.511 0.395,3.775c-0.013,0.077 0.145,0.14 0.35,0.14c0.342,0 0.373,0.124 0.373,1.469c0,1.313 0.04,1.48 0.373,1.567c0.223,0.059 0.373,0.255 0.373,0.488c0,0.258 0.119,0.39 0.351,0.39c0.194,0 0.395,0.167 0.449,0.373c0.059,0.226 0.254,0.373 0.495,0.373c0.219,0 0.627,0.17 0.908,0.377c0.677,0.501 8.516,0.497 8.516,-0.004c0,-0.196 0.238,-0.297 0.792,-0.337c0.622,-0.045 0.793,-0.13 0.793,-0.398c0,-0.187 0.167,-0.384 0.373,-0.438c0.302,-0.079 0.372,-0.254 0.372,-0.933c0,-0.681 0.06,-0.831 0.327,-0.81c0.204,0.017 0.316,-0.095 0.3,-0.3c-0.014,-0.179 0.049,-0.326 0.14,-0.326c0.091,0 0.165,-0.667 0.165,-1.482c0,-1.15 0.066,-1.519 0.292,-1.645c0.366,-0.205 0.422,-0.514 0.44,-2.398c0.012,-1.326 0.055,-1.514 0.34,-1.492c0.347,0.028 0.365,-0.036 0.398,-1.418c0.019,-0.755 0.077,-0.886 0.395,-0.886c0.248,0 0.373,-0.124 0.373,-0.373c0,-0.205 0.167,-0.54 0.372,-0.745c0.205,-0.206 0.373,-0.574 0.373,-0.819c0,-0.309 0.099,-0.437 0.326,-0.419c0.245,0.019 0.341,-0.139 0.382,-0.633c0.04,-0.468 0.174,-0.711 0.466,-0.839c0.253,-0.111 0.434,-0.38 0.47,-0.699c0.033,-0.286 0.222,-0.62 0.42,-0.744c0.198,-0.123 0.36,-0.372 0.36,-0.553c0,-0.18 0.117,-0.328 0.259,-0.328c0.329,0 0.486,-0.407 0.486,-1.258c0,-0.367 0.055,-0.613 0.123,-0.545c0.339,0.339 0.623,-0.368 0.623,-1.553c0,-1.117 0.044,-1.272 0.384,-1.361c0.212,-0.056 0.37,-0.212 0.351,-0.348c-0.167,-1.235 0.035,-2.728 0.384,-2.819c0.331,-0.086 0.372,-0.254 0.372,-1.504c0,-1.253 0.052,-1.459 0.466,-1.873c0.42,-0.42 0.466,-0.615 0.466,-1.966c0,-1.158 0.06,-1.5 0.26,-1.5c0.325,0 0.486,-0.406 0.486,-1.227c0,-0.41 0.083,-0.62 0.233,-0.591c0.13,0.027 0.209,-0.097 0.178,-0.279c-0.045,-0.27 0.088,-0.326 0.771,-0.326c0.668,0 0.844,-0.071 0.923,-0.373c0.078,-0.298 0.254,-0.373 0.878,-0.373c0.623,0 0.8,-0.075 0.878,-0.373c0.076,-0.292 0.254,-0.373 0.822,-0.373c0.599,0 0.723,-0.064 0.723,-0.373c0,-0.255 0.132,-0.379 0.42,-0.394c0.877,-0.045 0.977,-0.078 0.931,-0.308c-0.027,-0.13 0.162,-0.332 0.419,-0.45c0.257,-0.117 0.467,-0.357 0.467,-0.534c0,-0.176 0.159,-0.362 0.354,-0.413c0.215,-0.057 0.406,-0.335 0.49,-0.718c0.075,-0.344 0.273,-0.725 0.439,-0.847c0.656,-0.479 0.457,-9.004 -0.211,-9.011c-0.332,-0.003 -0.122,-0.895 0.233,-0.987c0.252,-0.066 0.373,-0.255 0.373,-0.58c0,-0.28 0.156,-0.579 0.373,-0.715c0.205,-0.128 0.373,-0.38 0.373,-0.56c0,-0.204 0.141,-0.328 0.373,-0.328c0.273,0 0.372,-0.125 0.372,-0.466c0,-0.45 0.044,-0.466 1.212,-0.466c1.087,0 1.212,0.038 1.212,0.372c0,0.205 0.09,0.373 0.201,0.373c0.526,0 1.29,1.095 1.29,1.85c0,0.418 0.089,0.76 0.198,0.76c0.108,0 0.145,0.085 0.081,0.188c-0.064,0.103 0.015,0.238 0.176,0.3c0.47,0.18 0.419,3.44 -0.061,3.874c-0.301,0.273 -0.357,0.618 -0.381,2.367c-0.024,1.763 -0.079,2.099 -0.393,2.413c-0.275,0.275 -0.365,0.621 -0.365,1.391c0,0.777 -0.091,1.116 -0.373,1.398c-0.301,0.301 -0.373,0.621 -0.373,1.667c0,0.777 -0.086,1.347 -0.215,1.427c-0.133,0.082 -0.165,0.051 -0.084,-0.081c0.085,-0.137 0.03,-0.173 -0.157,-0.102c-0.495,0.19 -0.421,5.115 0.083,5.571c0.205,0.186 0.373,0.453 0.373,0.593c0,0.383 0.815,0.619 2.133,0.619c1.528,0 2.341,-0.17 2.341,-0.49c0,-0.14 0.128,-0.256 0.284,-0.256c0.155,0 0.379,-0.21 0.496,-0.466c0.116,-0.256 0.359,-0.466 0.539,-0.466c0.507,0 0.918,-0.203 0.918,-0.453c0,-0.125 0.21,-0.425 0.466,-0.665c0.256,-0.241 0.466,-0.591 0.466,-0.779c0,-0.216 0.136,-0.34 0.373,-0.34c0.221,0 0.373,-0.124 0.373,-0.305c0,-0.168 0.21,-0.499 0.466,-0.737c0.262,-0.242 0.466,-0.639 0.466,-0.907c0,-0.35 0.097,-0.474 0.373,-0.474c0.292,0 0.373,-0.125 0.373,-0.571c0,-0.314 0.078,-0.522 0.173,-0.463c0.096,0.059 0.226,0.022 0.291,-0.082c0.064,-0.104 0.012,-0.189 -0.116,-0.189c-0.151,0 -0.128,-0.082 0.066,-0.233c0.165,-0.129 0.329,-0.401 0.365,-0.606c0.035,-0.205 0.138,-0.345 0.228,-0.311c0.244,0.094 0.478,-0.369 0.481,-0.956c0.002,-0.286 0.171,-0.7 0.376,-0.92c0.237,-0.255 0.373,-0.658 0.373,-1.111c0,-0.651 0.129,-0.808 0.605,-0.732c0.077,0.012 0.14,-0.462 0.14,-1.053c0,-0.935 0.054,-1.098 0.42,-1.258c0.353,-0.155 0.428,-0.352 0.475,-1.256c0.04,-0.759 0.131,-1.072 0.313,-1.072c0.141,0 0.297,-0.147 0.347,-0.326c0.049,-0.179 0.087,0.443 0.083,1.383c-0.007,1.462 -0.05,1.693 -0.296,1.599c-0.214,-0.082 -0.256,-0.028 -0.164,0.211c0.073,0.191 0.048,0.276 -0.062,0.208c-0.114,-0.071 -0.184,0.375 -0.184,1.18c0,1.143 -0.043,1.306 -0.378,1.393c-0.208,0.055 -0.365,0.169 -0.35,0.255c0.151,0.857 -0.053,1.913 -0.39,2.02c-0.318,0.101 -0.373,0.282 -0.373,1.224c0,0.993 -0.04,1.106 -0.384,1.106c-0.211,0 -0.336,0.079 -0.276,0.174c0.058,0.095 0.022,0.226 -0.082,0.29c-0.105,0.065 -0.19,0.405 -0.19,0.757c0,0.438 -0.117,0.714 -0.373,0.873c-0.275,0.172 -0.373,0.435 -0.373,1.006c0,0.623 -0.064,0.769 -0.326,0.748c-0.255,-0.021 -0.339,0.145 -0.384,0.766c-0.045,0.623 -0.13,0.792 -0.398,0.792c-0.243,0 -0.377,0.189 -0.464,0.653c-0.067,0.359 -0.208,0.652 -0.311,0.652c-0.104,0 -0.13,-0.097 -0.056,-0.215c0.082,-0.133 0.051,-0.164 -0.082,-0.082c-0.119,0.073 -0.216,0.38 -0.216,0.681c0,0.489 -0.161,0.641 -0.606,0.57c-0.077,-0.012 -0.139,0.188 -0.139,0.445c0,0.341 -0.1,0.466 -0.373,0.466c-0.251,0 -0.373,0.124 -0.373,0.381c0,0.21 -0.21,0.591 -0.466,0.847c-0.256,0.256 -0.466,0.588 -0.466,0.737c0,0.15 -0.135,0.272 -0.299,0.272c-0.165,0 -0.55,0.21 -0.855,0.467c-0.306,0.257 -0.638,0.416 -0.739,0.354c-0.101,-0.062 -0.229,0.063 -0.286,0.279c-0.074,0.283 -0.25,0.391 -0.639,0.391c-0.296,0 -0.538,0.089 -0.538,0.198c0,0.108 -0.084,0.145 -0.186,0.082c-0.103,-0.064 -0.187,0.015 -0.187,0.175c0,0.485 -2.344,0.413 -2.609,-0.08c-0.109,-0.204 -0.259,-0.362 -0.332,-0.351c-0.686,0.103 -1.16,-0.058 -1.16,-0.397c0,-0.248 -0.124,-0.373 -0.373,-0.373c-0.306,0 -0.373,-0.124 -0.373,-0.701c0,-0.498 -0.107,-0.767 -0.372,-0.933c-0.475,-0.297 -0.581,-3.772 -0.115,-3.772c0.406,0 0.653,-1.403 0.374,-2.128c-0.12,-0.315 -1.378,-0.432 -1.378,-0.129c0,0.09 -0.143,0.153 -0.318,0.139c-0.239,-0.019 -0.332,0.15 -0.377,0.686c-0.032,0.391 -0.225,0.889 -0.428,1.107c-0.244,0.262 -0.368,0.656 -0.368,1.17c0,0.541 -0.114,0.878 -0.377,1.116c-0.502,0.454 -0.498,8.013 0.004,8.013c0.196,0 0.297,0.237 0.337,0.792c0.046,0.64 0.127,0.792 0.419,0.792c0.238,0 0.362,0.128 0.362,0.373c0,0.241 0.125,0.373 0.351,0.373c0.195,0 0.395,0.166 0.449,0.373c0.054,0.205 0.231,0.373 0.395,0.373c0.172,0 0.297,0.156 0.297,0.372c0,0.205 0.105,0.383 0.233,0.395c0.128,0.012 0.317,0.041 0.419,0.064c0.103,0.024 0.375,0.057 0.606,0.072c0.234,0.016 0.42,0.151 0.42,0.305c0,0.611 7.64,0.678 8.083,0.071c0.123,-0.168 0.556,-0.354 0.964,-0.413c0.406,-0.059 0.761,-0.11 0.786,-0.114c0.026,-0.004 0.047,-0.175 0.047,-0.38c0,-0.309 0.124,-0.372 0.724,-0.372c0.567,0 0.745,-0.081 0.821,-0.373c0.054,-0.205 0.226,-0.373 0.382,-0.373c0.157,0 0.338,-0.168 0.403,-0.373c0.065,-0.205 0.281,-0.373 0.479,-0.373c0.236,0 0.36,-0.128 0.36,-0.373c0,-0.244 0.124,-0.373 0.36,-0.373c0.231,0 0.381,-0.15 0.419,-0.419c0.033,-0.231 0.185,-0.419 0.338,-0.419c0.152,0 0.32,-0.21 0.372,-0.466c0.053,-0.257 0.221,-0.466 0.375,-0.466c0.154,0 0.268,-0.147 0.254,-0.327c-0.014,-0.179 0.049,-0.326 0.139,-0.326c0.092,0 0.166,-0.162 0.166,-0.36c0,-0.201 0.171,-0.415 0.387,-0.483c0.24,-0.076 0.347,-0.226 0.281,-0.396c-0.058,-0.152 0.101,-0.479 0.36,-0.737c0.309,-0.309 0.464,-0.672 0.464,-1.087c0,-0.465 0.094,-0.646 0.373,-0.719c0.294,-0.077 0.372,-0.255 0.372,-0.839c0,-0.585 0.079,-0.762 0.373,-0.839c0.32,-0.084 0.373,-0.255 0.373,-1.212c0,-0.957 0.053,-1.128 0.373,-1.212c0.331,-0.086 0.373,-0.254 0.373,-1.513c0,-1.147 0.054,-1.415 0.285,-1.415c0.422,0 0.571,-0.59 0.625,-2.478c0.038,-1.314 0.127,-1.791 0.395,-2.132c0.308,-0.391 0.347,-0.835 0.365,-4.072c0.017,-3.296 0.051,-3.666 0.37,-3.985c0.405,-0.405 0.575,-5.416 0.183,-5.416c-0.107,0 -0.149,-0.075 -0.092,-0.165c0.129,-0.209 -0.526,-0.388 -1.432,-0.392l-0.699,-0.002l0,-3.52c0,-3.381 -0.015,-3.525 -0.378,-3.62c-0.208,-0.054 -0.366,-0.169 -0.351,-0.255c0.175,-0.995 -0.053,-2.53 -0.39,-2.618c-0.282,-0.074 -0.373,-0.254 -0.373,-0.746c0,-0.491 -0.09,-0.671 -0.372,-0.745c-0.293,-0.077 -0.373,-0.255 -0.373,-0.822c0,-0.599 -0.064,-0.724 -0.373,-0.724c-0.232,0 -0.373,-0.124 -0.373,-0.328c0,-0.18 -0.16,-0.428 -0.356,-0.55c-0.196,-0.122 -0.411,-0.474 -0.479,-0.782c-0.068,-0.31 -0.279,-0.609 -0.473,-0.671c-0.193,-0.061 -0.402,-0.275 -0.466,-0.474c-0.099,-0.312 -0.402,-0.45 -0.86,-0.393c-0.065,0.008 -0.107,-0.129 -0.094,-0.304c0.018,-0.23 -0.144,-0.336 -0.581,-0.378c-0.455,-0.043 -0.606,-0.148 -0.606,-0.419c0,-0.251 -0.129,-0.361 -0.421,-0.361c-0.232,0 -0.528,-0.171 -0.659,-0.38c-0.13,-0.209 -0.312,-0.334 -0.404,-0.277c-0.092,0.057 -0.221,0.018 -0.285,-0.086c-0.064,-0.104 -0.396,-0.189 -0.737,-0.189c-0.456,0 -0.644,-0.095 -0.714,-0.362c-0.151,-0.578 -9.731,-0.594 -9.882,-0.016c-0.079,0.301 -0.252,0.378 -0.851,0.378c-0.414,0 -0.805,0.085 -0.869,0.189c-0.064,0.104 -0.189,0.145 -0.277,0.091c-0.088,-0.055 -0.214,0.07 -0.279,0.276c-0.09,0.283 -0.282,0.376 -0.777,0.376c-0.5,0 -0.681,0.089 -0.755,0.373c-0.063,0.241 -0.254,0.373 -0.542,0.373c-0.32,0 -0.444,0.104 -0.444,0.372c0,0.289 -0.124,0.373 -0.549,0.373c-0.316,0 -0.652,0.143 -0.792,0.339c-0.134,0.186 -0.39,0.393 -0.57,0.46c-0.179,0.067 -0.326,0.25 -0.326,0.407c0,0.258 -0.219,0.369 -0.606,0.307c-0.077,-0.012 -0.14,0.137 -0.14,0.33c0,0.194 -0.166,0.394 -0.373,0.448c-0.218,0.057 -0.372,0.255 -0.372,0.475c0,0.25 -0.143,0.398 -0.42,0.437c-0.231,0.033 -0.419,0.185 -0.419,0.339c0,0.154 -0.168,0.327 -0.373,0.386c-0.205,0.058 -0.361,0.247 -0.347,0.42c0.014,0.171 -0.088,0.313 -0.226,0.313c-0.306,0 -0.639,0.577 -0.639,1.106c0,0.261 -0.12,0.385 -0.373,0.385c-0.273,0 -0.373,0.125 -0.373,0.466c0,0.342 -0.099,0.466 -0.372,0.466c-0.311,0 -0.373,0.125 -0.373,0.746c0,0.621 -0.062,0.746 -0.373,0.746c-0.311,0 -0.373,0.124 -0.373,0.745c0,0.619 -0.063,0.746 -0.369,0.746c-0.236,0 -0.411,0.164 -0.483,0.452c-0.062,0.249 -0.274,0.597 -0.47,0.775c-0.243,0.22 -0.356,0.571 -0.356,1.11c0,0.632 -0.074,0.808 -0.373,0.886c-0.294,0.077 -0.372,0.255 -0.372,0.84c0,0.589 -0.067,0.737 -0.322,0.717c-0.335,-0.027 -0.363,0.043 -0.401,1.057c-0.012,0.339 -0.191,0.798 -0.396,1.018c-0.227,0.243 -0.373,0.657 -0.373,1.06c0,0.413 -0.14,0.8 -0.375,1.036c-0.39,0.389 -0.466,1.493 -0.099,1.429c0.107,-0.018 0.174,0.071 0.148,0.199c-0.029,0.145 0.165,0.233 0.513,0.233c0.435,0 0.559,0.083 0.559,0.373c0,0.248 0.124,0.373 0.373,0.373c0.248,0 0.373,0.124 0.373,0.373c0,0.248 0.124,0.373 0.372,0.373c0.345,0 0.373,0.124 0.373,1.655c0,1.5 -0.035,1.666 -0.373,1.754c-0.34,0.089 -0.372,0.255 -0.372,1.886l0,1.789l-0.606,0.021c-0.333,0.013 -0.669,0.013 -0.746,0c-0.077,-0.012 -0.14,0.146 -0.14,0.351c0,0.287 -0.124,0.373 -0.536,0.373c-0.993,0 -1.688,0.224 -1.801,0.582c-0.081,0.256 -0.289,0.35 -0.768,0.35c-0.501,0 -0.681,0.089 -0.755,0.373c-0.055,0.207 -0.255,0.373 -0.449,0.373c-0.285,0 -0.351,0.14 -0.351,0.746c0,0.621 -0.062,0.745 -0.373,0.745c-0.354,0 -0.373,0.125 -0.373,2.414c0,1.833 -0.06,2.45 -0.252,2.564c-0.707,0.417 -0.833,1.302 -0.286,1.998c0.351,0.446 0.428,0.471 0.699,0.228c0.168,-0.15 0.515,-0.303 0.771,-0.34c0.257,-0.037 0.445,-0.173 0.418,-0.301c-0.026,-0.128 0.162,-0.312 0.42,-0.41c0.257,-0.098 0.467,-0.286 0.467,-0.417c0,-0.132 0.168,-0.344 0.373,-0.473c0.205,-0.128 0.373,-0.339 0.373,-0.469c0,-0.293 0.575,-0.8 1.095,-0.965c0.213,-0.068 0.38,-0.181 0.371,-0.251c-0.061,-0.425 0.079,-0.595 0.491,-0.595c0.601,0 0.68,0.833 0.093,0.986c-0.316,0.083 -0.372,0.255 -0.372,1.141c0,0.702 -0.076,1.047 -0.233,1.056c-0.935,0.056 -1.352,0.243 -1.352,0.607c0,0.123 -0.346,0.243 -0.792,0.275c-0.641,0.047 -0.793,0.127 -0.793,0.42c0,0.317 -0.135,0.362 -1.095,0.362c-1.2,0 -1.328,0.167 -1.328,1.733c0,0.312 -0.147,0.73 -0.326,0.928c-0.267,0.294 -0.343,0.833 -0.42,2.966c-0.078,2.198 -0.144,2.643 -0.419,2.844c-0.281,0.205 -0.326,0.565 -0.326,2.584c0,1.572 -0.071,2.389 -0.216,2.478c-0.146,0.091 -0.164,0.049 -0.057,-0.129c0.134,-0.223 0.111,-0.224 -0.158,-0.006c-0.5,0.406 -0.259,2.106 0.254,1.79c0.144,-0.09 0.29,1.247 0.199,1.823c-0.013,0.077 0.067,0.14 0.175,0.14c0.109,0 0.145,0.084 0.081,0.187c-0.063,0.103 0.026,0.242 0.198,0.308c0.278,0.107 0.27,0.144 -0.069,0.325c-0.211,0.113 -0.386,0.289 -0.39,0.391c-0.003,0.103 -0.427,0.231 -0.94,0.285c-0.59,0.062 -1.021,0.219 -1.174,0.427c-0.327,0.449 -3.403,0.395 -3.403,-0.059c0,-0.196 -0.239,-0.297 -0.803,-0.338c-1.37,-0.098 -2.001,-1.239 -1.154,-2.086c0.342,-0.342 0.373,-0.621 0.373,-3.372c0,-2.844 -0.02,-3.006 -0.373,-3.098c-0.348,-0.092 -0.373,-0.255 -0.373,-2.484c0,-2.536 -0.072,-2.977 -0.486,-2.977c-0.206,0 -0.26,-0.408 -0.26,-1.957c0,-1.833 -0.023,-1.957 -0.372,-1.957c-0.249,0 -0.373,-0.125 -0.373,-0.373c0,-0.318 -0.125,-0.373 -0.839,-0.373c-0.715,0 -0.839,-0.055 -0.839,-0.373c0,-0.319 -0.125,-0.373 -0.864,-0.373c-0.663,0 -0.948,-0.097 -1.227,-0.419c-0.2,-0.231 -0.433,-0.42 -0.517,-0.42c-0.557,0 -1.12,-1.083 -1.12,-2.153c0,-1.223 0.112,-1.337 0.634,-0.643c0.192,0.256 0.464,0.466 0.603,0.466c0.14,0 0.254,0.128 0.254,0.284c0,0.157 0.215,0.366 0.477,0.466c0.262,0.1 0.427,0.263 0.365,0.363c-0.062,0.099 0.102,0.235 0.362,0.3c0.298,0.075 0.474,0.25 0.474,0.471c0,0.229 0.131,0.353 0.372,0.353c0.215,0 0.373,0.125 0.373,0.293c0,0.588 0.531,0.904 1.051,0.626c0.647,-0.347 0.652,-4.07 0.007,-4.787c-0.207,-0.231 -0.285,-0.419 -0.174,-0.419c0.112,0 0.246,0.104 0.298,0.233c0.073,0.182 0.097,0.181 0.108,-0.006c0.009,-0.131 -0.111,-0.288 -0.264,-0.346c-0.218,-0.084 -0.28,-0.454 -0.28,-1.672c0,-1.524 -0.012,-1.565 -0.444,-1.565c-0.288,0 -0.479,-0.131 -0.542,-0.373c-0.083,-0.316 -0.255,-0.373 -1.128,-0.373c-0.926,0 -1.035,-0.042 -1.089,-0.419c-0.047,-0.33 -0.198,-0.432 -0.712,-0.476c-0.359,-0.032 -0.761,-0.2 -0.893,-0.373c-0.252,-0.33 -0.302,-0.348 -1.064,-0.386c-0.439,-0.022 -0.466,-0.085 -0.466,-1.066c0,-0.88 -0.058,-1.058 -0.367,-1.139c-0.329,-0.086 -0.371,-0.287 -0.419,-1.986c-0.047,-1.668 -0.091,-1.888 -0.379,-1.865c-0.24,0.019 -0.327,-0.114 -0.327,-0.501c0,-0.458 0.08,-0.535 0.606,-0.585c0.471,-0.046 0.593,-0.136 0.547,-0.404c-0.032,-0.189 0.01,-0.304 0.093,-0.254c0.268,0.158 0.991,-0.217 0.991,-0.513c0,-0.183 0.174,-0.286 0.481,-0.286c0.702,0 0.643,-2.849 -0.061,-2.949c-0.382,-0.054 -0.42,-0.16 -0.42,-1.182c0,-0.966 -0.052,-1.137 -0.372,-1.221c-0.287,-0.075 -0.373,-0.254 -0.373,-0.776c0,-0.478 -0.111,-0.749 -0.373,-0.912c-0.255,-0.159 -0.373,-0.435 -0.373,-0.869c0,-0.82 -0.161,-1.225 -0.486,-1.225c-0.152,0 -0.26,-0.192 -0.26,-0.466c0,-0.257 -0.081,-0.466 -0.18,-0.466c-0.1,0 -0.127,-0.141 -0.061,-0.312c0.091,-0.237 0.044,-0.284 -0.193,-0.193c-0.245,0.094 -0.311,0.01 -0.311,-0.398c0,-0.285 -0.16,-0.689 -0.354,-0.898c-0.194,-0.209 -0.384,-0.539 -0.421,-0.734c-0.038,-0.198 -0.253,-0.382 -0.486,-0.415c-0.35,-0.049 -0.417,-0.175 -0.417,-0.779c0,-0.557 -0.085,-0.747 -0.373,-0.839c-0.205,-0.065 -0.373,-0.28 -0.373,-0.478c0,-0.236 -0.128,-0.361 -0.373,-0.361c-0.248,0 -0.372,-0.124 -0.372,-0.372c0,-0.235 -0.125,-0.373 -0.335,-0.373c-0.215,0 -0.397,-0.214 -0.512,-0.603c-0.099,-0.332 -0.354,-0.689 -0.567,-0.794c-0.213,-0.105 -0.353,-0.295 -0.311,-0.421c0.043,-0.127 -0.146,-0.315 -0.419,-0.419c-0.273,-0.104 -0.463,-0.291 -0.421,-0.415c0.089,-0.268 -1.298,-1.255 -1.77,-1.26c-0.201,-0.002 -0.326,-0.147 -0.326,-0.376c0,-0.232 -0.124,-0.373 -0.328,-0.373c-0.18,0 -0.433,-0.168 -0.561,-0.373c-0.148,-0.237 -0.435,-0.372 -0.79,-0.372c-0.434,0 -0.558,-0.083 -0.558,-0.373c0,-0.317 -0.124,-0.373 -0.826,-0.373c-0.714,0 -0.834,-0.057 -0.885,-0.42c-0.05,-0.348 -0.194,-0.429 -0.852,-0.476c-0.596,-0.044 -0.793,-0.136 -0.795,-0.373c-0.003,-0.244 -0.039,-0.259 -0.161,-0.067c-0.127,0.2 -0.18,0.191 -0.271,-0.046c-0.192,-0.503 -9.266,-0.44 -9.582,0.066m-7.693,19.585c0,0.706 -0.493,0.759 -0.751,0.081c-0.244,-0.644 -0.246,-0.64 0.285,-0.64c0.393,0 0.466,0.087 0.466,0.559m92.101,3.056l-0.383,0.382l0,-1.159c0,-1.728 0.625,-2.355 0.709,-0.711c0.047,0.913 -0.01,1.172 -0.326,1.488m-67.873,-0.12c0.004,0.293 0.118,0.42 0.379,0.42c0.35,0 0.478,0.345 0.39,1.057c-0.015,0.121 0.143,0.273 0.351,0.339c0.207,0.066 0.378,0.282 0.378,0.48c0,0.236 0.128,0.361 0.372,0.361c0.337,0 0.373,0.124 0.373,1.289c0,1.455 0.11,1.88 0.486,1.88c0.153,0 0.26,0.192 0.26,0.466c0,0.67 -1.43,0.714 -1.525,0.046c-0.037,-0.262 -0.209,-0.441 -0.46,-0.476c-0.22,-0.032 -0.443,-0.22 -0.495,-0.419c-0.053,-0.2 -0.229,-0.363 -0.392,-0.363c-0.223,0 -0.297,-0.188 -0.297,-0.746c0,-0.621 -0.062,-0.745 -0.373,-0.745c-0.353,0 -0.373,-0.125 -0.373,-2.339l0,-2.339l0.46,0.335c0.254,0.184 0.463,0.523 0.466,0.754m44.201,1.907c-0.013,2.179 -0.236,3.07 -0.661,2.652c-0.074,-0.073 -0.116,-0.006 -0.094,0.148c0.131,0.917 -0.399,1.512 -1.185,1.33c-0.086,-0.019 -0.2,0.135 -0.255,0.343c-0.064,0.246 -0.253,0.378 -0.543,0.378c-0.56,0 -0.69,-1.73 -0.145,-1.939c0.175,-0.068 0.253,-0.233 0.188,-0.403c-0.063,-0.164 -0.032,-0.239 0.074,-0.173c0.111,0.068 0.184,-0.217 0.184,-0.715c0,-0.671 0.071,-0.846 0.373,-0.925c0.284,-0.075 0.373,-0.255 0.373,-0.755c0,-0.536 0.076,-0.668 0.412,-0.716c0.3,-0.044 0.448,-0.232 0.541,-0.69c0.113,-0.557 0.504,-1.051 0.686,-0.868c0.037,0.036 0.06,1.086 0.052,2.333" style="fill:#e92e29;"/></g></svg>