<?xml version="1.0" encoding="UTF-8" standalone="no"?><!DOCTYPE svg PUBLIC "-//W3C//DTD SVG 1.1//EN" "http://www.w3.org/Graphics/SVG/1.1/DTD/svg11.dtd"><svg width="100%" height="100%" viewBox="0 0 192 192" version="1.1" xmlns="http://www.w3.org/2000/svg" xmlns:xlink="http://www.w3.org/1999/xlink" xml:space="preserve" xmlns:serif="http://www.serif.com/" style="fill-rule:evenodd;clip-rule:evenodd;"><g id="Layer-1" serif:id="Layer 1"><path d="M35.766,78.719l22.331,-0.035l0,5.583l-13.783,0.035c-9.188,0.035 -16.487,0.111 -21.895,0.227c-5.409,0.116 -8.345,0.331 -8.811,0.645l-0.698,0.489l0,-0.262c0,-0.174 -0.087,-0.215 -0.261,-0.122c-0.175,0.081 -1.047,0.122 -2.617,0.122c-1.57,0 -2.879,0.087 -3.926,0.262l-1.57,0.262l-0.035,0.052l-0.052,0.035l-0.052,0.035l-0.035,0.052l-0.035,0.052l-0.053,0.035l-0.052,-0.698l-0.035,-0.697l0,-0.349c0,-0.233 -0.058,-0.349 -0.174,-0.349l-0.175,0l0.663,-1.309c0.431,-0.872 0.721,-1.425 0.873,-1.657c0.139,-0.233 0.674,-0.593 1.605,-1.082c0.93,-0.5 1.657,-0.808 2.18,-0.925c0.524,-0.116 1.367,-0.203 2.53,-0.261c1.163,-0.058 9.189,-0.105 24.077,-0.14Z" style="fill:#b93e32;stroke:#b93e32;stroke-width:0.09px;"/><path d="M187.726,79.644l0,4.798l-16.139,-0.035c-10.758,-0.035 -17.824,-0.053 -21.197,-0.053c-3.373,0 -5.292,0.059 -5.758,0.175c-0.465,0.116 -0.959,0.448 -1.483,0.994l-0.785,0.838l0.035,-0.262l0.053,-0.262l0.087,-0.174c0.058,-0.116 0.116,-0.233 0.174,-0.349l0.088,-0.175l0.052,-0.034l0.035,-0.053l-0.175,0l-0.174,0l-0.175,0.087c-0.116,0.059 -0.203,0.047 -0.261,-0.034c-0.058,-0.093 -1.425,-0.14 -4.1,-0.14l-4.013,0l-0.035,-0.436l-0.052,-0.436l-0.053,-0.035l-0.034,-0.053l-0.035,-0.052l-0.053,-0.035l-0.052,0l-0.035,0l0,-0.035l0,-0.052l0.035,-0.052l0.052,-0.035l0.524,-1.047c0.349,-0.698 0.541,-1.076 0.575,-1.134l0.035,-0.087l0.035,0c0.035,0 0.07,-0.029 0.105,-0.088l0.035,-0.087l0.087,-0.035c0.058,-0.035 0.099,-0.069 0.122,-0.104l0.053,-0.035l0.052,-0.035l0.035,-0.052l0.035,-0.053l0.052,-0.035l0.052,-0.035l0.035,-0.052l0.873,-0.611c0.581,-0.407 1.163,-0.727 1.744,-0.959c0.582,-0.233 8.985,-0.367 25.211,-0.401c16.225,-0.024 24.338,0.226 24.338,0.75Z" style="fill:#b52a31;stroke:#b52a31;stroke-width:0.09px;"/><path d="M126.174,78.649l0.052,0.035l0.053,1.396l0.034,1.396l-0.139,0.087c-0.081,0.058 -0.151,0.727 -0.209,2.006c-0.059,1.28 -0.105,2.036 -0.14,2.268l-0.035,0.349l-3.228,-0.035c-2.151,-0.035 -3.14,-0.081 -2.965,-0.139c0.174,-0.058 0.058,-0.105 -0.349,-0.14c-0.407,-0.023 -0.669,-0.221 -0.785,-0.593l-0.175,-0.576l-0.035,-0.052l-0.052,-0.035l-0.053,-0.035l-0.034,-0.052l-0.524,0l-0.523,0l0.035,0.052l0.104,0.07l0.035,0.052l0.262,0.053l0.262,0.035l0,0.348l-0.262,0.035l-0.262,0.053l0,0.087l-0.61,0.035l-0.611,0.052l-0.035,0.053l-0.052,0.034l-0.053,0.035c-0.023,0.035 -0.093,0.128 -0.209,0.279l-0.174,0.21l-0.035,-0.087c-0.035,-0.059 -0.07,-0.029 -0.105,0.087l-0.035,0.174l-0.174,0l-0.175,0l0.035,-0.174c0.035,-0.116 0.07,-0.244 0.105,-0.384c0.023,-0.151 -1.245,-0.256 -3.804,-0.314l-3.838,-0.087l-0.262,-0.053l-0.261,-0.035l0.035,-0.174l0.052,-0.174l0.052,-0.035l0.035,-0.053l0.035,-0.052l0.052,-0.035l0.088,-0.174l0.087,-0.175l1.622,-2.826c1.071,-1.896 4.193,-2.844 9.369,-2.844c5.176,0 7.776,0.017 7.799,0.052Z" style="fill:#bd3f33;stroke:#bd3f33;stroke-width:0.09px;"/><path d="M85.105,85.75l0.034,0.087l-0.034,0.262c-0.035,0.175 -0.035,0.32 0,0.436l0.034,0.175l-0.174,-0.035l-0.174,-0.053l-0.035,-0.052l-0.053,-0.035l-0.052,-0.035l-0.035,-0.052l-0.035,-0.052l-0.052,-0.035l-0.052,0.035l-0.035,0.052l-0.349,0c-0.233,0 -1.454,0.029 -3.664,0.087l-3.315,0.087l-0.035,0.053l-0.052,0.035l-0.087,-0.175l-0.088,-0.174l-0.052,-0.035l-0.035,-0.052l-0.035,-0.053l-0.052,-0.035l-0.087,0.175l-0.088,0.174l-0.052,0l-0.035,0l-0.035,0c-0.035,0 -0.151,-0.203 -0.349,-0.61c-0.209,-0.408 -0.634,-0.611 -1.273,-0.611l-0.96,0l0,-0.262l0,-0.261l0.698,-0.035l0.698,-0.053l-0.035,-0.052l-0.052,-0.035l-0.053,-0.035l-0.035,-0.052l-0.261,-0.087l-0.262,-0.088l-0.035,-0.052l-0.052,-0.035l-0.053,-0.035l-0.034,-0.052l-1.047,-0.087c-0.698,-0.058 -1.745,-0.058 -3.141,0l-2.093,0.087l-0.035,0.052l-0.052,0.035l-0.053,-0.035l-0.035,-0.052l-0.261,0l-0.262,0l-0.175,0.087l-0.174,0.087l1.396,0.175l-0.698,0.087c-0.465,0.058 -0.686,0.105 -0.663,0.14c0.035,0.023 -0.082,0.104 -0.349,0.244c-0.256,0.151 -0.337,0.267 -0.244,0.349c0.081,0.093 0.046,0.186 -0.105,0.279c-0.14,0.081 -0.198,0.198 -0.174,0.349l0.052,0.209l-0.087,0.175l-0.088,0.174l-0.052,0.035l-0.035,0.052l-0.035,0.053l-0.052,0.035l-0.087,0.349l-0.087,0.349l-0.088,-1.745c-0.058,-1.163 -0.128,-1.774 -0.209,-1.832l-0.14,-0.087l0,-2.53l0,-2.53l7.886,0c5.269,0 8.572,1.163 9.91,3.49c1.337,2.326 2.024,3.518 2.059,3.576Z" style="fill:#bd3f33;stroke:#bd3f33;stroke-width:0.09px;"/><path d="M133.257,101.888l0.21,-1.919l0.034,0.349c0.035,0.233 0.07,1.192 0.105,2.879l0.035,2.529l0.314,1.483c0.198,0.989 0.314,1.512 0.349,1.571l0.035,0.087l0,0.035c0,0.035 0.029,0.07 0.087,0.104l0.087,0.035l0.262,0.559c0.175,0.383 0.273,0.593 0.297,0.628l0.052,0.035l0.227,0.314c0.139,0.197 0.238,0.314 0.296,0.349l0.088,0.034l0,0.088l0.087,0.052l0.087,0.035l0,0.087l0.035,0.053l0.105,0.069l0.069,0.105l0.053,0.035l0.925,0.558c0.604,0.384 1.372,0.692 2.302,0.925c0.931,0.232 9.102,0.407 24.513,0.523c15.411,0.117 23.32,0.175 23.727,0.175l0.611,0l0.035,-0.053l0.052,-0.035l0,-0.436c0,-0.29 -0.017,-0.843 -0.052,-1.657l-0.035,-1.221l-0.035,-0.96l-0.052,-0.96l-0.053,-0.034l-0.034,-0.053l-20.849,-0.087l-20.849,-0.087l0,-0.053l0,-0.034l0.349,-0.035l0.349,-0.053l5.67,-0.349c3.78,-0.232 5.845,-0.378 6.194,-0.436l0.523,-0.087l0.175,-0.087l0.174,-0.087l-0.785,-0.088l-0.785,-0.087l1.657,-0.087l1.658,-0.087l-1.658,-0.088l-1.657,-0.087l0,-0.052l0,-0.035l15.615,-0.14c10.409,-0.081 15.626,-0.139 15.649,-0.174l0.052,-0.035l0.053,-0.035l0.035,-0.052l0.035,-0.053l0.052,-0.035l0.087,-0.174c0.058,-0.116 0.116,-0.204 0.175,-0.262c0.058,-0.058 -0.047,-0.133 -0.314,-0.226l-0.384,-0.123l0,-0.052l0,-0.035l0.698,0.035l0.698,0.052l0.034,0.053l0.053,0.035l0,0.872l-0.053,0.035l-0.034,0.052l-0.035,0.053l-0.053,0.034l-0.052,0.035l-0.035,0.053l-0.035,0.052l-0.052,0.035l-0.053,0.035l-0.034,0.052l-0.035,0.052l-0.053,0.035l-0.052,0.035l-0.035,0.053l-0.035,0.052l-0.052,0.035l-0.052,0.035l-0.035,0.052l-0.035,0.052l-0.053,0.035l-0.052,0.035l-0.035,0.053l-0.035,0.052l-0.052,0.035l0,3.925c0,2.617 -0.018,3.937 -0.052,3.961c-0.024,0.035 -0.297,0.069 -0.82,0.104l-0.785,0.035l-5.234,-0.035c-3.49,-0.035 -11.137,-0.081 -22.943,-0.139c-11.805,-0.058 -18.144,-0.146 -19.017,-0.262c-0.872,-0.116 -1.802,-0.349 -2.791,-0.698c-0.989,-0.349 -1.832,-0.814 -2.53,-1.396c-0.698,-0.581 -1.337,-1.355 -1.919,-2.32l-0.872,-1.431l-0.035,-0.261c-0.035,-0.175 -0.093,-0.436 -0.175,-0.785l-0.139,-0.524l0.035,-1.134c0.035,-0.756 0.11,-1.337 0.227,-1.744c0.116,-0.408 0.203,-0.582 0.261,-0.524c0.058,0.058 0.163,-0.552 0.314,-1.832Z" style="fill:#dbd9da;stroke:#dbd9da;stroke-width:0.09px;"/><path d="M179.7,75.334l10.643,0.035l0.034,0.262l0.053,0.262l0,0.174l-0.087,0.175l-0.088,0.174l-0.052,0.035l-0.035,0.052l-0.035,0.053l-0.052,0.035l-0.052,0.035l-0.035,0.052l-0.035,0.052l-0.053,0.035l-0.052,0.035l-0.035,0.052l-0.035,0.053l-0.052,0.035l-0.052,0.034l-0.035,0.053l-0.035,0.052l-0.053,0.035l-0.052,0.035l-0.035,0.052l-0.035,0.053l-0.052,0.035l-0.052,0.034l-0.035,0.053l-0.035,0.227c-0.035,0.139 -0.035,0.442 0,0.907l0.035,0.698l-0.175,0c-0.116,0 -0.203,-0.07 -0.261,-0.21c-0.059,-0.151 -0.134,-0.011 -0.227,0.419c-0.082,0.442 -0.18,0.459 -0.297,0.052l-0.174,-0.61l-0.087,0.436l-0.088,0.436l-0.087,0.349l-0.087,0.349l-0.053,0l-0.034,0l0,-0.785c0,-0.524 -8.113,-0.774 -24.338,-0.75c-16.226,0.034 -24.629,0.168 -25.211,0.401c-0.581,0.232 -1.163,0.552 -1.744,0.959l-0.873,0.611l-0.035,0.052l-0.052,0.035l-0.052,0.035l-0.035,0.053l-0.035,0.052l-0.052,0.035l-0.053,0.174l-0.035,0.175l-0.174,0l-0.175,0l0.035,-0.175l0.053,-0.174l0.052,-0.035l0.035,-0.052l0.035,-0.053c0.035,-0.023 0.081,-0.151 0.139,-0.384l0.088,-0.349l0,-0.174l0,-0.175l-0.053,0.035l-0.035,0.053l-0.174,0.087l-0.175,0.087l-0.035,0.053l-0.052,0.034l-0.052,0.035c-0.023,0.035 -0.105,0.093 -0.244,0.175l-0.227,0.139l-0.053,0.035l-0.035,0.053l-0.034,0.052l-0.053,0.035l-0.052,0.035l-0.035,0.052l-0.174,0.052l-0.175,0.035l0.035,-0.174l0.052,-0.175l0.053,-0.035l0.035,-0.052l0.209,-0.122c0.151,-0.093 0.209,-0.244 0.174,-0.454c-0.023,-0.197 -0.104,-0.255 -0.244,-0.174c-0.151,0.093 -0.314,-0.035 -0.488,-0.384c-0.175,-0.349 -0.233,-0.669 -0.175,-0.959c0.058,-0.291 0.512,-0.739 1.361,-1.344c0.837,-0.616 1.402,-0.983 1.692,-1.099c0.291,-0.116 0.436,-0.192 0.436,-0.227l0,-0.035l0.262,-0.035l0.262,-0.052l0.436,-0.087l0.436,-0.087l15.44,-0.088c10.294,-0.058 18.988,-0.069 26.083,-0.035Zm-44.314,3.56c0.116,-0.024 0.046,0.11 -0.21,0.401c-0.267,0.291 -0.325,0.308 -0.174,0.052c0.139,-0.267 0.267,-0.419 0.384,-0.453Zm0.349,1.186c0.116,0 0.174,0.058 0.174,0.174c0,0.117 -0.058,0.175 -0.174,0.175c-0.117,0 -0.175,-0.058 -0.175,-0.175c0,-0.116 0.058,-0.174 0.175,-0.174Z" style="fill:#e3e4ee;stroke:#e3e4ee;stroke-width:0.09px;"/><path d="M41.087,75.23l18.057,-0.035l0,0.035c0,0.035 0.145,0.081 0.436,0.139l0.436,0.088l-0.035,0.052l-0.052,0.035l0.052,0.209c0.024,0.151 -0.034,0.303 -0.174,0.454c-0.151,0.139 -0.209,0.267 -0.174,0.384l0.034,0.174l0,0.035c0,0.035 -0.058,0.081 -0.174,0.14l-0.175,0.087l-0.034,0.052l-0.053,0.035l0.227,0.175c0.14,0.116 0.209,0.436 0.209,0.959l0,0.785l-0.261,-0.314c-0.175,-0.198 -0.39,-0.279 -0.646,-0.244c-0.267,0.023 -0.43,0.384 -0.488,1.082l-0.088,1.046l-0.052,0l-0.035,0l0,-0.959l0,-0.96l-22.331,0.035c-14.888,0.035 -22.914,0.082 -24.077,0.14c-1.163,0.058 -2.006,0.145 -2.53,0.261c-0.523,0.117 -1.25,0.425 -2.18,0.925c-0.931,0.489 -1.466,0.849 -1.605,1.082c-0.152,0.232 -0.442,0.785 -0.873,1.657l-0.663,1.309l-0.035,0.261c-0.035,0.175 -0.081,0.495 -0.139,0.96l-0.087,0.698l-0.053,0.035l-0.035,0.052l0.035,0.052l0.105,0.07l0.035,0.053l-0.035,0.052l-0.052,0.035l-0.053,0.523l-0.035,0.524l-0.035,0l-0.052,0l-0.087,-0.262l-0.087,-0.262l-0.088,-0.174l-0.087,-0.175l-0.052,-0.035l-0.035,-0.052l-0.035,-0.052l-0.052,-0.035l-0.088,-0.262c-0.058,-0.174 -0.116,-0.233 -0.174,-0.174c-0.058,0.058 -0.128,-0.437 -0.209,-1.483c-0.093,-1.047 -0.343,-1.629 -0.751,-1.745c-0.407,-0.116 -0.61,-0.32 -0.61,-0.611l0,-0.436l0.035,-0.087c0.035,-0.058 0.226,-0.378 0.575,-0.96c0.349,-0.581 0.902,-1.25 1.658,-2.006c0.756,-0.756 1.675,-1.425 2.756,-2.006l1.606,-0.873l0.348,0l0.175,-0.035c0.116,-0.034 0.174,-0.069 0.174,-0.104l0,-0.035l7.328,-0.14c4.885,-0.081 13.347,-0.139 25.385,-0.174Z" style="fill:#e2e6ed;stroke:#e2e6ed;stroke-width:0.09px;"/><path d="M84.965,86.151l0.174,-0.314l2.234,3.751c1.477,2.501 2.244,3.81 2.303,3.926l0.087,0.174l0.052,0.035l0.07,0.105l0.105,0.07l0.069,0.104l0.053,0.035l0.052,0.175l0.035,0.174l-0.174,-0.035l-0.175,-0.052l-0.174,0l-0.175,0l0.035,0.052l0.105,0.07l0.035,0.052l-0.349,0c-0.233,0 -0.338,-0.017 -0.314,-0.052c0.035,-0.023 -0.256,-0.081 -0.873,-0.174c-0.605,-0.082 -1.896,-0.14 -3.873,-0.175c-1.977,-0.023 -2.995,0.023 -3.053,0.14l-0.087,0.174l-0.035,-0.087c-0.035,-0.058 -0.07,-0.087 -0.105,-0.087l-0.035,0l-0.035,-0.088c-0.034,-0.058 -0.069,-0.087 -0.104,-0.087l-0.035,0l-0.035,-0.087c-0.035,-0.058 -0.721,-1.221 -2.059,-3.489l-2.006,-3.402l-0.052,-0.035l-0.035,-0.053l-0.035,-0.052l-0.053,-0.035l-0.052,-0.174l-0.035,-0.175l0.087,0l0.088,-0.174l0.087,-0.175l0.052,0.035l0.07,0.105l0.052,0.035l0.175,0.349l0.052,-0.035l0.035,-0.053l3.315,-0.087c2.21,-0.058 3.431,-0.087 3.664,-0.087l0.349,0l0.035,-0.052l0.052,-0.035l0.052,0.035l0.07,0.104l0.052,0.035l0.053,-0.035c0.023,-0.035 0.093,-0.151 0.209,-0.349Z" style="fill:#b82f32;stroke:#b82f32;stroke-width:0.09px;"/><path d="M59.58,95.956l0.175,-2.966l0.087,0l-0.14,7.241c-0.081,4.827 -0.314,7.775 -0.698,8.845c-0.372,1.082 -0.82,1.943 -1.343,2.582c-0.523,0.64 -0.901,1.047 -1.134,1.222c-0.233,0.174 -0.407,0.29 -0.523,0.349l-0.175,0.087l-0.174,0.087l-0.175,0.087l0,0.087l-0.174,0.035c-0.117,0.035 -0.669,0.198 -1.658,0.489c-0.988,0.291 -8.316,0.494 -21.982,0.61c-13.667,0.117 -20.907,0.117 -21.721,0c-0.815,-0.116 -1.658,-0.348 -2.53,-0.697c-0.873,-0.349 -1.611,-0.774 -2.216,-1.274c-0.616,-0.488 -1.186,-1.198 -1.71,-2.128l-0.785,-1.396l-0.087,-0.175l-0.087,-0.174l-0.053,-0.175l-0.034,-0.174l0.348,0l0.035,0.174l0.053,0.175l0.052,0.035l0.07,0.104l0.052,0.035l0.175,0.349l0.052,0.035l0.07,0.105l0.052,0.035l0,-0.262l0,-0.262l-0.052,-0.035l-0.035,-0.052l0.262,-0.052c0.174,-0.023 0.261,-0.122 0.261,-0.297l0,-0.262l0.087,0l0.175,0.698l0.698,1.134c0.465,0.756 0.971,1.355 1.518,1.797c0.558,0.431 0.895,0.675 1.012,0.733l0.174,0.087l0.175,0.053l0.174,0.035l0,0.087l0.523,0.174l0.873,0.175c0.581,0.116 7.88,0.145 21.895,0.087c14.016,-0.058 21.518,-0.262 22.506,-0.611c0.989,-0.349 1.821,-0.855 2.495,-1.517c0.663,-0.675 1.053,-1.129 1.169,-1.361c0.116,-0.233 0.192,-0.407 0.227,-0.524l0.035,-0.174l0.087,-0.035c0.058,-0.035 0.087,-0.07 0.087,-0.105l0,-0.035l0.035,-0.174c0.035,-0.116 0.07,-0.262 0.105,-0.436l0.035,-0.262l0.035,0c0.035,0 0.093,-1.308 0.174,-3.925l0.14,-3.926l0.035,0c0.034,0 0.093,0.047 0.174,0.14c0.093,0.081 0.186,-0.035 0.279,-0.349l0.122,-0.489l0.088,-0.349l0.087,-0.349l0.174,1.571l0.087,-0.786c0.059,-0.523 0.146,-1.773 0.262,-3.751Z" style="fill:#dcdada;stroke:#dcdada;stroke-width:0.09px;"/><path d="M39.08,88.14l22.332,-0.035l0.175,0l-0.035,0.786c-0.035,0.523 -0.07,0.814 -0.105,0.872l-0.035,0.087l-14.742,0.035c-9.829,0.035 -14.847,0.093 -15.057,0.174c-0.197,0.093 -0.314,2.071 -0.349,5.932c-0.023,3.873 0.198,5.653 0.663,5.339c0.466,-0.326 0.524,-0.268 0.175,0.174c-0.349,0.431 1.366,0.687 5.147,0.768l5.67,0.14l3.227,0l0.053,0.087l0.035,0.087l0,0.087l-0.035,0.053l-0.053,0.035l-0.087,0.785l-0.087,0.785l-0.053,0.035l-0.034,0.052l-14.917,0l-14.917,0l-0.035,-0.052l-0.052,-0.035l0.052,-8.026c0.023,-5.35 0.151,-8.037 0.384,-8.06c0.232,-0.035 7.793,-0.07 22.68,-0.105Z" style="fill:#fbfbfb;stroke:#fbfbfb;stroke-width:0.09px;"/><path d="M156.147,85.698l11.166,-0.035l0,0.035c0,0.035 -1.716,0.11 -5.147,0.227l-5.146,0.174l-0.786,0.087l-0.785,0.088l1.047,0.174l2.617,0.087c1.745,0.058 1.221,0.146 -1.57,0.262l-4.187,0.174l13.259,0.262c8.84,0.175 13.783,0.291 14.83,0.349l1.57,0.087l-7.153,0.087c-4.769,0.059 -9.131,0.105 -13.085,0.14l-5.932,0.035l-5.059,0.035c-3.373,0.035 -5.205,0.07 -5.496,0.105l-0.436,0.034l0.139,7.939c0.082,5.292 0.14,7.996 0.175,8.112l0.035,0.175l14.306,0.035c9.537,0.035 14.306,0.069 14.306,0.104l0,0.035l-6.106,0.035c-4.071,0.035 -8.229,0.082 -12.475,0.14l-6.368,0.087l19.715,0.052l19.715,0.035l0,0.087l0.384,0.123c0.267,0.093 0.372,0.168 0.314,0.226c-0.059,0.058 -0.117,0.146 -0.175,0.262l-0.087,0.174l-0.052,0.035l-0.035,0.053l-0.035,0.052l-0.053,0.035l-0.052,0.035c-0.023,0.035 -5.24,0.093 -15.649,0.174l-15.615,0.14l-1.658,-0.035c-1.105,-0.035 -3.285,-0.081 -6.542,-0.14l-4.885,-0.087l-0.175,-0.087l-0.174,-0.087l-0.175,0l-0.174,0l0.262,0.261c0.174,0.175 0.273,0.28 0.296,0.314l0.105,0.07l0.035,0.053l-0.262,0l-0.262,0l-0.034,-0.053l-0.053,-0.035l-0.052,-0.035l-0.035,-0.052l-0.035,-0.052l-0.052,-0.035l-0.087,-0.175l-0.088,-0.174l-0.261,-9.421c-0.175,-6.281 -0.163,-9.584 0.034,-9.91c0.21,-0.314 0.431,-0.529 0.663,-0.645c0.233,-0.117 4.071,-0.192 11.515,-0.227Z" style="fill:#4e4e4e;stroke:#4e4e4e;stroke-width:0.09px;"/><path d="M50.037,98.748l0.209,0l0.14,0.785c0.081,0.523 0.105,0.843 0.07,0.96c-0.024,0.116 0.081,0.186 0.314,0.209c0.232,0.035 0.232,0.07 0,0.105c-0.233,0.023 -0.349,0.093 -0.349,0.209c0,0.116 0.203,0.186 0.61,0.209c0.407,0.035 0.425,0.093 0.053,0.175c-0.384,0.093 -0.477,0.186 -0.279,0.279c0.209,0.081 0.226,0.151 0.052,0.209c-0.175,0.058 -0.116,0.117 0.174,0.175c0.291,0.058 0.669,0.116 1.134,0.174l0.698,0.087l-1.047,0.088l-1.046,0.087l0.698,0.087c0.465,0.058 0.523,0.145 0.174,0.262c-0.349,0.116 -0.029,0.203 0.96,0.261l1.483,0.088l-1.396,0.052l-1.396,0.035l0,0.349l2.704,0.035l2.704,0.052l-2.529,0.087l-2.53,0.088l-0.035,0.052c-0.035,0.023 -0.07,0.046 -0.105,0.07l-0.034,0.052l5.757,0.175l-2.617,0.087l-2.617,0.087l2.006,0.052l2.007,0.035l0,0.175c0,0.116 -0.64,0.186 -1.919,0.209l-1.92,0.052l2.268,0.088c1.512,0.058 2.094,0.145 1.745,0.261c-0.349,0.117 -0.262,0.204 0.262,0.262l0.785,0.087l-0.611,0.175c-0.407,0.116 -0.424,0.215 -0.052,0.296c0.384,0.093 0.651,0.402 0.802,0.925c0.14,0.523 0.268,0.785 0.384,0.785c0.117,0 0.175,0.058 0.175,0.175l0,0.174l-0.035,0.262c-0.035,0.174 -0.07,0.32 -0.105,0.436l-0.035,0.174l-0.035,0c-0.034,0 -0.069,0.029 -0.104,0.088l-0.035,0.087l-0.035,0c-0.035,0 -0.111,0.087 -0.227,0.262c-0.116,0.174 -0.331,0.424 -0.645,0.75c-0.326,0.314 -1.07,0.511 -2.234,0.593l-1.744,0.139l0,-0.034l0,-0.053l-0.349,-0.087l-0.349,-0.087l-1.919,-0.087c-1.28,-0.059 -1.832,-0.117 -1.658,-0.175c0.175,-0.058 -5.641,-0.116 -17.446,-0.174c-11.806,-0.059 -18.726,-0.128 -20.762,-0.21l-3.053,-0.139l0.035,-0.175l0.052,-0.174l0.053,-0.035l0.035,-0.052l-0.698,-0.088l-0.698,-0.087l0.872,-0.087c0.582,-0.058 0.727,-0.116 0.436,-0.175l-0.436,-0.087l1.483,-0.087l1.483,-0.087l0.785,-0.088l0.785,-0.087l0,-0.052l0,-0.035l1.222,-0.035c0.814,-0.035 1.308,-0.07 1.483,-0.105c0.174,-0.023 0.29,-0.093 0.348,-0.209l0.088,-0.174l0.261,0.034c0.175,0.035 4.129,0.07 11.864,0.105l11.602,0.035l3.489,-0.035c2.327,-0.035 3.839,-0.081 4.537,-0.139c0.697,-0.059 1.192,-0.146 1.482,-0.262c0.291,-0.116 0.658,-0.448 1.1,-0.995c0.43,-0.558 0.686,-1.942 0.767,-4.152l0.14,-3.315l0.035,-0.261c0.035,-0.175 0.128,-0.262 0.279,-0.262Z" style="fill:#890020;stroke:#890020;stroke-width:0.09px;"/><path d="M73.799,89.065l0,-3.751l0.96,0c0.639,0 1.064,0.203 1.273,0.611c0.198,0.407 0.314,0.61 0.349,0.61l0.035,0l0.035,0.175l0.052,0.174l0.053,0.035l0.07,0.105l0.052,0.035l2.006,3.402c1.338,2.268 2.024,3.431 2.059,3.489l0.035,0.087l0,0.035c0,0.035 0.029,0.07 0.087,0.105l0.087,0.035l0,0.035c0,0.035 0.029,0.069 0.088,0.104l0.087,0.035l0.035,0.175l0.052,0.174l1.308,2.181c0.873,1.454 1.326,2.181 1.361,2.181l0.035,0l0.035,0.174l0.052,0.175l0.053,0.035l0.07,0.104l0.052,0.035l0.174,0.349l3.891,6.316c2.582,4.222 3.885,6.35 3.908,6.385l0.105,0.07l0.069,0.105l0.053,0.035l0.052,0.174l0.035,0.175l-0.035,0l-0.052,0l-0.087,0.174l-0.088,0.174l-0.052,-0.034l-0.035,-0.053l-0.035,-0.052l-0.052,-0.035l-0.052,0.035l-0.035,0.052l-0.088,0l-0.087,0l-0.035,-0.052l-0.052,-0.035l-0.087,0.262l-0.088,0.261l-0.052,0.088l-0.035,0.087l-0.087,-0.035l-0.087,-0.052l-0.035,-0.053l-0.052,-0.035l-0.088,-0.174l-0.087,-0.175l-0.087,-0.174c-0.058,-0.116 -0.71,-1.192 -1.954,-3.228c-1.256,-2.035 -2.059,-3.157 -2.408,-3.367c-0.349,-0.198 -0.669,-0.546 -0.959,-1.047c-0.291,-0.488 -0.553,-0.744 -0.785,-0.767c-0.233,-0.035 -0.535,-0.245 -0.908,-0.628c-0.383,-0.373 -1.041,-1.227 -1.971,-2.565l-1.396,-2.006l-0.087,-0.175l-0.087,-0.174l-0.088,-0.175l-0.087,-0.174l-0.052,-0.035l-0.035,-0.052l-0.175,-0.053l-0.174,-0.035l-0.087,-0.035l-0.087,-0.052l0,-0.052l0,-0.035l0,-0.087l0,-0.088l-0.035,0c-0.035,0 -0.111,-0.116 -0.227,-0.349l-0.175,-0.348l-0.052,-0.035l-0.035,-0.053l-0.035,-0.052l-0.052,-0.035l-0.052,-0.035l-0.035,-0.052l-0.175,-0.053c-0.116,-0.023 -0.174,-0.093 -0.174,-0.209l0,-0.174l0.174,-0.035c0.117,-0.035 0.087,-0.256 -0.087,-0.663c-0.174,-0.407 -0.349,-0.582 -0.523,-0.524c-0.175,0.059 -0.291,0.012 -0.349,-0.139c-0.058,-0.14 -0.146,-0.21 -0.262,-0.21c-0.116,0 -0.337,-0.785 -0.663,-2.355l-0.471,-2.355l0,-0.087l0,-0.088l-0.087,-0.174l-0.088,-0.175l-0.052,-0.034l-0.035,-0.053l-0.035,-0.052l-0.052,-0.035l-0.087,-0.349l-0.087,-0.349l0.052,12.3c0.023,8.2 -0.14,12.405 -0.489,12.614c-0.349,0.198 -2.21,0.267 -5.583,0.209c-3.373,-0.058 -5.204,-0.174 -5.495,-0.349c-0.291,-0.174 -0.483,-0.279 -0.576,-0.314c-0.081,-0.023 -0.14,-0.325 -0.174,-0.907l-0.035,-0.872l0.035,0c0.034,0 0.093,-1.367 0.174,-4.1l0.14,-4.1l0.087,0l0.052,-1.221l0.035,-1.222l0.087,0l0.175,4.711l0.052,0.035l0.07,0.104l0.052,0.035l0.175,0.349l0.087,-0.523l0.087,-0.524l0.087,-0.61l0.088,-0.611l0.052,0.035l0.035,0.052l0.174,0l0.035,-0.052l0.053,-0.035l0.087,0l0.035,2.268c0.035,1.512 0.069,2.995 0.104,4.449l0.035,2.181l8.375,0l-0.035,-6.979c-0.035,-4.652 -0.07,-8.083 -0.105,-10.293l-0.035,-3.315l0,-3.751Z" style="fill:#e7dee1;stroke:#e7dee1;stroke-width:0.09px;"/><path d="M189.121,79.208l0.175,0l0.035,1.919c0.035,1.279 0.052,2.297 0.052,3.053c0,0.756 -0.041,1.18 -0.122,1.274c-0.093,0.081 -3.774,0.139 -11.044,0.174l-10.904,0.035l-11.166,0.035c-7.444,0.035 -11.282,0.11 -11.515,0.227c-0.232,0.116 -0.453,0.331 -0.663,0.645c-0.197,0.326 -0.221,3.629 -0.069,9.91l0.209,9.421l0.175,-0.035l0.174,-0.052l0.349,0l0.349,0.174l4.885,0.087c3.257,0.059 5.437,0.105 6.542,0.14l1.658,0.035l0,0.087l3.315,0.175l-1.658,0.087l-1.657,0.087l1.57,0.175l-0.174,0.087l-0.175,0.087l-0.523,0.087c-0.349,0.058 -2.414,0.204 -6.194,0.436l-5.67,0.349l-0.349,0.053l-0.349,0.035l-0.698,-0.035c-0.465,-0.035 -0.93,-0.169 -1.395,-0.402c-0.466,-0.232 -0.861,-0.599 -1.187,-1.099c-0.314,-0.488 -0.512,-1.808 -0.593,-3.96l-0.14,-3.228l-0.035,-0.436c-0.034,-0.291 -0.081,-2.094 -0.139,-5.408c-0.058,-3.315 -0.047,-5.322 0.035,-6.019l0.139,-1.047l0.785,-0.838c0.524,-0.546 1.018,-0.878 1.483,-0.994c0.466,-0.116 2.385,-0.175 5.758,-0.175c3.373,0 10.439,0.018 21.197,0.053l16.139,0.035l0,-2.007l0,-2.006l0.087,0l0.087,-0.349l0.087,-0.349l0.088,-0.436l0.087,-0.436l0.174,0.61c0.117,0.407 0.215,0.39 0.297,-0.052c0.093,-0.43 0.168,-0.57 0.227,-0.419c0.058,0.14 0.145,0.21 0.261,0.21Zm-44.279,27.129l0.227,0.087l0.052,0.035l0.035,0.053l-0.262,0.052c-0.174,0.023 -0.262,-0.023 -0.262,-0.14c0,-0.116 0.07,-0.145 0.21,-0.087Z" style="fill:#f4edef;stroke:#f4edef;stroke-width:0.09px;"/><path d="M108.832,75.334l0.035,-0.052l0.087,-0.052l0.087,-0.035l9.945,0.035l9.944,0.052l0.035,0.052l0.053,0.035l0,0.873l-0.053,0.035l-0.035,0.052l-0.034,0.052l-0.053,0.035l-0.052,0.035l-0.035,0.052l-0.035,0.053l-0.052,0.035l-0.297,0.314c-0.209,0.197 -0.43,0.314 -0.663,0.349c-0.232,0.023 -0.279,0.18 -0.139,0.471c0.151,0.29 0.256,1.25 0.314,2.878c0.058,1.629 0.104,2.676 0.139,3.141l0.035,0.698l-0.035,0l-0.052,0l-0.087,9.072l-0.088,9.072l-0.087,0.698l-0.087,0.698l-0.087,-1.658l-0.087,-1.657l-0.088,0.785l-0.087,0.785l-0.087,0.611c-0.058,0.407 -0.163,0.523 -0.314,0.349l-0.21,-0.262l-0.034,-3.751c-0.035,-2.501 -0.07,-4.827 -0.105,-6.979l-0.035,-3.227l-0.035,-0.785c-0.035,-0.524 -0.07,-1.774 -0.105,-3.751l-0.035,-2.966l-0.034,-1.396l-0.053,-1.396l-0.052,-0.035c-0.023,-0.035 -2.623,-0.052 -7.799,-0.052c-5.176,0 -8.298,0.948 -9.369,2.844l-1.622,2.826l-0.087,0.175l-0.088,0.174l-0.052,0.175l-0.035,0.174l-0.087,0.035c-0.058,0.035 -0.087,0.07 -0.087,0.105l0,0.034l-1.605,2.792c-1.082,1.861 -1.64,2.85 -1.675,2.966l-0.035,0.174l-1.483,2.582c-0.989,1.71 -1.495,2.583 -1.518,2.617l-0.052,0.035l-0.053,0.175l-0.034,0.174l-1.78,3.053c-1.198,2.036 -1.826,3.112 -1.884,3.228l-0.088,0.174l-0.052,0.035l-0.035,0.053l-0.523,0l-0.524,0l-0.034,-0.053l-0.053,-0.035l-0.052,-0.034l-0.035,-0.053l-0.035,-0.052l-0.052,-0.035l-0.053,0l-0.034,0l-0.035,-0.174c-0.035,-0.117 -0.477,-0.844 -1.326,-2.181l-1.256,-2.007l-0.035,-0.087l-0.053,-0.087l-0.087,-0.175l-0.087,-0.174l-0.087,-0.174c-0.059,-0.117 -0.419,-0.727 -1.082,-1.832l-1.012,-1.658l-0.035,-0.087c-0.035,-0.058 -0.07,-0.087 -0.105,-0.087l-0.034,0l-0.035,-0.175l-0.053,-0.174l-0.052,-0.035l-0.035,-0.052l-0.035,-0.053l-0.052,-0.035l-0.087,-0.174c-0.059,-0.116 -0.826,-1.425 -2.303,-3.926l-2.234,-3.751l-0.034,-0.087c-0.035,-0.058 -0.722,-1.25 -2.059,-3.576c-1.338,-2.327 -4.641,-3.49 -9.91,-3.49l-7.886,0l0,5.06l0.035,4.187c0.035,2.791 0.07,4.303 0.105,4.536l0.035,0.349l0,11.689l-0.035,0l-0.052,0l-0.053,0.035l-0.035,0.052l-0.087,0l-0.087,0l-0.035,-0.052l-0.052,-0.035l-0.088,0.611l-0.087,0.61l-0.087,0.524l-0.087,0.523l-0.088,-0.174l-0.087,-0.175l-0.052,-0.035l-0.035,-0.052l-0.035,-0.052l-0.052,-0.035l-0.087,-2.355l-0.088,-2.356l-0.052,0l-0.035,0l-0.035,-7.589c-0.035,-5.059 -0.081,-8.898 -0.139,-11.515c-0.059,-2.617 -0.07,-4.129 -0.035,-4.536l0.035,-0.61l2.617,-0.035c1.744,-0.035 4.739,-0.07 8.985,-0.105l6.368,-0.035l0,0.209c0,0.152 2.221,3.967 6.664,11.445c4.455,7.468 6.7,11.259 6.735,11.376l0.035,0.174l0.261,0.035l0.262,0.052l0.523,0l0.035,-0.052l0.053,-0.035l0.052,-0.035l0.035,-0.052l0.174,-0.053l0.175,-0.034l0.035,-0.175c0.035,-0.116 2.087,-3.78 6.158,-10.991c4.071,-7.212 6.165,-10.992 6.281,-11.341c0.116,-0.348 0.029,-0.785 -0.262,-1.308l-0.436,-0.785l0.053,-0.035l0.034,-0.052l0.035,-0.053l0.053,-0.035l0.052,-0.035Zm18.04,1.92l-0.035,-0.053l0.035,-0.052c0.035,-0.023 0.052,-0.006 0.052,0.052l0,0.088l-0.052,-0.035Z" style="fill:#f3f0f3;stroke:#f3f0f3;stroke-width:0.09px;"/><path d="M92.293,98.713l0.174,-0.052l0.087,-0.053l0.088,-0.035l1.256,2.007c0.849,1.337 1.291,2.064 1.326,2.181l0.035,0.174l-0.035,0.087l-0.053,0.087l-0.052,-0.034l-0.035,-0.053l-0.174,-0.052l-0.175,-0.035l0.035,0.262l0.052,0.261l0.053,0.035l0.069,0.105l0.053,0.035l0.052,0.174l0.035,0.175l9.247,0l0.035,0.262l0.052,0.261l0,0.175l-0.052,0.035l-0.035,0.052l-0.035,0.052l-0.052,0.035l-0.088,0.175l-0.087,0.174l-1.657,2.704c-1.105,1.803 -1.687,2.763 -1.745,2.879l-0.087,0.174l-0.053,0.035l-0.034,0.053l-0.035,0.052l-0.053,0.035l-0.087,0.262l-0.087,0.261l-0.053,0.035l-0.034,0.053l-0.035,0.052l-0.053,0.035l-0.052,0.174l-0.035,0.175l0.524,0l-0.035,0.174c-0.035,0.117 -0.111,0.233 -0.227,0.349c-0.117,0.116 -0.39,0.244 -0.82,0.384c-0.442,0.151 -1.71,0.209 -3.804,0.174l-3.14,-0.034l-0.035,-0.088c-0.035,-0.058 -0.07,-0.087 -0.105,-0.087l-0.034,0l-0.035,-0.087c-0.035,-0.058 -0.07,-0.087 -0.105,-0.087l-0.035,0l-0.035,-0.175c-0.035,-0.116 -1.332,-2.268 -3.89,-6.455l-3.839,-6.281l-0.087,-0.174l-0.087,-0.175l-0.052,-0.035l-0.035,-0.052l-0.035,-0.052l-0.053,-0.035l-0.052,-0.175l-0.035,-0.174l0.087,0l0.053,0.035l0.07,0.104l0.052,0.035l0.052,-0.035l0.035,-0.052l0.035,-0.052l0.052,-0.035l0.053,0.035l0.035,0.052l0.523,0.174l0.087,0c0.058,0 1.28,-0.029 3.664,-0.087l3.577,-0.087l-0.035,-0.052l-0.053,-0.035l-0.052,-0.175l-0.035,-0.174l0.175,-0.035Z" style="fill:#9b022a;stroke:#9b022a;stroke-width:0.09px;"/><path d="M73.66,92.729l0.139,0.087l0.035,3.315c0.035,2.21 0.07,5.641 0.105,10.293l0.035,6.979l-4.188,0l-4.187,0l-0.035,-2.181c-0.035,-1.454 -0.069,-2.937 -0.104,-4.449l-0.035,-2.268l0,-5.844l0,-5.845l0.035,0c0.035,0 0.081,0.233 0.139,0.698l0.088,0.698l0.174,0.349l0.052,-0.262c0.024,-0.175 1.082,-0.192 3.176,-0.052c2.093,0.151 3.111,0.302 3.053,0.453c-0.058,0.14 0.058,0.221 0.349,0.244l0.436,0.053l0.035,0.052l0.104,0.07l0.035,0.052l0.175,0l0.035,-0.052l0.052,-0.035l0.087,-1.221c0.058,-0.814 0.128,-1.192 0.21,-1.134Z" style="fill:#9a032a;stroke:#9a032a;stroke-width:0.09px;"/><path d="M126.313,88.978l0.175,0l0.035,3.227c0.035,2.152 0.07,4.478 0.105,6.979l0.034,3.751l0.035,1.396c0.035,0.93 0.07,2.675 0.105,5.234l0.035,3.838l-4.187,0l-4.187,0l-0.035,-0.174c-0.035,-0.117 -0.093,-3.403 -0.175,-9.858l-0.139,-9.683l0.174,0c0.116,0 0.186,0.058 0.209,0.175c0.035,0.116 0.093,0.046 0.175,-0.21c0.093,-0.267 0.459,-0.401 1.099,-0.401l6.194,0l0.034,-0.052l0.053,-0.035l0.052,-2.094c0.023,-1.395 0.093,-2.093 0.209,-2.093Z" style="fill:#9e012a;stroke:#9e012a;stroke-width:0.09px;"/><path d="M133.501,84.529l0.14,-0.611l0.087,0l0.053,0.035l0.069,0.105l0.053,0.035l0.052,0.436l0.035,0.436l4.013,0c2.675,0 4.042,0.047 4.1,0.14c0.058,0.081 0.145,0.093 0.261,0.034l0.175,-0.087l0.349,0l-0.035,0.053l-0.052,0.034l-0.088,0.175c-0.058,0.116 -0.116,0.233 -0.174,0.349l-0.087,0.174l-0.053,0.262l-0.035,0.262l-0.139,1.047c-0.082,0.697 -0.093,2.704 -0.035,6.019c0.058,3.314 0.105,5.117 0.139,5.408l0.035,0.436l-0.174,0c-0.116,0 -0.204,0.686 -0.262,2.059c-0.058,1.361 -1.308,2.099 -3.751,2.216l-3.664,0.174l1.571,0.175l-0.698,0.087c-0.466,0.058 -0.756,0.116 -0.873,0.174c-0.116,0.058 -0.221,0.303 -0.314,0.733l-0.122,0.663l-0.087,0.174l-0.087,0.175l-0.053,-0.035l-0.034,-0.052l-0.035,-0.053l-0.053,-0.035l-0.052,0l-0.035,0l-0.035,-2.529c-0.035,-1.687 -0.07,-2.646 -0.105,-2.879l-0.034,-0.349l-0.035,-3.925c-0.035,-2.617 -0.053,-5.089 -0.053,-7.415c0,-2.326 0.041,-3.693 0.122,-4.1Z" style="fill:#ad0a30;stroke:#ad0a30;stroke-width:0.09px;"/><path d="M60.889,80.516l0.087,3.577l0.087,-0.436l0.087,-0.437l0.088,-1.221l0.087,-1.221l-0.087,3.402c-0.059,2.268 -0.105,3.414 -0.14,3.437l-0.035,0.052l-0.436,0.087l-0.436,0.088l0.61,0.052l0.611,0.035l0,0.174l-22.332,0.035c-14.887,0.035 -22.448,0.07 -22.68,0.105c-0.233,0.023 -0.361,2.71 -0.384,8.06l-0.052,8.026l0.052,0.035l0.035,0.052l29.834,0l0.034,-0.052l0.053,-0.035l0,-0.785c0,-0.524 -0.018,-0.844 -0.053,-0.96c-0.023,-0.116 -0.529,-0.174 -1.517,-0.174l-1.483,0l0,-0.175l0,-0.174l-2.617,-0.035l-2.617,-0.053l-0.349,-0.087l-0.349,-0.087l4.623,-0.174c3.082,-0.117 4.624,-0.192 4.624,-0.227l0,-0.035l0.209,0c0.151,0 0.139,0.116 -0.035,0.349c-0.174,0.232 -0.279,0.407 -0.314,0.523l-0.035,0.175l0.087,0l0.053,0.087l0.035,0.087l0.087,0.838c0.058,0.546 0.203,0.878 0.436,0.994c0.233,0.116 0.436,0.204 0.611,0.262l0.261,0.087l0.035,0.052l0.105,0.07l0.07,0.105l0.052,0.035l0,0.523l-0.052,-0.035l-0.035,-0.052l-0.035,-0.053l-0.053,-0.034l-0.052,-0.035l-0.035,-0.053l-0.035,-0.052l-0.052,-0.035l-0.052,0.035l-0.035,0.052l-0.035,0.053l-0.052,0.035l-0.053,0.174l-0.035,0.174l-0.174,0.035l-0.175,0.053l-0.174,0.087c-0.116,0.058 -5.089,0.105 -14.917,0.14l-14.742,0.034l-0.96,-0.034c-0.64,-0.035 -1.029,-0.094 -1.169,-0.175l-0.227,-0.14l-0.052,-0.034l-0.035,-0.053l-0.035,-0.052l-0.052,-0.035l-0.052,-0.035l-0.035,-0.052l-0.175,-0.053l-0.174,-0.034l0.209,0.348c0.151,0.233 0.244,0.408 0.279,0.524l0.035,0.174l-0.174,-0.035l-0.175,-0.052l-0.035,-0.052l-0.052,-0.035l-0.052,-0.035l-0.035,-0.052l-0.035,-0.053l-0.052,-0.035l-0.088,-0.261l-0.087,-0.262l0,-0.436c0,-0.291 -0.029,-3.286 -0.087,-8.985c-0.058,-5.699 -0.058,-8.694 0,-8.985c0.058,-0.291 0.244,-0.564 0.558,-0.82c0.326,-0.268 7.845,-0.46 22.559,-0.576c14.713,-0.116 22.139,-0.215 22.279,-0.296c0.151,-0.094 0.267,-1.187 0.349,-3.28l0.139,-3.141l0,-0.785c0,-0.523 -0.069,-0.843 -0.209,-0.959l-0.227,-0.175l0.053,-0.035l0.034,-0.052l0.175,-0.087c0.116,-0.059 0.174,-0.105 0.174,-0.14l0,-0.035l0.437,-0.384c0.29,-0.267 0.494,-0.418 0.61,-0.453c0.117,-0.024 0.128,0.11 0.035,0.401c-0.081,0.291 -0.093,0.465 -0.035,0.523c0.058,0.058 0.117,1.28 0.175,3.664Z" style="fill:#4c4e4e;stroke:#4c4e4e;stroke-width:0.09px;"/><path d="M132.734,109.303l0.035,-0.611l0.872,1.431c0.582,0.965 1.221,1.739 1.919,2.32c0.698,0.582 1.541,1.047 2.53,1.396c0.989,0.349 1.919,0.582 2.791,0.698c0.873,0.116 7.212,0.204 19.017,0.262c11.806,0.058 19.453,0.104 22.943,0.139l5.234,0.035l-0.088,0.14c-0.058,0.081 0.349,0.151 1.222,0.209l1.308,0.087l0.175,0.053l0.174,0.035l0,0.349l0.174,0.034l0.175,0.053l0.035,0.052l0.052,0.035l0,0.523l-0.052,0.035l-0.035,0.053l-0.035,0.052l-0.052,0.035l-0.053,0.035l-0.035,0.052l-1.221,0.087c-0.814,0.058 -2.937,0.105 -6.368,0.14l-5.147,0.035l-18.144,-0.035c-12.096,-0.035 -18.901,-0.198 -20.413,-0.489c-1.512,-0.29 -2.704,-0.639 -3.576,-1.046c-0.872,-0.407 -1.745,-1.018 -2.617,-1.832l-1.309,-1.222l-0.035,-0.052l-0.052,-0.035l-0.052,-0.035l-0.035,-0.052l-0.035,-0.052l-0.052,-0.035l-0.053,-0.175l-0.035,-0.174l0.21,0.087c0.151,0.058 0.244,0.145 0.279,0.262c0.023,0.116 0.093,0.163 0.209,0.139l0.175,-0.052l-0.035,-0.052l-0.052,-0.035l0,-0.175l0,-0.174l0.052,-0.035l0.035,-0.052l0.035,-0.053l0.052,-0.035l0,-0.087l0,-0.087l-0.087,-0.785c-0.058,-0.524 -0.07,-0.989 -0.035,-1.396Z" style="fill:#646566;stroke:#646566;stroke-width:0.09px;"/><path d="M59.406,78.719l0.261,0.314l-0.139,3.141c-0.082,2.093 -0.198,3.186 -0.349,3.28c-0.14,0.081 -7.566,0.18 -22.279,0.296c-14.714,0.116 -22.233,0.308 -22.559,0.576c-0.314,0.256 -0.5,0.529 -0.558,0.82c-0.058,0.291 -0.058,3.286 0,8.985c0.058,5.699 0.087,8.694 0.087,8.985l0,0.436l0.052,0.035c0.024,0.035 0.064,0.012 0.123,-0.07l0.087,-0.139l0.174,0.034l0.175,0.053l0.035,0.052l0.104,0.07l0.07,0.105l0.052,0.034l0.227,0.14c0.14,0.081 0.529,0.14 1.169,0.175l0.96,0.034l0,0.088l1.744,0.174l0.349,0.175l-0.872,0.087l-0.872,0.087l-0.349,0.087l-0.349,0.088l0.349,0.174l15.876,0.174l-3.838,0.088l-3.838,0.087l-0.349,0.087l-0.349,0.087l10.119,0.175l-0.698,0.087l-0.698,0.087l4.885,0.175l0,0.087l-11.602,-0.035c-7.735,-0.035 -11.689,-0.07 -11.864,-0.105l-0.261,-0.034l0,-0.035c0,-0.035 -0.175,-0.14 -0.524,-0.314c-0.349,-0.175 -0.686,-0.512 -1.012,-1.012c-0.314,-0.489 -0.511,-3.728 -0.593,-9.718l-0.139,-8.985l0.035,-0.523c0.034,-0.349 0.151,-0.727 0.348,-1.134l0.314,-0.611l0.698,-0.489c0.466,-0.314 3.402,-0.529 8.811,-0.645c5.408,-0.116 12.707,-0.192 21.895,-0.227l13.783,-0.035l0,-1.832l0,-1.832l0.087,0l0.088,-1.046c0.058,-0.698 0.221,-1.059 0.488,-1.082c0.256,-0.035 0.471,0.046 0.646,0.244Zm-45.1,27.531c0,-0.116 0.058,-0.175 0.175,-0.175c0.116,0 0.174,0.059 0.174,0.175l0,0.174l-0.174,0c-0.117,0 -0.175,-0.058 -0.175,-0.174Z" style="fill:#f8f2f4;stroke:#f8f2f4;stroke-width:0.09px;"/><path d="M127.884,93.514l0.087,-9.072l0.087,0l0.175,14.969c0.116,9.968 0.116,15.01 0,15.126c-0.117,0.116 -1.978,0.145 -5.583,0.087c-3.606,-0.058 -5.525,-0.104 -5.758,-0.139l-0.349,-0.035l-0.087,-0.035c-0.058,-0.035 -0.099,-0.07 -0.122,-0.105c-0.035,-0.023 -0.052,-4.193 -0.052,-12.509c0,-8.316 -0.099,-12.486 -0.297,-12.509c-0.209,-0.035 -0.558,0.279 -1.047,0.942c-0.5,0.674 -3.001,4.897 -7.502,12.666c-4.513,7.758 -8.165,11.666 -10.956,11.724l-4.187,0.087l-0.175,-0.087l-0.174,-0.087l-0.035,-0.052l-0.053,-0.035l-0.052,-0.035l-0.035,-0.052l-0.174,-0.088l-0.175,-0.087l0,-0.052l0,-0.035l-0.035,-0.087l-0.052,-0.088l-0.052,-0.174l-0.035,-0.175l0.174,-0.034l0.175,-0.053l0.035,-0.052l0.052,-0.035l0.052,0.035l0.07,0.105l0.052,0.034l0.088,-0.348l0.087,-0.349l0.087,0l0,0.087l0.087,0.052l0.088,0.035l0,0.087l0.087,0.053l0.087,0.035l3.14,0.034c2.094,0.035 3.362,-0.023 3.804,-0.174c0.43,-0.14 0.703,-0.268 0.82,-0.384c0.116,-0.116 0.192,-0.232 0.227,-0.349l0.035,-0.174l0,-0.035l0,-0.052l0.034,-0.053l0.053,-0.035l0.052,-0.035l0.035,-0.052l0.035,-0.052l0.052,-0.035l0.053,-0.035l0.034,-0.052l0.035,-0.053l0.053,-0.035l0.087,-0.174l0.087,-0.175l0.087,-0.174c0.059,-0.116 1.291,-2.239 3.699,-6.368l3.629,-6.194l0,-0.035l0,-0.052l0.035,-0.052l0.052,-0.035l0.053,-0.035c0.023,-0.035 0.558,-0.965 1.605,-2.791l1.57,-2.757l0,-0.035c0,-0.035 0.61,-1.175 1.832,-3.419l1.832,-3.35l0.174,-0.21c0.116,-0.151 0.186,-0.244 0.209,-0.279l0.053,-0.035l0.052,-0.034l0.035,-0.053l0.611,-0.052l0.61,-0.035l0.698,0l0.035,2.966c0.035,1.977 0.07,3.373 0.105,4.187l0.035,1.221l0.139,9.683c0.082,6.455 0.14,9.741 0.175,9.858l0.035,0.174l8.374,0l-0.035,-3.838c-0.035,-2.559 -0.07,-4.304 -0.105,-5.234l-0.035,-1.396l0.21,0.262c0.151,0.174 0.256,0.058 0.314,-0.349l0.087,-0.611l0.087,-0.785l0.088,-0.785l0.174,3.315l0.087,-0.698l0.087,-0.698l0.088,-9.072Z" style="fill:#ece7e8;stroke:#ece7e8;stroke-width:0.09px;"/><path d="M34.754,94.212l0.052,-0.349l0.052,0.035l0.07,0.104l0.105,0.07l0.07,0.105l0.052,0.035l0.052,0.523c0.024,0.349 0.617,0.593 1.78,0.733c1.163,0.151 4.536,0.285 10.119,0.401c5.583,0.116 8.52,0.204 8.81,0.262l0.437,0.087l0.348,0.175l0.349,0.052l0.349,0.035l0,0.698l-0.261,0.035l-0.262,0.052l-0.262,0.087l-0.261,0.087l0.034,0.053l0.105,0.069l0.035,0.053l-2.181,0.087c-1.454,0.058 -2.326,0.105 -2.617,0.14c-0.291,0.023 -0.436,0.093 -0.436,0.209c0,0.116 -0.174,0.262 -0.523,0.436l-0.524,0.262l-0.209,0c-0.151,0 -0.244,0.087 -0.279,0.262l-0.035,0.261l-0.087,-0.035c-0.059,-0.035 -2.559,-0.069 -7.502,-0.104l-7.415,-0.035l0,-2.268l0,-2.268l0.035,-0.349Z" style="fill:#a8102b;stroke:#a8102b;stroke-width:0.09px;"/><path d="M34.579,94.124l-0.035,-0.436l23.728,0l0,6.63l-0.14,3.926c-0.081,2.617 -0.139,3.925 -0.174,3.925l-0.035,0l0,-0.174c0,-0.117 -0.058,-0.175 -0.175,-0.175c-0.116,0 -0.244,-0.262 -0.384,-0.785c-0.151,-0.523 -0.418,-0.832 -0.802,-0.925c-0.372,-0.081 -0.355,-0.18 0.052,-0.296l0.611,-0.175l-0.785,-0.087c-0.524,-0.058 -0.611,-0.145 -0.262,-0.262c0.349,-0.116 -0.233,-0.203 -1.745,-0.261l-2.268,-0.088l1.92,-0.052c1.279,-0.023 1.919,-0.093 1.919,-0.209l0,-0.175l-2.007,-0.035l-2.006,-0.052l2.617,-0.087l2.617,-0.087l-2.879,-0.088l-2.878,-0.087l0.034,-0.052c0.035,-0.024 0.07,-0.047 0.105,-0.07l0.035,-0.052l2.53,-0.088l2.529,-0.087l-2.704,-0.052l-2.704,-0.035l0,-0.175l0,-0.174l1.396,-0.035l1.396,-0.052l-1.483,-0.088c-0.989,-0.058 -1.309,-0.145 -0.96,-0.261c0.349,-0.117 0.291,-0.204 -0.174,-0.262l-0.698,-0.087l1.046,-0.087l1.047,-0.088l-0.698,-0.087c-0.465,-0.058 -0.843,-0.116 -1.134,-0.174c-0.29,-0.058 -0.349,-0.117 -0.174,-0.175c0.174,-0.058 0.157,-0.128 -0.052,-0.209c-0.198,-0.093 -0.105,-0.186 0.279,-0.279c0.372,-0.082 0.354,-0.14 -0.053,-0.175c-0.407,-0.023 -0.61,-0.093 -0.61,-0.209c0,-0.116 0.116,-0.186 0.349,-0.209c0.232,-0.035 0.232,-0.07 0,-0.105c-0.233,-0.023 -0.338,-0.093 -0.314,-0.209c0.035,-0.117 0.011,-0.437 -0.07,-0.96l-0.14,-0.785l0.524,-0.262c0.349,-0.174 0.523,-0.32 0.523,-0.436c0,-0.116 0.145,-0.186 0.436,-0.209c0.291,-0.035 1.163,-0.082 2.617,-0.14l2.181,-0.087l-0.035,-0.053l-0.052,-0.034l-0.053,-0.035l-0.034,-0.053l0.261,-0.087l0.262,-0.087l0.262,-0.052l0.261,-0.035l0,-0.349l0,-0.349l-0.349,-0.035l-0.349,-0.052l-0.174,-0.088l-0.174,-0.087l-0.437,-0.087c-0.29,-0.058 -3.227,-0.146 -8.81,-0.262c-5.583,-0.116 -8.956,-0.25 -10.119,-0.401c-1.163,-0.14 -1.756,-0.384 -1.78,-0.733l-0.052,-0.523l-0.052,-0.035l-0.035,-0.053l-0.035,-0.052l-0.053,-0.035l-0.052,-0.035l-0.035,-0.052l-0.035,-0.052l-0.052,-0.035l-0.052,0.349l-0.035,0.349l-0.035,0c-0.035,0 -0.07,-0.146 -0.105,-0.437Z" style="fill:#a00d31;stroke:#a00d31;stroke-width:0.09px;"/><path d="M107.087,85.052l0.035,-0.087l0.14,0.087c0.081,0.058 0.139,0.099 0.174,0.122l0.035,0.053l3.838,0.087c2.559,0.058 3.839,0.145 3.839,0.262c0,0.116 0.058,0.203 0.174,0.261c0.116,0.059 0.175,0.105 0.175,0.14l0,0.035l-1.832,3.35c-1.222,2.244 -1.832,3.384 -1.832,3.419l0,0.035l-0.087,-0.035c-0.059,-0.035 -1.425,-0.11 -4.1,-0.227l-4.013,-0.174l-0.175,0.052l-0.174,0.035l0,-0.174l0,-0.175l0.349,0l0.035,-0.174l0.052,-0.175l0,-0.262c0,-0.174 -0.017,-0.29 -0.052,-0.348l-0.035,-0.088l0.035,-0.174c0.035,-0.116 0.593,-1.105 1.675,-2.966l1.605,-2.792l0.035,0c0.035,0 0.069,-0.029 0.104,-0.087Z" style="fill:#b73032;stroke:#b73032;stroke-width:0.09px;"/><path d="M65.285,87.931l-0.035,-4.187l0.14,0.087c0.081,0.058 0.151,0.669 0.209,1.832l0.088,1.745l0.087,-0.349l0.087,-0.349l0.052,-0.035l0.035,-0.053l0.035,-0.052l0.052,-0.035l0.088,-0.174l0.087,-0.175l-0.052,-0.209c-0.024,-0.151 0.034,-0.268 0.174,-0.349c0.151,-0.093 0.186,-0.186 0.105,-0.279c-0.093,-0.082 -0.012,-0.198 0.244,-0.349c0.267,-0.14 0.384,-0.221 0.349,-0.244c-0.023,-0.035 0.198,-0.082 0.663,-0.14l0.698,-0.087l-0.698,-0.087l-0.698,-0.088l0.174,-0.087l0.175,-0.087l0.523,0l0.035,0.052l0.053,0.035l0.052,-0.035l0.035,-0.052l2.093,-0.087c1.396,-0.058 2.443,-0.058 3.141,0l1.047,0.087l0.034,0.052l0.105,0.07l0.035,0.052l0.523,0.175l0.035,0.052l0.105,0.07l0.035,0.052l-0.698,0.053l-0.698,0.035l0,8.025l-0.139,-0.087c-0.082,-0.058 -0.152,0.32 -0.21,1.134l-0.087,1.221l-0.052,0.035l-0.035,0.052l-0.087,0l-0.088,0l-0.035,-0.052l-0.052,-0.035l-0.052,-0.035l-0.035,-0.052l-0.436,-0.053c-0.291,-0.023 -0.407,-0.104 -0.349,-0.244c0.058,-0.151 -0.96,-0.302 -3.053,-0.453c-2.094,-0.14 -3.152,-0.123 -3.176,0.052l-0.052,0.262l-0.087,-0.175l-0.087,-0.174l-0.088,-0.698c-0.058,-0.465 -0.104,-0.698 -0.139,-0.698l-0.035,0l-0.035,-0.349c-0.035,-0.233 -0.07,-1.745 -0.105,-4.536Z" style="fill:#b53334;stroke:#b53334;stroke-width:0.09px;"/><path d="M142.19,99.271l0.174,0l0.14,3.228c0.081,2.152 0.279,3.472 0.593,3.96c0.326,0.5 0.721,0.867 1.187,1.099c0.465,0.233 0.93,0.367 1.395,0.402l0.698,0.035l0,0.087l41.698,0.174l0.034,0.053l0.053,0.034l0.052,0.96l0.035,0.96l-0.035,0l-0.052,0l-0.087,-0.262l-0.088,-0.262l-0.052,0l-0.035,0l-0.035,-0.436c-0.035,-0.291 -0.07,-0.424 -0.105,-0.401c-0.023,0.035 -8.787,0.052 -26.292,0.052c-17.504,0 -26.373,0.018 -26.606,0.052l-0.349,0.035l-0.034,-0.087c-0.035,-0.058 -0.07,-0.087 -0.105,-0.087l-0.035,0l-0.035,-0.087c-0.035,-0.059 -0.151,-0.582 -0.349,-1.571l-0.314,-1.483l0.087,0l0.053,0.035l0.069,0.105l0.053,0.035l0.087,-0.175l0.087,-0.174l0.122,-0.663c0.093,-0.43 0.198,-0.675 0.314,-0.733c0.117,-0.058 0.407,-0.116 0.873,-0.174l0.698,-0.087l-0.785,-0.088l-0.786,-0.087l3.664,-0.174c2.443,-0.117 3.693,-0.855 3.751,-2.216c0.058,-1.373 0.146,-2.059 0.262,-2.059Z" style="fill:#7a0520;stroke:#7a0520;stroke-width:0.09px;"/><path d="M102.15,93.653l1.483,-2.582l0.035,0.088c0.035,0.058 0.052,0.174 0.052,0.348l0,0.262l-0.052,0.262c-0.023,0.174 1.302,0.331 3.978,0.471c2.675,0.151 4.041,0.244 4.1,0.279l0.087,0.035l-1.57,2.757c-1.047,1.826 -1.582,2.756 -1.605,2.791l-0.053,0.035l-0.052,0.035l-0.035,0.052l0,0.087l-0.087,-0.035l-0.088,-0.052l-0.174,-0.087c-0.116,-0.058 -0.145,-0.186 -0.087,-0.384c0.058,-0.209 -1.105,-0.326 -3.49,-0.349l-3.576,-0.052l-0.035,-0.053l-0.052,-0.034l-0.053,-0.035l-0.035,-0.053l-0.034,-0.052l-0.053,-0.035l-0.052,-0.035l-0.035,-0.052l0.035,-0.052l0.052,-0.035l0.053,-0.262l0.034,-0.262l-0.174,0l-0.174,0l0.034,-0.174l0.053,-0.175l0.052,-0.035c0.023,-0.034 0.529,-0.907 1.518,-2.617Z" style="fill:#ae1b2e;stroke:#ae1b2e;stroke-width:0.09px;"/><path d="M3.803,84.354l0.035,-0.261l0.175,0c0.116,0 0.174,0.116 0.174,0.349l0,0.349l-0.035,3.751c-0.035,2.5 -0.035,3.983 0,4.448l0.035,0.698l0,3.141l6.804,0l0.14,1.308c0.081,0.873 0.14,1.599 0.174,2.181l0.035,0.872l0,1.658c0,1.105 -0.116,1.669 -0.349,1.692c-0.232,0.035 -0.261,0.07 -0.087,0.105c0.175,0.023 0.262,0.093 0.262,0.209c0,0.116 -0.047,0.204 -0.14,0.262c-0.081,0.058 -0.197,0.134 -0.349,0.227c-0.139,0.081 -0.354,0.151 -0.645,0.209l-0.436,0.087l0.035,0.053l0.104,0.069l0.035,0.053l-0.698,0.087l-0.698,0.087l0.698,0.175l2.268,0.174l-3.053,0.087l-3.053,0.088l0.035,0.052l0.105,0.07l0.069,0.104l0.105,0.07l0.035,0.053l-0.175,0.087l-0.174,0.087l2.094,0.174l-0.035,0.053l-0.053,0.035l-0.052,0.035l-0.035,0.052l-0.611,0.087l-0.61,0.087l5.234,0.175l-1.745,0.087l-1.744,0.087l-0.611,0.088l-0.611,0.087l3.839,0.174l0.034,0.053l0.105,0.069l0.035,0.053l0.436,0.052l0.436,0.035l0,0.087l-0.785,0.087l-0.785,0.088l-1.483,0.087l-1.483,0.087l0.436,0.087c0.291,0.059 0.146,0.117 -0.436,0.175l-0.872,0.087l1.396,0.175l-0.035,0.052l-0.053,0.035l-0.052,0.174l-0.035,0.175l3.053,0.139c2.036,0.082 8.956,0.151 20.762,0.21c11.805,0.058 17.621,0.116 17.446,0.174c-0.174,0.058 0.378,0.116 1.658,0.175l1.919,0.087l0.698,0.174l0,0.087l-1.745,0.035c-1.163,0.035 -2.123,0.082 -2.879,0.14l-1.134,0.087l2.617,0.175l-17.621,0.052c-11.747,0.023 -17.621,0.093 -17.621,0.209c0,0.117 -1.105,0.186 -3.315,0.21l-3.314,0.052l0.697,0.349l0.035,0.052l0.105,0.07l0.035,0.052l0.523,0.175l-0.349,0l-0.349,0l-0.261,-0.052l-0.262,-0.035l0,0.349l-0.174,-0.035l-0.175,-0.053l-0.174,-0.087c-0.117,-0.058 -0.454,-0.302 -1.012,-0.733c-0.547,-0.442 -1.053,-1.041 -1.518,-1.797l-0.698,-1.134l-0.087,-0.349l-0.088,-0.349l-0.052,0l-0.035,0l-0.035,-0.523c-0.035,-0.349 -0.093,-3.838 -0.174,-10.468l-0.14,-9.944l0.035,-0.524l0.053,-0.523l0.052,-0.035l0.035,-0.052l-0.035,-0.053l-0.052,-0.035l-0.053,-0.035l-0.035,-0.052l0.035,-0.052l0.053,-0.035l0.087,-0.698c0.058,-0.465 0.104,-0.785 0.139,-0.96Z" style="fill:#960126;stroke:#960126;stroke-width:0.09px;"/><path d="M4.152,88.542l0.035,-3.751l0.035,0.697l0.052,0.698l0.053,-0.035l0.035,-0.052l0.035,-0.052l0.052,-0.035l0.052,-0.035l0.035,-0.052l1.57,-0.262c1.047,-0.175 2.356,-0.262 3.926,-0.262c1.57,0 2.442,-0.041 2.617,-0.122c0.174,-0.093 0.261,-0.052 0.261,0.122l0,0.262l-0.314,0.611c-0.197,0.407 -0.314,0.785 -0.348,1.134l-0.035,0.523l-0.14,2.791c-0.081,1.861 -0.151,3.926 -0.209,6.194l-0.088,3.402l-0.052,0.436l-0.035,0.436l-0.174,0l-0.175,0l-0.035,-0.872c-0.034,-0.582 -0.093,-1.308 -0.174,-2.181l-0.14,-1.308l0.524,0l-0.035,-1.047l-0.052,-1.047l-0.053,-0.035l-0.035,-0.052l-0.436,-0.087c-0.291,-0.059 -1.221,-0.117 -2.791,-0.175c-1.571,-0.058 -2.268,-0.116 -2.094,-0.174c0.175,-0.058 -0.087,-0.163 -0.785,-0.314l-1.047,-0.21l-0.035,-0.698c-0.035,-0.465 -0.035,-1.948 0,-4.448Z" style="fill:#b52933;stroke:#b52933;stroke-width:0.09px;"/><path d="M126.174,81.563l0.139,-0.087l0.035,2.966c0.035,1.977 0.07,3.227 0.105,3.751l0.035,0.785l-0.175,0c-0.116,0 -0.186,0.698 -0.209,2.093l-0.052,2.094l-0.053,0.035l-0.034,0.052l-2.617,0c-1.745,0 -2.937,0 -3.577,0c-0.64,0 -1.006,0.134 -1.099,0.401c-0.082,0.256 -0.14,0.326 -0.175,0.21c-0.023,-0.117 -0.093,-0.175 -0.209,-0.175l-0.174,0l-0.035,-1.221c-0.035,-0.814 -0.07,-2.21 -0.105,-4.187l-0.035,-2.966l-0.349,0l-0.349,0l0,-0.035l0,-0.052l0.262,-0.053l0.262,-0.035l0,-0.174l0,-0.174l-0.262,-0.035l-0.262,-0.053l-0.035,-0.052l-0.052,-0.035l-0.052,-0.035l-0.035,-0.052l1.047,0l0.034,0.052l0.105,0.07l0.035,0.052l0.175,0.576c0.116,0.372 0.378,0.57 0.785,0.593c0.407,0.035 0.523,0.082 0.349,0.14c-0.175,0.058 0.814,0.104 2.965,0.139l3.228,0.035l0.035,-0.349c0.035,-0.232 0.081,-0.988 0.14,-2.268c0.058,-1.279 0.128,-1.948 0.209,-2.006Z" style="fill:#b52633;stroke:#b52633;stroke-width:0.09px;"/><path d="M89.327,94.473l0.349,0l-0.035,-0.052l-0.053,-0.035l-0.052,-0.035l-0.035,-0.052l0.262,-0.052l0.262,-0.035l0,0.035c0,0.035 0.029,0.069 0.087,0.104l0.087,0.035l1.012,1.658c0.663,1.105 1.023,1.715 1.082,1.832l0.261,0.523l0.053,0.087l0.035,0.087l-0.088,0.035l-0.087,0.053l-0.174,0.052l-0.175,0.035l0.035,0.174l0.052,0.175l0.053,0.035l0.035,0.052l-3.577,0.087c-2.384,0.058 -3.606,0.087 -3.664,0.087l-0.087,0l-0.262,-0.087l-0.261,-0.087l-0.035,-0.052l-0.053,-0.035l-0.052,0.035l-0.035,0.052l-0.035,0.052l-0.052,0.035l-0.052,-0.035l-0.035,-0.052l-0.035,-0.052l-0.053,-0.035l-0.052,0l-0.035,0l-0.035,0c-0.035,0 -0.488,-0.727 -1.361,-2.181l-1.308,-2.181l-0.052,-0.035l-0.035,-0.052l-0.035,-0.052l-0.052,-0.035l-0.053,-0.035l-0.035,-0.053l-0.035,-0.052l-0.052,-0.035l-0.052,-0.174l-0.035,-0.175l0.262,0.035c0.174,0.035 1.25,0.052 3.227,0.052c1.977,0 3.268,0.041 3.873,0.123c0.617,0.093 0.908,0.151 0.873,0.174c-0.024,0.035 0.081,0.052 0.314,0.052Z" style="fill:#aa0f2f;stroke:#aa0f2f;stroke-width:0.09px;"/><path d="M75.858,101.801l-0.052,-12.3l0.174,0.698l0.052,0.035l0.07,0.105l0.052,0.034l0.175,0.349l0,0.175l0.471,2.355c0.326,1.57 0.547,2.355 0.663,2.355c0.116,0 0.204,0.07 0.262,0.21c0.058,0.151 0.174,0.198 0.349,0.139c0.174,-0.058 0.331,0.163 0.471,0.663c0.151,0.489 0.209,0.733 0.174,0.733l-0.035,0l-0.035,-0.087c-0.035,-0.058 -0.069,-0.087 -0.104,-0.087l-0.035,0l-0.262,0.035l-0.262,0.052l-0.035,0.052l-0.052,0.035l-0.052,0.035l-0.035,0.052l-0.035,0.053l-0.052,0.035l-0.053,9.508c-0.023,6.339 -0.122,9.555 -0.296,9.648c-0.175,0.081 -2.734,0.093 -7.677,0.035c-4.943,-0.058 -7.461,-0.163 -7.554,-0.314c-0.082,-0.14 -0.151,-0.791 -0.21,-1.954c-0.058,-1.163 -0.116,-1.919 -0.174,-2.268l-0.087,-0.524l-0.053,-0.035l-0.034,-0.052l-0.035,-0.052l-0.053,-0.035l-0.052,-0.035l-0.035,-0.052l-0.174,0l-0.175,0l-0.174,0.052l-0.175,0.035l-0.035,0.174l-0.052,0.175l-0.052,0.035l-0.035,0.052l-0.035,0.052l-0.052,0.035l-0.82,1.082c-0.559,0.733 -1.14,1.314 -1.745,1.745c-0.617,0.442 -0.942,0.674 -0.977,0.697l-0.035,0.053l-0.175,0.052l-0.174,0.035l-0.087,0l-0.087,0l-0.175,-0.035l-0.174,-0.052l0.035,-0.053l0.052,-0.034l0.052,-0.035l0.035,-0.053l0.175,-0.087l0.174,-0.087l0.174,-0.087l0.175,-0.088l0.035,-0.052l0.052,-0.035l0.053,-0.035l0.034,-0.052l0.035,-0.052l0.053,-0.035l0,-0.262l0,-0.262l-0.053,-0.174l-0.035,-0.175l-0.174,0l-0.175,0l0,-0.174l0,-0.175l-0.261,0.035l-0.262,0.053l-0.174,0.087l-0.175,0.087l-0.174,0.087l-0.175,0.088l-0.035,0.052l-0.052,0.035l0,-0.175l0,-0.174l0.052,-0.035l0.035,-0.052l0,-0.053l0,-0.035l0,-0.034l0,-0.053l0.175,-0.087l0.174,-0.087l0.175,-0.087c0.116,-0.059 0.29,-0.175 0.523,-0.349c0.233,-0.175 0.611,-0.582 1.134,-1.222c0.523,-0.639 0.971,-1.5 1.343,-2.582c0.384,-1.07 0.617,-4.018 0.698,-8.845l0.14,-7.241l0,-0.261l0,-0.262l-0.175,-0.035c-0.116,-0.035 -4.361,-0.093 -12.736,-0.174l-12.561,-0.14l0,-0.035l0,-0.052l12.91,-0.087c8.607,-0.058 12.957,0.244 13.05,0.907c0.082,0.674 0.14,0.925 0.175,0.75c0.023,-0.174 0.093,-0.262 0.209,-0.262c0.117,0 0.186,0.873 0.21,2.617l0.052,2.617l0.174,1.396l0.088,-4.1c0.058,-2.733 0.116,-4.245 0.174,-4.536l0.087,-0.436l0.053,-0.035l0.035,-0.052l-0.035,-0.053l-0.053,-0.035l-0.052,-0.034l-0.035,-0.053l0.035,-0.052l0.052,-0.035l0.053,-0.035l0.035,-0.052l-0.035,-0.053l-0.053,-0.035l-0.052,-0.034l-0.035,-0.053l-0.523,0l-0.524,0l-0.035,0.053l-0.052,0.034l-0.052,0.035c-0.024,0.035 0.011,0.093 0.104,0.175c0.082,0.093 0.047,0.244 -0.104,0.453c-0.14,0.198 -4.746,0.338 -13.818,0.419l-13.608,0.14l0,0.349l0.087,0l0.052,0.087l0.035,0.087l0.349,0l-0.349,0.087c-0.233,0.059 -0.337,1.454 -0.314,4.188l0.052,4.1l0.053,-0.035l0.035,-0.053l14.829,0l0.035,0.053l0.105,0.069l0.035,0.053l0.174,0.052l0.175,0.035l0,0.349l-0.262,-0.035l-0.262,-0.052l-0.349,0l-0.349,0l-0.436,0.052l-0.436,0.035l0.035,0.174c0.035,0.117 0.07,0.175 0.105,0.175l0.035,0l0,0.035c0,0.035 -1.542,0.11 -4.624,0.227l-4.623,0.174l0.698,0.174l2.617,0.053l2.617,0.035l0,0.349l-5.583,-0.035c-3.722,-0.035 -5.67,-0.07 -5.845,-0.105l-0.262,-0.035l0.035,-6.019c0.035,-4.013 0.152,-6.066 0.349,-6.159c0.21,-0.081 5.228,-0.139 15.057,-0.174l14.742,-0.035l0.349,0l0.035,2.966c0.035,1.977 0.081,5.001 0.139,9.072l0.088,6.107l0.122,-0.524c0.093,-0.349 0.343,-0.523 0.75,-0.523l0.611,0l0,5.234l0.035,0.872c0.034,0.582 0.093,0.884 0.174,0.907c0.093,0.035 0.285,0.14 0.576,0.314c0.291,0.175 2.122,0.291 5.495,0.349c3.373,0.058 5.234,-0.011 5.583,-0.209c0.349,-0.209 0.512,-4.414 0.489,-12.614Zm-14.411,-9.648c0.035,-0.023 0.07,-0.023 0.105,0c0.023,0.035 0.005,0.052 -0.053,0.052c-0.058,0 -0.075,-0.017 -0.052,-0.052Zm-29.52,9.299c0.233,-0.349 0.407,-0.541 0.524,-0.576c0.116,-0.023 0,0.152 -0.349,0.524c-0.349,0.384 -0.407,0.401 -0.175,0.052Z" style="fill:#3e3f40;stroke:#3e3f40;stroke-width:0.09px;"/><path d="M109.39,74.881l0,-0.035l10.032,0.087c6.688,0.058 10.078,0.204 10.171,0.436c0.082,0.233 0.152,0.96 0.21,2.181l0.087,1.832l0.175,0.698l0.052,0.035l0.07,0.105l0.104,0.069l0.035,0.053l0.873,0l0.034,-0.053l0.053,-0.035l0.087,-0.174l0.087,-0.175l0.053,-0.034l0.034,-0.053l1.135,-1.395c0.756,-0.931 1.541,-1.629 2.355,-2.094c0.814,-0.465 1.279,-0.715 1.396,-0.75l0.174,-0.035l0,0.087l0.087,0.052l0.087,0.035l0,0.035c0,0.035 -0.145,0.111 -0.436,0.227c-0.29,0.116 -0.855,0.483 -1.692,1.099c-0.849,0.605 -1.303,1.053 -1.361,1.344c-0.058,0.29 0,0.61 0.175,0.959c0.174,0.349 0.57,0.349 1.186,0c0.605,-0.349 0.896,-0.465 0.872,-0.349c-0.035,0.116 -0.244,0.291 -0.628,0.524c-0.372,0.232 -0.616,0.465 -0.733,0.697l-0.174,0.349l-0.087,0.035c-0.058,0.035 -0.087,0.07 -0.087,0.105l0,0.035l-0.088,0.035c-0.058,0.035 -0.087,0.07 -0.087,0.104l0,0.035l-1.082,2.443c-0.732,1.628 -1.07,5.67 -1.012,12.125c0.059,6.455 0.117,9.799 0.175,10.032l0.087,0.349l0.175,0.349l0.174,0.523l0.175,0.349l0.087,0l0.139,0.524c0.082,0.349 0.14,0.61 0.175,0.785l0.035,0.261l-0.035,0.611c-0.035,0.407 -0.023,0.872 0.035,1.396l0.087,0.785l0,0.174l-0.052,0.035l-0.035,0.053l-0.035,0.052l-0.052,0.035l0,0.349l0.052,0.035l0.035,0.052l-0.175,0l-0.174,0l-0.035,-0.052l-0.052,-0.035l-0.053,0l-0.035,0l-0.035,-0.087c-0.034,-0.059 -0.069,-0.088 -0.104,-0.088l-0.035,0l-0.035,-0.087c-0.035,-0.058 -0.07,-0.087 -0.105,-0.087l-0.035,0l-0.034,-0.087l-0.053,-0.088l-0.052,-0.035l-0.035,-0.052l-0.035,-0.052l-0.052,-0.035l-0.053,-0.035l-0.035,-0.052l-0.034,-0.053l-0.053,-0.035l-0.052,-0.034l-0.035,-0.053l-0.262,0l-0.261,0l-0.035,0.053l-0.053,0.034l-0.052,0.035l-0.035,0.053l-0.035,0.052l-0.052,0.035l-0.087,2.355c-0.058,1.57 -0.128,2.425 -0.21,2.565c-0.093,0.151 -2.582,0.256 -7.467,0.314l-7.327,0.087l-0.175,-0.087l-0.174,-0.087l-0.035,-0.053l-0.053,-0.035l-0.052,-0.035l-0.035,-0.052l-0.035,-0.052l-0.052,-0.035l-0.087,-0.175l-0.088,-0.174l-0.052,-0.035l-0.035,-0.052l0,-0.053l0,-0.034l0.087,0l0.053,-0.035l0.035,-0.053l0.174,-0.087l0.175,-0.087l0.035,-0.053l0.052,-0.034l0.052,-0.035l0.035,-0.053l0.035,-0.052l0.052,-0.035l0.053,-0.035l0.035,-0.052l0.034,-0.052l0.053,-0.035l0.052,-0.035l0.035,-0.053l0.436,-0.261c0.291,-0.175 0.436,-0.279 0.436,-0.314l0,-0.035l0.349,0.035c0.233,0.035 2.152,0.081 5.758,0.139c3.605,0.058 5.466,0.029 5.583,-0.087c0.116,-0.116 0.116,-5.158 0,-15.126l-0.175,-14.969l-0.035,-0.698c-0.035,-0.465 -0.081,-1.512 -0.139,-3.141c-0.058,-1.628 -0.221,-2.57 -0.489,-2.826l-0.384,-0.401l-0.035,-0.053l-0.052,-0.034l-0.052,-0.035l-0.035,-0.053l0.698,-0.087c0.465,-0.058 0.756,-0.145 0.872,-0.262c0.116,-0.116 0.186,-0.192 0.209,-0.226l0.053,-0.035l0.052,-0.035l0.035,-0.053l0.035,-0.052l0.052,-0.035l0.053,-0.035l0.034,-0.052l0.035,-0.052l0.053,-0.035l0,-0.436l0,-0.437l-0.053,-0.035l-0.035,-0.052l-9.944,-0.052l-9.945,-0.035l0,-0.035l0,-0.052l0.175,-0.088l0.174,-0.087l0,-0.052Z" style="fill:#505151;stroke:#505151;stroke-width:0.09px;"/><path d="M98.713,99.707l1.78,-3.053l0.348,0l-0.034,0.262l-0.053,0.262l-0.052,0.035l-0.035,0.052l0.035,0.052l0.105,0.07l0.069,0.105l0.105,0.069l0.035,0.053l3.576,0.052c2.385,0.023 3.548,0.14 3.49,0.349c-0.058,0.198 -0.029,0.326 0.087,0.384l0.174,0.087l0.088,0.052l0.087,0.035l-3.629,6.194c-2.408,4.129 -3.64,6.252 -3.699,6.368l-0.087,0.174l-0.087,0.175l-0.087,0.174l-0.053,0.035l-0.035,0.053l-0.034,0.052l-0.053,0.035l-0.052,0.035l-0.035,0.052l-0.035,0.052l-0.052,0.035l-0.053,0.035l-0.034,0.053l0,0.087l-0.262,0l-0.262,0l0.035,-0.175l0.052,-0.174l0.053,-0.035l0.035,-0.052l0.034,-0.053l0.053,-0.035l0.087,-0.261l0.087,-0.262l0.053,-0.035l0.035,-0.052l0.034,-0.053l0.053,-0.035l0.087,-0.174c0.058,-0.116 0.64,-1.076 1.745,-2.879l1.657,-2.704l0.087,-0.174l0.088,-0.175l0.052,-0.035l0.035,-0.052l0.035,-0.052l0.052,-0.035l0,-0.088l0,-0.087l-0.052,-0.261l-0.035,-0.262l-4.624,0l-4.623,0l-0.035,-0.175l-0.052,-0.174l-0.053,-0.035l-0.034,-0.052l-0.035,-0.053l-0.053,-0.035l-0.052,-0.261l-0.035,-0.262l0.175,0.035l0.174,0.052l0.035,0.053l0.052,0.034l0.053,-0.087l0.035,-0.087l0.087,0l0.052,0.035l0.07,0.105l0.105,0.069l0.034,0.053l1.047,0l0.035,-0.053l0.052,-0.035l0.088,-0.174c0.058,-0.116 0.686,-1.192 1.884,-3.228Z" style="fill:#9d042a;stroke:#9d042a;stroke-width:0.09px;"/><path d="M187.865,110.088l0.035,-0.349l0.087,0l0.175,0.524l0.087,0l0.035,1.221c0.035,0.814 0.052,1.367 0.052,1.657l0,0.436l-0.052,0.035l-0.035,0.053l-0.611,0c-0.407,0 -8.316,-0.058 -23.727,-0.175c-15.411,-0.116 -23.582,-0.291 -24.513,-0.523c-0.93,-0.233 -1.698,-0.541 -2.302,-0.925l-0.925,-0.558l-0.053,-0.035l-0.034,-0.052l-0.035,-0.053l-0.053,-0.035l-0.052,-0.034l-0.035,-0.053l0,-0.052l0,-0.035l-0.087,-0.035l-0.087,-0.052l0,-0.053l0,-0.035l0,-0.034l0,-0.053l0.698,0l0.261,-0.087l0.262,-0.087l25.298,-0.087c16.865,-0.059 25.344,-0.105 25.437,-0.14c0.081,-0.023 0.139,-0.151 0.174,-0.384Z" style="fill:#980123;stroke:#980123;stroke-width:0.09px;"/><path d="M156.845,87.966l0,-0.035l5.932,-0.035c3.954,-0.035 8.316,-0.081 13.085,-0.14l7.153,-0.087l-1.57,-0.087c-1.047,-0.058 -5.99,-0.174 -14.83,-0.349l-13.259,-0.262l4.187,-0.174c2.791,-0.116 3.315,-0.204 1.57,-0.262l-2.617,-0.087l-0.523,-0.087l-0.524,-0.087l0.785,-0.088l0.786,-0.087l5.146,-0.174c3.431,-0.117 5.147,-0.192 5.147,-0.227l0,-0.035l10.904,-0.035c7.27,-0.035 10.951,-0.093 11.044,-0.174c0.081,-0.094 0.122,-0.518 0.122,-1.274c0,-0.756 -0.017,-1.774 -0.052,-3.053l-0.035,-1.919l-0.035,-0.698c-0.035,-0.465 -0.07,-0.71 -0.105,-0.733c-0.023,-0.035 -0.994,-0.11 -2.913,-0.227l-2.879,-0.174l2.931,0.052c1.942,0.023 2.931,0.023 2.966,0l0.035,-0.052l0.035,-0.053l0.052,-0.034l0.052,-0.035l0.035,-0.053l0.035,-0.052l0.052,-0.035l0.053,-0.035l0.035,-0.052l0.035,-0.053l0.052,-0.034l0.052,-0.035l0.035,-0.053l0.035,-0.052l0.052,-0.035l0.053,-0.035l0.035,-0.052l0.035,-0.052l0.052,-0.035l0.052,-0.035l0.035,-0.053l0.035,-0.052l0.052,-0.035l0.088,-0.174l0.087,-0.175l0,-0.087l0,-0.087l-0.053,-0.262l-0.034,-0.262l-10.643,-0.035c-7.095,-0.034 -15.789,-0.023 -26.083,0.035l-15.44,0.088l-0.436,0.087l-0.436,0.087l-0.262,0.052l-0.262,0.035l-0.087,-0.035l-0.087,-0.052l0,-0.052l0,-0.035l0.174,-0.035l0.175,-0.052l0.174,-0.088l0.175,-0.087l0.872,-0.174c0.582,-0.117 9.538,-0.146 26.868,-0.088c17.33,0.059 26.042,0.163 26.135,0.314c0.081,0.14 0.18,2.158 0.297,6.054c0.116,3.897 0.075,5.973 -0.123,6.229c-0.209,0.267 -6.013,0.401 -17.411,0.401c-11.399,0 -17.098,-0.017 -17.098,-0.052Z" style="fill:#555658;stroke:#555658;stroke-width:0.09px;"/><path d="M72.665,75.195l9.16,0.087l0.349,0.175l-0.035,0.052l-0.053,0.035l-0.087,0.262c-0.058,0.174 -0.087,0.436 -0.087,0.785c0,0.349 -0.018,0.523 -0.052,0.523l-0.035,0l-6.368,0.035c-4.246,0.035 -7.241,0.07 -8.985,0.105l-2.617,0.035l-0.035,0.61c-0.035,0.407 -0.024,1.919 0.035,4.536c0.058,2.617 0.104,6.456 0.139,11.515l0.035,7.589l-0.035,1.222l-0.052,1.221l-0.052,0l-0.035,0l-0.035,-1.309c-0.035,-0.872 -0.082,-3.344 -0.14,-7.414c-0.058,-4.071 -0.145,-6.31 -0.262,-6.717c-0.116,-0.408 -0.389,-0.64 -0.82,-0.698c-0.442,-0.058 -0.663,-0.029 -0.663,0.087c0,0.116 -0.058,0.174 -0.174,0.174l-0.174,0l-0.035,-0.087c-0.035,-0.058 -0.07,-0.087 -0.105,-0.087l-0.035,0l-0.611,-0.035l-0.61,-0.052l0.436,-0.088l0.436,-0.087l0.035,-0.052c0.035,-0.023 0.081,-1.169 0.14,-3.437l0.087,-3.402l-0.087,1.221l-0.088,1.221l-0.087,0.437l-0.087,0.436l-0.087,-3.577c-0.058,-2.384 -0.186,-3.646 -0.384,-3.786c-0.209,-0.151 -0.401,-0.186 -0.576,-0.104l-0.262,0.139l-0.034,-0.174c-0.035,-0.117 0.023,-0.245 0.174,-0.384c0.14,-0.151 0.198,-0.303 0.174,-0.454l-0.052,-0.209l0.052,-0.035l0.035,-0.052l-0.436,-0.088c-0.291,-0.058 -0.436,-0.104 -0.436,-0.139l0,-0.035l2.181,-0.035c1.454,-0.035 5.234,-0.023 11.34,0.035Z" style="fill:#b0afb5;stroke:#b0afb5;stroke-width:0.09px;"/><path d="M32.765,91.944l0.122,0l0.052,0.087l0.035,0.087l0.175,0.035c0.116,0.035 0.174,0.035 0.174,0l0,-0.035l1.047,0l12.561,0.14c8.375,0.081 12.62,0.139 12.736,0.174l0.175,0.035l0,0.523l-0.035,0l-0.052,0l-0.175,2.966c-0.116,1.978 -0.203,3.228 -0.262,3.751l-0.087,0.786l-0.087,-0.786l-0.087,-0.785l-0.087,0.349l-0.088,0.349l-0.122,0.489c-0.093,0.314 -0.186,0.43 -0.279,0.349c-0.081,-0.093 -0.14,-0.14 -0.174,-0.14l-0.035,0l0,-3.315l0,-3.315l-11.864,0l-11.864,0l0.035,0.436c0.035,0.291 0.07,0.437 0.105,0.437l0.035,0l0,4.536l7.415,0.035c4.943,0.035 7.443,0.069 7.502,0.104l0.087,0.035l-0.14,3.315c-0.081,2.21 -0.337,3.594 -0.767,4.152c-0.442,0.547 -0.809,0.879 -1.1,0.995c-0.29,0.116 -0.785,0.203 -1.482,0.262c-0.698,0.058 -2.21,0.104 -4.537,0.139l-3.489,0.035l0,-0.035l0,-0.052l-2.442,-0.087l-2.443,-0.088l0.698,-0.087l0.698,-0.087l-5.06,-0.087l-5.059,-0.088l0.349,-0.087l0.349,-0.087l3.838,-0.087l3.838,-0.088l-7.938,-0.087l-7.938,-0.087l-0.175,-0.087l-0.174,-0.087l0.349,-0.088l0.349,-0.087l0.872,-0.087l0.872,-0.087l-0.174,-0.088l-0.175,-0.087l-0.872,-0.087l-0.872,-0.087l0,-0.053l0,-0.035l14.742,-0.034c9.828,-0.035 14.801,-0.082 14.917,-0.14l0.174,-0.087l0.175,-0.053l0.174,-0.035l0.035,-0.174l0.053,-0.174l0.052,-0.035l0.035,-0.053l0.035,-0.052l0.052,-0.035l0.052,0.035l0.07,0.105l0.105,0.069l0.07,0.105l0.052,0.035l0,-0.262l0,-0.261l-0.052,-0.035l-0.035,-0.053l-0.035,-0.052l-0.053,-0.035l-0.052,-0.035l-0.035,-0.052l-0.261,-0.087c-0.175,-0.058 -0.378,-0.146 -0.611,-0.262c-0.233,-0.116 -0.378,-0.448 -0.436,-0.994l-0.087,-0.838l-0.035,-0.087l-0.053,-0.087l-0.052,0l-0.035,0l0.035,-0.175c0.035,-0.116 0.14,-0.291 0.314,-0.523c0.174,-0.233 0.186,-0.349 0.035,-0.349l-0.209,0l-0.035,0c-0.035,0 -0.07,-0.058 -0.105,-0.175l-0.035,-0.174l0.436,-0.035l0.436,-0.052l0.262,-0.053l0.262,-0.035l0.035,-0.174l0.052,-0.174l0.052,-0.035l0.035,-0.053l-7.415,0l-7.414,0l-0.035,0.053l-0.053,0.035l0,-4.275c0,-2.85 0.018,-4.274 0.053,-4.274Zm15.213,8.758l0.175,-0.035l0,0.349l-0.262,-0.035l-0.262,-0.052l0.087,-0.088c0.059,-0.058 0.146,-0.104 0.262,-0.139Z" style="fill:#ebe8e9;stroke:#ebe8e9;stroke-width:0.09px;"/><path d="M134.688,109.53l-0.349,-0.663l1.483,0.139c0.989,0.082 9.904,0.082 26.746,0c16.83,-0.093 25.262,0.006 25.297,0.297l0.035,0.436l-0.035,0.349c-0.035,0.233 -0.093,0.361 -0.174,0.384c-0.093,0.035 -8.572,0.081 -25.437,0.14l-25.298,0.087l-0.262,0.087l-0.261,0.087l-0.175,0.087c-0.116,0.059 -0.203,0.105 -0.262,0.14l-0.087,0.035l-0.087,-0.035l-0.087,-0.052l0,-0.053l0,-0.035l-0.088,-0.034c-0.058,-0.035 -0.157,-0.152 -0.296,-0.349l-0.227,-0.314l-0.052,-0.035c-0.024,-0.035 -0.152,-0.268 -0.384,-0.698Z" style="fill:#89001e;stroke:#89001e;stroke-width:0.09px;"/><path d="M57.574,109.041l0.174,0l-0.035,0.175c-0.034,0.116 -0.139,0.32 -0.314,0.61c-0.174,0.291 -0.593,0.774 -1.256,1.449c-0.674,0.662 -1.506,1.168 -2.495,1.517c-0.988,0.349 -8.49,0.553 -22.506,0.611c-14.015,0.058 -21.314,0.029 -21.895,-0.087l-0.873,-0.175l-0.261,-0.087l-0.262,-0.087l0,-0.053l0,-0.034l0,-0.175l0,-0.174l0.262,0.035l0.261,0.052l0.698,0l-0.261,-0.087l-0.262,-0.088l-0.035,-0.052l-0.052,-0.035l-0.053,-0.035l-0.035,-0.052l-0.174,-0.087l-0.175,-0.087l-0.174,-0.088l-0.174,-0.087l3.314,-0.052c2.21,-0.024 3.315,-0.093 3.315,-0.21c0,-0.116 5.874,-0.186 17.621,-0.209l17.621,-0.052l-1.308,-0.088l-1.309,-0.087l1.134,-0.087c0.756,-0.058 1.716,-0.105 2.879,-0.14l1.745,-0.035l1.744,-0.139c1.164,-0.082 1.908,-0.279 2.234,-0.593c0.314,-0.326 0.511,-0.605 0.593,-0.838c0.093,-0.232 0.198,-0.349 0.314,-0.349Z" style="fill:#a00023;stroke:#a00023;stroke-width:0.09px;"/><path d="M0.174,84.354l0.088,-0.087l0.052,11.34c0.023,7.561 0.268,11.341 0.733,11.341c0.465,0 0.802,0.232 1.012,0.698c0.197,0.465 0.314,0.727 0.349,0.785l0.035,0.087l0,0.035c0,0.035 0.029,0.07 0.087,0.105l0.087,0.034l0.035,0.262l0.052,0.262l0.785,1.396c0.524,0.93 1.094,1.64 1.71,2.128c0.605,0.5 1.343,0.925 2.216,1.274c0.872,0.349 1.715,0.581 2.53,0.697c0.814,0.117 8.054,0.117 21.721,0c13.666,-0.116 20.994,-0.319 21.982,-0.61c0.989,-0.291 1.541,-0.454 1.658,-0.489l0.174,-0.035l0,0.088l-0.035,0.052l-0.052,0.035l0,0.349l0.052,-0.035l0.035,-0.052l0.175,-0.088l0.174,-0.087l0.175,-0.087l0.174,-0.087l0.262,-0.053l0.261,-0.035l0,0.349l0.349,0l0.035,0.175l0.053,0.174l0,0.524l-0.053,0.035l-0.035,0.052l-0.034,0.052l-0.053,0.035l-0.052,0.035l-0.035,0.052l-0.175,0.053l-0.174,0.035l0,0.523l-0.087,0l-0.087,0l0,0.035c0,0.035 -0.553,0.227 -1.658,0.576c-1.105,0.349 -8.956,0.552 -23.553,0.61c-14.597,0.058 -22.244,0 -22.942,-0.174c-0.698,-0.175 -1.512,-0.494 -2.443,-0.96c-0.93,-0.465 -1.849,-1.145 -2.756,-2.041c-0.896,-0.907 -1.576,-1.942 -2.041,-3.105c-0.466,-1.164 -0.739,-5.787 -0.82,-13.871l-0.14,-12.125l0.035,-0.087c0.035,-0.058 0.081,-0.116 0.139,-0.175Zm55.865,31.177l0.052,-0.034l0.052,0.034c0.023,0.035 0.006,0.053 -0.052,0.053l-0.087,0l0.035,-0.053Z" style="fill:#606061;stroke:#606061;stroke-width:0.09px;"/><path d="M4.187,95.259l0,-1.571l1.047,0.21c0.698,0.151 0.96,0.256 0.785,0.314c-0.174,0.058 0.523,0.116 2.094,0.174c1.57,0.058 2.5,0.116 2.791,0.175l0.436,0.087l0.035,0.052l0.053,0.035l0.052,1.047l0.035,1.047l-0.262,0l-0.262,0l-3.402,0l-3.402,0l0,-1.57Z" style="fill:#ab082e;stroke:#ab082e;stroke-width:0.09px;"/><path d="M168.709,104.54l6.106,-0.035l8.374,0.14c5.583,0.081 8.445,0.221 8.584,0.419c0.151,0.209 0.227,2.204 0.227,5.984c0,3.78 -0.099,5.74 -0.297,5.879c-0.209,0.151 -2.494,0.227 -6.856,0.227c-4.362,0 -6.543,-0.017 -6.543,-0.052l0,-0.035l5.147,-0.035c3.431,-0.035 5.554,-0.082 6.368,-0.14l1.221,-0.087l0.035,-0.052l0.053,-0.035l0.052,-0.035l0.035,-0.052l0.035,-0.053l0.052,-0.035l0,-0.261l0,-0.262l-0.052,-0.035l-0.035,-0.052l-0.175,-0.053l-0.174,-0.034l0,-0.175l0,-0.174l-0.174,-0.035l-0.175,-0.053l-1.308,-0.087c-0.873,-0.058 -1.28,-0.128 -1.222,-0.209l0.088,-0.14l0.785,-0.035c0.523,-0.035 0.796,-0.069 0.82,-0.104c0.034,-0.024 0.081,-1.257 0.139,-3.699c0.058,-2.443 0.047,-3.71 -0.035,-3.803c-0.093,-0.082 -0.924,-0.181 -2.495,-0.297l-2.355,-0.174l2.355,0c1.571,0 2.367,0.017 2.391,0.052l0.052,0.035l0.052,-0.035l0.035,-0.052l0.035,-0.053l0.052,-0.035l0.053,-0.035l0.035,-0.052l0.035,-0.052l0.052,-0.035l0.052,-0.035l0.035,-0.052l0.035,-0.053l0.052,-0.035l0.053,-0.035l0.035,-0.052l0.034,-0.052l0.053,-0.035l0.052,-0.035l0.035,-0.052l0.035,-0.053l0.052,-0.035l0.053,-0.034l0.035,-0.053l0.034,-0.052l0.053,-0.035l0,-0.436l0,-0.436l-0.053,-0.035l-0.034,-0.053l-0.698,-0.052l-0.698,-0.035l-19.715,-0.035l-19.715,-0.052l6.368,-0.087c4.246,-0.058 8.404,-0.105 12.475,-0.14Z" style="fill:#2b2c2e;stroke:#2b2c2e;stroke-width:0.09px;"/><path d="M116.456,114.415l0.087,0.035l0,0.035c0,0.035 -0.145,0.139 -0.436,0.314l-0.436,0.261l-0.035,0.053l-0.052,0.035l-0.053,0.035l-0.034,0.052l-0.035,0.052l-0.053,0.035l-0.052,0.035l-0.035,0.052l-0.035,0.053l-0.052,0.035l-0.052,0.034l-0.035,0.053l-0.175,0.087l-0.174,0.087l-0.035,0.053l-0.053,0.035l-0.052,0l-0.035,0l-0.035,-1.047c-0.035,-0.698 -0.11,-3.693 -0.226,-8.985l-0.175,-7.938l-0.087,-0.175l-0.087,-0.174l-0.053,-0.035l-0.035,-0.053l-0.174,0l-0.175,0l-0.034,0.053l-0.053,0.035l-0.052,0.034l-0.035,0.053l-0.035,0.052l-0.052,0.035l-0.053,0.035l-0.034,0.052l-0.035,0.053l-0.053,0.035l-0.087,0.174l-0.087,0.174l-0.053,0.035l-0.034,0.053l-0.035,0.052l-0.053,0.035l-0.087,0.174c-0.058,0.117 -1.803,3.141 -5.234,9.073c-3.431,5.931 -5.304,8.967 -5.618,9.107c-0.325,0.151 -2.117,0.227 -5.373,0.227c-3.257,0 -5.071,-0.041 -5.444,-0.123c-0.383,-0.093 -2.291,-2.989 -5.722,-8.688l-5.147,-8.549l-0.052,-0.035l-0.035,-0.052l-0.035,-0.052l-0.052,-0.035l-0.088,-0.175l-0.087,-0.174l-0.052,-0.035l-0.035,-0.052l0,-0.053l0,-0.035l-0.087,-0.035l-0.087,-0.052l0,-0.052l0,-0.035l0,-0.087l0,-0.088l0.348,0l0.035,0.175l0.053,0.174l0.052,0.035l0.07,0.105l0.052,0.035l0.349,0.698l1.396,2.006c0.93,1.338 1.588,2.192 1.971,2.565c0.373,0.383 0.675,0.593 0.908,0.628c0.232,0.023 0.494,0.279 0.785,0.767c0.29,0.501 0.61,0.849 0.959,1.047c0.349,0.21 1.152,1.332 2.408,3.367c1.244,2.036 1.896,3.112 1.954,3.228l0.262,0.523l0.052,0.035l0.035,0.053l0.087,0.052l0.087,0.035l0,0.087l0.349,0.175l0.035,0.052l0.105,0.07l0.035,0.052l0.349,0.174l4.187,-0.087c2.791,-0.058 6.443,-3.966 10.956,-11.724c4.501,-7.769 7.002,-11.992 7.502,-12.666c0.489,-0.663 0.838,-0.977 1.047,-0.942c0.198,0.023 0.297,4.193 0.297,12.509c0,8.316 0.017,12.486 0.052,12.509c0.023,0.035 0.064,0.07 0.122,0.105Z" style="fill:#636566;stroke:#636566;stroke-width:0.09px;"/><path d="M135.037,80.08l0.174,-0.087l0.035,-0.053l0.053,-0.035l0.296,0.088c0.209,0.058 0.314,0.145 0.314,0.261c0,0.117 -0.105,0.204 -0.314,0.262c-0.198,0.058 -0.326,0.146 -0.384,0.262c-0.058,0.116 -0.104,0.232 -0.139,0.349l-0.035,0.174l-0.087,0.035c-0.059,0.035 -0.088,0.07 -0.088,0.105l0,0.035l-0.035,0.087c-0.034,0.058 -0.226,0.436 -0.575,1.134l-0.524,1.047l-0.052,0.035l-0.035,0.052l0,0.087l-0.14,0.611c-0.081,0.407 -0.122,1.774 -0.122,4.1c0,2.326 0.018,4.798 0.053,7.415l0.035,3.925l-0.21,1.919c-0.151,1.28 -0.256,1.89 -0.314,1.832c-0.058,-0.058 -0.145,0.116 -0.261,0.524c-0.117,0.407 -0.192,0.988 -0.227,1.744l-0.035,1.134l-0.035,0l-0.052,0l-0.088,-0.174l-0.087,-0.175l-0.087,-0.261l-0.087,-0.262l-0.088,-0.175l-0.087,-0.174l-0.087,-0.349c-0.058,-0.233 -0.116,-3.577 -0.175,-10.032c-0.058,-6.455 0.28,-10.497 1.012,-12.125l1.082,-2.443l0.035,0c0.035,0 0.07,-0.029 0.105,-0.087l0.035,-0.087l0.034,0c0.035,0 0.07,-0.029 0.105,-0.087l0.035,-0.088l0.349,-0.139c0.233,-0.082 0.361,-0.14 0.384,-0.175l0.052,-0.035l0.052,-0.034l0.035,-0.053l0.175,-0.087Z" style="fill:#edebeb;stroke:#edebeb;stroke-width:0.09px;"/><path d="M95.259,95.782l0.087,0.174l0.052,0.035l0.07,0.105l0.052,0.035l0.053,0.174l0.034,0.175l0.349,-0.035l0.349,-0.052l0.035,-0.053l0.053,-0.035l0.052,-0.035l0.035,-0.052l0.035,-0.052l0.052,-0.035l0.087,-0.175c0.058,-0.116 1.978,-3.576 5.758,-10.38l5.67,-10.207l0.052,-0.035l0.035,-0.052l0.035,-0.052l0.052,-0.035l0.053,-0.035l0.034,-0.052l0.035,-0.053l0.053,-0.035l0.052,-0.034l0.035,-0.053l0.436,-0.052l0.436,-0.035l0,0.087l-0.174,0.087l-0.175,0.088l0,0.087l-0.087,0.035l-0.087,0.052l-0.035,0.052l-0.052,0.035l-0.053,0.035l-0.035,0.053l-0.034,0.052l-0.053,0.035l0.401,0.733c0.256,0.5 0.472,0.767 0.646,0.802c0.174,0.023 0.262,0.093 0.262,0.21c0,0.116 -0.128,0.29 -0.384,0.523c-0.268,0.233 -2.437,3.954 -6.508,11.166c-4.071,7.211 -6.123,10.875 -6.158,10.991l-0.035,0.175l-0.175,0.034l-0.174,0.053l-0.035,0.052l-0.052,0.035l-0.053,0.035l-0.035,0.052l-0.174,0.088l-0.175,0.087l-0.174,0l-0.175,0l-0.034,-0.053l-0.053,-0.034l-0.052,-0.035l-0.035,-0.053l-0.035,-0.052l-0.052,-0.035l-0.087,-0.174c-0.059,-0.117 -2.315,-3.908 -6.77,-11.376c-4.443,-7.478 -6.664,-11.293 -6.664,-11.445l0,-0.209l0.035,0c0.034,0 0.052,-0.174 0.052,-0.523c0,-0.349 0.029,-0.611 0.087,-0.785l0.087,-0.262l0.053,-0.035l0.035,-0.052l-0.175,-0.088l-0.174,-0.087l-9.16,-0.087c-6.106,-0.058 -9.886,-0.07 -11.34,-0.035l-2.181,0.035l-18.057,0.035c-12.038,0.035 -20.5,0.093 -25.385,0.174l-7.328,0.14l-0.035,0l-0.052,0l-0.052,0.035l-0.035,0.052l-0.087,0.052l-0.088,0.035l-0.174,0l-0.174,0l-0.088,-0.035l-0.087,-0.052l0.175,-0.087l0.174,-0.087l0.436,-0.088l0.436,-0.087l4.536,-0.174c3.025,-0.117 15.383,-0.175 37.074,-0.175c21.692,0 33.073,0.89 34.144,2.67c1.081,1.767 3.134,5.21 6.158,10.328c3.024,5.118 4.565,7.735 4.624,7.851Z" style="fill:#4f5256;stroke:#4f5256;stroke-width:0.09px;"/><path d="M0.663,82.522l0.384,-0.872l0,0.436c0,0.291 0.203,0.495 0.61,0.611c0.408,0.116 0.658,0.698 0.751,1.745c0.081,1.046 0.151,1.541 0.209,1.483c0.058,-0.059 0.116,0 0.174,0.174l0.088,0.262l0.052,0.035l0.07,0.104l0.052,0.035l0.175,0.349l0.174,0.524l0.087,0l0.14,9.944c0.081,6.63 0.139,10.119 0.174,10.468l0.035,0.523l0,0.262c0,0.175 -0.087,0.274 -0.261,0.297l-0.262,0.052l0.035,0.052l0.052,0.035l0,0.524l-0.052,-0.035l-0.035,-0.052l-0.035,-0.053l-0.052,-0.035l-0.088,-0.174l-0.087,-0.175l-0.052,-0.035l-0.035,-0.052l-0.035,-0.052l-0.052,-0.035l-0.053,-0.035l-0.035,-0.052l-0.034,-0.053c-0.035,-0.023 -0.07,-0.035 -0.105,-0.035l-0.035,0l-0.035,-0.087c-0.035,-0.058 -0.07,-0.087 -0.105,-0.087l-0.034,0l-0.035,-0.087c-0.035,-0.058 -0.152,-0.32 -0.349,-0.785c-0.21,-0.466 -0.547,-0.698 -1.012,-0.698c-0.465,0 -0.756,-3.722 -0.873,-11.166l-0.174,-11.166l0.035,-0.262c0.035,-0.174 0.081,-0.378 0.139,-0.61c0.059,-0.233 0.221,-0.64 0.489,-1.222Zm-0.454,1.78l0.053,-0.035l0.052,0.035c0.023,0.035 0.006,0.052 -0.052,0.052c-0.058,0 -0.076,-0.017 -0.053,-0.052Z" style="fill:#dad4d5;stroke:#dad4d5;stroke-width:0.09px;"/><path d="M63.82,102.673l0.035,1.309l-0.14,4.1c-0.081,2.733 -0.14,4.1 -0.174,4.1l-0.035,0l0,-2.617l0,-2.617l-0.611,0c-0.407,0 -0.657,0.174 -0.75,0.523l-0.122,0.524l-0.088,-6.107c-0.058,-4.071 -0.116,-7.007 -0.174,-8.81l-0.087,-2.705l-0.053,0.035l-0.034,0.053l-0.035,0.052l-0.053,0.035l-0.052,0.035l-0.035,0.052l0.035,0.053l0.105,0.069l0.035,0.053l-0.035,0.052l-0.053,0.035l0,0.872l-0.052,0.21c-0.023,0.151 -0.047,0.209 -0.07,0.174c-0.035,-0.023 -0.081,1.274 -0.139,3.891l-0.088,3.925l-0.087,-0.698l-0.087,-0.698l-0.052,-2.617c-0.024,-1.744 -0.093,-2.617 -0.21,-2.617c-0.116,0 -0.186,0.088 -0.209,0.262c-0.035,0.175 -0.093,-0.076 -0.175,-0.75c-0.093,-0.663 -4.443,-0.965 -13.05,-0.907l-12.91,0.087l0,0.087l-0.524,0l-0.523,0l-0.174,0l-0.175,0l-0.035,-0.087l-0.052,-0.087l-0.052,0l-0.035,0l0,-0.175l0,-0.174l13.608,-0.14c9.072,-0.081 13.678,-0.221 13.818,-0.419c0.151,-0.209 0.186,-0.36 0.104,-0.453c-0.093,-0.082 -0.128,-0.14 -0.104,-0.175l0.052,-0.035l0.052,-0.034l0.035,-0.053l0.698,-0.174c0.465,-0.117 0.64,-0.192 0.524,-0.227l-0.175,-0.035l0.035,-0.087c0.035,-0.058 0.035,-0.349 0,-0.872l-0.035,-0.786l0,-0.087l0,-0.087l0.209,0.087c0.152,0.058 0.245,0.029 0.28,-0.087c0.023,-0.116 0.255,-0.145 0.697,-0.087c0.431,0.058 0.704,0.29 0.82,0.698c0.117,0.407 0.204,2.646 0.262,6.717c0.058,4.07 0.105,6.542 0.14,7.414Z" style="fill:#737272;stroke:#737272;stroke-width:0.09px;"/><path d="M12.073,90.722l0.14,-2.791l0.139,8.985c0.082,5.99 0.279,9.229 0.593,9.718c0.326,0.5 0.663,0.837 1.012,1.012c0.349,0.174 0.524,0.279 0.524,0.314l0,0.035l-0.088,0.174c-0.058,0.116 -0.174,0.186 -0.348,0.209c-0.175,0.035 -0.669,0.07 -1.483,0.105l-1.222,0.035l-0.436,-0.035l-0.436,-0.052l-0.035,-0.053l-0.052,-0.035l-0.053,-0.034l-0.034,-0.053l-1.92,-0.087l-1.919,-0.087l0.611,-0.087l0.611,-0.088l1.744,-0.087l1.745,-0.087l-2.617,-0.087l-2.617,-0.088l0.61,-0.087l0.611,-0.087l0.035,-0.052l0.052,-0.035l0.053,-0.035l0.035,-0.053l-1.047,-0.087l-1.047,-0.087l0.174,-0.087l0.175,-0.087l-0.035,-0.053l-0.052,-0.035l-0.053,-0.035l-0.035,-0.052l-0.034,-0.052l-0.053,-0.035l-0.052,-0.035l-0.035,-0.052l3.053,-0.088l3.053,-0.087l-1.134,-0.087l-1.134,-0.087l-0.349,-0.088l-0.349,-0.087l0.698,-0.087l0.698,-0.087l-0.035,-0.053l-0.052,-0.035l-0.052,-0.034l-0.035,-0.053l0.436,-0.087c0.291,-0.058 0.506,-0.128 0.645,-0.209c0.152,-0.093 0.268,-0.169 0.349,-0.227c0.093,-0.058 0.14,-0.146 0.14,-0.262c0,-0.116 -0.087,-0.186 -0.262,-0.209c-0.174,-0.035 -0.145,-0.07 0.087,-0.105c0.233,-0.023 0.349,-0.587 0.349,-1.692l0,-1.658l0.349,0l0.035,-0.436l0.052,-0.436l0.088,-3.402c0.058,-2.268 0.128,-4.333 0.209,-6.194Z" style="fill:#a5002b;stroke:#a5002b;stroke-width:0.09px;"/></g></svg>