<?xml version="1.0" encoding="UTF-8" standalone="no"?><!DOCTYPE svg PUBLIC "-//W3C//DTD SVG 1.1//EN" "http://www.w3.org/Graphics/SVG/1.1/DTD/svg11.dtd"><svg width="100%" height="100%" viewBox="0 0 192 192" version="1.1" xmlns="http://www.w3.org/2000/svg" xmlns:xlink="http://www.w3.org/1999/xlink" xml:space="preserve" xmlns:serif="http://www.serif.com/" style="fill-rule:evenodd;clip-rule:evenodd;stroke-linejoin:round;stroke-miterlimit:1.41421;"><g id="g2821"><path id="path1" d="M33.442,47.074c-0.083,0.032 -0.306,0.052 -0.495,0.047c-0.189,-0.005 -0.523,0.014 -0.743,0.043c-0.22,0.029 -0.582,0.072 -0.805,0.094c-1.007,0.103 -1.21,0.124 -1.435,0.155c-0.132,0.018 -0.402,0.054 -0.6,0.08c-0.198,0.025 -0.462,0.068 -0.586,0.094c-0.125,0.026 -0.305,0.058 -0.4,0.071c-0.488,0.068 -0.839,0.137 -1.073,0.21c-0.142,0.045 -0.299,0.057 -0.349,0.026c-0.049,-0.031 -0.113,-0.022 -0.141,0.019c-0.028,0.042 -0.465,0.176 -0.971,0.299c-0.506,0.122 -1.114,0.29 -1.351,0.373c-0.237,0.082 -0.462,0.13 -0.5,0.107c-0.038,-0.024 -0.069,-0.011 -0.069,0.029c0,0.077 -0.611,0.299 -0.78,0.284c-0.055,-0.005 -0.1,0.019 -0.1,0.054c0,0.056 -0.398,0.191 -0.471,0.159c-0.017,-0.007 -0.053,0.02 -0.08,0.061c-0.027,0.041 -0.391,0.248 -0.809,0.46c-0.418,0.212 -0.874,0.469 -1.015,0.572c-0.14,0.103 -0.317,0.187 -0.393,0.187c-0.077,0 -0.116,0.023 -0.088,0.051c0.028,0.028 -0.083,0.154 -0.247,0.279c-0.163,0.126 -0.341,0.265 -0.394,0.31c-0.053,0.044 -0.136,0.08 -0.184,0.08c-0.049,0 -0.069,0.032 -0.044,0.072c0.024,0.039 -0.091,0.194 -0.256,0.344c-0.549,0.501 -0.695,0.841 -0.584,1.361c0.086,0.402 -0.073,0.683 -0.355,0.626c-0.044,-0.008 -0.053,0.011 -0.021,0.043c0.051,0.051 -0.265,0.343 -0.318,0.295c-0.01,-0.009 -0.168,0.126 -0.352,0.301c-0.185,0.175 -0.375,0.318 -0.423,0.318c-0.048,0 -0.134,0.074 -0.189,0.164c-0.056,0.089 -0.143,0.138 -0.192,0.107c-0.051,-0.032 -0.068,-0.02 -0.038,0.028c0.028,0.046 -0.102,0.209 -0.288,0.362c-0.487,0.4 -1.259,1.18 -1.259,1.271c0,0.043 -0.029,0.06 -0.065,0.038c-0.035,-0.022 -0.133,0.138 -0.217,0.355c-0.085,0.218 -0.183,0.395 -0.22,0.395c-0.037,0 -0.051,0.028 -0.03,0.061c0.021,0.034 0.048,0.24 0.061,0.46c0.013,0.22 0.07,0.489 0.127,0.599c0.057,0.111 0.103,0.246 0.103,0.3c0.001,0.056 0.034,0.101 0.076,0.101c0.068,0 0.146,0.159 0.175,0.36c0.006,0.043 0.079,0.126 0.161,0.184c0.082,0.058 0.149,0.171 0.149,0.253c0,0.082 0.027,0.161 0.06,0.176c0.093,0.041 0.58,0.688 0.58,0.77c0,0.041 0.09,0.142 0.2,0.224c0.11,0.083 0.2,0.181 0.2,0.217c0,0.037 0.054,0.121 0.12,0.187c0.066,0.066 0.12,0.096 0.12,0.066c0,-0.03 0.127,0.058 0.283,0.195c0.787,0.691 2.262,1.026 2.949,0.671c0.208,-0.108 0.247,-0.108 0.322,-0.004c0.048,0.064 0.168,0.143 0.266,0.174c0.099,0.032 0.18,0.087 0.18,0.122c0,0.098 0.369,0.208 0.98,0.293c0.414,0.057 0.482,-0.025 0.271,-0.331c-0.573,-0.835 -0.609,-2.958 -0.053,-3.144c0.046,-0.014 0.082,-0.069 0.082,-0.121c0,-0.052 0.091,-0.192 0.202,-0.312c0.111,-0.12 0.192,-0.23 0.18,-0.245c-0.046,-0.059 0.383,-0.534 0.483,-0.535c0.057,0 0.082,-0.037 0.055,-0.081c-0.027,-0.043 0.027,-0.079 0.12,-0.079c0.1,0 0.148,-0.036 0.116,-0.086c-0.028,-0.047 -0.003,-0.075 0.056,-0.063c0.059,0.012 0.198,-0.028 0.308,-0.089c0.713,-0.398 1.748,-0.111 2.369,0.657c0.307,0.379 0.538,1.36 0.467,1.98c-0.098,0.858 -0.34,1.698 -0.468,1.625c-0.048,-0.027 -0.062,-0.021 -0.03,0.014c0.075,0.083 -0.177,0.513 -0.358,0.611c-0.077,0.042 -0.14,0.131 -0.14,0.198c0,0.067 -0.036,0.1 -0.08,0.073c-0.044,-0.028 -0.08,0 -0.08,0.06c0,0.303 -0.853,0.784 -1.297,0.73c-0.405,-0.049 -0.943,-0.261 -0.943,-0.373c0,-0.046 -0.024,-0.06 -0.054,-0.03c-0.029,0.029 -0.143,-0.006 -0.252,-0.077l-0.199,-0.13l0.05,0.389c0.062,0.489 0.098,0.653 0.207,0.935c0.078,0.201 0.063,0.248 -0.143,0.44c-0.472,0.441 -0.58,1.053 -0.286,1.623c0.068,0.13 0.102,0.272 0.076,0.315c-0.027,0.043 -0.008,0.078 0.041,0.078c0.049,0 0.069,0.032 0.044,0.073c-0.025,0.04 -0.011,0.085 0.029,0.099c0.041,0.015 0.087,0.079 0.101,0.141c0.024,0.106 0.109,0.221 0.446,0.606c0.077,0.089 0.131,0.188 0.12,0.221c-0.011,0.032 0.036,0.06 0.105,0.06c0.068,0 0.106,0.029 0.084,0.065c-0.092,0.149 0.873,0.488 1.396,0.491c0.675,0.003 0.763,-0.014 1.235,-0.248c0.799,-0.396 0.915,-0.478 1.42,-1.007c0.221,-0.23 0.438,-0.395 0.483,-0.367c0.045,0.027 0.058,0.013 0.03,-0.033c-0.064,-0.104 0.137,-0.282 0.227,-0.201c0.036,0.033 0.044,0.021 0.017,-0.025c-0.045,-0.08 1.137,-1.152 1.278,-1.159c0.036,-0.001 0.188,-0.108 0.338,-0.236c0.15,-0.129 0.299,-0.217 0.332,-0.198c0.032,0.02 0.076,-0.008 0.098,-0.063c0.022,-0.055 0.178,-0.17 0.348,-0.256c0.17,-0.086 0.408,-0.224 0.529,-0.306c0.121,-0.081 0.22,-0.124 0.22,-0.093c0,0.03 0.048,0.015 0.107,-0.034c0.059,-0.049 0.137,-0.062 0.173,-0.03c0.036,0.033 0.042,0.018 0.013,-0.032c-0.058,-0.102 0.159,-0.215 0.274,-0.144c0.04,0.025 0.073,0.016 0.073,-0.02c0,-0.085 0.491,-0.306 0.62,-0.278c0.055,0.011 0.1,-0.014 0.1,-0.057c0,-0.07 0.405,-0.199 0.53,-0.169c0.029,0.007 0.074,-0.021 0.101,-0.062c0.078,-0.12 1.391,-0.504 1.809,-0.529c0.088,-0.005 0.186,-0.046 0.217,-0.09c0.072,-0.1 2.759,-0.105 2.983,-0.005c0.088,0.039 0.25,0.082 0.36,0.094c0.453,0.052 0.763,0.132 0.812,0.211c0.028,0.046 0.109,0.062 0.18,0.035c0.071,-0.027 0.128,-0.022 0.128,0.011c0,0.033 0.063,0.064 0.14,0.069c0.187,0.012 0.369,0.062 0.94,0.262c0.264,0.093 0.552,0.185 0.639,0.205c0.088,0.02 0.172,0.073 0.187,0.118c0.015,0.044 0.098,0.08 0.184,0.08c0.185,0 1.444,0.558 1.529,0.678c0.032,0.045 0.059,0.052 0.06,0.016c0,-0.037 0.136,0.017 0.301,0.119c0.165,0.102 0.3,0.172 0.3,0.156c0,-0.067 1.627,0.792 1.654,0.873c0.025,0.075 0.172,0.13 0.411,0.152c0.035,0.004 0.039,0.052 0.007,0.106c-0.032,0.056 -0.028,0.073 0.009,0.041c0.061,-0.056 0.908,0.368 0.999,0.499c0.022,0.032 0.157,0.118 0.3,0.191c0.143,0.074 0.26,0.171 0.26,0.216c0,0.046 0.03,0.064 0.068,0.041c0.037,-0.023 0.141,0.027 0.231,0.111c0.09,0.083 0.186,0.13 0.212,0.103c0.027,-0.026 0.049,-0.004 0.049,0.05c0,0.054 0.033,0.077 0.075,0.052c0.041,-0.025 0.122,0.022 0.18,0.104c0.101,0.146 0.147,0.173 0.293,0.173c0.037,0 0.179,0.105 0.313,0.233c0.134,0.129 0.26,0.219 0.279,0.2c0.048,-0.049 1.366,0.912 1.445,1.054c0.036,0.063 0.099,0.095 0.14,0.07c0.041,-0.026 0.075,-0.009 0.075,0.038c0,0.047 0.049,0.085 0.108,0.085c0.059,0 0.172,0.072 0.252,0.159c0.143,0.159 0.139,0.161 -0.288,0.171c-0.834,0.021 -2.897,0.13 -2.932,0.155c-0.037,0.027 -0.139,0.044 -0.66,0.113c-0.637,0.084 -0.647,0.085 -1.24,0.203c-0.264,0.052 -0.574,0.105 -0.689,0.118c-0.115,0.013 -0.286,0.064 -0.38,0.114c-0.094,0.051 -0.171,0.074 -0.171,0.051c0,-0.022 -0.099,-0.001 -0.22,0.047c-0.121,0.048 -0.292,0.094 -0.38,0.101c-0.088,0.006 -0.205,0.04 -0.26,0.075c-0.055,0.034 -0.1,0.033 -0.101,-0.003c-0.001,-0.035 -0.028,-0.025 -0.06,0.022c-0.032,0.048 -0.383,0.203 -0.779,0.345c-0.396,0.142 -0.802,0.312 -0.902,0.377c-0.101,0.065 -0.223,0.093 -0.272,0.063c-0.05,-0.031 -0.07,-0.022 -0.044,0.02c0.026,0.041 -0.166,0.16 -0.425,0.263c-0.26,0.103 -0.454,0.219 -0.43,0.257c0.023,0.037 0.004,0.069 -0.043,0.069c-0.151,0 -1.172,0.777 -1.627,1.24c-0.13,0.132 -0.268,0.23 -0.307,0.219c-0.039,-0.011 -0.061,0.025 -0.05,0.081c0.011,0.055 -0.025,0.091 -0.08,0.08c-0.055,-0.011 -0.091,0.012 -0.08,0.052c0.011,0.039 -0.042,0.138 -0.118,0.219c-0.417,0.449 -0.585,0.657 -0.608,0.757c-0.015,0.061 -0.095,0.186 -0.18,0.277c-0.085,0.091 -0.154,0.208 -0.154,0.259c0,0.053 -0.036,0.096 -0.08,0.096c-0.044,0 -0.076,0.026 -0.071,0.06c0.017,0.118 -0.109,0.42 -0.176,0.42c-0.038,0 -0.045,0.06 -0.017,0.132c0.034,0.09 0.02,0.115 -0.042,0.076c-0.06,-0.037 -0.075,-0.014 -0.045,0.068c0.027,0.068 0.006,0.123 -0.044,0.123c-0.051,0 -0.083,0.046 -0.072,0.101c0.01,0.054 -0.026,0.284 -0.082,0.509c-0.085,0.341 -0.227,1.112 -0.263,1.43c-0.008,0.069 0.019,0.358 0.134,1.44c0.01,0.089 0.044,0.224 0.076,0.3c0.032,0.077 0.064,0.226 0.07,0.333c0.007,0.106 0.039,0.176 0.072,0.155c0.033,-0.02 0.06,0.022 0.06,0.095c0,0.158 0.434,0.786 0.74,1.072c0.329,0.307 0.449,0.406 0.493,0.406c0.022,0 0.23,0.112 0.464,0.249c0.232,0.137 0.432,0.245 0.443,0.24c0.011,-0.005 0.029,-0.007 0.04,-0.003c0.011,0.004 0.127,0.024 0.258,0.045c0.131,0.022 0.275,0.067 0.32,0.101c0.114,0.086 1.402,0.017 1.802,-0.097c0.066,-0.018 0.228,-0.075 0.36,-0.126c0.132,-0.05 0.273,-0.087 0.313,-0.083c0.04,0.004 0.105,-0.05 0.145,-0.121c0.04,-0.071 0.106,-0.108 0.147,-0.083c0.041,0.026 0.075,0.016 0.075,-0.022c0,-0.066 0.906,-0.74 0.995,-0.74c0.037,0 0.557,-0.533 0.992,-1.015c0.087,-0.097 0.2,-0.304 0.251,-0.46c0.052,-0.157 0.12,-0.285 0.151,-0.285c0.031,0 0.06,-0.063 0.065,-0.141c0.031,-0.499 0.03,-1.225 -0.004,-1.481c-0.076,-0.597 0.181,-0.739 1.338,-0.738c1.264,0.001 2.692,0.2 2.692,0.375c0,0.033 0.047,0.042 0.104,0.019c0.058,-0.022 0.237,0.016 0.4,0.084c0.162,0.068 0.313,0.123 0.336,0.122c0.022,0 0.049,0.002 0.06,0.006c0.011,0.003 0.108,0.022 0.216,0.041c0.107,0.02 0.301,0.09 0.432,0.154c0.13,0.065 0.269,0.119 0.31,0.119c0.039,0 0.269,0.089 0.509,0.2c0.241,0.11 0.464,0.2 0.495,0.2c0.032,0 0.184,0.079 0.338,0.176c0.154,0.097 0.298,0.182 0.32,0.189c0.247,0.079 0.56,0.243 0.56,0.292c0,0.035 0.037,0.062 0.083,0.062c0.045,0 0.216,0.06 0.38,0.132c0.163,0.073 0.347,0.142 0.407,0.155c0.061,0.012 0.15,0.061 0.197,0.108c0.047,0.047 0.133,0.085 0.191,0.085c0.058,0 0.348,0.114 0.644,0.253c0.296,0.139 0.569,0.246 0.606,0.237c0.038,-0.008 0.11,0.017 0.16,0.057c0.051,0.039 0.2,0.1 0.332,0.136c0.132,0.035 0.258,0.071 0.28,0.078c0.022,0.007 0.148,0.041 0.28,0.077c0.132,0.036 0.276,0.085 0.32,0.111c0.044,0.026 0.149,0.057 0.234,0.071c0.084,0.013 0.201,0.063 0.26,0.112c0.058,0.048 0.106,0.067 0.106,0.042c0,-0.025 0.171,0.007 0.38,0.072c0.516,0.158 1.486,0.389 1.56,0.37c0.033,-0.009 0.06,0.019 0.06,0.062c0,0.043 0.054,0.057 0.12,0.032c0.066,-0.026 0.183,-0.019 0.26,0.015c0.077,0.034 0.194,0.067 0.26,0.073c0.336,0.031 1.576,0.224 1.68,0.261c0.29,0.102 3.827,0.187 3.885,0.093c0.026,-0.042 0.381,-0.096 1.235,-0.188c1.648,-0.178 3.657,-1.398 4.277,-2.597c0.07,-0.136 0.15,-0.246 0.178,-0.246c0.157,0 0.905,0.28 0.905,0.339c0,0.038 0.033,0.049 0.075,0.024c0.04,-0.025 0.364,0.06 0.72,0.19c0.354,0.129 0.646,0.211 0.646,0.181c0.001,-0.03 0.03,-0.01 0.064,0.044c0.035,0.054 0.222,0.119 0.417,0.144c0.195,0.024 0.459,0.096 0.586,0.159c0.127,0.064 0.258,0.099 0.292,0.079c0.033,-0.021 0.236,0.014 0.45,0.077c0.416,0.123 2.323,0.541 2.49,0.546c0.055,0.002 0.1,0.031 0.1,0.066c0,0.034 0.065,0.049 0.145,0.034c0.08,-0.016 0.305,0.001 0.5,0.038c0.195,0.036 0.499,0.087 0.675,0.113c0.176,0.027 0.518,0.085 0.76,0.129c0.242,0.045 0.602,0.095 0.8,0.112c0.776,0.066 1.6,0.119 2.48,0.159c1.254,0.057 7.308,0.065 7.935,0.01c0.277,-0.024 1.045,-0.063 1.705,-0.087c0.66,-0.023 1.452,-0.062 1.76,-0.086c3.916,-0.302 5.871,-0.172 7.555,0.499c0.289,0.115 0.551,0.25 0.584,0.299c0.032,0.05 0.059,0.064 0.06,0.03c0.002,-0.107 1.063,0.535 1.401,0.849c0.088,0.082 0.241,0.203 0.34,0.269c0.098,0.066 0.156,0.158 0.127,0.204c-0.028,0.045 -0.014,0.06 0.032,0.032c0.046,-0.029 0.185,0.083 0.309,0.247c0.125,0.165 0.274,0.348 0.332,0.408c0.151,0.155 0.435,0.731 0.362,0.734c-0.034,0.002 0.001,0.039 0.078,0.084c0.077,0.045 0.14,0.134 0.14,0.197c0,0.064 0.036,0.117 0.08,0.117c0.044,0 0.08,0.039 0.08,0.087c0,0.048 0.07,0.186 0.155,0.306c0.086,0.12 0.167,0.268 0.18,0.33c0.014,0.062 0.061,0.152 0.105,0.201c0.153,0.167 1.52,2.547 1.5,2.611c-0.011,0.036 0.01,0.065 0.047,0.065c0.037,0 0.26,0.297 0.495,0.66c0.237,0.362 0.477,0.708 0.535,0.766c0.057,0.059 0.084,0.139 0.059,0.18c-0.025,0.04 -0.006,0.074 0.042,0.074c0.048,0 0.108,0.054 0.133,0.121c0.026,0.066 0.16,0.242 0.298,0.39c0.138,0.149 0.323,0.366 0.411,0.483c0.365,0.486 1.758,1.945 2.168,2.269c0.128,0.101 0.181,0.159 0.12,0.128c-0.073,-0.037 -0.093,-0.024 -0.056,0.036c0.032,0.051 0.107,0.092 0.168,0.092c0.061,0 0.167,0.081 0.236,0.179c0.068,0.097 0.124,0.152 0.124,0.12c0,-0.05 0.164,0.065 0.429,0.303c0.05,0.045 0.307,0.224 0.571,0.396c0.264,0.174 0.532,0.366 0.595,0.428c0.064,0.062 0.217,0.149 0.34,0.192c0.135,0.047 0.204,0.115 0.172,0.17c-0.029,0.051 -0.023,0.066 0.012,0.034c0.074,-0.066 0.841,0.327 0.841,0.431c0,0.038 0.027,0.061 0.06,0.053c0.056,-0.013 0.175,0.036 1.029,0.425c0.181,0.082 0.365,0.149 0.41,0.149c0.045,0 0.125,0.052 0.177,0.116c0.053,0.063 0.147,0.095 0.21,0.071c0.063,-0.024 0.114,-0.002 0.114,0.05c0,0.051 0.031,0.074 0.068,0.051c0.038,-0.023 0.389,0.068 0.78,0.202c0.392,0.134 0.8,0.261 0.907,0.282c0.107,0.02 0.219,0.053 0.25,0.072c0.031,0.019 0.196,0.056 0.366,0.083c0.17,0.027 0.32,0.076 0.332,0.109c0.013,0.034 0.111,0.044 0.22,0.024c0.108,-0.021 0.197,-0.005 0.197,0.035c0,0.04 0.099,0.074 0.22,0.077c0.219,0.004 0.874,0.094 1.18,0.162c0.945,0.209 4.32,0.26 8.4,0.127c1.541,-0.051 3.394,-0.059 6.42,-0.031c0.275,0.003 0.887,0.046 1.36,0.097c0.474,0.05 0.905,0.093 0.96,0.096c0.055,0.002 0.1,0.036 0.1,0.076c0,0.039 0.033,0.051 0.074,0.026c0.098,-0.061 1.206,0.132 1.206,0.209c0,0.034 0.055,0.041 0.121,0.015c0.067,-0.025 0.171,-0.005 0.232,0.045c0.061,0.051 0.141,0.085 0.179,0.076c0.182,-0.042 1.631,0.435 1.996,0.657c0.136,0.083 0.271,0.128 0.3,0.099c0.029,-0.029 0.052,-0.008 0.052,0.046c0,0.054 0.032,0.079 0.071,0.054c0.091,-0.056 1.289,0.722 1.289,0.838c0,0.047 0.037,0.063 0.081,0.036c0.044,-0.027 0.102,0.007 0.128,0.075c0.027,0.069 0.096,0.126 0.155,0.126c0.059,0 0.164,0.08 0.233,0.18c0.07,0.099 0.156,0.18 0.193,0.18c0.06,0 0.874,0.677 1.227,1.02c0.079,0.077 0.161,0.139 0.183,0.139c0.022,0 0.12,0.071 0.22,0.156c0.099,0.085 0.271,0.232 0.38,0.327c0.11,0.094 0.323,0.267 0.473,0.384c0.15,0.118 0.39,0.328 0.532,0.468c0.143,0.141 0.28,0.234 0.305,0.209c0.026,-0.025 0.069,0.013 0.097,0.085c0.028,0.073 0.099,0.132 0.157,0.132c0.059,0 0.154,0.063 0.212,0.14c0.057,0.078 0.29,0.266 0.516,0.42c0.227,0.154 0.393,0.312 0.368,0.352c-0.024,0.04 -0.006,0.049 0.041,0.019c0.048,-0.029 0.141,0.001 0.207,0.068c0.067,0.066 0.154,0.12 0.195,0.12c0.041,0 0.17,0.09 0.288,0.199c0.117,0.109 0.239,0.203 0.271,0.21c0.189,0.042 0.407,0.185 0.371,0.243c-0.023,0.038 0.012,0.068 0.078,0.068c0.161,0 0.689,0.317 0.689,0.413c0,0.043 0.036,0.055 0.08,0.028c0.044,-0.028 0.08,-0.012 0.08,0.035c0,0.047 0.027,0.077 0.06,0.068c0.071,-0.019 0.602,0.252 0.66,0.338c0.05,0.073 1.256,0.639 1.362,0.639c0.043,0 0.078,0.03 0.078,0.066c0,0.037 0.045,0.069 0.1,0.073c0.055,0.003 0.478,0.149 0.94,0.324c0.462,0.175 1.065,0.363 1.34,0.418c0.275,0.055 0.5,0.123 0.5,0.15c0,0.027 0.099,0.052 0.22,0.055c0.121,0.003 0.488,0.035 0.815,0.07c1.01,0.11 2.648,0.042 2.805,-0.117c0.022,-0.022 0.256,-0.111 0.52,-0.197c0.264,-0.087 0.582,-0.258 0.707,-0.381c0.125,-0.122 0.265,-0.199 0.312,-0.17c0.049,0.031 0.063,0.016 0.032,-0.034c-0.03,-0.048 -0.007,-0.117 0.05,-0.152c0.159,-0.099 0.699,-0.789 0.699,-0.894c0,-0.05 0.039,-0.091 0.085,-0.091c0.047,0 0.063,-0.036 0.035,-0.08c-0.027,-0.045 -0.005,-0.081 0.049,-0.081c0.054,0 0.078,-0.019 0.054,-0.044c-0.025,-0.024 0.007,-0.213 0.07,-0.42c0.116,-0.379 0.152,-1.566 0.058,-1.936c-0.028,-0.109 -0.055,-0.28 -0.06,-0.379c-0.006,-0.1 -0.032,-0.18 -0.058,-0.18c-0.026,0 -0.086,-0.087 -0.134,-0.192l-0.087,-0.191l1.614,0.024c1.402,0.02 2.274,-0.018 3.614,-0.16c0.177,-0.018 0.329,-0.039 0.34,-0.047c0.031,-0.022 0.109,-0.038 0.5,-0.107c0.198,-0.035 0.609,-0.131 0.911,-0.213c0.303,-0.083 0.582,-0.131 0.621,-0.108c0.037,0.024 0.068,0.009 0.068,-0.031c0,-0.074 0.422,-0.208 0.62,-0.198c0.056,0.003 0.1,-0.027 0.1,-0.066c0,-0.039 0.048,-0.072 0.106,-0.072c0.058,0 0.247,-0.068 0.42,-0.152c0.172,-0.084 0.341,-0.136 0.374,-0.115c0.033,0.02 0.06,-0.003 0.06,-0.052c0,-0.05 0.036,-0.067 0.08,-0.041c0.045,0.028 0.081,0.012 0.081,-0.035c0,-0.046 0.072,-0.085 0.16,-0.085c0.089,0 0.223,-0.072 0.298,-0.159c0.075,-0.088 0.168,-0.16 0.206,-0.16c0.039,0 0.153,-0.064 0.253,-0.14c0.102,-0.077 0.266,-0.194 0.367,-0.261c0.1,-0.065 0.416,-0.336 0.701,-0.6c0.551,-0.509 0.591,-0.55 0.783,-0.799c0.068,-0.089 0.097,-0.11 0.065,-0.048c-0.039,0.075 -0.027,0.093 0.036,0.054c0.051,-0.031 0.076,-0.085 0.056,-0.118c-0.021,-0.034 0.062,-0.17 0.184,-0.304c0.18,-0.197 0.488,-0.718 0.534,-0.904c0.006,-0.022 0.033,-0.094 0.061,-0.161c0.158,-0.371 0.211,-1.031 0.116,-1.44c-0.114,-0.495 -1.115,-1.373 -1.607,-1.411c-0.126,-0.009 -0.288,-0.042 -0.361,-0.074c-0.122,-0.052 -1.175,-0.056 -1.453,-0.005c-0.412,0.075 -0.717,0.169 -0.982,0.303c-0.167,0.085 -0.335,0.134 -0.375,0.109c-0.039,-0.024 -0.094,-0.008 -0.121,0.035c-0.026,0.044 -0.182,0.137 -0.345,0.208c-0.163,0.071 -0.351,0.161 -0.417,0.2c-0.291,0.172 -0.855,0.409 -1.015,0.428c-0.096,0.011 -0.231,0.066 -0.299,0.123c-0.068,0.056 -0.178,0.082 -0.245,0.056c-0.066,-0.025 -0.121,-0.016 -0.121,0.021c0,0.054 -0.523,0.195 -1.12,0.299c-0.62,0.109 -1.608,0.163 -2.64,0.146c-1.584,-0.027 -1.472,-0.019 -2.079,-0.133c-0.287,-0.053 -0.548,-0.09 -0.581,-0.081c-0.032,0.009 -0.06,-0.01 -0.06,-0.044c0,-0.032 -0.104,-0.063 -0.231,-0.067c-0.127,-0.005 -0.298,-0.037 -0.38,-0.073c-0.082,-0.035 -0.197,-0.073 -0.255,-0.085c-0.058,-0.012 -0.166,-0.048 -0.24,-0.08c-0.074,-0.032 -0.17,-0.064 -0.214,-0.07c-0.269,-0.037 -0.76,-0.223 -0.76,-0.287c0,-0.043 -0.027,-0.071 -0.06,-0.064c-0.126,0.027 -1.393,-0.561 -1.479,-0.687c-0.032,-0.047 -0.059,-0.056 -0.06,-0.02c0,0.037 -0.121,-0.008 -0.268,-0.099c-0.148,-0.091 -0.292,-0.142 -0.321,-0.113c-0.028,0.029 -0.052,0.004 -0.052,-0.054c0,-0.059 -0.022,-0.085 -0.05,-0.057c-0.067,0.068 -0.51,-0.166 -0.51,-0.27c0,-0.046 -0.036,-0.061 -0.08,-0.033c-0.044,0.027 -0.08,0.011 -0.08,-0.036c0,-0.046 -0.055,-0.084 -0.122,-0.084c-0.128,0 -2.225,-1.067 -2.358,-1.2c-0.022,-0.022 -0.247,-0.147 -0.5,-0.278c-0.253,-0.13 -0.46,-0.265 -0.46,-0.3c0,-0.034 -0.027,-0.055 -0.06,-0.046c-0.101,0.028 -0.58,-0.256 -0.58,-0.343c0,-0.046 -0.036,-0.06 -0.08,-0.034c-0.044,0.028 -0.08,0.018 -0.08,-0.021c0,-0.04 -0.045,-0.073 -0.1,-0.074c-0.143,-0.002 -0.7,-0.347 -0.7,-0.432c0,-0.04 -0.027,-0.065 -0.06,-0.056c-0.032,0.009 -0.204,-0.064 -0.38,-0.162c-0.649,-0.362 -1.041,-0.6 -1.08,-0.656c-0.022,-0.031 -0.184,-0.131 -0.36,-0.22c-0.176,-0.091 -0.399,-0.24 -0.496,-0.331c-0.097,-0.092 -0.214,-0.167 -0.26,-0.167c-0.046,0 -0.084,-0.034 -0.084,-0.075c0,-0.04 -0.045,-0.085 -0.1,-0.099c-0.245,-0.064 -1.247,-0.662 -1.209,-0.723c0.023,-0.037 0.012,-0.062 -0.025,-0.056c-0.139,0.024 -0.258,-0.011 -0.36,-0.108c-0.058,-0.054 -0.204,-0.15 -0.324,-0.212c-0.12,-0.062 -0.291,-0.18 -0.379,-0.262c-0.087,-0.082 -0.187,-0.153 -0.221,-0.158c-0.159,-0.024 -0.422,-0.182 -0.422,-0.254c0,-0.044 -0.023,-0.057 -0.052,-0.028c-0.028,0.029 -0.164,-0.015 -0.3,-0.097c-0.136,-0.082 -0.716,-0.393 -1.288,-0.69c-0.572,-0.297 -1.094,-0.581 -1.16,-0.632c-0.066,-0.051 -0.343,-0.196 -0.617,-0.323c-0.29,-0.134 -0.476,-0.266 -0.446,-0.317c0.026,-0.047 0.021,-0.061 -0.013,-0.03c-0.062,0.055 -1.545,-0.687 -2.244,-1.124c-0.078,-0.049 -0.121,-0.062 -0.274,-0.082c-0.041,-0.006 -0.122,-0.055 -0.181,-0.111c-0.059,-0.054 -0.529,-0.314 -1.046,-0.576c-0.516,-0.263 -0.939,-0.506 -0.939,-0.54c0,-0.035 -0.05,-0.063 -0.112,-0.063c-0.155,0 -1.265,-0.573 -1.393,-0.72c-0.094,-0.106 -0.099,-0.106 -0.045,0c0.05,0.098 0.039,0.102 -0.06,0.022c-0.066,-0.054 -0.505,-0.29 -0.975,-0.526c-0.471,-0.236 -0.828,-0.459 -0.795,-0.495c0.033,-0.037 -0.003,-0.044 -0.08,-0.017c-0.077,0.028 -0.14,0.016 -0.14,-0.027c0,-0.043 -0.039,-0.077 -0.088,-0.077c-0.048,0 -0.201,-0.081 -0.339,-0.18c-0.139,-0.099 -0.271,-0.171 -0.293,-0.161c-0.079,0.037 -0.32,-0.072 -0.32,-0.145c0,-0.041 -0.053,-0.074 -0.118,-0.074c-0.161,0 -1.001,-0.418 -0.963,-0.479c0.016,-0.026 -0.045,-0.054 -0.137,-0.061c-0.092,-0.007 -0.193,-0.053 -0.223,-0.103c-0.032,-0.05 -0.08,-0.088 -0.107,-0.085c-0.087,0.009 -0.612,-0.259 -0.612,-0.314c0,-0.028 -0.045,-0.054 -0.1,-0.056c-0.192,-0.008 -2.455,-1.201 -2.397,-1.264c0.031,-0.035 0.011,-0.037 -0.046,-0.004c-0.058,0.033 -0.2,-0.004 -0.32,-0.084c-0.119,-0.079 -0.49,-0.275 -0.824,-0.438c-0.334,-0.162 -0.757,-0.389 -0.94,-0.505c-0.183,-0.115 -0.333,-0.191 -0.333,-0.168c0,0.062 -1.475,-0.695 -1.506,-0.773c-0.015,-0.037 -0.066,-0.067 -0.114,-0.067c-0.122,0 -2.249,-1.05 -2.309,-1.14c-0.026,-0.04 -0.064,-0.061 -0.082,-0.046c-0.067,0.053 -0.703,-0.277 -0.663,-0.344c0.024,-0.037 -0.019,-0.044 -0.095,-0.015c-0.1,0.039 -0.12,0.024 -0.072,-0.053c0.042,-0.067 0.035,-0.087 -0.018,-0.054c-0.081,0.05 -1.211,-0.48 -1.31,-0.614c-0.027,-0.037 -0.072,-0.063 -0.101,-0.058c-0.029,0.005 -0.429,-0.173 -0.89,-0.395c-0.46,-0.223 -0.856,-0.404 -0.879,-0.402c-0.063,0.005 -1.185,-0.565 -1.309,-0.664c-0.059,-0.048 -0.169,-0.096 -0.245,-0.108c-0.075,-0.011 -0.501,-0.202 -0.946,-0.424c-0.445,-0.221 -0.845,-0.402 -0.891,-0.402c-0.045,0 -0.114,-0.058 -0.153,-0.128c-0.039,-0.07 -0.104,-0.124 -0.144,-0.122c-0.118,0.009 -0.593,-0.178 -0.593,-0.233c0,-0.028 -0.045,-0.051 -0.1,-0.052c-0.118,-0.001 -2.066,-0.891 -2.176,-0.994c-0.041,-0.039 -0.143,-0.071 -0.225,-0.071c-0.091,0 -0.126,-0.036 -0.091,-0.093c0.034,-0.055 0.022,-0.071 -0.03,-0.038c-0.097,0.06 -0.658,-0.182 -0.658,-0.285c0,-0.035 -0.076,-0.064 -0.169,-0.064c-0.093,0 -0.336,-0.086 -0.54,-0.19c-0.204,-0.105 -0.641,-0.309 -0.971,-0.454c-0.33,-0.145 -0.626,-0.302 -0.658,-0.35c-0.033,-0.047 -0.06,-0.058 -0.06,-0.022c-0.001,0.036 -0.101,0.011 -0.222,-0.054c-0.238,-0.129 -0.741,-0.357 -1.28,-0.581c-0.187,-0.077 -0.34,-0.171 -0.34,-0.208c0,-0.038 -0.045,-0.06 -0.1,-0.049c-0.152,0.029 -0.46,-0.093 -0.46,-0.183c0,-0.043 -0.036,-0.057 -0.08,-0.029c-0.044,0.027 -0.08,0.005 -0.08,-0.049c0,-0.054 -0.02,-0.078 -0.044,-0.054c-0.044,0.044 -0.834,-0.27 -1.796,-0.717c-0.286,-0.132 -0.601,-0.266 -0.7,-0.296c-0.099,-0.03 -0.18,-0.089 -0.18,-0.13c0,-0.041 -0.027,-0.07 -0.06,-0.065c-0.177,0.028 -0.346,-0.029 -0.602,-0.202c-0.157,-0.107 -0.303,-0.176 -0.325,-0.154c-0.021,0.022 -0.123,-0.007 -0.226,-0.064c-0.103,-0.057 -0.205,-0.107 -0.227,-0.111c-0.159,-0.027 -0.4,-0.139 -0.4,-0.187c0,-0.032 -0.072,-0.063 -0.16,-0.07c-0.089,-0.006 -0.264,-0.085 -0.39,-0.174c-0.125,-0.09 -0.248,-0.142 -0.273,-0.117c-0.025,0.025 -0.147,-0.011 -0.271,-0.08c-0.271,-0.149 -0.957,-0.45 -1.026,-0.45c-0.028,0 -0.255,-0.094 -0.505,-0.208c-0.72,-0.329 -0.895,-0.404 -1.575,-0.672c-0.352,-0.139 -0.674,-0.286 -0.716,-0.327c-0.042,-0.04 -0.138,-0.073 -0.214,-0.073c-0.076,0 -0.187,-0.048 -0.245,-0.107c-0.059,-0.059 -0.161,-0.107 -0.226,-0.108c-0.065,0 -0.279,-0.078 -0.474,-0.173c-0.195,-0.095 -0.399,-0.173 -0.454,-0.173c-0.055,0 -0.162,-0.063 -0.24,-0.139c-0.076,-0.078 -0.153,-0.126 -0.17,-0.107c-0.048,0.05 -0.581,-0.175 -0.581,-0.246c0,-0.034 -0.05,-0.043 -0.112,-0.019c-0.061,0.023 -0.136,0.004 -0.164,-0.043c-0.03,-0.047 -0.114,-0.086 -0.189,-0.086c-0.074,0 -0.261,-0.079 -0.415,-0.175c-0.154,-0.096 -0.35,-0.187 -0.437,-0.202c-0.085,-0.014 -0.184,-0.071 -0.218,-0.125c-0.034,-0.053 -0.063,-0.065 -0.064,-0.025c0,0.04 -0.079,0.004 -0.174,-0.08c-0.096,-0.084 -0.15,-0.11 -0.12,-0.058c0.033,0.056 -0.051,0.041 -0.205,-0.037c-0.144,-0.073 -0.31,-0.139 -0.369,-0.149c-0.059,-0.009 -0.17,-0.073 -0.246,-0.143c-0.077,-0.069 -0.16,-0.106 -0.184,-0.082c-0.024,0.024 -0.175,-0.029 -0.336,-0.12c-0.16,-0.09 -0.323,-0.163 -0.362,-0.163c-0.038,0 -0.316,-0.115 -0.617,-0.255c-0.301,-0.14 -0.602,-0.262 -0.668,-0.271c-0.066,-0.009 -0.372,-0.134 -0.68,-0.278c-0.308,-0.145 -0.608,-0.254 -0.668,-0.244c-0.059,0.01 -0.084,-0.02 -0.056,-0.066c0.032,-0.052 0.004,-0.066 -0.072,-0.037c-0.068,0.026 -0.124,0.006 -0.124,-0.045c0,-0.05 -0.045,-0.084 -0.1,-0.075c-0.102,0.016 -0.204,-0.017 -0.7,-0.224c-0.495,-0.206 -0.585,-0.241 -1.52,-0.592c-0.506,-0.19 -1.001,-0.397 -1.1,-0.459c-0.099,-0.062 -0.18,-0.086 -0.18,-0.054c0,0.033 -0.045,0.025 -0.1,-0.016c-0.055,-0.042 -0.307,-0.143 -0.56,-0.226c-0.253,-0.083 -0.46,-0.18 -0.46,-0.215c0,-0.035 -0.09,-0.063 -0.2,-0.063c-0.11,0 -0.2,-0.039 -0.2,-0.085c0,-0.047 -0.034,-0.064 -0.074,-0.039c-0.042,0.026 -0.285,-0.052 -0.54,-0.171c-0.256,-0.119 -0.511,-0.208 -0.566,-0.198c-0.055,0.011 -0.1,-0.017 -0.1,-0.061c0,-0.045 -0.054,-0.061 -0.12,-0.035c-0.066,0.025 -0.12,0.006 -0.12,-0.043c0,-0.049 -0.027,-0.08 -0.06,-0.069c-0.101,0.032 -1.46,-0.444 -1.46,-0.511c0,-0.035 -0.06,-0.041 -0.133,-0.012c-0.097,0.037 -0.115,0.022 -0.068,-0.055c0.044,-0.071 0.035,-0.087 -0.026,-0.049c-0.051,0.031 -0.138,0.029 -0.193,-0.005c-0.055,-0.035 -0.139,-0.069 -0.187,-0.076c-0.146,-0.023 -1.11,-0.379 -1.153,-0.427c-0.022,-0.024 -0.094,-0.058 -0.16,-0.074c-0.466,-0.116 -0.646,-0.171 -1,-0.302c-0.22,-0.082 -0.412,-0.176 -0.427,-0.209c-0.014,-0.033 -0.058,-0.041 -0.096,-0.017c-0.038,0.023 -0.206,-0.018 -0.373,-0.092c-0.167,-0.074 -0.34,-0.142 -0.384,-0.15c-0.044,-0.009 -0.107,-0.026 -0.14,-0.038c-0.033,-0.013 -0.087,-0.03 -0.12,-0.039c-0.033,-0.01 -0.114,-0.04 -0.18,-0.068c-0.066,-0.027 -0.588,-0.2 -1.16,-0.384c-0.572,-0.184 -1.058,-0.356 -1.08,-0.383c-0.022,-0.027 -0.112,-0.06 -0.2,-0.074c-0.088,-0.014 -0.345,-0.092 -0.571,-0.175c-0.226,-0.083 -0.433,-0.128 -0.46,-0.102c-0.027,0.027 -0.049,0.015 -0.049,-0.027c0,-0.042 -0.063,-0.081 -0.14,-0.087c-0.077,-0.006 -0.5,-0.128 -0.94,-0.272c-0.44,-0.143 -0.864,-0.272 -0.942,-0.286c-0.078,-0.014 -0.276,-0.085 -0.44,-0.158c-0.164,-0.072 -0.334,-0.137 -0.378,-0.144c-0.357,-0.053 -0.68,-0.153 -0.68,-0.21c0,-0.038 -0.051,-0.049 -0.114,-0.025c-0.062,0.024 -0.197,-0.003 -0.3,-0.059c-0.102,-0.057 -0.231,-0.094 -0.286,-0.083c-0.055,0.011 -0.1,-0.019 -0.1,-0.068c0,-0.048 -0.034,-0.067 -0.075,-0.042c-0.041,0.026 -0.284,-0.023 -0.54,-0.108c-0.256,-0.084 -0.573,-0.181 -0.705,-0.215c-0.329,-0.083 -0.357,-0.091 -0.38,-0.11c-0.011,-0.008 -0.074,-0.03 -0.14,-0.047c-0.066,-0.017 -0.39,-0.108 -0.72,-0.201c-0.33,-0.094 -0.689,-0.187 -0.798,-0.208c-0.109,-0.02 -0.226,-0.08 -0.259,-0.133c-0.033,-0.051 -0.061,-0.071 -0.062,-0.043c-0.001,0.028 -0.136,0.018 -0.301,-0.022c-0.165,-0.041 -0.39,-0.093 -0.5,-0.116c-0.11,-0.023 -0.448,-0.115 -0.751,-0.204c-0.304,-0.09 -0.614,-0.175 -0.69,-0.19c-0.077,-0.015 -0.279,-0.067 -0.449,-0.118c-0.17,-0.05 -0.418,-0.111 -0.55,-0.134c-0.132,-0.024 -0.301,-0.076 -0.375,-0.115c-0.074,-0.04 -0.227,-0.072 -0.34,-0.072c-0.113,0 -0.205,-0.033 -0.205,-0.073c0,-0.04 -0.072,-0.054 -0.16,-0.031c-0.093,0.024 -0.16,0.003 -0.16,-0.052c0,-0.052 -0.03,-0.075 -0.067,-0.052c-0.038,0.023 -0.352,-0.03 -0.7,-0.117c-0.348,-0.087 -0.717,-0.177 -0.82,-0.2c-0.103,-0.023 -0.391,-0.095 -0.64,-0.161c-0.249,-0.067 -0.597,-0.141 -0.773,-0.166c-0.176,-0.026 -0.332,-0.079 -0.347,-0.118c-0.014,-0.039 -0.055,-0.054 -0.091,-0.032c-0.035,0.022 -0.167,0.008 -0.293,-0.031c-0.126,-0.039 -0.445,-0.113 -0.709,-0.166c-0.264,-0.053 -0.544,-0.13 -0.623,-0.171c-0.079,-0.042 -0.175,-0.056 -0.214,-0.032c-0.039,0.024 -0.388,-0.032 -0.777,-0.123c-0.388,-0.092 -0.769,-0.171 -0.846,-0.178c-0.077,-0.006 -0.14,-0.033 -0.14,-0.058c0,-0.025 -0.117,-0.053 -0.26,-0.061c-0.143,-0.008 -0.322,-0.017 -0.398,-0.021c-0.077,-0.004 -0.159,-0.04 -0.183,-0.079c-0.024,-0.039 -0.091,-0.054 -0.148,-0.032c-0.058,0.022 -0.263,0.001 -0.457,-0.046c-0.195,-0.047 -0.462,-0.102 -0.594,-0.122c-0.132,-0.021 -0.33,-0.058 -0.44,-0.084c-0.11,-0.025 -0.296,-0.056 -0.413,-0.07c-0.117,-0.013 -0.441,-0.063 -0.72,-0.111c-1.173,-0.203 -1.713,-0.282 -1.807,-0.265c-0.055,0.01 -0.1,-0.021 -0.1,-0.07c0,-0.048 -0.033,-0.068 -0.073,-0.043c-0.039,0.025 -0.355,0.003 -0.699,-0.048c-0.346,-0.05 -0.691,-0.094 -0.768,-0.097c-0.077,-0.003 -0.14,-0.029 -0.14,-0.058c0,-0.03 -0.117,-0.047 -0.26,-0.039c-0.143,0.008 -0.422,-0.015 -0.62,-0.052c-0.198,-0.036 -0.558,-0.084 -0.8,-0.106c-0.242,-0.021 -0.548,-0.054 -0.68,-0.074c-0.132,-0.02 -0.546,-0.056 -0.92,-0.079c-0.374,-0.023 -0.824,-0.06 -1,-0.081c-0.363,-0.045 -1.057,-0.096 -2.28,-0.169c-1.196,-0.071 -5.82,-0.083 -6.002,-0.017m1.562,2.007c0.352,0.021 0.874,0.06 1.16,0.087c0.286,0.027 0.664,0.058 0.84,0.071c0.176,0.012 0.356,0.044 0.4,0.071c0.044,0.026 0.151,0.036 0.237,0.023c0.23,-0.037 0.381,0.121 0.326,0.342c-0.048,0.191 -0.871,1.063 -1.003,1.063c-0.04,0 -0.165,0.092 -0.277,0.205c-0.113,0.113 -0.245,0.179 -0.296,0.148c-0.054,-0.034 -0.07,-0.022 -0.038,0.029c0.043,0.071 -0.165,0.193 -0.349,0.204c-0.022,0.002 -0.08,0.043 -0.13,0.093c-0.049,0.049 -0.247,0.14 -0.439,0.202c-0.193,0.062 -0.369,0.133 -0.391,0.158c-0.065,0.072 -0.821,0.269 -1.06,0.276c-0.121,0.003 -0.22,0.029 -0.22,0.059c0,0.059 -2.244,0.03 -2.56,-0.034c-0.11,-0.022 -0.296,-0.065 -0.412,-0.096c-0.332,-0.089 -0.263,0.203 0.152,0.64c0.055,0.057 0.1,0.144 0.1,0.191c0,0.047 0.027,0.077 0.06,0.066c0.095,-0.031 0.425,0.228 0.366,0.287c-0.029,0.028 0.019,0.052 0.105,0.052c0.087,0 0.234,0.07 0.325,0.156c0.092,0.085 0.185,0.136 0.208,0.114c0.022,-0.022 0.107,-0.005 0.188,0.039c0.266,0.143 1.186,0.475 1.429,0.516c0.131,0.022 0.293,0.06 0.359,0.084c0.066,0.024 0.228,0.062 0.36,0.083c0.429,0.07 0.63,0.123 1.28,0.336c0.658,0.216 2.469,1.059 2.86,1.33c0.121,0.085 0.22,0.132 0.22,0.106c0,-0.075 0.44,0.172 0.555,0.31c0.057,0.069 0.13,0.108 0.162,0.088c0.032,-0.019 0.144,0.044 0.249,0.141c0.105,0.098 0.199,0.159 0.209,0.138c0.011,-0.022 0.089,0.019 0.174,0.091c0.085,0.073 0.229,0.156 0.32,0.185c0.182,0.058 1.142,0.675 1.218,0.783c0.025,0.036 0.183,0.14 0.35,0.229c0.474,0.254 1.568,1.08 1.509,1.139c-0.029,0.029 0.011,0.052 0.089,0.052c0.145,0 0.947,0.592 0.885,0.654c-0.019,0.018 0.073,0.074 0.203,0.123l0.239,0.09l-0.156,-0.219c-0.086,-0.12 -0.167,-0.268 -0.181,-0.329c-0.014,-0.06 -0.089,-0.184 -0.167,-0.275c-0.275,-0.315 -0.778,-0.987 -0.778,-1.037c0,-0.028 -0.117,-0.18 -0.26,-0.339c-0.143,-0.158 -0.251,-0.319 -0.24,-0.358c0.011,-0.038 -0.031,-0.069 -0.093,-0.069c-0.063,0 -0.126,-0.034 -0.14,-0.076c-0.041,-0.115 -1.513,-1.603 -1.944,-1.964c-0.21,-0.177 -0.453,-0.387 -0.54,-0.469c-0.088,-0.082 -0.461,-0.338 -0.829,-0.569c-0.369,-0.231 -0.644,-0.446 -0.612,-0.478c0.032,-0.032 0.021,-0.046 -0.023,-0.031c-0.128,0.041 -0.76,-0.267 -0.711,-0.346c0.024,-0.04 0.014,-0.065 -0.022,-0.056c-0.127,0.029 -0.506,-0.11 -0.506,-0.185c0,-0.042 -0.036,-0.054 -0.08,-0.026c-0.044,0.027 -0.08,0.011 -0.08,-0.036c0,-0.046 -0.027,-0.08 -0.06,-0.074c-0.12,0.021 -0.584,-0.113 -0.627,-0.181c-0.023,-0.038 -0.11,-0.069 -0.193,-0.069c-0.276,0 -0.3,-0.422 -0.037,-0.691c0.191,-0.196 0.774,-0.556 0.857,-0.529c0.033,0.011 0.06,-0.016 0.06,-0.059c0,-0.092 0.799,-0.514 0.801,-0.423c0.001,0.034 0.03,0.017 0.065,-0.038c0.079,-0.125 1.601,-0.658 1.998,-0.7c0.163,-0.018 0.296,-0.038 0.296,-0.047c0,-0.008 0.108,-0.026 0.24,-0.041c0.471,-0.05 0.722,-0.094 0.865,-0.154c0.228,-0.094 3.455,0.048 3.808,0.168c0.063,0.021 0.351,0.059 0.64,0.084c0.29,0.025 0.559,0.075 0.597,0.111c0.038,0.036 0.119,0.047 0.18,0.024c0.06,-0.024 0.173,-0.017 0.25,0.016c0.077,0.031 0.23,0.068 0.34,0.082c0.792,0.095 1.363,0.205 2.555,0.489c0.283,0.067 0.589,0.14 0.68,0.162c0.091,0.021 0.21,0.041 0.265,0.045c0.055,0.004 0.1,0.029 0.1,0.057c0,0.027 0.063,0.053 0.14,0.056c0.301,0.016 0.786,0.129 1.369,0.321c0.336,0.111 0.697,0.218 0.802,0.238c0.105,0.019 0.303,0.082 0.44,0.139c0.137,0.057 0.384,0.129 0.549,0.161c0.165,0.03 0.3,0.086 0.3,0.124c0,0.037 0.056,0.089 0.124,0.115c0.068,0.026 0.103,0.014 0.077,-0.028c-0.025,-0.042 0.054,-0.024 0.177,0.04c0.122,0.064 0.285,0.117 0.362,0.117c0.077,0 0.14,0.038 0.14,0.084c0,0.046 0.045,0.075 0.1,0.064c0.164,-0.033 0.94,0.258 0.94,0.352c0,0.048 0.022,0.065 0.049,0.038c0.059,-0.059 0.712,0.19 1.33,0.508c0.253,0.131 0.469,0.237 0.48,0.238c0.14,0.006 0.381,0.111 0.381,0.166c0,0.039 0.058,0.07 0.128,0.07c0.146,0 1.258,0.564 1.299,0.659c0.014,0.034 0.071,0.061 0.125,0.061c0.117,0 1.884,1.04 2.21,1.3c0.124,0.1 0.37,0.268 0.548,0.374c0.177,0.107 0.3,0.229 0.274,0.272c-0.027,0.044 -0.01,0.055 0.037,0.026c0.048,-0.029 0.134,-0.005 0.192,0.053c0.059,0.058 0.165,0.139 0.236,0.181c0.146,0.084 0.719,0.551 0.979,0.797c0.095,0.09 0.271,0.225 0.392,0.302c0.121,0.077 0.22,0.199 0.22,0.271c0,0.072 0.023,0.108 0.051,0.081c0.027,-0.028 0.264,0.155 0.525,0.406c0.261,0.252 0.517,0.469 0.569,0.484c0.052,0.014 0.045,-0.01 -0.017,-0.052c-0.061,-0.043 -0.089,-0.135 -0.063,-0.204c0.026,-0.069 0.013,-0.147 -0.03,-0.174c-0.042,-0.026 -0.057,-0.081 -0.031,-0.122c0.025,-0.041 0.01,-0.074 -0.033,-0.074c-0.043,0 -0.122,-0.136 -0.176,-0.3c-0.054,-0.165 -0.209,-0.535 -0.344,-0.821c-0.135,-0.285 -0.238,-0.546 -0.229,-0.58c0.01,-0.033 -0.022,-0.06 -0.07,-0.06c-0.049,0 -0.068,-0.055 -0.041,-0.124c0.026,-0.068 0.018,-0.106 -0.018,-0.084c-0.035,0.022 -0.109,-0.084 -0.164,-0.236c-0.054,-0.151 -0.133,-0.276 -0.174,-0.276c-0.041,0 -0.075,-0.049 -0.075,-0.11c0,-0.06 -0.054,-0.155 -0.12,-0.21c-0.611,-0.507 0.454,-0.753 1.88,-0.435c0.11,0.025 0.335,0.066 0.5,0.091c0.165,0.025 0.3,0.076 0.3,0.112c0,0.037 0.046,0.05 0.101,0.028c0.056,-0.021 0.39,0.038 0.74,0.131c0.352,0.093 0.684,0.172 0.739,0.175c0.055,0.002 0.1,0.026 0.101,0.052c0,0.025 0.117,0.053 0.259,0.06c0.143,0.008 0.368,0.058 0.5,0.113c0.132,0.055 0.258,0.104 0.28,0.109c0.022,0.005 0.265,0.058 0.54,0.118c0.275,0.059 0.5,0.135 0.5,0.167c0,0.032 0.063,0.055 0.14,0.049c0.077,-0.005 0.338,0.053 0.58,0.128c0.242,0.076 0.782,0.236 1.2,0.356c0.418,0.121 0.778,0.239 0.8,0.263c0.022,0.024 0.147,0.055 0.279,0.07c0.131,0.014 0.258,0.05 0.28,0.079c0.023,0.03 0.077,0.058 0.121,0.063c0.135,0.014 1.268,0.36 1.48,0.451c0.233,0.101 0.281,0.116 0.594,0.18c0.129,0.027 0.273,0.073 0.32,0.102c0.048,0.03 0.156,0.065 0.242,0.078c0.087,0.013 0.177,0.05 0.201,0.083c0.024,0.031 0.133,0.07 0.243,0.085c0.11,0.015 0.212,0.06 0.227,0.101c0.015,0.04 0.06,0.052 0.101,0.027c0.041,-0.026 0.187,0.01 0.325,0.079c0.138,0.069 0.312,0.126 0.386,0.126c0.074,0 0.159,0.025 0.19,0.055c0.03,0.031 0.1,0.063 0.153,0.072c0.054,0.009 0.206,0.063 0.338,0.119c0.132,0.057 0.307,0.109 0.389,0.117c0.082,0.009 0.172,0.047 0.2,0.086c0.028,0.039 0.087,0.071 0.131,0.072c0.086,0.001 0.616,0.167 0.88,0.275c0.088,0.036 0.421,0.15 0.74,0.252c0.319,0.104 0.58,0.215 0.58,0.247c0,0.033 0.06,0.037 0.133,0.008c0.083,-0.031 0.114,-0.019 0.081,0.034c-0.029,0.046 -0.008,0.08 0.047,0.075c0.137,-0.013 1.019,0.285 1.019,0.344c0,0.027 0.097,0.057 0.216,0.066c0.118,0.01 0.239,0.057 0.269,0.105c0.029,0.047 0.078,0.077 0.108,0.067c0.102,-0.037 1.247,0.353 1.247,0.424c0,0.039 0.032,0.051 0.071,0.027c0.089,-0.055 0.569,0.108 0.569,0.193c0,0.035 0.045,0.06 0.1,0.055c0.142,-0.013 0.78,0.202 0.78,0.262c0,0.027 0.099,0.058 0.22,0.068c0.121,0.01 0.232,0.054 0.247,0.098c0.015,0.044 0.06,0.059 0.1,0.034c0.04,-0.025 0.118,-0.017 0.173,0.017c0.055,0.035 0.136,0.07 0.18,0.079c0.044,0.008 0.332,0.111 0.64,0.228c0.308,0.117 0.686,0.249 0.84,0.294c0.154,0.045 0.314,0.114 0.356,0.154c0.042,0.04 0.141,0.072 0.22,0.072c0.079,0 0.144,0.04 0.144,0.089c0,0.049 0.053,0.068 0.117,0.043c0.065,-0.024 0.139,-0.01 0.165,0.032c0.026,0.042 0.109,0.077 0.183,0.077c0.074,0 0.232,0.051 0.35,0.112c0.118,0.062 0.325,0.137 0.46,0.166c0.135,0.03 0.245,0.09 0.245,0.132c0,0.044 0.033,0.059 0.072,0.034c0.039,-0.024 0.174,0.01 0.3,0.075c0.125,0.066 0.269,0.12 0.319,0.12c0.05,0 0.194,0.054 0.32,0.12c0.126,0.066 0.288,0.12 0.359,0.12c0.072,0 0.175,0.054 0.229,0.119c0.055,0.066 0.127,0.103 0.161,0.082c0.053,-0.034 0.432,0.094 1.08,0.363c0.088,0.036 0.241,0.089 0.34,0.117c0.099,0.028 0.18,0.086 0.18,0.13c0,0.043 0.035,0.058 0.077,0.032c0.042,-0.026 0.213,0.013 0.379,0.088c0.167,0.074 0.322,0.141 0.344,0.149c0.094,0.033 0.384,0.152 0.711,0.291c0.192,0.082 0.381,0.15 0.42,0.15c0.039,0 0.224,0.068 0.41,0.151c0.187,0.084 0.717,0.303 1.179,0.487c0.462,0.184 0.909,0.395 0.994,0.468c0.098,0.085 0.13,0.093 0.088,0.022c-0.048,-0.081 0.008,-0.072 0.206,0.031c0.473,0.249 0.547,0.281 0.661,0.281c0.062,0 0.157,0.054 0.212,0.12c0.055,0.067 0.141,0.114 0.19,0.105c0.14,-0.026 0.449,0.098 0.449,0.18c0,0.041 0.027,0.067 0.06,0.059c0.106,-0.028 0.762,0.214 1.247,0.46c0.124,0.064 0.258,0.116 0.297,0.116c0.039,0 0.261,0.085 0.494,0.19c0.232,0.104 0.557,0.233 0.722,0.286c0.165,0.053 0.3,0.121 0.3,0.152c0,0.032 0.065,0.062 0.144,0.068c0.079,0.006 0.34,0.099 0.58,0.206c0.24,0.108 0.553,0.245 0.696,0.306c0.143,0.061 0.26,0.14 0.26,0.176c0,0.036 0.032,0.045 0.072,0.021c0.105,-0.065 0.582,0.153 0.509,0.233c-0.033,0.037 -0.017,0.042 0.036,0.011c0.053,-0.03 0.161,-0.021 0.24,0.021c0.2,0.106 1.086,0.503 1.183,0.53c0.322,0.091 0.44,0.148 0.44,0.214c0,0.041 0.038,0.052 0.084,0.023c0.045,-0.028 0.163,0 0.26,0.063c0.097,0.063 0.365,0.178 0.596,0.253c0.231,0.077 0.42,0.179 0.42,0.227c0,0.047 0.021,0.065 0.047,0.04c0.049,-0.05 0.417,0.092 1.513,0.58c0.088,0.039 0.34,0.147 0.56,0.24c0.22,0.092 0.472,0.201 0.56,0.24c0.088,0.04 0.394,0.168 0.68,0.285c0.286,0.117 0.546,0.253 0.579,0.304c0.032,0.05 0.059,0.058 0.06,0.018c0.001,-0.039 0.079,-0.003 0.175,0.08c0.095,0.084 0.143,0.101 0.107,0.039c-0.049,-0.082 -0.013,-0.076 0.126,0.022c0.106,0.074 0.326,0.171 0.49,0.216c0.162,0.044 0.347,0.131 0.41,0.194c0.063,0.063 0.136,0.092 0.164,0.064c0.027,-0.027 0.049,-0.005 0.049,0.049c0,0.054 0.033,0.077 0.074,0.052c0.041,-0.025 0.302,0.059 0.58,0.187c0.966,0.443 1.265,0.57 1.345,0.57c0.045,0 0.081,0.042 0.081,0.093c0,0.051 0.023,0.071 0.05,0.043c0.027,-0.027 0.225,0.04 0.44,0.148c0.214,0.109 0.408,0.196 0.431,0.195c0.022,-0.001 0.158,0.06 0.3,0.135c0.143,0.077 0.277,0.143 0.299,0.149c0.168,0.042 0.474,0.201 0.515,0.268c0.028,0.045 0.099,0.063 0.158,0.04c0.058,-0.022 0.157,0.007 0.219,0.064c0.061,0.057 0.157,0.114 0.213,0.125c0.121,0.025 0.591,0.234 1.598,0.709c0.409,0.193 0.778,0.35 0.82,0.35c0.043,0 0.077,0.036 0.077,0.081c0,0.044 0.056,0.08 0.124,0.08c0.067,0 0.358,0.109 0.644,0.244c0.287,0.133 0.601,0.277 0.697,0.319c0.096,0.042 0.229,0.109 0.295,0.15c0.066,0.04 0.246,0.126 0.4,0.19c0.852,0.356 1.28,0.566 1.28,0.627c0,0.038 0.027,0.062 0.06,0.053c0.033,-0.009 0.176,0.045 0.316,0.12c0.141,0.075 0.312,0.137 0.38,0.137c0.069,0 0.193,0.069 0.277,0.153c0.085,0.084 0.171,0.136 0.191,0.116c0.054,-0.054 0.776,0.31 0.776,0.391c0,0.038 0.033,0.049 0.074,0.024c0.04,-0.025 0.13,0.011 0.2,0.081c0.069,0.069 0.126,0.102 0.126,0.073c0,-0.03 0.153,0.036 0.34,0.146c0.339,0.198 0.383,0.216 0.545,0.216c0.047,0 0.063,0.035 0.036,0.079c-0.029,0.047 0.007,0.057 0.088,0.026c0.093,-0.035 0.119,-0.022 0.08,0.04c-0.038,0.062 -0.012,0.075 0.08,0.04c0.101,-0.039 0.12,-0.024 0.072,0.053c-0.041,0.067 -0.034,0.087 0.018,0.054c0.083,-0.051 1.478,0.642 1.526,0.758c0.014,0.033 0.083,0.039 0.153,0.011c0.093,-0.035 0.11,-0.019 0.063,0.057c-0.043,0.071 -0.035,0.087 0.027,0.049c0.092,-0.057 0.56,0.161 0.671,0.312c0.039,0.054 0.06,0.054 0.061,0c0.002,-0.052 0.023,-0.051 0.062,0.002c0.032,0.044 0.238,0.168 0.458,0.275c0.22,0.107 0.463,0.248 0.54,0.312c0.077,0.064 0.14,0.091 0.14,0.059c0,-0.067 0.935,0.418 1.143,0.593c0.078,0.065 0.168,0.12 0.2,0.121c0.123,0.004 0.977,0.476 0.977,0.54c0,0.038 0.032,0.048 0.071,0.025c0.039,-0.024 0.208,0.049 0.375,0.162c0.168,0.114 0.532,0.311 0.809,0.439c0.278,0.127 0.505,0.273 0.505,0.325c0,0.052 0.022,0.073 0.048,0.047c0.049,-0.05 2.725,1.262 3.252,1.594c0.165,0.103 0.3,0.169 0.3,0.146c0,-0.062 0.493,0.196 0.668,0.35c0.083,0.072 0.155,0.12 0.161,0.106c0.006,-0.013 0.202,0.06 0.435,0.163c0.233,0.103 0.397,0.215 0.363,0.248c-0.034,0.035 0,0.038 0.075,0.01c0.088,-0.034 0.154,-0.007 0.186,0.075c0.027,0.07 0.077,0.11 0.112,0.089c0.07,-0.043 0.825,0.354 0.867,0.456c0.015,0.036 0.06,0.044 0.1,0.019c0.04,-0.025 0.073,-0.003 0.073,0.048c0,0.052 0.051,0.074 0.111,0.051c0.061,-0.023 0.18,0.02 0.262,0.098c0.083,0.077 0.195,0.125 0.249,0.107c0.054,-0.018 0.098,0.008 0.098,0.059c0,0.05 0.033,0.07 0.074,0.045c0.04,-0.025 0.129,0.01 0.197,0.079c0.068,0.068 0.152,0.123 0.187,0.122c0.139,-0.005 0.342,0.091 0.342,0.161c0,0.041 0.027,0.067 0.06,0.058c0.091,-0.024 1.816,0.82 1.847,0.904c0.015,0.04 0.078,0.073 0.14,0.073c0.062,0 0.113,0.036 0.113,0.079c0,0.045 0.027,0.074 0.06,0.066c0.085,-0.02 0.579,0.282 0.58,0.354c0,0.034 0.04,0.06 0.089,0.06c0.049,0 0.382,0.177 0.74,0.392c0.358,0.216 0.777,0.463 0.931,0.549c1.48,0.831 2.225,1.29 2.177,1.342c-0.031,0.035 -0.017,0.041 0.031,0.013c0.049,-0.028 0.283,0.074 0.52,0.225c0.238,0.152 0.473,0.276 0.524,0.277c0.05,0.002 0.114,0.062 0.141,0.134c0.028,0.072 0.072,0.11 0.099,0.084c0.041,-0.041 0.518,0.179 0.908,0.42c0.144,0.089 1.956,1.07 2.52,1.364c0.544,0.285 0.775,0.42 0.94,0.553c0.077,0.062 0.14,0.092 0.14,0.067c0,-0.025 0.675,0.293 1.501,0.708c0.824,0.413 1.56,0.752 1.634,0.752c0.075,0.001 0.158,0.037 0.185,0.08c0.028,0.045 0.12,0.081 0.205,0.081c0.086,0 0.155,0.036 0.155,0.08c0,0.043 0.028,0.072 0.06,0.063c0.033,-0.009 0.276,0.048 0.54,0.128c0.603,0.182 0.673,0.203 0.72,0.21c0.021,0.003 0.21,0.059 0.419,0.123c0.21,0.065 0.507,0.139 0.661,0.164c0.154,0.026 0.293,0.079 0.307,0.12c0.015,0.04 0.059,0.052 0.099,0.028c0.04,-0.025 0.28,-0.004 0.534,0.046c0.526,0.103 0.806,0.14 1.261,0.166c0.175,0.009 0.347,0.032 0.38,0.05c0.069,0.036 2.066,0.021 2.627,-0.02c0.46,-0.034 1.23,-0.232 1.716,-0.44c0.204,-0.087 0.413,-0.135 0.463,-0.106c0.052,0.029 0.067,0.024 0.034,-0.012c-0.068,-0.076 0.813,-0.454 0.913,-0.392c0.036,0.022 0.066,0.008 0.066,-0.034c0,-0.091 0.972,-0.404 1.363,-0.438c0.156,-0.014 0.319,-0.048 0.362,-0.075c0.234,-0.144 1.455,0.098 1.35,0.268c-0.024,0.039 0.01,0.071 0.075,0.071c0.066,0 0.166,0.125 0.221,0.279c0.056,0.155 0.127,0.281 0.157,0.281c0.085,0 0.168,0.55 0.098,0.661c-0.034,0.054 -0.051,0.161 -0.039,0.239c0.013,0.077 -0.021,0.139 -0.075,0.139c-0.054,0 -0.075,0.023 -0.048,0.051c0.028,0.028 0.009,0.127 -0.043,0.22c-0.051,0.093 -0.101,0.215 -0.11,0.271c-0.049,0.292 -1.554,1.59 -2.01,1.733c-0.1,0.031 -0.18,0.089 -0.18,0.128c0,0.04 -0.05,0.054 -0.11,0.031c-0.06,-0.023 -0.132,0.016 -0.16,0.087c-0.027,0.071 -0.088,0.106 -0.136,0.077c-0.047,-0.03 -0.14,0.013 -0.206,0.095c-0.066,0.081 -0.093,0.094 -0.059,0.029c0.036,-0.069 -0.032,-0.044 -0.163,0.059c-0.124,0.098 -0.255,0.159 -0.29,0.137c-0.035,-0.021 -0.184,0.03 -0.33,0.115c-0.384,0.223 -1.26,0.434 -1.846,0.444c-0.121,0.002 -0.221,0.022 -0.221,0.044c0,0.187 -5.14,0.145 -5.447,-0.045c-0.039,-0.024 -0.259,-0.062 -0.49,-0.084c-0.231,-0.023 -0.438,-0.066 -0.461,-0.096c-0.023,-0.031 -0.146,-0.067 -0.273,-0.08c-0.128,-0.014 -0.344,-0.11 -0.48,-0.214c-0.453,-0.344 -1.233,-0.695 -1.807,-0.811c-0.109,-0.022 -0.217,-0.065 -0.24,-0.095c-0.023,-0.031 -0.132,-0.068 -0.241,-0.083c-0.11,-0.015 -0.213,-0.06 -0.228,-0.101c-0.014,-0.04 -0.057,-0.053 -0.094,-0.031c-0.064,0.04 -0.66,-0.128 -0.999,-0.281c-0.088,-0.04 -0.312,-0.115 -0.497,-0.168c-0.186,-0.052 -0.323,-0.118 -0.306,-0.147c0.018,-0.028 -0.036,-0.056 -0.12,-0.062c-0.255,-0.02 -1.591,-0.687 -1.54,-0.769c0.027,-0.043 0.013,-0.056 -0.031,-0.029c-0.07,0.042 -0.639,-0.283 -0.746,-0.426c-0.022,-0.03 -0.082,-0.069 -0.132,-0.086c-0.117,-0.041 -0.815,-0.632 -1.344,-1.139c-0.222,-0.213 -0.42,-0.381 -0.441,-0.374c-0.02,0.007 -0.063,-0.053 -0.094,-0.133c-0.031,-0.081 -0.06,-0.117 -0.063,-0.082c-0.008,0.09 -1.046,-0.957 -1.046,-1.055c0,-0.044 -0.041,-0.106 -0.092,-0.137c-0.062,-0.038 -0.071,-0.02 -0.028,0.055c0.036,0.062 -0.066,-0.01 -0.225,-0.16c-0.159,-0.15 -0.269,-0.304 -0.245,-0.342c0.023,-0.038 0.012,-0.06 -0.026,-0.047c-0.037,0.012 -0.227,-0.131 -0.422,-0.318c-0.195,-0.188 -0.336,-0.34 -0.313,-0.34c0.092,0 -2.548,-2.588 -2.657,-2.605c-0.064,-0.01 -0.833,-0.47 -0.872,-0.521c-0.022,-0.029 -0.121,-0.078 -0.22,-0.109c-0.099,-0.031 -0.18,-0.084 -0.18,-0.118c0,-0.033 -0.045,-0.064 -0.1,-0.069c-0.055,-0.005 -0.368,-0.101 -0.697,-0.213c-0.328,-0.113 -0.644,-0.205 -0.7,-0.205c-0.056,0 -0.103,-0.039 -0.103,-0.085c0,-0.047 -0.033,-0.064 -0.074,-0.039c-0.041,0.025 -0.392,-0.009 -0.78,-0.077c-0.388,-0.069 -0.814,-0.139 -0.946,-0.157c-0.132,-0.019 -0.492,-0.074 -0.8,-0.123c-0.308,-0.05 -0.704,-0.103 -0.88,-0.119c-0.176,-0.015 -0.482,-0.047 -0.68,-0.069c-0.198,-0.022 -0.504,-0.057 -0.68,-0.076c-1.085,-0.119 -1.364,-0.154 -1.4,-0.176c-0.022,-0.013 -0.309,-0.046 -0.64,-0.074c-0.329,-0.028 -0.798,-0.091 -1.04,-0.14c-0.242,-0.049 -0.494,-0.086 -0.56,-0.084c-0.066,0.003 -0.174,-0.013 -0.24,-0.036c-0.066,-0.023 -0.282,-0.054 -0.48,-0.07c-0.198,-0.015 -0.45,-0.048 -0.56,-0.073c-0.11,-0.024 -0.326,-0.061 -0.48,-0.082c-0.154,-0.021 -0.468,-0.077 -0.699,-0.124c-0.23,-0.048 -0.437,-0.084 -0.46,-0.08c-0.023,0.004 -0.145,-0.047 -0.272,-0.111c-0.125,-0.066 -0.249,-0.098 -0.274,-0.073c-0.1,0.099 -2.135,-0.709 -2.135,-0.849c0,-0.031 -0.048,-0.057 -0.106,-0.057c-0.13,0 -0.841,-0.477 -1.034,-0.694c-0.077,-0.086 -0.14,-0.133 -0.14,-0.105c0,0.029 -0.064,-0.01 -0.142,-0.087c-0.077,-0.078 -0.23,-0.205 -0.339,-0.284c-0.109,-0.079 -0.148,-0.119 -0.086,-0.088c0.073,0.037 0.092,0.024 0.055,-0.036c-0.031,-0.051 -0.094,-0.092 -0.139,-0.092c-0.117,0 -0.791,-0.691 -0.732,-0.751c0.028,-0.027 -0.01,-0.05 -0.083,-0.05c-0.074,0 -0.135,-0.026 -0.136,-0.06c-0.001,-0.032 -0.181,-0.253 -0.4,-0.49c-0.219,-0.237 -0.398,-0.467 -0.398,-0.511c0,-0.044 -0.081,-0.156 -0.18,-0.249c-0.099,-0.093 -0.224,-0.268 -0.278,-0.389c-0.054,-0.121 -0.131,-0.221 -0.171,-0.221c-0.04,0 -0.229,-0.242 -0.421,-0.54c-0.394,-0.61 -0.377,-0.586 -0.752,-1.02c-0.153,-0.175 -0.278,-0.367 -0.278,-0.424c0,-0.058 -0.032,-0.085 -0.071,-0.061c-0.039,0.024 -0.12,-0.017 -0.18,-0.091c-0.075,-0.092 -0.078,-0.115 -0.009,-0.074c0.055,0.033 0.1,0.039 0.1,0.014c0,-0.025 -0.102,-0.108 -0.227,-0.184c-0.237,-0.146 -0.723,-0.521 -0.981,-0.759c-0.083,-0.078 -0.152,-0.121 -0.152,-0.097c0,0.025 -0.171,-0.072 -0.38,-0.213c-0.343,-0.233 -0.325,-0.066 0.02,0.188c0.044,0.032 0.061,0.06 0.036,0.06c-0.024,0.001 0.129,0.186 0.34,0.411c0.212,0.225 0.384,0.456 0.384,0.513c0,0.057 0.034,0.116 0.074,0.131c0.041,0.015 0.086,0.08 0.1,0.146c0.015,0.066 0.08,0.168 0.146,0.226c0.066,0.058 0.075,0.084 0.021,0.056c-0.065,-0.033 -0.083,-0.007 -0.051,0.074c0.026,0.069 0.079,0.125 0.117,0.125c0.06,0 0.843,1.489 0.841,1.6c-0.001,0.047 0.524,1.156 0.799,1.688c0.104,0.203 0.166,0.392 0.138,0.42c-0.028,0.029 -0.01,0.052 0.04,0.052c0.05,0 0.147,0.108 0.215,0.24c0.068,0.132 0.105,0.24 0.082,0.24c-0.023,0 0.032,0.073 0.121,0.162c0.09,0.09 0.138,0.207 0.107,0.26c-0.03,0.054 -0.027,0.072 0.008,0.04c0.076,-0.068 0.327,0.235 0.441,0.533c0.044,0.118 0.117,0.192 0.161,0.165c0.044,-0.028 0.081,-0.021 0.082,0.015c0.004,0.169 0.985,1.076 1.538,1.423c0.341,0.214 0.62,0.425 0.62,0.469c0,0.043 0.021,0.059 0.046,0.034c0.025,-0.025 0.268,0.045 0.54,0.157c0.528,0.216 1.284,0.432 1.514,0.432c0.077,-0.001 0.14,0.024 0.14,0.055c0,0.03 0.189,0.063 0.42,0.074c0.231,0.011 0.511,0.041 0.62,0.066c0.11,0.026 0.416,0.062 0.68,0.079c0.264,0.017 0.696,0.052 0.96,0.077c0.469,0.045 1.349,0.093 2.8,0.154c0.396,0.017 1.206,0.05 1.8,0.075c2.679,0.112 3.261,0.141 3.56,0.181c0.176,0.024 0.446,0.055 0.6,0.07c0.423,0.041 0.844,0.109 1.179,0.191c0.822,0.201 1.264,0.342 1.288,0.412c0.015,0.042 0.057,0.058 0.095,0.035c0.066,-0.041 0.645,0.221 0.866,0.39c0.06,0.046 0.153,0.09 0.208,0.098c0.108,0.016 1.244,0.755 1.244,0.809c0,0.018 -0.036,0.011 -0.08,-0.016c-0.044,-0.028 -0.08,-0.031 -0.08,-0.009c0,0.023 0.132,0.103 0.291,0.179c0.161,0.076 0.309,0.204 0.33,0.283c0.02,0.08 0.064,0.129 0.097,0.108c0.065,-0.04 0.843,0.816 1.054,1.16c0.072,0.118 0.222,0.312 0.334,0.432c0.112,0.12 0.295,0.317 0.409,0.439c0.113,0.122 0.205,0.263 0.205,0.314c0,0.052 0.031,0.094 0.07,0.094c0.038,0 0.2,0.171 0.361,0.379c0.51,0.665 1.729,2 1.729,1.894c0,-0.04 0.132,0.07 0.673,0.562c0.171,0.157 0.334,0.285 0.361,0.285c0.026,0 0.137,0.081 0.247,0.18c0.11,0.099 0.397,0.309 0.639,0.467c1.423,0.929 1.675,1.082 2.44,1.483c0.22,0.116 0.506,0.285 0.635,0.375c0.139,0.099 0.205,0.119 0.163,0.05c-0.052,-0.084 -0.014,-0.078 0.143,0.025c0.117,0.077 0.269,0.139 0.336,0.139c0.068,0 0.123,0.036 0.123,0.081c0,0.044 0.028,0.072 0.06,0.063c0.112,-0.03 0.539,0.241 0.66,0.42c0.066,0.097 0.173,0.231 0.238,0.299c0.527,0.547 0.552,1.857 0.049,2.637c-0.091,0.142 -0.214,0.259 -0.271,0.26c-0.058,0 -0.084,0.034 -0.059,0.075c0.068,0.111 -0.595,0.537 -0.777,0.498c-0.033,-0.007 -0.06,0.016 -0.06,0.05c0,0.065 -0.398,0.188 -1.08,0.333c-0.677,0.143 -2.645,-0.012 -3.233,-0.255c-0.114,-0.047 -0.243,-0.092 -0.287,-0.101c-0.044,-0.008 -0.098,-0.023 -0.12,-0.033c-0.022,-0.01 -0.11,-0.032 -0.196,-0.048c-0.086,-0.016 -0.23,-0.063 -0.32,-0.104c-0.938,-0.433 -1.244,-0.597 -1.244,-0.664c0,-0.044 -0.036,-0.057 -0.08,-0.031c-0.044,0.028 -0.08,0.012 -0.08,-0.035c0,-0.046 -0.054,-0.085 -0.12,-0.085c-0.066,0 -0.12,-0.041 -0.12,-0.093c0,-0.051 -0.022,-0.071 -0.049,-0.043c-0.049,0.049 -0.573,-0.303 -0.689,-0.463c-0.04,-0.053 -0.061,-0.053 -0.063,-0.001c-0.002,0.045 -0.057,0.011 -0.121,-0.075c-0.065,-0.085 -0.118,-0.128 -0.118,-0.094c0,0.048 -0.868,-0.579 -1.04,-0.75c-0.022,-0.022 -0.22,-0.182 -0.44,-0.354c-0.22,-0.173 -0.516,-0.434 -0.66,-0.581c-0.143,-0.146 -0.26,-0.246 -0.26,-0.221c0,0.075 -0.959,-0.725 -1.523,-1.271c-0.174,-0.169 -0.317,-0.277 -0.317,-0.241c0,0.036 -0.091,-0.024 -0.203,-0.133c-0.403,-0.396 -1.439,-1.242 -1.957,-1.599c-0.154,-0.106 -0.337,-0.257 -0.408,-0.335c-0.07,-0.078 -0.151,-0.119 -0.18,-0.091c-0.028,0.029 -0.052,0.01 -0.052,-0.041c0,-0.051 -0.047,-0.094 -0.105,-0.094c-0.057,0 -0.174,-0.063 -0.26,-0.14c-0.214,-0.195 -0.592,-0.44 -0.855,-0.555c-0.121,-0.053 -0.22,-0.14 -0.22,-0.194c0,-0.053 -0.021,-0.076 -0.047,-0.05c-0.026,0.026 -0.215,-0.024 -0.42,-0.112c-0.72,-0.309 -0.855,-0.367 -1.093,-0.471c-0.132,-0.058 -0.271,-0.098 -0.309,-0.088c-0.038,0.009 -0.283,-0.057 -0.544,-0.147c-0.261,-0.091 -0.563,-0.172 -0.67,-0.181c-0.108,-0.009 -0.197,-0.041 -0.197,-0.071c0,-0.031 -0.072,-0.037 -0.16,-0.014c-0.088,0.023 -0.16,0.006 -0.16,-0.038c0,-0.044 -0.045,-0.076 -0.1,-0.072c-0.165,0.015 -1.134,-0.121 -1.217,-0.171c-0.043,-0.025 -0.187,-0.052 -0.32,-0.06c-0.134,-0.007 -0.243,-0.022 -0.243,-0.032c0,-0.01 -0.126,-0.031 -0.28,-0.047c-0.679,-0.069 -0.92,-0.097 -0.92,-0.109c0,-0.006 -0.288,-0.031 -0.64,-0.054c-0.352,-0.023 -0.784,-0.056 -0.96,-0.073c-0.46,-0.045 -4.714,-0.119 -8.8,-0.155c-3.117,-0.027 -4.022,-0.072 -4.889,-0.244c-0.127,-0.025 -0.402,-0.068 -0.611,-0.095c-0.209,-0.027 -0.38,-0.071 -0.38,-0.098c0,-0.027 -0.081,-0.052 -0.18,-0.056c-0.933,-0.037 -4.94,-1.564 -4.94,-1.882c0,-0.044 -0.029,-0.061 -0.066,-0.039c-0.069,0.043 -0.911,-0.437 -1.103,-0.629c-0.061,-0.062 -0.184,-0.135 -0.272,-0.163c-0.089,-0.028 -0.141,-0.084 -0.115,-0.125c0.025,-0.041 -0.006,-0.075 -0.07,-0.075c-0.064,0 -0.255,-0.124 -0.425,-0.277c-0.17,-0.154 -0.352,-0.279 -0.406,-0.28c-0.053,-0.002 -0.134,-0.072 -0.18,-0.157c-0.045,-0.085 -0.155,-0.177 -0.244,-0.206c-0.089,-0.028 -0.141,-0.084 -0.115,-0.125c0.025,-0.041 -0.002,-0.074 -0.06,-0.074c-0.093,0 -0.375,-0.262 -1.127,-1.048c-0.122,-0.128 -0.263,-0.233 -0.313,-0.233c-0.05,0 -0.069,-0.021 -0.043,-0.047c0.026,-0.026 -0.138,-0.224 -0.364,-0.44c-0.227,-0.216 -0.378,-0.392 -0.337,-0.392c0.042,0 -0.005,-0.057 -0.103,-0.126c-0.099,-0.069 -0.158,-0.16 -0.132,-0.202c0.026,-0.042 0.014,-0.067 -0.026,-0.055c-0.073,0.023 -0.499,-0.433 -0.499,-0.532c0,-0.029 -0.075,-0.132 -0.167,-0.229c-0.165,-0.173 -1.19,-1.674 -1.299,-1.902c-0.031,-0.063 -0.127,-0.222 -0.214,-0.354c-0.088,-0.132 -0.199,-0.34 -0.247,-0.461c-0.049,-0.121 -0.112,-0.219 -0.141,-0.219c-0.054,0 -0.286,-0.468 -0.29,-0.583c-0.001,-0.035 -0.039,-0.089 -0.084,-0.12c-0.159,-0.112 -0.364,-0.503 -0.309,-0.592c0.034,-0.055 0.02,-0.068 -0.036,-0.033c-0.051,0.031 -0.093,0.021 -0.093,-0.024c0,-0.123 -1.067,-1.69 -1.56,-2.293c-0.242,-0.295 -0.44,-0.587 -0.44,-0.65c0,-0.063 -0.033,-0.095 -0.073,-0.07c-0.04,0.025 -0.085,0.011 -0.1,-0.03c-0.037,-0.105 -0.686,-0.858 -1.047,-1.216c-0.165,-0.163 -0.3,-0.338 -0.3,-0.388c0,-0.05 -0.03,-0.072 -0.068,-0.049c-0.079,0.049 -1.052,-0.933 -1.052,-1.063c0,-0.049 -0.036,-0.089 -0.08,-0.089c-0.044,0 -0.152,-0.072 -0.24,-0.16c-0.088,-0.089 -0.16,-0.139 -0.16,-0.113c0,0.027 -0.207,-0.13 -0.46,-0.348c-0.253,-0.218 -0.841,-0.644 -1.307,-0.948c-1.388,-0.905 -1.463,-0.928 -0.753,-0.235c0.242,0.236 0.44,0.469 0.44,0.517c0,0.048 0.045,0.077 0.1,0.066c0.055,-0.011 0.091,0.025 0.08,0.081c-0.011,0.055 0.028,0.099 0.087,0.099c0.058,0 0.154,0.091 0.213,0.201c0.059,0.109 0.139,0.2 0.179,0.2c0.038,0 0.051,0.032 0.026,0.071c-0.024,0.04 0.007,0.091 0.068,0.115c0.123,0.047 0.586,0.687 0.624,0.863c0.013,0.06 0.046,0.129 0.073,0.151c0.134,0.108 0.39,0.826 0.39,1.095l0,0.304l-0.58,0.011c-0.319,0.006 -1.93,0.041 -3.58,0.078c-2.751,0.061 -7.984,0.059 -9.04,-0.004c-3.021,-0.178 -3.509,-0.216 -4.2,-0.328c-0.132,-0.022 -0.366,-0.056 -0.52,-0.077c-0.438,-0.058 -0.552,-0.084 -0.605,-0.138c-0.028,-0.028 -0.095,-0.033 -0.15,-0.012c-0.055,0.021 -0.493,-0.055 -0.972,-0.168c-0.48,-0.113 -0.983,-0.22 -1.117,-0.238c-0.358,-0.047 -1.742,-0.445 -1.843,-0.53c-0.048,-0.039 -0.108,-0.051 -0.133,-0.026c-0.061,0.061 -0.94,-0.219 -0.94,-0.299c0,-0.035 -0.054,-0.043 -0.12,-0.017c-0.066,0.025 -0.12,0.006 -0.12,-0.043c0,-0.048 -0.027,-0.081 -0.06,-0.072c-0.136,0.037 -0.66,-0.11 -0.66,-0.185c0,-0.044 -0.035,-0.059 -0.078,-0.032c-0.044,0.026 -0.154,0.008 -0.246,-0.041c-0.091,-0.05 -0.227,-0.102 -0.301,-0.116c-0.192,-0.039 -1.08,-0.372 -1.175,-0.442c-0.044,-0.032 -0.179,-0.082 -0.3,-0.111c-0.121,-0.029 -0.22,-0.088 -0.22,-0.131c0,-0.043 -0.09,-0.079 -0.2,-0.079c-0.11,0 -0.2,-0.038 -0.2,-0.084c0,-0.047 -0.029,-0.067 -0.064,-0.046c-0.035,0.022 -0.223,-0.036 -0.42,-0.128c-0.445,-0.21 -0.406,-0.193 -0.598,-0.257c-0.151,-0.05 -0.161,-0.119 -0.157,-1.058c0.005,-1.106 -0.137,-2.332 -0.358,-3.08c-0.048,-0.162 -0.078,-0.324 -0.068,-0.36c0.011,-0.037 -0.026,-0.148 -0.081,-0.248c-0.056,-0.1 -0.082,-0.214 -0.057,-0.253c0.024,-0.04 0.013,-0.084 -0.025,-0.099c-0.038,-0.015 -0.146,-0.202 -0.24,-0.416l-0.171,-0.389l0.18,0.056c0.098,0.03 0.26,0.075 0.359,0.098c0.099,0.024 0.18,0.077 0.18,0.118c0,0.042 0.034,0.055 0.076,0.029c0.042,-0.026 0.357,0.042 0.7,0.151c0.343,0.109 0.912,0.275 1.264,0.37c0.352,0.095 0.766,0.22 0.92,0.278c0.154,0.059 0.388,0.133 0.52,0.165c0.132,0.032 0.294,0.073 0.36,0.089c0.066,0.018 0.281,0.05 0.478,0.072c0.197,0.022 0.377,0.066 0.4,0.097c0.023,0.031 0.096,0.063 0.162,0.071c0.138,0.019 1.798,0.338 2.04,0.392c0.088,0.02 0.421,0.078 0.74,0.129c0.319,0.051 0.58,0.117 0.58,0.147c0,0.03 0.097,0.044 0.216,0.031c0.119,-0.013 0.252,-0.002 0.294,0.024c0.044,0.027 0.262,0.061 0.484,0.077c0.224,0.015 0.46,0.048 0.526,0.073c0.066,0.026 0.264,0.059 0.44,0.073c0.176,0.015 0.518,0.052 0.76,0.081c0.242,0.03 0.541,0.05 0.665,0.044c0.124,-0.006 0.262,0.013 0.306,0.041c0.175,0.108 4.901,0.187 5.004,0.085c0.028,-0.029 0.217,-0.057 0.419,-0.063c0.451,-0.013 -0.131,-0.105 -1.234,-0.195c-0.352,-0.029 -0.652,-0.084 -0.666,-0.123c-0.015,-0.039 -0.168,-0.049 -0.341,-0.021c-0.172,0.028 -0.313,0.018 -0.313,-0.02c0,-0.039 -0.189,-0.081 -0.42,-0.093c-0.415,-0.022 -2.02,-0.29 -2.02,-0.338c0,-0.008 -0.123,-0.026 -0.274,-0.041c-0.151,-0.016 -0.367,-0.052 -0.48,-0.081c-0.113,-0.029 -0.296,-0.068 -0.406,-0.086c-0.159,-0.027 -0.541,-0.113 -1.04,-0.234c-0.022,-0.006 -0.265,-0.06 -0.54,-0.12c-0.275,-0.06 -0.5,-0.14 -0.5,-0.178c0,-0.038 -0.037,-0.046 -0.083,-0.017c-0.046,0.028 -0.343,-0.03 -0.66,-0.129c-0.317,-0.099 -0.613,-0.188 -0.657,-0.198c-0.044,-0.009 -0.242,-0.064 -0.44,-0.121c-0.198,-0.057 -0.378,-0.107 -0.4,-0.111c-0.31,-0.058 -2.16,-0.715 -2.16,-0.768c0,-0.039 -0.054,-0.05 -0.12,-0.025c-0.066,0.026 -0.12,0.009 -0.12,-0.037c0,-0.046 -0.063,-0.081 -0.14,-0.078c-0.226,0.008 -1.149,-0.379 -1.082,-0.453c0.034,-0.037 0.014,-0.04 -0.046,-0.006c-0.065,0.038 -0.202,-0.008 -0.351,-0.118c-0.134,-0.099 -0.216,-0.136 -0.183,-0.081c0.034,0.054 -0.096,0.014 -0.288,-0.09c-0.192,-0.103 -0.361,-0.212 -0.375,-0.243c-0.014,-0.031 -0.069,-0.039 -0.122,-0.018c-0.053,0.02 -0.268,-0.072 -0.477,-0.205c-0.21,-0.133 -0.427,-0.242 -0.483,-0.242c-0.056,0 -0.298,-0.117 -0.537,-0.26c-0.24,-0.143 -0.588,-0.328 -0.774,-0.411c-0.185,-0.083 -0.318,-0.182 -0.295,-0.22c0.023,-0.037 -0.013,-0.069 -0.081,-0.069c-0.068,0 -0.195,-0.06 -0.282,-0.134c-0.086,-0.074 -0.208,-0.143 -0.27,-0.152c-0.164,-0.024 -0.534,-0.279 -0.534,-0.367c0,-0.042 -0.036,-0.054 -0.08,-0.026c-0.044,0.027 -0.08,0.011 -0.08,-0.036c0,-0.046 -0.04,-0.084 -0.09,-0.084c-0.12,0 -1.033,-0.656 -1.339,-0.961c-0.278,-0.279 -0.284,-0.356 0.07,1.04c0.14,0.55 0.265,1.126 0.278,1.281c0.013,0.154 0.051,0.344 0.082,0.423c0.033,0.079 0.039,0.164 0.014,0.188c-0.025,0.025 -0.01,0.137 0.033,0.25c0.043,0.112 0.09,0.374 0.104,0.581c0.015,0.208 0.043,0.409 0.063,0.448c0.299,0.564 0.056,5.15 -0.272,5.15c-0.044,0 -0.062,0.049 -0.038,0.108c0.142,0.372 -1.752,2.452 -2.233,2.452c-0.029,0 -0.266,0.109 -0.528,0.241c-0.447,0.228 -1.269,0.486 -1.904,0.6c-0.652,0.116 -2.935,0.219 -3.071,0.138c-0.039,-0.024 -0.381,-0.055 -0.76,-0.071c-0.379,-0.016 -0.743,-0.052 -0.809,-0.08c-0.066,-0.028 -0.215,-0.044 -0.332,-0.035c-0.117,0.01 -0.234,-0.018 -0.26,-0.061c-0.027,-0.043 -0.12,-0.059 -0.208,-0.035c-0.088,0.023 -0.16,0.01 -0.16,-0.028c0,-0.038 -0.117,-0.072 -0.26,-0.076c-0.316,-0.007 -1.82,-0.359 -1.82,-0.426c0,-0.026 -0.112,-0.051 -0.249,-0.057c-0.136,-0.004 -0.271,-0.04 -0.299,-0.079c-0.029,-0.04 -0.092,-0.079 -0.142,-0.088c-0.049,-0.009 -0.19,-0.035 -0.311,-0.057c-0.123,-0.022 -0.635,-0.188 -1.138,-0.37c-0.504,-0.181 -1.01,-0.347 -1.127,-0.368c-0.116,-0.021 -0.23,-0.063 -0.252,-0.094c-0.023,-0.03 -0.082,-0.062 -0.132,-0.071c-0.049,-0.009 -0.177,-0.032 -0.283,-0.052c-0.107,-0.019 -0.463,-0.118 -0.791,-0.218c-0.328,-0.101 -0.623,-0.19 -0.656,-0.199c-0.033,-0.008 -0.069,-0.022 -0.08,-0.031c-0.011,-0.009 -0.092,-0.028 -0.18,-0.042c-0.428,-0.066 -1.534,-0.294 -1.64,-0.337c-0.066,-0.028 -0.143,-0.046 -0.172,-0.04c-0.028,0.005 -0.262,-0.027 -0.52,-0.072c-0.257,-0.045 -0.666,-0.101 -0.908,-0.124c-0.425,-0.04 -0.76,-0.087 -0.76,-0.106c0,-0.059 -1.895,0.03 -2.006,0.094c-0.041,0.023 -0.218,0.071 -0.394,0.107c-0.356,0.071 -0.337,0.067 -0.56,0.152c-1.035,0.397 -1.48,0.876 -1.48,1.59c0,0.386 0.334,0.855 0.607,0.855c0.186,0 0.538,0.295 0.474,0.398c-0.023,0.037 0.003,0.084 0.058,0.104c0.074,0.026 0.05,0.135 -0.089,0.405c-0.105,0.203 -0.227,0.346 -0.272,0.319c-0.046,-0.028 -0.059,-0.012 -0.03,0.035c0.065,0.104 -0.964,1.218 -1.124,1.218c-0.062,0 -0.094,0.031 -0.071,0.069c0.049,0.079 -0.698,0.604 -0.993,0.698c-0.324,0.103 -0.388,0.104 -0.701,0.012c-0.164,-0.048 -0.344,-0.079 -0.397,-0.07c-0.593,0.106 -1.834,-1.101 -1.886,-1.832c-0.009,-0.13 -0.043,-0.236 -0.076,-0.236c-0.088,0 -0.073,-0.649 0.027,-1.137c0.108,-0.523 0.395,-1.344 0.47,-1.344c0.031,0 0.057,-0.044 0.058,-0.099c0.002,-0.114 0.211,-0.582 0.363,-0.816c0.328,-0.503 0.526,-0.754 0.564,-0.716c0.024,0.024 0.066,-0.029 0.095,-0.119c0.062,-0.195 1.139,-1.209 1.284,-1.209c0.056,0 0.125,-0.06 0.152,-0.132c0.028,-0.072 0.07,-0.112 0.094,-0.088c0.024,0.023 0.126,-0.035 0.228,-0.129c0.197,-0.182 1.224,-0.729 1.374,-0.732c0.049,-0.001 0.142,-0.046 0.207,-0.1c0.161,-0.133 0.759,-0.339 0.817,-0.28c0.026,0.026 0.047,0.008 0.047,-0.04c0,-0.048 0.117,-0.11 0.26,-0.138c0.143,-0.028 0.332,-0.083 0.42,-0.122c0.306,-0.138 1.02,-0.316 1.09,-0.274c0.038,0.024 0.07,0.012 0.07,-0.027c0,-0.04 0.045,-0.074 0.1,-0.077c0.055,-0.003 0.244,-0.033 0.42,-0.067c0.176,-0.035 0.401,-0.065 0.5,-0.069c0.099,-0.003 0.18,-0.027 0.18,-0.054c0,-0.273 6.188,-0.374 8.717,-0.142c0.416,0.039 0.956,0.088 1.2,0.111c0.244,0.022 0.569,0.054 0.723,0.072c0.154,0.017 0.541,0.057 0.86,0.09c0.319,0.032 0.58,0.085 0.58,0.118c0,0.034 0.117,0.051 0.26,0.039c0.143,-0.011 0.293,-0.001 0.334,0.023c0.041,0.024 0.167,0.052 0.28,0.062c0.438,0.038 0.897,0.113 0.969,0.157c0.041,0.026 0.054,-0.009 0.028,-0.077c-0.026,-0.068 -0.081,-0.103 -0.123,-0.077c-0.041,0.025 -0.118,0.012 -0.171,-0.03c-0.054,-0.041 -0.151,-0.078 -0.217,-0.082c-0.095,-0.005 -0.338,-0.052 -0.46,-0.09c-0.011,-0.003 -0.047,-0.01 -0.08,-0.014c-0.033,-0.006 -0.227,-0.075 -0.431,-0.156c-0.204,-0.081 -0.394,-0.124 -0.42,-0.097c-0.027,0.026 -0.049,0.007 -0.049,-0.043c0,-0.05 -0.054,-0.07 -0.12,-0.044c-0.066,0.025 -0.12,0.004 -0.12,-0.048c0,-0.051 -0.029,-0.075 -0.065,-0.053c-0.077,0.048 -0.74,-0.168 -0.851,-0.276c-0.042,-0.041 -0.143,-0.074 -0.225,-0.074c-0.143,0 -0.62,-0.2 -1.459,-0.612c-0.665,-0.327 -0.84,-0.434 -0.84,-0.513c0,-0.041 -0.063,-0.076 -0.14,-0.076c-0.121,-0.001 -0.782,-0.464 -0.899,-0.63c-0.022,-0.032 -0.178,-0.141 -0.345,-0.243c-0.168,-0.101 -0.289,-0.199 -0.272,-0.218c0.019,-0.018 -0.097,-0.167 -0.256,-0.332c-0.158,-0.164 -0.334,-0.37 -0.39,-0.458c-0.055,-0.087 -0.226,-0.336 -0.379,-0.553c-0.154,-0.217 -0.279,-0.43 -0.279,-0.473c0,-0.044 -0.051,-0.137 -0.113,-0.206c-0.176,-0.198 -1.007,-1.859 -1.007,-2.014c0,-0.077 -0.027,-0.151 -0.06,-0.166c-0.16,-0.071 -0.766,-1.61 -0.674,-1.713c0.03,-0.032 0.016,-0.038 -0.031,-0.011c-0.073,0.042 -0.31,-0.507 -0.389,-0.903c-0.089,-0.444 -0.353,-0.827 -0.373,-0.54c-0.004,0.056 -0.02,0.208 -0.037,0.34c-0.167,1.356 -0.18,1.81 -0.082,2.801c0.076,0.768 0.109,1.039 0.126,1.039c0.006,0 0.023,0.057 0.037,0.127c0.014,0.069 0.122,0.442 0.24,0.83c0.118,0.387 0.219,0.772 0.226,0.854c0.006,0.082 0.043,0.15 0.083,0.15c0.039,0 0.05,0.053 0.025,0.12c-0.025,0.065 -0.016,0.12 0.021,0.12c0.037,0 0.144,0.185 0.238,0.412c0.186,0.446 0.188,0.604 0.003,0.247c-0.062,-0.121 -0.149,-0.258 -0.193,-0.306c-0.044,-0.047 -0.17,-0.205 -0.28,-0.351c-0.11,-0.147 -0.286,-0.351 -0.392,-0.454c-0.105,-0.104 -0.17,-0.189 -0.144,-0.189c0.026,0 -0.13,-0.174 -0.347,-0.387c-0.217,-0.214 -0.377,-0.406 -0.355,-0.428c0.021,-0.021 -0.042,-0.108 -0.14,-0.192c-0.178,-0.151 -0.178,-0.151 -0.067,0.008c0.062,0.087 -0.104,-0.057 -0.37,-0.321c-0.612,-0.608 -1.05,-1.007 -1.275,-1.159c-0.097,-0.067 -0.393,-0.289 -0.658,-0.496c-0.264,-0.206 -0.582,-0.432 -0.706,-0.502c-0.124,-0.07 -0.352,-0.203 -0.506,-0.296c-0.154,-0.093 -0.64,-0.35 -1.08,-0.571c-0.44,-0.221 -0.812,-0.431 -0.825,-0.465c-0.014,-0.034 -0.072,-0.043 -0.13,-0.021c-0.057,0.022 -0.155,-0.008 -0.217,-0.065c-0.061,-0.057 -0.147,-0.112 -0.19,-0.122c-0.127,-0.027 -1.025,-0.348 -1.198,-0.428c-0.344,-0.159 -0.828,-0.3 -0.873,-0.255c-0.026,0.026 -0.047,0.013 -0.047,-0.029c0,-0.041 -0.097,-0.083 -0.216,-0.094c-0.119,-0.009 -0.25,-0.05 -0.29,-0.091c-0.041,-0.04 -0.123,-0.054 -0.184,-0.03c-0.061,0.023 -0.11,0.006 -0.11,-0.038c0,-0.044 -0.045,-0.076 -0.1,-0.072c-0.148,0.011 -0.728,-0.118 -0.82,-0.182c-0.044,-0.031 -0.224,-0.063 -0.4,-0.072c-0.713,-0.036 -1.655,-0.756 -2.046,-1.565c-0.17,-0.351 -0.801,-1.359 -0.991,-1.583c-0.063,-0.075 -0.172,-0.246 -0.241,-0.38c-0.07,-0.134 -0.173,-0.244 -0.23,-0.244c-0.143,0 -0.468,-0.357 -0.393,-0.432c0.034,-0.034 0.024,-0.049 -0.021,-0.034c-0.115,0.038 -0.524,-0.299 -0.455,-0.376c0.031,-0.035 0.016,-0.04 -0.034,-0.012c-0.05,0.029 -0.175,-0.011 -0.28,-0.088c-0.868,-0.643 -1.32,-0.7 -1.011,-0.129c0.129,0.237 0.212,0.431 0.186,0.431c-0.027,0 0.007,0.108 0.076,0.24c0.247,0.479 0.462,2.648 0.274,2.764c-0.042,0.026 -0.056,0.08 -0.032,0.12c0.063,0.101 -0.111,0.716 -0.203,0.716c-0.04,0 -0.054,0.052 -0.03,0.114c0.024,0.063 -0.029,0.186 -0.116,0.274c-0.088,0.087 -0.145,0.174 -0.128,0.191c0.067,0.067 -0.852,1.099 -1.222,1.374c-0.21,0.157 -0.43,0.325 -0.488,0.374c-0.203,0.173 -1.562,0.812 -1.747,0.823c-0.103,0.006 -0.188,0.033 -0.188,0.062c0,0.028 -0.093,0.075 -0.206,0.103c-0.113,0.028 -0.344,0.192 -0.512,0.363c-0.168,0.172 -0.327,0.291 -0.354,0.264c-0.026,-0.027 -0.048,0.005 -0.048,0.07c0,0.066 -0.185,0.279 -0.41,0.474c-0.227,0.195 -0.458,0.399 -0.515,0.455c-0.057,0.054 -0.142,0.1 -0.189,0.1c-0.048,0 -0.087,0.045 -0.088,0.099c-0.001,0.092 -0.572,0.621 -0.669,0.621c-0.022,0 -0.139,0.09 -0.259,0.202c-0.119,0.11 -0.301,0.222 -0.404,0.248c-0.102,0.026 -0.186,0.081 -0.186,0.123c0,0.042 -0.036,0.054 -0.08,0.027c-0.044,-0.028 -0.08,-0.012 -0.08,0.034c0,0.271 -1.507,0.439 -1.67,0.186c-0.027,-0.043 -0.132,-0.104 -0.231,-0.136c-0.514,-0.16 -0.484,-1.164 0.035,-1.164c0.058,0 0.106,-0.038 0.106,-0.084c0,-0.047 0.108,-0.122 0.24,-0.168c0.132,-0.047 0.221,-0.114 0.198,-0.151c-0.022,-0.036 0.032,-0.089 0.121,-0.117c0.088,-0.028 0.161,-0.085 0.161,-0.126c0,-0.041 0.032,-0.074 0.072,-0.074c0.04,0 0.193,-0.118 0.34,-0.261c0.147,-0.144 0.484,-0.441 0.748,-0.66c0.264,-0.22 0.606,-0.542 0.76,-0.716c0.154,-0.174 0.379,-0.413 0.5,-0.532c0.121,-0.119 0.22,-0.255 0.22,-0.302c0,-0.047 0.091,-0.146 0.202,-0.218c0.112,-0.073 0.184,-0.152 0.16,-0.176c-0.023,-0.023 0.005,-0.1 0.064,-0.169c0.142,-0.169 0.454,-0.95 0.454,-1.137c0,-0.082 0.027,-0.15 0.06,-0.15c0.206,0 0.014,-1.788 -0.278,-2.6c-0.111,-0.307 -0.203,-0.603 -0.205,-0.656c-0.002,-0.053 -0.034,-0.078 -0.07,-0.055c-0.037,0.023 -0.067,-0.015 -0.067,-0.084c0,-0.068 -0.036,-0.124 -0.08,-0.124c-0.044,0 -0.08,-0.042 -0.08,-0.093c0,-0.05 -0.117,-0.205 -0.26,-0.344c-0.143,-0.139 -0.269,-0.286 -0.28,-0.328c-0.011,-0.041 -0.056,-0.08 -0.1,-0.085c-0.044,-0.006 -0.118,-0.015 -0.165,-0.021c-0.046,-0.005 -0.062,-0.047 -0.034,-0.091c0.028,-0.045 0.021,-0.075 -0.015,-0.065c-0.123,0.034 -0.426,-0.104 -0.426,-0.192c0,-0.049 -0.021,-0.067 -0.047,-0.041c-0.027,0.026 -0.193,-0.004 -0.37,-0.067c-0.289,-0.101 -1.103,-0.142 -1.675,-0.084c-0.117,0.012 -0.304,0.082 -0.415,0.154c-0.111,0.073 -0.249,0.143 -0.307,0.155c-0.058,0.012 -0.153,0.085 -0.212,0.163c-0.058,0.078 -0.139,0.12 -0.18,0.095c-0.04,-0.025 -0.074,0.002 -0.074,0.061c0,0.059 -0.063,0.166 -0.14,0.239c-0.297,0.28 -0.74,0.895 -0.74,1.027c0,0.042 -0.036,0.076 -0.08,0.076c-0.044,0 -0.08,0.056 -0.08,0.125c0,0.069 -0.036,0.103 -0.08,0.075c-0.044,-0.027 -0.08,0.024 -0.08,0.112c0,0.088 -0.058,0.192 -0.127,0.232c-0.07,0.039 -0.124,0.104 -0.121,0.144c0.012,0.136 -0.693,1.272 -0.973,1.568c-0.155,0.163 -0.266,0.311 -0.248,0.329c0.018,0.018 -0.029,0.083 -0.104,0.144c-0.119,0.097 -0.129,0.095 -0.076,-0.009c0.035,-0.065 -0.003,-0.04 -0.084,0.056c-0.598,0.716 -2.123,0.544 -2.947,-0.333c-0.655,-0.696 -0.668,-0.72 -0.726,-1.322c-0.04,-0.406 0.393,-1.483 0.555,-1.382c0.041,0.025 0.049,0.004 0.017,-0.048c-0.034,-0.056 0.055,-0.208 0.217,-0.37c0.152,-0.151 0.256,-0.295 0.233,-0.318c-0.024,-0.023 0.017,-0.042 0.09,-0.042c0.074,0 0.125,-0.033 0.114,-0.073c-0.027,-0.099 0.507,-0.573 0.588,-0.523c0.035,0.022 0.103,-0.033 0.151,-0.122c0.047,-0.09 0.159,-0.163 0.249,-0.163c0.088,0 0.139,-0.036 0.111,-0.08c-0.027,-0.045 0.059,-0.103 0.196,-0.13c0.135,-0.027 0.245,-0.075 0.245,-0.107c0,-0.045 0.522,-0.247 0.72,-0.278c0.022,-0.004 0.084,-0.035 0.137,-0.069c0.053,-0.034 0.313,-0.075 0.577,-0.092c0.264,-0.017 0.509,-0.048 0.543,-0.069c0.035,-0.021 0.279,-0.039 0.543,-0.039c0.264,0 0.534,-0.018 0.6,-0.041c0.066,-0.023 0.301,-0.063 0.522,-0.088c0.221,-0.026 0.599,-0.121 0.84,-0.211c0.241,-0.089 0.474,-0.17 0.518,-0.179c0.044,-0.009 0.098,-0.039 0.12,-0.066c0.022,-0.027 0.184,-0.122 0.36,-0.212c0.176,-0.09 0.398,-0.229 0.494,-0.311c0.095,-0.081 0.325,-0.274 0.51,-0.428c0.186,-0.154 0.431,-0.382 0.547,-0.508c0.115,-0.125 0.31,-0.335 0.434,-0.465c0.217,-0.227 0.252,-0.448 0.065,-0.407c-0.05,0.011 -0.09,-0.009 -0.09,-0.046c0,-0.037 -0.045,-0.069 -0.1,-0.071c-0.055,-0.002 -0.28,-0.032 -0.5,-0.067c-0.341,-0.054 -1.231,-0.056 -2.46,-0.007c-0.165,0.006 -0.3,0.038 -0.3,0.07c0,0.033 -0.144,0.082 -0.32,0.111c-0.176,0.028 -0.32,0.079 -0.32,0.114c0,0.035 -0.135,0.146 -0.3,0.247c-0.165,0.1 -0.314,0.216 -0.33,0.257c-0.017,0.041 -0.156,0.214 -0.31,0.384c-0.153,0.169 -0.252,0.309 -0.219,0.309c0.032,0 0.009,0.059 -0.051,0.132c-0.061,0.073 -0.097,0.146 -0.082,0.163c0.072,0.079 -0.18,0.509 -0.277,0.472c-0.058,-0.022 -0.128,-0.006 -0.154,0.037c-0.026,0.043 -0.078,0.06 -0.114,0.038c-0.036,-0.023 -0.21,-0.055 -0.388,-0.072c-0.744,-0.073 -1.033,-0.888 -0.535,-1.511c0.132,-0.165 0.285,-0.3 0.34,-0.3c0.055,0 0.091,-0.039 0.08,-0.087c-0.011,-0.048 0.052,-0.129 0.14,-0.18c0.088,-0.051 0.186,-0.129 0.217,-0.173c0.032,-0.043 0.085,-0.079 0.12,-0.08c0.034,0 0.171,-0.076 0.303,-0.168c0.448,-0.315 2.039,-0.994 2.4,-1.026c0.088,-0.007 0.244,-0.06 0.347,-0.116c0.103,-0.056 0.207,-0.082 0.233,-0.057c0.025,0.026 0.085,0.015 0.133,-0.023c0.094,-0.076 1.646,-0.45 2.167,-0.523c0.176,-0.025 0.446,-0.076 0.6,-0.113c0.154,-0.037 0.379,-0.063 0.5,-0.058c0.121,0.005 0.22,-0.023 0.22,-0.063c0,-0.04 0.102,-0.052 0.228,-0.027c0.126,0.025 0.261,0.016 0.3,-0.02c0.084,-0.078 0.787,-0.157 1.911,-0.215c0.438,-0.023 0.815,-0.058 0.836,-0.079c0.042,-0.042 3.209,0.011 4.205,0.071m-1.2,1.032c-0.264,0.036 -0.589,0.076 -0.723,0.09c-0.134,0.014 -0.287,0.052 -0.34,0.085c-0.053,0.033 -0.098,0.031 -0.098,-0.005c-0.001,-0.035 -0.031,-0.018 -0.066,0.037c-0.036,0.056 -0.142,0.117 -0.237,0.136c-0.23,0.044 -0.534,0.33 -0.423,0.398c0.13,0.081 1.669,0.111 1.997,0.04c0.159,-0.035 0.398,-0.082 0.53,-0.104c0.132,-0.022 0.362,-0.078 0.511,-0.124c0.149,-0.046 0.303,-0.064 0.34,-0.04c0.038,0.023 0.069,0.004 0.069,-0.043c0,-0.046 0.07,-0.085 0.155,-0.085c0.387,0 0.259,-0.224 -0.144,-0.255c-0.138,-0.01 -0.251,-0.044 -0.251,-0.074c0,-0.03 -0.153,-0.046 -0.34,-0.035c-0.187,0.011 -0.376,-0.003 -0.42,-0.033c-0.044,-0.029 -0.296,-0.024 -0.56,0.012m-9.761,2.341c0.437,0.069 0.468,0.127 0.249,0.45c-0.215,0.316 -0.854,0.696 -1.258,0.749c-0.148,0.019 -0.27,0.04 -0.27,0.046c0,0.022 -0.321,0.075 -0.733,0.121l-0.413,0.047l0.1,-0.338c0.171,-0.579 1.012,-1.265 1.319,-1.075c0.041,0.026 0.101,0.007 0.131,-0.042c0.031,-0.05 0.164,-0.071 0.306,-0.048c0.137,0.022 0.394,0.062 0.569,0.09m49.201,62.179c-8.113,0.692 -13.809,6.121 -13.807,13.158c0.002,6.529 3.91,10.522 11.34,11.587c4.497,0.644 9.951,0.086 13.367,-1.369l0.34,-0.145l0,-4.962l0,-4.963l-2.36,0l-2.36,0l0,8.804l-0.22,0.084c-2.852,1.085 -7.278,0.934 -9.794,-0.335c-4.189,-2.114 -6.151,-7.456 -4.661,-12.695c1.986,-6.986 10.772,-9.418 17.734,-4.908c0.415,0.27 0.779,0.49 0.809,0.49c0.028,0 0.052,-0.661 0.052,-1.469l0,-1.469l-0.655,-0.3c-2.6,-1.188 -6.496,-1.789 -9.785,-1.508m-68.06,10.366c-0.031,10.797 -0.031,10.8 -0.469,12.98c-0.539,2.678 -1.902,4.827 -4.135,6.52l-0.58,0.44l0.497,0.024c3.412,0.166 7.355,-2.964 8.664,-6.879c0.758,-2.266 0.763,-2.355 0.763,-13.502l0,-9.603l-2.356,0l-2.356,0l-0.028,10.02m26.183,-2.082c-2.173,4.368 -4.881,9.806 -6.019,12.084l-2.066,4.141l1.538,-0.022l1.539,-0.021l1.603,-3.338l1.602,-3.337l5.925,-0.002l5.925,-0.003l0.905,2.02c0.498,1.111 1.177,2.623 1.509,3.36l0.604,1.34l2.786,0c1.532,0 2.784,-0.027 2.782,-0.06c-0.003,-0.033 -2.643,-5.46 -5.868,-12.06l-5.863,-12l-1.475,-0.022l-1.475,-0.022l-3.952,7.942m67.617,0.482c0.03,9.199 0.02,9 0.508,10.553c1.22,3.892 4.77,5.676 11.312,5.686c6.03,0.01 9.291,-1.812 10.681,-5.966c0.628,-1.877 0.678,-2.706 0.679,-11.393l0,-7.3l-1.48,0l-1.48,0l0,7.603c0,7.772 -0.023,8.474 -0.32,9.851c-0.771,3.565 -3.369,5.193 -8.12,5.085c-3.616,-0.081 -5.747,-1.302 -6.599,-3.777c-0.436,-1.267 -0.431,-1.172 -0.461,-10.302l-0.027,-8.46l-2.36,0l-2.36,0l0.027,8.42m39.66,3.547c-3.278,6.581 -5.972,12.017 -5.986,12.079c-0.021,0.095 0.221,0.113 1.48,0.112l1.506,-0.002l1.6,-3.355l1.6,-3.355l5.93,-0.003l5.929,-0.003l0.203,0.46c0.112,0.253 0.551,1.234 0.977,2.18c0.426,0.946 1.01,2.251 1.299,2.9l0.525,1.18l2.789,0c1.533,0 2.787,-0.027 2.786,-0.06c-0.002,-0.033 -2.64,-5.46 -5.863,-12.06l-5.861,-12l-1.477,-0.02l-1.477,-0.02l-5.96,11.967m32.22,-11.922c-0.032,0.034 -0.06,5.473 -0.06,12.088l0,12.027l4.721,0l0,-4.6l0,-4.6l2.379,0l2.38,0.001l0.2,0.298c0.11,0.163 1.368,1.99 2.796,4.059c1.427,2.069 2.759,4.004 2.96,4.3l0.364,0.537l2.7,0.003c1.486,0.001 2.7,-0.025 2.699,-0.058c-0.001,-0.033 -0.42,-0.636 -0.932,-1.34c-0.86,-1.182 -1.512,-2.082 -4.779,-6.593c-1.418,-1.958 -1.344,-1.79 -0.871,-1.966c3.793,-1.422 5.7,-5.468 4.413,-9.361c-0.889,-2.69 -3.068,-4.1 -7.19,-4.653c-1.003,-0.135 -11.66,-0.263 -11.78,-0.142m9.75,1.917c3.22,0.552 4.779,2.325 4.779,5.438c0,1.766 -0.455,2.958 -1.544,4.041c-1.369,1.361 -2.867,1.756 -6.665,1.758l-1.659,0.001l0,-5.68l0,-5.68l2.189,0c1.596,0 2.382,0.033 2.9,0.122m-142.571,8.118c0.411,0.902 1.15,2.517 1.64,3.588c0.49,1.072 0.877,1.963 0.859,1.981c-0.018,0.018 -2.298,0.023 -5.068,0.011l-5.035,-0.02l2.595,-5.416l2.596,-5.416l0.832,1.816c0.457,0.999 1.169,2.553 1.581,3.456m107.904,-3.04c0.549,1.21 1.651,3.631 2.448,5.38c0.797,1.749 1.449,3.199 1.449,3.22c0,0.022 -2.268,0.04 -5.04,0.04c-2.772,0 -5.04,-0.026 -5.04,-0.058c0,-0.068 5.149,-10.821 5.17,-10.798c0.008,0.008 0.464,1.006 1.013,2.216" style="fill:#01422d;"/></g></svg>