<?xml version="1.0" encoding="UTF-8" standalone="no"?><!DOCTYPE svg PUBLIC "-//W3C//DTD SVG 1.1//EN" "http://www.w3.org/Graphics/SVG/1.1/DTD/svg11.dtd"><svg width="100%" height="100%" viewBox="0 0 192 192" version="1.1" xmlns="http://www.w3.org/2000/svg" xmlns:xlink="http://www.w3.org/1999/xlink" xml:space="preserve" xmlns:serif="http://www.serif.com/" style="fill-rule:evenodd;clip-rule:evenodd;stroke-linejoin:round;stroke-miterlimit:1.41421;"><path id="path0" d="M91.669,47.384c-46.189,0.908 -85.276,19.196 -90.931,42.544c-7.627,31.487 44.985,58.241 106.958,54.389c44.902,-2.791 80.123,-21.32 83.954,-44.167c4.585,-27.342 -36.416,-51.226 -90.588,-52.771c-3.135,-0.09 -4.624,-0.089 -9.393,0.005m13.637,11.275c11.574,0.65 19.787,1.638 28.757,3.458c31.106,6.31 50.841,19.459 50.841,33.875c0,23.739 -52.1,41.612 -107.119,36.747c-36.309,-3.21 -64.512,-15.868 -69.783,-31.32c-7.293,-21.378 29.234,-40.805 80.536,-42.83c2.417,-0.096 14.74,-0.044 16.768,0.07m-41.126,14.423c-1.277,0.391 -2.126,1.129 -3.754,3.259c-7.214,9.441 -10.035,13.122 -10.136,13.225c-0.107,0.109 -0.118,-0.802 -0.1,-7.498c0.024,-8.492 0.058,-7.96 -0.534,-8.46c-0.657,-0.556 -0.248,-0.528 -7.484,-0.503l-6.535,0.022l-0.303,0.189c-1.195,0.743 -0.917,2.503 0.548,3.471l0.579,0.383l0.041,20.391c0.04,19.719 0.046,20.401 0.196,20.675c0.228,0.418 0.911,1.048 1.262,1.164c0.453,0.149 10.924,0.031 11.228,-0.127c0.31,-0.162 0.549,-0.447 0.762,-0.909l0.189,-0.411l0.041,-8.474l0.042,-8.474l3.086,3.818c11.358,14.052 11.119,13.774 12.258,14.307l0.477,0.224l3.213,0.026c8.312,0.07 9.515,-0.022 9.677,-0.742c0.143,-0.64 0.081,-0.747 -2.838,-4.846c-2.648,-3.719 -9.084,-12.827 -11.978,-16.952l-1.343,-1.914l6.858,-10.034c3.771,-5.519 6.911,-10.162 6.978,-10.318c0.235,-0.559 -0.178,-1.222 -0.869,-1.395c-0.381,-0.096 -11.268,-0.187 -11.561,-0.097m24.916,0.084c-1.008,0.24 -1.602,1.473 -1.144,2.375c0.266,0.521 0.732,0.972 1.307,1.263l0.473,0.24l0,41.085l0.227,0.444c0.174,0.342 0.313,0.491 0.597,0.642l0.371,0.196l5.81,-0.037c6.516,-0.042 6.253,-0.016 6.633,-0.651c0.163,-0.274 0.322,-43.498 0.162,-44.388c-0.07,-0.392 -0.623,-0.96 -1.088,-1.119c-0.414,-0.141 -12.771,-0.187 -13.348,-0.05m38.702,0.106c-1.362,0.688 -0.88,2.661 0.823,3.366c0.342,0.142 0.633,0.268 0.647,0.28c0.014,0.012 -3.073,9.162 -6.859,20.333c-3.863,11.393 -6.885,20.435 -6.885,20.594c0,0.405 0.397,1.141 0.741,1.374l0.288,0.195l5.128,-0.042l5.127,-0.042l0.517,-0.246c0.547,-0.261 1.064,-0.714 1.269,-1.111c0.068,-0.131 2.18,-6.381 4.693,-13.89c3.357,-10.031 4.615,-13.69 4.742,-13.796c0.199,-0.166 0.434,-0.182 0.798,-0.055c0.329,0.115 -0.162,-1.31 4.929,14.325l4.357,13.383l0.387,0.425c0.212,0.234 0.616,0.548 0.897,0.697l0.51,0.272l5.204,0.042l5.205,0.043l0.318,-0.279c0.353,-0.31 0.617,-0.813 0.619,-1.182c0.003,-0.316 -14.53,-43.147 -14.79,-43.588c-0.28,-0.477 -0.767,-0.954 -1.152,-1.13c-0.312,-0.142 -0.776,-0.15 -8.737,-0.152l-8.408,-0.002l-0.368,0.186" style="fill:#cc2229;"/></svg>