<?xml version="1.0" encoding="UTF-8" standalone="no"?><!DOCTYPE svg PUBLIC "-//W3C//DTD SVG 1.1//EN" "http://www.w3.org/Graphics/SVG/1.1/DTD/svg11.dtd"><svg width="100%" height="100%" viewBox="0 0 192 192" version="1.1" xmlns="http://www.w3.org/2000/svg" xmlns:xlink="http://www.w3.org/1999/xlink" xml:space="preserve" xmlns:serif="http://www.serif.com/" style="fill-rule:evenodd;clip-rule:evenodd;stroke-linejoin:round;stroke-miterlimit:1.41421;"><path id="path0" d="M92.52,55.76c-13.12,1.252 -24.551,8.289 -31.353,19.302l-0.457,0.741l-30.355,0c-17.494,0 -30.355,0.029 -30.355,0.07c0,0.227 3.223,4.392 5.672,7.33c12.583,15.094 28.346,29.36 42.948,38.87l1.059,0.689l15.784,0l1.38,1.389c16.292,16.388 42.462,16.326 58.666,-0.139l1.23,-1.25l15.606,0l1.288,-0.85c14.931,-9.868 30.166,-23.681 42.695,-38.709c2.472,-2.966 5.672,-7.1 5.672,-7.329c0,-0.042 -12.509,-0.071 -30.26,-0.071l-30.26,0l-0.235,-0.42c-2.899,-5.182 -8.583,-10.76 -14.485,-14.216c-7.101,-4.157 -16.161,-6.178 -24.24,-5.407m6.524,0.925c13.051,1.003 25.476,8.683 31.556,19.504l0.32,0.57l59.259,0.004l-0.223,0.3c-0.721,0.967 -2.734,3.519 -3.631,4.599l-1.045,1.26l-25.51,0l-25.511,0l0.345,1.069c0.429,1.333 0.909,3.25 1.199,4.792l0.222,1.18l0.627,0c0.535,0 0.628,-0.02 0.628,-0.135c0,-0.268 -0.57,-2.575 -0.955,-3.865c-0.216,-0.726 -0.386,-1.326 -0.377,-1.335c0.008,-0.008 2.246,-0.073 4.974,-0.142c25.588,-0.655 42.079,-1.198 43.898,-1.445c0.165,-0.022 0.3,-0.011 0.3,0.024c0,0.266 -5.611,6.539 -9.335,10.438l-2.274,2.379l-18.466,0l-18.466,0l-0.049,0.18c-0.026,0.1 -0.048,0.58 -0.049,1.068c-0.001,0.971 -0.174,2.975 -0.366,4.233c-0.067,0.44 -0.143,0.971 -0.17,1.179l-0.047,0.381l1.848,0l0.048,-0.3c0.131,-0.817 0.291,-2.597 0.338,-3.76l0.053,-1.301l0.367,0c0.809,0 13.563,-0.467 19.648,-0.72c6.87,-0.285 11.804,-0.54 14.029,-0.725c0.545,-0.045 1.005,-0.067 1.024,-0.048c0.041,0.041 -4.124,4.099 -6.035,5.879c-1.762,1.641 -4.411,4.004 -6.458,5.76l-1.6,1.372l-12.453,0.001l-12.454,0.001l-0.138,0.381c-0.612,1.685 -1.619,3.905 -2.505,5.521c-0.313,0.572 -0.57,1.062 -0.57,1.09c0,0.027 0.56,0.049 1.245,0.049l1.244,0l0.713,-1.461c0.392,-0.803 0.926,-1.993 1.188,-2.645c0.262,-0.653 0.488,-1.198 0.503,-1.213c0.015,-0.015 0.765,-0.067 1.667,-0.115c11.214,-0.606 15.505,-0.876 19.224,-1.212c2.2,-0.199 2.114,-0.222 1.398,0.366c-4.62,3.8 -9.268,7.274 -14.034,10.493l-2.173,1.466l-7.848,0l-7.849,0l-1.659,1.666c-15.884,15.94 -41.119,15.977 -57.007,0.084l-1.748,-1.75l-7.959,0l-7.959,0l-2.173,-1.465c-4.577,-3.086 -9.061,-6.42 -13.236,-9.838c-0.804,-0.659 -1.452,-1.206 -1.44,-1.217c0.013,-0.01 0.257,0.01 0.543,0.045c1.929,0.236 9.654,0.722 18.36,1.153c2.2,0.109 4.418,0.221 4.929,0.248l0.929,0.051l0.139,0.292c0.426,0.894 3,4.971 3.139,4.971c0.023,0 -0.011,-0.08 -0.075,-0.18c-0.794,-1.217 -3.101,-6.197 -3.101,-6.695c0,-0.059 -3.778,-0.085 -12.58,-0.086l-12.58,-0.001l-1.64,-1.408c-3.957,-3.394 -9.355,-8.391 -11.92,-11.031l-0.6,-0.618l0.502,0.049c0.746,0.072 5.322,0.351 7.338,0.448c4.602,0.219 7.2,0.334 10.96,0.482c2.244,0.089 4.944,0.197 6,0.239c1.056,0.042 4.044,0.152 6.64,0.245c5.689,0.203 5.044,0.103 5.108,0.791c0.085,0.907 0.793,3.771 0.906,3.659c0.015,-0.016 -0.043,-0.583 -0.131,-1.261c-0.087,-0.678 -0.203,-2.034 -0.257,-3.012l-0.098,-1.781l-18.578,0l-18.578,0l-2.233,-2.34c-5.339,-5.59 -9.825,-10.757 -13.527,-15.579l-0.891,-1.161l29.714,-0.02l29.714,-0.019l0.3,-0.501c7.912,-13.176 22.384,-20.736 37.475,-19.577m-5.084,4.614c-20.483,1.396 -35.333,19.145 -32.763,39.158c2.453,19.106 20.407,32.64 39.763,29.974c20.755,-2.858 34.394,-22.891 29.267,-42.988c-4.106,-16.094 -19.621,-27.279 -36.267,-26.144m4.36,2.105c25.148,1.736 39.24,29.521 25.542,50.357c-13.974,21.254 -46.098,19.359 -57.455,-3.389c-11.197,-22.426 6.662,-48.711 31.913,-46.968m-3.12,1.895c-15.131,0.392 -27.844,11.663 -29.915,26.52c-2.49,17.87 11.103,34.009 29.359,34.855c20.847,0.967 36.648,-18.115 31.625,-38.191c-3.224,-12.885 -15.161,-22.621 -28.349,-23.123c-0.594,-0.023 -1.278,-0.05 -1.52,-0.061c-0.242,-0.011 -0.782,-0.011 -1.2,0m-86.76,17.68c0.308,0.014 3.8,0.133 7.76,0.264c6.614,0.219 23.727,0.79 32.4,1.081c1.98,0.066 4.572,0.156 5.76,0.199c1.188,0.043 2.242,0.078 2.341,0.079c0.148,0 0.174,0.035 0.14,0.18c-0.066,0.281 -0.346,2.592 -0.395,3.261l-0.045,0.6l0.191,-0.844c0.32,-1.421 0.685,-2.79 1.014,-3.803c0.173,-0.532 0.314,-0.991 0.314,-1.02c0,-0.03 -11.259,-0.046 -25.02,-0.038c-13.761,0.009 -24.768,0.027 -24.46,0.041m67.666,9.962c1.24,2.937 2.273,5.34 2.296,5.34c0.023,0.001 0.776,-1.735 1.674,-3.858c0.898,-2.123 1.918,-4.535 2.268,-5.36l0.636,-1.5l5.02,0l0,17.36l-1.999,0l-2,0l-0.02,-5.255l-0.021,-5.255l-2.176,5.235l-2.176,5.234l-1.27,0.023l-1.269,0.022l-1.994,-4.798l-1.995,-4.798l-0.021,4.796l-0.02,4.796l-1.999,0l-2,0l0,-8.627c0,-4.745 0.024,-8.651 0.055,-8.681c0.029,-0.03 1.112,-0.045 2.405,-0.034l2.352,0.021l2.254,5.339m19.894,3.301l0,8.681l-2.08,0l-2.08,0l0,-8.681l0,-8.679l4.16,0l0,8.679m11.4,-3.455l3.76,5.185l0.04,-5.185l0.04,-5.185l1.98,-0.021l1.98,-0.021l0,17.363l-1.991,0l-1.99,0l-3.75,-5.174l-3.749,-5.173l-0.021,5.173l-0.02,5.174l-2,0l-1.999,0l0,-8.682l0,-8.681l1.98,0.021l1.979,0.021l3.761,5.185m15.4,3.455l0,8.681l-2.08,0l-2.08,0l0,-8.681l0,-8.679l4.16,0l0,8.679"/><path id="path1" d="M93.94,56.66c0.121,0.018 0.319,0.018 0.44,0c0.121,-0.019 0.022,-0.033 -0.22,-0.033c-0.242,0 -0.341,0.014 -0.22,0.033m3.84,0c0.121,0.018 0.319,0.018 0.44,0c0.121,-0.019 0.022,-0.033 -0.22,-0.033c-0.242,0 -0.341,0.014 -0.22,0.033m-4.96,0.078c0.077,0.02 0.203,0.02 0.28,0c0.077,-0.02 0.014,-0.037 -0.14,-0.037c-0.154,0 -0.217,0.017 -0.14,0.037m1,4.561c0.099,0.019 0.261,0.019 0.36,0c0.099,-0.019 0.018,-0.035 -0.18,-0.035c-0.198,0 -0.279,0.016 -0.18,0.035m4.16,0c0.099,0.019 0.261,0.019 0.36,0c0.099,-0.019 0.018,-0.035 -0.18,-0.035c-0.198,0 -0.279,0.016 -0.18,0.035m-5.16,0.079c0.077,0.02 0.203,0.02 0.28,0c0.077,-0.021 0.014,-0.037 -0.14,-0.037c-0.154,0 -0.217,0.016 -0.14,0.037m6.4,0c0.077,0.02 0.203,0.02 0.28,0c0.077,-0.021 0.014,-0.037 -0.14,-0.037c-0.154,0 -0.217,0.016 -0.14,0.037m-3.836,2.004c0.432,0.015 1.116,0.015 1.52,0c0.405,-0.014 0.052,-0.026 -0.784,-0.026c-0.836,0 -1.167,0.012 -0.736,0.026m-1.883,0.077c0.099,0.019 0.243,0.019 0.32,-0.002c0.077,-0.02 -0.005,-0.035 -0.181,-0.034c-0.176,0.001 -0.239,0.017 -0.139,0.036m4.96,0c0.099,0.019 0.243,0.019 0.32,-0.002c0.076,-0.02 -0.005,-0.035 -0.181,-0.034c-0.176,0.001 -0.238,0.017 -0.139,0.036m-3.641,1.843c0.209,0.016 0.551,0.016 0.76,0c0.209,-0.017 0.038,-0.031 -0.38,-0.031c-0.418,0 -0.589,0.014 -0.38,0.031m1.76,0c0.209,0.016 0.551,0.016 0.76,0c0.209,-0.017 0.038,-0.031 -0.38,-0.031c-0.418,0 -0.589,0.014 -0.38,0.031m-3.12,0.076c0.077,0.02 0.203,0.02 0.28,0c0.077,-0.02 0.014,-0.037 -0.14,-0.037c-0.154,0 -0.217,0.017 -0.14,0.037m5.001,0.001c0.099,0.019 0.243,0.019 0.32,-0.002c0.076,-0.02 -0.005,-0.035 -0.181,-0.034c-0.176,0.001 -0.238,0.017 -0.139,0.036m-29.466,1.724l-0.235,0.26l0.26,-0.235c0.143,-0.13 0.26,-0.247 0.26,-0.261c0,-0.061 -0.066,-0.007 -0.285,0.236m54.605,0.42c0.239,0.242 0.453,0.44 0.475,0.44c0.021,0 -0.156,-0.198 -0.395,-0.44c-0.239,-0.242 -0.452,-0.441 -0.475,-0.441c-0.022,0 0.156,0.199 0.395,0.441m-55.92,0.8c-0.194,0.198 -0.336,0.36 -0.313,0.36c0.022,0 0.199,-0.162 0.393,-0.36c0.195,-0.198 0.335,-0.36 0.313,-0.36c-0.021,0 -0.199,0.162 -0.393,0.36m57.56,0.84c0.217,0.22 0.412,0.4 0.434,0.4c0.022,0 -0.137,-0.18 -0.354,-0.4c-0.217,-0.221 -0.412,-0.401 -0.434,-0.401c-0.022,0 0.137,0.18 0.354,0.401m-58.805,0.499l-0.235,0.261l0.26,-0.236c0.143,-0.129 0.26,-0.245 0.26,-0.259c0,-0.062 -0.066,-0.008 -0.285,0.234m5.92,0.641l-0.235,0.259l0.26,-0.234c0.143,-0.129 0.26,-0.247 0.26,-0.26c0,-0.062 -0.066,-0.008 -0.285,0.235m47.645,0.18c0.149,0.154 0.289,0.28 0.312,0.28c0.022,0 -0.083,-0.126 -0.232,-0.28c-0.149,-0.154 -0.289,-0.281 -0.311,-0.281c-0.022,0 0.082,0.127 0.231,0.281m-48.962,1.06l-0.678,0.699l0.7,-0.678c0.385,-0.373 0.7,-0.688 0.7,-0.7c0,-0.058 -0.092,0.029 -0.722,0.679m47.202,0.205c0,0.013 0.117,0.131 0.26,0.26l0.26,0.234l-0.235,-0.259c-0.219,-0.243 -0.285,-0.297 -0.285,-0.235m-45.722,1.355l-0.798,0.819l0.82,-0.798c0.451,-0.439 0.82,-0.808 0.82,-0.82c0,-0.058 -0.1,0.037 -0.842,0.799m49.642,-0.46c0.149,0.153 0.289,0.28 0.312,0.28c0.022,0 -0.083,-0.127 -0.232,-0.28c-0.149,-0.154 -0.289,-0.281 -0.311,-0.281c-0.022,0 0.082,0.127 0.231,0.281m-5.28,0.464c0,0.014 0.117,0.131 0.26,0.261l0.26,0.235l-0.235,-0.26c-0.219,-0.243 -0.285,-0.297 -0.285,-0.236m-42.961,1.316l-0.759,0.78l0.78,-0.759c0.724,-0.704 0.816,-0.801 0.759,-0.801c-0.012,0 -0.363,0.35 -0.78,0.78m45.201,0.925c0,0.013 0.117,0.131 0.26,0.26l0.26,0.234l-0.235,-0.259c-0.219,-0.243 -0.285,-0.297 -0.285,-0.235m-87.56,1.415l-29.76,0.04l29.735,0.02c19.759,0.013 29.752,-0.007 29.785,-0.06c0.027,-0.045 0.038,-0.071 0.025,-0.06c-0.014,0.01 -13.417,0.038 -29.785,0.06m114.18,0.06c8.151,0.011 21.489,0.011 29.64,0c8.151,-0.011 1.482,-0.021 -14.82,-0.021c-16.302,0 -22.971,0.01 -14.82,0.021m-79.3,4.659c-0.068,0.132 -0.106,0.24 -0.084,0.24c0.022,0 0.096,-0.108 0.164,-0.24c0.068,-0.132 0.106,-0.24 0.084,-0.24c-0.022,0 -0.096,0.108 -0.164,0.24m-59.64,1.516c0,0.041 0.041,0.101 0.092,0.132c0.056,0.035 0.071,0.022 0.038,-0.031c-0.038,-0.061 0.117,-0.098 0.487,-0.117l0.543,-0.028l-0.58,-0.016c-0.32,-0.008 -0.58,0.019 -0.58,0.06m2.58,0.063c0.165,0.017 0.435,0.017 0.6,0c0.165,-0.018 0.03,-0.032 -0.3,-0.032c-0.33,0 -0.465,0.014 -0.3,0.032m2.4,0.08c0.165,0.017 0.435,0.017 0.6,0c0.165,-0.017 0.03,-0.031 -0.3,-0.031c-0.33,0 -0.465,0.014 -0.3,0.031m172.04,-0.002c0.099,0.019 0.261,0.019 0.36,0c0.099,-0.019 0.018,-0.035 -0.18,-0.035c-0.198,0 -0.279,0.016 -0.18,0.035m-169.56,0.082c0.165,0.017 0.435,0.017 0.6,0c0.165,-0.017 0.03,-0.032 -0.3,-0.032c-0.33,0 -0.465,0.015 -0.3,0.032m168.161,-0.001c0.122,0.018 0.302,0.018 0.4,-0.001c0.098,-0.019 -0.001,-0.034 -0.221,-0.034c-0.22,0.001 -0.3,0.017 -0.179,0.035m-165.841,0.081c0.165,0.017 0.435,0.017 0.6,0c0.165,-0.018 0.03,-0.032 -0.3,-0.032c-0.33,0 -0.465,0.014 -0.3,0.032m164.201,0c0.144,0.017 0.36,0.017 0.48,-0.001c0.12,-0.019 0.003,-0.033 -0.261,-0.032c-0.264,0 -0.363,0.015 -0.219,0.033m-161.839,0.08c0.188,0.017 0.476,0.017 0.64,0c0.164,-0.017 0.01,-0.031 -0.342,-0.031c-0.352,0 -0.486,0.015 -0.298,0.031m159.918,-0.001c0.143,0.018 0.377,0.018 0.52,0c0.143,-0.017 0.026,-0.032 -0.26,-0.032c-0.286,0 -0.403,0.015 -0.26,0.032m-157.4,0.081c0.165,0.017 0.435,0.017 0.6,0c0.165,-0.017 0.03,-0.032 -0.3,-0.032c-0.33,0 -0.465,0.015 -0.3,0.032m155.398,0c0.142,0.017 0.394,0.017 0.56,0c0.166,-0.017 0.05,-0.032 -0.258,-0.032c-0.308,-0.001 -0.444,0.014 -0.302,0.032m-153.158,0.08c0.165,0.017 0.435,0.017 0.6,0c0.165,-0.018 0.03,-0.032 -0.3,-0.032c-0.33,0 -0.465,0.014 -0.3,0.032m150.96,0c0.165,0.017 0.435,0.017 0.6,0c0.165,-0.018 0.03,-0.032 -0.3,-0.032c-0.33,0 -0.465,0.014 -0.3,0.032m-148.48,0.08c0.165,0.017 0.435,0.017 0.6,0c0.165,-0.017 0.03,-0.031 -0.3,-0.031c-0.33,0 -0.465,0.014 -0.3,0.031m146.16,0c0.165,0.017 0.435,0.017 0.6,0c0.165,-0.017 0.03,-0.031 -0.3,-0.031c-0.33,0 -0.465,0.014 -0.3,0.031m-143.76,0.08c0.165,0.017 0.435,0.017 0.6,0c0.165,-0.017 0.03,-0.032 -0.3,-0.032c-0.33,0 -0.465,0.015 -0.3,0.032m141.36,0c0.165,0.017 0.435,0.017 0.6,0c0.165,-0.017 0.03,-0.032 -0.3,-0.032c-0.33,0 -0.465,0.015 -0.3,0.032m-139.078,0.08c0.188,0.017 0.476,0.017 0.64,0c0.164,-0.018 0.01,-0.031 -0.342,-0.031c-0.352,0 -0.486,0.014 -0.298,0.031m136.56,0c0.188,0.017 0.476,0.017 0.64,0c0.164,-0.018 0.01,-0.031 -0.342,-0.031c-0.352,0 -0.486,0.014 -0.298,0.031m-134.042,0.08c0.165,0.017 0.435,0.017 0.6,0c0.165,-0.017 0.03,-0.031 -0.3,-0.031c-0.33,0 -0.465,0.014 -0.3,0.031m131.48,0c0.187,0.017 0.493,0.017 0.68,0c0.187,-0.016 0.034,-0.03 -0.34,-0.03c-0.374,0 -0.527,0.014 -0.34,0.03m-129.08,0.08c0.165,0.017 0.435,0.017 0.6,0c0.165,-0.017 0.03,-0.032 -0.3,-0.032c-0.33,0 -0.465,0.015 -0.3,0.032m126.36,0c0.187,0.017 0.493,0.017 0.68,0c0.187,-0.017 0.034,-0.03 -0.34,-0.03c-0.374,0 -0.527,0.013 -0.34,0.03m-124.04,0.08c0.165,0.017 0.435,0.017 0.6,0c0.165,-0.018 0.03,-0.032 -0.3,-0.032c-0.33,0 -0.465,0.014 -0.3,0.032m121.32,0c0.187,0.017 0.493,0.017 0.68,0c0.187,-0.017 0.034,-0.031 -0.34,-0.031c-0.374,0 -0.527,0.014 -0.34,0.031m-118.92,0.08c0.165,0.017 0.435,0.017 0.6,0c0.165,-0.017 0.03,-0.031 -0.3,-0.031c-0.33,0 -0.465,0.014 -0.3,0.031m116.082,0c0.211,0.017 0.535,0.017 0.72,0c0.186,-0.016 0.014,-0.03 -0.382,-0.03c-0.396,0 -0.548,0.014 -0.338,0.03m-113.682,0.08c0.165,0.017 0.435,0.017 0.6,0c0.165,-0.017 0.03,-0.032 -0.3,-0.032c-0.33,0 -0.465,0.015 -0.3,0.032m110.723,0c0.21,0.017 0.534,0.017 0.72,0c0.185,-0.017 0.013,-0.03 -0.383,-0.03c-0.396,0 -0.548,0.014 -0.337,0.03m-108.441,0.08c0.188,0.017 0.476,0.017 0.64,0c0.164,-0.018 0.01,-0.031 -0.342,-0.031c-0.352,0 -0.486,0.014 -0.298,0.031m105.398,0.001c0.209,0.016 0.551,0.016 0.76,0c0.209,-0.017 0.038,-0.031 -0.38,-0.031c-0.418,0 -0.589,0.014 -0.38,0.031m-102.88,0.079c0.165,0.017 0.435,0.017 0.6,0c0.165,-0.017 0.03,-0.031 -0.3,-0.031c-0.33,0 -0.465,0.014 -0.3,0.031m99.92,0c0.209,0.017 0.551,0.017 0.76,0c0.209,-0.016 0.038,-0.029 -0.38,-0.029c-0.418,0 -0.589,0.013 -0.38,0.029m-97.52,0.08c0.165,0.017 0.435,0.017 0.6,0c0.165,-0.017 0.03,-0.032 -0.3,-0.032c-0.33,0 -0.465,0.015 -0.3,0.032m94.4,0c0.209,0.017 0.551,0.017 0.76,0c0.209,-0.016 0.038,-0.03 -0.38,-0.03c-0.418,0 -0.589,0.014 -0.38,0.03m-92.16,0.08c0.165,0.017 0.435,0.017 0.6,0c0.165,-0.018 0.03,-0.032 -0.3,-0.032c-0.33,0 -0.465,0.014 -0.3,0.032m88.923,0.001c0.232,0.016 0.592,0.015 0.8,-0.001c0.207,-0.016 0.017,-0.03 -0.423,-0.029c-0.44,0 -0.61,0.013 -0.377,0.03m-86.443,0.079c0.165,0.017 0.435,0.017 0.6,0c0.165,-0.017 0.03,-0.031 -0.3,-0.031c-0.33,0 -0.465,0.014 -0.3,0.031m83.323,0.001c0.232,0.016 0.592,0.016 0.8,-0.001c0.207,-0.016 0.017,-0.029 -0.423,-0.029c-0.44,0 -0.61,0.013 -0.377,0.03m-69.066,3.079c-0.021,0.056 -0.029,3.972 -0.017,8.701l0.021,8.601l0.019,-8.661l0.02,-8.659l2.353,0c1.528,0 2.368,0.029 2.394,0.081c0.023,0.045 0.032,0.037 0.02,-0.019c-0.03,-0.149 -4.753,-0.191 -4.81,-0.044m16.343,-0.038l2.499,0.022l0.021,8.659l0.021,8.659l0.019,-8.7l0.02,-8.7l-2.54,0.018l-2.54,0.019l2.5,0.023m7.44,0c0.583,0.013 1.537,0.013 2.12,0c0.583,-0.014 0.106,-0.025 -1.06,-0.025c-1.166,0 -1.643,0.011 -1.06,0.025m6.84,8.64l0.019,8.7l0.021,-8.659l0.021,-8.658l1.939,-0.023l1.94,-0.023l-1.98,-0.019l-1.98,-0.018l0.02,8.7m11.546,-8.63c-0.056,0.091 -0.065,10.418 -0.008,10.474c0.023,0.023 0.042,-2.322 0.042,-5.211l0,-5.253l3.839,0l0.021,8.659l0.021,8.661l0.019,-8.7l0.02,-8.7l-1.955,0c-1.076,0 -1.975,0.031 -1.999,0.07m8.414,-0.01c0.583,0.013 1.537,0.013 2.12,0c0.583,-0.014 0.106,-0.025 -1.06,-0.025c-1.166,0 -1.643,0.011 -1.06,0.025m-63.333,0.86c-0.002,0.088 0.03,0.213 0.073,0.28c0.103,0.158 0.103,-0.041 0,-0.28l-0.069,-0.161l-0.004,0.161m-0.034,0.573c-0.029,0.029 -0.049,0.2 -0.044,0.38l0.008,0.326l0.07,-0.354c0.071,-0.361 0.062,-0.448 -0.034,-0.352m123.342,0.286l-0.235,0.261l0.26,-0.236c0.243,-0.218 0.297,-0.284 0.235,-0.284c-0.014,0 -0.131,0.116 -0.26,0.259m-0.839,0.921l-0.276,0.3l0.3,-0.276c0.279,-0.257 0.337,-0.324 0.276,-0.324c-0.014,0 -0.149,0.134 -0.3,0.3m-165.596,0.06c0.149,0.154 0.289,0.279 0.312,0.279c0.022,0 -0.083,-0.125 -0.232,-0.279c-0.149,-0.154 -0.289,-0.28 -0.311,-0.28c-0.022,0 0.082,0.126 0.231,0.28m164.56,1.04c-0.195,0.198 -0.335,0.36 -0.313,0.36c0.021,0 0.199,-0.162 0.393,-0.36c0.194,-0.198 0.336,-0.36 0.313,-0.36c-0.022,0 -0.199,0.162 -0.393,0.36m-163.523,0.06c0.331,0.353 0.403,0.416 0.403,0.356c0,-0.013 -0.171,-0.183 -0.38,-0.38l-0.38,-0.356l0.357,0.38m162.24,1.32l-0.437,0.46l0.46,-0.438c0.253,-0.24 0.46,-0.447 0.46,-0.46c0,-0.059 -0.077,0.01 -0.483,0.438m-160.837,0.18c0.261,0.264 0.493,0.48 0.515,0.48c0.022,0 -0.174,-0.216 -0.435,-0.48c-0.261,-0.264 -0.493,-0.48 -0.515,-0.48c-0.022,0 0.174,0.216 0.435,0.48m45.339,0.24c0,0.153 0.016,0.217 0.036,0.139c0.02,-0.076 0.02,-0.203 0,-0.279c-0.02,-0.077 -0.036,-0.014 -0.036,0.14m70.241,0.36c0.001,0.175 0.017,0.238 0.036,0.138c0.02,-0.099 0.019,-0.243 -0.001,-0.319c-0.02,-0.077 -0.035,0.005 -0.035,0.181m-2.16,0.079c0.001,0.177 0.017,0.239 0.036,0.14c0.02,-0.1 0.019,-0.244 -0.001,-0.321c-0.02,-0.076 -0.035,0.006 -0.035,0.181m-1.92,0.24c0.001,0.177 0.017,0.239 0.036,0.14c0.02,-0.1 0.019,-0.244 -0.001,-0.321c-0.02,-0.076 -0.035,0.006 -0.035,0.181m-66.235,0.641c0,0.264 0.015,0.362 0.033,0.218c0.018,-0.144 0.017,-0.36 -0.001,-0.48c-0.018,-0.12 -0.033,-0.002 -0.032,0.262m2.159,-0.041c0,0.242 0.015,0.342 0.033,0.221c0.019,-0.121 0.019,-0.319 0,-0.44c-0.018,-0.121 -0.033,-0.022 -0.033,0.219m111.214,0.581l-0.878,0.9l0.9,-0.879c0.495,-0.483 0.9,-0.888 0.9,-0.9c0,-0.058 -0.105,0.043 -0.922,0.879m-90.293,-0.761c-0.014,0.034 -0.007,2.455 0.016,5.381l0.041,5.32l0.019,-5.38c0.011,-2.959 0.003,-5.381 -0.016,-5.381c-0.02,0 -0.047,0.028 -0.06,0.06m-66.265,0.821c0.438,0.439 0.815,0.799 0.837,0.799c0.022,0 -0.318,-0.36 -0.757,-0.799c-0.438,-0.44 -0.815,-0.8 -0.837,-0.8c-0.022,0 0.318,0.36 0.757,0.8m47.266,-0.281c0.001,0.309 0.015,0.425 0.032,0.259c0.018,-0.166 0.017,-0.418 0,-0.56c-0.018,-0.142 -0.032,-0.006 -0.032,0.301m38.634,4.901l0.019,5.26l0.021,-5.185c0.017,-4.105 0.042,-5.172 0.121,-5.124c0.066,0.039 0.063,0.015 -0.011,-0.076c-0.06,-0.075 -0.123,-0.136 -0.14,-0.136c-0.016,0 -0.021,2.368 -0.01,5.261m27.693,-3.701c0.001,0.837 0.012,1.168 0.027,0.736c0.014,-0.431 0.014,-1.115 0,-1.519c-0.015,-0.405 -0.027,-0.052 -0.027,0.783m-2.16,0c0,0.792 0.012,1.106 0.027,0.696c0.014,-0.409 0.014,-1.057 0,-1.44c-0.015,-0.382 -0.027,-0.048 -0.027,0.744m-1.921,0c0,0.617 0.012,0.858 0.028,0.537c0.015,-0.321 0.014,-0.825 -0.001,-1.12c-0.015,-0.295 -0.028,-0.032 -0.027,0.583m-54.272,4.041c0,2.698 0.017,4.889 0.039,4.867c0.053,-0.053 0.057,-9.678 0.003,-9.732c-0.023,-0.023 -0.042,2.166 -0.042,4.865m-17.251,-3.441c0,0.419 0.013,0.589 0.03,0.381c0.016,-0.209 0.016,-0.551 0,-0.76c-0.017,-0.21 -0.03,-0.039 -0.03,0.379m-35.509,0.96c0.835,0.837 1.536,1.521 1.558,1.521c0.022,0 -0.643,-0.684 -1.478,-1.521c-0.835,-0.835 -1.536,-1.519 -1.559,-1.519c-0.022,0 0.644,0.684 1.479,1.519m152.713,-1.463c0.224,0.035 0.184,0.085 -1.159,1.43c-0.766,0.766 -1.374,1.394 -1.352,1.394c0.022,0 0.68,-0.641 1.462,-1.424l1.421,-1.423l-0.302,-0.007c-0.234,-0.005 -0.25,0.002 -0.07,0.03m-153.012,0.08c0.1,0.019 0.244,0.019 0.32,-0.001c0.076,-0.021 -0.005,-0.036 -0.181,-0.035c-0.176,0.001 -0.239,0.017 -0.139,0.036m151.92,0c0.1,0.019 0.244,0.019 0.32,-0.001c0.076,-0.021 -0.005,-0.036 -0.181,-0.035c-0.176,0.001 -0.239,0.017 -0.139,0.036m-150.801,0.08c0.099,0.019 0.261,0.019 0.36,0c0.099,-0.019 0.018,-0.035 -0.18,-0.035c-0.198,0 -0.279,0.016 -0.18,0.035m149.6,0c0.099,0.019 0.261,0.019 0.36,0c0.099,-0.019 0.018,-0.035 -0.18,-0.035c-0.198,0 -0.279,0.016 -0.18,0.035m-148.24,0.08c0.099,0.019 0.261,0.019 0.36,0c0.099,-0.019 0.018,-0.035 -0.18,-0.035c-0.198,0 -0.279,0.016 -0.18,0.035m147.001,0.001c0.122,0.019 0.302,0.018 0.4,-0.001c0.099,-0.019 -0.001,-0.034 -0.221,-0.034c-0.22,0.001 -0.3,0.017 -0.179,0.035m-145.721,0.079c0.099,0.019 0.261,0.019 0.36,0c0.099,-0.019 0.018,-0.034 -0.18,-0.034c-0.198,0 -0.279,0.015 -0.18,0.034m144.281,0.001c0.122,0.018 0.302,0.018 0.4,-0.001c0.099,-0.019 -0.001,-0.034 -0.221,-0.034c-0.22,0.001 -0.3,0.017 -0.179,0.035m-142.72,0.08c0.122,0.018 0.302,0.018 0.4,-0.001c0.098,-0.019 -0.001,-0.034 -0.221,-0.033c-0.22,0 -0.3,0.015 -0.179,0.034m141.2,0c0.122,0.018 0.302,0.018 0.4,-0.001c0.099,-0.019 -0.001,-0.034 -0.221,-0.033c-0.22,0 -0.301,0.015 -0.179,0.034m-139.681,0.08c0.121,0.018 0.319,0.018 0.44,0c0.121,-0.018 0.022,-0.033 -0.22,-0.033c-0.242,0 -0.341,0.015 -0.22,0.033m138.042,0c0.143,0.019 0.359,0.018 0.48,0c0.12,-0.018 0.002,-0.033 -0.262,-0.033c-0.264,0.001 -0.362,0.016 -0.218,0.033m-136.241,0.081c0.144,0.017 0.36,0.017 0.48,-0.001c0.121,-0.019 0.003,-0.033 -0.261,-0.033c-0.264,0.001 -0.362,0.016 -0.219,0.034m134.519,-0.001c0.121,0.018 0.319,0.018 0.44,0c0.121,-0.018 0.022,-0.034 -0.22,-0.034c-0.242,0 -0.341,0.016 -0.22,0.034m-132.8,0.08c0.121,0.018 0.319,0.018 0.44,0c0.121,-0.019 0.022,-0.033 -0.22,-0.033c-0.242,0 -0.341,0.014 -0.22,0.033m34.726,0.462c0.001,0.309 0.015,0.425 0.032,0.259c0.018,-0.166 0.017,-0.418 0,-0.56c-0.018,-0.142 -0.032,-0.006 -0.032,0.301m96.275,-0.461c0.144,0.017 0.36,0.017 0.48,-0.001c0.121,-0.019 0.003,-0.033 -0.261,-0.032c-0.264,0 -0.362,0.015 -0.219,0.033m-129.321,0.079c0.121,0.018 0.319,0.018 0.44,0c0.121,-0.018 0.022,-0.033 -0.22,-0.033c-0.242,0 -0.341,0.015 -0.22,0.033m127.481,0c0.144,0.019 0.36,0.018 0.48,0c0.12,-0.018 0.003,-0.033 -0.261,-0.033c-0.264,0.001 -0.363,0.016 -0.219,0.033m-125.6,0.081c0.144,0.017 0.36,0.017 0.48,-0.001c0.121,-0.019 0.003,-0.033 -0.261,-0.033c-0.264,0.001 -0.362,0.016 -0.219,0.034m123.599,0c0.143,0.017 0.377,0.017 0.52,0c0.143,-0.018 0.026,-0.033 -0.26,-0.033c-0.286,0 -0.403,0.015 -0.26,0.033m-121.599,0.08c0.144,0.017 0.36,0.017 0.48,-0.001c0.12,-0.019 0.003,-0.033 -0.261,-0.032c-0.264,0 -0.363,0.015 -0.219,0.033m119.679,0c0.143,0.017 0.377,0.017 0.52,0c0.143,-0.018 0.026,-0.033 -0.26,-0.033c-0.286,0 -0.403,0.015 -0.26,0.033m-117.84,0.079c0.143,0.018 0.377,0.018 0.52,0c0.143,-0.017 0.026,-0.032 -0.26,-0.032c-0.286,0 -0.403,0.015 -0.26,0.032m115.84,0c0.143,0.018 0.377,0.018 0.52,0c0.143,-0.017 0.026,-0.032 -0.26,-0.032c-0.286,0 -0.403,0.015 -0.26,0.032m-113.922,0.081c0.142,0.017 0.394,0.017 0.56,0c0.166,-0.017 0.05,-0.032 -0.258,-0.032c-0.308,-0.001 -0.444,0.014 -0.302,0.032m21.327,0.382c0,0.264 0.015,0.362 0.033,0.218c0.018,-0.144 0.017,-0.36 -0.001,-0.48c-0.018,-0.12 -0.033,-0.002 -0.032,0.262m90.433,-0.382c0.142,0.017 0.394,0.017 0.56,0c0.166,-0.017 0.05,-0.032 -0.258,-0.032c-0.308,-0.001 -0.444,0.014 -0.302,0.032m-109.518,0.08c0.143,0.017 0.377,0.017 0.52,0c0.143,-0.018 0.026,-0.033 -0.26,-0.033c-0.286,0 -0.403,0.015 -0.26,0.033m21.244,0.341c0,0.242 0.015,0.342 0.033,0.221c0.019,-0.121 0.019,-0.319 0,-0.44c-0.018,-0.121 -0.033,-0.022 -0.033,0.219m86.194,-0.342c0.142,0.018 0.394,0.018 0.56,0.001c0.166,-0.017 0.05,-0.032 -0.258,-0.032c-0.308,0 -0.444,0.013 -0.302,0.031m-105.438,0.08c0.143,0.018 0.377,0.018 0.52,0c0.143,-0.017 0.026,-0.032 -0.26,-0.032c-0.286,0 -0.403,0.015 -0.26,0.032m103.24,0.001c0.165,0.017 0.435,0.017 0.6,0c0.165,-0.017 0.03,-0.031 -0.3,-0.031c-0.33,0 -0.465,0.014 -0.3,0.031m-101.082,0.08c0.142,0.017 0.394,0.017 0.56,0c0.166,-0.017 0.05,-0.032 -0.258,-0.032c-0.308,-0.001 -0.444,0.014 -0.302,0.032m98.88,0c0.142,0.017 0.394,0.017 0.56,0c0.166,-0.017 0.05,-0.032 -0.258,-0.032c-0.308,-0.001 -0.444,0.014 -0.302,0.032m-96.88,0.079c0.142,0.018 0.394,0.018 0.56,0.001c0.166,-0.017 0.05,-0.032 -0.258,-0.032c-0.308,0 -0.444,0.013 -0.302,0.031m94.522,0.001c0.165,0.017 0.435,0.017 0.6,0c0.165,-0.018 0.03,-0.032 -0.3,-0.032c-0.33,0 -0.465,0.014 -0.3,0.032m-92.442,0.079c0.142,0.018 0.394,0.018 0.56,0.001c0.166,-0.017 0.05,-0.032 -0.258,-0.032c-0.308,0 -0.444,0.014 -0.302,0.031m90.122,0.001c0.165,0.017 0.435,0.017 0.6,0c0.165,-0.017 0.03,-0.031 -0.3,-0.031c-0.33,0 -0.465,0.014 -0.3,0.031m-87.962,0.08c0.142,0.017 0.394,0.017 0.56,0c0.166,-0.017 0.05,-0.032 -0.258,-0.032c-0.308,-0.001 -0.444,0.014 -0.302,0.032m85.956,0.361l0.015,0.42l0.029,-0.374c0.029,-0.355 0.045,-0.378 0.286,-0.408c0.247,-0.031 0.245,-0.032 -0.044,-0.045l-0.3,-0.013l0.014,0.42m-83.792,-0.281c0.143,0.017 0.359,0.017 0.48,-0.001c0.12,-0.019 0.002,-0.033 -0.262,-0.032c-0.264,0 -0.362,0.015 -0.218,0.033m82.041,0.302c0.001,0.219 0.016,0.3 0.034,0.179c0.019,-0.122 0.019,-0.302 -0.001,-0.401c-0.019,-0.098 -0.034,0.002 -0.033,0.222m-9.283,0.159c0.001,0.177 0.017,0.239 0.036,0.14c0.02,-0.1 0.019,-0.244 -0.001,-0.321c-0.02,-0.076 -0.035,0.006 -0.035,0.181m-71.36,0.24c0.001,0.177 0.018,0.239 0.037,0.14c0.019,-0.1 0.018,-0.244 -0.002,-0.321c-0.02,-0.076 -0.036,0.006 -0.035,0.181m73.28,0c0.001,0.177 0.017,0.239 0.036,0.14c0.02,-0.1 0.019,-0.244 -0.001,-0.321c-0.02,-0.076 -0.035,0.006 -0.035,0.181m2.16,0.081c0.001,0.176 0.017,0.238 0.036,0.139c0.02,-0.1 0.019,-0.244 -0.001,-0.32c-0.02,-0.077 -0.035,0.004 -0.035,0.181m-70.241,0.36c0,0.154 0.016,0.217 0.036,0.14c0.02,-0.078 0.02,-0.203 0,-0.281c-0.02,-0.076 -0.036,-0.013 -0.036,0.141m75.36,0.24c0,0.154 0.016,0.217 0.036,0.14c0.02,-0.078 0.02,-0.203 0,-0.281c-0.02,-0.076 -0.036,-0.013 -0.036,0.141m1.763,0.56c0,0.198 0.016,0.279 0.034,0.18c0.02,-0.1 0.02,-0.261 0,-0.36c-0.018,-0.1 -0.034,-0.018 -0.034,0.18m30.815,0.66l-0.477,0.499l0.5,-0.477c0.275,-0.263 0.5,-0.487 0.5,-0.5c0,-0.059 -0.079,0.013 -0.523,0.478m-145.837,0.06c0.261,0.264 0.493,0.48 0.515,0.48c0.022,0 -0.174,-0.216 -0.435,-0.48c-0.261,-0.264 -0.493,-0.48 -0.515,-0.48c-0.022,0 0.174,0.216 0.435,0.48m1.36,1.279c0.172,0.177 0.33,0.321 0.352,0.321c0.023,0 -0.1,-0.144 -0.272,-0.321c-0.172,-0.175 -0.33,-0.319 -0.352,-0.319c-0.023,0 0.1,0.144 0.272,0.319m143.036,0.021l-0.316,0.339l0.34,-0.315c0.316,-0.295 0.377,-0.364 0.316,-0.364c-0.013,0 -0.166,0.152 -0.34,0.34m-1.12,1.04l-0.316,0.34l0.34,-0.317c0.316,-0.294 0.377,-0.364 0.316,-0.364c-0.013,0 -0.166,0.154 -0.34,0.341m-140.996,-0.235c0,0.013 0.117,0.131 0.26,0.26l0.26,0.234l-0.235,-0.259c-0.219,-0.243 -0.285,-0.297 -0.285,-0.235m0.88,0.8c0,0.014 0.117,0.13 0.26,0.259l0.26,0.236l-0.235,-0.261c-0.219,-0.242 -0.285,-0.296 -0.285,-0.234m139.196,0.275l-0.276,0.3l0.3,-0.276c0.279,-0.257 0.337,-0.324 0.276,-0.324c-0.014,0 -0.148,0.135 -0.3,0.3m-138.316,0.524c0,0.014 0.117,0.131 0.26,0.261l0.26,0.235l-0.235,-0.26c-0.219,-0.243 -0.285,-0.297 -0.285,-0.236m137.475,0.236l-0.235,0.26l0.26,-0.235c0.242,-0.219 0.297,-0.286 0.235,-0.286c-0.014,0 -0.131,0.118 -0.26,0.261m-130.095,5.155c0.077,0.02 0.203,0.02 0.28,0c0.077,-0.02 0.014,-0.037 -0.14,-0.037c-0.154,0 -0.217,0.017 -0.14,0.037m0.96,0.08c0.077,0.02 0.203,0.02 0.28,0c0.077,-0.02 0.014,-0.037 -0.14,-0.037c-0.154,0 -0.217,0.017 -0.14,0.037m121.04,0c0.077,0.02 0.203,0.02 0.28,0c0.077,-0.02 0.014,-0.037 -0.14,-0.037c-0.154,0 -0.217,0.017 -0.14,0.037m-120,0.08c0.077,0.02 0.203,0.02 0.28,0c0.077,-0.021 0.014,-0.037 -0.14,-0.037c-0.154,0 -0.217,0.016 -0.14,0.037m119.04,0c0.077,0.02 0.203,0.02 0.28,0c0.077,-0.021 0.014,-0.037 -0.14,-0.037c-0.154,0 -0.217,0.016 -0.14,0.037m-117.959,0.081c0.099,0.019 0.243,0.018 0.32,-0.001c0.077,-0.02 -0.005,-0.036 -0.181,-0.035c-0.176,0.001 -0.239,0.017 -0.139,0.036m116.96,0c0.1,0.019 0.244,0.018 0.32,-0.001c0.076,-0.02 -0.005,-0.036 -0.181,-0.035c-0.176,0.001 -0.239,0.017 -0.139,0.036m-115.84,0.08c0.099,0.019 0.243,0.019 0.32,-0.002c0.076,-0.02 -0.005,-0.035 -0.181,-0.034c-0.176,0.001 -0.238,0.017 -0.139,0.036m114.72,0c0.099,0.019 0.243,0.019 0.32,-0.002c0.076,-0.02 -0.005,-0.035 -0.181,-0.034c-0.176,0.001 -0.238,0.017 -0.139,0.036m-113.36,0.08c0.1,0.019 0.244,0.019 0.32,-0.001c0.076,-0.021 -0.005,-0.036 -0.181,-0.035c-0.176,0.001 -0.239,0.017 -0.139,0.036m112.24,0c0.099,0.019 0.243,0.019 0.32,-0.001c0.077,-0.021 -0.005,-0.036 -0.181,-0.035c-0.176,0.001 -0.239,0.017 -0.139,0.036m-110.96,0.08c0.099,0.019 0.243,0.018 0.32,-0.001c0.076,-0.02 -0.005,-0.036 -0.181,-0.035c-0.176,0.001 -0.238,0.017 -0.139,0.036m109.76,0c0.099,0.019 0.243,0.018 0.32,-0.001c0.077,-0.02 -0.005,-0.036 -0.181,-0.035c-0.176,0.001 -0.239,0.017 -0.139,0.036m-108.561,0.08c0.099,0.019 0.261,0.019 0.36,0c0.099,-0.019 0.018,-0.035 -0.18,-0.035c-0.198,0 -0.279,0.016 -0.18,0.035m107.28,0c0.099,0.019 0.261,0.019 0.36,0c0.099,-0.019 0.018,-0.035 -0.18,-0.035c-0.198,0 -0.279,0.016 -0.18,0.035m-105.84,0.08c0.099,0.019 0.261,0.019 0.36,0c0.099,-0.019 0.018,-0.034 -0.18,-0.034c-0.198,0 -0.279,0.015 -0.18,0.034m104.56,0c0.099,0.019 0.261,0.019 0.36,0c0.099,-0.019 0.018,-0.034 -0.18,-0.034c-0.198,0 -0.279,0.015 -0.18,0.034m-103.12,0.08c0.099,0.019 0.261,0.019 0.36,0c0.099,-0.019 0.018,-0.035 -0.18,-0.035c-0.198,0 -0.279,0.016 -0.18,0.035m101.84,0c0.099,0.019 0.261,0.019 0.36,0c0.099,-0.019 0.018,-0.035 -0.18,-0.035c-0.198,0 -0.279,0.016 -0.18,0.035m-100.519,0.081c0.122,0.019 0.302,0.018 0.4,-0.001c0.099,-0.019 -0.001,-0.034 -0.221,-0.034c-0.22,0.001 -0.3,0.017 -0.179,0.035m99.159,-0.001c0.099,0.019 0.261,0.019 0.36,0c0.099,-0.019 0.018,-0.035 -0.18,-0.035c-0.198,0 -0.279,0.016 -0.18,0.035m-97.56,0.081c0.121,0.018 0.319,0.018 0.44,0c0.121,-0.018 0.022,-0.034 -0.22,-0.034c-0.242,0 -0.341,0.016 -0.22,0.034m96.161,0c0.122,0.018 0.302,0.018 0.4,-0.001c0.098,-0.019 -0.001,-0.034 -0.221,-0.034c-0.22,0.001 -0.3,0.017 -0.179,0.035m-94.56,0.08c0.122,0.018 0.302,0.018 0.4,-0.001c0.098,-0.019 -0.001,-0.034 -0.221,-0.033c-0.22,0 -0.3,0.015 -0.179,0.034m93.12,0c0.122,0.018 0.302,0.018 0.4,-0.001c0.098,-0.019 -0.001,-0.034 -0.221,-0.033c-0.22,0 -0.3,0.015 -0.179,0.034m-91.52,0.08c0.122,0.019 0.302,0.018 0.4,-0.001c0.099,-0.019 -0.001,-0.034 -0.221,-0.034c-0.22,0.001 -0.3,0.017 -0.179,0.035m90.039,-0.001c0.099,0.019 0.261,0.019 0.36,0c0.099,-0.019 0.018,-0.035 -0.18,-0.035c-0.198,0 -0.279,0.016 -0.18,0.035m-88.52,0.081c0.121,0.018 0.319,0.018 0.44,0c0.121,-0.018 0.022,-0.034 -0.22,-0.034c-0.242,0 -0.341,0.016 -0.22,0.034m87.08,-0.001c0.099,0.019 0.261,0.019 0.36,0c0.099,-0.019 0.018,-0.034 -0.18,-0.034c-0.198,0 -0.279,0.015 -0.18,0.034m-85.56,0.081c0.121,0.018 0.319,0.018 0.44,0c0.121,-0.019 0.022,-0.033 -0.22,-0.033c-0.242,0 -0.341,0.014 -0.22,0.033m84,0c0.121,0.018 0.319,0.018 0.44,0c0.121,-0.019 0.022,-0.033 -0.22,-0.033c-0.242,0 -0.341,0.014 -0.22,0.033m-82.24,0.08c0.121,0.018 0.319,0.018 0.44,0c0.121,-0.018 0.022,-0.033 -0.22,-0.033c-0.242,0 -0.341,0.015 -0.22,0.033m80.72,0c0.121,0.018 0.319,0.018 0.44,0c0.121,-0.018 0.022,-0.033 -0.22,-0.033c-0.242,0 -0.341,0.015 -0.22,0.033m-17.745,5.722l-0.235,0.261l0.26,-0.236c0.242,-0.218 0.297,-0.284 0.235,-0.284c-0.014,0 -0.131,0.116 -0.26,0.259m-45.395,1.14c0.416,0.419 0.775,0.761 0.797,0.761c0.022,0 -0.301,-0.342 -0.717,-0.761c-0.416,-0.418 -0.775,-0.759 -0.797,-0.759c-0.022,0 0.301,0.341 0.717,0.759m44.316,0.021l-0.276,0.3l0.3,-0.276c0.279,-0.257 0.337,-0.324 0.276,-0.324c-0.013,0 -0.149,0.134 -0.3,0.3m2.439,0.2l-0.235,0.259l0.26,-0.234c0.242,-0.219 0.297,-0.285 0.235,-0.285c-0.014,0 -0.131,0.117 -0.26,0.26m-48.115,1.14c0.416,0.417 0.775,0.76 0.797,0.76c0.022,0 -0.301,-0.343 -0.717,-0.76c-0.416,-0.418 -0.775,-0.761 -0.797,-0.761c-0.022,0 0.301,0.343 0.717,0.761m44.515,-0.26l-0.235,0.26l0.26,-0.235c0.242,-0.219 0.297,-0.286 0.235,-0.286c-0.014,0 -0.131,0.118 -0.26,0.261m5.081,0.68l-0.276,0.3l0.3,-0.276c0.279,-0.257 0.337,-0.324 0.276,-0.324c-0.014,0 -0.149,0.135 -0.3,0.3m-3.68,0.64l-0.276,0.3l0.3,-0.276c0.279,-0.257 0.337,-0.324 0.276,-0.324c-0.013,0 -0.149,0.134 -0.3,0.3m-47.436,0.459c0.372,0.374 0.695,0.681 0.717,0.681c0.021,0 -0.265,-0.307 -0.637,-0.681c-0.372,-0.373 -0.694,-0.679 -0.716,-0.679c-0.023,0 0.264,0.306 0.636,0.679m48.956,1.061l-0.276,0.3l0.3,-0.276c0.279,-0.257 0.337,-0.324 0.276,-0.324c-0.014,0 -0.149,0.135 -0.3,0.3m-47.836,-0.035c0,0.014 0.117,0.13 0.26,0.259l0.26,0.236l-0.235,-0.261c-0.219,-0.242 -0.285,-0.296 -0.285,-0.234m-5.84,0.72c0,0.014 0.117,0.13 0.26,0.259l0.26,0.236l-0.235,-0.261c-0.219,-0.242 -0.285,-0.296 -0.285,-0.234m58.797,0.755l-0.437,0.46l0.46,-0.438c0.428,-0.406 0.497,-0.483 0.437,-0.483c-0.012,0 -0.219,0.208 -0.46,0.461m-1.239,1.24l-0.558,0.579l0.58,-0.557c0.539,-0.518 0.616,-0.602 0.558,-0.602c-0.012,0 -0.273,0.26 -0.58,0.58m-54.998,0.579c0.149,0.155 0.289,0.281 0.312,0.281c0.022,0 -0.083,-0.126 -0.232,-0.281c-0.149,-0.154 -0.289,-0.279 -0.311,-0.279c-0.022,0 0.082,0.125 0.231,0.279m24.58,1.856c0.077,0.02 0.203,0.02 0.28,0c0.077,-0.021 0.014,-0.037 -0.14,-0.037c-0.154,0 -0.217,0.016 -0.14,0.037m5.04,0c0.077,0.02 0.203,0.02 0.28,0c0.077,-0.021 0.014,-0.037 -0.14,-0.037c-0.154,0 -0.217,0.016 -0.14,0.037m-3.72,0.083c0.187,0.017 0.493,0.017 0.68,0c0.187,-0.017 0.034,-0.031 -0.34,-0.031c-0.374,0 -0.527,0.014 -0.34,0.031m2,0c0.187,0.017 0.493,0.017 0.68,0c0.187,-0.017 0.034,-0.031 -0.34,-0.031c-0.374,0 -0.527,0.014 -0.34,0.031m-3.279,1.838c0.099,0.019 0.243,0.019 0.32,-0.001c0.077,-0.021 -0.005,-0.036 -0.181,-0.035c-0.176,0.001 -0.239,0.017 -0.139,0.036m4.88,0c0.1,0.019 0.244,0.019 0.32,-0.001c0.076,-0.021 -0.005,-0.036 -0.181,-0.035c-0.176,0.001 -0.239,0.017 -0.139,0.036m-3.005,0.083c0.383,0.015 1.031,0.015 1.44,0c0.409,-0.014 0.096,-0.026 -0.696,-0.026c-0.792,0 -1.127,0.011 -0.744,0.026m-2.636,1.996c0.077,0.02 0.203,0.02 0.28,0c0.077,-0.02 0.014,-0.037 -0.14,-0.037c-0.154,0 -0.217,0.017 -0.14,0.037m6.4,0c0.077,0.02 0.203,0.02 0.28,0c0.077,-0.02 0.014,-0.037 -0.14,-0.037c-0.154,0 -0.217,0.017 -0.14,0.037m-5.32,0.081c0.099,0.019 0.261,0.019 0.36,0c0.099,-0.019 0.018,-0.034 -0.18,-0.034c-0.198,0 -0.279,0.015 -0.18,0.034m4.24,0c0.099,0.019 0.261,0.019 0.36,0c0.099,-0.019 0.018,-0.034 -0.18,-0.034c-0.198,0 -0.279,0.015 -0.18,0.034m-2.119,0.081c0.122,0.018 0.302,0.018 0.4,-0.001c0.099,-0.019 -0.001,-0.034 -0.221,-0.033c-0.22,0 -0.3,0.015 -0.179,0.034m-4.081,4.398c0.077,0.02 0.203,0.02 0.28,0c0.077,-0.02 0.014,-0.037 -0.14,-0.037c-0.154,0 -0.217,0.017 -0.14,0.037m0.88,0.08c0.077,0.02 0.203,0.02 0.28,0c0.077,-0.021 0.014,-0.037 -0.14,-0.037c-0.154,0 -0.217,0.016 -0.14,0.037m6.441,0.001c0.099,0.019 0.243,0.019 0.32,-0.001c0.076,-0.021 -0.005,-0.036 -0.181,-0.035c-0.176,0.001 -0.238,0.017 -0.139,0.036m-5.241,0.081c0.121,0.018 0.319,0.018 0.44,0c0.121,-0.019 0.022,-0.033 -0.22,-0.033c-0.242,0 -0.341,0.014 -0.22,0.033m3.882,0.001c0.143,0.017 0.359,0.017 0.48,-0.001c0.12,-0.019 0.002,-0.033 -0.262,-0.032c-0.264,0 -0.362,0.015 -0.218,0.033" style="fill:#888;"/><path id="path2" d="M93.64,56.689c-13.279,0.884 -25.244,8.146 -31.916,19.373l-0.464,0.78l-29.661,0.02l-29.661,0.021l1.116,1.44c0.614,0.792 1.696,2.15 2.404,3.02l1.288,1.579l51.245,0l-0.157,0.459c-0.473,1.374 -1.081,3.752 -1.427,5.582c-0.083,0.439 -0.155,0.718 -0.159,0.618c-0.009,-0.215 0.264,-2.724 0.438,-4.008c0.067,-0.5 0.111,-0.917 0.098,-0.928c-0.013,-0.01 -1.374,-0.061 -3.024,-0.113c-1.65,-0.052 -4.566,-0.147 -6.48,-0.212c-1.914,-0.064 -6.18,-0.207 -9.48,-0.318c-7.422,-0.247 -12.39,-0.414 -15.52,-0.52c-3.288,-0.112 -8.806,-0.297 -12.08,-0.405c-1.496,-0.049 -2.864,-0.077 -3.039,-0.062l-0.319,0.027l1.514,1.761c2.866,3.332 5.902,6.653 8.753,9.574l1.469,1.505l37.182,0l0,0.896c0,1.204 0.136,2.872 0.36,4.425c0.101,0.703 0.173,1.291 0.159,1.306c-0.036,0.038 -0.579,-1.715 -0.813,-2.626c-0.107,-0.418 -0.216,-1.072 -0.242,-1.453l-0.047,-0.692l-1.048,-0.051c-0.577,-0.027 -3.911,-0.157 -7.409,-0.288c-9.127,-0.342 -19.532,-0.78 -21.68,-0.914c-0.374,-0.023 -1.652,-0.099 -2.84,-0.168c-1.188,-0.068 -2.43,-0.154 -2.76,-0.189c-0.33,-0.035 -0.609,-0.057 -0.619,-0.049c-0.179,0.139 8.262,8.018 12.249,11.435l1.831,1.568l25.083,0l0.298,0.78c0.811,2.117 2.156,4.939 2.899,6.081c0.065,0.098 0.082,0.18 0.039,0.18c-0.112,0 -2.054,-2.962 -2.729,-4.161c-0.309,-0.549 -0.596,-1.039 -0.638,-1.087c-0.045,-0.052 -0.605,-0.109 -1.384,-0.141c-7.463,-0.309 -21.45,-1.154 -22.884,-1.383c-0.43,-0.069 -0.423,-0.06 0.755,0.908c4.362,3.587 8.97,7.014 13.898,10.332l1.798,1.211l15.938,0l0.978,1.038c15.798,16.772 42.704,16.691 58.45,-0.176l0.798,-0.855l7.863,-0.003l7.861,-0.004l0.818,-0.53c3.06,-1.985 8.031,-5.563 11.543,-8.309c1.827,-1.428 4.45,-3.572 4.415,-3.607c-0.015,-0.015 -0.493,0.024 -1.063,0.085c-2.665,0.288 -14.592,1.046 -20.277,1.29c-1.219,0.053 -1.52,0.109 -1.52,0.287c0,0.202 -0.786,2.047 -1.501,3.524l-0.766,1.581l-1.313,0c-0.722,0 -1.301,-0.028 -1.287,-0.061c0.015,-0.034 0.291,-0.539 0.614,-1.123c0.925,-1.675 2.573,-5.366 2.573,-5.762c0,-0.072 2.929,-0.095 12.47,-0.095l12.47,0l1.79,-1.534c4.314,-3.697 12.778,-11.635 12.23,-11.469c-0.666,0.201 -17.21,0.954 -29.96,1.362c-2.156,0.07 -4.142,0.146 -4.413,0.169l-0.493,0.044l-0.047,0.774c-0.077,1.294 -0.209,2.891 -0.305,3.715l-0.092,0.78l-0.985,0c-0.541,0 -0.985,-0.018 -0.985,-0.039c0,-0.021 0.071,-0.48 0.158,-1.02c0.225,-1.399 0.395,-3.142 0.455,-4.665l0.052,-1.317l36.905,0l1.397,-1.419c3.408,-3.463 10.365,-11.194 10.212,-11.348c-0.022,-0.022 -0.63,-0.003 -1.35,0.043c-4.658,0.299 -22.318,0.864 -41.849,1.338c-4.271,0.104 -5.82,0.166 -5.82,0.234c0,0.051 0.056,0.25 0.125,0.443c0.226,0.635 0.736,2.502 0.949,3.474c0.115,0.526 0.228,1.038 0.25,1.139c0.04,0.181 0.033,0.183 -0.655,0.16l-0.696,-0.023l-0.182,-1.001c-0.332,-1.815 -1.035,-4.539 -1.432,-5.541c-0.065,-0.166 -0.119,-0.337 -0.119,-0.38c0,-0.051 8.905,-0.079 25.502,-0.079l25.502,0l0.845,-1.02c0.94,-1.136 2.34,-2.895 3.343,-4.2l0.66,-0.859l-29.566,0l-29.566,0l-0.232,-0.38c-8.115,-13.318 -22.095,-20.77 -37.088,-19.774m5.32,4.638c14.467,0.999 27.279,11.455 31.116,25.396c6.3,22.886 -11.604,45.048 -35.57,44.029c-16.904,-0.719 -31.044,-13.436 -33.301,-29.95c-3.029,-22.174 15.02,-41.046 37.755,-39.475m-5.36,2.126c-11.565,1.024 -21.524,7.477 -26.713,17.309c-11.532,21.847 4.291,47.79 29.153,47.8c21.058,0.007 36.526,-18.626 32.44,-39.08c-2.542,-12.727 -12.824,-22.863 -25.84,-25.474c-2.357,-0.474 -6.85,-0.749 -9.04,-0.555m6.08,1.99c21.374,2.574 33.802,24.948 24.439,43.999c-7.828,15.932 -27.775,22.063 -43.355,13.327c-15.702,-8.804 -20.576,-28.836 -10.638,-43.726c5.347,-8.014 13.948,-12.943 23.994,-13.751c0.896,-0.072 4.527,0.026 5.56,0.151m-30.56,30.84l0,8.64l3.84,0l0.005,-4.901c0.003,-3.363 0.03,-4.862 0.086,-4.779c0.045,0.065 0.973,2.261 2.061,4.88l1.979,4.759l1.235,0.021l1.234,0.02l2.194,-5.3c1.206,-2.915 2.223,-5.335 2.259,-5.376c0.037,-0.042 0.067,2.343 0.067,5.3l0,5.376l3.84,0l0,-8.64l0,-8.64l-2.468,0l-2.468,0l-2.267,5.359c-1.247,2.949 -2.287,5.361 -2.312,5.36c-0.025,0 -0.672,-1.485 -1.439,-3.3c-0.766,-1.815 -1.787,-4.226 -2.267,-5.36l-0.875,-2.059l-2.352,0l-2.352,0l0,8.64m22.72,0l0,8.64l4.16,0l0,-8.64l0,-8.64l-2.08,0l-2.08,0l0,8.64m7.92,0l0,8.64l3.839,0l0.021,-5.257l0.02,-5.258l3.8,5.254l3.8,5.253l1.94,0.004l1.94,0.004l0,-8.64l0,-8.64l-1.919,0l-1.92,0l-0.02,5.249l-0.021,5.25l-3.8,-5.248l-3.8,-5.247l-1.94,-0.002l-1.94,-0.002l0,8.64m18.88,0l0,8.64l4.16,0l0,-8.64l0,-8.64l-2.08,0l-2.08,0l0,8.64" style="fill:#fff;"/></svg>