<?xml version="1.0" encoding="UTF-8" standalone="no"?><!DOCTYPE svg PUBLIC "-//W3C//DTD SVG 1.1//EN" "http://www.w3.org/Graphics/SVG/1.1/DTD/svg11.dtd"><svg width="100%" height="100%" viewBox="0 0 192 192" version="1.1" xmlns="http://www.w3.org/2000/svg" xmlns:xlink="http://www.w3.org/1999/xlink" xml:space="preserve" xmlns:serif="http://www.serif.com/" style="fill-rule:evenodd;clip-rule:evenodd;stroke-linejoin:round;stroke-miterlimit:1.41421;"><path id="path7860" d="M132.82,98.455c2.024,-4.809 3.996,-9.461 4.05,-9.587c0.116,-0.265 0.319,-0.382 0.638,-0.416c0.144,-0.013 0.474,-0.019 0.81,-0.019c0.318,0 0.64,0.006 0.753,0.019c0.282,0.04 0.535,0.166 0.65,0.469c0.495,1.345 2.179,5.408 3.906,9.534l-10.807,0Zm13.586,-11.755c-1.984,-4.586 -1.239,-4.078 -5.619,-4.23c-0.402,-0.016 -1.281,-0.032 -2.589,-0.035c-1.311,0 -1.654,0.01 -2.654,0.029c-4.124,0.072 -3.477,-0.211 -4.888,2.759c0.001,0 -7.088,16.171 -10.165,22.893l-0.139,0.283c-0.577,1.137 -0.153,1.178 0.763,1.178l6.427,-0.005c0.408,0 0.679,-0.25 0.783,-0.476c0,0 0.884,-2.104 2.099,-4.949l15.601,0c1.166,2.772 2.037,4.831 2.084,4.933c0.135,0.314 0.433,0.506 0.783,0.506l6.622,-0.011c0.984,0 1.195,0.126 0.819,-0.763c-1.179,-2.796 -8.824,-19.547 -9.927,-22.112m-99.775,-4.246l-6.504,0c-0.513,0 -0.658,0.252 -0.658,0.694l0,25.602c0,0.704 0.159,0.827 0.874,0.827l6.159,0c0.692,0 0.837,-0.163 0.837,-0.824l0,-25.591c0,-0.5 -0.157,-0.708 -0.708,-0.708m-14.564,-0.006l-5.32,0c-0.708,0 -0.837,0.165 -0.837,0.832l-0.004,20.272c0,0 -10.698,-16.663 -12.085,-18.814c-1.608,-2.485 -2.177,-2.322 -6.832,-2.322c-4.662,0 -6.147,0.032 -6.147,0.032c-0.711,0.003 -0.842,0.165 -0.842,0.826l0.015,25.476c0,0.692 0.153,0.83 0.841,0.83l5.332,-0.003c0.721,0 0.856,-0.163 0.856,-0.824l-0.006,-19.986c0,0 8.791,13.806 11.753,18.444c1.498,2.348 1.765,2.363 6.075,2.366l7.203,-0.003c0.701,0 0.851,-0.132 0.851,-0.831l0,-25.466c0,-0.671 -0.126,-0.829 -0.853,-0.829m159.075,0l-5.315,0c-0.707,0 -0.841,0.165 -0.841,0.832l-0.003,20.272c0,0 -10.682,-16.663 -12.079,-18.814c-1.606,-2.485 -2.172,-2.322 -6.839,-2.322c-4.648,0 -6.145,0.032 -6.145,0.032c-0.706,0.003 -0.84,0.165 -0.84,0.826l0.014,25.476c0.002,0.692 0.154,0.83 0.842,0.83l5.333,-0.003c0.721,0 0.852,-0.163 0.852,-0.824l-0.005,-19.986c0,0 8.791,13.806 11.755,18.444c1.498,2.348 1.758,2.363 6.082,2.366l7.192,-0.003c0.703,0 0.855,-0.132 0.855,-0.831l0,-25.466c0,-0.671 -0.127,-0.829 -0.858,-0.829m-116.573,10.404c-2.564,-0.252 -9.572,-0.916 -11.868,-1.124c-0.84,-0.082 -1.074,-0.571 -1.143,-1.119c-0.033,-0.245 -0.033,-0.447 -0.033,-0.612c0,-0.248 0.012,-0.38 0.033,-0.566c0.075,-0.769 0.472,-1.083 1.293,-1.083c0.527,0 18.993,0.003 18.993,0.003c0.69,0.003 0.862,-0.129 0.862,-0.835l0,-4.314c0,-0.654 -0.198,-0.766 -0.861,-0.77l-19.288,0c-5.023,0 -7.857,1.834 -8.629,5.625c-0.171,0.852 -0.207,1.89 -0.207,2.624c0,0.889 0.057,1.802 0.154,2.505c0.298,2.174 1.619,4.728 7.4,5.298c4.596,0.453 11.207,1.011 13.428,1.203c1.006,0.085 1.185,0.845 1.248,1.272c0.026,0.165 0.039,0.41 0.039,0.734c0,0.287 0,0.59 -0.039,1.008c-0.052,0.601 -0.326,0.885 -1.113,0.885l-20.144,0c-0.707,0 -0.852,0.145 -0.852,0.835l0,4.3c0,0.698 0.168,0.837 0.847,0.837l19.889,0c4.927,0 8.153,-0.834 9.019,-5.112c0.184,-0.903 0.217,-2.086 0.217,-2.913c0,-1.279 -0.087,-2.425 -0.171,-2.854c-0.888,-4.488 -4.27,-5.355 -9.074,-5.827m34.906,0c-2.567,-0.252 -9.57,-0.916 -11.868,-1.124c-0.84,-0.082 -1.077,-0.571 -1.148,-1.119c-0.022,-0.245 -0.022,-0.447 -0.022,-0.612c0,-0.248 0.012,-0.38 0.022,-0.566c0.081,-0.769 0.473,-1.083 1.311,-1.083c0.516,0 18.987,0.003 18.987,0.003c0.682,0.003 0.851,-0.129 0.851,-0.835l0,-4.314c0,-0.654 -0.195,-0.766 -0.851,-0.77l-19.293,0c-5.024,0 -7.859,1.834 -8.628,5.625c-0.171,0.852 -0.208,1.89 -0.208,2.624c0,0.889 0.055,1.802 0.151,2.505c0.304,2.174 1.62,4.728 7.398,5.298c4.595,0.453 11.215,1.011 13.434,1.203c1,0.085 1.183,0.845 1.248,1.272c0.024,0.165 0.035,0.41 0.035,0.734c0,0.287 0,0.59 -0.035,1.008c-0.053,0.601 -0.326,0.885 -1.11,0.885l-20.149,0c-0.711,0 -0.85,0.145 -0.851,0.835l0.003,4.3c-0.003,0.698 0.168,0.837 0.845,0.837l19.886,0c4.927,0 8.148,-0.834 9.019,-5.112c0.179,-0.903 0.219,-2.086 0.219,-2.913c0,-1.279 -0.09,-2.425 -0.178,-2.854c-0.89,-4.488 -4.265,-5.355 -9.068,-5.827" style="fill:#c90c41;fill-rule:nonzero;"/></svg>