<?xml version="1.0" encoding="UTF-8" standalone="no"?><!DOCTYPE svg PUBLIC "-//W3C//DTD SVG 1.1//EN" "http://www.w3.org/Graphics/SVG/1.1/DTD/svg11.dtd"><svg width="100%" height="100%" viewBox="0 0 192 192" version="1.1" xmlns="http://www.w3.org/2000/svg" xmlns:xlink="http://www.w3.org/1999/xlink" xml:space="preserve" xmlns:serif="http://www.serif.com/" style="fill-rule:evenodd;clip-rule:evenodd;"><g><path d="M140.511,42.445c-8.738,-2.184 -33.87,-4.403 -60.633,-2.73c-26.22,1.639 -26.765,13.929 -27.857,22.668c-1.093,8.74 0.819,53.53 0.819,53.53c0,0 26.492,3.637 43.153,3.457c16.661,-0.179 43.262,2.567 45.883,-16.566c2.732,-19.937 -1.365,-60.359 -1.365,-60.359Z" style="fill:#a41d23;fill-rule:nonzero;"/><path d="M91.528,138.31l0,-3.277l-32.227,0l0,18.571l32.227,0l0,-3.277l-24.579,0l0,-4.37l23.214,0l0,-3.277l-23.214,0l0,-4.37l24.579,0Z" style="fill:#a41d23;fill-rule:nonzero;"/><path d="M46.832,143.226c0,0 -14.885,-0.546 -17.07,-0.546c-2.185,0 -3.688,-0.546 -3.688,-2.731c0,-1.497 2.039,-1.634 3.824,-1.64l0,0.001l21.209,0l0,-3.277l-24.956,0c0,0 -7.451,-0.273 -7.451,5.189c0,4.506 2.595,5.599 6.692,5.599c4.096,0 14.475,0.683 16.387,0.683c0,0 2.594,0.252 2.594,2.049c0,1.092 -0.683,1.774 -1.911,1.774l-23.489,0l0,3.278c0,0 25.485,0 26.945,0c1.459,0 5.692,-0.683 5.692,-5.189c0,-4.234 -2.32,-4.916 -4.778,-5.19Z" style="fill:#a41d23;fill-rule:nonzero;"/><path d="M174.119,135.073l-33.265,0l0,3.88l12.957,0l0,14.651l7.071,0l0,-14.651l13.237,0l0,-3.88Z" style="fill:#a41d23;fill-rule:nonzero;"/><path d="M106.918,135.033c-3.545,0 -6.965,2.46 -6.965,5.326l-0.001,13.332l6.557,0l0,-7.051l19.702,0l0,6.964l6.555,0l0,-18.571l-25.848,0Zm-0.409,8.329l0,-1.364c0,-1.433 1.364,-3.413 3.822,-3.413l15.88,0l0,4.777l-19.702,0Z" style="fill:#a41d23;fill-rule:nonzero;"/><path d="M139.692,41.626c-8.739,-2.185 -33.871,-4.404 -60.633,-2.73c-26.219,1.639 -26.766,13.928 -27.858,22.668c-1.092,8.739 0.82,53.53 0.82,53.53c0,0 26.492,3.636 43.153,3.457c16.66,-0.179 43.261,2.567 45.883,-16.566c2.732,-19.937 -1.365,-60.359 -1.365,-60.359Z" style="fill:#e2001a;fill-rule:nonzero;"/><path d="M54.478,61.838c0,0 -0.251,-11.718 6.009,-15.296c7.647,-4.369 27.584,-8.194 75.655,-2.185c0,0 0.544,15.294 0.544,16.387c0,0 -35.788,-3.067 -42.332,-2.55c-4.643,0.367 -2.458,2.824 0,3.183c0,0 36.051,5.923 42.332,7.286l0,6.284c0,0.001 -56.535,-11.198 -82.208,-13.109Z" style="fill:#b2b2b2;fill-rule:nonzero;stroke:#b2b2b2;stroke-width:0.08px;"/><path d="M54.206,66.206c0,0 63.363,9.834 82.48,14.476c0,0 0,4.371 0,5.736c0,0 -64.455,-14.476 -82.208,-16.115l-0.272,-4.097Z" style="fill:#b2b2b2;fill-rule:nonzero;stroke:#b2b2b2;stroke-width:0.08px;"/><path d="M54.478,74.948c0,0 61.999,9.559 82.208,17.479c0,0 1.639,13.109 -4.915,17.206c-9.378,5.862 -44.791,5.736 -76.473,1.912c0,0 -0.82,-15.022 0,-22.397c0,0 34.975,2.596 42.607,3.551c4.369,0.547 4.371,-1.638 1.639,-3.278c0,0 -33.867,-9.286 -44.793,-10.651l-0.273,-3.822Z" style="fill:#b2b2b2;fill-rule:nonzero;stroke:#b2b2b2;stroke-width:0.08px;"/><path d="M56.118,63.476c0,0 -0.253,-11.718 6.008,-15.296c7.648,-4.368 27.584,-8.193 75.653,-2.184c0,0 0.546,15.294 0.546,16.388c0,0 -35.789,-3.069 -42.332,-2.552c-4.643,0.366 -2.459,2.825 0,3.183c0,0 36.052,5.923 42.332,7.288l0,6.282c0,0 -56.535,-11.198 -82.207,-13.109Z" style="fill:#4d4d4d;fill-rule:nonzero;stroke:#4d4d4d;stroke-width:0.08px;"/><path d="M55.844,67.845c0,0 63.365,9.833 82.481,14.476c0,0 0,4.37 0,5.736c0,0 -64.455,-14.477 -82.207,-16.115l-0.274,-4.097Z" style="fill:#4d4d4d;fill-rule:nonzero;stroke:#4d4d4d;stroke-width:0.08px;"/><path d="M56.118,76.585c0,0 61.997,9.56 82.207,17.48c0,0 1.64,13.11 -4.915,17.207c-9.378,5.861 -44.792,5.735 -76.474,1.912c0,0 -0.818,-15.022 0,-22.397c0,0 34.976,2.596 42.608,3.551c4.368,0.547 4.37,-1.639 1.638,-3.277c0,0 -33.867,-9.287 -44.792,-10.652l-0.272,-3.824Z" style="fill:#4d4d4d;fill-rule:nonzero;stroke:#4d4d4d;stroke-width:0.08px;"/><path d="M55.298,62.657c0,0 -0.252,-11.718 6.008,-15.296c7.648,-4.369 27.584,-8.193 75.654,-2.184c0,0 0.547,15.293 0.547,16.387c0,0 -35.79,-3.067 -42.333,-2.551c-4.643,0.366 -2.459,2.825 0,3.183c0,0 36.051,5.923 42.333,7.288l0,6.282c-0.001,0 -56.537,-11.197 -82.209,-13.109Z" style="fill:url(#_Linear1);fill-rule:nonzero;"/><path d="M55.025,67.026c0,0 63.364,9.833 82.482,14.476c0,0 0,4.37 0,5.736c0,0 -64.456,-14.478 -82.209,-16.115l-0.273,-4.097Z" style="fill:url(#_Linear2);fill-rule:nonzero;"/><path d="M55.298,75.766c0,0 61.997,9.561 82.208,17.48c0,0 1.639,13.109 -4.916,17.206c-9.378,5.862 -44.791,5.735 -76.473,1.913c0,0 -0.819,-15.022 0,-22.398c0,0 34.976,2.597 42.608,3.551c4.368,0.547 4.37,-1.637 1.638,-3.277c0,0 -33.867,-9.287 -44.792,-10.651l-0.273,-3.824Z" style="fill:url(#_Linear3);fill-rule:nonzero;"/><path d="M90.709,137.491l0,-3.277l-32.228,0l0,18.571l32.228,0l0,-3.278l-24.58,0l0,-4.37l23.214,0l0,-3.277l-23.214,0l0,-4.369l24.58,0Z" style="fill:#e2001a;fill-rule:nonzero;"/><path d="M46.013,142.407c0,0 -14.886,-0.546 -17.071,-0.546c-2.185,0 -3.687,-0.547 -3.687,-2.731c0,-1.497 2.038,-1.634 3.823,-1.641l0,0.002l21.209,0l0,-3.277l-24.956,0c0,0 -7.45,-0.274 -7.45,5.189c0,4.506 2.595,5.599 6.691,5.599c4.097,0 14.476,0.683 16.387,0.683c0,0 2.594,0.252 2.594,2.048c0,1.092 -0.682,1.775 -1.911,1.775l-23.488,0l0,3.277c0,0 25.485,0 26.945,0c1.459,0 5.692,-0.682 5.692,-5.189c0,-4.234 -2.321,-4.915 -4.778,-5.189Z" style="fill:#e2001a;fill-rule:nonzero;"/><path d="M173.301,134.255l-33.266,0l0,3.878l12.958,0l0,14.652l7.069,0l0,-14.652l13.239,0l0,-3.878Z" style="fill:#e2001a;fill-rule:nonzero;"/><path d="M106.099,134.214c-3.545,0 -6.965,2.459 -6.965,5.325l-0.002,13.333l6.557,0l0,-7.052l19.703,0l0,6.964l6.555,0l0,-18.57l-25.848,0Zm-0.41,8.329l0,-1.365c0,-1.432 1.364,-3.413 3.824,-3.413l15.879,0l0,4.778l-19.703,0Z" style="fill:#e2001a;fill-rule:nonzero;"/></g><defs><linearGradient id="_Linear1" x1="0" y1="0" x2="1" y2="0" gradientUnits="userSpaceOnUse" gradientTransform="matrix(82.3445,0,0,82.3445,55.1621,58.8264)"><stop offset="0" style="stop-color:#9c9d9f;stop-opacity:1"/><stop offset="0.07" style="stop-color:#a2a3a5;stop-opacity:1"/><stop offset="0.17" style="stop-color:#b0b1b3;stop-opacity:1"/><stop offset="0.27" style="stop-color:#c6c7c9;stop-opacity:1"/><stop offset="0.39" style="stop-color:#e4e5e5;stop-opacity:1"/><stop offset="0.49" style="stop-color:#fff;stop-opacity:1"/><stop offset="0.57" style="stop-color:#fbfbfc;stop-opacity:1"/><stop offset="0.66" style="stop-color:#f0f0f1;stop-opacity:1"/><stop offset="0.77" style="stop-color:#dddedf;stop-opacity:1"/><stop offset="0.88" style="stop-color:#c1c2c4;stop-opacity:1"/><stop offset="1" style="stop-color:#9c9d9f;stop-opacity:1"/></linearGradient><linearGradient id="_Linear2" x1="0" y1="0" x2="1" y2="0" gradientUnits="userSpaceOnUse" gradientTransform="matrix(82.3449,0,0,82.3449,55.1617,77.0379)"><stop offset="0" style="stop-color:#9c9d9f;stop-opacity:1"/><stop offset="0.07" style="stop-color:#a2a3a5;stop-opacity:1"/><stop offset="0.17" style="stop-color:#b0b1b3;stop-opacity:1"/><stop offset="0.27" style="stop-color:#c6c7c9;stop-opacity:1"/><stop offset="0.39" style="stop-color:#e4e5e5;stop-opacity:1"/><stop offset="0.49" style="stop-color:#fff;stop-opacity:1"/><stop offset="0.57" style="stop-color:#fbfbfc;stop-opacity:1"/><stop offset="0.66" style="stop-color:#f0f0f1;stop-opacity:1"/><stop offset="0.77" style="stop-color:#dddedf;stop-opacity:1"/><stop offset="0.88" style="stop-color:#c1c2c4;stop-opacity:1"/><stop offset="1" style="stop-color:#9c9d9f;stop-opacity:1"/></linearGradient><linearGradient id="_Linear3" x1="0" y1="0" x2="1" y2="0" gradientUnits="userSpaceOnUse" gradientTransform="matrix(82.3904,0,0,82.3904,55.1618,95.3245)"><stop offset="0" style="stop-color:#9c9d9f;stop-opacity:1"/><stop offset="0.07" style="stop-color:#a2a3a5;stop-opacity:1"/><stop offset="0.17" style="stop-color:#b0b1b3;stop-opacity:1"/><stop offset="0.27" style="stop-color:#c6c7c9;stop-opacity:1"/><stop offset="0.39" style="stop-color:#e4e5e5;stop-opacity:1"/><stop offset="0.49" style="stop-color:#fff;stop-opacity:1"/><stop offset="0.57" style="stop-color:#fbfbfc;stop-opacity:1"/><stop offset="0.66" style="stop-color:#f0f0f1;stop-opacity:1"/><stop offset="0.77" style="stop-color:#dddedf;stop-opacity:1"/><stop offset="0.88" style="stop-color:#c1c2c4;stop-opacity:1"/><stop offset="1" style="stop-color:#9c9d9f;stop-opacity:1"/></linearGradient></defs></svg>