<?xml version="1.0" encoding="UTF-8" standalone="no"?><!DOCTYPE svg PUBLIC "-//W3C//DTD SVG 1.1//EN" "http://www.w3.org/Graphics/SVG/1.1/DTD/svg11.dtd"><svg width="100%" height="100%" viewBox="0 0 192 192" version="1.1" xmlns="http://www.w3.org/2000/svg" xmlns:xlink="http://www.w3.org/1999/xlink" xml:space="preserve" xmlns:serif="http://www.serif.com/" style="fill-rule:evenodd;clip-rule:evenodd;stroke-linejoin:round;stroke-miterlimit:1.41421;"><g><g id="g4168"><path id="polygon3" d="M78.772,160.735l11.527,0l-11.527,10.906l0,3.967l23.549,0l0,-4.958l-11.403,0l11.403,-10.907l0,-0.496l0,-3.47l-23.549,0l0,4.958Z" style="fill:#039;fill-rule:nonzero;"/><rect id="rect5" x="156.854" y="155.777" width="7.436" height="19.83" style="fill:#039;"/><path id="polygon7" d="M137.024,167.799l7.808,7.809l10.039,0l-11.154,-10.411l11.402,-9.42l-10.039,0l-8.056,7.065l0,-7.065l-7.436,0l0,19.831l7.436,0l0,-7.809Z" style="fill:#039;fill-rule:nonzero;"/><path id="path9" d="M119.673,155.777l0,12.022c0,1.735 -0.496,3.842 -4.462,3.842c-3.966,0 -4.214,-2.107 -4.214,-3.842l0,-12.022l-7.437,0l0,12.642c0,5.949 1.612,8.428 11.403,8.428c9.791,0 12.146,-2.479 12.146,-8.428l0,-12.642l-7.436,0Z" style="fill:#039;fill-rule:nonzero;"/><path id="path11" d="M70.097,155.777l0,12.022c0,1.735 -0.496,3.842 -4.462,3.842c-3.966,0 -4.214,-2.107 -4.214,-3.842l0,-12.022l-7.437,0l0,12.642c0,5.949 2.355,8.428 12.146,8.428c9.792,0 11.403,-2.479 11.403,-8.428l0,-12.642l-7.436,0Z" style="fill:#039;fill-rule:nonzero;"/><path id="path13" d="M37.253,169.41c0.371,1.364 1.239,2.231 3.718,2.231c1.859,0 2.726,-0.372 2.726,-0.991c0,-1.611 -1.115,-1.611 -8.675,-2.603c-7.437,-0.991 -7.189,-5.701 -7.189,-6.445c0,-6.321 8.924,-6.321 12.022,-6.321c5.578,0 11.651,1.735 11.651,6.569l-8.676,0c-0.248,-0.991 -1.487,-1.983 -3.718,-1.983c-1.859,0 -2.851,0.372 -2.851,1.115c0,1.364 0.62,1.24 7.932,2.355c7.437,1.116 8.18,4.71 8.18,6.693c0,6.569 -9.171,6.197 -12.27,6.197c-7.436,0 -12.146,-1.611 -12.394,-6.941l9.544,0l0,0.124Z" style="fill:#039;fill-rule:nonzero;"/></g><path id="path152" d="M94.351,150.034c9.47,-10.551 56.598,-39.63 68.151,-40.912c-5.361,-4.243 -83.135,-58.255 -84.391,-58.939c-2.454,-1.341 1.083,-5.141 4.061,-2.707c2.013,1.649 26.914,18.129 30.042,20.363c15.863,11.33 41.398,1.692 50.788,-5.133c-5.58,-4.467 -65.188,-44.652 -66.753,-47.553l0.225,0.221c-6.905,11.088 -54.98,40.291 -66.528,41.575c5.357,4.238 80.901,57.982 82.154,58.667c4.112,2.242 0.232,4.8 -3.628,2.481c-2.233,-1.339 -28.514,-19.914 -31.811,-21.876c-13.959,-8.309 -39.208,-2.412 -47.897,6.828c5.582,4.465 64.023,44.082 65.587,46.986l0,-0.001Z" style="fill:#f00;"/></g></svg>