<?xml version="1.0" encoding="UTF-8" standalone="no"?><!DOCTYPE svg PUBLIC "-//W3C//DTD SVG 1.1//EN" "http://www.w3.org/Graphics/SVG/1.1/DTD/svg11.dtd"><svg width="100%" height="100%" viewBox="0 0 192 192" version="1.1" xmlns="http://www.w3.org/2000/svg" xmlns:xlink="http://www.w3.org/1999/xlink" xml:space="preserve" xmlns:serif="http://www.serif.com/" style="fill-rule:evenodd;clip-rule:evenodd;stroke-miterlimit:10;"><g id="g2834"><path id="ciculo_grande" d="M95.796,25.927c-38.816,0 -69.869,31.461 -69.869,69.869c0,38.407 31.053,70.277 69.869,70.277c38.816,0 70.277,-31.461 70.277,-70.277c0,-38.816 -31.461,-69.869 -70.277,-69.869Zm0,123.394c-29.419,0 -53.526,-24.107 -53.526,-53.525c0,-29.419 24.107,-53.526 53.526,-53.526c29.418,0 53.525,24.107 53.525,53.526c0,29.827 -24.107,53.525 -53.525,53.525Z" style="fill:url(#_Radial1);fill-rule:nonzero;stroke:#000;stroke-width:4.02px;"/><circle id="circulo_pequeño" cx="96.204" cy="95.796" r="53.117" style="fill:url(#_Radial2);"/><path d="M92.118,94.57l-3.677,0l-17.161,-38.408l1.635,-4.085l19.203,42.493" style="fill:#bfbbb9;fill-rule:nonzero;"/><path d="M96.204,39.002c-31.461,0 -56.794,25.332 -56.794,56.794c0,31.461 25.333,56.794 56.794,56.794c31.462,0 56.794,-25.333 56.794,-56.794c0,-31.053 -25.332,-56.794 -56.794,-56.794Zm13.484,8.989l-13.484,31.053l-13.892,-31.053c4.495,-1.226 9.398,-2.043 13.892,-2.043c4.495,0.408 8.989,0.817 13.484,2.043Zm-36.773,4.086l19.203,42.493l7.355,0l19.612,-42.902c7.355,3.677 13.484,9.398 18.387,16.344l-25.333,56.385l-12.666,-27.376l-7.763,0l-11.849,26.967l-24.924,-55.976c4.494,-6.538 10.623,-12.258 17.978,-15.935Zm-26.559,44.127c0,-6.129 1.226,-11.849 2.86,-16.752l28.193,62.923c-18.386,-7.355 -31.053,-25.333 -31.053,-46.171Zm35.139,47.397l14.301,-31.462l14.3,31.462c-4.494,1.225 -9.397,2.043 -14.3,2.043c-4.903,0.408 -9.806,-0.409 -14.301,-2.043Zm33.096,-1.226l28.193,-63.74c2.042,5.312 3.268,11.44 3.268,17.569c0,20.838 -13.075,38.816 -31.461,46.171Z" style="fill:url(#_Linear3);fill-rule:nonzero;"/><path id="XMLID_1_" d="M71.28,56.162l1.226,-4.085c-6.946,3.677 -13.075,9.397 -17.569,15.935l3.677,0c3.269,-4.903 7.763,-8.581 12.666,-11.85Z" style="fill:#544e4e;fill-rule:nonzero;"/><clipPath id="_clip4"><path d="M71.28,56.162l1.226,-4.085c-6.946,3.677 -13.075,9.397 -17.569,15.935l3.677,0c3.269,-4.903 7.763,-8.581 12.666,-11.85Z"/></clipPath><g clip-path="url(#_clip4)"><path d="M73.323,52.894c-8.989,5.311 -12.257,7.763 -17.978,15.935l-2.86,-0.409l0,-1.226l5.72,-6.537l6.129,-6.129l5.312,-2.86l3.269,-0.817l1.225,0.817l-0.817,1.226Z" style="fill:#352d2b;fill-rule:nonzero;"/></g><path d="M91.71,97.021l-3.678,0l-8.171,18.796l0,8.58l11.849,-27.376Z" style="fill:url(#_Linear5);fill-rule:nonzero;"/><path id="XMLID_2_" d="M79.861,115.817l-21.656,-47.805l-3.677,0l24.924,56.385l0.409,-8.58Z" style="fill:#fff;fill-rule:nonzero;"/><clipPath id="_clip6"><path d="M79.861,115.817l-21.656,-47.805l-3.677,0l24.924,56.385l0.409,-8.58Z"/></clipPath><g clip-path="url(#_clip6)"><path d="M80.269,124.397l-24.515,-57.203l-2.043,0.409l-1.226,12.666l4.903,25.333l4.903,6.946l6.538,5.72l10.215,5.72l1.225,0.409Z" style="fill:#979190;fill-rule:nonzero;"/></g><g><path id="XMLID_4_" d="M96.204,142.784c4.495,0 8.581,-0.818 12.667,-1.635l1.225,2.86c-4.494,1.226 -9.397,2.043 -14.3,2.043c-4.903,0 -9.806,-0.817 -14.71,-2.043l1.226,-2.86c4.495,0.817 8.989,1.635 13.892,1.635Zm-19.203,-0.409l-2.043,-4.903c-15.118,-7.763 -25.742,-23.29 -25.742,-41.676c0,-4.086 0.409,-8.581 1.635,-12.258l-2.043,-4.494c-2.043,5.311 -2.86,11.031 -2.86,16.752c0.408,21.246 13.075,39.224 31.053,46.579Zm69.051,-46.171c0,-6.129 -1.226,-12.257 -3.268,-17.569l-2.043,4.494c1.225,4.086 1.634,8.581 1.634,13.075c0,18.387 -10.623,33.913 -25.741,41.676l-2.043,4.495c18.386,-7.355 31.461,-25.333 31.461,-46.171Z" style="fill:url(#_Linear7);fill-rule:nonzero;"/><clipPath id="_clip8"><path d="M96.204,142.784c4.495,0 8.581,-0.818 12.667,-1.635l1.225,2.86c-4.494,1.226 -9.397,2.043 -14.3,2.043c-4.903,0 -9.806,-0.817 -14.71,-2.043l1.226,-2.86c4.495,0.817 8.989,1.635 13.892,1.635Zm-19.203,-0.409l-2.043,-4.903c-15.118,-7.763 -25.742,-23.29 -25.742,-41.676c0,-4.086 0.409,-8.581 1.635,-12.258l-2.043,-4.494c-2.043,5.311 -2.86,11.031 -2.86,16.752c0.408,21.246 13.075,39.224 31.053,46.579Zm69.051,-46.171c0,-6.129 -1.226,-12.257 -3.268,-17.569l-2.043,4.494c1.225,4.086 1.634,8.581 1.634,13.075c0,18.387 -10.623,33.913 -25.741,41.676l-2.043,4.495c18.386,-7.355 31.461,-25.333 31.461,-46.171Z"/></clipPath><g clip-path="url(#_clip8)"><path d="M146.052,96.204c0,20.838 -13.075,38.816 -31.053,46.171l0.409,-1.226c17.569,-7.354 29.827,-24.924 29.827,-44.945c0,-5.72 -0.817,-11.44 -2.86,-16.343l0.409,-1.226c2.042,5.312 3.268,11.44 3.268,17.569Zm-98.878,0c0,-5.72 0.817,-11.032 2.451,-15.935l-0.409,-1.225c-2.042,5.311 -2.86,11.031 -2.86,16.752c0,20.838 12.667,38.816 31.053,46.17l-0.817,-0.817c-17.569,-7.354 -29.418,-24.924 -29.418,-44.945Zm49.03,49.848c-4.903,0 -9.806,-0.817 -14.709,-2.043l0.409,-0.817c4.494,1.226 9.397,2.043 14.3,2.043c4.903,0 9.398,-0.817 13.892,-2.043l0.409,0.817c-4.903,1.226 -9.398,2.043 -14.301,2.043Z" style="fill:url(#_Linear9);fill-rule:nonzero;"/></g></g><circle cx="96.204" cy="96.204" r="56.794" style="fill:none;stroke:#000;stroke-width:3.67px;"/><g><path id="XMLID_5_" d="M133.386,67.603l3.677,0.409c-4.494,-6.538 -11.032,-12.258 -17.978,-15.935l0.409,0.817l1.226,3.268c4.903,2.861 8.989,6.947 12.666,11.441Z" style="fill:#5f585a;fill-rule:nonzero;"/><clipPath id="_clip10"><path d="M133.386,67.603l3.677,0.409c-4.494,-6.538 -11.032,-12.258 -17.978,-15.935l0.409,0.817l1.226,3.268c4.903,2.861 8.989,6.947 12.666,11.441Z"/></clipPath><g clip-path="url(#_clip10)"><path d="M136.655,68.42c-4.086,-6.129 -13.484,-14.3 -19.204,-15.935l1.226,-3.269l7.354,1.635l8.989,9.806l4.903,5.72l0,2.86l-3.268,-0.817Z" style="fill:#282423;fill-rule:nonzero;"/></g></g><g><path id="XMLID_3_" d="M81.904,48.399l1.225,2.452c4.086,-1.226 8.581,-1.635 13.075,-1.635c4.086,0 8.581,0.409 12.258,1.635l1.226,-2.452c-4.495,-1.225 -8.989,-2.043 -13.484,-2.043c-4.903,0 -9.806,0.818 -14.3,2.043Z" style="fill:#544d4f;fill-rule:nonzero;"/><clipPath id="_clip11"><path d="M81.904,48.399l1.225,2.452c4.086,-1.226 8.581,-1.635 13.075,-1.635c4.086,0 8.581,0.409 12.258,1.635l1.226,-2.452c-4.495,-1.225 -8.989,-2.043 -13.484,-2.043c-4.903,0 -9.806,0.818 -14.3,2.043Z"/></clipPath><g clip-path="url(#_clip11)"><path d="M109.688,48.808c-8.581,-2.86 -22.064,-2.043 -28.193,0.408l-0.817,-1.634l2.451,-2.043c0,0 4.495,-0.408 4.903,-0.408l12.258,0l5.72,0.408l4.495,1.226l0.817,1.226l-1.634,0.817Z" style="fill:#352d2b;fill-rule:nonzero;"/></g></g><g><path id="XMLID_6_" d="M99.473,97.021l4.086,0l8.172,18.387l21.655,-47.805l4.086,0.409l-25.333,56.385l-12.666,-27.376Z" style="fill:#fff;fill-rule:nonzero;"/><clipPath id="_clip12"><path d="M99.473,97.021l4.086,0l8.172,18.387l21.655,-47.805l4.086,0.409l-25.333,56.385l-12.666,-27.376Z"/></clipPath><g clip-path="url(#_clip12)"><path d="M111.731,113.774l0.408,11.44l-12.257,-15.935l-1.226,-11.032l0.408,-2.86l4.495,0.409l3.269,2.043l4.903,15.935Z" style="fill:url(#_Linear13);fill-rule:nonzero;"/></g><clipPath id="_clip14"><path d="M99.473,97.021l4.086,0l8.172,18.387l21.655,-47.805l4.086,0.409l-25.333,56.385l-12.666,-27.376Z"/></clipPath><g clip-path="url(#_clip14)"><path d="M99.882,97.021l11.849,26.15l25.332,-55.977l0.409,1.635l-9.398,23.698l-14.709,33.913l-3.677,-1.226l-10.624,-27.375l-0.408,-1.635l1.226,0.817Z" style="fill:url(#_Linear15);fill-rule:nonzero;"/></g></g><path d="M99.473,94.57l19.612,-42.902l1.635,4.086l-17.161,38.816l-4.086,0Z" style="fill:#ada6a5;fill-rule:nonzero;"/><path id="Capa_8_copia" d="M95.796,26.335c-38.408,0 -69.461,31.053 -69.461,69.461c0,38.407 31.053,69.46 69.461,69.46c38.407,0 69.46,-31.053 69.46,-69.46c0,-38.408 -31.053,-69.461 -69.46,-69.461Zm0,136.878c-37.182,0 -67.418,-30.236 -67.418,-67.417c0,-37.182 30.236,-67.418 67.418,-67.418c37.181,0 67.417,30.236 67.417,67.418c0,37.181 -30.236,67.417 -67.417,67.417Z" style="fill-rule:nonzero;"/><path id="Capa_8" d="M95.796,25.927c-38.816,0 -69.869,31.461 -69.869,69.869c0,38.407 31.053,70.277 69.869,70.277c38.816,0 70.277,-31.461 70.277,-70.277c0,-38.816 -31.461,-69.869 -70.277,-69.869Zm0,138.103c-37.591,0 -67.826,-30.644 -67.826,-68.234c0,-37.591 30.235,-67.826 67.826,-67.826c37.59,0 67.826,30.235 67.826,67.826c0,37.59 -30.236,68.234 -67.826,68.234Z" style="fill:url(#_Linear16);fill-rule:nonzero;"/></g><defs><radialGradient id="_Radial1" cx="0" cy="0" r="1" gradientUnits="userSpaceOnUse" gradientTransform="matrix(91.5446,0,0,-91.5446,68.0851,65.274)"><stop offset="0" style="stop-color:#386eac;stop-opacity:1"/><stop offset="0.21" style="stop-color:#366caa;stop-opacity:1"/><stop offset="0.35" style="stop-color:#3166a3;stop-opacity:1"/><stop offset="0.46" style="stop-color:#295b98;stop-opacity:1"/><stop offset="0.57" style="stop-color:#1d4d88;stop-opacity:1"/><stop offset="0.66" style="stop-color:#0f3c75;stop-opacity:1"/><stop offset="0.75" style="stop-color:#002a60;stop-opacity:1"/><stop offset="0.79" style="stop-color:#002256;stop-opacity:1"/><stop offset="1" style="stop-color:#002256;stop-opacity:1"/></radialGradient><radialGradient id="_Radial2" cx="0" cy="0" r="1" gradientUnits="userSpaceOnUse" gradientTransform="matrix(67.1272,0,0,-67.1272,73.9688,72.0771)"><stop offset="0" style="stop-color:#6895c7;stop-opacity:1"/><stop offset="0.14" style="stop-color:#6490c3;stop-opacity:1"/><stop offset="0.28" style="stop-color:#5882b6;stop-opacity:1"/><stop offset="0.44" style="stop-color:#446ca2;stop-opacity:1"/><stop offset="0.6" style="stop-color:#2c5087;stop-opacity:1"/><stop offset="0.76" style="stop-color:#0f3469;stop-opacity:1"/><stop offset="0.86" style="stop-color:#002256;stop-opacity:1"/><stop offset="1" style="stop-color:#002256;stop-opacity:1"/></radialGradient><linearGradient id="_Linear3" x1="0" y1="0" x2="1" y2="0" gradientUnits="userSpaceOnUse" gradientTransform="matrix(-0.0939757,113.907,-113.907,-0.0939757,96.4535,39.2142)"><stop offset="0" style="stop-color:#f8f8f7;stop-opacity:1"/><stop offset="0.19" style="stop-color:#f5f5f4;stop-opacity:1"/><stop offset="0.32" style="stop-color:#ececeb;stop-opacity:1"/><stop offset="0.42" style="stop-color:#dddbdb;stop-opacity:1"/><stop offset="0.51" style="stop-color:#c8c6c5;stop-opacity:1"/><stop offset="0.6" style="stop-color:#aeabab;stop-opacity:1"/><stop offset="0.63" style="stop-color:#a09d9e;stop-opacity:1"/><stop offset="0.7" style="stop-color:#b4b1b1;stop-opacity:1"/><stop offset="0.81" style="stop-color:#cac7c8;stop-opacity:1"/><stop offset="0.91" style="stop-color:#d8d5d6;stop-opacity:1"/><stop offset="1" style="stop-color:#dddadb;stop-opacity:1"/></linearGradient><linearGradient id="_Linear5" x1="0" y1="0" x2="1" y2="0" gradientUnits="userSpaceOnUse" gradientTransform="matrix(2.32079,0.947929,-0.947929,2.32079,83.2602,109.516)"><stop offset="0" style="stop-color:#fff;stop-opacity:1"/><stop offset="0.76" style="stop-color:#fff;stop-opacity:1"/><stop offset="0.84" style="stop-color:#fdfdfd;stop-opacity:1"/><stop offset="0.88" style="stop-color:#f8f8f8;stop-opacity:1"/><stop offset="0.91" style="stop-color:#efeff0;stop-opacity:1"/><stop offset="0.93" style="stop-color:#e1e2e3;stop-opacity:1"/><stop offset="0.95" style="stop-color:#cfd0d1;stop-opacity:1"/><stop offset="0.97" style="stop-color:#b8b9bb;stop-opacity:1"/><stop offset="0.99" style="stop-color:#9c9d9f;stop-opacity:1"/><stop offset="1" style="stop-color:#848687;stop-opacity:1"/></linearGradient><linearGradient id="_Linear7" x1="0" y1="0" x2="1" y2="0" gradientUnits="userSpaceOnUse" gradientTransform="matrix(99.6959,0,0,99.6959,46.1479,112.262)"><stop offset="0" style="stop-color:#7c7571;stop-opacity:1"/><stop offset="0.02" style="stop-color:#8f8885;stop-opacity:1"/><stop offset="0.06" style="stop-color:#afaaa7;stop-opacity:1"/><stop offset="0.11" style="stop-color:#cbc7c5;stop-opacity:1"/><stop offset="0.16" style="stop-color:#e2e0de;stop-opacity:1"/><stop offset="0.22" style="stop-color:#f3f1f1;stop-opacity:1"/><stop offset="0.31" style="stop-color:#fcfcfc;stop-opacity:1"/><stop offset="0.51" style="stop-color:#fff;stop-opacity:1"/><stop offset="0.73" style="stop-color:#fcfcfc;stop-opacity:1"/><stop offset="0.81" style="stop-color:#f3f2f1;stop-opacity:1"/><stop offset="0.86" style="stop-color:#e4e1e0;stop-opacity:1"/><stop offset="0.91" style="stop-color:#cecac8;stop-opacity:1"/><stop offset="0.95" style="stop-color:#b3adaa;stop-opacity:1"/><stop offset="0.98" style="stop-color:#948d8a;stop-opacity:1"/><stop offset="1" style="stop-color:#7c7571;stop-opacity:1"/></linearGradient><linearGradient id="_Linear9" x1="0" y1="0" x2="1" y2="0" gradientUnits="userSpaceOnUse" gradientTransform="matrix(99.6959,0,0,99.6959,46.3849,112.262)"><stop offset="0" style="stop-color:#191515;stop-opacity:1"/><stop offset="0.07" style="stop-color:#342d2d;stop-opacity:1"/><stop offset="0.17" style="stop-color:#5b5352;stop-opacity:1"/><stop offset="0.26" style="stop-color:#7f7676;stop-opacity:1"/><stop offset="0.35" style="stop-color:#9b9393;stop-opacity:1"/><stop offset="0.43" style="stop-color:#aea6a6;stop-opacity:1"/><stop offset="0.49" style="stop-color:#b4adac;stop-opacity:1"/><stop offset="0.56" style="stop-color:#aaa2a2;stop-opacity:1"/><stop offset="0.67" style="stop-color:#8f8686;stop-opacity:1"/><stop offset="0.8" style="stop-color:#675e5f;stop-opacity:1"/><stop offset="0.96" style="stop-color:#393233;stop-opacity:1"/><stop offset="1" style="stop-color:#2c2628;stop-opacity:1"/></linearGradient><linearGradient id="_Linear13" x1="0" y1="0" x2="1" y2="0" gradientUnits="userSpaceOnUse" gradientTransform="matrix(4.33105,-1.93672,1.93672,4.33105,105.896,110.178)"><stop offset="0" style="stop-color:#8a817f;stop-opacity:1"/><stop offset="0.35" style="stop-color:#b5afae;stop-opacity:1"/><stop offset="0.78" style="stop-color:#eae7e7;stop-opacity:1"/><stop offset="1" style="stop-color:#fff;stop-opacity:1"/></linearGradient><linearGradient id="_Linear15" x1="0" y1="0" x2="1" y2="0" gradientUnits="userSpaceOnUse" gradientTransform="matrix(39.0735,0,0,39.0735,97.8999,96.7355)"><stop offset="0" style="stop-color:#332726;stop-opacity:1"/><stop offset="0.08" style="stop-color:#3c302e;stop-opacity:1"/><stop offset="0.34" style="stop-color:#564a47;stop-opacity:1"/><stop offset="0.59" style="stop-color:#6a605d;stop-opacity:1"/><stop offset="0.81" style="stop-color:#786f6c;stop-opacity:1"/><stop offset="1" style="stop-color:#7c7571;stop-opacity:1"/></linearGradient><linearGradient id="_Linear16" x1="0" y1="0" x2="1" y2="0" gradientUnits="userSpaceOnUse" gradientTransform="matrix(107.439,90.0124,-90.0124,107.439,44.3951,52.4647)"><stop offset="0" style="stop-color:#eeefee;stop-opacity:1"/><stop offset="0.09" style="stop-color:#d7d7d6;stop-opacity:1"/><stop offset="0.22" style="stop-color:#bfbfbf;stop-opacity:1"/><stop offset="0.38" style="stop-color:#afaeae;stop-opacity:1"/><stop offset="0.59" style="stop-color:#a6a5a5;stop-opacity:1"/><stop offset="1" style="stop-color:#a3a2a3;stop-opacity:1"/></linearGradient></defs></svg>