<?xml version="1.0" encoding="UTF-8" standalone="no"?><!DOCTYPE svg PUBLIC "-//W3C//DTD SVG 1.1//EN" "http://www.w3.org/Graphics/SVG/1.1/DTD/svg11.dtd"><svg width="100%" height="100%" viewBox="0 0 192 192" version="1.1" xmlns="http://www.w3.org/2000/svg" xmlns:xlink="http://www.w3.org/1999/xlink" xml:space="preserve" xmlns:serif="http://www.serif.com/" style="fill-rule:evenodd;clip-rule:evenodd;stroke-linecap:round;"><g id="TESLA"><path d="M96,49.086c13.058,0 24.665,5.32 33.129,13.783c8.705,8.464 13.783,20.313 13.783,33.371c0,12.813 -5.078,24.665 -13.783,33.126c-8.467,8.466 -20.074,13.783 -33.129,13.783c-13.058,0 -24.665,-5.32 -33.371,-13.783c-8.467,-8.464 -13.783,-20.313 -13.783,-33.126c0,-13.061 5.32,-24.907 13.783,-33.374c8.706,-8.46 20.313,-13.78 33.371,-13.78Zm0,0.725c-12.241,0.014 -23.989,4.888 -32.645,13.542c-8.467,8.464 -13.784,20.071 -13.784,32.887c0,12.813 5.32,24.42 13.784,32.645c8.222,8.464 19.825,13.542 32.645,13.542c12.816,0 24.423,-5.082 32.645,-13.542c8.467,-8.221 13.542,-19.829 13.542,-32.645c0,-12.816 -5.078,-24.423 -13.542,-32.887c-8.656,-8.655 -20.404,-13.528 -32.645,-13.542Z" style="fill:#bcbcb6;fill-rule:nonzero;"/><path d="M96,24.179c16.444,0 31.678,5.558 43.769,14.751l7.98,-7.98l14.025,14.025l-7.98,8.222c8.947,12.091 14.025,26.841 14.025,42.801c0,39.658 -32.161,72.062 -71.819,72.062c-39.658,0 -71.819,-32.404 -71.819,-72.062c0,-39.661 32.161,-71.819 71.819,-71.819Zm0,16.927c-30.227,0 -54.892,24.665 -54.892,54.892c0,30.469 24.665,54.893 54.892,54.893c30.227,0 54.892,-24.424 54.892,-54.893c0,-30.227 -24.665,-54.892 -54.892,-54.892Z" style="fill:url(#_Radial1);fill-rule:nonzero;"/><path d="M96,40.864c15.234,0 29.018,6.046 39.174,16.202c10.4,10.374 16.236,24.485 16.202,39.174c0,15.231 -6.287,29.018 -16.202,39.174c-10.156,9.911 -23.94,16.199 -39.174,16.199c-14.679,-0.015 -28.772,-5.842 -39.174,-16.199c-9.915,-10.156 -16.202,-23.943 -16.202,-39.174c0,-15.476 6.287,-29.263 16.202,-39.174c9.914,-10.156 23.94,-16.202 39.174,-16.202Zm0,0.726c-14.993,0 -28.776,6.045 -38.691,15.959c-9.914,9.915 -15.96,23.457 -15.96,38.691c0,14.993 6.046,28.773 15.96,38.691c9.911,9.672 23.698,15.96 38.691,15.96c14.993,0 28.776,-6.288 38.694,-15.96c10.237,-10.266 15.982,-24.193 15.96,-38.691c0,-15.234 -6.049,-28.776 -15.96,-38.694c-10.268,-10.235 -24.196,-15.979 -38.694,-15.956Z" style="fill:url(#_Linear2);fill-rule:nonzero;"/><path d="M96,23.695c16.444,0 31.92,5.562 44.011,14.993l-0.242,0.242c-12.582,-9.57 -27.962,-14.753 -43.769,-14.751c-39.658,0 -71.819,32.158 -71.819,71.819c0,39.658 32.161,72.062 71.819,72.062c39.658,0 71.819,-32.404 71.819,-72.062c0,-15.96 -5.078,-30.714 -14.025,-42.801l0.242,-0.242c8.947,12.094 14.267,26.842 14.267,43.043c0,20.071 -8.222,38.207 -21.28,51.265c-13.061,13.062 -30.952,21.042 -51.023,21.042c-19.12,0.041 -37.49,-7.535 -51.023,-21.042c-13.058,-13.3 -21.28,-31.194 -21.28,-51.265c0,-19.829 8.222,-37.965 21.28,-51.023c13.058,-13.058 30.952,-21.28 51.023,-21.28Z" style="fill:url(#_Radial3);fill-rule:nonzero;"/><path d="M96,41.348c30.227,0 54.892,24.423 54.892,54.895c0,30.227 -24.665,54.893 -54.892,54.893c-30.227,0 -54.892,-24.669 -54.892,-54.896c0,-30.469 24.665,-54.892 54.892,-54.892Zm0,7.738c-25.874,0 -46.912,21.038 -46.912,47.154c0,25.871 21.038,46.912 46.912,46.912c25.874,0 46.912,-21.041 46.912,-46.912c0,-26.116 -21.038,-47.154 -46.912,-47.154Z" style="fill:url(#_Radial4);fill-rule:nonzero;"/><path d="M30.38,113.426c0,0.07 0.017,0.131 0.054,0.191c0.03,0.057 0.081,0.081 0.155,0.081c0.053,0 0.1,-0.014 0.158,-0.04c0.061,-0.033 0.117,-0.074 0.167,-0.121l0,-0.534c-0.201,0.033 -0.339,0.08 -0.416,0.151c-0.076,0.07 -0.119,0.169 -0.118,0.272Z" style="fill:url(#_Linear5);fill-rule:nonzero;"/><rect x="40.617" y="111.898" width="0.339" height="0.285" style="fill:url(#_Linear6);fill-rule:nonzero;"/><rect x="40.617" y="112.24" width="0.339" height="0.292" style="fill:url(#_Linear7);fill-rule:nonzero;"/><path d="M33.783,113.426c0,0.07 0.02,0.131 0.053,0.191c0.031,0.057 0.081,0.081 0.155,0.081c0.054,0 0.104,-0.014 0.158,-0.04c0.053,-0.027 0.107,-0.068 0.168,-0.121l0,-0.534c-0.202,0.033 -0.34,0.08 -0.417,0.151c-0.076,0.07 -0.119,0.169 -0.117,0.272Z" style="fill:url(#_Linear8);fill-rule:nonzero;"/><rect x="42.088" y="112.398" width="0.927" height="0.44" style="fill:url(#_Linear9);fill-rule:nonzero;"/><rect x="42.088" y="111.945" width="0.927" height="0.396" style="fill:url(#_Linear10);fill-rule:nonzero;"/><path d="M167.578,77.862c1.692,5.807 2.418,11.849 2.418,18.136c0,6.529 -0.967,12.813 -2.418,18.862l-142.914,0l0,-0.242l142.672,0c1.693,-6.045 2.418,-12.333 2.418,-18.862c0,-6.287 -0.725,-12.332 -2.176,-17.894Z" style="fill-rule:nonzero;"/><path d="M24.422,77.62l143.156,0c1.451,5.804 2.173,11.846 2.173,18.133c0,6.529 -0.726,12.816 -2.419,18.862l-142.668,0c-1.746,-6.135 -2.641,-12.48 -2.66,-18.859c0,-6.287 0.967,-12.332 2.418,-18.136Z" style="fill:url(#_Radial11);fill-rule:nonzero;"/><path d="M150.651,26.11l15.959,15.963l-11.849,11.849l0.726,0.967l-8.464,6.768l-2.66,0.971l17.411,-17.653l-14.025,-14.025l-17.411,17.41l0.725,-2.418l19.588,-19.832Z" style="fill:url(#_Linear12);fill-rule:nonzero;"/><path d="M134.691,24.421c14.025,7.496 25.39,19.103 33.125,32.887l0,-32.887l-33.125,0Z" style="fill:url(#_Radial13);fill-rule:nonzero;"/><path d="M134.691,24.421c14.025,7.496 25.39,19.103 33.125,32.887" style="fill:none;stroke:#a7a79c;stroke-width:1.14px;"/><path d="M134.691,24.421c13.879,7.592 25.294,19.008 32.887,32.887" style="fill:none;stroke:#c2c2b9;stroke-width:0.79px;"/><path d="M134.449,24.421c14.025,7.496 25.391,19.103 33.129,33.128" style="fill:none;stroke:#e0e0d8;stroke-width:0.44px;"/><path d="M134.449,24.421c13.783,7.741 25.391,19.103 32.887,33.128" style="fill:none;stroke:#fff;stroke-width:0.09px;"/><path d="M167.819,23.695c0.242,0 0.487,0.242 0.487,0.726l-34.102,0c0.003,-0.484 0.245,-0.726 0.487,-0.726l33.128,0Z" style="fill:url(#_Linear14);fill-rule:nonzero;"/><path d="M168.303,57.308c0,0.487 -0.242,0.728 -0.487,0.728l-0.238,-0.487l0,-33.854l0.238,0c0.242,0 0.487,0.242 0.487,0.726l0,32.887Z" style="fill:url(#_Linear15);fill-rule:nonzero;"/><path d="M147.749,105.046c-6.455,0 -11.705,-3.953 -11.705,-8.806c0,-4.856 5.25,-8.806 11.705,-8.806c6.589,0 11.949,3.95 11.949,8.806c0,4.857 -5.36,8.806 -11.949,8.806Zm0,-14.992c-2.321,0 -4.01,2.602 -4.01,6.189c0,3.389 1.726,5.945 4.01,5.945c2.169,0 4.01,-2.724 4.01,-5.945c0.003,-3.415 -1.8,-6.189 -4.01,-6.189Zm-73.512,14.992c-6.459,0 -11.708,-3.953 -11.708,-8.806c0,-4.645 5.36,-8.568 11.708,-8.568c6.589,0 11.949,3.846 11.949,8.568c0,4.857 -5.36,8.806 -11.949,8.806Zm0,-14.751c-2.291,0 -4.011,2.556 -4.011,5.948c0,3.389 1.727,5.945 4.011,5.945c2.169,0 4.006,-2.724 4.006,-5.945c0,-3.22 -1.83,-5.948 -4.006,-5.948Zm43.043,14.268l-7.584,-14.076l-3.778,0.057l-0.101,-2.277l16.544,-0.101l0.101,2.277l-4.212,0.101l5.891,9.763l4.901,-9.911l-2.812,0.145l-0.1,-2.278l11.466,-0.1l0.101,2.277l-3.97,0.101l-7.436,14.025l-9.011,0l0,-0.003Zm-30.227,0l-0.101,-2.761l3.973,-0.098l-0.101,-11.264l-3.768,0.101l-0.101,-2.278l15.336,-0.1l0.1,2.277l-3.973,0.101l0.101,11.264l4.01,-0.097c1.303,0 4.736,-0.853 4.974,-4.742l2.519,-0.095l0.101,7.698l-23.07,0l0,-0.006Zm-43.285,0l-7.584,-14.076l-3.778,0.057l-0.101,-2.277l16.544,-0.101l0.101,2.277l-4.212,0.101l5.891,9.763l5.146,-9.911l-3.057,0.148l-0.101,-2.277l11.467,-0.101l0.1,2.277l-3.973,0.101l-7.436,14.025l-9.007,-0.006Z" style="fill:#fff;fill-rule:nonzero;"/><path d="M147.749,87.535c6.529,0 11.849,3.869 11.849,8.708c0,4.833 -5.32,8.706 -11.849,8.706c-6.288,0 -11.607,-3.869 -11.607,-8.706c0,-4.839 5.319,-8.708 11.607,-8.708m0,14.75c2.173,0 4.111,-2.66 4.111,-6.045c0,-3.627 -1.935,-6.287 -4.111,-6.287c-2.418,0 -4.115,2.66 -4.115,6.287c0.004,3.385 1.697,6.045 4.115,6.045m-73.512,-14.509c6.525,0 11.845,3.87 11.845,8.467c0,4.833 -5.32,8.706 -11.845,8.706c-6.288,0 -11.608,-3.869 -11.608,-8.706c0,-4.597 5.32,-8.467 11.608,-8.467m0,14.509c2.173,0 4.11,-2.66 4.11,-6.045c0,-3.389 -1.934,-6.049 -4.11,-6.049c-2.422,0 -4.115,2.66 -4.115,6.049c0.004,3.385 1.696,6.045 4.115,6.045m63.355,-14.025l0,2.173l-3.865,0l-7.497,14.025l-8.947,0l-7.493,-14.025l-3.869,0l0,-2.173l16.444,0l0,2.173l-4.111,0l5.807,9.915l5.078,-9.915l-2.902,0l0,-2.173l11.355,0m-35.305,0l0,2.173l-3.869,0l0,11.365l4.114,0c1.451,0 4.833,-0.967 5.079,-4.832l2.418,0l0,7.492l-22.976,0l0,-2.66l3.869,0l0,-11.365l-3.869,0l0,-2.173l15.234,0m-38.207,0l0,2.173l-3.869,0l-7.493,14.025l-8.95,0l-7.497,-14.025l-3.869,0l0,-2.173l16.444,0l0,2.173l-4.111,0l5.804,9.915l5.319,-9.915l-3.143,0l0,-2.173l11.365,0m83.669,-0.927c-6.509,0 -11.812,3.993 -11.812,8.907c0,4.91 5.296,8.904 11.812,8.904c6.646,0 12.05,-3.99 12.05,-8.904c0,-4.917 -5.407,-8.907 -12.05,-8.907Zm0,14.751c-2.23,0 -3.91,-2.512 -3.91,-5.841c0,-3.529 1.643,-6.085 3.91,-6.085c2.156,0 3.909,2.73 3.909,6.085c0,3.164 -1.79,5.841 -3.909,5.841Zm-73.512,-14.509c-6.402,0 -11.813,3.97 -11.813,8.665c0,4.91 5.297,8.904 11.813,8.904c6.646,0 12.05,-3.99 12.05,-8.904c0,-4.779 -5.404,-8.665 -12.05,-8.665Zm0,14.509c-2.231,0 -3.91,-2.512 -3.91,-5.841c0,-3.331 1.679,-5.843 3.91,-5.843c2.119,0 3.906,2.676 3.906,5.843c0.003,3.164 -1.787,5.841 -3.906,5.841Zm63.557,-14.025l-11.772,0l0,2.582l2.774,0l-4.755,9.293l-5.438,-9.296l3.963,0l0,-2.583l-16.85,0l0,2.583l3.947,0l7.439,13.918l0.057,0.107l9.189,0l0.057,-0.107l7.443,-13.918l3.949,0l0,-2.579l-0.003,0Zm-35.305,0l-15.638,0l0,2.582l3.869,0l0,10.963l-3.869,0l0,3.066l23.379,0l0,-7.903l-2.811,0l-0.013,0.192c-0.239,3.812 -3.601,4.648 -4.877,4.648l-3.909,0l0,-10.962l3.869,0l0,-2.586Zm-38.207,0l-11.769,0l0,2.582l3.01,0l-4.991,9.304l-5.444,-9.304l3.966,0l0,-2.582l-16.853,0l0,2.582l3.949,0l7.443,13.918l0.057,0.108l9.186,0l0.057,-0.108l7.439,-13.918l3.95,0l0,-2.582Z" style="fill:#39393c;fill-rule:nonzero;"/><path d="M24.684,77.899c-1.451,5.804 -2.418,11.846 -2.418,18.133c0,0.52 0.178,3.6 0.195,4.121l0.42,4.672c-0.007,-0.377 -0.195,-7.99 -0.195,-8.37c0,-6.287 1.048,-12.114 2.499,-17.921l50.657,-0.209l21.864,-0.419l-73.022,-0.007Z" style="fill:url(#_Linear16);fill-rule:nonzero;"/></g><defs><radialGradient id="_Radial1" cx="0" cy="0" r="1" gradientUnits="userSpaceOnUse" gradientTransform="matrix(150.01,0,0,-150.01,44.6476,81.8307)"><stop offset="0" style="stop-color:#fff;stop-opacity:1"/><stop offset="0.04" style="stop-color:#fafaf8;stop-opacity:1"/><stop offset="0.23" style="stop-color:#f8f8f5;stop-opacity:1"/><stop offset="0.29" style="stop-color:#dadad7;stop-opacity:1"/><stop offset="0.41" style="stop-color:#a3a4a1;stop-opacity:1"/><stop offset="0.52" style="stop-color:#7e7f7d;stop-opacity:1"/><stop offset="0.6" style="stop-color:#686866;stop-opacity:1"/><stop offset="0.65" style="stop-color:#5f5f5d;stop-opacity:1"/><stop offset="0.74" style="stop-color:#565754;stop-opacity:1"/><stop offset="0.9" style="stop-color:#3b3a37;stop-opacity:1"/><stop offset="1" style="stop-color:#000;stop-opacity:1"/></radialGradient><linearGradient id="_Linear2" x1="0" y1="0" x2="1" y2="0" gradientUnits="userSpaceOnUse" gradientTransform="matrix(53.784,18.5191,-18.5191,53.784,67.6537,86.4453)"><stop offset="0" style="stop-color:#dcdbd3;stop-opacity:1"/><stop offset="1" style="stop-color:#fff;stop-opacity:1"/></linearGradient><radialGradient id="_Radial3" cx="0" cy="0" r="1" gradientUnits="userSpaceOnUse" gradientTransform="matrix(164.633,0,0,-164.633,138.687,142.281)"><stop offset="0" style="stop-color:#bbbcb7;stop-opacity:1"/><stop offset="1" style="stop-color:#808079;stop-opacity:1"/></radialGradient><radialGradient id="_Radial4" cx="0" cy="0" r="1" gradientUnits="userSpaceOnUse" gradientTransform="matrix(115.608,0,0,-115.608,121.898,122.13)"><stop offset="0" style="stop-color:#fff;stop-opacity:1"/><stop offset="0.16" style="stop-color:#f1f1f2;stop-opacity:1"/><stop offset="0.3" style="stop-color:#e4e4e5;stop-opacity:1"/><stop offset="0.34" style="stop-color:#cecfce;stop-opacity:1"/><stop offset="0.4" style="stop-color:#aeafac;stop-opacity:1"/><stop offset="0.46" style="stop-color:#969694;stop-opacity:1"/><stop offset="0.53" style="stop-color:#858683;stop-opacity:1"/><stop offset="0.59" style="stop-color:#7c7c79;stop-opacity:1"/><stop offset="0.64" style="stop-color:#787976;stop-opacity:1"/><stop offset="0.74" style="stop-color:#5e5e5b;stop-opacity:1"/><stop offset="0.85" style="stop-color:#43423f;stop-opacity:1"/><stop offset="0.94" style="stop-color:#1f1f1e;stop-opacity:1"/><stop offset="1" style="stop-color:#000;stop-opacity:1"/></radialGradient><linearGradient id="_Linear5" x1="0" y1="0" x2="1" y2="0" gradientUnits="userSpaceOnUse" gradientTransform="matrix(2.4884e-17,-0.406386,0.406386,2.4884e-17,30.6458,113.724)"><stop offset="0" style="stop-color:#fff;stop-opacity:0.67"/><stop offset="0.17" style="stop-color:#f8f8f5;stop-opacity:0.67"/><stop offset="0.43" style="stop-color:#b1b1ac;stop-opacity:0.67"/><stop offset="0.44" style="stop-color:#adaea8;stop-opacity:0.67"/><stop offset="0.53" style="stop-color:#898984;stop-opacity:0.67"/><stop offset="0.63" style="stop-color:#6c6c67;stop-opacity:0.67"/><stop offset="0.73" style="stop-color:#53534e;stop-opacity:0.67"/><stop offset="0.83" style="stop-color:#3e3e3a;stop-opacity:0.67"/><stop offset="0.92" style="stop-color:#252523;stop-opacity:0.67"/><stop offset="1" style="stop-color:#1b1a19;stop-opacity:0.67"/></linearGradient><linearGradient id="_Linear6" x1="0" y1="0" x2="1" y2="0" gradientUnits="userSpaceOnUse" gradientTransform="matrix(1.0077e-17,-0.164569,0.164569,1.0077e-17,40.7853,112.192)"><stop offset="0" style="stop-color:#fff;stop-opacity:0.67"/><stop offset="0.17" style="stop-color:#f8f8f5;stop-opacity:0.67"/><stop offset="0.43" style="stop-color:#b1b1ac;stop-opacity:0.67"/><stop offset="0.44" style="stop-color:#adaea8;stop-opacity:0.67"/><stop offset="0.53" style="stop-color:#898984;stop-opacity:0.67"/><stop offset="0.63" style="stop-color:#6c6c67;stop-opacity:0.67"/><stop offset="0.73" style="stop-color:#53534e;stop-opacity:0.67"/><stop offset="0.83" style="stop-color:#3e3e3a;stop-opacity:0.67"/><stop offset="0.92" style="stop-color:#252523;stop-opacity:0.67"/><stop offset="1" style="stop-color:#1b1a19;stop-opacity:0.67"/></linearGradient><linearGradient id="_Linear7" x1="0" y1="0" x2="1" y2="0" gradientUnits="userSpaceOnUse" gradientTransform="matrix(1.04883e-17,-0.171287,0.171287,1.04883e-17,40.7853,112.541)"><stop offset="0" style="stop-color:#fff;stop-opacity:0.67"/><stop offset="0.17" style="stop-color:#f8f8f5;stop-opacity:0.67"/><stop offset="0.43" style="stop-color:#b1b1ac;stop-opacity:0.67"/><stop offset="0.44" style="stop-color:#adaea8;stop-opacity:0.67"/><stop offset="0.53" style="stop-color:#898984;stop-opacity:0.67"/><stop offset="0.63" style="stop-color:#6c6c67;stop-opacity:0.67"/><stop offset="0.73" style="stop-color:#53534e;stop-opacity:0.67"/><stop offset="0.83" style="stop-color:#3e3e3a;stop-opacity:0.67"/><stop offset="0.92" style="stop-color:#252523;stop-opacity:0.67"/><stop offset="1" style="stop-color:#1b1a19;stop-opacity:0.67"/></linearGradient><linearGradient id="_Linear8" x1="0" y1="0" x2="1" y2="0" gradientUnits="userSpaceOnUse" gradientTransform="matrix(2.4884e-17,-0.406386,0.406386,2.4884e-17,34.048,113.724)"><stop offset="0" style="stop-color:#fff;stop-opacity:0.67"/><stop offset="0.17" style="stop-color:#f8f8f5;stop-opacity:0.67"/><stop offset="0.43" style="stop-color:#b1b1ac;stop-opacity:0.67"/><stop offset="0.44" style="stop-color:#adaea8;stop-opacity:0.67"/><stop offset="0.53" style="stop-color:#898984;stop-opacity:0.67"/><stop offset="0.63" style="stop-color:#6c6c67;stop-opacity:0.67"/><stop offset="0.73" style="stop-color:#53534e;stop-opacity:0.67"/><stop offset="0.83" style="stop-color:#3e3e3a;stop-opacity:0.67"/><stop offset="0.92" style="stop-color:#252523;stop-opacity:0.67"/><stop offset="1" style="stop-color:#1b1a19;stop-opacity:0.67"/></linearGradient><linearGradient id="_Linear9" x1="0" y1="0" x2="1" y2="0" gradientUnits="userSpaceOnUse" gradientTransform="matrix(1.58352e-17,-0.258609,0.258609,1.58352e-17,42.5519,112.857)"><stop offset="0" style="stop-color:#fff;stop-opacity:0.67"/><stop offset="0.17" style="stop-color:#f8f8f5;stop-opacity:0.67"/><stop offset="0.43" style="stop-color:#b1b1ac;stop-opacity:0.67"/><stop offset="0.44" style="stop-color:#adaea8;stop-opacity:0.67"/><stop offset="0.53" style="stop-color:#898984;stop-opacity:0.67"/><stop offset="0.63" style="stop-color:#6c6c67;stop-opacity:0.67"/><stop offset="0.73" style="stop-color:#53534e;stop-opacity:0.67"/><stop offset="0.83" style="stop-color:#3e3e3a;stop-opacity:0.67"/><stop offset="0.92" style="stop-color:#252523;stop-opacity:0.67"/><stop offset="1" style="stop-color:#1b1a19;stop-opacity:0.67"/></linearGradient><linearGradient id="_Linear10" x1="0" y1="0" x2="1" y2="0" gradientUnits="userSpaceOnUse" gradientTransform="matrix(1.419e-17,-0.231741,0.231741,1.419e-17,42.5519,112.353)"><stop offset="0" style="stop-color:#fff;stop-opacity:0.67"/><stop offset="0.17" style="stop-color:#f8f8f5;stop-opacity:0.67"/><stop offset="0.43" style="stop-color:#b1b1ac;stop-opacity:0.67"/><stop offset="0.44" style="stop-color:#adaea8;stop-opacity:0.67"/><stop offset="0.53" style="stop-color:#898984;stop-opacity:0.67"/><stop offset="0.63" style="stop-color:#6c6c67;stop-opacity:0.67"/><stop offset="0.73" style="stop-color:#53534e;stop-opacity:0.67"/><stop offset="0.83" style="stop-color:#3e3e3a;stop-opacity:0.67"/><stop offset="0.92" style="stop-color:#252523;stop-opacity:0.67"/><stop offset="1" style="stop-color:#1b1a19;stop-opacity:0.67"/></linearGradient><radialGradient id="_Radial11" cx="0" cy="0" r="1" gradientUnits="userSpaceOnUse" gradientTransform="matrix(93.331,0,0,-93.331,28.7012,81.834)"><stop offset="0" style="stop-color:#1e71b8;stop-opacity:1"/><stop offset="0.08" style="stop-color:#1c69ab;stop-opacity:1"/><stop offset="0.17" style="stop-color:#1b64a4;stop-opacity:1"/><stop offset="0.24" style="stop-color:#1a63a1;stop-opacity:1"/><stop offset="0.39" style="stop-color:#185d98;stop-opacity:1"/><stop offset="0.69" style="stop-color:#0f4d80;stop-opacity:1"/><stop offset="0.84" style="stop-color:#004472;stop-opacity:1"/><stop offset="0.93" style="stop-color:#014472;stop-opacity:1"/><stop offset="0.97" style="stop-color:#064271;stop-opacity:1"/><stop offset="0.99" style="stop-color:#0d3f6f;stop-opacity:1"/><stop offset="1" style="stop-color:#0f3d6e;stop-opacity:1"/></radialGradient><linearGradient id="_Linear12" x1="0" y1="0" x2="1" y2="0" gradientUnits="userSpaceOnUse" gradientTransform="matrix(-36.3631,-36.3665,36.3665,-36.3631,165.2,62.0454)"><stop offset="0" style="stop-color:#121209;stop-opacity:1"/><stop offset="0.01" style="stop-color:#121209;stop-opacity:1"/><stop offset="0.65" style="stop-color:#454441;stop-opacity:1"/><stop offset="0.65" style="stop-color:#484845;stop-opacity:1"/><stop offset="0.66" style="stop-color:#535350;stop-opacity:1"/><stop offset="0.66" style="stop-color:#646561;stop-opacity:1"/><stop offset="0.66" style="stop-color:#7b7b77;stop-opacity:1"/><stop offset="0.67" style="stop-color:#969792;stop-opacity:1"/><stop offset="0.67" style="stop-color:#bbbbb7;stop-opacity:1"/><stop offset="0.68" style="stop-color:#e8e7e2;stop-opacity:1"/><stop offset="0.68" style="stop-color:#fbfaf5;stop-opacity:1"/><stop offset="0.68" style="stop-color:#f8f7f2;stop-opacity:1"/><stop offset="0.68" style="stop-color:#f0f0ea;stop-opacity:1"/><stop offset="0.69" style="stop-color:#e4e3dd;stop-opacity:1"/><stop offset="0.69" style="stop-color:#d2d2cc;stop-opacity:1"/><stop offset="0.69" style="stop-color:#bbbcb5;stop-opacity:1"/><stop offset="0.69" style="stop-color:#a0a19a;stop-opacity:1"/><stop offset="0.69" style="stop-color:#83847d;stop-opacity:1"/><stop offset="0.69" style="stop-color:#6d6d67;stop-opacity:1"/><stop offset="0.71" style="stop-color:#5f5f5b;stop-opacity:1"/><stop offset="0.73" style="stop-color:#4d4d4b;stop-opacity:1"/><stop offset="0.76" style="stop-color:#3b3a3a;stop-opacity:1"/><stop offset="0.8" style="stop-color:#242324;stop-opacity:1"/><stop offset="0.85" style="stop-color:#101010;stop-opacity:1"/><stop offset="1" style="stop-color:#000;stop-opacity:1"/></linearGradient><radialGradient id="_Radial13" cx="0" cy="0" r="1" gradientUnits="userSpaceOnUse" gradientTransform="matrix(39.003,0,0,-39.003,162.204,28.0937)"><stop offset="0" style="stop-color:#575652;stop-opacity:1"/><stop offset="1" style="stop-color:#52524e;stop-opacity:1"/></radialGradient><linearGradient id="_Linear14" x1="0" y1="0" x2="1" y2="0" gradientUnits="userSpaceOnUse" gradientTransform="matrix(34.0961,0,0,34.0961,134.207,24.05)"><stop offset="0" style="stop-color:#5d5e60;stop-opacity:1"/><stop offset="0.02" style="stop-color:#5b5b5d;stop-opacity:1"/><stop offset="0.21" style="stop-color:#484846;stop-opacity:1"/><stop offset="0.41" style="stop-color:#343431;stop-opacity:1"/><stop offset="0.65" style="stop-color:#222120;stop-opacity:1"/><stop offset="1" style="stop-color:#1b1a19;stop-opacity:1"/></linearGradient><linearGradient id="_Linear15" x1="0" y1="0" x2="1" y2="0" gradientUnits="userSpaceOnUse" gradientTransform="matrix(2.10259e-15,-34.3379,34.3379,2.10259e-15,167.94,58.0286)"><stop offset="0" style="stop-color:#5d5e60;stop-opacity:1"/><stop offset="0.39" style="stop-color:#464543;stop-opacity:1"/><stop offset="0.74" style="stop-color:#2a2927;stop-opacity:1"/><stop offset="1" style="stop-color:#1b1a19;stop-opacity:1"/></linearGradient><linearGradient id="_Linear16" x1="0" y1="0" x2="1" y2="0" gradientUnits="userSpaceOnUse" gradientTransform="matrix(21.834,29.5318,-29.5318,21.834,41.7727,66.3007)"><stop offset="0" style="stop-color:#fff;stop-opacity:1"/><stop offset="0.11" style="stop-color:#d5ddf0;stop-opacity:1"/><stop offset="0.34" style="stop-color:#94add9;stop-opacity:1"/><stop offset="0.54" style="stop-color:#668fc9;stop-opacity:1"/><stop offset="0.71" style="stop-color:#447dbf;stop-opacity:1"/><stop offset="0.85" style="stop-color:#2a74ba;stop-opacity:1"/><stop offset="0.93" style="stop-color:#1e71b8;stop-opacity:1"/><stop offset="0.95" style="stop-color:#4079bc;stop-opacity:1"/><stop offset="0.97" style="stop-color:#5580c0;stop-opacity:1"/><stop offset="0.99" style="stop-color:#6085c2;stop-opacity:1"/><stop offset="1" style="stop-color:#6486c3;stop-opacity:1"/></linearGradient></defs></svg>