<svg width="35" height="36" viewBox="0 0 35 36" fill="none" xmlns="http://www.w3.org/2000/svg">
<path opacity="0.3" d="M14.3645 31.4604L7.67075 25.9917C7.09837 25.5294 6.63639 24.9452 6.3185 24.2816C6.00061 23.6181 5.83483 22.892 5.83325 22.1562V11.4375C5.83379 10.4853 6.10933 9.55345 6.62674 8.75405C7.14415 7.95465 7.88141 7.32169 8.74992 6.93125L15.4583 3.86875C16.1036 3.5736 16.8049 3.42083 17.5145 3.42083C18.2241 3.42083 18.9254 3.5736 19.5708 3.86875L26.2499 6.93125C27.1184 7.32169 27.8557 7.95465 28.3731 8.75405C28.8905 9.55345 29.166 10.4853 29.1666 11.4375V22.1562C29.1668 22.8908 29.0032 23.6162 28.6879 24.2797C28.3726 24.9431 27.9134 25.528 27.3437 25.9917L20.6499 31.4604C19.766 32.1919 18.6546 32.5922 17.5072 32.5922C16.3598 32.5922 15.2484 32.1919 14.3645 31.4604Z" fill="#3E97FF"/>
<path d="M20.4167 21.9375C20.2763 21.939 20.1371 21.9127 20.0069 21.8601C19.8768 21.8075 19.7583 21.7298 19.6583 21.6312L13.825 15.9292C13.6202 15.7241 13.5051 15.4461 13.5051 15.1563C13.5051 14.8664 13.6202 14.5884 13.825 14.3833C14.0344 14.1811 14.3141 14.068 14.6052 14.068C14.8963 14.068 15.176 14.1811 15.3854 14.3833L21.2187 20.0854C21.4236 20.2905 21.5386 20.5685 21.5386 20.8583C21.5386 21.1482 21.4236 21.4262 21.2187 21.6312C21.1121 21.7331 20.9863 21.8126 20.8486 21.8652C20.7108 21.9178 20.564 21.9424 20.4167 21.9375Z" fill="#19467C"/>
<path d="M14.5832 21.9375C14.4373 21.9385 14.2926 21.9107 14.1575 21.8556C14.0223 21.8006 13.8994 21.7194 13.7957 21.6167C13.5909 21.4116 13.4758 21.1336 13.4758 20.8437C13.4758 20.5539 13.5909 20.2759 13.7957 20.0708L19.629 14.3687C19.7217 14.2338 19.8434 14.1213 19.9853 14.0396C20.1272 13.9579 20.2856 13.9092 20.4488 13.8969C20.6121 13.8846 20.776 13.9091 20.9285 13.9686C21.081 14.0281 21.2182 14.1211 21.33 14.2407C21.4418 14.3603 21.5253 14.5035 21.5744 14.6597C21.6234 14.8159 21.6368 14.9811 21.6135 15.1431C21.5902 15.3052 21.5309 15.4599 21.4398 15.596C21.3488 15.732 21.2283 15.8459 21.0874 15.9292L15.254 21.6312C15.0713 21.8059 14.8349 21.9138 14.5832 21.9375Z" fill="#19467C"/>
</svg>
