<svg width="100" height="100" viewBox="0 0 100 100" fill="none" xmlns="http://www.w3.org/2000/svg">
<path d="M40.1353 62.5413C29.1386 62.5413 20.4059 53.4852 20.4059 42.8119C20.4059 32.1386 29.462 23.0825 40.4587 23.0825C51.4554 23.0825 60.5116 31.8152 60.5116 42.8119C60.5116 53.8086 51.4554 62.5413 40.1353 62.5413ZM81.2112 43.1353V7.23432H61.8053V10.4686C55.6601 6.58746 48.2211 4 40.1353 4C18.4653 4.32343 1 21.4654 1 42.8119C1 64.1584 18.4653 81.3003 40.1353 81.3003C50.8086 81.3003 60.5116 77.0957 67.6271 70.3036C71.8317 80.0066 78.3003 88.4158 86.3861 95.5314L99 81.3003C87.6799 71.5974 81.2112 57.6898 81.2112 43.1353Z" fill="#121212"/>
</svg>
