<svg width="143" height="62" viewBox="0 0 143 62" fill="none" xmlns="http://www.w3.org/2000/svg">
<path d="M24.151 24.9538V46.5763H18.5589V44.0039C16.9932 45.9798 14.6818 47.1727 11.513 47.1727C5.77186 47.1727 1 42.2145 1 35.765C1 29.3156 5.77186 24.3573 11.513 24.3573C14.6818 24.3573 16.9932 25.5503 18.5589 27.4888V24.9538H24.151ZM18.5589 35.765C18.5589 32.1116 16.0239 29.6511 12.5568 29.6511C9.08979 29.6511 6.59202 32.1116 6.59202 35.765C6.59202 39.4185 9.12707 41.8417 12.5568 41.8417C15.9866 41.8417 18.5589 39.3812 18.5589 35.765Z" fill="black"/>
<path d="M29.1837 15H34.7757V46.5763H29.1837V15Z" fill="black"/>
<path d="M47.3392 30.3221V39.3066C47.3392 41.6553 49.0541 41.6926 52.2602 41.5062V46.5763C44.4313 47.4337 41.7845 45.1596 41.7845 39.3066V30.3221H38.0192V24.9538H41.7845V20.592L47.3392 18.8771V24.9538H52.2602V30.3221H47.3392Z" fill="black"/>
<path d="M66.3521 42.1026C68.5144 42.1026 70.2293 41.2079 71.1985 39.9404L75.6722 42.55C73.659 45.4951 70.4157 47.1727 66.2403 47.1727C59.0079 47.1727 54.4225 42.2145 54.4225 35.765C54.4225 29.3156 59.0452 24.3573 65.8302 24.3573C72.6152 24.3573 76.7533 29.3901 76.7533 35.765C76.7584 36.5288 76.6835 37.291 76.5296 38.0391H60.2382C61.0211 40.9097 63.407 42.1026 66.3521 42.1026ZM71.1985 33.7146C70.4902 30.6204 68.1416 29.3528 65.8302 29.3528C62.8478 29.3528 60.7974 30.9559 60.1636 33.7146H71.1985Z" fill="black"/>
<path d="M92.8209 24.5064V30.7322C89.9131 30.3967 86.2223 31.7015 86.2223 36.2496V46.5762H80.6676V24.9538H86.2223V28.6818C87.3407 25.7367 90.0995 24.5064 92.8209 24.5064Z" fill="black"/>
<path d="M116.233 33.3045V46.5763H110.678V33.9756C110.678 31.0304 108.889 29.5392 106.391 29.5392C103.893 29.5392 101.619 31.1423 101.619 34.9076V46.5763H96.0643V24.9538H101.619V27.377C102.924 25.4384 105.161 24.3573 108.069 24.3573C112.654 24.3573 116.233 27.5261 116.233 33.3045Z" fill="black"/>
<path d="M143 24.9538V46.5763H137.445V44.0039C135.88 45.9798 133.531 47.1727 130.399 47.1727C124.621 47.1727 119.886 42.2145 119.886 35.765C119.886 29.3156 124.621 24.3573 130.399 24.3573C133.531 24.3573 135.88 25.5503 137.445 27.4888V24.9538H143ZM137.445 35.765C137.445 32.1116 134.873 29.6511 131.443 29.6511C128.013 29.6511 125.441 32.1116 125.441 35.765C125.441 39.4185 128.013 41.8417 131.443 41.8417C134.873 41.8417 137.445 39.3812 137.445 35.765Z" fill="black"/>
</svg>
