<svg width="100" height="100" viewBox="0 0 100 100" fill="none" xmlns="http://www.w3.org/2000/svg">
<path d="M29 4C19.0615 4 11 11.9216 11 21.6906V50V78.3094C11 88.0784 19.0615 96 29 96C38.9385 96 47 88.0784 47 78.3094V50V21.6906C46.9925 11.9216 38.9385 4 29 4Z" fill="#6076BF"/>
<path d="M71 11C80.9385 11 89 18.8363 89 28.5C89 38.1637 80.9385 46 71 46C61.0615 46 53 38.1637 53 28.5C53 18.8363 61.0615 11 71 11Z" fill="#F8AB14"/>
<path d="M29 33C38.9385 33 47 40.6124 47 50C47 59.3876 38.9385 67 29 67C19.0615 67 11 59.3876 11 50C11 40.6124 19.0615 33 29 33Z" fill="#60D2D8"/>
<path d="M71 54C80.9385 54 89 61.8363 89 71.5C89 81.1637 80.9385 89 71 89C61.0615 89 53 81.1637 53 71.5C53 61.8363 61.0615 54 71 54Z" fill="#F27EE8"/>
</svg>
