<svg width="100" height="100" viewBox="0 0 100 100" fill="none" xmlns="http://www.w3.org/2000/svg">
<path d="M30.0812 75.4795C27.6131 75.5221 25.1881 74.8291 23.1151 73.4889C21.0422 72.1486 19.415 70.2216 18.4409 67.9534C17.4668 65.6853 17.1899 63.1785 17.6453 60.7524C18.1007 58.3262 19.268 56.0906 20.9983 54.3301C22.7287 52.5696 24.9439 51.3639 27.3618 50.8667C29.7797 50.3694 32.2909 50.6031 34.5756 51.5379C36.8602 52.4727 38.815 54.0663 40.1908 56.1159C41.5667 58.1654 42.3014 60.578 42.3014 63.0465C42.3295 66.3157 41.0578 69.4622 38.7661 71.7938C36.4744 74.1254 33.3504 75.4512 30.0812 75.4795V75.4795ZM52.3158 52.6066C51.6908 53.2477 50.9438 53.7572 50.1188 54.1051C49.2939 54.453 48.4076 54.6322 47.5123 54.6322C46.6169 54.6322 45.7307 54.453 44.9057 54.1051C44.0807 53.7572 43.3337 53.2477 42.7087 52.6066C41.4285 51.3074 40.7129 49.5553 40.7175 47.7313V46.9166H39.9174C39.0222 46.9161 38.1361 46.7363 37.3116 46.3878C36.487 46.0392 35.7407 45.529 35.1166 44.8872C34.4702 44.2265 33.9617 43.444 33.6205 42.585C33.2794 41.726 33.1124 40.8078 33.1293 39.8837C33.1462 38.9597 33.3467 38.0482 33.7191 37.2023C34.0915 36.3564 34.6283 35.593 35.2984 34.9564C33.5789 34.627 31.832 34.4614 30.0812 34.4618C24.4072 34.3636 18.8324 35.9564 14.0667 39.0373C9.30098 42.1183 5.56011 46.5479 3.32047 51.7621C1.08083 56.9763 0.443785 62.7391 1.49046 68.3166C2.53713 73.8941 5.22016 79.0338 9.19784 83.0813C13.1755 87.1288 18.2679 89.9008 23.8263 91.0443C29.3847 92.1878 35.1577 91.651 40.4101 89.5024C45.6625 87.3537 50.1565 83.6905 53.3198 78.9791C56.4831 74.2677 58.1726 68.7214 58.1731 63.0465C58.1836 57.9309 56.8323 52.9047 54.2579 48.4841C54.0977 50.039 53.4127 51.493 52.3158 52.6066" fill="#01B7E8"/>
<path d="M55.2254 36.9277H50.5373V32.1578C50.5373 31.3562 50.2189 30.5875 49.6521 30.0207C49.0853 29.4539 48.3166 29.1355 47.515 29.1355C46.7135 29.1355 45.9447 29.4539 45.3779 30.0207C44.8111 30.5875 44.4927 31.3562 44.4927 32.1578V36.9277H39.7956C38.9932 36.9472 38.2303 37.2797 37.6697 37.854C37.1091 38.4284 36.7953 39.1992 36.7953 40.0018C36.7953 40.8044 37.1091 41.5752 37.6697 42.1496C38.2303 42.724 38.9932 43.0565 39.7956 43.076H44.4836V47.8477C44.4836 48.6493 44.802 49.418 45.3688 49.9848C45.9356 50.5516 46.7044 50.87 47.5059 50.87C48.3075 50.87 49.0762 50.5516 49.643 49.9848C50.2098 49.418 50.5283 48.6493 50.5283 47.8477V43.076H55.2163C56.0187 43.0565 56.7816 42.724 57.3422 42.1496C57.9028 41.5752 58.2166 40.8044 58.2166 40.0018C58.2166 39.1992 57.9028 38.4284 57.3422 37.854C56.7816 37.2797 56.0187 36.9472 55.2163 36.9277" fill="#01B7E8"/>
<path d="M61.8319 18.6573C61.4586 18.6561 61.0957 18.5343 60.7972 18.31C61.0297 17.8694 61.1513 17.3788 61.1513 16.8806C61.1513 16.3825 61.0297 15.8919 60.7972 15.4513C61.0953 15.2263 61.4585 15.1044 61.8319 15.104C62.3034 15.104 62.7555 15.2913 63.0889 15.6246C63.4222 15.958 63.6095 16.4101 63.6095 16.8816C63.6095 17.353 63.4222 17.8051 63.0889 18.1385C62.7555 18.4718 62.3034 18.6591 61.8319 18.6591V18.6573ZM58.1732 22.3816C57.8473 22.3752 57.5294 22.2796 57.2542 22.105C56.979 21.9304 56.757 21.6837 56.6124 21.3916C56.4677 21.0995 56.4061 20.7734 56.434 20.4487C56.462 20.124 56.5786 19.8132 56.7711 19.5502C57.2015 19.7859 57.6843 19.9095 58.175 19.9095C58.6657 19.9095 59.1485 19.7859 59.5789 19.5502C59.8015 19.8567 59.9212 20.226 59.9207 20.6049C59.9246 21.0724 59.7427 21.5223 59.415 21.8558C59.0873 22.1893 58.6407 22.379 58.1732 22.3834V22.3816ZM58.1732 15.1094C58.5262 15.1029 58.8732 15.2017 59.17 15.3931C59.4667 15.5846 59.6998 15.86 59.8394 16.1843C59.979 16.5087 60.019 16.8673 59.9541 17.2144C59.8892 17.5615 59.7225 17.8814 59.4751 18.1335C59.2277 18.3855 58.9109 18.5581 58.5651 18.6294C58.2192 18.7008 57.86 18.6675 57.5331 18.5339C57.2062 18.4003 56.9265 18.1724 56.7296 17.8793C56.5327 17.5862 56.4275 17.241 56.4274 16.8879C56.4235 16.4207 56.6052 15.9711 56.9325 15.6376C57.2598 15.3042 57.706 15.1142 58.1732 15.1094V15.1094ZM58.1732 11.387C58.499 11.3929 58.817 11.4882 59.0924 11.6624C59.3679 11.8366 59.5902 12.0831 59.7352 12.3749C59.8802 12.6668 59.9423 12.9929 59.9147 13.3176C59.8872 13.6424 59.771 13.9533 59.5789 14.2166C59.1485 13.9808 58.6657 13.8573 58.175 13.8573C57.6843 13.8573 57.2015 13.9808 56.7711 14.2166C56.5785 13.9537 56.4617 13.643 56.4337 13.3184C56.4056 12.9937 56.4673 12.6676 56.612 12.3756C56.7566 12.0836 56.9788 11.8369 57.2541 11.6626C57.5294 11.4883 57.8473 11.3929 58.1732 11.387ZM55.5509 18.3154C55.2528 18.5404 54.8896 18.6624 54.5162 18.6628C54.0546 18.648 53.6168 18.4542 53.2955 18.1225C52.9742 17.7907 52.7946 17.347 52.7946 16.8852C52.7946 16.4234 52.9742 15.9796 53.2955 15.6479C53.6168 15.3161 54.0546 15.1224 54.5162 15.1076C54.8897 15.1076 55.253 15.2296 55.5509 15.455C55.3185 15.8956 55.1971 16.3862 55.1971 16.8843C55.1971 17.3824 55.3185 17.873 55.5509 18.3136V18.3154ZM61.8319 13.8565C61.5643 13.8568 61.298 13.8948 61.0409 13.9693C61.1123 13.7066 61.149 13.4358 61.15 13.1637C61.1509 12.7379 61.0604 12.3169 60.8846 11.9291C60.7089 11.5412 60.452 11.1956 60.1313 10.9156C59.8106 10.6355 59.4335 10.4275 59.0255 10.3056C58.6176 10.1836 58.1882 10.1507 57.7664 10.2088C57.3447 10.267 56.9402 10.415 56.5805 10.6428C56.2208 10.8706 55.9141 11.1729 55.6812 11.5293C55.4483 11.8857 55.2945 12.288 55.2303 12.7089C55.1661 13.1298 55.193 13.5596 55.309 13.9693C55.0513 13.8947 54.7844 13.8568 54.5162 13.8565C53.7132 13.8565 52.943 14.1755 52.3752 14.7433C51.8074 15.3111 51.4884 16.0813 51.4884 16.8843C51.4884 17.6873 51.8074 18.4574 52.3752 19.0252C52.943 19.5931 53.7132 19.9121 54.5162 19.9121C54.7843 19.9115 55.0511 19.8741 55.309 19.8011C55.1867 20.2131 55.1549 20.6466 55.2157 21.0719C55.2765 21.4973 55.4285 21.9046 55.6613 22.2657C55.8941 22.6269 56.2023 22.9335 56.5646 23.1645C56.9269 23.3956 57.3349 23.5456 57.7605 23.6043C58.1862 23.663 58.6196 23.629 59.0309 23.5047C59.4422 23.3804 59.8218 23.1686 60.1437 22.8839C60.4656 22.5993 60.7222 22.2484 60.8959 21.8554C61.0695 21.4623 61.1562 21.0364 61.15 20.6067C61.1491 20.3346 61.1124 20.0637 61.0409 19.8011C61.2983 19.874 61.5644 19.9113 61.8319 19.9121C62.635 19.9121 63.4051 19.5931 63.9729 19.0252C64.5407 18.4574 64.8597 17.6873 64.8597 16.8843C64.8597 16.0813 64.5407 15.3111 63.9729 14.7433C63.4051 14.1755 62.635 13.8565 61.8319 13.8565" fill="#01B7E8"/>
<path d="M71.7809 23.6764C70.0064 23.6918 68.3106 24.4113 67.0666 25.6769C65.8225 26.9424 65.1321 28.6502 65.1471 30.4248V30.4248C66.0258 30.4174 66.8945 30.237 67.7035 29.8938C68.5125 29.5507 69.246 29.0515 69.862 28.4248C70.478 27.7982 70.9646 27.0563 71.2938 26.2415C71.6231 25.4268 71.7886 24.5551 71.7809 23.6764" fill="#01B7E8"/>
<path d="M78.4147 30.4266C78.4224 29.5478 78.2569 28.6761 77.9277 27.8612C77.5984 27.0464 77.1119 26.3043 76.4959 25.6775C75.8799 25.0507 75.1464 24.5513 74.3374 24.208C73.5284 23.8646 72.6597 23.684 71.7809 23.6764C71.7732 24.5552 71.9387 25.4269 72.268 26.2418C72.5972 27.0566 73.0837 27.7987 73.6997 28.4255C74.3157 29.0523 75.0492 29.5516 75.8582 29.895C76.6672 30.2384 77.5359 30.419 78.4147 30.4266" fill="#01B7E8"/>
<path d="M71.7809 37.1659C71.7886 36.2871 71.6231 35.4155 71.2938 34.6008C70.9646 33.786 70.478 33.0441 69.862 32.4174C69.246 31.7908 68.5125 31.2916 67.7035 30.9484C66.8945 30.6053 66.0258 30.4249 65.1471 30.4175V30.4175C65.1394 31.2963 65.3049 32.168 65.6342 32.9829C65.9634 33.7977 66.4499 34.5397 67.0659 35.1666C67.682 35.7934 68.4154 36.2927 69.2244 36.6361C70.0334 36.9794 70.9021 37.1601 71.7809 37.1677" fill="#01B7E8"/>
<path d="M71.7809 37.1659C72.6596 37.1585 73.5283 36.9781 74.3373 36.6349C75.1463 36.2918 75.8798 35.7926 76.4958 35.1659C77.1118 34.5392 77.5984 33.7973 77.9276 32.9826C78.2569 32.1678 78.4224 31.2962 78.4147 30.4175C77.536 30.4249 76.6673 30.6053 75.8583 30.9484C75.0493 31.2916 74.3159 31.7908 73.6998 32.4174C73.0838 33.0441 72.5972 33.786 72.268 34.6008C71.9387 35.4155 71.7732 36.2871 71.7809 37.1659" fill="#01B7E8"/>
<path d="M98.5692 8.41582C98.8452 8.69673 99 9.07484 99 9.46872C99 9.8626 98.8452 10.2407 98.5692 10.5216L96.9616 12.1583L98.5655 13.7949C98.8413 14.0778 98.9957 14.4572 98.9957 14.8523C98.9957 15.2474 98.8413 15.6269 98.5655 15.9098C98.4302 16.0464 98.2692 16.1549 98.0918 16.2289C97.9143 16.3029 97.724 16.341 97.5317 16.341C97.3394 16.341 97.1491 16.3029 96.9716 16.2289C96.7942 16.1549 96.6332 16.0464 96.4979 15.9098V15.9098L94.8922 14.2732L93.2865 15.9098C93.1519 16.0477 92.9912 16.1574 92.8136 16.2323C92.6361 16.3071 92.4453 16.3457 92.2526 16.3457C92.06 16.3457 91.8692 16.3071 91.6917 16.2323C91.5141 16.1574 91.3533 16.0477 91.2188 15.9098C90.9457 15.6273 90.7931 15.2498 90.7931 14.8569C90.7931 14.464 90.9457 14.0865 91.2188 13.804L92.8246 12.1673L91.2188 10.5398C90.9453 10.2576 90.7924 9.87994 90.7924 9.4869C90.7924 9.09387 90.9453 8.71625 91.2188 8.434C91.3542 8.29655 91.5155 8.18739 91.6935 8.11288C91.8715 8.03837 92.0624 8 92.2554 8C92.4483 8 92.6393 8.03837 92.8172 8.11288C92.9952 8.18739 93.1566 8.29655 93.2919 8.434V8.434L94.894 10.0706L96.5033 8.434C96.6387 8.29655 96.8001 8.18739 96.978 8.11288C97.156 8.03837 97.347 8 97.5399 8C97.7328 8 97.9238 8.03837 98.1018 8.11288C98.2797 8.18739 98.4411 8.29655 98.5764 8.434" fill="#01B7E8"/>
</svg>
