<svg width="143" height="62" viewBox="0 0 143 62" fill="none" xmlns="http://www.w3.org/2000/svg">
<path d="M15.7751 32.7149C15.3531 31.8604 14.6505 31.1767 13.7848 30.7781C12.9191 30.3795 11.9428 30.2902 11.0191 30.5252C10.0953 30.7788 9.28412 31.337 8.71733 32.1094C8.15055 32.8818 7.86135 33.8231 7.89666 34.7805L15.7751 32.7149ZM22.8792 35.0403L8.72801 38.7504C8.72801 38.7504 9.99073 42.7137 14.7387 41.4685C16.297 41.0199 17.6446 40.0309 18.54 38.6788L23.1967 40.9123C21.5347 44.4742 17.9896 47.0157 13.3855 47.4967C6.94488 48.1704 1.72396 43.818 1.06851 37.3212C0.40358 30.7354 4.64061 25.3568 11.0819 24.6831C17.2393 24.0394 22.1997 28.4574 22.8639 35.0432L22.8792 35.0403Z" fill="white"/>
<path d="M49.2254 41.124C48.7164 41.3509 48.1679 41.4764 47.6109 41.4933C46.589 41.4933 46.3825 40.578 46.3825 39.4993V25.1934H39.5061V38.8716C39.0968 39.532 38.5231 40.075 37.841 40.4473C37.159 40.8196 36.392 41.0085 35.6151 40.9955C32.8349 40.9955 32.0152 39.6204 32.0152 36.7476V25.1934H25.1389V37.7475C25.1389 43.3254 27.4746 47.3661 33.0006 47.3661C35.988 47.3661 38.4441 46.3668 40.0397 44.5341C40.8207 46.5332 42.498 47.3661 44.8285 47.3661C46.4132 47.3773 47.9892 47.1308 49.4947 46.6362L49.2254 41.124Z" fill="white"/>
<path d="M52.2384 46.9647H59.1213V35.0922C59.3723 32.9485 60.3278 31.0333 62.7605 31.0333C63.5676 31.0375 64.3716 31.1325 65.1575 31.3165C65.8306 29.29 66.9794 27.4541 68.5077 25.9627C67.2595 25.1211 65.7968 24.6537 64.2918 24.6153H64.267C64.1444 24.6102 64.0276 24.6073 63.902 24.6073C62.9235 24.5474 61.9478 24.7636 61.086 25.2311C60.2243 25.6986 59.5111 26.3987 59.0278 27.2517C57.7812 24.3927 53.1799 24.4453 50.3574 25.4825V29.5888C52.1464 29.5888 52.2362 30.3917 52.2362 32.0325L52.2384 46.9647Z" fill="white"/>
<path d="M92.4387 46.9647V28.9604C98.9589 29.9457 98.9589 24.6073 105.828 24.6073C113.687 24.6073 113.687 32.4901 113.687 34.0375V39.665C113.687 40.7474 113.932 41.6649 114.997 41.6649C115.474 41.648 115.945 41.5493 116.389 41.373L116.655 46.8953C115.214 47.3273 113.716 47.543 112.212 47.5354C108.774 47.5354 106.81 45.8253 106.81 41.3686V35.347C106.81 32.4734 105.991 31.0997 103.209 31.0997C102.433 31.086 101.666 31.2744 100.984 31.6464C100.302 32.0184 99.7289 32.5611 99.3201 33.2215V46.9647H92.4387Z" fill="white"/>
<path d="M78.1605 41.0846C77.1698 41.1017 76.1965 40.8235 75.3645 40.2856C74.5325 39.7476 73.8794 38.9742 73.4884 38.0638C73.0974 37.1534 72.9862 36.1473 73.169 35.1735C73.3518 34.1997 73.8203 33.3023 74.5149 32.5957C75.2094 31.8891 76.0985 31.4052 77.069 31.2056C78.0395 31.006 79.0474 31.0998 79.9644 31.475C80.8814 31.8502 81.666 32.4899 82.2182 33.3125C82.7705 34.1351 83.0654 35.1035 83.0654 36.0943C83.0767 37.4065 82.5662 38.6694 81.6464 39.6052C80.7266 40.5411 79.4727 41.0732 78.1605 41.0846V41.0846ZM87.0849 31.904C86.834 32.1613 86.5342 32.3658 86.2031 32.5054C85.872 32.6451 85.5162 32.717 85.1569 32.717C84.7975 32.717 84.4418 32.6451 84.1107 32.5054C83.7796 32.3658 83.4797 32.1613 83.2289 31.904C82.715 31.3825 82.4278 30.6792 82.4296 29.9471V29.6201H82.1085C81.7492 29.62 81.3935 29.5478 81.0626 29.4079C80.7316 29.268 80.4321 29.0632 80.1816 28.8056C79.9221 28.5404 79.718 28.2263 79.5811 27.8816C79.4442 27.5368 79.3771 27.1682 79.3839 26.7973C79.3907 26.4264 79.4712 26.0606 79.6207 25.7211C79.7701 25.3815 79.9856 25.0751 80.2546 24.8196C79.5644 24.6874 78.8632 24.6209 78.1605 24.6211C75.8831 24.5817 73.6455 25.221 71.7327 26.4576C69.8198 27.6942 68.3183 29.4722 67.4194 31.565C66.5205 33.6579 66.2648 35.9709 66.6849 38.2096C67.105 40.4482 68.1819 42.5112 69.7784 44.1357C71.375 45.7603 73.4189 46.8729 75.6499 47.3319C77.881 47.7908 80.1981 47.5754 82.3063 46.713C84.4144 45.8506 86.2182 44.3802 87.4879 42.4892C88.7576 40.5982 89.4357 38.372 89.4359 36.0943C89.4401 34.041 88.8977 32.0236 87.8644 30.2493C87.8001 30.8734 87.5252 31.457 87.0849 31.904" fill="white"/>
<path d="M128.559 41.0839C127.568 41.1008 126.595 40.8225 125.763 40.2845C124.931 39.7465 124.278 38.973 123.887 38.0626C123.496 37.1522 123.385 36.146 123.568 35.1723C123.751 34.1985 124.22 33.3013 124.914 32.5947C125.609 31.8882 126.498 31.4043 127.468 31.2048C128.439 31.0053 129.447 31.0991 130.364 31.4744C131.281 31.8496 132.065 32.4892 132.617 33.3118C133.17 34.1345 133.465 35.1028 133.465 36.0936C133.47 36.7434 133.348 37.3879 133.104 37.9903C132.861 38.5928 132.501 39.1414 132.045 39.6048C131.59 40.0681 131.047 40.4373 130.449 40.6911C129.851 40.9448 129.209 41.0783 128.559 41.0839V41.0839ZM139.836 36.0943C139.797 33.8725 139.103 31.7117 137.84 29.8831C136.578 28.0545 134.803 26.6397 132.739 25.8161C130.676 24.9926 128.414 24.7972 126.24 25.2543C124.065 25.7114 122.074 26.8008 120.517 28.3856C118.959 29.9704 117.904 31.98 117.485 34.1622C117.066 36.3443 117.3 38.6017 118.159 40.651C119.019 42.7003 120.464 44.4501 122.314 45.6807C124.164 46.9114 126.337 47.568 128.559 47.5682C130.651 47.57 132.701 46.9794 134.471 45.8647V45.8647C134.537 45.9428 134.604 46.0179 134.673 46.0909C135.302 46.7557 136.124 47.2046 137.024 47.3733V47.3733C137.112 47.3931 137.202 47.4098 137.293 47.4259L137.345 47.4347C137.424 47.4478 137.502 47.4595 137.582 47.469L137.671 47.4806C137.744 47.4894 137.817 47.496 137.89 47.5025L138.002 47.5128C138.075 47.5186 138.154 47.5222 138.231 47.5259C138.268 47.5259 138.304 47.5303 138.341 47.531C138.456 47.5354 138.572 47.5376 138.691 47.5376C140.159 47.5623 141.618 47.3128 142.993 46.8018L142.728 41.3043C142.228 41.5201 141.691 41.6418 141.147 41.6634C140.084 41.6634 139.833 40.7488 139.833 39.6664L139.836 36.0943Z" fill="white"/>
<path d="M88.2527 25.6109H86.3711V23.6964C86.3711 23.3746 86.2433 23.0661 86.0158 22.8386C85.7883 22.6111 85.4797 22.4833 85.158 22.4833C84.8363 22.4833 84.5277 22.6111 84.3002 22.8386C84.0727 23.0661 83.9449 23.3746 83.9449 23.6964V25.6109H82.0596C81.7375 25.6187 81.4313 25.7521 81.2063 25.9827C80.9813 26.2132 80.8553 26.5226 80.8553 26.8448C80.8553 27.1669 80.9813 27.4763 81.2063 27.7068C81.4313 27.9374 81.7375 28.0708 82.0596 28.0786H83.9412V29.9939C83.9412 30.3156 84.0691 30.6242 84.2966 30.8517C84.524 31.0792 84.8326 31.207 85.1543 31.207C85.4761 31.207 85.7846 31.0792 86.0121 30.8517C86.2396 30.6242 86.3674 30.3156 86.3674 29.9939V28.0786H88.2491C88.5711 28.0708 88.8774 27.9374 89.1024 27.7068C89.3274 27.4763 89.4533 27.1669 89.4533 26.8448C89.4533 26.5226 89.3274 26.2132 89.1024 25.9827C88.8774 25.7521 88.5711 25.6187 88.2491 25.6109" fill="white"/>
<path d="M90.9044 18.2776C90.7546 18.2771 90.6089 18.2282 90.4891 18.1382C90.5825 17.9613 90.6312 17.7644 90.6312 17.5645C90.6312 17.3645 90.5825 17.1676 90.4891 16.9908C90.6088 16.9005 90.7545 16.8515 90.9044 16.8514C91.0937 16.8514 91.2751 16.9265 91.4089 17.0603C91.5427 17.1941 91.6179 17.3756 91.6179 17.5648C91.6179 17.7541 91.5427 17.9355 91.4089 18.0693C91.2751 18.2031 91.0937 18.2783 90.9044 18.2783V18.2776ZM89.4359 19.7724C89.3051 19.7699 89.1775 19.7315 89.0671 19.6614C88.9566 19.5913 88.8675 19.4923 88.8094 19.3751C88.7514 19.2578 88.7266 19.1269 88.7379 18.9966C88.7491 18.8663 88.7959 18.7415 88.8731 18.636C89.0459 18.7306 89.2397 18.7802 89.4366 18.7802C89.6336 18.7802 89.8274 18.7306 90.0001 18.636C90.0895 18.759 90.1375 18.9072 90.1373 19.0593C90.1389 19.2469 90.0659 19.4275 89.9344 19.5614C89.8028 19.6952 89.6235 19.7714 89.4359 19.7731V19.7724ZM89.4359 16.8536C89.5776 16.8509 89.7169 16.8906 89.836 16.9674C89.9551 17.0443 90.0486 17.1548 90.1047 17.285C90.1607 17.4152 90.1768 17.5591 90.1507 17.6984C90.1247 17.8377 90.0577 17.9662 89.9585 18.0673C89.8592 18.1685 89.732 18.2378 89.5932 18.2664C89.4544 18.295 89.3102 18.2817 89.179 18.2281C89.0478 18.1744 88.9355 18.083 88.8565 17.9653C88.7774 17.8477 88.7352 17.7091 88.7352 17.5674C88.7336 17.3799 88.8066 17.1994 88.9379 17.0656C89.0693 16.9317 89.2484 16.8555 89.4359 16.8536V16.8536ZM89.4359 15.3595C89.5667 15.3618 89.6943 15.4001 89.8049 15.47C89.9154 15.5399 90.0047 15.6388 90.0629 15.756C90.1211 15.8731 90.146 16.004 90.1349 16.1344C90.1239 16.2647 90.0772 16.3895 90.0001 16.4952C89.8274 16.4006 89.6336 16.351 89.4366 16.351C89.2397 16.351 89.0459 16.4006 88.8731 16.4952C88.7958 16.3897 88.749 16.265 88.7377 16.1347C88.7264 16.0043 88.7512 15.8734 88.8093 15.7562C88.8673 15.639 88.9565 15.5401 89.067 15.4701C89.1775 15.4001 89.3051 15.3618 89.4359 15.3595ZM88.3834 18.1404C88.2638 18.2307 88.118 18.2796 87.9681 18.2798C87.7828 18.2738 87.6071 18.1961 87.4781 18.0629C87.3492 17.9298 87.2771 17.7517 87.2771 17.5663C87.2771 17.3809 87.3492 17.2028 87.4781 17.0697C87.6071 16.9365 87.7828 16.8588 87.9681 16.8528C88.118 16.8528 88.2638 16.9018 88.3834 16.9922C88.2901 17.1691 88.2414 17.366 88.2414 17.5659C88.2414 17.7659 88.2901 17.9628 88.3834 18.1396V18.1404ZM90.9044 16.3507C90.797 16.3508 90.6901 16.366 90.5869 16.3959C90.6156 16.2905 90.6303 16.1818 90.6307 16.0726C90.6311 15.9017 90.5947 15.7327 90.5242 15.577C90.4537 15.4214 90.3506 15.2826 90.2218 15.1702C90.0931 15.0578 89.9418 14.9743 89.778 14.9254C89.6143 14.8765 89.442 14.8632 89.2727 14.8866C89.1034 14.9099 88.941 14.9693 88.7967 15.0607C88.6523 15.1522 88.5292 15.2735 88.4357 15.4166C88.3422 15.5596 88.2805 15.7211 88.2547 15.89C88.229 16.059 88.2397 16.2315 88.2863 16.3959C88.1829 16.366 88.0758 16.3508 87.9681 16.3507C87.6458 16.3507 87.3367 16.4787 87.1088 16.7066C86.8808 16.9345 86.7528 17.2436 86.7528 17.5659C86.7528 17.8882 86.8808 18.1974 87.1088 18.4253C87.3367 18.6532 87.6458 18.7812 87.9681 18.7812C88.0757 18.781 88.1828 18.766 88.2863 18.7367C88.2372 18.902 88.2244 19.076 88.2489 19.2468C88.2733 19.4175 88.3343 19.5809 88.4277 19.7259C88.5212 19.8709 88.6448 19.9939 88.7903 20.0867C88.9357 20.1794 89.0994 20.2396 89.2703 20.2632C89.4411 20.2867 89.6151 20.2731 89.7802 20.2232C89.9453 20.1733 90.0976 20.0883 90.2268 19.974C90.356 19.8598 90.459 19.719 90.5287 19.5612C90.5984 19.4034 90.6332 19.2325 90.6307 19.06C90.6304 18.9508 90.6156 18.8421 90.5869 18.7367C90.6902 18.7659 90.7971 18.7809 90.9044 18.7812C91.2268 18.7812 91.5359 18.6532 91.7638 18.4253C91.9917 18.1974 92.1197 17.8882 92.1197 17.5659C92.1197 17.2436 91.9917 16.9345 91.7638 16.7066C91.5359 16.4787 91.2268 16.3507 90.9044 16.3507" fill="white"/>
<path d="M94.8977 20.2921C94.1855 20.2983 93.5048 20.5871 93.0055 21.0951C92.5062 21.603 92.2291 22.2885 92.2351 23.0007V23.0007C92.5878 22.9978 92.9365 22.9254 93.2612 22.7876C93.5859 22.6499 93.8803 22.4495 94.1275 22.198C94.3748 21.9465 94.5701 21.6487 94.7022 21.3217C94.8344 20.9947 94.9008 20.6448 94.8977 20.2921" fill="white"/>
<path d="M97.5603 23.0015C97.5634 22.6487 97.497 22.2989 97.3648 21.9718C97.2327 21.6447 97.0374 21.3469 96.7902 21.0953C96.5429 20.8437 96.2485 20.6433 95.9238 20.5055C95.5991 20.3677 95.2504 20.2952 94.8977 20.2921C94.8946 20.6448 94.961 20.9947 95.0932 21.3218C95.2253 21.6489 95.4206 21.9467 95.6679 22.1983C95.9151 22.4499 96.2095 22.6503 96.5342 22.7881C96.8589 22.9259 97.2076 22.9984 97.5603 23.0015" fill="white"/>
<path d="M94.8977 25.7064C94.9008 25.3537 94.8344 25.0039 94.7022 24.6769C94.5701 24.3498 94.3748 24.0521 94.1275 23.8005C93.8803 23.549 93.5859 23.3486 93.2612 23.2109C92.9365 23.0732 92.5878 23.0008 92.2351 22.9978V22.9978C92.232 23.3505 92.2984 23.7004 92.4306 24.0275C92.5627 24.3545 92.758 24.6524 93.0053 24.904C93.2525 25.1556 93.5469 25.356 93.8716 25.4938C94.1963 25.6316 94.545 25.7041 94.8977 25.7072" fill="white"/>
<path d="M94.8977 25.7064C95.2504 25.7035 95.599 25.6311 95.9238 25.4933C96.2485 25.3556 96.5429 25.1552 96.7901 24.9037C97.0374 24.6522 97.2327 24.3544 97.3648 24.0274C97.497 23.7004 97.5634 23.3505 97.5603 22.9978C97.2076 23.0008 96.859 23.0732 96.5343 23.2109C96.2095 23.3486 95.9152 23.549 95.6679 23.8005C95.4206 24.0521 95.2253 24.3498 95.0932 24.6769C94.961 25.0039 94.8946 25.3537 94.8977 25.7064" fill="white"/>
<path d="M105.65 14.1669C105.761 14.2796 105.823 14.4314 105.823 14.5895C105.823 14.7476 105.761 14.8994 105.65 15.0121L105.005 15.669L105.648 16.3259C105.759 16.4395 105.821 16.5918 105.821 16.7504C105.821 16.9089 105.759 17.0612 105.648 17.1748C105.594 17.2296 105.529 17.2732 105.458 17.3029C105.387 17.3326 105.311 17.3479 105.233 17.3479C105.156 17.3479 105.08 17.3326 105.009 17.3029C104.937 17.2732 104.873 17.2296 104.818 17.1748V17.1748L104.174 16.5179L103.53 17.1748C103.476 17.2302 103.411 17.2742 103.34 17.3042C103.268 17.3343 103.192 17.3497 103.115 17.3497C103.037 17.3497 102.961 17.3343 102.889 17.3042C102.818 17.2742 102.754 17.2302 102.7 17.1748C102.59 17.0614 102.529 16.9099 102.529 16.7522C102.529 16.5945 102.59 16.4429 102.7 16.3296L103.344 15.6727L102.7 15.0194C102.59 14.9061 102.528 14.7546 102.528 14.5968C102.528 14.4391 102.59 14.2875 102.7 14.1742C102.754 14.119 102.819 14.0752 102.89 14.0453C102.962 14.0154 103.038 14 103.116 14C103.193 14 103.27 14.0154 103.341 14.0453C103.413 14.0752 103.477 14.119 103.532 14.1742V14.1742L104.175 14.8311L104.821 14.1742C104.875 14.119 104.94 14.0752 105.011 14.0453C105.083 14.0154 105.159 14 105.237 14C105.314 14 105.391 14.0154 105.462 14.0453C105.534 14.0752 105.598 14.119 105.653 14.1742" fill="white"/>
</svg>
