<svg width="143" height="62" viewBox="0 0 143 62" fill="none" xmlns="http://www.w3.org/2000/svg">
<path fill-rule="evenodd" clip-rule="evenodd" d="M106.386 32.4466C106.386 29.2343 106.387 26.022 106.383 22.8097C106.383 22.6707 106.421 22.5821 106.532 22.4944C107.666 21.5924 108.95 20.9607 110.278 20.4066C111.813 19.7664 113.401 19.3284 115.056 19.1541C117.129 18.9355 119.181 18.9949 121.176 19.6841C122.348 20.089 123.397 20.7032 124.305 21.5493C124.4 21.6378 124.457 21.6444 124.567 21.5652C126.534 20.1455 128.716 19.2779 131.143 19.0888C133.039 18.9411 134.907 19.1089 136.675 19.8535C139.285 20.953 141.026 22.8441 141.737 25.6206C141.923 26.348 141.997 27.0927 141.997 27.8431C141.998 32.6052 141.997 37.3674 142 42.1297C142 42.26 141.982 42.3228 141.83 42.3514C140.63 42.5769 139.42 42.5745 138.208 42.518C137.732 42.496 137.26 42.434 136.79 42.3544C136.624 42.3262 136.596 42.2603 136.596 42.1101C136.6 38.0036 136.596 33.8971 136.601 29.7908C136.603 28.7834 136.505 27.7963 136.121 26.8541C135.434 25.1695 134.174 24.2569 132.375 24.0551C130.277 23.8194 128.447 24.4473 126.817 25.7458C126.718 25.8251 126.676 25.8974 126.705 26.0286C126.861 26.716 126.916 27.4147 126.916 28.118C126.917 32.7809 126.916 37.4436 126.919 42.1065C126.92 42.2522 126.899 42.3231 126.73 42.3551C125.754 42.5399 124.77 42.5584 123.783 42.5443C123.066 42.5342 122.356 42.4711 121.649 42.3521C121.486 42.3246 121.468 42.2549 121.468 42.1181C121.47 38.8131 121.472 35.508 121.469 32.203C121.468 31.1369 121.501 30.0697 121.448 29.0044C121.387 27.7926 121.075 26.6568 120.336 25.6678C119.655 24.7578 118.721 24.2718 117.622 24.1057C115.621 23.8035 113.745 24.2309 111.96 25.1372C111.824 25.2064 111.781 25.2912 111.781 25.4444C111.786 30.9882 111.784 36.5319 111.79 42.0755C111.79 42.2673 111.739 42.333 111.551 42.3657C110.679 42.5173 109.802 42.5524 108.92 42.5485C108.131 42.545 107.347 42.4889 106.568 42.3521C106.413 42.3248 106.383 42.2666 106.383 42.1236C106.387 38.8977 106.386 35.6723 106.386 32.4466Z" fill="#013A8A"/>
<path fill-rule="evenodd" clip-rule="evenodd" d="M77.6941 31.2074C77.6611 28.7067 78.2987 26.2917 79.7511 24.118C81.3936 21.6596 83.7016 20.1322 86.5501 19.4367C89.9054 18.6174 93.1217 19.0396 96.1487 20.7131C98.0032 21.7383 99.2951 23.314 100.299 25.147C100.942 26.3222 101.278 27.5977 101.488 28.909C101.782 30.7423 101.751 32.5724 101.233 34.3603C99.8967 38.9796 96.8555 41.8079 92.1479 42.7737C89.4103 43.3355 86.7314 43.0477 84.181 41.8616C81.3407 40.5407 79.4709 38.3375 78.4164 35.4153C77.9377 34.0899 77.7249 32.7153 77.6941 31.2074ZM83.1402 31.0541C83.1333 31.5189 83.1705 31.9809 83.2273 32.4409C83.2685 32.7754 83.3316 33.1069 83.4181 33.4333C83.8799 35.1743 84.7991 36.5896 86.3835 37.5054C87.6768 38.2528 89.0926 38.406 90.5506 38.2543C92.8793 38.0121 94.5417 36.7917 95.4887 34.6789C96.4645 32.502 96.4619 30.2404 95.7319 27.994C95.209 26.3846 94.2025 25.133 92.666 24.3617C91.567 23.81 90.3878 23.6633 89.1727 23.7361C86.8281 23.8765 85.1088 24.9926 84.0147 27.0638C83.3566 28.3102 83.1482 29.662 83.1402 31.0541Z" fill="#003A8A"/>
<path fill-rule="evenodd" clip-rule="evenodd" d="M14.5742 32.489C11.9711 32.489 9.36814 32.4895 6.76521 32.4875C6.64847 32.4875 6.56783 32.4779 6.59117 32.6479C6.83443 34.4184 7.51286 35.9644 8.89438 37.1512C9.66091 37.8099 10.5879 38.1083 11.5496 38.328C12.7767 38.6086 13.9933 38.4696 15.2163 38.2734C16.6992 38.0351 17.9673 37.3304 19.199 36.5309C19.3432 36.4373 19.4888 36.3446 19.6245 36.2393C19.714 36.1701 19.7795 36.1737 19.8688 36.2389C20.2073 36.4875 20.5095 36.7733 20.7721 37.1C21.3626 37.8349 21.8261 38.6351 22.0415 39.5647C22.0842 39.749 22.0604 39.8659 21.892 39.9944C19.8555 41.5483 17.5755 42.5137 15.0373 42.8638C12.9954 43.1454 10.9654 43.1126 8.97751 42.5226C5.0323 41.3522 2.52044 38.7463 1.4908 34.7809C0.635185 31.4863 0.866516 28.2452 2.43566 25.1837C4.10664 21.9236 6.79485 19.94 10.3867 19.2773C13.2059 18.757 15.9015 19.2082 18.3538 20.7523C20.4909 22.0979 21.7736 24.0728 22.4133 26.4899C22.782 27.8839 22.7961 29.3038 22.714 30.7297C22.6838 31.2518 22.6386 31.7728 22.5868 32.2932C22.5707 32.455 22.5234 32.4931 22.3637 32.4928C19.7669 32.4875 17.1706 32.489 14.5742 32.489ZM12.0371 28.9105C13.7782 28.9105 15.519 28.9084 17.2601 28.9143C17.4174 28.9148 17.4564 28.8739 17.4516 28.7191C17.4309 28.0327 17.3273 27.3609 17.0814 26.7199C16.6273 25.5363 15.9343 24.5477 14.7515 23.9812C14.0411 23.6409 13.2831 23.5007 12.5033 23.4849C11.1615 23.4578 9.91492 23.7664 8.8553 24.6303C7.54846 25.6961 6.87864 27.112 6.63688 28.7559C6.61154 28.9283 6.70295 28.9117 6.81439 28.9117C8.55525 28.9102 10.2961 28.9105 12.0371 28.9105Z" fill="#003A8A"/>
<path fill-rule="evenodd" clip-rule="evenodd" d="M40.7739 36.5683C40.4389 36.8975 40.1018 37.2246 39.7694 37.5564C36.9009 40.4198 34.0368 43.2875 31.1643 46.1468C29.3039 47.9986 26.1994 47.4011 25.2288 44.9853C24.643 43.527 24.9157 42.1764 26.0114 41.0474C27.3855 39.6311 28.7987 38.2527 30.1949 36.8579C30.5182 36.535 30.8457 36.2161 31.1636 35.8881C32.5683 34.4367 32.5589 32.2136 31.1327 30.7799C29.4464 29.0849 27.7521 27.3984 26.0594 25.7098C25.2808 24.9334 24.9116 24.0001 24.9536 22.8999C25.0159 21.2642 26.3014 19.7951 27.9156 19.5306C29.1873 19.3225 30.2847 19.673 31.1977 20.5833C32.8439 22.2246 34.4869 23.869 36.132 25.5111C36.1872 25.5661 36.2299 25.6381 36.3124 25.6611C36.3405 25.7481 36.4157 25.7973 36.4756 25.8572C38.1372 27.5199 39.8153 29.1664 41.4561 30.8493C42.4354 31.8539 42.6885 33.0737 42.3112 34.4237C42.2109 34.7832 42.0191 35.1002 41.8482 35.4269C41.5262 35.8415 41.1269 36.1832 40.7739 36.5683Z" fill="#003A8A"/>
<path fill-rule="evenodd" clip-rule="evenodd" d="M55.5005 31.2654C55.4924 28.6004 56.1154 26.2402 57.5229 24.1147C59.1431 21.6679 61.4203 20.1405 64.2511 19.4386C67.4137 18.6543 70.4589 19.0521 73.3866 20.4425C73.9743 20.7217 74.5035 21.0986 75.0034 21.5154C75.0789 21.5783 75.1253 21.6285 75.0875 21.7457C74.5888 23.2899 73.6441 24.4939 72.3197 25.4151C72.2018 25.4972 72.1433 25.43 72.0656 25.3676C71.1178 24.6039 70.0646 24.042 68.8563 23.8493C66.4796 23.47 64.3501 23.9243 62.6899 25.8132C61.9603 26.6433 61.5572 27.6353 61.2971 28.6948C60.7907 30.7572 60.9048 32.7688 61.7521 34.7332C62.5347 36.5478 63.8805 37.6816 65.7967 38.1249C68.2549 38.6939 70.4814 38.2209 72.4258 36.5764C72.557 36.4655 72.6459 36.4663 72.781 36.5538C74.0561 37.3796 74.9357 38.5077 75.4083 39.9537C75.4502 40.0815 75.4235 40.1565 75.3271 40.2433C74.4258 41.055 73.3801 41.6275 72.2718 42.0966C70.3983 42.8893 68.4412 43.1279 66.4239 42.9913C64.6695 42.8725 62.9848 42.4859 61.4112 41.6889C58.5541 40.2421 56.789 37.9146 55.9574 34.85C55.6277 33.6352 55.5015 32.3934 55.5005 31.2654Z" fill="#013A8A"/>
<path fill-rule="evenodd" clip-rule="evenodd" d="M40.7738 36.5683C41.1269 36.1831 41.5261 35.8415 41.848 35.4269C41.9336 35.4285 41.9739 35.3598 42.0227 35.3091C42.2701 35.0525 42.5376 34.816 42.7624 34.5365C43.4692 33.6577 43.7331 32.6655 43.529 31.5565C43.3806 30.7507 42.9729 30.0864 42.3938 29.5146C40.9962 28.1351 39.6044 26.7497 38.2097 25.3672C37.9422 25.1021 37.6718 24.8398 37.4027 24.5763C38.1092 23.8693 38.8152 23.162 39.5221 22.4556C41.6298 20.3493 43.7399 18.2456 45.8443 16.1358C46.5871 15.391 47.4718 14.9971 48.5263 15C50.4339 15.0057 52.0261 16.5327 52.1112 18.437C52.1596 19.5142 51.8034 20.4395 51.0432 21.2019C49.3553 22.8946 47.6629 24.5828 45.9711 26.2715C45.2037 27.0374 44.825 27.959 44.8693 29.0435C44.9083 29.9991 45.2889 30.8079 45.9633 31.4818C47.6449 33.1619 49.326 34.8427 51.0087 36.5218C51.8041 37.3153 52.1703 38.2693 52.1086 39.3921C52.0198 41.0058 50.7453 42.4374 49.1476 42.6998C47.8751 42.909 46.7788 42.5538 45.8664 41.6443C44.2203 40.0035 42.5776 38.3593 40.9331 36.7168C40.8813 36.6657 40.8268 36.6178 40.7738 36.5683Z" fill="#00CBFE"/>
<path fill-rule="evenodd" clip-rule="evenodd" d="M37.4026 24.5765C37.6717 24.84 37.9421 25.1023 38.2095 25.3674C39.6043 26.7499 40.9961 28.1353 42.3937 29.5148C42.9728 30.0864 43.3804 30.7508 43.5288 31.5567C43.733 32.6657 43.469 33.6579 42.7623 34.5367C42.5376 34.8162 42.27 35.0527 42.0226 35.3093C41.9737 35.36 41.9335 35.4287 41.8479 35.4271C42.0188 35.1004 42.2104 34.7834 42.3109 34.4239C42.6881 33.0739 42.4351 31.8539 41.4558 30.8495C39.8151 29.1664 38.137 27.5201 36.4753 25.8574C36.4153 25.7974 36.3403 25.7483 36.312 25.6613C36.6651 25.2891 37.0242 24.9231 37.4026 24.5765Z" fill="#0099CE"/>
</svg>
