<svg width="143" height="62" viewBox="0 0 143 62" fill="none" xmlns="http://www.w3.org/2000/svg">
<path d="M9.17815 26.0723C9.18361 25.8657 9.21412 25.6605 9.26902 25.4612C9.36749 25.2787 9.4815 25.105 9.60978 24.9421C9.95314 24.6654 10.3872 24.5265 10.8274 24.5525H11.6498V20.0091H9.87557C8.24142 19.9206 6.63852 20.4815 5.4162 21.5698C4.83559 22.0904 4.38974 22.744 4.11678 23.4746C3.83709 24.1913 3.70422 24.9568 3.72605 25.7258V26.505H1V30.7077H3.72605V41.0542H9.26902V30.7043H13.9885V41.0508H19.4872V26.505H9.17815V26.0723Z" fill="white"/>
<path d="M35.8072 26.4165C35.0723 26.1527 34.2925 26.0369 33.5127 26.0757C32.6659 26.0616 31.8254 26.2237 31.0445 26.5517C30.2766 26.8851 29.5844 27.3713 29.0102 27.9806V26.0757H23.5581V41.094H29.0999V34.1233C29.0257 33.2641 29.2557 32.4062 29.7496 31.6994C29.9579 31.4386 30.2249 31.2307 30.5288 31.0928C30.843 30.9546 31.1818 30.8808 31.525 30.8759C31.8044 30.8731 32.0823 30.9169 32.3473 31.0053C32.618 31.0966 32.8579 31.2614 33.0402 31.4813C33.437 31.9513 33.6401 32.5548 33.6081 33.1691V41.0486H39.15V32.0458C39.2137 31.2585 39.1202 30.4665 38.8749 29.7157C38.6295 28.965 38.2373 28.2705 37.7211 27.6727C37.1956 27.1036 36.5384 26.6722 35.8072 26.4165V26.4165Z" fill="white"/>
<path d="M54.7645 28.1486C54.0437 27.42 53.1717 26.8585 52.21 26.5039C51.2458 26.1292 50.2122 25.9669 49.1795 26.028C47.0413 25.9784 44.966 26.7532 43.3833 28.1918C42.5974 28.8906 41.9889 29.7662 41.6079 30.7463C41.2038 31.7042 41.0101 32.7376 41.04 33.7768C40.9888 34.8175 41.1833 35.8557 41.6079 36.8073C42.0008 37.7686 42.6081 38.6276 43.3833 39.3186C44.9516 40.7883 47.0355 41.5816 49.1841 41.5267C50.8075 41.5827 52.4136 41.1775 53.8161 40.3579C55.1536 39.5727 56.1785 38.3492 56.7171 36.8947L51.7818 35.9417C51.5497 36.4117 51.1693 36.7921 50.6993 37.0242C50.2354 37.273 49.7081 37.3785 49.1841 37.3275C48.8692 37.3501 48.5531 37.308 48.2552 37.2037C47.9572 37.0994 47.6838 36.9351 47.4519 36.7209C46.9744 36.2823 46.642 35.7086 46.4989 35.0762H56.9761V34.0369C57.0371 32.962 56.875 31.8862 56.5001 30.877C56.0994 29.8659 55.5105 28.9401 54.7645 28.1486V28.1486ZM46.5387 32.1321C46.7105 31.5738 47.0604 31.0871 47.5348 30.7463C48.015 30.4396 48.5723 30.2754 49.1421 30.2727C49.7052 30.2652 50.2543 30.4481 50.7005 30.7918C51.1396 31.1301 51.4583 31.6009 51.6091 32.1344L46.5387 32.1321Z" fill="white"/>
<path d="M86.2891 33.2145L83.8186 26.5039H80.1839L77.7157 33.2145L75.7665 26.5039H65.4189V22.4341H64.4239L57.627 29.6639V30.7032H59.9214V35.6816C59.8826 36.4755 59.9983 37.2694 60.2621 38.0192C60.5697 38.7695 61.0094 39.4586 61.5604 40.0535C62.1679 40.5883 62.8734 40.9999 63.6379 41.2655C64.4014 41.5392 65.2155 41.6427 66.0232 41.5688C67.5036 41.5759 68.9631 41.2194 70.2736 40.5306L69.1911 36.4608C68.6035 36.77 67.9502 36.9332 67.2863 36.9367C67.027 36.9873 66.7592 36.9725 66.5071 36.8936C66.2618 36.8189 66.0388 36.6851 65.8575 36.5038C65.6763 36.3226 65.5424 36.0995 65.4678 35.8543C65.3889 35.617 65.374 35.3631 65.4246 35.1182V30.7032H71.7025L74.9964 41.0497H79.5399L82.0013 33.8177L84.4717 41.0497H89.1912L93.6892 26.5039H88.278L86.2891 33.2145Z" fill="white"/>
<path d="M108.279 28.2361C106.661 26.763 104.536 25.9719 102.348 26.028C100.183 25.9847 98.0815 26.7576 96.4607 28.1929C95.673 28.8922 95.0391 29.7474 94.599 30.7043C94.1622 31.653 93.9545 32.6911 93.9924 33.7348C93.9545 34.7785 94.1622 35.8165 94.599 36.7652C95.0238 37.7311 95.66 38.5893 96.4607 39.2766C98.0773 40.7246 100.179 41.5126 102.349 41.4847C104.526 41.5212 106.639 40.7499 108.28 39.3198C109.068 38.6206 109.702 37.7654 110.142 36.8084C110.579 35.8597 110.787 34.8216 110.749 33.7779C110.787 32.7342 110.579 31.6962 110.142 30.7475C109.691 29.797 109.058 28.9439 108.279 28.2361V28.2361ZM104.47 36.0735C104.216 36.4138 103.89 36.6944 103.517 36.8959C103.141 37.0938 102.728 37.2099 102.305 37.2366C101.906 37.2315 101.51 37.1581 101.136 37.0197C100.769 36.8652 100.443 36.6281 100.183 36.3268C99.8636 36.0137 99.6257 35.6273 99.49 35.2012C99.3342 34.7866 99.2605 34.3456 99.273 33.9029C99.239 33.4589 99.3135 33.0134 99.49 32.6046C99.652 32.1811 99.903 31.7972 100.226 31.479C100.495 31.1871 100.819 30.9516 101.179 30.7861C101.549 30.6308 101.947 30.5569 102.348 30.5691C102.747 30.5743 103.142 30.6476 103.517 30.7861C103.89 30.9508 104.228 31.186 104.513 31.479C105.086 32.1071 105.409 32.9233 105.421 33.7734C105.381 34.6254 105.044 35.4366 104.47 36.0667V36.0735Z" fill="white"/>
<path d="M120.185 27.1104C119.327 27.6631 118.638 28.4422 118.194 29.3617V26.5039H112.652V41.0939H118.194V36.7641C118.116 36.1067 118.19 35.4401 118.411 34.8161C118.631 34.1974 118.986 33.6356 119.45 33.1713C120.508 32.3826 121.814 31.9986 123.13 32.0889H123.996L124.213 26.4176C123.854 26.3673 123.493 26.3385 123.13 26.3312C122.094 26.3008 121.071 26.5715 120.185 27.1104V27.1104Z" fill="white"/>
<path d="M136.549 33.4315L142.438 26.5027H135.901L131.874 31.3085H131.225V20.0102H125.772V41.0939H131.225V36.245H132.133L136.117 41.0939H143L136.549 33.4315Z" fill="white"/>
<path d="M19.4429 20.0102H13.9442V24.5536H19.486L19.4429 20.0102Z" fill="white"/>
</svg>
