<svg width="100" height="100" viewBox="0 0 100 100" fill="none" xmlns="http://www.w3.org/2000/svg">
<path d="M42.5774 40.8104C42.0214 40.8104 41.4653 41.351 41.4653 41.8915C41.4653 41.8915 41.4653 41.8915 41.4653 42.1618C42.0214 46.4861 46.4696 49.7293 50.9178 48.9185C54.532 48.378 57.3121 45.6753 57.8682 42.1618C57.8682 41.6212 57.5902 41.0807 57.0341 41.0807C57.0341 41.0807 57.0341 41.0807 56.7561 41.0807H42.5774V40.8104Z" fill="#00CFA7"/>
<path d="M41.4654 27.0267C39.2413 27.0267 37.5732 28.6483 37.5732 30.8105C37.5732 32.9726 39.2413 34.5943 41.4654 34.5943C43.6896 34.5943 45.3576 32.9726 45.3576 30.8105C45.3576 28.6483 43.6896 27.0267 41.4654 27.0267Z" fill="#363546"/>
<path d="M58.4247 27.0267C56.2006 27.0267 54.5325 28.6483 54.5325 30.8105C54.5325 32.9726 56.2006 34.5943 58.4247 34.5943C60.6488 34.5943 62.3169 32.9726 62.3169 30.8105C62.3169 28.6483 60.3708 27.0267 58.4247 27.0267Z" fill="#363546"/>
<path d="M68.4326 46.4863C65.6525 51.0808 62.5943 56.4862 60.6482 64.8645H39.2411C37.295 56.7565 34.2369 51.0808 31.4567 46.4863C28.3986 41.3511 26.7305 38.3782 26.7305 31.8917C26.4525 19.4594 36.739 9.18914 49.5277 8.91887C62.3163 8.6486 72.8808 18.6486 73.1589 31.0809C73.1589 31.3512 73.1589 31.6215 73.1589 31.8917C73.1589 38.3782 71.2128 41.3511 68.4326 46.4863ZM49.8057 0C31.7348 0 17 14.3243 17 31.8917C17 40.8106 19.7801 45.6754 23.1163 51.0808C25.8965 55.9457 29.2326 61.351 30.6227 70.2699C30.9007 72.4321 32.8468 74.3239 35.0709 74.3239H64.5404C67.0425 74.3239 68.9886 72.7023 69.2667 70.2699C70.6567 61.351 73.9929 55.9457 76.773 51.0808C80.1092 45.6754 82.8894 40.8106 82.8894 31.8917C82.8894 14.3243 68.1546 0 49.8057 0Z" fill="#363546"/>
<path d="M64.541 77.8375H35.3495C32.5694 77.8375 30.6233 79.9997 30.6233 82.4321C30.6233 85.1348 32.8474 87.0267 35.3495 87.0267H64.819C67.5992 87.0267 69.5453 84.8645 69.5453 82.4321C69.5453 79.9997 67.3212 77.8375 64.541 77.8375Z" fill="#363546"/>
<path d="M59.8141 90.8109H40.0751C37.295 90.8109 35.3489 92.973 35.3489 95.4054C35.3489 98.1081 37.573 100 40.0751 100H59.8141C62.5943 100 64.5404 97.8378 64.5404 95.4054C64.5404 92.973 62.3162 90.8109 59.8141 90.8109Z" fill="#363546"/>
</svg>
