<svg width="100" height="100" viewBox="0 0 100 100" fill="none" xmlns="http://www.w3.org/2000/svg">
<mask id="mask0_32_127" style="mask-type:alpha" maskUnits="userSpaceOnUse" x="23" y="0" width="55" height="100">
<path d="M77.8077 0H23V100H77.8077V0Z" fill="#C4C4C4"/>
</mask>
<g mask="url(#mask0_32_127)">
<path d="M398.217 1.9231H415.103V4.03147C411.491 19.2762 413.524 34.9872 413.133 50.4552C413.376 64.5438 411.754 78.8164 415.103 92.6818V94.7508C409.468 94.7924 403.832 94.8197 398.197 94.8329C398.239 63.8575 398.245 32.8886 398.217 1.92638V1.9231ZM56.0686 2.97728C61.9668 2.95758 67.8781 2.95101 73.8026 2.95758C73.5793 24.8295 73.842 46.7048 73.6811 68.557C73.5399 77.3156 72.0587 87.7327 63.8486 92.6818C51.2246 100.383 34.6827 94.3633 25.8846 83.5357V82.5504C29.9591 78.7387 33.9996 74.8876 38.0062 70.9971C42.039 74.5439 46.1966 79.1054 52.0357 79.1251C56.2722 77.5455 55.9077 72.6391 56.0292 68.9675C56.0489 46.9642 55.9471 24.9609 56.0686 2.95758V2.97728ZM285.849 2.95758C291.668 2.93788 297.484 3.16119 303.304 3.38451C303.061 11.4929 303.143 19.621 303.12 27.7294C306.384 27.69 309.648 27.667 312.91 27.6276C312.87 32.7376 312.847 37.8082 312.667 42.9313C309.484 42.8492 306.302 42.7901 303.143 42.708C303.143 60.2034 303.149 77.6977 303.162 95.1908C297.405 95.4142 291.668 95.3747 285.931 95.1284C285.951 64.3961 286.115 33.6834 285.849 2.9543V2.95758ZM82.8929 56.2516C84.9159 38.8788 101.517 23.9592 119.317 25.8968C128.002 26.8507 136.06 30.8794 142.034 37.2551C148.009 43.6308 151.506 51.9331 151.895 60.6621C152.016 72.2154 151.875 83.7918 151.914 95.3485C138.9 95.1252 125.865 95.6539 112.85 95.1252C108.292 94.63 103.881 93.2185 99.8826 90.9753C95.8839 88.7322 92.38 85.7038 89.5815 82.0721C86.7829 78.4404 84.7475 74.2804 83.5975 69.842C82.4475 65.4037 82.2068 60.7787 82.8896 56.245L82.8929 56.2516ZM103.143 72.7048C111.192 82.314 124.936 77.9363 135.76 78.6457C135.619 72.3205 135.881 65.9954 135.619 59.69C134.788 48.3566 122.078 38.6883 111.09 43.1678C99.3691 46.9675 94.6072 63.5685 103.139 72.7113L103.143 72.7048ZM328.759 35.1612C342.808 20.2811 370.256 22.3895 382.194 38.9313C388.033 46.4847 389.33 56.3369 389.189 65.6079C371.005 65.69 352.801 65.3452 334.617 65.7918C337.071 73.4535 343.455 80.7311 352.092 80.5898C355.438 80.8645 358.805 80.4463 361.982 79.3614C365.159 78.2765 368.079 76.5482 370.558 74.2844C375.363 76.5833 380.167 78.846 385.008 81.0365C373.11 98.0053 346.795 100.964 330.903 88.1531C315.031 75.6243 314.545 49.089 328.755 35.1612H328.759ZM335.708 51.6013C347.911 51.864 360.135 52.0282 372.338 51.4995C368.568 45.0529 362.243 39.4995 354.358 39.7425C346.148 39.1153 339.52 44.8722 335.708 51.6013ZM164.867 28.0545C182.157 27.8706 199.451 28.0348 216.755 27.9527C206.64 45.6867 196.302 63.3255 186.45 81.2072C195.855 80.4979 205.323 80.7409 214.749 80.7409C214.729 85.667 214.647 90.5734 214.345 95.4798C196.302 94.9544 178.239 95.4601 160.2 95.4404C170.056 77.7852 180.276 60.3796 190.226 42.7901C181.793 42.8098 173.34 42.8525 164.906 42.7507C164.886 37.8443 164.867 32.9609 164.867 28.0545V28.0545ZM223.451 28.0939C240.722 27.8115 257.993 28.0742 275.267 27.9527C265.153 45.6703 254.772 63.2663 245.021 81.1875C254.325 80.5307 263.691 80.7606 273.018 80.7409C273.079 85.6057 273.079 90.4705 273.018 95.3353C254.896 95.3977 236.772 95.1317 218.65 95.4766C228.463 77.7425 239.011 60.4059 248.673 42.5471C240.604 42.7507 232.496 43.1744 224.427 42.6489C222.197 38.5143 224 32.8164 223.441 28.0939H223.451Z" fill="#FCC113"/>
</g>
</svg>
