<svg width="143" height="62" viewBox="0 0 143 62" fill="none" xmlns="http://www.w3.org/2000/svg">
<path d="M142.912 46.9573C141.151 46.9573 139.391 46.9573 137.36 46.9573C137.36 43.9782 137.36 41.4054 137.36 38.8326C137.36 37.0722 137.495 35.4473 137.36 33.6869C137.089 30.9787 135.599 29.6246 132.891 29.76C130.454 29.8954 128.829 31.5204 128.829 34.0932C128.829 37.7493 128.829 41.4054 128.829 45.0615C128.829 45.6032 128.829 46.0094 128.693 46.6865C126.933 46.6865 125.308 46.6865 123.277 46.6865C123.277 45.6032 123.277 44.5199 123.277 43.4366C123.277 40.0513 123.277 36.666 123.277 33.2807C123.412 28.4059 127.069 24.7498 131.943 24.3435C137.224 23.8019 141.964 27.458 142.776 32.3328C143.183 33.9578 142.912 42.0825 142.912 46.9573Z" fill="#29FD2E"/>
<path d="M6.55188 15C6.55188 25.2913 6.55188 35.5826 6.55188 45.8739C6.55188 46.1447 6.55188 46.2801 6.41647 46.6864C4.65612 47.228 2.76035 46.6864 1 46.9572C1 36.2597 1 25.6975 1 15C2.89577 15 4.65612 15 6.55188 15Z" fill="#29FD2E"/>
<path d="M39.7279 46.6864C37.9675 46.6864 35.9363 46.6864 34.3114 46.6864C34.3114 46.0093 34.3114 38.4263 34.3114 35.4472C34.176 31.114 35.2593 27.4579 39.457 25.4267C43.6548 23.3956 47.7172 23.9372 51.2379 27.3225C55.8419 23.3956 60.5813 23.3956 65.3207 26.7809C71.008 23.3956 74.5287 23.531 79.4035 27.3225C81.9763 24.8851 85.0908 23.8018 88.6115 24.6143C92.8093 25.4267 95.6529 28.2704 95.9238 32.6036C96.1946 37.2076 95.9238 41.947 95.9238 46.8218C94.1634 46.8218 92.5385 46.8218 90.5073 46.8218C90.5073 45.1969 90.5073 43.5719 90.5073 42.0824C90.5073 39.5096 90.5073 36.8013 90.5073 34.2285C90.5073 31.5203 89.0178 29.8953 86.4449 29.8953C83.8721 29.8953 81.9764 31.5203 81.9764 34.2285C81.8409 37.7492 81.9764 41.2699 81.9764 44.6552C81.9764 45.3323 81.9764 46.0093 81.9764 46.8218C80.0806 46.8218 78.4556 46.8218 76.5599 46.8218C76.5599 43.9782 76.5599 41.1345 76.5599 38.2909C76.5599 36.9367 76.5599 35.5826 76.5599 34.2285C76.5599 31.5203 75.0704 30.0308 72.6329 29.8953C70.0601 29.7599 68.1643 31.2495 68.0289 33.9577C67.8935 37.4784 67.8935 40.9991 67.8935 44.6552C67.8935 45.3323 67.8935 46.1448 67.8935 46.9572C65.9978 46.9572 64.3728 46.9572 62.3416 46.9572C62.3416 44.5198 62.3416 42.2178 62.3416 39.9158C62.3416 38.0201 62.3416 36.1243 62.3416 34.2285C62.3416 31.5203 60.8521 30.0308 58.2793 29.8953C55.7065 29.8953 53.9461 31.3849 53.8107 34.0931C53.6753 37.6138 53.8107 41.1345 53.8107 44.5198C53.8107 45.1969 53.8107 46.0093 53.8107 46.8218C51.9149 46.8218 50.1546 46.8218 48.2588 46.8218C48.2588 43.8428 48.2588 40.8637 48.2588 37.8846C48.2588 36.5305 48.2588 35.1764 48.2588 33.8223C48.1234 31.3849 46.6339 29.8953 44.1965 29.8953C41.759 29.8953 39.8633 31.3849 39.8633 33.8223C39.7279 37.4784 39.7279 46.1448 39.7279 46.6864Z" fill="#29FD2E"/>
<path d="M15.0829 38.0201C16.437 43.0303 21.4472 43.9782 25.5096 39.9158C26.8637 39.9158 30.6552 39.9158 31.0615 39.9158C30.5198 44.3844 24.8325 47.9051 19.1452 47.228C13.1871 46.551 8.7185 40.5929 9.53097 34.6348C10.4789 27.9996 16.1662 23.3956 22.2597 24.4789C28.7595 25.4268 32.6864 31.114 31.6031 38.0201C28.8949 38.0201 26.1866 38.0201 23.4784 38.0201C20.6347 38.0201 17.9265 38.0201 15.0829 38.0201ZM26.0512 33.416C25.3742 30.5724 22.9367 28.9475 20.2285 29.2183C17.6557 29.4891 15.6245 31.2495 15.4891 33.416C18.8744 33.416 22.3951 33.416 26.0512 33.416Z" fill="#29FD2E"/>
<path d="M109.736 47.228C103.507 47.228 98.6318 42.3532 98.6318 35.8534C98.6318 29.3537 103.507 24.208 109.736 24.208C115.829 24.208 120.704 29.2182 120.839 35.718C120.839 42.2178 115.965 47.228 109.736 47.228ZM115.558 36.2597C115.558 31.9265 113.256 29.7599 110.277 29.4891C107.704 29.2182 105.132 30.9786 104.455 33.8223C103.777 36.5305 104.048 39.1033 106.35 41.1345C107.975 42.624 109.871 42.8948 111.767 41.947C114.204 40.5928 115.423 38.02 115.558 36.2597Z" fill="#29FD2E"/>
</svg>
