<svg width="143" height="62" viewBox="0 0 143 62" fill="none" xmlns="http://www.w3.org/2000/svg">
<path fill-rule="evenodd" clip-rule="evenodd" d="M23.976 26.1245C26.6174 26.1364 29.2549 26.1225 31.8984 26.1304C32.5887 26.0987 33.251 26.325 33.8416 26.6705C34.0949 27.1133 34.2785 27.5898 34.4082 28.0822C34.4012 29.4964 34.4024 30.911 34.4063 32.3259L34.4201 36.5712C34.4271 39.4015 34.4221 42.2318 34.3603 45.0601L34.3443 45.219C33.8097 47.4229 30.0829 47.3316 29.6998 45.0919C29.5562 43.5432 29.6839 41.9826 29.6439 40.432C27.0783 40.4478 24.5106 40.4379 21.945 40.4379C21.925 41.8278 21.9849 43.2156 21.933 44.6035C21.929 45.4136 21.4961 46.1621 20.8417 46.6128C20.7479 46.6366 20.5604 46.6823 20.4686 46.7022C19.4372 46.8808 18.2022 46.8431 17.5199 45.908C17.492 45.8504 17.4381 45.7332 17.4122 45.6757L17.2765 45.491C17.384 44.953 17.4242 43.4348 17.4286 41.6033L17.4288 40.9578C17.4279 40.4477 17.4246 39.9204 17.4197 39.3889L17.4151 38.9327L17.4103 38.5238C17.3714 35.3916 17.285 32.361 17.2771 32.0872L17.2765 32.0671C17.4162 30.5144 17.9289 28.9141 19.0741 27.8221C20.3629 26.5553 22.2263 26.1106 23.976 26.1245ZM79.1887 26.1608C80.1743 26.133 80.9424 26.9153 81.1419 27.8544L81.1379 31.3235L81.1453 38.2616C81.1457 40.5743 81.1403 42.887 81.118 45.1997C80.6491 46.9887 78.283 47.211 77.0101 46.2064C76.4415 45.5114 76.3138 44.5723 76.3477 43.6947C76.3717 42.6126 76.3617 41.5266 76.3577 40.4385C73.798 40.4504 71.2364 40.4345 68.6767 40.4484C68.6208 42.1004 68.8183 43.7702 68.563 45.4082C67.9385 47.2329 65.1973 47.2071 64.1439 45.7954C64.0302 45.2156 63.9523 44.6299 63.9523 44.0402V33.66C63.9484 32.2881 64.102 30.9002 64.6048 29.6215C65.5085 27.2906 68.0443 26.137 70.3925 26.141C73.3232 26.139 76.26 26.0953 79.1887 26.1608ZM55.3626 26.1294C57.1402 26.0858 59.0595 26.4352 60.4221 27.6801C61.8625 28.933 62.4251 30.9264 62.4511 32.7948C62.4571 36.5374 62.4451 40.2741 62.4571 44.0168C62.4511 44.5568 62.4371 45.1068 62.3234 45.6389C61.6032 46.9255 59.8475 47.0804 58.6545 46.4291C57.9522 45.9983 57.7268 45.0989 57.7427 44.3126C57.7268 40.5739 57.7806 36.8352 57.7228 33.0985C57.7946 32.1078 57.0983 31.1309 56.1147 30.9899C54.5865 30.8112 53.0443 30.9463 51.5081 30.9105C51.544 35.4672 51.54 40.022 51.5201 44.5807C51.5859 45.5178 51.0273 46.4748 50.0976 46.7012C48.8826 47.0149 47.1349 46.6336 46.9115 45.1723C46.7778 41.1438 46.9254 37.1033 46.8397 33.0707C46.8437 32.1117 46.1753 31.0793 45.1778 30.988C43.6715 30.8033 42.1552 30.9403 40.643 30.8946C40.651 35.2667 40.645 39.6348 40.649 44.0049C40.6649 44.8269 40.5372 45.7779 39.8649 46.3259C38.9551 46.854 37.78 46.9057 36.8344 46.4331C36.0463 45.9209 35.8887 44.8884 35.9067 44.0108C35.9067 38.9339 35.9027 33.857 35.9067 28.7801C35.9127 28.0871 35.9366 27.3029 36.4613 26.7827C37.004 26.1453 37.8997 26.0957 38.6718 26.0778C44.2341 26.05 49.7983 26.1791 55.3626 26.1294ZM12.4259 20.0612C13.2339 20.5496 13.3556 21.5721 13.3496 22.4418C13.3337 28.9145 13.3755 35.3872 13.3297 41.8599C14.0359 41.991 14.8619 42.0624 15.2888 42.7355C16.1567 44.0599 15.6479 46.5437 13.8324 46.6549C13.5243 46.6628 13.2125 46.6836 12.8993 46.7056L12.4287 46.7379C11.4864 46.7985 10.5412 46.817 9.65275 46.4782C8.83477 46.087 8.60933 45.1181 8.63327 44.2783C8.61332 37.1007 8.63726 29.9211 8.6213 22.7396C8.64923 21.862 8.55745 20.8077 9.3096 20.1922C10.1735 19.4993 11.4982 19.5052 12.4259 20.0612ZM3.91433 20.0904C4.67644 20.6066 4.76822 21.6132 4.75226 22.463C4.73231 28.9199 4.78019 35.3807 4.72832 41.8395C5.59218 41.9705 6.66952 42.2048 6.95481 43.1777C7.15033 44.3154 7.21218 45.8859 5.98521 46.4518C5.19965 46.7298 4.37123 46.7463 3.54086 46.7415L3.04273 46.738C2.71093 46.7364 2.38012 46.7392 2.05293 46.7615C1.91527 46.7496 1.63396 46.7278 1.49231 46.7159C0.640417 46.3227 -0.00199507 45.5325 0.027931 44.5437C-0.0219458 37.2728 0.0339162 30.002 0 22.7311C0.0219458 21.8515 -0.00199503 20.7873 0.734186 20.1757C1.63396 19.4947 2.96866 19.5086 3.91433 20.0904ZM69.9196 31.1047C68.6708 31.6257 68.6167 32.9106 68.6595 34.1521L68.6694 34.4081C68.687 34.8328 68.7071 35.2457 68.6847 35.6138C71.2463 35.58 73.808 35.6118 76.3657 35.5999C76.3637 34.0313 76.3657 32.4588 76.3617 30.8903C75.7321 30.9282 75.0982 30.9236 74.4632 30.9095L73.701 30.8903C72.4305 30.8578 71.1613 30.8407 69.9196 31.1047ZM23.7206 30.9691C22.7889 31.0187 21.9909 31.8467 21.9649 32.7858C21.921 33.7091 21.9629 34.6303 21.925 35.5516C24.4827 35.631 27.0444 35.5655 29.608 35.5973C29.6659 34.0307 29.6639 32.4642 29.612 30.9016C27.6469 30.9473 25.6797 30.8261 23.7206 30.9691ZM133.854 9.37505C134.483 11.2652 132.983 12.8775 132.693 14.6684C132.516 15.2382 132.855 15.7644 133.144 16.221C133.523 16.4037 133.936 16.634 134.375 16.497C136.374 15.9788 137.541 13.6181 139.75 13.6915C141.314 13.5644 142.788 14.8014 142.976 16.3819C143.151 17.9484 142.359 19.6778 140.875 20.2814C138.85 20.8135 136.721 19.781 134.726 20.5196L134.613 20.7052C134.527 20.8475 134.427 21.012 134.367 21.1113C135.273 23.4403 137.934 24.2365 139.171 26.3113C139.485 27.856 139.343 29.7363 138.062 30.8065C136.713 31.7754 134.409 31.829 133.469 30.2565C132.456 28.412 132.6 26.087 131.359 24.3536C130.862 23.6269 129.856 23.9049 129.441 24.5641C128.482 26.0234 128.214 27.8004 127.592 29.4087C126.81 31.6861 123.177 32.0295 121.986 29.9468C121.293 28.7972 121.128 27.1095 122.099 26.0671C123.352 24.8162 125.13 24.2206 126.255 22.8228C126.744 22.2669 126.582 21.288 125.882 20.9962C125.035 20.5961 124.114 20.5794 123.192 20.5859L122.731 20.5894C122.348 20.5912 121.967 20.5865 121.593 20.5494C119.458 20.4938 117.505 18.3276 117.924 16.1376C118.063 15.0933 118.933 14.2733 119.905 13.9874C120.765 13.7511 121.667 13.8007 122.514 14.0767C123.189 14.3106 123.755 14.7432 124.311 15.1926L124.729 15.5299C125.287 15.9763 125.862 16.3938 126.552 16.6003C127.614 16.9021 128.526 15.6869 128.482 14.6962C128.603 13.1018 127.394 11.849 127.151 10.3321C127.119 9.26387 127.416 8.04676 128.378 7.45905C130.267 6.46035 133.228 7.08777 133.854 9.37505Z" fill="white"/>
<path fill-rule="evenodd" clip-rule="evenodd" d="M84.4606 26.308L84.6071 26.3115C85.1924 26.3396 85.7653 26.5366 86.1773 26.9073L86.2771 27.0056C86.8747 27.6449 86.8312 28.5979 86.8389 29.4153L86.8188 32.1527C86.8073 34.8905 86.8161 37.6297 86.7963 40.3712L86.8638 40.4677C87.2236 40.9908 87.5842 41.6272 88.2756 41.7221L88.5914 41.7722C89.4349 41.8891 90.2895 41.8768 91.1409 41.8645L91.6274 41.858C91.9515 41.8551 92.2752 41.8559 92.5999 41.8665L92.7364 41.8628C93.6989 41.8433 94.8105 41.933 95.5505 41.2118L95.6399 41.1263C96.0579 40.6834 96.045 40.0166 96.0659 39.4455L96.06 35.999C96.0591 33.7011 96.0618 31.4032 96.0537 29.1087L96.0533 28.9826C96.0582 28.1784 96.2111 27.2795 96.8877 26.7609L96.9975 26.6955C98.185 26.025 99.9005 26.2291 100.658 27.4393L100.666 27.5404C100.677 27.6913 100.695 27.8951 100.703 28.009L100.737 29.5603C100.752 30.5944 100.756 31.6285 100.755 32.6625L100.748 35.7639C100.747 36.7975 100.749 37.8309 100.764 38.864L100.762 39.2414C100.747 40.3739 100.643 41.5063 100.378 42.6082L100.322 42.7786C99.4031 45.4181 96.4758 46.6851 93.8073 46.5166L93.7726 46.5396C93.7464 46.5575 93.7167 46.5786 93.6978 46.5918L93.7227 47.3194C93.7847 49.2607 93.8078 51.209 93.6978 53.1447L93.6684 53.2588C93.127 55.1225 89.9925 55.1006 89.1908 53.4019L89.1428 52.6452C89.0419 50.6264 89.1439 48.5996 89.1096 46.576L88.9149 46.5645C87.0926 46.4488 85.1443 46.0903 83.8315 44.7306L83.6864 44.5743C82.3689 43.0941 82.0689 41.0109 82.0904 39.0954L82.092 37.8867C82.0852 34.6634 82.0041 31.4381 82.1249 28.2206C82.1493 26.9607 83.306 26.308 84.4606 26.308ZM108.891 25.7046L109.519 25.7107L110.147 25.7243L110.666 25.7354C111.053 25.7427 111.439 25.7466 111.819 25.7394L112.198 25.7282L112.591 25.7416C112.941 25.749 113.292 25.7453 113.644 25.7383L114.173 25.7262L114.495 25.7183C115.458 25.6955 116.422 25.6871 117.368 25.8473L117.683 25.9072L117.78 25.9605C118.294 26.2564 118.766 26.7356 118.796 27.3486L118.796 27.465L118.811 29.4783C118.826 33.5891 118.763 37.7026 118.828 41.8145L118.865 43.5766L118.859 43.6972C118.824 44.4268 118.731 45.2571 118.125 45.7365L118.019 45.8131L117.917 45.8685C116.715 46.4907 114.846 46.2858 114.258 44.963L114.21 44.8434L114.147 44.4949C114.02 43.6802 114.016 42.8546 114.033 42.028L114.049 41.3194C114.057 41.0046 114.063 40.69 114.062 40.3762L114.054 39.9062L112.207 39.9013L110.358 39.9023L108.281 39.9011L106.205 39.8925L106.146 40.0085L106.163 40.377C106.229 41.7296 106.323 43.0959 106.149 44.44L106.095 44.806L106.054 44.9196C105.4 46.5487 102.871 46.5823 101.768 45.3779L101.693 45.2919L101.614 44.9904C101.258 43.4862 101.414 41.9253 101.399 40.3918L101.393 40.0636L101.395 39.1431C101.39 37.3021 101.341 35.4616 101.385 33.625L101.416 32.7071L101.424 32.5197C101.523 30.4514 102.044 28.1711 103.873 26.934C105.363 25.8757 107.113 25.7046 108.891 25.7046ZM114.007 30.4037C113.67 30.4168 113.334 30.4238 112.997 30.427L112.491 30.4293L111.967 30.4278L111.443 30.4234L110.911 30.4197C110.201 30.4156 109.491 30.4168 108.784 30.4486L108.253 30.4785L108.141 30.4845C107.361 30.5467 106.629 31.0325 106.377 31.7785L106.344 31.8868L106.283 32.1954C106.147 33.0085 106.192 33.8429 106.166 34.6662L106.15 35.0183L106.197 35.0545C106.221 35.0733 106.247 35.0944 106.27 35.1118L106.3 35.1343L107.448 35.1346L108.597 35.1304L109.361 35.1249C110.635 35.117 111.908 35.1175 113.181 35.1637L113.945 35.1973L114.078 35.1442L114.068 34.3535C114.059 33.0357 114.082 31.7183 114.007 30.4037Z" fill="#F1CF00"/>
</svg>
