<svg width="143" height="62" viewBox="0 0 143 62" fill="none" xmlns="http://www.w3.org/2000/svg">
<path fill-rule="evenodd" clip-rule="evenodd" d="M138.66 21.0433H4.33991C2.49828 21.0433 1 22.5416 1 24.383V40.4904C1 42.332 2.49828 43.8305 4.33991 43.8305H138.66C140.502 43.8305 142 42.3322 142 40.4904V24.383C142 22.5416 140.502 21.0433 138.66 21.0433ZM40.0138 42.8289H4.33991C3.05065 42.8289 2.00164 41.7797 2.00164 40.4904V24.383C2.00164 23.0937 3.05065 22.0447 4.33991 22.0447H14.45L40.0138 22.045V42.8289ZM140.999 40.4904C140.999 41.7797 139.95 42.8289 138.66 42.8289H89.4253V22.0447H89.4462H92.4307H93.2617H138.66C139.95 22.0447 140.999 23.0937 140.999 24.383V40.4904Z" fill="black"/>
<path d="M139.868 43.1765H3.43599L1.4928 41.2351V23.5686L3.94558 21.4088H139.283L141.505 22.9072V40.9081L139.868 43.1765Z" fill="black"/>
<path d="M89.4254 22.0448H40.0137V42.8289H89.4254V22.0448Z" fill="white"/>
<path fill-rule="evenodd" clip-rule="evenodd" d="M57.9017 23.1641V40.2469H54.4041V38.6473C53.428 39.8945 51.9913 40.6265 50.012 40.6265C46.3791 40.6265 43.3967 37.5085 43.3967 33.469C43.3967 29.4292 46.3791 26.3113 50.012 26.3113C51.9913 26.3113 53.428 27.0433 54.4041 28.2905V24.1655L57.9017 23.1641ZM54.4041 33.469C54.4041 31.1916 52.8046 29.6462 50.6629 29.6462C48.4939 29.6462 46.8942 31.1916 46.8942 33.469C46.8942 35.7462 48.4939 37.2917 50.6629 37.2917C52.8046 37.2917 54.4041 35.7462 54.4041 33.469Z" fill="black"/>
<path fill-rule="evenodd" clip-rule="evenodd" d="M59.8527 33.4689C59.8527 29.4291 63.0248 26.3112 67.0102 26.3112C70.9954 26.3112 74.1947 29.4291 74.1947 33.4689C74.1947 37.5085 70.9954 40.6264 67.0102 40.6264C63.0248 40.6264 59.8527 37.5085 59.8527 33.4689ZM70.6978 33.4689C70.6978 31.2727 69.0978 29.7273 67.0102 29.7273C64.9496 29.7273 63.35 31.2727 63.35 33.4689C63.35 35.6648 64.9496 37.2105 67.0102 37.2105C69.0978 37.2105 70.6978 35.6648 70.6978 33.4689Z" fill="black"/>
<path d="M86.042 36.2884C86.042 39.2165 83.4935 40.6264 80.5926 40.6264C77.8816 40.6264 75.875 39.4877 74.899 37.4L77.9358 35.6922C78.315 36.8035 79.2368 37.4545 80.5926 37.4545C81.7036 37.4545 82.4634 37.0748 82.4634 36.2884C82.4634 34.3094 75.4683 35.3936 75.4683 30.622C75.4683 27.8566 77.8274 26.3112 80.6193 26.3112C82.8159 26.3112 84.7136 27.3143 85.7711 29.1851L82.7885 30.8119C82.3818 29.9443 81.6227 29.4292 80.6193 29.4292C79.7518 29.4292 79.0468 29.8087 79.0468 30.5408C79.0468 32.5471 86.042 31.2999 86.042 36.2884Z" fill="black"/>
<path d="M98.5877 26.8479H101.602V30.1563H98.5877V35.706C98.5877 37.1467 99.6276 37.1734 101.602 37.0667V40.1883C96.773 40.7218 95.1456 39.3078 95.1456 35.706V30.1563H92.8243V26.8479H95.1456V24.1532L98.5877 23.1125V26.8479Z" fill="#00DEE9"/>
<path d="M111.503 26.4202V30.3244C109.687 30.1074 107.382 30.9209 107.382 33.7674V40.2474H103.885V26.6913H107.382V29.023C108.087 27.1793 109.795 26.4202 111.503 26.4202Z" fill="#00DEE9"/>
<path fill-rule="evenodd" clip-rule="evenodd" d="M119.758 37.4545C121.114 37.4545 122.198 36.8849 122.795 36.0986L125.614 37.7254C124.34 39.5691 122.306 40.6264 119.704 40.6264C115.149 40.6264 112.275 37.5085 112.275 33.4689C112.275 29.4291 115.176 26.3112 119.433 26.3112C123.445 26.3112 126.292 29.4833 126.292 33.4689C126.292 33.984 126.238 34.4449 126.156 34.9057H115.935C116.423 36.6953 117.914 37.4545 119.758 37.4545ZM122.795 32.1946C122.361 30.2425 120.897 29.4562 119.433 29.4562C117.562 29.4562 116.288 30.4594 115.881 32.1946H122.795Z" fill="#00DEE9"/>
<path d="M138.168 36.2884C138.168 39.2165 135.619 40.6264 132.718 40.6264C130.007 40.6264 128.001 39.4877 127.025 37.4L130.061 35.6922C130.441 36.8035 131.362 37.4545 132.718 37.4545C133.83 37.4545 134.589 37.0748 134.589 36.2884C134.589 34.3094 127.594 35.3936 127.594 30.622C127.594 27.8566 129.953 26.3112 132.746 26.3112C134.942 26.3112 136.839 27.3143 137.897 29.1851L134.914 30.8119C134.507 29.9443 133.748 29.4292 132.746 29.4292C131.877 29.4292 131.172 29.8087 131.172 30.5408C131.172 32.5471 138.168 31.2999 138.168 36.2884Z" fill="#00DEE9"/>
<path d="M5.41357 19.0406L8.91107 18V40.2997H5.41357V19.0406Z" fill="#FFE200"/>
<path d="M24.0118 26.744V40.3001H20.5143V38.7818C19.7009 40.0019 18.2913 40.6796 16.4747 40.6796C13.6006 40.6796 11.3505 38.6733 11.3505 35.0676V26.744H14.8477V34.6338C14.8477 36.4775 15.9593 37.4264 17.5321 37.4264C19.24 37.4264 20.5143 36.4232 20.5143 34.0645V26.744H24.0118Z" fill="#FFE200"/>
<path d="M36.9439 37.0195V40.3001H26.2346V37.9687L31.9552 30.0246H26.5058V26.744H36.6728V29.0757L30.9252 37.0195H36.9439Z" fill="#FFE200"/>
</svg>
