<svg width="100" height="100" viewBox="0 0 100 100" fill="none" xmlns="http://www.w3.org/2000/svg">
<path d="M95.2572 67.161H72.6289V40.9809C72.6277 39.724 72.1283 38.5189 71.2396 37.6301C70.3509 36.7413 69.1459 36.2414 67.8887 36.24H56.706V10.0593C56.7045 8.80256 56.2047 7.59766 55.316 6.70901C54.4274 5.82035 53.2225 5.32045 51.9657 5.31897H4.74034C3.48353 5.3203 2.27858 5.82015 1.38989 6.70884C0.501197 7.59753 0.00133175 8.8025 0 10.0593V63.8423C0.00133148 65.0994 0.501179 66.3044 1.38986 67.1931C2.27853 68.0817 3.48348 68.5817 4.74034 68.583H24.7816V94.7641C24.7829 96.0207 25.2827 97.2258 26.1713 98.1144C27.0598 99.0031 28.2647 99.5025 29.5213 99.5044H95.2597C96.5163 99.5031 97.7214 99.0031 98.6101 98.1144C99.4987 97.2258 99.9987 96.0207 100 94.7641V71.9006C99.9981 70.644 99.4981 69.439 98.6088 68.5503C97.7201 67.6616 96.5145 67.1622 95.2572 67.161Z" fill="black"/>
<path d="M1.42151 23.7853V10.0596C1.42255 9.17963 1.77259 8.33605 2.39488 7.71385C3.01717 7.09166 3.86087 6.74173 4.74084 6.74084H51.9663C52.8461 6.74188 53.6897 7.09188 54.3118 7.71403C54.934 8.33623 55.284 9.17976 55.285 10.0596V36.2404H1.42151V23.7853Z" fill="black"/>
<path d="M98.5761 83.3327V94.7635C98.5755 95.6434 98.2252 96.4874 97.6031 97.1094C96.9811 97.7314 96.1371 98.0817 95.2572 98.0824H29.5192C28.6394 98.0817 27.7958 97.7314 27.1736 97.1094C26.5514 96.4874 26.2014 95.6434 26.2004 94.7635V68.583H95.2572C96.1377 68.5843 96.9811 68.9339 97.6031 69.5566C98.2258 70.1786 98.5755 71.0226 98.5761 71.9025V83.3327Z" fill="black"/>
<path d="M38.3806 75.4H42.6598V80.0956H38.3806V87.9723C38.3806 90.017 39.8575 90.0547 42.6598 89.9032V94.334C35.8053 95.0906 33.4955 93.0837 33.4955 87.9717V80.0962H30.2013V75.4006H33.4955V71.5755L38.3806 70.0988V75.4Z" fill="#00DEE9"/>
<path d="M56.7129 74.7925V80.334C54.1348 80.0264 50.8641 81.1805 50.8641 85.2214V94.4183H45.8997V75.1774H50.8641V78.4868C51.8647 75.8698 54.288 74.7925 56.7129 74.7925Z" fill="#00DEE9"/>
<path d="M68.4289 90.4547C69.2465 90.4861 70.061 90.3289 70.8082 89.9955C71.556 89.6616 72.2163 89.1603 72.739 88.5308L76.7415 90.8389C74.9321 93.4565 72.0459 94.9565 68.3522 94.9565C61.8875 94.9565 57.8085 90.5314 57.8085 84.7974C57.8085 79.0641 61.9255 74.6383 67.9673 74.6383C73.6622 74.6383 77.7025 79.1402 77.7025 84.7974C77.6994 85.4817 77.6352 86.1641 77.5107 86.837H63.0025C63.6956 89.3773 65.8119 90.4547 68.4289 90.4547ZM72.739 82.9893C72.5503 81.8729 71.9622 80.8635 71.0843 80.1484C70.2063 79.4333 69.0987 79.0616 67.9673 79.1025C65.3119 79.1025 63.5038 80.5264 62.9264 82.9893H72.739Z" fill="#00DEE9"/>
<path d="M94.5585 88.8C94.5585 92.956 90.9409 94.9572 86.8233 94.9572C82.9749 94.9572 80.1277 93.3409 78.7428 90.378L83.0516 87.9535C83.5906 89.5308 84.8969 90.4553 86.8233 90.4553C88.4013 90.4553 89.4786 89.9164 89.4786 88.8006C89.4786 85.9912 79.551 87.5308 79.551 80.7579C79.551 76.8327 82.8988 74.639 86.8623 74.639C88.3365 74.5893 89.7969 74.9434 91.0856 75.6623C92.3736 76.3818 93.4415 77.439 94.173 78.7201L89.9397 81.0289C89.6818 80.4314 89.2503 79.9252 88.7019 79.5755C88.1529 79.2258 87.512 79.0484 86.8617 79.0667C85.6315 79.0667 84.6296 79.605 84.6296 80.644C84.6302 83.4893 94.5585 81.7195 94.5585 88.8Z" fill="#00DEE9"/>
<path d="M32.6613 13.4103V32.651H27.6973V30.4961C26.543 32.229 24.5418 33.1899 21.9637 33.1899C17.883 33.1899 14.6906 30.3424 14.6906 25.2242V13.4103H19.6545V24.6081C19.6545 27.2248 21.232 28.5715 23.4641 28.5715C25.8884 28.5715 27.6973 27.1477 27.6973 23.7998V13.4103H32.6613Z" fill="#FFE200"/>
<path d="M51.0139 27.9946V32.651H35.8153V29.3418L43.9348 18.0668H36.2005V13.4103H50.631V16.7196L42.4735 27.9946H51.0139Z" fill="#FFE200"/>
<path d="M6.26416 2.47687L11.228 1V32.6511H6.26416V2.47687Z" fill="#FFE200"/>
<path d="M67.8886 37.6616H62.0077V67.161H67.8886C68.7685 67.1597 69.6119 66.81 70.2339 66.188C70.8559 65.5654 71.2062 64.722 71.2069 63.8424V40.9793C71.2056 40.0996 70.8553 39.2565 70.2333 38.6346C69.6113 38.0127 68.7679 37.6628 67.8886 37.6616Z" fill="white"/>
<path d="M63.2534 37.6622H1.4209V63.8429C1.42193 64.7226 1.77189 65.5666 2.39406 66.1886C3.01623 66.8107 3.85977 67.161 4.73965 67.1616H63.2534V37.6622Z" fill="white"/>
<path d="M71.2075 58.8168H59.5276V67.161H71.2075V58.8168Z" fill="white"/>
<path d="M26.7527 39.2314V63.4781H21.7882V61.208C20.4031 62.9783 18.3633 64.0169 15.5543 64.0169C10.398 64.0169 6.16309 59.5913 6.16309 53.8582C6.16309 48.1252 10.3964 43.699 15.5543 43.699C18.3633 43.699 20.4025 44.7381 21.7882 46.5085V40.653L26.7527 39.2314ZM21.7882 53.8582C21.7882 50.6255 19.5176 48.432 16.4777 48.432C13.3994 48.432 11.1287 50.6255 11.1287 53.8582C11.1287 57.0909 13.3994 59.2839 16.4777 59.2839C19.5182 59.2839 21.7888 57.0904 21.7888 53.8582H21.7882Z" fill="black"/>
<path d="M29.5219 53.8576C29.518 51.8429 30.1122 49.8724 31.229 48.1956C32.346 46.5188 33.9353 45.2112 35.7959 44.4383C37.6565 43.6656 39.7046 43.4623 41.6808 43.8544C43.657 44.2465 45.4724 45.2161 46.8971 46.6407C48.3217 48.0653 49.2915 49.8807 49.6837 51.8568C50.0759 53.833 49.8727 55.8811 49.1 57.7417C48.3273 59.6024 47.0198 61.1919 45.3431 62.3088C43.6663 63.4258 41.6959 64.0201 39.6812 64.0163C38.3431 64.0308 37.0157 63.7775 35.7768 63.272C34.5378 62.7665 33.4122 62.0187 32.466 61.0726C31.5198 60.1264 30.772 59.0009 30.2665 57.7619C29.7609 56.523 29.5078 55.1956 29.5219 53.8576ZM44.9145 53.8576C44.8957 52.8312 44.5744 51.8333 43.9909 50.9888C43.4073 50.1443 42.5875 49.4907 41.6342 49.1101C40.6809 48.7295 39.6364 48.6387 38.6316 48.849C37.6269 49.0594 36.7066 49.5617 35.9861 50.2928C35.2656 51.0239 34.7768 51.9515 34.5812 52.9592C34.3855 53.9669 34.4916 55.0099 34.8861 55.9576C35.2807 56.9053 35.9461 57.7154 36.7992 58.2865C37.6521 58.8577 38.6546 59.1643 39.6812 59.1681C40.3796 59.1848 41.0741 59.0582 41.7217 58.7963C42.3693 58.5343 42.9565 58.1425 43.447 57.6449C43.9374 57.1474 44.3207 56.5547 44.5733 55.9033C44.8259 55.2519 44.9424 54.5557 44.9156 53.8576H44.9145Z" fill="black"/>
<path d="M66.6936 57.8599C66.6936 62.016 63.0767 64.0164 58.9589 64.0164C55.1101 64.0164 52.2631 62.4006 50.8779 59.4374L55.1878 57.013C55.7267 58.5904 57.0325 59.5139 58.9594 59.5139C60.5369 59.5139 61.6147 58.9757 61.6147 57.8593C61.6147 55.0498 51.6868 56.5893 51.6868 49.8164C51.6868 45.8911 55.0347 43.6976 58.9979 43.6976C60.4727 43.6478 61.9331 44.0016 63.2213 44.7207C64.51 45.4398 65.5779 46.497 66.3094 47.7783L62.0764 50.0876C61.8182 49.4901 61.387 48.9838 60.8382 48.634C60.2895 48.2842 59.6485 48.1068 58.9979 48.1249C57.7682 48.1249 56.7659 48.6638 56.7659 49.7024C56.7653 52.5494 66.6936 50.779 66.6936 57.8599Z" fill="black"/>
</svg>
