<svg xmlns="http://www.w3.org/2000/svg" xmlns:xlink="http://www.w3.org/1999/xlink" width="120" height="75" viewBox="0 0 120 75">
  <defs>
    <clipPath id="clip-movistar">
      <rect width="120" height="75"/>
    </clipPath>
  </defs>
  <g id="movistar" clip-path="url(#clip-movistar)">
    <rect width="120" height="75" fill="#fff"/>
    <path id="movistar-3" d="M22.048,17.824c-2.716.043-7.729,1.383-10.019,10.735A31.894,31.894,0,0,0,11.5,41.937a51.187,51.187,0,0,0,3.123,10.905,9.777,9.777,0,0,0,1.215,2.053,3.264,3.264,0,0,0,3.754.936c.851-.418,1.828-1.431,1.474-3.74a30.747,30.747,0,0,0-.942-3.655c-.852-2.783-1.987-6.143-2.086-8.535-.133-3.2,1.13-3.62,1.968-3.8,1.41-.309,2.591,1.237,3.714,3.177,1.34,2.315,3.636,6.416,5.509,9.548a10.713,10.713,0,0,0,9.82,5.648c5.108-.212,8.873-2.16,10.814-8.3A101.483,101.483,0,0,1,53.895,34.64c1.831-4.039,4.273-6.2,6.329-5.541,1.91.612,2.386,2.479,2.408,5.222a61.608,61.608,0,0,1-.479,7.066,20.173,20.173,0,0,0-.163,2.945c.115,1.565.793,3.129,2.556,3.379,1.878.266,3.386-1.234,3.987-3.049a16.9,16.9,0,0,0,.55-2.586,46.617,46.617,0,0,0,.447-10.569,37.864,37.864,0,0,0-2.81-12.673c-1.532-3.541-3.993-5.81-7.149-6.01-3.5-.22-7.505,2.1-9.609,6.6-1.939,4.145-3.49,8.4-4.43,10.574-.955,2.2-2.357,3.56-4.514,3.788-2.637.277-4.908-1.636-6.573-4.365-1.45-2.379-4.326-6.907-5.864-8.43-1.444-1.431-3.094-3.219-6.531-3.165Z" transform="translate(19.972 2.531)" fill="#00a9e0"/>
  </g>
</svg>
