<svg width="143" height="62" viewBox="0 0 143 62" fill="none" xmlns="http://www.w3.org/2000/svg">
<path fill-rule="evenodd" clip-rule="evenodd" d="M140.185 19.5363C140.316 19.4005 140.49 19.3154 140.678 19.2963C140.874 19.2963 141 19.4479 141 19.7321C141 21.6269 131.671 32.6483 128.936 35.2378C126.701 37.3726 125.109 38.7432 124.187 38.7432C123.884 38.7432 123.694 38.5916 123.694 38.2253C123.694 36.8042 125.797 33.0588 125.797 33.0588V32.9514L121.907 36.4379C121.087 37.1796 120.025 37.5972 118.919 37.6126C117.113 37.6126 115.547 36.1726 115.547 32.863V15.1151C115.535 14.9657 115.556 14.8155 115.608 14.675C115.661 14.5345 115.743 14.407 115.849 14.3013C115.955 14.1956 116.083 14.1143 116.224 14.0628C116.365 14.0114 116.515 13.9912 116.665 14.0035C117.102 14.0337 117.525 14.1774 117.89 14.4204C121.56 16.9391 124.634 20.2311 126.896 24.0649C127.292 24.7155 127.5 25.4633 127.496 26.2249C127.496 28.5303 125.671 30.8608 123.776 32.9514V33.0841L140.185 19.5363Z" fill="#E57200"/>
<path fill-rule="evenodd" clip-rule="evenodd" d="M33.8305 36.3242V38.5664C33.8305 38.8822 33.6789 39.0085 33.1989 39.0969C32.4247 39.2462 31.6379 39.3202 30.8494 39.318C28.7525 39.318 28.064 38.7369 28.064 37.739C28.0555 37.5692 28.0813 37.3995 28.1399 37.24C28.1985 37.0804 28.2887 36.9344 28.4051 36.8105C28.9334 36.4201 29.5908 36.2461 30.243 36.3242H33.8305ZM36.8559 41.7622C37.1958 41.6449 37.4834 41.4115 37.6682 41.1031C37.8531 40.7947 37.9233 40.4309 37.8664 40.0759V33.9052C37.8664 31.4609 37.4433 30.0461 36.4201 29.0608C35.3969 28.0755 33.5652 27.545 30.6725 27.545C29.3398 27.5262 28.008 27.6277 26.6935 27.8482C26.4998 27.8586 26.3104 27.9091 26.1372 27.9964C25.964 28.0838 25.8108 28.2061 25.6874 28.3557C25.5639 28.5053 25.4728 28.6789 25.4199 28.8655C25.3669 29.0521 25.3533 29.2476 25.3797 29.4398C25.3785 30.0164 25.4165 30.5925 25.4934 31.164C25.5313 31.4167 25.664 31.4988 25.9861 31.4483C27.4078 31.2311 28.8429 31.1129 30.2809 31.0946C31.9799 31.0946 32.8452 31.2019 33.3379 31.5809C33.5394 31.7722 33.6918 32.0093 33.782 32.2721C33.8722 32.535 33.8975 32.8157 33.8558 33.0904V33.5831C32.6493 33.4253 31.4344 33.3409 30.2178 33.3304C27.8619 33.3304 26.2008 33.7852 25.165 34.7452C24.7583 35.1609 24.4414 35.6557 24.2338 36.1989C24.0263 36.7421 23.9327 37.3222 23.9586 37.9032C23.9839 40.8085 26.0492 42.7033 30.7925 42.7033C32.8614 42.7467 34.9219 42.4282 36.8811 41.7622H36.8559Z" fill="#004571"/>
<path fill-rule="evenodd" clip-rule="evenodd" d="M73.0464 33.8609C73.0464 32.7177 73.2106 32.1998 73.5643 31.8146C73.918 31.4293 74.6254 31.183 75.6865 31.183C76.0907 31.183 76.7097 31.2209 77.3918 31.2777C77.7265 31.2777 77.8402 31.1956 77.8907 30.924C77.9772 30.4382 78.0216 29.9458 78.0234 29.4524C78.0234 28.6376 77.7897 28.1892 77.1833 27.9176C76.3165 27.6099 75.3994 27.4685 74.4801 27.5007C73.0249 27.4203 71.5922 27.8866 70.4632 28.8082C69.5473 29.6355 68.9915 30.8798 68.9915 33.0904V41.9833C68.9843 42.0389 68.9899 42.0955 69.008 42.1486C69.0261 42.2017 69.0561 42.2499 69.0958 42.2896C69.1354 42.3293 69.1837 42.3593 69.2368 42.3774C69.2899 42.3954 69.3464 42.4011 69.4021 42.3938H73.0274L73.0464 33.8609Z" fill="#004571"/>
<path fill-rule="evenodd" clip-rule="evenodd" d="M44.8077 27.8292V23.5217H41.5423C40.9549 23.5217 40.7718 23.7617 40.7718 24.2796V37.4042C40.7718 39.3432 41.2076 40.4737 42.035 41.2885C42.5778 41.78 43.2133 42.1582 43.9041 42.4011C44.5949 42.6441 45.3272 42.7468 46.0582 42.7033C47.3465 42.6955 48.6201 42.4292 49.8036 41.9201C50.612 41.5664 50.89 41.2317 50.89 40.7011C50.8826 40.4651 50.8422 40.2312 50.77 40.0064C50.6361 39.5408 50.4758 39.0832 50.2899 38.6358C50.2141 38.4653 50.1384 38.3832 49.9868 38.3832C49.9093 38.3876 49.8328 38.4024 49.7594 38.4274C48.7775 38.7345 47.7613 38.9191 46.734 38.9769C46.4677 39.0068 46.1981 38.9818 45.9417 38.9036C45.6854 38.8254 45.4478 38.6956 45.2435 38.5221C44.8887 38.0433 44.7326 37.4459 44.8077 36.8547V31.4861H48.553C49.1278 31.4861 49.4373 31.3408 49.6204 31.0124C49.8139 30.5583 49.8962 30.0646 49.8605 29.5724C49.8601 29.0946 49.8243 28.6174 49.7531 28.145C49.7089 27.9113 49.5889 27.8292 49.3046 27.8292H44.8077Z" fill="#004571"/>
<path fill-rule="evenodd" clip-rule="evenodd" d="M66.1873 27.8292H62.9219C62.3345 27.8292 62.1513 28.0692 62.1513 28.5934V36.2168C62.1879 36.5818 62.1509 36.9504 62.0424 37.3008C61.9339 37.6513 61.7562 37.9764 61.5197 38.2568C60.9291 38.7157 60.2024 38.9648 59.4544 38.9648C58.7065 38.9648 57.9798 38.7157 57.3891 38.2568C57.1514 37.9771 56.9729 37.6521 56.8644 37.3015C56.7558 36.9509 56.7195 36.5819 56.7575 36.2168V27.8292H53.4921C52.9048 27.8292 52.7216 28.0692 52.7216 28.5934V36.7473C52.676 37.5068 52.7858 38.2677 53.0443 38.9833C53.3027 39.699 53.7044 40.3544 54.2248 40.9096C55.3743 42.0717 57.1996 42.7033 59.4481 42.7033C61.6966 42.7033 63.5219 42.0717 64.6841 40.9096C65.2044 40.3544 65.6061 39.699 65.8646 38.9833C66.123 38.2677 66.2328 37.5068 66.1873 36.7473V27.8292Z" fill="#004571"/>
<path fill-rule="evenodd" clip-rule="evenodd" d="M86.0573 48.0908C88.8427 48.0908 90.6996 47.4592 91.887 46.196C92.9797 45.0591 93.466 43.4107 93.466 41.2569V34.6315C93.466 32.3577 92.8344 30.7029 91.7291 29.5787C90.2818 28.2169 88.3531 27.4854 86.3668 27.5449C81.8067 27.5449 78.9203 30.4313 78.9203 35.1241C78.9203 39.5453 81.2509 42.5075 85.3815 42.5075C86.136 42.5319 86.8869 42.3927 87.5824 42.0994C88.278 41.8061 88.9019 41.3657 89.4111 40.8085V41.4401C89.4576 41.833 89.4257 42.2312 89.3172 42.6118C89.2088 42.9923 89.0261 43.3475 88.7795 43.657C88.2111 44.2507 87.0742 44.5096 85.4573 44.5096C84.2581 44.4897 83.0617 44.3884 81.8762 44.2065C81.4909 44.1496 81.2446 44.3012 81.1751 44.7749C81.1185 45.2402 81.089 45.7084 81.0867 46.1771C81.0867 47.1434 81.3709 47.5729 82.4509 47.794C83.6411 48.006 84.8484 48.1074 86.0573 48.0971V48.0908ZM89.4111 34.5873V34.9978C89.4111 36.4315 89.1206 37.5242 88.4637 38.1558C88.1759 38.4388 87.8326 38.659 87.4553 38.8025C87.0781 38.946 86.6752 39.0096 86.2721 38.9895C83.9983 38.9895 83.0573 37.4294 83.0573 35.0988C83.0573 32.4461 84.3773 31.2335 86.2658 31.2335C87.1047 31.2033 87.9217 31.5052 88.5395 32.0735C88.847 32.4119 89.0828 32.8091 89.2326 33.2412C89.3824 33.6732 89.4431 34.1311 89.4111 34.5873" fill="#004571"/>
<path fill-rule="evenodd" clip-rule="evenodd" d="M21.2491 22.909V40.4106C21.2727 40.6708 21.2447 40.933 21.1666 41.1823C21.0886 41.4316 20.9621 41.663 20.7943 41.8633C20.1657 42.3323 19.3821 42.5446 18.6027 42.457C18.0528 42.4588 17.505 42.3887 16.9732 42.2486C16.618 42.1493 16.3107 41.925 16.1079 41.617C13.5815 38.1937 10.1709 33.5199 7.26551 29.5092V41.8001C7.26551 42.2486 7.13288 42.3938 6.63392 42.3938H3.00854V24.8923C2.98424 24.6321 3.01192 24.3696 3.08999 24.1202C3.16806 23.8709 3.29496 23.6395 3.46329 23.4396C3.88646 23.0101 4.62543 22.8459 5.65494 22.8459C6.20502 22.8416 6.75317 22.9117 7.28446 23.0543C7.63994 23.1495 7.94658 23.375 8.14343 23.6859C10.3793 26.7302 13.8278 31.4419 16.9858 35.8315V23.4964C16.9858 23.0669 17.169 22.909 17.6174 22.909H21.2491Z" fill="#004571"/>
<path fill-rule="evenodd" clip-rule="evenodd" d="M98.5566 44.2318C98.1208 44.1686 97.925 44.4213 97.8619 44.8066C97.8022 45.2716 97.7705 45.7398 97.7671 46.2087C97.7671 47.0993 98.0135 47.5793 99.1061 47.8003C100.289 47.9998 101.487 48.097 102.687 48.0909C105.264 48.0909 107.039 47.4593 108.132 46.2466C109.224 45.0339 109.692 43.297 109.692 40.8401V27.8292H106.351C105.871 27.8292 105.649 28.0945 105.649 28.5934V35.68C105.736 36.5651 105.489 37.4508 104.955 38.1621C104.666 38.4467 104.32 38.667 103.94 38.8085C103.561 38.9501 103.155 39.0096 102.75 38.9832C102.403 39.0128 102.053 38.9659 101.726 38.8459C101.399 38.7259 101.102 38.5356 100.856 38.2885C100.42 37.7958 100.224 37.1074 100.224 35.9326V27.8292H96.9019C96.8031 27.8148 96.7023 27.8239 96.6078 27.856C96.5133 27.888 96.4277 27.942 96.3581 28.0134C96.2884 28.0849 96.2367 28.1719 96.2072 28.2672C96.1777 28.3626 96.1711 28.4635 96.1881 28.5619V36.3242C96.1881 38.4906 96.6808 39.9306 97.6598 40.9475C98.2208 41.4852 98.8868 41.9012 99.616 42.1697C100.345 42.4381 101.122 42.5531 101.898 42.5075C102.586 42.523 103.271 42.3989 103.91 42.1427C104.55 41.8865 105.13 41.5036 105.618 41.017V41.3959C105.697 42.1811 105.5 42.9692 105.062 43.6255C104.55 44.2571 103.59 44.5223 101.904 44.5223C100.766 44.5041 99.6307 44.407 98.5061 44.2318" fill="#004571"/>
</svg>
