<svg width="100" height="100" viewBox="0 0 100 100" fill="none" xmlns="http://www.w3.org/2000/svg">
<path fill-rule="evenodd" clip-rule="evenodd" d="M94.8955 24.0957C95.3932 23.5782 96.0584 23.2542 96.7726 23.1812C97.5187 23.1812 98 23.7588 98 24.8418C98 32.0618 62.4536 74.058 52.0328 83.9253C43.5132 92.0598 37.4484 97.2823 33.9347 97.2823C32.7795 97.2823 32.0575 96.7047 32.0575 95.3088C32.0575 89.8938 40.0716 75.6223 40.0716 75.6223V75.2132L25.2466 88.498C22.1225 91.3243 18.0756 92.9157 13.8631 92.9743C6.98009 92.9743 1.01158 87.4872 1.01158 74.8762V7.24908C0.967859 6.6796 1.04824 6.10742 1.2472 5.57204C1.44615 5.03666 1.75894 4.55085 2.16394 4.14813C2.56895 3.74541 3.05651 3.43539 3.59301 3.23947C4.12951 3.04355 4.70213 2.96641 5.27135 3.01336C6.93918 3.12843 8.54829 3.67586 9.94028 4.60175C23.9257 14.1993 35.6397 26.743 44.2593 41.3515C45.7679 43.8308 46.5593 46.68 46.5456 49.5822C46.5456 58.3666 39.5904 67.2471 32.3704 75.2132V75.7186L94.8955 24.0957Z" fill="#E57200"/>
</svg>
