<svg width="143" height="62" viewBox="0 0 143 62" fill="none" xmlns="http://www.w3.org/2000/svg">
<path d="M14 0.609497H130.804C130.803 39.6471 130.807 22.5707 130.804 61.6083C91.8704 61.6107 52.934 61.6083 14 61.6095V0.609497ZM115.133 29.2047C115.128 29.453 115.127 29.7025 115.132 29.952C115.69 29.9484 116.25 29.9508 116.808 29.9508C116.812 31.5044 116.808 33.0581 116.811 34.6129C117.116 34.6105 117.421 34.6105 117.726 34.6117C117.726 33.0581 117.724 31.5044 117.727 29.9508C118.286 29.9508 118.848 29.9496 119.407 29.9508C119.406 29.7025 119.406 29.4554 119.407 29.2071C117.982 29.2047 116.558 29.2095 115.133 29.2047ZM120.472 29.2059C120.469 31.0078 120.469 32.8098 120.472 34.6117C120.776 34.6117 121.08 34.6117 121.385 34.6117C121.391 33.1352 121.375 31.6599 121.394 30.1834C122.006 31.6467 122.558 33.134 123.141 34.6081C123.336 34.6093 123.533 34.6093 123.732 34.6093C124.32 33.1292 124.88 31.6382 125.484 30.1653C125.495 31.6467 125.487 33.1292 125.49 34.6117C125.793 34.6105 126.096 34.6105 126.4 34.6141C126.411 32.8122 126.401 31.0103 126.405 29.2083C125.942 29.2047 125.479 29.2059 125.018 29.2083C124.503 30.5619 123.977 31.9118 123.456 33.263C122.93 31.9094 122.395 30.5595 121.869 29.2059C121.403 29.2071 120.936 29.2059 120.472 29.2059ZM27.8647 34.9685C25.5915 35.0601 23.3026 36.0906 21.949 37.9649C20.7847 39.5354 20.3194 41.5314 20.3291 43.4635C20.2941 45.2823 20.6606 47.1554 21.632 48.7139C22.4191 49.9891 23.6244 50.9895 25.0105 51.5512C26.6811 52.2298 28.5541 52.3515 30.3139 51.9887C31.9459 51.6524 33.4911 50.7966 34.5542 49.4985C35.5136 48.3499 36.0693 46.9059 36.2959 45.4354C36.5405 43.7275 36.4754 41.9533 35.9716 40.2972C35.4991 38.7447 34.5409 37.3309 33.2091 36.3968C31.6675 35.3024 29.7329 34.8684 27.8647 34.9685ZM43.4229 37.2743C43.4253 36.6427 43.4253 36.0111 43.4229 35.3807C42.0621 35.3807 40.7013 35.3735 39.3405 35.3855C39.3477 40.8287 39.3417 46.2719 39.3441 51.7151C40.8025 51.7211 42.2609 51.7151 43.7194 51.7187C43.7266 48.1052 43.7109 44.4905 43.7278 40.8781C43.9062 40.3466 44.3931 39.9621 44.8789 39.7102C45.9938 39.1799 47.257 39.1341 48.4683 39.1232C48.4683 37.7733 48.4671 36.4233 48.4695 35.0746C46.5603 34.8962 44.6523 35.8411 43.4229 37.2743ZM54.1309 35.5169C52.6459 35.9918 51.3213 36.9561 50.4269 38.2385C51.3924 38.8038 52.3675 39.3534 53.3402 39.9055C54.1694 38.8761 55.3952 38.1662 56.7211 38.0613C57.6696 37.9794 58.8063 38.0276 59.4836 38.7978C59.9634 39.3486 59.8235 40.1188 59.8416 40.7877C57.6142 41.0505 55.3663 41.4169 53.2908 42.3004C52.1192 42.809 50.9766 43.5383 50.2847 44.6447C49.5121 45.8862 49.4338 47.4736 49.864 48.8489C50.2136 49.9831 51.0549 50.9521 52.1373 51.4379C53.3775 52.0152 54.7962 51.9839 56.1184 51.773C57.437 51.5524 58.7002 51.0377 59.8175 50.3037C59.9417 50.775 60.0658 51.245 60.1912 51.7175C61.4676 51.7163 62.744 51.7175 64.0204 51.7175C63.9734 47.9425 64.0036 44.165 63.9987 40.39C64.0747 39.2775 63.865 38.0999 63.1671 37.2043C62.2595 35.993 60.7564 35.4193 59.3089 35.1879C57.5877 34.9408 55.7966 34.9842 54.1309 35.5169ZM75.4371 35.1662C73.9076 35.482 72.5685 36.3426 71.3198 37.2441C71.1945 36.6053 71.0498 35.9689 70.9365 35.3289C69.7445 35.4916 68.5512 35.6567 67.3591 35.8243C67.3567 41.1144 67.3591 46.4033 67.3591 51.6922C68.785 51.6934 70.2097 51.6922 71.6368 51.6922C71.6368 47.793 71.6368 43.895 71.6368 39.9971C72.6468 39.1558 73.8027 38.3892 75.1358 38.2228C75.8072 38.1481 76.5955 38.1879 77.0848 38.7194C77.5681 39.2847 77.6453 40.0694 77.6682 40.7841C77.6706 44.4206 77.6694 48.0558 77.6694 51.6922C79.1037 51.6946 80.538 51.6922 81.9723 51.6922C81.9723 47.8243 81.9723 43.9565 81.9723 40.0887C81.9555 39.3124 81.8494 38.5302 81.5818 37.7998C81.2335 36.8174 80.5115 35.9677 79.5581 35.5362C78.2769 34.954 76.8016 34.907 75.4371 35.1662ZM86.6164 37.543C85.305 39.3185 84.8458 41.5881 84.888 43.7625C84.9061 45.7464 85.346 47.8231 86.6032 49.4045C87.5999 50.6906 89.1536 51.4837 90.7591 51.6524C91.9306 51.7645 93.1829 51.7151 94.2304 51.1185C94.9584 50.7123 95.4706 50.0301 95.9009 49.3322C95.9347 50.0192 95.9106 50.7075 95.9178 51.3945C95.8901 52.3045 95.7575 53.2953 95.1283 54.0016C94.5546 54.6392 93.6603 54.8646 92.831 54.867C91.9596 54.879 91.0182 54.8489 90.2637 54.3583C89.8876 54.1161 89.6948 53.6918 89.5839 53.2748C88.1689 53.5026 86.755 53.7316 85.34 53.9594C85.5967 55.2804 86.5176 56.4014 87.6831 57.0353C89.5031 58.0478 91.6667 58.1599 93.6964 57.9646C95.4562 57.7887 97.3148 57.2873 98.5695 55.9626C99.694 54.7742 100.046 53.0819 100.071 51.4933C100.071 46.1056 100.071 40.719 100.071 35.3313C98.8576 35.3385 97.6438 35.3132 96.4313 35.3446C96.3373 35.946 96.2191 36.545 96.1143 37.1465C95.7382 36.3667 95.0054 35.8255 94.2195 35.5073C93.1866 35.0842 92.0476 34.9842 90.9399 35.048C89.2187 35.1782 87.6229 36.1533 86.6164 37.543ZM104.51 37.4201C103.329 38.8267 102.803 40.6696 102.671 42.4764C102.545 44.4483 102.729 46.5045 103.629 48.292C104.327 49.6853 105.525 50.8268 106.975 51.4029C108.838 52.1538 110.928 52.1466 112.868 51.7356C114.768 51.3197 116.555 50.1783 117.522 48.4571C116.467 47.8774 115.414 47.2916 114.364 46.7034C113.893 47.3796 113.319 48.0124 112.575 48.3872C111.738 48.8139 110.76 48.8681 109.845 48.7356C108.959 48.6066 108.122 48.1184 107.638 47.3555C107.042 46.4178 106.878 45.2727 106.87 44.1795C110.472 44.1819 114.075 44.1795 117.679 44.1807C117.8 42.7428 117.663 41.2771 117.249 39.8946C116.795 38.3952 115.872 37.0067 114.539 36.1593C112.904 35.1011 110.862 34.8721 108.965 35.0951C107.267 35.3 105.609 36.0834 104.51 37.4201Z" fill="#FF6600"/>
<path d="M107.87 38.9074C108.39 38.318 109.167 38.001 109.942 37.954C110.93 37.8805 112.009 38.1577 112.684 38.9255C113.28 39.5896 113.479 40.5081 113.502 41.3795C111.313 41.3783 109.124 41.3819 106.936 41.3771C107.007 40.4924 107.265 39.58 107.87 38.9074Z" fill="#FF6600"/>
<path d="M91.862 38.1396C92.8697 37.954 93.9665 38.2782 94.68 39.0243C95.5189 39.8825 95.86 41.1035 95.9324 42.2762C95.9661 43.1356 95.93 44.001 95.7938 44.8508C95.6407 45.7463 95.3394 46.6624 94.6933 47.3241C94.1051 47.9231 93.2493 48.1967 92.4237 48.1762C91.6547 48.2003 90.8447 47.9557 90.312 47.3759C89.596 46.6371 89.3586 45.5836 89.2429 44.5928C89.1489 43.584 89.1211 42.5631 89.2537 41.5567C89.3791 40.672 89.6527 39.7728 90.2433 39.0834C90.6543 38.5952 91.2341 38.2541 91.862 38.1396Z" fill="#FF6600"/>
<path d="M27.6888 38.6577C28.7326 38.5022 29.9005 38.6746 30.7177 39.3917C31.4855 40.0534 31.8592 41.0526 32.0267 42.0289C32.2039 43.127 32.1966 44.2576 31.9833 45.3484C31.788 46.3066 31.3614 47.2732 30.5659 47.8771C29.6787 48.5376 28.4891 48.6557 27.4308 48.4376C26.5666 48.2616 25.7988 47.6987 25.3577 46.9346C24.7213 45.8281 24.5815 44.5143 24.608 43.2584C24.649 42.1302 24.8479 40.9562 25.4903 40.004C25.9881 39.264 26.8077 38.7734 27.6888 38.6577Z" fill="#FF6600"/>
<path d="M55.8784 44.2989C57.0982 43.7939 58.4132 43.5697 59.7162 43.4045C59.721 44.6774 59.7137 45.9514 59.7198 47.2254C58.6302 48.2041 57.2404 48.9731 55.7422 48.9454C55.2396 48.9586 54.7418 48.7441 54.3995 48.3789C53.7474 47.6448 53.6534 46.4829 54.1585 45.644C54.5345 44.9943 55.2083 44.5906 55.8784 44.2989Z" fill="#FF6600"/>
<path d="M115.133 29.2047C116.558 29.2095 117.982 29.2047 119.407 29.2071C119.406 29.4554 119.406 29.7025 119.407 29.9508C118.848 29.9496 118.286 29.9508 117.727 29.9508C117.724 31.5044 117.726 33.0581 117.726 34.6117C117.421 34.6105 117.116 34.6105 116.811 34.6129C116.808 33.0581 116.812 31.5044 116.808 29.9508C116.25 29.9508 115.69 29.9484 115.132 29.952C115.127 29.7025 115.128 29.453 115.133 29.2047Z" fill="white"/>
<path d="M120.472 29.2059C120.936 29.2059 121.403 29.2071 121.869 29.2059C122.395 30.5595 122.93 31.9094 123.456 33.263C123.977 31.9119 124.503 30.5619 125.018 29.2083C125.479 29.2059 125.942 29.2047 126.405 29.2083C126.401 31.0103 126.411 32.8122 126.4 34.6142C126.096 34.6105 125.793 34.6105 125.49 34.6118C125.487 33.1292 125.495 31.6467 125.484 30.1654C124.88 31.6383 124.32 33.1292 123.732 34.6093C123.533 34.6093 123.336 34.6093 123.141 34.6081C122.558 33.134 122.006 31.6467 121.395 30.1834C121.375 31.6599 121.391 33.1352 121.385 34.6118C121.08 34.6118 120.776 34.6118 120.472 34.6118C120.469 32.8098 120.469 31.0079 120.472 29.2059Z" fill="white"/>
<path d="M27.8647 34.9684C29.7329 34.8684 31.6674 35.3023 33.209 36.3967C34.5409 37.3308 35.4991 38.7447 35.9716 40.2971C36.4754 41.9532 36.5405 43.7274 36.2958 45.4353C36.0692 46.9058 35.5136 48.3498 34.5541 49.4985C33.4911 50.7966 31.9458 51.6523 30.3139 51.9886C28.5541 52.3514 26.681 52.2297 25.0105 51.5511C23.6244 50.9894 22.4191 49.989 21.632 48.7138C20.6605 47.1553 20.2941 45.2823 20.329 43.4635C20.3194 41.5313 20.7847 39.5353 21.949 37.9648C23.3026 36.0906 25.5914 35.06 27.8647 34.9684ZM27.6887 38.6579C26.8076 38.7736 25.988 39.2642 25.4902 40.0042C24.8478 40.9564 24.6489 42.1304 24.6079 43.2586C24.5814 44.5145 24.7212 45.8283 25.3576 46.9348C25.7988 47.6989 26.5665 48.2618 27.4307 48.4378C28.489 48.6559 29.6787 48.5378 30.5658 47.8773C31.3613 47.2734 31.788 46.3068 31.9832 45.3486C32.1966 44.2578 32.2038 43.1272 32.0266 42.0291C31.8591 41.0528 31.4854 40.0536 30.7176 39.3919C29.9004 38.6748 28.7325 38.5024 27.6887 38.6579Z" fill="white"/>
<path d="M43.4228 37.2742C44.6522 35.8411 46.5602 34.8962 48.4694 35.0746C48.467 36.4233 48.4682 37.7732 48.4682 39.1232C47.2569 39.134 45.9937 39.1798 44.8788 39.7102C44.3931 39.9621 43.9061 40.3466 43.7277 40.8781C43.7109 44.4905 43.7265 48.1052 43.7193 51.7187C42.2609 51.7151 40.8024 51.7211 39.344 51.7151C39.3416 46.2719 39.3476 40.8287 39.3404 35.3855C40.7012 35.3735 42.062 35.3807 43.4228 35.3807C43.4252 36.0111 43.4252 36.6427 43.4228 37.2742Z" fill="white"/>
<path d="M54.1308 35.517C55.7966 34.9842 57.5877 34.9408 59.3088 35.1879C60.7564 35.4193 62.2595 35.9931 63.1671 37.2044C63.8649 38.0999 64.0747 39.2775 63.9987 40.39C64.0035 44.1651 63.9734 47.9425 64.0204 51.7176C62.744 51.7176 61.4676 51.7164 60.1911 51.7176C60.0658 51.2451 59.9416 50.775 59.8175 50.3037C58.7002 51.0378 57.437 51.5524 56.1184 51.773C54.7962 51.9839 53.3775 52.0153 52.1372 51.4379C51.0549 50.9522 50.2136 49.9831 49.864 48.8489C49.4337 47.4737 49.5121 45.8863 50.2847 44.6448C50.9765 43.5383 52.1192 42.8091 53.2907 42.3005C55.3663 41.417 57.6142 41.0506 59.8416 40.7878C59.8235 40.1188 59.9633 39.3486 59.4836 38.7978C58.8062 38.0276 57.6696 37.9794 56.721 38.0614C55.3952 38.1662 54.1694 38.8762 53.3401 39.9055C52.3675 39.3535 51.3924 38.8038 50.4269 38.2386C51.3212 36.9561 52.6459 35.9919 54.1308 35.517ZM55.8785 44.2989C55.2084 44.5906 54.5346 44.9943 54.1585 45.644C53.6535 46.4829 53.7475 47.6448 54.3996 48.3788C54.7419 48.7441 55.2397 48.9586 55.7423 48.9453C57.2405 48.9731 58.6303 48.2041 59.7199 47.2254C59.7138 45.9513 59.7211 44.6773 59.7162 43.4045C58.4133 43.5697 57.0983 43.7938 55.8785 44.2989Z" fill="white"/>
<path d="M75.4372 35.1661C76.8016 34.9069 78.2769 34.9539 79.5581 35.5361C80.5115 35.9676 81.2335 36.8173 81.5818 37.7997C81.8494 38.5301 81.9555 39.3123 81.9724 40.0886C81.9724 43.9564 81.9724 47.8243 81.9724 51.6921C80.538 51.6921 79.1037 51.6945 77.6694 51.6921C77.6694 48.0557 77.6706 44.4205 77.6682 40.784C77.6453 40.0693 77.5681 39.2846 77.0848 38.7193C76.5955 38.1878 75.8072 38.148 75.1358 38.2227C73.8028 38.3891 72.6469 39.1556 71.6368 39.997C71.6368 43.8949 71.6368 47.7929 71.6368 51.6921C70.2097 51.6921 68.785 51.6933 67.3592 51.6921C67.3592 46.4032 67.3568 41.1143 67.3592 35.8242C68.5512 35.6566 69.7445 35.4915 70.9365 35.3288C71.0498 35.9688 71.1945 36.6052 71.3198 37.244C72.5685 36.3424 73.9076 35.4819 75.4372 35.1661Z" fill="white"/>
<path d="M86.6164 37.543C87.6229 36.1533 89.2187 35.1782 90.9399 35.048C92.0476 34.9841 93.1866 35.0842 94.2195 35.5073C95.0054 35.8255 95.7382 36.3666 96.1143 37.1465C96.2191 36.545 96.3373 35.946 96.4313 35.3445C97.6438 35.3132 98.8576 35.3385 100.071 35.3313C100.071 40.719 100.071 46.1056 100.071 51.4933C100.046 53.0819 99.6941 54.7742 98.5695 55.9626C97.3148 57.2872 95.4562 57.7886 93.6964 57.9646C91.6667 58.1599 89.5032 58.0478 87.6831 57.0353C86.5176 56.4013 85.5967 55.2804 85.34 53.9594C86.755 53.7316 88.1689 53.5026 89.5839 53.2748C89.6948 53.6918 89.8876 54.1161 90.2637 54.3583C91.0182 54.8489 91.9596 54.879 92.831 54.867C93.6603 54.8646 94.5546 54.6392 95.1283 54.0016C95.7575 53.2952 95.8901 52.3045 95.9178 51.3945C95.9106 50.7074 95.9347 50.0192 95.9009 49.3322C95.4706 50.0301 94.9584 50.7123 94.2304 51.1185C93.183 51.7151 91.9306 51.7645 90.7591 51.6524C89.1536 51.4837 87.6 50.6906 86.6032 49.4045C85.346 47.8231 84.9061 45.7464 84.888 43.7624C84.8458 41.5881 85.3051 39.3184 86.6164 37.543ZM91.8619 38.1397C91.234 38.2542 90.6542 38.5953 90.2432 39.0834C89.6526 39.7729 89.379 40.672 89.2537 41.5567C89.1211 42.5631 89.1488 43.584 89.2428 44.5929C89.3585 45.5837 89.596 46.6371 90.3119 47.376C90.8447 47.9557 91.6546 48.2004 92.4236 48.1763C93.2493 48.1968 94.105 47.9232 94.6932 47.3241C95.3393 46.6624 95.6406 45.7464 95.7937 44.8508C95.9299 44.0011 95.966 43.1357 95.9323 42.2763C95.86 41.1035 95.5189 39.8825 94.68 39.0244C93.9664 38.2783 92.8696 37.954 91.8619 38.1397Z" fill="white"/>
<path d="M104.511 37.4202C105.609 36.0835 107.267 35.3001 108.965 35.0951C110.862 34.8722 112.904 35.1012 114.539 36.1594C115.872 37.0068 116.795 38.3953 117.249 39.8947C117.663 41.2772 117.8 42.7429 117.679 44.1808C114.075 44.1796 110.472 44.182 106.871 44.1796C106.878 45.2728 107.042 46.4179 107.638 47.3556C108.122 48.1185 108.959 48.6067 109.845 48.7357C110.76 48.8683 111.738 48.814 112.575 48.3873C113.319 48.0125 113.893 47.3797 114.364 46.7035C115.414 47.2917 116.467 47.8775 117.522 48.4572C116.555 50.1784 114.768 51.3199 112.868 51.7357C110.928 52.1467 108.838 52.1539 106.975 51.403C105.525 50.8269 104.327 49.6855 103.629 48.2921C102.729 46.5046 102.545 44.4484 102.671 42.4765C102.803 40.6697 103.329 38.8268 104.511 37.4202ZM107.87 38.9076C107.265 39.5801 107.007 40.4925 106.936 41.3772C109.124 41.3821 111.313 41.3784 113.502 41.3796C113.479 40.5082 113.28 39.5898 112.684 38.9256C112.009 38.1578 110.93 37.8806 109.942 37.9541C109.167 38.0012 108.39 38.3182 107.87 38.9076Z" fill="white"/>
</svg>
