<svg width="100" height="100" viewBox="0 0 100 100" fill="none" xmlns="http://www.w3.org/2000/svg">
<path d="M96.8705 67.497C93.3235 69.541 89.0515 70.629 84.4535 70.629C73.457 70.629 64.314 64.392 62.58 53.779L56.3 69.99H43.963L37.723 53.8735C35.95 64.429 26.83 70.629 15.8635 70.629C15.0025 70.629 14.1525 70.5865 13.3165 70.511L21.192 99.9L99.9 78.809L96.8705 67.497Z" fill="#0A9828"/>
<path d="M76.958 50.2595C76.958 54.833 80.042 57.972 84.4535 57.972C88.865 57.972 91.9535 54.833 91.9535 50.2595C91.9534 49.6491 91.8898 49.0403 91.7635 48.443L91.5 47.457C90.523 44.551 88.011 42.442 84.4535 42.442C79.829 42.442 76.958 46.005 76.958 50.2595Z" fill="#0A9828"/>
<path d="M23.3625 50.2595C23.3625 46.005 20.4895 42.442 15.8625 42.442C11.2355 42.442 8.36255 46.005 8.36255 50.2595C8.36255 54.833 11.4485 57.972 15.8625 57.972C20.2765 57.972 23.3625 54.833 23.3625 50.2595Z" fill="#0A9828"/>
<path d="M29.8665 33.5875L28.4355 29.8905H43.6445L48.9625 48.133L50.124 52.2455C50.124 52.2455 50.719 50.101 51.3015 48.133L56.6215 29.8905H71.8305L70.3805 33.6405C74.2175 30.822 79.127 29.2555 84.454 29.2555C85.193 29.2555 85.9255 29.287 86.6455 29.345L78.808 0.0999756L0.0999756 21.189L3.18598 32.7C6.78598 30.4765 11.1615 29.25 15.8635 29.25C21.1585 29.2535 26.038 30.8025 29.8665 33.5875Z" fill="#0A9828"/>
</svg>
