<svg width="143" height="62" viewBox="0 0 143 62" fill="none" xmlns="http://www.w3.org/2000/svg">
<path d="M139.323 22.6841L137.863 27.3155L134.299 22.3192L130.93 23.9191L136.46 31.638C136.235 33.8274 135.702 35.4273 134.888 35.8484C133.429 36.6062 132.053 36.5781 131.295 36.5781V39.6657C132.867 39.8622 136.039 39.1885 136.909 38.6833C137.92 38.0939 138.874 37.8693 140.249 31.6942C140.305 31.3854 143 22.656 143 22.656L139.323 22.6841Z" fill="black"/>
<path d="M29.0969 24.0034C29.0407 23.8069 28.9846 23.6385 28.9004 23.4701C28.8162 23.3016 28.732 23.1332 28.6478 22.9929C28.3671 22.5157 27.9741 22.1508 27.4689 21.8421C27.132 21.6456 26.7672 21.4772 26.3461 21.3368C25.8128 21.1684 25.1953 21.0842 24.4936 21.0281C24.3252 21.0281 24.1568 21.0281 23.9603 21.0281C21.9955 21.0281 20.2552 21.2807 19.4131 21.7017C19.0202 21.8982 18.6553 22.1789 18.3184 22.5157C17.8974 22.9368 17.5325 23.4701 17.2238 24.0876C17.1676 24.1998 17.1115 24.3402 17.0553 24.4525C16.7466 25.2103 16.522 26.0805 16.4378 27.0067L15.5958 27.0629C15.5958 26.8664 15.5677 26.6699 15.5396 26.5015C15.4835 26.0524 15.3993 25.6594 15.287 25.2945C15.1467 24.8454 14.9502 24.4805 14.6976 24.1998C14.6976 24.1718 14.6695 24.1718 14.6695 24.1437C14.5292 24.0034 14.3888 23.863 14.2204 23.7788C13.7432 23.4701 13.1257 23.3297 12.3959 23.3297C11.9468 23.3016 11.5258 23.3016 11.0767 23.3016C10.6276 23.3016 10.1785 23.3016 9.75746 23.3297C9.3645 23.3578 8.94347 23.4139 8.55051 23.4701C8.15754 23.5262 7.73651 23.6104 7.34355 23.6946C6.97865 23.7788 6.64183 23.9472 6.33307 24.1718C6.2208 24.256 6.13659 24.3121 6.02431 24.3963C5.63135 24.7051 5.29452 25.0419 5.04191 25.2665L5.01384 23.7227L1.39296 24.0314C1.42103 24.2841 1.42103 24.5647 1.4491 24.8735C1.47717 25.3226 1.50524 25.8278 1.53331 26.3331C1.56138 26.8102 1.58944 27.3155 1.58944 27.7646C1.58944 28.8873 1.39296 32.6205 1 38.9079H4.48053C4.53667 38.0939 4.56474 37.3922 4.62087 36.7747C4.64894 36.4098 4.67701 36.0449 4.67701 35.7642C4.67701 35.7361 4.67701 35.7361 4.67701 35.708C4.70508 35.3993 4.70508 35.1467 4.73315 34.9221C4.73315 34.894 4.73315 34.8941 4.73315 34.866C4.73315 34.7537 4.76122 34.6414 4.76122 34.5572C5.8559 34.8379 7.00672 34.9783 8.15754 34.9783C9.53291 34.9502 10.8802 34.866 12.2556 34.6976C13.1819 34.5853 13.9397 34.052 14.5572 33.0415C14.7537 32.6766 14.9502 32.2837 15.0905 31.8907C15.1747 31.6942 15.2309 31.4977 15.287 31.2732C15.3432 31.0767 15.3993 30.8521 15.4274 30.6557L16.6905 30.5995C16.8027 31.0486 16.8869 31.4697 16.9711 31.8065C16.9992 31.9188 17.0273 32.003 17.0553 32.1152C17.1115 32.3117 17.1957 32.5082 17.2799 32.6766C17.336 32.7608 17.3641 32.845 17.4202 32.9292C17.8693 33.6871 18.543 34.2765 19.2728 34.6695C19.5254 34.8098 19.75 34.9221 20.0026 35.0063C20.4236 35.1747 21.0411 35.287 21.827 35.3712C22.1639 35.3993 22.5288 35.4274 22.9217 35.4274C23.1182 35.4274 23.3147 35.4274 23.5112 35.4274C25.3637 35.4274 27.1882 35.0905 28.9284 34.4169L28.5636 30.8241C28.1706 30.9644 27.7496 31.1048 27.3285 31.217C26.0935 31.5258 24.8023 31.6661 23.2866 31.7503C23.1463 31.7503 22.9779 31.7503 22.8375 31.7503C22.5568 31.7503 22.3042 31.7223 22.1077 31.6942C21.8832 31.6661 21.6867 31.61 21.5183 31.5539C21.3499 31.4977 21.2095 31.4135 21.0692 31.3293C20.4797 30.9364 20.2833 30.403 20.0026 29.982C20.3394 29.9539 20.6762 29.9259 21.013 29.8978C21.6867 29.8417 26.5707 29.6452 26.6549 29.6452C26.7391 29.6452 26.8233 29.6452 26.9075 29.6171C27.3566 29.561 27.7496 29.3926 28.0864 29.1119C28.2267 28.9996 28.339 28.8873 28.4513 28.747C28.6197 28.5505 28.732 28.326 28.8442 27.9891C28.8723 27.9049 28.9004 27.7927 28.9284 27.6804C28.9565 27.512 29.0127 27.3155 29.0407 27.0909C29.0688 26.9506 29.0688 26.8102 29.0969 26.6418C29.0969 26.6138 29.0969 26.6138 29.0969 26.5857C29.1249 26.4173 29.1249 26.2489 29.1249 26.0243C29.1249 25.912 29.1249 25.7717 29.153 25.6594C29.153 25.5471 29.153 25.4349 29.153 25.3226C29.2653 24.8174 29.2091 24.3963 29.0969 24.0034ZM8.43823 27.0067C8.99961 26.9506 9.53291 26.9225 10.0943 26.9225C10.375 26.9225 10.6557 26.9225 10.9364 26.9225C11.217 26.9225 11.4977 26.9225 11.7784 26.9225C12.4521 26.9225 12.7889 27.3716 12.7889 28.326C12.7889 28.4102 12.7889 28.4944 12.7608 28.6347C12.7608 28.8312 12.7328 29.0838 12.7328 29.4206C12.7047 29.7013 12.6485 29.9539 12.5363 30.2066C12.424 30.4592 12.2556 30.6837 12.0591 30.8802C12.031 30.9083 11.9749 30.9364 11.9468 30.9644C11.8626 31.0206 11.7223 31.1048 11.4977 31.1609C11.4697 31.1609 11.4135 31.189 11.3855 31.189C11.1048 31.2451 10.7118 31.3012 10.1504 31.3012C9.98201 31.3012 9.78553 31.3012 9.56098 31.3293C9.44871 31.3293 9.33643 31.3293 9.22416 31.3574C8.88733 31.3855 8.5505 31.3855 8.18561 31.4135C7.84879 31.4416 7.48389 31.4416 7.17513 31.4416C6.64183 31.4416 6.19273 31.4135 5.88397 31.3574C5.74363 31.3293 5.63135 31.2732 5.57521 31.2451C5.51908 31.217 5.49101 31.1328 5.43487 31.0206C5.4068 30.9644 5.4068 30.9083 5.37873 30.8241C5.26646 30.3188 5.23839 29.5048 5.26646 28.8312C5.26646 28.6347 5.29453 28.4663 5.29453 28.2979C5.32259 27.9891 5.35066 27.7646 5.4068 27.7084C5.54714 27.5681 5.74363 27.4558 5.96818 27.3716C6.44534 27.1471 7.2032 27.119 8.43823 27.0067ZM26.3742 26.6699C26.29 26.6699 26.0654 26.6699 25.7567 26.698C25.7005 26.698 25.6163 26.698 25.5602 26.698C24.6339 26.726 23.1463 26.8102 21.8832 26.8664C21.6867 26.8664 21.4902 26.8944 21.3218 26.8944C21.1534 26.8944 20.9569 26.9225 20.8166 26.9225C20.0868 26.9506 19.6096 26.9787 19.6096 26.9506C19.6096 26.9506 19.75 26.3611 19.9184 25.884C19.9745 25.6875 20.0306 25.5191 20.0868 25.3787C20.0868 25.3507 20.1148 25.3226 20.1148 25.2945C20.1148 25.2665 20.1429 25.2665 20.1429 25.2384C20.2552 25.098 20.3955 24.9577 20.5359 24.8454C20.6201 24.7612 20.7324 24.7051 20.8446 24.6489C21.013 24.5647 21.2095 24.4805 21.406 24.4244C21.9674 24.256 22.6972 24.1998 23.6796 24.1998C23.8761 24.1998 24.0725 24.1998 24.241 24.1998C25.476 24.256 26.2058 24.4525 26.5707 25.0138C26.6268 25.098 26.6829 25.4349 26.6829 25.7717C26.6829 25.8278 26.6829 25.8559 26.6829 25.912C26.6549 26.305 26.5987 26.6699 26.3742 26.6699Z" fill="#CC0000"/>
<path d="M58.0919 24.6209C58.0077 24.0034 57.8112 23.442 57.5305 22.9929C57.3902 22.7683 57.2218 22.5438 57.0253 22.3473C56.9692 22.2912 56.885 22.235 56.8288 22.1508C56.6885 22.0385 56.5481 21.9263 56.3797 21.814C55.4815 21.2526 54.3307 21 52.8711 21C52.6185 21 52.394 21 52.1413 21C51.9168 21 51.6642 21.0281 51.4396 21.0281C51.1028 21.0561 50.766 21.0842 50.4572 21.1123C50.2607 21.1403 50.0642 21.1684 49.8678 21.1965C49.2222 21.3088 48.6889 21.4491 48.324 21.6456C47.0328 22.2912 46.0223 23.7788 45.5732 25.6313C45.461 26.0524 45.4048 26.5015 45.3487 26.9506L44.4786 27.0067C44.3663 25.2384 43.9172 24.2279 43.1032 23.7227C42.9348 23.6104 42.7664 23.5262 42.5699 23.4701C42.3734 23.4139 42.1769 23.3578 41.9524 23.3297C41.7278 23.3016 41.5033 23.2736 41.2507 23.2736C41.0261 23.2736 40.8015 23.2455 40.577 23.2455C40.1279 23.2455 39.6788 23.2455 39.2578 23.2455C39.0332 23.2455 38.8087 23.2736 38.5841 23.2736C38.3876 23.3016 38.1912 23.3016 37.9666 23.3297C37.3491 23.4139 36.7596 23.4981 36.1702 23.6385C35.2159 23.863 34.4299 24.7612 33.8966 25.1822L33.8686 23.6385L30.2477 23.9472C30.2758 24.1998 30.2758 24.4805 30.3038 24.7893C30.3319 25.098 30.36 25.4068 30.36 25.7436C30.388 26.2208 30.4161 26.726 30.4161 27.2313C30.4161 27.3997 30.4161 27.54 30.4161 27.7084C30.4161 28.6347 30.2758 31.2451 30.0231 35.5677C29.9951 35.9045 29.9951 36.2413 29.967 36.6062C29.9389 37.308 29.8828 38.0658 29.8267 38.8517H33.3072C33.4475 36.7185 33.5317 35.2589 33.5879 34.473C33.8686 34.5572 34.1493 34.6134 34.4299 34.6695C35.272 34.8379 36.1141 34.894 36.9842 34.894C37.6578 34.894 38.3596 34.866 39.0332 34.8098C39.7069 34.7537 40.4086 34.6976 41.0822 34.6134C42.0085 34.5011 42.7664 33.9678 43.3839 32.9573C43.8049 32.2275 44.0856 31.4135 44.2259 30.5715L45.5171 30.5153C45.6294 30.9644 45.7136 31.3854 45.7978 31.7223C45.8259 31.8345 45.8539 31.9188 45.882 32.031C45.9381 32.2275 46.0223 32.424 46.1066 32.5924C46.1627 32.6766 46.1908 32.7608 46.2469 32.845C46.5557 33.3503 46.9486 33.7713 47.3977 34.1362C47.8468 34.473 48.3521 34.7537 48.8292 34.9502C49.5309 35.2309 50.7098 35.3712 52.3378 35.3712C54.1904 35.3712 56.0148 35.0344 57.7551 34.3607L57.3902 30.7679C56.3797 31.1609 55.3692 31.3854 54.2465 31.5258C53.5728 31.61 52.8711 31.6661 52.1413 31.6942C51.8326 31.7223 51.5519 31.6942 51.3273 31.6942C50.2327 31.61 49.6994 31.1609 49.3625 30.6837C49.3345 30.6276 49.2783 30.5715 49.2503 30.5153C49.1941 30.403 49.1099 30.3188 49.0538 30.2066C48.9976 30.0943 48.9415 30.0101 48.8854 29.9259C49.2222 29.8978 49.559 29.8697 49.8958 29.8417C50.9063 29.7575 55.0044 29.6171 55.4254 29.6171C55.5096 29.6171 55.5657 29.6171 55.5657 29.6171C55.7341 29.6171 55.9306 29.589 56.099 29.561C56.1832 29.5329 56.2674 29.5048 56.3517 29.4768C56.6043 29.3926 56.8288 29.2522 57.0253 29.0838C57.0814 29.0277 57.1656 28.9715 57.2218 28.9154C57.2779 28.8593 57.3341 28.7751 57.3902 28.7189C57.4463 28.6628 57.4744 28.6066 57.5305 28.5505C57.5867 28.4663 57.6428 28.354 57.699 28.2417C57.8954 27.7926 58.0077 27.1751 58.0638 26.0243C58.0638 25.912 58.0638 25.7717 58.0919 25.6594C58.1481 25.2665 58.12 24.9296 58.0919 24.6209ZM41.5313 28.9996C41.5313 29.1119 41.5313 29.2242 41.5033 29.3645C41.4752 29.7855 41.3349 30.1785 41.1103 30.5153C41.0261 30.6276 40.9419 30.7399 40.8296 30.8241C40.7735 30.8802 40.6893 30.9363 40.6051 30.9925C40.4928 31.0486 40.2963 31.1328 39.9876 31.189C39.7349 31.2451 39.37 31.2732 38.8929 31.2732C38.6122 31.2732 38.3034 31.3012 37.9666 31.3012C37.6298 31.3293 37.293 31.3293 36.9281 31.3574C36.5912 31.3854 36.2263 31.3854 35.9176 31.3854C35.1597 31.3854 34.5422 31.3574 34.3177 31.189C34.2615 31.1609 34.2335 31.0767 34.1773 30.9644C34.1493 30.9083 34.1492 30.8521 34.1212 30.7679C33.9247 29.8417 34.0089 27.8207 34.1493 27.6523C34.2896 27.512 34.4861 27.3997 34.7106 27.3155C34.7948 27.2874 34.9071 27.2593 35.0194 27.2313C35.1317 27.2032 35.2439 27.2032 35.3843 27.1751C35.4404 27.1751 35.5246 27.1471 35.5808 27.1471C36.0018 27.0909 36.5351 27.0629 37.2087 27.0067C37.4894 26.9786 37.7701 26.9506 38.0227 26.9506C38.3034 26.9225 38.5841 26.9225 38.8367 26.9225C39.3981 26.8944 39.9314 26.8944 40.4928 26.9225C40.8296 26.9225 41.0822 27.0348 41.2507 27.2593C41.3068 27.3155 41.3349 27.3997 41.3629 27.4558C41.4471 27.6804 41.5033 27.9611 41.5033 28.2979C41.5594 28.4382 41.5313 28.6908 41.5313 28.9996ZM48.8292 26.9506C48.6608 26.9506 48.5485 26.9506 48.4924 26.9506C48.4363 26.9506 48.4363 26.9506 48.4363 26.9506C48.4363 26.9506 48.5205 26.5857 48.6327 26.1927C48.6608 26.1366 48.6608 26.0804 48.6889 26.0524C48.7169 25.9401 48.745 25.8559 48.7731 25.7717C48.8573 25.5471 48.9134 25.3507 48.9696 25.2945C49.0538 25.1822 49.138 25.098 49.2222 25.0138C49.2783 24.9858 49.3064 24.9296 49.3625 24.9016C50.0081 24.4244 50.9344 24.256 52.5062 24.256C53.6851 24.256 54.4991 24.3683 55.0044 24.677C55.1728 24.7893 55.3131 24.9016 55.3973 25.07C55.4254 25.1261 55.4535 25.2384 55.4815 25.4068C55.4815 25.491 55.5096 25.5752 55.5096 25.6594C55.5096 25.7156 55.5096 25.7436 55.5096 25.7998C55.5096 25.884 55.5096 25.9962 55.5096 26.0804C55.4815 26.4173 55.3973 26.6699 55.2289 26.698C54.8359 26.698 51.187 26.8664 49.4187 26.9506C49.1941 26.9225 48.9976 26.9225 48.8292 26.9506Z" fill="#CC0000"/>
<path d="M71.4246 21.8701C70.5264 21.3087 69.3756 21.0561 67.916 21.0561C65.9512 21.0561 64.211 21.3087 63.3689 21.7297C61.769 22.5157 60.6181 24.5928 60.3936 27.0347L58.7095 27.1751V30.7118L60.6181 30.5714C60.7304 31.0205 60.8146 31.4415 60.8988 31.7784C61.2918 33.4064 62.6391 34.473 63.9583 34.9782C64.6601 35.2589 65.8389 35.3992 67.4669 35.3992C69.3195 35.3992 71.1439 35.0624 72.8842 34.3888L72.5193 30.796C70.8913 31.4135 69.2633 31.61 67.2704 31.7222C64.8004 31.8626 64.4916 30.6837 64.0145 29.9539C65.3618 29.8136 70.4984 29.6171 70.6668 29.6171C71.3966 29.589 72.0421 29.2802 72.4912 28.6908C72.8561 28.2417 73.0526 27.6242 73.1649 25.9962V26.1365C73.2772 24.1998 72.7438 22.656 71.4246 21.8701ZM70.3019 26.6979C69.7686 26.6979 63.4812 27.0067 63.4812 26.9505C63.5092 26.9225 63.8461 25.4629 64.0145 25.2664C64.66 24.4524 65.6144 24.2279 67.5511 24.2279C69.151 24.2279 70.0492 24.4243 70.4422 25.0419C70.5826 25.2664 70.751 26.6979 70.3019 26.6979Z" fill="black"/>
<path d="M99.1007 29.589C99.1849 29.589 99.2411 29.589 99.2411 29.589C99.4095 29.589 99.606 29.561 99.7744 29.5329C99.8586 29.5048 99.9428 29.4768 100.027 29.4487C100.28 29.3645 100.504 29.2242 100.701 29.0557C100.757 28.9996 100.841 28.9435 100.897 28.8873C100.953 28.8312 101.009 28.747 101.066 28.6908C101.122 28.6347 101.15 28.5786 101.206 28.5224C101.262 28.4382 101.318 28.326 101.374 28.2137C101.571 27.7646 101.683 27.1471 101.739 25.9962C101.739 25.884 101.739 25.7436 101.767 25.6314C101.767 25.2665 101.767 24.9577 101.711 24.6209C101.627 24.0034 101.43 23.442 101.15 22.9929C101.009 22.7683 100.841 22.5438 100.645 22.3473C100.588 22.2912 100.504 22.235 100.448 22.1508C100.308 22.0385 100.167 21.9263 99.9989 21.814C99.1007 21.2526 97.9499 21 96.4903 21C96.2377 21 96.0132 21 95.7605 21C95.536 21 95.2834 21.0281 95.0588 21.0281C94.722 21.0561 94.3852 21.0842 94.0764 21.1123C93.8799 21.1403 93.6834 21.1684 93.487 21.1965C92.8414 21.3088 92.3081 21.4491 91.9432 21.6456C90.652 22.2912 89.6415 23.7788 89.1924 25.6314C89.0802 26.0524 89.024 26.5015 88.9679 26.9506L88.1258 26.9787C87.8171 24.7893 86.9469 23.3016 85.5716 23.3016C85.2628 23.3016 84.7576 23.3016 84.0278 23.2455C83.3261 23.2455 82.7647 23.2174 82.3998 23.2174C79.9297 23.2174 78.6105 23.8911 77.4316 25.1261L77.4036 23.5823L73.7546 23.863C73.8108 25.0419 73.9792 26.3611 73.9792 27.3997C73.923 30.375 73.8669 32.2275 73.6704 35.4554L77.2913 35.4274C77.5439 33.8274 77.7123 29.3364 77.8807 28.747C78.0772 28.1575 78.2176 27.6242 78.7789 27.2874C79.5368 26.8383 82.8208 26.8944 83.8313 26.9506C84.3927 26.9787 84.8137 27.3997 84.8699 27.9049C84.8699 28.0733 84.8979 28.2698 84.8979 28.4944C84.8979 29.14 84.8418 30.6837 84.7295 31.6661C84.6172 32.9292 84.6172 34.1923 84.7295 35.4554L88.1539 35.3432C88.0697 34.0239 88.0697 31.7503 88.0978 31.4977L88.1258 30.4873L89.1644 30.4592C89.2767 30.9083 89.3609 31.3293 89.4451 31.6661C89.4731 31.7784 89.5012 31.8626 89.5293 31.9749C89.5854 32.1714 89.6696 32.3679 89.7538 32.5363C89.81 32.6205 89.838 32.7047 89.8942 32.7889C90.2029 33.2941 90.5959 33.7152 91.045 34.0801C91.4941 34.4169 91.9993 34.6976 92.4765 34.8941C93.1782 35.1747 94.3571 35.3151 95.9851 35.3151C97.8376 35.3151 99.6621 34.9783 101.402 34.3046L101.037 30.7118C100.027 31.1048 99.0165 31.3293 97.8938 31.4697C97.2201 31.5539 96.5184 31.61 95.7886 31.6381C95.4799 31.6661 95.1992 31.6381 94.9746 31.6381C93.8799 31.5539 93.3466 31.1048 93.0098 30.6276C92.9817 30.5715 92.9256 30.5153 92.8975 30.4592C92.8414 30.3469 92.7572 30.2627 92.701 30.1504C92.6449 30.0381 92.5888 29.9539 92.5326 29.8697C92.8695 29.8417 93.2063 29.8136 93.5431 29.7855C94.6097 29.7575 98.6797 29.6171 99.1007 29.589ZM92.4765 26.9506C92.3081 26.9506 92.1958 26.9506 92.1397 26.9506C92.0835 26.9506 92.0835 26.9506 92.0835 26.9506C92.0835 26.9506 92.1677 26.5857 92.28 26.1927C92.3081 26.1366 92.3081 26.0805 92.3361 26.0524C92.3642 25.9401 92.3923 25.8559 92.4204 25.7717C92.5046 25.5471 92.5607 25.3507 92.6168 25.2945C92.701 25.1823 92.7853 25.098 92.8695 25.0138C92.9256 24.9858 92.9537 24.9296 93.0098 24.9016C93.6554 24.4244 94.5816 24.256 96.1535 24.256C97.3324 24.256 98.1464 24.3683 98.6516 24.677C98.82 24.7893 98.9604 24.9016 99.0446 25.07C99.0727 25.1261 99.1007 25.2384 99.1288 25.4068C99.1288 25.491 99.1569 25.5752 99.1569 25.6594C99.1569 25.7156 99.1569 25.7436 99.1569 25.7998C99.1569 25.884 99.1569 25.9962 99.1569 26.0805C99.1288 26.4173 99.0446 26.6699 98.8762 26.698C98.4832 26.698 94.8343 26.8664 93.0659 26.9506C92.8133 26.9225 92.6168 26.9225 92.4765 26.9506Z" fill="black"/>
<path d="M116.756 27.9891C116.559 25.2664 115.689 23.3297 114.089 23.3297C113.78 23.3297 113.275 23.3297 112.545 23.2736C111.844 23.2736 111.282 23.2455 110.917 23.2455C108.447 23.2455 107.128 23.9191 105.949 25.1542L105.921 23.6104L102.272 23.8911C102.328 25.07 102.497 26.3892 102.497 27.4277C102.441 30.403 102.384 32.2556 102.188 35.4835L105.809 35.4554C106.061 33.8555 106.23 29.3645 106.398 28.775C106.595 28.1856 106.735 27.6523 107.297 27.3155C108.054 26.8664 111.338 26.9225 112.349 26.9786C112.91 27.0067 113.331 27.4277 113.387 27.933C113.387 28.1014 113.415 28.5224 113.415 28.5224L116.756 27.9891Z" fill="black"/>
<path d="M130.846 30.6275C130.959 29.2241 131.071 27.7365 131.071 27.5119C131.155 26.4172 131.015 25.8558 130.397 25.098C129.78 24.3401 129.078 23.7788 128.096 23.5823C127.282 23.4139 122.763 23.1051 120.686 23.6103C119.479 23.891 118.3 24.4243 117.738 25.4348C117.289 26.2769 117.177 27.2593 117.037 29.0276C117.008 29.4767 117.008 30.01 117.093 30.5433C117.233 31.6942 117.626 32.9292 118.3 33.687C118.552 33.9958 118.861 34.2203 119.198 34.3607C119.984 34.6414 121.303 34.894 123.212 34.894C125.682 34.894 126.496 34.7817 127.029 34.5852C126.861 35.5115 126.608 35.8764 126.271 36.2132C125.794 36.6343 125.064 36.9711 123.577 36.915C121.556 36.8027 119.9 36.6343 118.244 36.129C118.103 36.0729 117.598 35.9045 117.458 35.8483V35.9325L117.121 39.1043L117.093 39.4131C118.973 40.0867 121.359 40.5639 123.38 40.5639C125.148 40.5639 126.383 40.4235 127.141 40.1429C128.573 39.6376 130.032 38.571 130.482 36.943C130.51 36.5781 130.903 30.9363 130.846 30.6275ZM127.815 28.9996C127.815 29.1118 127.815 29.2241 127.787 29.3644C127.759 29.7855 127.618 30.1784 127.394 30.5153C127.366 30.5433 127.366 30.5714 127.338 30.5714C127.282 30.6556 127.197 30.7398 127.113 30.824C127.057 30.8802 127.001 30.9363 126.889 30.9924C126.776 31.0766 126.58 31.1328 126.271 31.1889C126.019 31.2451 125.654 31.2731 125.177 31.2731C124.896 31.2731 124.587 31.3012 124.25 31.3012C123.913 31.3293 123.577 31.3293 123.212 31.3573C123.127 31.3573 123.043 31.3573 122.987 31.3573C122.706 31.3573 122.454 31.3854 122.201 31.3854C121.64 31.3854 121.163 31.3573 120.854 31.2731C120.742 31.2451 120.657 31.217 120.601 31.1608C120.545 31.1328 120.517 31.0486 120.461 30.9363C120.433 30.8802 120.433 30.824 120.405 30.7398C120.321 30.3749 120.293 29.8416 120.293 29.3083C120.293 28.4943 120.349 27.7365 120.433 27.6242C120.573 27.4838 120.77 27.3716 120.994 27.2874C121.078 27.2593 121.191 27.2312 121.303 27.2031C121.415 27.1751 121.528 27.1751 121.668 27.147C121.724 27.147 121.808 27.1189 121.864 27.1189C122.285 27.0628 122.819 27.0347 123.492 26.9786C123.773 26.9505 124.054 26.9225 124.306 26.9225C124.587 26.8944 124.868 26.8944 125.12 26.8944C125.682 26.8663 126.215 26.8663 126.776 26.8944C127.113 26.8944 127.366 27.0067 127.534 27.2312C127.59 27.2874 127.618 27.3716 127.647 27.4277C127.731 27.6522 127.787 27.9329 127.787 28.2698C127.843 28.4382 127.815 28.6908 127.815 28.9996Z" fill="black"/>
</svg>
