<svg width="143" height="62" viewBox="0 0 143 62" fill="none" xmlns="http://www.w3.org/2000/svg">
<path d="M94.6188 39.1422C94.7062 38.0345 94.8228 36.9269 94.8811 35.8192C95.0269 34.3034 95.0852 33.0208 95.0852 32.0006C95.0852 28.1821 94.1816 26.2873 92.316 26.2873C87.9727 26.2873 85.291 26.5205 84.2416 26.9578C84.4165 24.5092 84.4748 21.8566 84.4748 19L80.6562 19.4081C80.6854 22.4688 80.3939 29.1148 79.7817 38.9382L83.6003 38.8507C83.7461 35.9358 83.8627 33.7204 83.921 32.1755C83.921 31.9423 84.0375 31.7091 84.2124 31.5342C84.912 30.9512 90.7711 30.4557 91.15 30.6597C91.5581 30.8929 91.4998 31.2427 91.4998 32.3796C91.4998 33.254 91.4415 34.5366 91.2666 36.1981C91.1792 37.1601 91.0626 38.0928 90.9751 39.0839L94.6188 39.1422Z" fill="white"/>
<path fill-rule="evenodd" clip-rule="evenodd" d="M107.474 35.003C106.978 35.4694 106.045 35.2654 103.539 35.3237C101.848 35.3528 100.449 35.382 99.8074 35.3528C99.4868 35.3237 99.2827 34.6241 99.2827 34.3034C99.2536 33.3707 99.3702 31.8549 99.4285 31.1553C99.4285 30.9221 99.6908 30.3391 99.8949 30.2808C101.119 29.8727 102.722 30.0185 104.704 30.0185C106.104 30.0185 108.173 29.8436 108.173 30.7472C108.202 30.7472 108.057 34.4492 107.474 35.003ZM111.642 29.6104C111.409 27.7157 109.543 26.025 107.153 26.025C106.891 26.025 100.769 26.025 99.2827 26.4331C98.175 26.7538 97.2714 27.3367 96.8342 28.1821C96.4552 28.94 96.1346 29.9893 95.9888 31.9715C95.9597 32.6128 95.9305 33.1666 95.9305 33.6622C95.9305 35.4986 96.222 36.8103 96.7467 37.6265C97.3006 38.4135 98.9621 38.9382 100.303 38.9382H104.879C107.619 38.909 110.214 38.0346 110.651 35.8775C110.884 34.7115 111.642 32.5253 111.642 30.4557C111.671 30.1934 111.671 29.931 111.642 29.6104Z" fill="white"/>
<path fill-rule="evenodd" clip-rule="evenodd" d="M28.1 33.0209C28.887 32.9917 29.6157 32.6419 30.0821 32.0298C30.4902 31.5343 30.6943 30.8638 30.8109 29.0566C30.9566 26.9287 30.3153 25.4129 28.887 24.5384C27.9251 23.9263 26.6425 23.6639 25.0684 23.6639C22.9114 23.6639 21.0167 23.9554 20.1131 24.3927C18.3641 25.238 17.1107 27.5408 16.8483 30.1934L15.9447 30.2517C15.7407 27.191 14.6038 26.1708 12.4759 26.1708C11.514 26.1125 10.5521 26.1125 9.56099 26.1708C8.65736 26.2582 7.78288 26.3748 6.9084 26.5789C5.85902 26.8121 4.98454 27.8031 4.40155 28.2695L4.3724 26.5789L0.408091 26.9287C0.49554 28.0655 0.641286 29.6979 0.641286 31.0387C0.641286 32.2921 0.408091 36.3439 0 43.2232H3.81857C3.96431 40.8912 4.05176 39.288 4.13921 38.4427C5.36348 38.7633 6.58776 38.9091 7.84118 38.8799C9.3278 38.8508 10.8436 38.7633 12.3302 38.5884C13.3504 38.4718 14.1957 37.8597 14.837 36.752C15.3034 35.9358 15.5949 35.0613 15.7698 34.1286L17.1398 34.0411C17.2564 34.5366 17.373 34.9739 17.4313 35.382C17.8686 37.1892 19.3552 38.3552 20.7835 38.9091C21.5705 39.2005 22.8239 39.3754 24.6021 39.3754C26.6134 39.3754 28.6247 38.9965 30.5194 38.2678L30.1404 34.3326C28.3623 35.003 26.5842 35.2362 24.398 35.3528C21.6871 35.4986 21.3665 34.216 20.8418 33.429C22.2993 33.2832 23.7859 33.1958 25.2725 33.2249C25.5057 33.1666 27.9251 33.0209 28.1 33.0209ZM12.7091 32.7877C12.68 33.3998 12.4176 33.9537 11.9804 34.3909C11.7472 34.5658 11.5431 34.8573 9.85248 34.8573C8.27842 34.8864 5.42178 35.1779 4.83879 34.7407C4.40155 34.3909 4.45985 31.0679 4.69305 30.8638C5.21773 30.3391 6.09222 30.3683 8.04522 30.1642C9.24035 30.0768 10.4646 30.0185 11.6597 30.0768C12.4176 30.0768 12.7674 30.5723 12.7674 31.5926C12.7383 31.8258 12.7091 32.2047 12.7091 32.7877ZM20.2297 30.1059C20.2297 30.1059 20.6377 28.5027 20.8126 28.2695C21.5122 27.3951 22.5616 27.1327 24.6895 27.1327C26.4385 27.1327 27.4295 27.3368 27.8376 28.0363C27.9834 28.2695 28.1291 29.8145 27.6627 29.8436C27.1089 29.8436 20.2005 30.1642 20.2297 30.1059Z" fill="white"/>
<path fill-rule="evenodd" clip-rule="evenodd" d="M140.034 24.5092C139.072 23.8971 137.789 23.6348 136.215 23.6348C134.058 23.6348 132.163 23.9263 131.26 24.3635C129.511 25.2088 128.257 27.5116 127.995 30.1642L127.004 30.2225C126.771 27.4825 125.867 26.1125 124.322 26.1125C124.031 26.1125 123.506 26.1125 122.777 26.0542C122.048 26.0542 121.495 26.025 121.145 26.025C118.667 26.025 117.443 26.4623 116.131 27.4825L116.014 25.0339L112.662 25.9084C112.721 27.2201 112.75 28.4153 112.75 29.5521C112.721 32.6419 112.487 35.7026 112.05 38.7633L115.373 38.909C115.636 37.1601 115.81 35.586 115.927 34.1285C115.985 33.4581 116.102 32.8168 116.306 32.2047C116.51 31.5342 116.947 30.9804 117.501 30.6015C118.288 30.1059 121.582 30.1642 122.631 30.2225C123.185 30.2517 123.652 30.7181 123.681 31.2719C123.681 31.4759 123.71 31.68 123.71 31.9132C123.71 32.6419 123.652 33.5455 123.535 34.6241C123.418 35.9941 123.418 37.3933 123.535 38.7633L127.004 38.6467C126.916 37.2184 126.829 35.79 126.887 35.3237C126.916 34.8864 126.946 34.4783 126.975 34.0702L128.228 34.0119C128.345 34.5075 128.461 34.9447 128.52 35.3528C128.957 37.1601 130.443 38.326 131.872 38.8799C132.659 39.1714 133.912 39.3463 135.69 39.3463C137.702 39.3463 139.713 38.9673 141.608 38.2386L141.229 34.3034C139.451 34.9739 137.672 35.2071 135.486 35.3237C132.775 35.4694 132.455 34.1868 131.93 33.3998C133.388 33.2541 134.874 33.1666 136.361 33.1958C136.594 33.1958 139.013 33.05 139.217 33.05C140.004 33.0209 140.733 32.6711 141.229 32.0589C141.637 31.5634 141.841 30.893 141.957 29.0857H141.987C142.103 26.8995 141.462 25.3837 140.034 24.5092ZM138.809 29.8144C138.226 29.8144 131.318 30.1351 131.347 30.1059C131.376 30.0768 131.755 28.5027 131.93 28.2695C132.63 27.395 133.679 27.1327 135.807 27.1327C137.556 27.1327 138.547 27.3367 138.955 28.0363C139.101 28.2404 139.276 29.8144 138.809 29.8144Z" fill="white"/>
<path fill-rule="evenodd" clip-rule="evenodd" d="M76.0798 32.7876C76.0506 33.3997 75.7883 33.9535 75.3511 34.3908C75.1179 34.5657 74.9138 34.8572 73.2232 34.8572C71.6491 34.8863 68.7924 35.1778 68.2095 34.7406C67.7722 34.3908 67.8305 31.0678 68.0637 30.8637C68.5884 30.339 69.4629 30.3682 71.4159 30.1641C72.611 30.0767 73.8353 30.0184 75.0304 30.0767C75.7883 30.0767 76.1381 30.5722 76.1381 31.5924C76.1381 31.8256 76.1089 32.2046 76.0798 32.7876ZM79.3445 32.5544C79.3737 32.088 79.3737 31.6507 79.3737 31.2135C79.3737 27.3366 78.2077 26.0832 75.8466 26.0832C74.8847 26.0249 73.9227 26.0249 72.9317 26.0832C72.028 26.1707 71.1535 26.2873 70.2791 26.4913C69.2297 26.7245 68.3552 27.7156 67.7722 28.182L67.7431 26.4913L63.7788 26.8411C63.8662 27.9779 64.012 29.6103 64.012 30.9512C64.012 32.2046 63.7788 36.2563 63.3707 43.1356H67.1601C67.3058 40.8036 67.3933 39.2004 67.4807 38.3551C68.6759 38.6757 69.9293 38.8215 71.1827 38.8215C72.6693 38.7923 74.1851 38.7049 75.6717 38.53C76.6919 38.4134 77.5373 37.8013 78.1785 36.6936C78.8781 35.4402 79.2862 34.0118 79.3445 32.5544Z" fill="white"/>
<path fill-rule="evenodd" clip-rule="evenodd" d="M59.6979 33.0209C60.4849 32.9917 61.2137 32.6419 61.7092 32.0298C62.1173 31.5343 62.3214 30.8638 62.438 29.0566C62.5837 26.9287 61.9424 25.4129 60.5141 24.5384C59.5522 23.9263 58.2696 23.6639 56.6955 23.6639C54.5385 23.6639 52.6438 23.9554 51.7401 24.3927C49.9912 25.238 48.7378 27.5408 48.4754 30.1934L47.5135 30.2517C47.3094 27.191 46.1726 26.1708 44.0447 26.1708C43.0828 26.1125 42.1209 26.1125 41.1298 26.1708C40.2261 26.2582 39.3517 26.3748 38.4772 26.5789C37.4278 26.8121 36.5533 27.8031 35.9703 28.2695L35.9412 26.5789L31.9769 26.9287C32.0643 28.0655 32.2101 29.6979 32.2101 31.0387C32.2101 32.2921 31.9769 36.3439 31.5688 43.2232H35.3582C35.504 40.8912 35.5914 39.288 35.6788 38.4427C36.874 38.7633 38.1274 38.9091 39.3808 38.8799C40.8674 38.8508 42.3832 38.7633 43.8698 38.5884C44.89 38.4718 45.7354 37.8597 46.3767 36.752C46.8431 35.9358 47.1345 35.0613 47.3094 34.1286L48.7378 34.0411C48.8544 34.5366 48.971 34.9739 49.0293 35.382C49.4665 37.1892 50.9531 38.3552 52.3814 38.9091C53.1685 39.2005 54.4219 39.3754 56.2 39.3754C58.2113 39.3754 60.2226 38.9965 62.1173 38.2678L61.7384 34.3326C59.9603 35.003 58.1822 35.2362 55.996 35.3528C53.2851 35.4986 52.9644 34.216 52.4397 33.429C53.8972 33.2832 55.3838 33.1958 56.8704 33.2249C57.1328 33.1666 59.523 33.0209 59.6979 33.0209ZM44.2488 32.7877C44.2196 33.3998 43.9573 33.9537 43.52 34.3909C43.2868 34.5658 43.0828 34.8573 41.3921 34.8573C39.8181 34.8864 36.9614 35.1779 36.3784 34.7407C35.9412 34.3909 35.9995 31.0679 36.2327 30.8638C36.7574 30.3391 37.6319 30.3683 39.5849 30.1642C40.78 30.0476 42.0043 30.0185 43.1994 30.0476C43.9573 30.0476 44.3071 30.5432 44.3071 31.5634C44.3071 31.8258 44.2779 32.2047 44.2488 32.7877ZM51.8276 30.1351C51.8276 30.1351 52.2357 28.5319 52.4106 28.2987C53.1102 27.4242 54.1595 27.1619 56.2874 27.1619C58.0364 27.1619 59.0275 27.3659 59.4356 28.0655C59.5813 28.2987 59.7271 29.8436 59.2607 29.8728C58.7068 29.8436 51.7984 30.1642 51.8276 30.1351Z" fill="white"/>
</svg>
