<svg width="143" height="62" viewBox="0 0 143 62" fill="none" xmlns="http://www.w3.org/2000/svg">
<path d="M94.6189 39.1422C94.7063 38.0345 94.8229 36.9269 94.8812 35.8192C95.027 34.3034 95.0853 33.0208 95.0853 32.0006C95.0853 28.1821 94.1816 26.2873 92.3161 26.2873C87.9728 26.2873 85.2911 26.5205 84.2417 26.9578C84.4166 24.5092 84.4749 21.8566 84.4749 19L80.6563 19.4081C80.6855 22.4688 80.394 29.1148 79.7819 38.9382L83.6004 38.8507C83.7462 35.9358 83.8628 33.7204 83.9211 32.1755C83.9211 31.9423 84.0377 31.7091 84.2126 31.5342C84.9121 30.9512 90.7712 30.4557 91.1501 30.6597C91.5582 30.8929 91.4999 31.2427 91.4999 32.3796C91.4999 33.254 91.4416 34.5366 91.2667 36.1981C91.1793 37.1601 91.0627 38.0928 90.9752 39.0839L94.6189 39.1422Z" fill="black"/>
<path fill-rule="evenodd" clip-rule="evenodd" d="M107.474 35.003C106.978 35.4694 106.045 35.2653 103.539 35.3236C101.848 35.3528 100.449 35.3819 99.8074 35.3528C99.4868 35.3236 99.2827 34.624 99.2827 34.3034C99.2536 33.3706 99.3702 31.8548 99.4285 31.1553C99.4285 30.9221 99.6908 30.3391 99.8949 30.2808C101.119 29.8727 102.722 30.0184 104.705 30.0184C106.104 30.0184 108.173 29.8435 108.173 30.7472C108.202 30.7472 108.057 34.4491 107.474 35.003ZM111.642 29.6103C111.409 27.7156 109.543 26.025 107.153 26.025C106.891 26.025 100.769 26.025 99.2827 26.4331C98.175 26.7537 97.2714 27.3367 96.8342 28.182C96.4552 28.9399 96.1346 29.9893 95.9888 31.9714C95.9597 32.6127 95.9305 33.1666 95.9305 33.6621C95.9305 35.4985 96.222 36.8102 96.7467 37.6264C97.3006 38.4134 98.9621 38.9381 100.303 38.9381H104.879C107.619 38.909 110.214 38.0345 110.651 35.8774C110.884 34.7115 111.642 32.5253 111.642 30.4557C111.671 30.1933 111.671 29.931 111.642 29.6103Z" fill="black"/>
<path fill-rule="evenodd" clip-rule="evenodd" d="M28.1 33.0208C28.887 32.9917 29.6158 32.6419 30.0821 32.0297C30.4902 31.5342 30.6943 30.8638 30.8109 29.0565C30.9566 26.9286 30.3153 25.4128 28.887 24.5384C27.9251 23.9262 26.6425 23.6639 25.0685 23.6639C22.9114 23.6639 21.0167 23.9554 20.1131 24.3926C18.3641 25.2379 17.1107 27.5407 16.8483 30.1933L15.9447 30.2516C15.7407 27.191 14.6038 26.1707 12.4759 26.1707C11.514 26.1124 10.5521 26.1124 9.56099 26.1707C8.65736 26.2582 7.78288 26.3748 6.9084 26.5788C5.85902 26.812 4.98454 27.8031 4.40155 28.2695L4.3724 26.5788L0.408092 26.9286C0.49554 28.0654 0.641286 29.6978 0.641286 31.0387C0.641286 32.2921 0.408091 36.3439 0 43.2231H3.81857C3.96431 40.8912 4.05176 39.2879 4.13921 38.4426C5.36348 38.7633 6.58776 38.909 7.84118 38.8799C9.3278 38.8507 10.8436 38.7633 12.3302 38.5884C13.3504 38.4718 14.1957 37.8596 14.837 36.7519C15.3034 35.9358 15.5949 35.0613 15.7698 34.1285L17.1398 34.0411C17.2564 34.5366 17.373 34.9738 17.4313 35.3819C17.8686 37.1892 19.3552 38.3552 20.7835 38.909C21.5705 39.2005 22.824 39.3754 24.6021 39.3754C26.6134 39.3754 28.6247 38.9964 30.5194 38.2677L30.1404 34.3325C28.3623 35.003 26.5842 35.2362 24.398 35.3528C21.6871 35.4985 21.3665 34.216 20.8418 33.4289C22.2993 33.2832 23.7859 33.1957 25.2725 33.2249C25.5057 33.1666 27.9251 33.0208 28.1 33.0208ZM12.7091 32.7876C12.68 33.3998 12.4176 33.9536 11.9804 34.3908C11.7472 34.5657 11.5431 34.8572 9.85249 34.8572C8.27842 34.8864 5.42178 35.1779 4.83879 34.7406C4.40155 34.3908 4.45985 31.0678 4.69305 30.8638C5.21774 30.3391 6.09222 30.3682 8.04522 30.1642C9.24035 30.0767 10.4646 30.0184 11.6597 30.0767C12.4176 30.0767 12.7674 30.5723 12.7674 31.5925C12.7383 31.8257 12.7091 32.2046 12.7091 32.7876ZM20.2297 30.1059C20.2297 30.1059 20.6378 28.5027 20.8126 28.2695C21.5122 27.395 22.5616 27.1327 24.6895 27.1327C26.4385 27.1327 27.4296 27.3367 27.8376 28.0363C27.9834 28.2695 28.1291 29.8144 27.6627 29.8435C27.1089 29.8435 20.2005 30.1642 20.2297 30.1059Z" fill="#CC0000"/>
<path fill-rule="evenodd" clip-rule="evenodd" d="M140.034 24.5092C139.072 23.8971 137.789 23.6348 136.215 23.6348C134.058 23.6348 132.163 23.9263 131.26 24.3635C129.511 25.2088 128.257 27.5116 127.995 30.1642L127.004 30.2225C126.771 27.4825 125.867 26.1125 124.322 26.1125C124.031 26.1125 123.506 26.1125 122.777 26.0542C122.048 26.0542 121.495 26.025 121.145 26.025C118.667 26.025 117.443 26.4623 116.131 27.4825L116.014 25.0339L112.662 25.9084C112.721 27.2201 112.75 28.4153 112.75 29.5521C112.721 32.6419 112.487 35.7026 112.05 38.7633L115.373 38.909C115.636 37.1601 115.81 35.586 115.927 34.1285C115.985 33.4581 116.102 32.8168 116.306 32.2047C116.51 31.5342 116.947 30.9804 117.501 30.6015C118.288 30.1059 121.582 30.1642 122.631 30.2225C123.185 30.2517 123.652 30.7181 123.681 31.2719C123.681 31.4759 123.71 31.68 123.71 31.9132C123.71 32.6419 123.652 33.5455 123.535 34.6241C123.418 35.9941 123.418 37.3933 123.535 38.7633L127.004 38.6467C126.916 37.2184 126.829 35.7901 126.887 35.3237C126.916 34.8864 126.946 34.4783 126.975 34.0702L128.228 34.0119C128.345 34.5075 128.461 34.9447 128.52 35.3528C128.957 37.1601 130.443 38.326 131.872 38.8799C132.659 39.1714 133.912 39.3463 135.69 39.3463C137.702 39.3463 139.713 38.9673 141.608 38.2386L141.229 34.3034C139.451 34.9739 137.672 35.2071 135.486 35.3237C132.775 35.4694 132.455 34.1868 131.93 33.3998C133.388 33.2541 134.874 33.1666 136.361 33.1958C136.594 33.1958 139.013 33.05 139.217 33.05C140.004 33.0209 140.733 32.6711 141.229 32.0589C141.637 31.5634 141.841 30.893 141.957 29.0857H141.987C142.103 26.8995 141.462 25.3837 140.034 24.5092ZM138.809 29.8144C138.226 29.8144 131.318 30.1351 131.347 30.1059C131.376 30.0768 131.755 28.5027 131.93 28.2695C132.63 27.395 133.679 27.1327 135.807 27.1327C137.556 27.1327 138.547 27.3367 138.955 28.0363C139.101 28.2404 139.276 29.8144 138.809 29.8144Z" fill="black"/>
<path fill-rule="evenodd" clip-rule="evenodd" d="M76.0799 32.7877C76.0507 33.3998 75.7884 33.9537 75.3511 34.3909C75.1179 34.5658 74.9139 34.8573 73.2232 34.8573C71.6492 34.8864 68.7925 35.1779 68.2095 34.7407C67.7723 34.3909 67.8306 31.0679 68.0638 30.8638C68.5885 30.3391 69.4629 30.3683 71.416 30.1642C72.6111 30.0768 73.8353 30.0185 75.0305 30.0768C75.7884 30.0768 76.1382 30.5723 76.1382 31.5926C76.1382 31.8258 76.109 32.2047 76.0799 32.7877ZM79.3446 32.5545C79.3737 32.0881 79.3737 31.6509 79.3737 31.2136C79.3737 27.3368 78.2078 26.0833 75.8467 26.0833C74.8847 26.025 73.9228 26.025 72.9317 26.0833C72.0281 26.1708 71.1536 26.2874 70.2791 26.4914C69.2298 26.7246 68.3553 27.7157 67.7723 28.1821L67.7431 26.4914L63.7788 26.8412C63.8663 27.978 64.012 29.6104 64.012 30.9513C64.012 32.2047 63.7788 36.2565 63.3707 43.1357H67.1601C67.3059 40.8038 67.3933 39.2006 67.4808 38.3552C68.6759 38.6759 69.9293 38.8216 71.1828 38.8216C72.6694 38.7925 74.1851 38.705 75.6718 38.5301C76.692 38.4135 77.5373 37.8014 78.1786 36.6937C78.8782 35.4403 79.2863 34.012 79.3446 32.5545Z" fill="black"/>
<path fill-rule="evenodd" clip-rule="evenodd" d="M59.6979 33.0208C60.485 32.9917 61.2137 32.6419 61.7092 32.0297C62.1173 31.5342 62.3214 30.8638 62.438 29.0565C62.5837 26.9286 61.9424 25.4128 60.5141 24.5384C59.5522 23.9262 58.2696 23.6639 56.6955 23.6639C54.5385 23.6639 52.6438 23.9554 51.7401 24.3926C49.9912 25.2379 48.7378 27.5407 48.4754 30.1933L47.5135 30.2516C47.3094 27.191 46.1726 26.1707 44.0447 26.1707C43.0828 26.1124 42.1209 26.1124 41.1298 26.1707C40.2261 26.2582 39.3517 26.3748 38.4772 26.5788C37.4278 26.812 36.5533 27.8031 35.9703 28.2695L35.9412 26.5788L31.9769 26.9286C32.0643 28.0654 32.2101 29.6978 32.2101 31.0387C32.2101 32.2921 31.9769 36.3439 31.5688 43.2231H35.3582C35.504 40.8912 35.5914 39.2879 35.6788 38.4426C36.874 38.7633 38.1274 38.909 39.3808 38.8799C40.8674 38.8507 42.3832 38.7633 43.8698 38.5884C44.89 38.4718 45.7354 37.8596 46.3767 36.7519C46.8431 35.9358 47.1345 35.0613 47.3094 34.1285L48.7378 34.0411C48.8544 34.5366 48.971 34.9738 49.0293 35.3819C49.4665 37.1892 50.9531 38.3552 52.3814 38.909C53.1685 39.2005 54.4219 39.3754 56.2 39.3754C58.2113 39.3754 60.2226 38.9964 62.1173 38.2677L61.7384 34.3325C59.9603 35.003 58.1822 35.2362 55.996 35.3528C53.2851 35.4985 52.9644 34.216 52.4397 33.4289C53.8972 33.2832 55.3838 33.1957 56.8704 33.2249C57.1328 33.1666 59.523 33.0208 59.6979 33.0208ZM44.2488 32.7876C44.2196 33.3998 43.9573 33.9536 43.52 34.3908C43.2868 34.5657 43.0828 34.8572 41.3921 34.8572C39.8181 34.8864 36.9614 35.1779 36.3784 34.7406C35.9412 34.3908 35.9995 31.0678 36.2327 30.8638C36.7574 30.3391 37.6319 30.3682 39.5849 30.1642C40.78 30.0476 42.0043 30.0184 43.1994 30.0476C43.9573 30.0476 44.3071 30.5431 44.3071 31.5634C44.3071 31.8257 44.2779 32.2046 44.2488 32.7876ZM51.8276 30.135C51.8276 30.135 52.2357 28.5318 52.4106 28.2986C53.1102 27.4241 54.1595 27.1618 56.2874 27.1618C58.0364 27.1618 59.0275 27.3658 59.4356 28.0654C59.5813 28.2986 59.7271 29.8435 59.2607 29.8727C58.7068 29.8435 51.7984 30.1642 51.8276 30.135Z" fill="#CC0000"/>
</svg>
