<svg width="100" height="100" viewBox="0 0 100 100" fill="none" xmlns="http://www.w3.org/2000/svg">
<path d="M27.2381 63.8343C25.5717 63.5566 23.7944 63.2232 22.1282 62.3347C22.1282 62.3347 21.7394 62.057 21.7394 62.5012V65.8893C21.5172 67.6112 22.7393 68.3331 24.1832 68.3888C25.294 68.4442 24.0167 69.8329 23.5167 70.4995C22.6836 71.4993 22.5168 72.2213 22.9057 72.7213C23.239 73.1101 23.5167 72.7213 24.5721 73.6655C23.6833 74.8319 23.239 75.3873 23.0725 75.7761C23.0725 75.7761 22.2948 76.9981 24.1278 77.5535C23.6835 79.0531 22.9059 79.2753 22.4614 80.1084C22.0726 81.0526 23.4613 81.8303 23.3501 81.8857C21.1284 83.3299 19.5176 84.9406 19.2399 85.9959C18.4623 88.2732 18.018 90.8838 17.5181 93.1054C17.3515 93.8274 16.5182 94.4939 15.8517 94.4939C13.6855 94.605 12.0748 94.4939 10.1862 94.4939C9.57511 94.4939 9.85281 94.0496 9.85281 94.0496C11.7969 90.4393 16.2957 87.551 15.6292 83.052C13.6851 71.1658 10.186 63.4453 8.24187 53.003C7.46423 49.0039 8.96384 42.8941 9.46378 42.3942C9.8526 42.0054 10.7414 43.9495 12.1853 43.8938C12.1853 43.8938 14.4071 41.0612 15.7401 40.4501C16.74 40.2835 20.7391 41.8386 20.7391 41.8386C21.1834 41.7275 21.7945 39.3391 22.0167 38.1172C23.0166 38.3949 24.6273 38.4505 25.7936 37.9506C28.4042 36.8398 28.2931 35.8956 28.7373 35.9511C29.515 36.0622 30.2926 37.5618 30.3481 38.506C30.3481 38.506 30.3481 39.5059 30.848 39.3948C32.4033 39.0059 33.5695 37.173 34.1251 37.2286C34.7362 37.3397 35.4027 38.9505 35.5693 40.1724C35.5693 40.1724 35.6804 40.8944 36.5692 40.5058C37.3468 40.1724 37.7911 39.9504 39.1241 38.9505C39.2907 38.8394 39.5129 38.9505 39.5684 39.1171C40.2904 40.5612 40.346 41.9497 41.2348 42.0608C41.9568 42.1163 42.6233 41.5609 42.9566 41.1721C43.2343 40.8387 43.9565 40.1722 44.2342 40.2279C44.5119 40.2835 44.6785 42.0052 45.9561 42.6717C46.5115 43.005 46.956 42.5051 47.2891 41.6718C47.5114 41.1164 48.0668 40.5053 48.289 40.561C48.5112 40.6165 48.7333 41.5609 49.5109 42.0052C50.122 42.3385 50.8439 42.4494 50.9551 42.0606C51.1773 41.0607 51.9549 40.3388 52.0659 40.6721C52.2881 41.1164 52.5658 41.3386 53.0657 41.7275C53.6211 42.0608 54.0656 42.1717 54.621 42.0608C56.5094 41.8386 57.8425 40.339 57.5093 40.1167C55.7875 39.1169 55.121 37.2284 54.9544 35.8954C55.0098 35.1177 55.0098 33.0627 56.8985 32.2294C57.7872 31.8961 59.2868 31.8961 60.0088 32.5071C60.6753 33.0625 61.0642 33.6736 61.0642 34.6733C61.0642 35.5064 60.8419 36.284 60.1754 36.6728C59.6755 37.0062 58.7312 36.9505 58.2313 36.5617C57.787 36.2283 57.5648 35.5064 57.176 35.2287H57.1205C56.7317 36.1729 57.3982 37.2282 57.8981 37.8947C58.9535 39.1166 60.7308 39.0055 61.2307 38.6724C63.2857 37.8947 64.9521 33.6734 65.341 32.7848C66.1741 30.8407 66.7851 28.6192 67.8959 26.6196C68.8958 24.8977 71.3396 22.8982 75.2276 22.8982C78.5047 22.8982 82.2261 25.842 82.3927 30.1188C82.615 33.7847 81.3374 35.1177 79.9489 36.6728C79.0601 37.6727 78.949 37.9504 79.2824 38.2281C80.2823 39.0612 80.6154 39.1723 81.393 40.0611C84.6702 44.0602 86.1141 48.7258 87.8916 53.336C88.3359 54.4468 88.5582 55.7243 89.1136 56.7797C91.6131 60.0011 94.0569 61.0565 94.3902 61.4453C94.6125 61.723 94.1125 61.7787 94.0569 62.5006C94.0569 62.7229 94.5012 63.1672 94.9456 63.2226C95.1679 63.2226 96.2232 63.3892 96.0564 63.7225C95.3899 64.7224 95.0566 65.4444 95.1122 66.1109C95.2233 66.8886 95.6122 66.1109 96.723 66.222C97.0007 66.2775 97.0563 66.3886 96.9452 66.6109C96.3341 67.6107 96.2232 68.2216 96.1121 68.8881C95.9455 69.3324 96.3898 70.4988 97.5006 70.2766C97.6117 70.2766 97.7228 70.3877 97.7228 70.4988C97.6117 70.8322 97.0009 71.1099 96.723 72.1096C96.1119 74.2203 96.4453 75.5533 98.2782 77.6083C99.0002 78.4971 99.4447 78.4414 100 79.1079C97.7228 81.1075 98.1116 83.9401 97.6672 85.5508C97.556 86.0508 97.1672 86.1062 97.1672 86.1062L90.2798 87.1616C89.7244 87.2727 89.2799 87.0505 89.9464 86.2174C91.6683 84.2178 93.8344 82.1628 95.0563 80.0521C94.8341 79.3302 94.501 78.4969 94.001 77.6638C91.7238 73.9978 89.6685 70.6098 87.5581 66.9438C86.3916 64.8331 85.8362 64.9443 85.8362 64.9443C80.7263 64 77.5047 63.1669 73.7278 60.7229C73.4501 60.6118 73.4501 61.0006 73.4501 61.0006C73.4501 62.0005 73.2835 65.4997 73.7278 66.1105C74.9497 67.8878 77.4492 68.1655 77.4492 68.1655C77.4492 68.1655 77.7826 68.7766 76.6161 69.8319C76.6161 69.8319 76.3384 69.9985 76.4495 70.2207C76.6718 70.665 77.2826 70.7207 77.7826 70.6096C78.1159 70.5541 77.616 71.4426 76.6718 72.3314C76.4495 72.5536 76.7272 73.2756 77.0606 73.4422C77.1717 73.4977 77.1717 73.5533 77.116 73.6644C76.7827 74.0533 75.3942 75.1641 75.3942 75.9417L75.6719 80.4962C75.6719 80.4962 75.6719 80.6628 75.6164 80.7184C75.5053 80.8296 75.2831 80.885 75.2831 80.885L68.5068 82.6069C68.3402 82.6623 68.1179 82.6069 67.9514 82.3846C67.7848 82.1069 68.0068 81.7736 68.0068 81.7736L72.1725 75.4972L72.3948 75.1638C72.6724 73.7197 71.3949 72.3867 70.5618 71.3313C69.0622 69.4983 66.8404 67.3877 66.8404 67.3877C65.6185 66.3323 64.7297 62.3887 64.452 61.2779C64.3409 60.8891 63.8966 61.0002 63.5078 61.389C62.5636 62.3332 61.7859 63.3886 61.4528 64.0551C61.1194 64.6661 61.0085 66.2769 61.1194 66.4989C61.286 66.9432 61.5637 67.6654 63.1744 67.6654C63.0078 68.6652 62.7856 69.1095 62.2302 69.5538C62.2302 69.5538 61.8968 69.6649 62.1191 69.8872C62.619 70.3314 63.2299 70.7759 63.2299 70.7759C63.0076 71.4424 62.7299 71.9424 62.3411 72.4423C61.3412 73.7199 62.6745 73.4422 62.6745 73.4422C62.3411 74.331 62.1191 74.8864 61.6746 75.664C60.5638 77.5524 61.3412 80.3296 61.1192 81.7181C61.0637 82.0515 60.6749 82.3292 60.175 82.3846L53.0655 82.6623C52.6767 82.6623 52.7322 82.1624 52.899 81.8292L57.7868 75.886C58.1756 75.3861 57.7868 74.9973 57.6202 74.8307C57.6202 74.8307 54.5654 70.665 53.51 67.2768C53.1212 65.9437 52.7324 64.1664 52.7324 64.1664C51.7325 64.333 48.8444 64.6663 49.011 66.166C48.7333 66.8325 49.622 69.2209 50.1774 69.2209C50.1774 69.2209 50.122 69.332 50.1774 69.2209C50.1774 69.2209 50.2329 69.9428 49.2332 70.2762C48.1224 70.6096 46.956 71.4981 47.1225 71.998C47.2891 72.3314 47.8445 72.498 48.0668 72.498V72.5534C47.0669 73.9976 45.9561 73.6642 45.0119 74.3864C44.6785 74.6641 44.6785 75.2195 45.6784 75.2195C44.8453 76.1637 44.3453 75.9972 43.79 76.2749C43.79 76.2749 42.8457 76.6082 43.0123 76.9968C43.4566 77.941 43.6234 77.7188 43.3457 78.0522C42.9014 78.6076 42.7346 78.7187 42.0126 78.9409C41.4016 79.1632 41.0128 79.4409 41.0128 79.4409C40.5128 79.9408 40.6794 80.4407 40.3462 81.3293C39.8463 82.6623 39.0132 84.3842 38.069 85.5506C38.069 85.5506 37.9024 85.7729 37.7356 85.6061L33.2922 81.8847C32.9034 81.5513 33.1257 81.0516 33.1257 81.0516C33.5699 80.1074 34.4587 79.8297 35.4029 79.2743C36.6248 78.4966 37.7913 77.7747 38.9578 76.4971C39.2355 76.2194 39.2911 75.5529 39.2911 75.5529C39.8465 72.0537 40.9018 68.1655 41.6795 64.7775C41.9017 63.7776 40.7353 63.9444 40.7353 63.9444C39.18 64.2221 37.9581 64.4998 36.7362 64.3886C36.4028 64.3332 36.2919 64.5552 35.9031 65.2774C35.5142 66.2216 34.9032 68.2768 35.4588 68.9988C36.4587 70.2764 37.5695 69.8319 37.5138 69.943C37.1804 71.2206 36.0696 71.7203 35.7365 72.1092C35.2366 72.498 35.1254 72.8311 35.07 72.9979C35.07 73.2202 35.1254 73.9421 36.2364 73.7756V73.8867C36.2364 73.8867 35.8476 74.8309 34.8479 75.6085C34.4591 75.9419 33.9037 76.3305 33.7371 76.6084C33.5149 76.8861 33.4594 77.4415 34.3482 77.4415V77.6638C34.3482 77.6638 33.8483 78.9968 32.7929 79.4967C32.4596 79.6633 31.793 80.2744 31.5153 80.8852C30.8488 82.3294 30.0712 86.1062 29.4603 85.7174C28.2384 84.8287 25.2947 82.1071 25.2947 82.1071C24.9613 81.8294 24.9613 81.6072 24.9613 81.6072C24.7947 80.9407 26.3498 80.2742 26.9054 79.7742C27.7942 78.9966 29.0715 78.3857 29.2383 76.7193C29.516 74.331 28.6829 72.0537 28.3495 70.6096C28.0162 68.9988 27.3497 66.1105 27.4608 64.5554C27.4602 63.8897 27.2381 63.8343 27.2381 63.8343ZM63.2301 39.6729C63.119 39.784 63.119 39.8951 63.2855 39.8951C64.7297 39.8951 66.3959 39.1175 67.7846 38.2287C69.0065 37.4511 69.8953 36.7846 71.2283 35.0072C71.2283 35.0072 71.9503 35.1738 74.6163 35.0072C77.3379 34.8407 79.1154 33.1188 79.2265 30.5639C79.3931 27.509 76.505 24.7874 73.339 25.676C71.0617 26.2871 70.3395 27.9533 69.5064 29.3974C68.0623 31.8412 66.3961 36.2292 63.3967 39.3952C63.3967 39.5063 63.3412 39.562 63.2301 39.6729ZM42.9012 41.0059C43.1789 40.6725 43.9565 39.8951 44.1788 40.0617C44.623 40.3951 44.623 41.839 45.9006 42.5055" fill="url(#paint0_linear_501_195)"/>
<path d="M22.4056 21.1217C23.8498 19.8998 25.0717 19.0111 30.0707 16.5116C30.515 16.2339 29.6264 13.179 29.1265 11.1794C28.9599 10.4574 28.4045 10.2907 28.1266 10.3463C21.7946 12.0127 16.1847 14.9565 14.8517 13.6789L8.46445 8.84672C7.96451 8.4579 7.40911 8.79126 7.46457 9.45778C7.79772 11.9016 8.07562 13.3458 8.29766 14.901C8.35312 15.2344 8.29766 15.401 8.01996 15.401C6.57581 15.401 5.18731 16.4009 4.35401 17.9005C3.24322 20.0664 2.13243 21.9548 0.132873 22.899C0.0217524 22.9545 -0.0337051 23.1213 0.0217521 23.2324C0.410571 24.0655 1.13255 24.51 1.85473 24.732C2.68782 25.0097 3.02118 24.8431 3.63204 25.1208C3.74316 25.1763 3.79862 25.2874 3.74316 25.3985C3.6877 25.5651 3.57658 25.7319 3.46546 25.8428C1.79906 28.7866 3.74316 32.508 0.910511 34.8409C0.743933 34.952 0.799391 35.1743 1.02163 35.2297C4.2431 35.7851 5.29844 33.4524 5.68725 33.8967C4.68738 36.8961 5.18731 37.2847 4.57646 41.0061C4.40988 41.8392 3.85449 42.9502 4.35422 42.7834C8.57556 41.5615 9.3532 39.8397 9.6309 39.562C9.96426 39.2286 10.0197 38.3955 11.0194 39.9508C11.2416 40.2842 11.5193 40.7284 11.6859 40.6173C11.797 40.6173 12.0193 40.3396 12.0193 40.2839C12.8524 39.1175 13.8522 38.451 15.0742 37.8956C15.1296 37.8956 15.1853 37.8401 15.2407 37.8401C16.6849 38.0067 17.9623 38.5066 19.6841 39.1732C19.7952 39.2286 19.9618 39.1732 20.0175 39.0066C20.7395 36.6182 19.5732 34.3964 19.6287 34.0633C19.6841 33.7301 19.8509 33.8967 20.4618 34.5075C21.7393 35.7851 23.7943 35.896 24.9608 35.5629C25.5719 35.3963 26.4604 34.9518 26.6827 34.563C26.7938 34.3964 26.6827 34.2296 26.5161 34.2296C22.9058 33.7297 22.7392 30.0083 21.2394 27.5088C21.1283 27.3422 21.0728 27.1754 21.1283 27.12L22.2391 27.6754C22.2391 27.6754 27.2935 28.7307 27.5158 28.7862C28.0157 28.8973 28.2934 28.2862 28.2934 28.2862C28.3488 28.1196 28.6268 26.8977 28.6268 25.8424C28.6268 25.3425 28.0714 25.0648 27.8491 25.287C27.738 25.3981 27.6269 25.5092 27.5158 25.5647C27.4603 25.6758 27.2381 25.6758 27.1269 25.6202C25.8494 25.2868 25.4051 25.1759 24.0166 24.6203L22.2393 21.6765C21.9059 21.3994 22.2391 21.2328 22.4056 21.1217ZM17.7957 19.6221C17.0181 19.6221 16.3515 18.9556 16.3515 18.0114C16.3515 17.0672 17.0181 16.4006 17.7957 16.4006C18.7399 16.4006 19.4064 17.0672 19.4064 18.0114C19.4064 18.9556 18.7399 19.6221 17.7957 19.6221Z" fill="url(#paint1_linear_501_195)"/>
<path d="M43.7344 27.4537L49.5108 22.3438C49.5108 22.3438 50.2328 21.5661 51.0661 21.8995C51.6215 22.1217 51.8992 22.6215 52.0103 22.8994C52.1769 23.2327 54.3987 28.1204 54.3987 28.1204C54.3987 28.1204 54.7318 28.9535 55.454 28.898C55.454 28.898 56.3428 28.7315 56.3428 27.7872L56.0096 22.0663C56.0096 22.0663 55.9542 21.1221 56.4539 20.8998C56.7873 20.7333 57.2315 20.7333 57.6204 21.0664C58.0092 21.3441 60.231 23.066 60.231 23.066C61.8974 24.2879 62.8416 23.2325 62.6193 22.3994C62.3416 21.5107 61.0086 19.7888 61.0086 19.7888C60.9531 19.7334 59.5644 17.7893 59.3422 17.4005C59.12 17.0116 58.8979 16.6228 59.0088 16.234C59.1754 15.8452 59.5088 15.6786 59.5088 15.6786C59.5088 15.6786 59.8421 15.512 60.2864 15.6231C60.7864 15.7343 61.564 15.3454 61.0084 14.5678C61.0084 14.5678 59.8419 12.9014 57.287 11.7352C58.3423 13.7347 58.3423 16.1785 57.0093 17.9561C55.1209 20.4556 51.3995 20.7887 48.6223 18.7337C45.9007 16.623 45.1786 12.9573 47.067 10.4021C48.4555 8.56915 50.7884 7.90263 53.0102 8.51369C51.7883 7.34724 50.7329 6.73638 50.7329 6.73638C47.6226 4.90341 47.7335 7.06975 47.7335 7.06975C47.7335 7.06975 47.789 8.06962 47.6224 8.29166C47.4558 8.56936 47.289 8.95818 45.3451 8.62482C43.6787 8.34712 43.5122 8.29166 43.4567 8.29166C40.1241 7.62514 39.6798 7.56968 39.291 8.34712C38.9022 9.23588 40.8463 10.4021 40.8463 10.4021L43.7346 12.124C43.7346 12.124 44.068 12.4017 44.068 12.735C44.068 13.0684 43.9568 13.1793 43.5126 13.4016C43.0683 13.6238 37.4582 15.8454 37.3473 15.9011C37.3473 15.9011 36.3475 16.3453 36.9031 17.2341C37.1253 17.4563 37.4585 17.5674 37.9584 17.5674C38.736 17.4009 43.4017 17.4009 43.4017 17.4009C43.4017 17.4009 44.4015 17.2897 44.8458 17.9563C45.1792 18.4562 44.7347 19.567 44.7347 19.567L41.5126 26.0095C41.5126 26.0095 40.9015 27.176 41.6792 27.7868C42.7902 28.3979 43.7344 27.4537 43.7344 27.4537Z" fill="url(#paint2_linear_501_195)"/>
<defs>
<linearGradient id="paint0_linear_501_195" x1="47.4273" y1="101.076" x2="61.6795" y2="20.2479" gradientUnits="userSpaceOnUse">
<stop stop-color="#009E62"/>
<stop offset="0.2346" stop-color="#009E62"/>
<stop offset="0.6787" stop-color="#95B849"/>
<stop offset="0.7495" stop-color="#A7BC3C"/>
<stop offset="0.8916" stop-color="#D7C51B"/>
<stop offset="0.9987" stop-color="#FFCD00"/>
</linearGradient>
<linearGradient id="paint1_linear_501_195" x1="-1.15646" y1="29.4086" x2="31.3985" y2="17.5596" gradientUnits="userSpaceOnUse">
<stop stop-color="#009E62"/>
<stop offset="0.5762" stop-color="#95B849"/>
<stop offset="0.9954" stop-color="#D5D625"/>
</linearGradient>
<linearGradient id="paint2_linear_501_195" x1="43.4519" y1="28.6466" x2="54.9186" y2="8.78577" gradientUnits="userSpaceOnUse">
<stop stop-color="#95B849"/>
<stop offset="0.0092" stop-color="#97B848"/>
<stop offset="0.2123" stop-color="#BCC02E"/>
<stop offset="0.4152" stop-color="#D9C61A"/>
<stop offset="0.6154" stop-color="#EECA0C"/>
<stop offset="0.8119" stop-color="#FBCC03"/>
<stop offset="1" stop-color="#FFCD00"/>
</linearGradient>
</defs>
</svg>
