<svg width="143" height="62" viewBox="0 0 143 62" fill="none" xmlns="http://www.w3.org/2000/svg">
<path d="M76.6758 31.7225C76.6758 34.2597 74.9158 35.9133 72.5278 35.9133C71.4881 35.9133 70.5691 35.5619 69.9126 34.8132V38.7733H68V27.6384H69.8239V28.71C70.4627 27.9294 71.4136 27.5461 72.5278 27.5461C74.9158 27.546 76.6758 29.1995 76.6758 31.7225ZM74.7314 31.7225C74.7314 30.1648 73.6915 29.1677 72.3148 29.1677C70.9381 29.1677 69.8841 30.1648 69.8841 31.7225C69.8841 33.2803 70.9381 34.2774 72.3148 34.2774C73.6917 34.2773 74.7314 33.2802 74.7314 31.7225Z" fill="#009E62"/>
<path d="M80.406 24.4575H78.4934V35.8054H80.406V24.4575Z" fill="#009E62"/>
<path d="M90.5639 32.335H84.152C84.3825 33.5273 85.3761 34.2938 86.7991 34.2938C87.718 34.2938 88.435 34.0028 89.0168 33.4031L90.0422 34.5812C89.3077 35.4542 88.1615 35.912 86.7529 35.912C84.0169 35.912 82.2393 34.1555 82.2393 31.7248C82.2393 29.2906 84.0311 27.5483 86.4619 27.5483C88.8464 27.5483 90.5922 29.2126 90.5922 31.771C90.5922 31.9235 90.578 32.1506 90.5639 32.335ZM84.1378 31.0647H88.772C88.6193 29.8867 87.718 29.0741 86.4619 29.0741C85.2236 29.0741 84.3222 29.8725 84.1378 31.0647Z" fill="#95B849"/>
<path d="M100.474 31.1262C100.474 28.6637 99.0229 27.5459 97.0642 27.5459C95.8719 27.5459 94.8749 27.9433 94.2468 28.6955V27.6381H92.4299V35.8066H94.3391V31.6798C94.3391 30.0404 95.2581 29.2137 96.6207 29.2137C97.8449 29.2137 98.5618 29.9197 98.5618 31.371V35.8066H100.474V31.1262Z" fill="url(#paint0_linear_501_163)"/>
<path d="M102.644 25.1461C102.644 24.5003 103.166 24 103.868 24C104.574 24 105.092 24.4719 105.092 25.1C105.092 25.7706 104.588 26.2923 103.868 26.2923C103.166 26.2923 102.644 25.785 102.644 25.1461ZM102.903 27.6372H104.816V35.8057H102.903V27.6372Z" fill="url(#paint1_linear_501_163)"/>
<path d="M112.237 35.3635C111.779 35.729 111.091 35.9171 110.399 35.9171C108.614 35.9171 107.588 34.9661 107.588 33.1601V29.2284H106.244V27.699H107.588V25.8325H109.501V27.699H111.683V29.2284H109.501V33.1139C109.501 33.9122 109.898 34.3381 110.633 34.3381C111.03 34.3381 111.41 34.2317 111.701 34.0045L112.237 35.3635Z" fill="#009E62"/>
<path d="M121.72 27.6387V35.8072H119.9V34.7639C119.29 35.5162 118.324 35.9136 117.271 35.9136C115.174 35.9136 113.751 34.7639 113.751 32.3048V27.6386H115.66V32.0457C115.66 33.5253 116.366 34.2315 117.576 34.2315C118.903 34.2315 119.808 33.4047 119.808 31.7689V27.6384H121.72V27.6387Z" fill="#009E62"/>
<path d="M132.232 24.4552V35.8066H130.393V34.7527C129.748 35.5298 128.804 35.913 127.686 35.913C125.312 35.913 123.556 34.2595 123.556 31.7223C123.556 29.1852 125.312 27.5458 127.686 27.5458C128.743 27.5458 129.673 27.9006 130.316 28.6457V24.4551H132.232V24.4552ZM130.347 31.7224C130.347 30.1647 129.293 29.1676 127.917 29.1676C126.54 29.1676 125.486 30.1647 125.486 31.7224C125.486 33.2802 126.54 34.2773 127.917 34.2773C129.293 34.2773 130.347 33.2801 130.347 31.7224Z" fill="#009E62"/>
<path d="M142.387 32.335H135.975C136.206 33.5273 137.2 34.2938 138.623 34.2938C139.538 34.2938 140.258 34.0028 140.84 33.4031L141.866 34.5812C141.131 35.4542 139.985 35.912 138.576 35.912C135.84 35.912 134.063 34.1555 134.063 31.7248C134.063 29.2906 135.855 27.5483 138.285 27.5483C140.67 27.5483 142.416 29.2126 142.416 31.771C142.416 31.9235 142.402 32.1506 142.387 32.335ZM135.961 31.0647H140.595C140.443 29.8867 139.538 29.0741 138.285 29.0741C137.047 29.0741 136.146 29.8725 135.961 31.0647Z" fill="#009E62"/>
<path d="M16.5785 38.201C15.5643 38.032 14.4825 37.8291 13.4684 37.2882C13.4684 37.2882 13.2317 37.1192 13.2317 37.3896V39.4518C13.0965 40.4998 13.8403 40.9392 14.7192 40.9731C15.3953 41.0068 14.6178 41.8521 14.3135 42.2578C13.8064 42.8663 13.7049 43.3058 13.9416 43.6101C14.1445 43.8467 14.3135 43.6101 14.9558 44.1848C14.4149 44.8947 14.1445 45.2328 14.0431 45.4694C14.0431 45.4694 13.5698 46.2131 14.6854 46.5512C14.415 47.4639 13.9417 47.5992 13.6712 48.1063C13.4345 48.681 14.2797 49.1543 14.2121 49.188C12.8598 50.067 11.8794 51.0474 11.7104 51.6897C11.2371 53.0758 10.9667 54.6647 10.6624 56.0169C10.561 56.4563 10.0538 56.862 9.64815 56.862C8.32973 56.9296 7.34936 56.862 6.19983 56.862C5.82791 56.862 5.99693 56.5916 5.99693 56.5916C7.18021 54.3942 9.91844 52.6362 9.51276 49.8979C8.32948 42.6633 6.19971 37.9642 5.01643 31.6085C4.54312 29.1744 5.45586 25.4557 5.76015 25.1514C5.99681 24.9148 6.53775 26.0981 7.41661 26.0642C7.41661 26.0642 8.76891 24.3401 9.58027 23.9682C10.1888 23.8668 12.6229 24.8133 12.6229 24.8133C12.8933 24.7456 13.2652 23.2919 13.4005 22.5482C14.0091 22.7172 14.9895 22.7511 15.6993 22.4468C17.2883 21.7707 17.2206 21.196 17.491 21.2298C17.9643 21.2974 18.4377 22.2102 18.4714 22.7849C18.4714 22.7849 18.4714 23.3935 18.7757 23.3258C19.7223 23.0892 20.4322 21.9735 20.7703 22.0074C21.1423 22.075 21.5479 23.0554 21.6493 23.7991C21.6493 23.7991 21.717 24.2386 22.2579 24.002C22.7312 23.7991 23.0016 23.664 23.813 23.0554C23.9144 22.9878 24.0496 23.0554 24.0834 23.1568C24.5228 24.0358 24.5567 24.8809 25.0976 24.9485C25.5371 24.9823 25.9427 24.6442 26.1456 24.4076C26.3147 24.2047 26.7542 23.799 26.9232 23.8329C27.0923 23.8668 27.1937 24.9147 27.9713 25.3203C28.3093 25.5232 28.5798 25.2189 28.7826 24.7117C28.9179 24.3737 29.2559 24.0018 29.3912 24.0357C29.5265 24.0694 29.6616 24.6442 30.1349 24.9147C30.5068 25.1176 30.9463 25.1851 31.0139 24.9484C31.1492 24.3398 31.6225 23.9004 31.69 24.1033C31.8253 24.3737 31.9943 24.509 32.2986 24.7456C32.6366 24.9485 32.9071 25.016 33.2452 24.9485C34.3946 24.8133 35.2059 23.9005 35.0032 23.7653C33.9551 23.1567 33.5495 22.0073 33.4481 21.1959C33.4818 20.7226 33.4818 19.4718 34.6314 18.9646C35.1723 18.7617 36.085 18.7617 36.5245 19.1337C36.9302 19.4717 37.1668 19.8436 37.1668 20.4521C37.1668 20.9591 37.0315 21.4325 36.6259 21.6691C36.3216 21.872 35.7469 21.8381 35.4426 21.6015C35.1722 21.3986 35.0369 20.9591 34.8003 20.7901H34.7665C34.5298 21.3648 34.9355 22.0072 35.2398 22.4128C35.8821 23.1565 36.9639 23.0889 37.2682 22.8861C38.519 22.4128 39.5332 19.8435 39.7699 19.3027C40.277 18.1194 40.6489 16.7672 41.325 15.5502C41.9336 14.5022 43.421 13.2852 45.7874 13.2852C47.7821 13.2852 50.0471 15.0769 50.1485 17.68C50.2837 19.9113 49.5061 20.7226 48.661 21.6691C48.1201 22.2777 48.0525 22.4467 48.2554 22.6157C48.8639 23.1228 49.0667 23.1904 49.54 23.7314C51.5347 26.1654 52.4135 29.0052 53.4954 31.8112C53.7658 32.4872 53.9011 33.2648 54.2391 33.9072C55.7605 35.8679 57.2479 36.5103 57.4508 36.7469C57.5861 36.9159 57.2818 36.9498 57.2479 37.3893C57.2479 37.5245 57.5183 37.7949 57.7888 37.8287C57.9241 37.8287 58.5664 37.9301 58.4649 38.133C58.0592 38.7416 57.8563 39.181 57.8902 39.5867C57.9579 40.06 58.1945 39.5867 58.8706 39.6543C59.0396 39.688 59.0735 39.7557 59.0059 39.891C58.6339 40.4995 58.5664 40.8713 58.4988 41.277C58.3974 41.5474 58.6678 42.2574 59.3439 42.1221C59.4115 42.1221 59.4792 42.1897 59.4792 42.2574C59.4115 42.4603 59.0398 42.6293 58.8706 43.2378C58.4987 44.5224 58.7016 45.3338 59.8172 46.5846C60.2567 47.1255 60.5272 47.0916 60.8652 47.4973C59.4792 48.7143 59.7158 50.4384 59.4453 51.4188C59.3777 51.7231 59.141 51.7568 59.141 51.7568L54.949 52.3992C54.6109 52.4668 54.3404 52.3315 54.7461 51.8245C55.7941 50.6075 57.1125 49.3567 57.8562 48.072C57.721 47.6326 57.5182 47.1254 57.2139 46.6183C55.8278 44.387 54.5769 42.3249 53.2924 40.0936C52.5824 38.8089 52.2444 38.8766 52.2444 38.8766C49.1342 38.3019 47.1733 37.7948 44.8746 36.3072C44.7055 36.2396 44.7055 36.4763 44.7055 36.4763C44.7055 37.0848 44.6041 39.2146 44.8746 39.5864C45.6183 40.6682 47.1396 40.8372 47.1396 40.8372C47.1396 40.8372 47.3425 41.2091 46.6325 41.8515C46.6325 41.8515 46.4635 41.9528 46.5311 42.0881C46.6664 42.3585 47.0382 42.3924 47.3425 42.3248C47.5454 42.291 47.2411 42.8318 46.6664 43.3728C46.5311 43.508 46.7002 43.9475 46.9031 44.0489C46.9707 44.0826 46.9707 44.1165 46.9368 44.1841C46.7339 44.4208 45.8888 45.0969 45.8888 45.5702L46.0578 48.3423C46.0578 48.3423 46.0578 48.4437 46.0241 48.4776C45.9564 48.5452 45.8212 48.5789 45.8212 48.5789L41.6968 49.627C41.5954 49.6607 41.4601 49.627 41.3587 49.4917C41.2573 49.3227 41.3925 49.1198 41.3925 49.1198L43.9279 45.2996L44.0632 45.0967C44.2322 44.2178 43.4546 43.4064 42.9476 42.7641C42.0348 41.6484 40.6825 40.3638 40.6825 40.3638C39.9388 39.7214 39.3978 37.3211 39.2288 36.645C39.1612 36.4084 38.8908 36.476 38.6541 36.7127C38.0794 37.2874 37.6061 37.9297 37.4033 38.3354C37.2004 38.7073 37.1329 39.6877 37.2004 39.8228C37.3018 40.0932 37.4709 40.5328 38.4512 40.5328C38.3498 41.1414 38.2146 41.4118 37.8765 41.6822C37.8765 41.6822 37.6736 41.7498 37.8089 41.8851C38.1132 42.1555 38.485 42.426 38.485 42.426C38.3497 42.8317 38.1807 43.136 37.944 43.4403C37.3355 44.2179 38.1469 44.0489 38.1469 44.0489C37.944 44.5898 37.8089 44.9278 37.5384 45.4012C36.8623 46.5506 37.3355 48.2409 37.2003 49.086C37.1666 49.2889 36.9299 49.4579 36.6256 49.4917L32.2984 49.6607C32.0618 49.6607 32.0955 49.3564 32.197 49.1536L35.1721 45.5363C35.4087 45.232 35.1721 44.9954 35.0707 44.894C35.0707 44.894 33.2113 42.3585 32.569 40.2962C32.3323 39.4849 32.0957 38.4031 32.0957 38.4031C31.4871 38.5045 29.7292 38.7074 29.8306 39.6202C29.6616 40.0258 30.2025 41.4795 30.5406 41.4795C30.5406 41.4795 30.5068 41.5472 30.5406 41.4795C30.5406 41.4795 30.5743 41.919 29.9659 42.1219C29.2898 42.3248 28.5798 42.8656 28.6812 43.1699C28.7826 43.3728 29.1207 43.4742 29.2559 43.4742V43.5079C28.6473 44.3869 27.9713 44.184 27.3966 44.6236C27.1937 44.7926 27.1937 45.1306 27.8022 45.1306C27.2952 45.7053 26.9909 45.6039 26.6528 45.773C26.6528 45.773 26.0781 45.9759 26.1795 46.2124C26.4499 46.7871 26.5514 46.6518 26.3824 46.8547C26.112 47.1928 26.0105 47.2604 25.5711 47.3957C25.1991 47.5309 24.9625 47.7 24.9625 47.7C24.6582 48.0042 24.7596 48.3085 24.5568 48.8494C24.2525 49.6607 23.7455 50.7087 23.1708 51.4187C23.1708 51.4187 23.0694 51.5539 22.9679 51.4524L20.2634 49.1874C20.0267 48.9845 20.162 48.6803 20.162 48.6803C20.4324 48.1056 20.9734 47.9366 21.5481 47.5986C22.2918 47.1253 23.0017 46.6858 23.7117 45.9082C23.8807 45.7392 23.9146 45.3335 23.9146 45.3335C24.2527 43.2038 24.895 40.8372 25.3683 38.7751C25.5036 38.1665 24.7936 38.268 24.7936 38.268C23.847 38.437 23.1033 38.606 22.3595 38.5384C22.1566 38.5046 22.0891 38.6398 21.8525 39.0793C21.6158 39.654 21.2439 40.905 21.5821 41.3444C22.1906 42.122 22.8667 41.8515 22.8328 41.9191C22.6299 42.6967 21.9539 43.0008 21.7511 43.2375C21.4468 43.4742 21.3792 43.6769 21.3454 43.7784C21.3454 43.9137 21.3792 44.3531 22.0554 44.2518V44.3194C22.0554 44.3194 21.8187 44.8941 21.2103 45.3674C20.9736 45.5703 20.6356 45.8068 20.5342 45.976C20.3989 46.145 20.3652 46.483 20.9061 46.483V46.6183C20.9061 46.6183 20.6018 47.4297 19.9595 47.734C19.7566 47.8353 19.3509 48.2073 19.1819 48.5791C18.7762 49.4581 18.3029 51.7568 17.9311 51.5202C17.1874 50.9792 15.3956 49.3228 15.3956 49.3228C15.1927 49.1538 15.1927 49.0185 15.1927 49.0185C15.0914 48.6128 16.0378 48.2071 16.376 47.9029C16.917 47.4295 17.6944 47.0577 17.7959 46.0435C17.965 44.5898 17.4579 43.2038 17.255 42.3248C17.0521 41.3444 16.6464 39.5864 16.7141 38.6399C16.7137 38.2347 16.5785 38.201 16.5785 38.201ZM38.4851 23.4951C38.4175 23.5627 38.4175 23.6304 38.5189 23.6304C39.3979 23.6304 40.412 23.157 41.2572 22.6161C42.0009 22.1428 42.5419 21.7371 43.3532 20.6554C43.3532 20.6554 43.7927 20.7567 45.4154 20.6554C47.0718 20.554 48.1537 19.506 48.2214 17.9509C48.3227 16.0915 46.5649 14.4351 44.6379 14.9759C43.2518 15.3478 42.8123 16.3619 42.3052 17.2409C41.4262 18.7284 40.4121 21.3991 38.5865 23.3261C38.5865 23.3937 38.5527 23.4276 38.4851 23.4951ZM26.1119 24.3064C26.2809 24.1035 26.7542 23.6304 26.8895 23.7317C27.1599 23.9347 27.1599 24.8135 27.9375 25.2192" fill="url(#paint2_linear_501_163)"/>
<path d="M13.6372 12.2038C14.5162 11.4601 15.2599 10.9192 18.3026 9.39783C18.573 9.22881 18.0322 7.36944 17.7279 6.15241C17.6265 5.71298 17.2885 5.61147 17.1193 5.64535C13.2653 6.6596 9.85088 8.45133 9.03952 7.67373L5.1519 4.73261C4.84761 4.49595 4.50957 4.69885 4.54332 5.10453C4.7461 6.59197 4.91524 7.47096 5.05039 8.41758C5.08414 8.62048 5.05039 8.72187 4.88136 8.72187C4.00238 8.72187 3.15727 9.33045 2.65008 10.2432C1.97399 11.5615 1.2979 12.7109 0.0808734 13.2856C0.0132397 13.3193 -0.0205147 13.4208 0.0132395 13.4885C0.249895 13.9955 0.689326 14.2661 1.12888 14.4012C1.63595 14.5702 1.83885 14.4689 2.21065 14.6379C2.27828 14.6716 2.31203 14.7393 2.27828 14.8069C2.24453 14.9083 2.17689 15.0098 2.10926 15.0773C1.095 16.869 2.27828 19.1341 0.554184 20.554C0.452796 20.6216 0.486551 20.7569 0.621818 20.7907C2.58257 21.1287 3.2249 19.7089 3.46156 19.9793C2.85298 21.8049 3.15727 22.0415 2.78547 24.3065C2.68408 24.8136 2.34604 25.4898 2.6502 25.3883C5.21953 24.6445 5.69284 23.5965 5.86187 23.4275C6.06477 23.2246 6.09852 22.7175 6.70697 23.6642C6.84224 23.8671 7.01126 24.1375 7.11265 24.0698C7.18029 24.0698 7.31555 23.9008 7.31555 23.8669C7.82262 23.157 8.4312 22.7513 9.17492 22.4133C9.20867 22.4133 9.24255 22.3795 9.2763 22.3795C10.1553 22.4809 10.9328 22.7852 11.9808 23.1909C12.0484 23.2246 12.1498 23.1909 12.1837 23.0895C12.6231 21.6358 11.9133 20.2835 11.947 20.0807C11.9808 19.8779 12.0823 19.9793 12.4541 20.3511C13.2317 21.1287 14.4825 21.1962 15.1924 20.9934C15.5644 20.8921 16.1052 20.6215 16.2404 20.3849C16.3081 20.2835 16.2404 20.182 16.1391 20.182C13.9417 19.8777 13.8403 17.6126 12.9274 16.0913C12.8598 15.9899 12.826 15.8884 12.8598 15.8547L13.5359 16.1927C13.5359 16.1927 16.6122 16.835 16.7475 16.8688C17.0518 16.9364 17.2208 16.5645 17.2208 16.5645C17.2546 16.4631 17.4237 15.7194 17.4237 15.0771C17.4237 14.7728 17.0857 14.6037 16.9504 14.739C16.8828 14.8066 16.8151 14.8743 16.7475 14.908C16.7138 14.9757 16.5785 14.9757 16.5109 14.9418C15.7333 14.7389 15.4628 14.6714 14.6177 14.3332L13.536 12.5415C13.3331 12.3728 13.5359 12.2714 13.6372 12.2038ZM10.8314 11.2911C10.3581 11.2911 9.95239 10.8854 9.95239 10.3107C9.95239 9.736 10.3581 9.33032 10.8314 9.33032C11.4061 9.33032 11.8118 9.736 11.8118 10.3107C11.8118 10.8854 11.4061 11.2911 10.8314 11.2911Z" fill="url(#paint3_linear_501_163)"/>
<path d="M26.6191 16.0578L30.1349 12.9477C30.1349 12.9477 30.5743 12.4744 31.0815 12.6773C31.4196 12.8125 31.5886 13.1167 31.6562 13.2858C31.7576 13.4887 33.1099 16.4636 33.1099 16.4636C33.1099 16.4636 33.3127 16.9707 33.7523 16.9369C33.7523 16.9369 34.2932 16.8355 34.2932 16.2608L34.0904 12.7788C34.0904 12.7788 34.0567 12.2041 34.3608 12.0688C34.5637 11.9674 34.8341 11.9674 35.0708 12.1702C35.3075 12.3392 36.6598 13.3872 36.6598 13.3872C37.674 14.1309 38.2487 13.4886 38.1134 12.9816C37.9444 12.4406 37.1331 11.3926 37.1331 11.3926C37.0993 11.3588 36.2541 10.1756 36.1188 9.93891C35.9835 9.70225 35.8484 9.4656 35.9159 9.22894C36.0173 8.99229 36.2202 8.8909 36.2202 8.8909C36.2202 8.8909 36.4231 8.78951 36.6935 8.85715C36.9978 8.92478 37.4711 8.68812 37.1329 8.21481C37.1329 8.21481 36.423 7.20056 34.8679 6.49072C35.5102 7.70775 35.5102 9.19519 34.6989 10.2771C33.5495 11.7984 31.2844 12.0012 29.5941 10.7504C27.9376 9.46572 27.4981 7.23456 28.6475 5.67936C29.4926 4.56372 30.9125 4.15804 32.2648 4.52996C31.5211 3.82 30.8788 3.4482 30.8788 3.4482C28.9856 2.33256 29.0532 3.6511 29.0532 3.6511C29.0532 3.6511 29.0869 4.25968 28.9855 4.39482C28.8841 4.56384 28.7826 4.8005 27.5995 4.5976C26.5852 4.42858 26.4838 4.39482 26.4501 4.39482C24.4217 3.98915 24.1513 3.95539 23.9146 4.42858C23.678 4.96952 24.8612 5.67936 24.8612 5.67936L26.6192 6.72737C26.6192 6.72737 26.8221 6.89639 26.8221 7.0993C26.8221 7.3022 26.7545 7.3697 26.4841 7.50497C26.2137 7.64024 22.7991 8.99241 22.7316 9.02629C22.7316 9.02629 22.123 9.2967 22.4612 9.83765C22.5965 9.97291 22.7992 10.0405 23.1035 10.0405C23.5768 9.93916 26.4166 9.93916 26.4166 9.93916C26.4166 9.93916 27.0251 9.87153 27.2956 10.2772C27.4985 10.5815 27.2279 11.2576 27.2279 11.2576L25.2668 15.1788C25.2668 15.1788 24.8949 15.8888 25.3682 16.2606C26.0444 16.6325 26.6191 16.0578 26.6191 16.0578Z" fill="url(#paint4_linear_501_163)"/>
<defs>
<linearGradient id="paint0_linear_501_163" x1="95.8823" y1="32.7093" x2="98.8275" y2="27.6081" gradientUnits="userSpaceOnUse">
<stop stop-color="#95B849"/>
<stop offset="1" stop-color="#FFCD00"/>
</linearGradient>
<linearGradient id="paint1_linear_501_163" x1="103.641" y1="29.9057" x2="100.074" y2="26.9127" gradientUnits="userSpaceOnUse">
<stop stop-color="#95B849"/>
<stop offset="1" stop-color="#FFCD00"/>
</linearGradient>
<linearGradient id="paint2_linear_501_163" x1="28.8667" y1="60.8683" x2="37.5414" y2="11.6721" gradientUnits="userSpaceOnUse">
<stop stop-color="#009E62"/>
<stop offset="0.2346" stop-color="#009E62"/>
<stop offset="0.6787" stop-color="#95B849"/>
<stop offset="0.7495" stop-color="#A7BC3C"/>
<stop offset="0.8916" stop-color="#D7C51B"/>
<stop offset="0.9987" stop-color="#FFCD00"/>
</linearGradient>
<linearGradient id="paint3_linear_501_163" x1="-0.703879" y1="17.2477" x2="19.1107" y2="10.0357" gradientUnits="userSpaceOnUse">
<stop stop-color="#009E62"/>
<stop offset="0.5762" stop-color="#95B849"/>
<stop offset="0.9954" stop-color="#D5D625"/>
</linearGradient>
<linearGradient id="paint4_linear_501_163" x1="26.4472" y1="16.7839" x2="33.4263" y2="4.69556" gradientUnits="userSpaceOnUse">
<stop stop-color="#95B849"/>
<stop offset="0.0092" stop-color="#97B848"/>
<stop offset="0.2123" stop-color="#BCC02E"/>
<stop offset="0.4152" stop-color="#D9C61A"/>
<stop offset="0.6154" stop-color="#EECA0C"/>
<stop offset="0.8119" stop-color="#FBCC03"/>
<stop offset="1" stop-color="#FFCD00"/>
</linearGradient>
</defs>
</svg>
