<svg width="143" height="62" viewBox="0 0 143 62" fill="none" xmlns="http://www.w3.org/2000/svg">
<path d="M7.52581 32.742C7.58183 32.1724 7.66587 31.6028 7.78726 31.0145V30.9958C7.76858 30.9958 7.74991 30.9958 7.74057 31.0052C6.88153 31.0892 5.5276 31.1919 4.51917 31.3227C2.76375 31.5561 1.16703 31.7895 1.03631 31.9483C0.672147 32.3778 3.08119 32.6953 6.74138 32.742H7.52573L7.52581 32.742Z" fill="url(#paint0_linear_210_70)"/>
<path d="M25.9673 16.0092C20.1872 16.0092 14.4822 19.2773 10.9619 24.0676C10.9619 24.0676 2.76366 24.6558 2.33397 25.3841C1.04542 27.8586 1.00806 32.0135 1.00806 32.0135V32.0042C1.01739 31.9855 1.02673 31.9668 1.03607 31.9481C1.16679 31.7894 2.76351 31.556 4.51893 31.3225C5.51805 31.1918 6.88129 31.0891 7.74033 31.0051C7.75901 31.0051 7.76835 31.0051 7.78702 30.9957C10.6349 30.7156 16.0695 30.3234 19.1693 30.2394C26.7794 30.0339 33.3435 30.09 37.9002 30.2954C39.2261 22.3398 34.0159 16.0092 25.9668 16.0092L25.9673 16.0092Z" fill="url(#paint1_linear_210_70)"/>
<path d="M37.9094 30.2955C33.3621 30.0901 26.798 30.0247 19.1786 30.2395C16.0693 30.3235 10.6349 30.7157 7.78702 30.9958C7.73099 31.3133 7.62828 31.8362 7.54424 32.5178V32.5552C7.51623 32.7886 7.49756 33.0221 7.47888 33.2555V33.3022C7.46955 33.5263 7.46021 33.7504 7.46021 33.9745C7.46021 34.1145 7.46021 34.2546 7.46954 34.3947C7.46954 34.516 7.46954 34.6281 7.47888 34.7401C7.48821 34.9829 7.50689 35.235 7.52556 35.4778C7.5349 35.5432 7.54424 35.6179 7.55358 35.6832C7.57225 35.87 7.60026 36.0567 7.62827 36.2435C7.63761 36.3182 7.65629 36.3929 7.66562 36.4676C7.69364 36.645 7.73099 36.8224 7.76833 36.9998C7.78701 37.0745 7.79635 37.1399 7.81502 37.2052C7.86171 37.3826 7.9084 37.5694 7.95508 37.7468C7.96442 37.7748 7.97376 37.8028 7.98309 37.8402C10.8497 37.5601 14.3698 37.2893 18.525 37.1212C18.5716 37.1212 20.3458 37.0558 20.3644 37.0558C24.2116 36.9345 32.8766 36.9998 35.2202 37.0278C35.5937 37.0278 35.8272 37.0372 35.8272 37.0372C37.7974 37.0652 38.6004 37.0839 40.6454 37.1959C41.5885 37.2426 43.1572 37.308 43.2412 37.5134V37.5227C43.2412 37.5321 43.2412 37.5321 43.2319 37.5414C44.5298 35.1417 44.5484 31.1732 44.5484 31.1732C44.6231 30.8278 42.1487 30.4916 37.9094 30.2955" fill="url(#paint2_linear_210_70)"/>
<path d="M35.7053 23.6661H37.4234C35.8267 19.0909 31.5874 16 25.9758 16C20.1958 16 14.4907 19.2774 10.9705 24.0583C13.5009 23.8249 16.8065 23.6288 20.0463 23.5728C20.6812 23.5635 21.8951 23.302 22.5767 22.2936C23.8466 20.4074 25.0978 18.5024 26.8717 17.8676C26.8998 17.8582 26.9371 17.8395 26.9651 17.8302C29.673 16.8124 33.2398 19.3242 35.7051 23.6663L35.7053 23.6661Z" fill="url(#paint3_linear_210_70)"/>
<path d="M35.2192 37.0374C32.8755 37.0187 24.2198 36.944 20.3634 37.0654C20.3447 37.0654 18.5799 37.1308 18.5239 37.1308C14.3688 37.2989 10.8485 37.5603 7.98206 37.8498C9.43869 42.6865 13.7806 46.0012 19.5885 46.0012C25.7232 46.0012 31.7831 42.313 35.2195 37.0371L35.2192 37.0374Z" fill="#E4002B"/>
<path d="M35.2192 37.0374C31.7737 42.3131 25.723 46.0015 19.5882 46.0015C16.8244 46.0015 14.3967 45.2545 12.4449 43.9472C10.2974 42.5092 8.738 40.3897 7.97217 37.8499C10.8388 37.5698 14.3589 37.299 18.514 37.131C18.57 37.131 20.3442 37.0656 20.3535 37.0656C24.2192 36.9442 32.8842 37.0096 35.2186 37.0376L35.2192 37.0374Z" fill="url(#paint4_linear_210_70)"/>
<path d="M35.2192 37.0373C34.6403 37.028 33.6692 37.028 32.4741 37.0187C29.7102 37 25.6859 36.9906 22.819 37.0187C22.1841 37.5322 21.4651 38.2979 21.129 38.9888C18.8973 42.7611 18.1223 46.4587 11.222 40.819C11.222 40.819 10.1202 40.7163 9.37317 40.8563C10.1295 42.0142 11.1006 43.0039 12.2398 43.807C12.3238 43.863 12.3985 43.9097 12.4545 43.947C12.5853 44.031 12.7066 44.1151 12.8374 44.1991C14.7142 45.3476 17.0018 46.0013 19.5884 46.0013C25.7232 46.0013 31.783 42.313 35.2194 37.0372L35.2192 37.0373Z" fill="url(#paint5_linear_210_70)"/>
<path d="M43.249 37.5134C43.165 37.308 41.5963 37.2519 40.6532 37.1959C38.599 37.0839 37.796 37.0652 35.835 37.0372C35.835 37.0372 35.6016 37.0372 35.2281 37.0278H35.2187H35.2281C34.8826 37.5507 34.5184 38.0549 34.1262 38.5499C39.5419 38.3911 43.0996 38.0083 43.2488 37.5134L43.249 37.5134Z" fill="url(#paint6_linear_210_70)"/>
<path d="M113.803 34.1237C113.102 30.3423 116.576 26.1496 120.946 24.9452C126.035 23.9181 130.321 25.8789 131.096 29.782C131.637 33.6009 128.696 37.5973 123.766 38.7461C119.106 39.6145 114.615 37.943 113.803 34.1241V34.1237ZM120.357 29.5296C118.649 31.4718 118.21 34.0117 119.377 35.188C120.544 36.3645 122.869 35.7482 124.569 33.806C126.268 31.8638 126.716 29.324 125.549 28.1477C124.391 26.9712 122.066 27.5875 120.357 29.5296ZM96.6778 28.792C96.6497 28.2784 96.3976 27.8956 95.9401 27.6528C95.4826 27.41 94.8103 27.2793 93.9419 27.2793H93.0548L92.2144 31.2289H92.9241C94.1567 31.2289 95.0997 31.0234 95.7627 30.6033C96.4163 30.1738 96.7244 29.5762 96.6778 28.7918V28.792ZM86.9764 38.4095C86.9764 38.4095 85.6504 38.4655 85.8278 37.205L88.1435 26.3548C88.2743 25.7291 88.8905 25.2249 89.5161 25.2249H95.1091C96.1362 25.2249 97.0326 25.2903 97.7983 25.4117C98.5733 25.5237 99.2456 25.7198 99.8152 25.9999C100.385 26.28 100.824 26.6442 101.141 27.1017C101.459 27.5499 101.636 28.2222 101.683 28.8945C101.776 30.4165 101.085 31.6491 99.6004 32.5734C98.1157 33.5072 95.9868 33.862 93.2044 33.862H91.6637L90.6833 38.4094L86.9764 38.4095ZM65.3509 28.7452C65.3135 28.213 65.0894 27.8395 64.6692 27.6247C64.2491 27.4006 63.6515 27.2886 62.8578 27.2886H61.5972L60.8409 30.8368H62.0921C63.1752 30.8368 63.997 30.6594 64.5665 30.2859C65.1268 29.9124 65.3882 29.3988 65.3509 28.7452V28.7452ZM59.2254 38.4095H55.4625C55.201 38.4002 54.2206 38.3068 54.3793 37.205L56.695 26.3548C56.8257 25.7291 57.442 25.2249 58.0676 25.2249H64.4358C65.3602 25.2249 66.1632 25.2809 66.8542 25.3836C67.5545 25.4864 68.1614 25.6731 68.675 25.9346C69.1885 26.196 69.5247 26.4388 69.8702 26.9523C70.225 27.4752 70.309 27.8674 70.3557 28.5023C70.4677 30.015 69.8141 31.0421 68.4695 31.9012C67.2277 32.5548 65.5096 32.6575 65.0988 32.6668C65.0988 32.6668 64.6786 32.7602 65.1641 32.8816C65.1641 32.8816 65.7617 33.031 66.2566 33.4698C67.3117 34.3102 68.0867 35.1786 70.477 38.4001H64.828C64.828 38.4001 63.8569 36.4486 61.84 33.5448C61.3918 32.9005 60.6635 33.0032 60.3927 32.9752L59.2254 38.4095ZM137.434 35.8697H142L141.692 37.3357C141.57 37.9333 140.945 38.4189 140.338 38.4189H133.157C132.896 38.4095 131.916 38.3161 132.074 37.2143L134.39 26.3641C134.521 25.7385 135.137 25.2343 135.763 25.2343H139.731L137.434 35.8697ZM78.3017 30.6315H84.2962L83.9974 32.0134C83.876 32.6204 83.2504 33.1432 82.6248 33.1432H77.7694L77.1812 35.8697H83.1757L82.8676 37.3357C82.7462 37.9333 82.1206 38.4189 81.5136 38.4189H72.8954C72.6339 38.4095 71.6535 38.3161 71.8122 37.2143L74.1279 26.3641C74.2586 25.7385 74.8749 25.2343 75.5005 25.2343H85.4542L85.1554 26.6443C85.0247 27.2699 84.4085 27.7741 83.7828 27.7741H78.9182L78.3017 30.6315ZM115.035 25.2344L114.736 26.6443C114.559 27.298 114.074 27.7555 113.364 27.7742H113.046C110.199 27.7835 110.021 28.5585 109.47 31.201L108.789 34.3384C107.958 38.3347 104.353 38.4097 104.045 38.4097H96.8274L97.1355 36.9997C97.3223 36.3087 97.8358 35.9166 98.5081 35.8699H100.245C103.093 35.8605 103.27 35.0855 103.821 32.4431L104.503 29.3057C105.362 25.3186 109.704 25.2344 110.367 25.2344L115.035 25.2344Z" fill="white"/>
<defs>
<linearGradient id="paint0_linear_210_70" x1="4.35858" y1="31.2741" x2="4.70509" y2="33.2396" gradientUnits="userSpaceOnUse">
<stop stop-color="#D85B13"/>
<stop offset="0.269" stop-color="#E57B0C"/>
<stop offset="0.5447" stop-color="#EF9407"/>
<stop offset="0.7964" stop-color="#F5A304"/>
<stop offset="1" stop-color="#F7A803"/>
</linearGradient>
<linearGradient id="paint1_linear_210_70" x1="9.9423" y1="17.7694" x2="30.1904" y2="38.0165" gradientUnits="userSpaceOnUse">
<stop stop-color="#FDCC54"/>
<stop offset="0.0154" stop-color="#FCC94D"/>
<stop offset="0.1364" stop-color="#F7B01C"/>
<stop offset="0.1963" stop-color="#F5A709"/>
<stop offset="0.4906" stop-color="#F5A509"/>
<stop offset="0.6479" stop-color="#F39D09"/>
<stop offset="0.7728" stop-color="#F28F0A"/>
<stop offset="0.8806" stop-color="#EF7C0A"/>
<stop offset="0.9766" stop-color="#EB630B"/>
<stop offset="1" stop-color="#EA5C0B"/>
</linearGradient>
<linearGradient id="paint2_linear_210_70" x1="8.84601" y1="28.1115" x2="42.3178" y2="40.294" gradientUnits="userSpaceOnUse">
<stop stop-color="#A7A5A4"/>
<stop offset="0.0516" stop-color="#C5C4C3"/>
<stop offset="0.1074" stop-color="#DFDEDD"/>
<stop offset="0.1648" stop-color="#F1F0F0"/>
<stop offset="0.2241" stop-color="#FBFBFB"/>
<stop offset="0.2883" stop-color="white"/>
<stop offset="0.5148" stop-color="#FDFDFC"/>
<stop offset="0.6495" stop-color="#F5F4F4"/>
<stop offset="0.7602" stop-color="#E7E6E6"/>
<stop offset="0.8578" stop-color="#D3D2D2"/>
<stop offset="0.9461" stop-color="#BAB9B8"/>
<stop offset="1" stop-color="#A7A5A4"/>
</linearGradient>
<linearGradient id="paint3_linear_210_70" x1="13.2841" y1="17.7004" x2="36.5146" y2="26.1553" gradientUnits="userSpaceOnUse">
<stop offset="0.0859" stop-color="#FDCC54"/>
<stop offset="1" stop-color="#F1950A" stop-opacity="0.05"/>
</linearGradient>
<linearGradient id="paint4_linear_210_70" x1="21.6065" y1="46.0038" x2="21.6065" y2="36.996" gradientUnits="userSpaceOnUse">
<stop stop-color="#88181E" stop-opacity="0.3"/>
<stop offset="0.4969" stop-color="#B21829" stop-opacity="0"/>
<stop offset="0.6534" stop-color="#AA1827" stop-opacity="0.3111"/>
<stop offset="0.8996" stop-color="#931821" stop-opacity="0.8004"/>
<stop offset="1" stop-color="#88181E"/>
</linearGradient>
<linearGradient id="paint5_linear_210_70" x1="16.3402" y1="46.8964" x2="27.9195" y2="31.5299" gradientUnits="userSpaceOnUse">
<stop offset="0.0123" stop-color="#E20334" stop-opacity="0"/>
<stop offset="0.0489" stop-color="#DA0531" stop-opacity="0.041"/>
<stop offset="0.2059" stop-color="#BB0E28" stop-opacity="0.2166"/>
<stop offset="0.3591" stop-color="#A51421" stop-opacity="0.388"/>
<stop offset="0.5056" stop-color="#98181D" stop-opacity="0.5519"/>
<stop offset="0.638" stop-color="#93191C" stop-opacity="0.7"/>
<stop offset="1" stop-color="#95191D"/>
</linearGradient>
<linearGradient id="paint6_linear_210_70" x1="38.6893" y1="38.5535" x2="38.6893" y2="37.0352" gradientUnits="userSpaceOnUse">
<stop offset="0.006135" stop-color="#D7D8D8"/>
<stop offset="0.1914" stop-color="#D0D1D1"/>
<stop offset="0.4642" stop-color="#BCBDBD"/>
<stop offset="0.7894" stop-color="#9C9D9D"/>
<stop offset="1" stop-color="#838484"/>
</linearGradient>
</defs>
</svg>
