<svg width="143" height="62" viewBox="0 0 143 62" fill="none" xmlns="http://www.w3.org/2000/svg">
<path d="M38.4576 11.8869C38.4576 12.5666 38.256 13.231 37.8783 13.7961C37.5007 14.3612 36.9639 14.8016 36.3359 15.0616C35.708 15.3215 35.017 15.3894 34.3504 15.2567C33.6838 15.1239 33.0716 14.7964 32.5912 14.3156C32.1108 13.8349 31.7837 13.2224 31.6514 12.5557C31.5191 11.8891 31.5875 11.1981 31.8479 10.5703C32.1084 9.94255 32.5492 9.4061 33.1145 9.02885C33.6799 8.6516 34.3444 8.4505 35.0241 8.45099C35.934 8.45456 36.8057 8.81778 37.4489 9.46145C38.0921 10.1051 38.4547 10.977 38.4576 11.8869Z" fill="white"/>
<path d="M97.7106 47.0725V40.3126C92.8626 39.6761 91.0037 38.7664 89.0278 35.5286C88.4911 34.3406 88.4036 34.1548 88.3335 26.788V19.2747H93.2701V26.2254C93.2701 34.3111 93.2036 34.38 95.1389 35.3477C96.2198 35.8881 96.5017 35.9214 99.961 35.9214C103.35 35.9214 103.711 35.8807 104.621 35.3957C106.498 34.3936 106.504 34.3616 106.505 26.3349V19.2747H111.414V26.4654C111.414 35.0214 111.527 35.4917 109.69 37.3666C107.781 39.537 105.272 39.7389 102.071 40.3126V47.7939C102.071 49.5346 97.7131 49.6036 97.7131 47.0725H97.7106ZM7.34943 40.16C5.76111 40.029 4.2422 39.4516 2.96802 38.4943C2.02874 37.4447 1.45434 36.1192 1.33069 34.7161L1.33069 33.7399H5.65793L5.80812 34.4231C5.98628 34.9135 6.28577 35.3508 6.67865 35.6942C7.07152 36.0376 7.54498 36.2758 8.05484 36.3867C8.4611 36.463 11.5326 36.4926 14.8799 36.4519C21.3985 36.3732 21.9377 36.2845 22.4326 35.1962C22.5984 34.7809 22.6801 34.3367 22.6729 33.8896C22.6657 33.4424 22.5698 33.0011 22.3908 32.5913C21.8848 31.588 21.0046 31.4698 13.9456 31.4562C10.3188 31.4488 6.77575 31.3331 6.02356 31.1965C5.21447 31.1388 4.43381 30.874 3.75662 30.4275C3.07943 29.981 2.52848 29.3679 2.15674 28.6469C1.62775 27.6004 1.42205 26.4202 1.56582 25.2565C1.5769 21.7147 2.31555 20.6203 5.32923 19.6699C6.87054 19.1873 7.35189 19.1578 14.076 19.1578C20.2819 19.1578 21.3911 19.2119 22.7281 19.58C25.3133 20.2916 26.5863 21.7639 26.59 24.0365V24.7826H24.3519C22.259 24.7826 22.0953 24.7481 21.8835 24.2753C21.627 23.8689 21.2728 23.5333 20.8531 23.2991C20.1009 22.8608 19.6713 22.8313 14.0822 22.8313C7.17708 22.8313 6.76959 22.9113 6.38057 24.3541C6.18586 24.8492 6.14442 25.3914 6.26164 25.9104C6.37887 26.4293 6.64934 26.9011 7.03797 27.2644C7.55379 27.603 8.61129 27.6694 15.2197 27.7765C22.621 27.8996 22.8426 27.9144 24.1758 28.4659C25.0288 28.7698 25.7753 29.3147 26.3247 30.0346C26.874 30.7544 27.2027 31.6182 27.2707 32.5211C27.7287 35.2701 26.915 37.7557 25.1779 38.9043C23.4815 40.027 22.1864 40.2092 15.3428 40.2917C11.87 40.3335 8.27274 40.2732 7.34943 40.1575V40.16ZM124.014 40.1501C122.364 39.9073 120.777 39.3449 119.343 38.4943C118.118 37.5723 117.207 36.2951 116.734 34.8368C116.246 31.4538 116.243 28.0186 116.726 24.6348C117.075 23.4093 117.749 22.3009 118.677 21.4266C119.604 20.5523 120.75 19.9445 121.994 19.6674C123.486 19.1984 124.064 19.1578 129.354 19.1578C134.644 19.1578 135.223 19.1984 136.703 19.665C139.832 20.6498 141.539 22.297 142.111 24.8712C142.318 26.6713 142.379 28.4853 142.293 30.2953C142.221 34.1474 142.17 34.6509 141.686 35.6924C140.72 37.7938 139.048 39.0594 136.19 39.8534C132.15 40.3551 128.07 40.4545 124.01 40.1501H124.014ZM133.172 36.5147C135.286 36.2414 136.257 35.7256 136.988 34.4859C137.534 33.5552 137.604 33.1687 137.699 30.5465C137.868 25.8388 137.238 24.1018 135.052 23.2585C134.117 22.8978 133.27 22.8362 129.25 22.8362C124.687 22.8362 124.506 22.8535 123.393 23.4099C122.652 23.7334 122.044 24.3008 121.67 25.0177C121.127 25.9952 121.096 26.2426 121.096 29.6108C121.096 32.8387 121.144 33.2684 121.613 34.2188C121.982 34.8871 122.517 35.4487 123.167 35.8491C123.816 36.2494 124.559 36.4749 125.321 36.5037C127.934 36.7416 130.563 36.7465 133.177 36.5184L133.172 36.5147ZM32.5275 19.2796H37.4875V40.3126H32.5238L32.5275 19.2796ZM43.1295 32.6467C43.1295 24.1645 43.2231 23.501 44.6425 21.8427C46.3783 19.8028 48.9796 19.0519 54.2671 19.0519C58.1253 19.0519 60.1245 19.3769 61.9453 20.3002L63.1345 20.9022L64.3324 20.3162C66.4412 19.2846 68.502 18.9916 72.8674 19.106C74.6928 19.0231 76.52 19.2232 78.2842 19.6994C79.1965 19.9835 80.0429 20.447 80.7737 21.0626C81.5045 21.6782 82.1051 22.4335 82.54 23.2843C83.0719 24.4268 83.387 24.2544 83.387 32.1924V40.3175H78.4085V32.7292C78.4085 23.7866 78.3531 25.2528 77.9013 24.6348C76.9374 23.3188 76.0042 23.0689 72.0525 23.0689C69.0462 23.0689 68.3346 23.1366 67.5221 23.5035C65.7346 24.3098 65.6878 24.7579 65.6878 32.6134V40.3126H60.6908V32.7119C60.6908 24.833 60.6711 25.2467 60.2193 24.6287C59.2554 23.3126 58.3222 23.0627 54.3705 23.0627C50.2328 23.0627 49.2283 23.3471 48.3456 24.7641C47.8531 25.5655 48.0809 25.8093 48.0218 32.8412V40.3126H43.0753L43.1295 32.6467Z" fill="white"/>
<path d="M103.328 49.3536C103.328 50.0332 103.127 50.6975 102.749 51.2625C102.372 51.8275 101.835 52.2679 101.207 52.528C100.579 52.7881 99.8884 52.8561 99.2219 52.7235C98.5554 52.5909 97.9431 52.2637 97.4626 51.7832C96.9821 51.3027 96.6548 50.6904 96.5223 50.0239C96.3897 49.3574 96.4577 48.6666 96.7178 48.0387C96.9778 47.4109 97.4182 46.8743 97.9833 46.4967C98.5483 46.1192 99.2126 45.9177 99.8922 45.9177C100.803 45.9206 101.675 46.2835 102.319 46.9273C102.962 47.571 103.325 48.4432 103.328 49.3536V49.3536Z" fill="white"/>
</svg>
