<svg width="100" height="100" viewBox="0 0 100 100" fill="none" xmlns="http://www.w3.org/2000/svg">
<g style="mix-blend-mode:multiply">
<path d="M49.9759 10.0131C51.6713 10.0131 53.2969 10.6925 54.4957 11.9017C55.6945 13.111 56.368 14.7511 56.368 16.4612V61.2481C56.2138 68.6852 53.1764 75.7651 47.9077 80.9695C42.6389 86.1741 35.5583 89.089 28.184 89.089C20.8097 89.089 13.729 86.1741 8.4603 80.9695C3.19155 75.7651 0.154521 68.6852 0 61.2481V16.4612C0 15.6144 0.1652 14.7759 0.486591 13.9936C0.807649 13.2113 1.27856 12.5005 1.87228 11.9017C2.46567 11.303 3.17053 10.828 3.94614 10.504C4.72141 10.1799 5.55276 10.0131 6.39212 10.0131C7.23181 10.0131 8.06282 10.1799 8.83843 10.504C9.61404 10.828 10.3186 11.303 10.9123 11.9017C11.5057 12.5005 11.9766 13.2113 12.298 13.9936C12.619 14.7759 12.7846 15.6144 12.7846 16.4612V61.2481C12.7262 63.3253 13.0813 65.3928 13.8288 67.3288C14.5768 69.2652 15.7014 71.0304 17.1372 72.5202C18.5729 74.01 20.2904 75.1944 22.1877 76.0031C24.0853 76.8117 26.1241 77.2286 28.184 77.2286C30.2438 77.2286 32.2826 76.8117 34.1803 76.0031C36.0776 75.1944 37.795 74.01 39.2308 72.5202C40.6665 71.0304 41.7916 69.2652 42.5391 67.3288C43.2867 65.3928 43.6418 63.3253 43.5834 61.2481V16.4612C43.5817 15.6139 43.7463 14.7747 44.0667 13.9917C44.3874 13.2086 44.8583 12.4971 45.452 11.8981C46.0461 11.299 46.7513 10.8241 47.5275 10.5006C48.3038 10.1772 49.1358 10.0115 49.9759 10.0131Z" fill="#56EB38"/>
</g>
<g style="mix-blend-mode:multiply">
<path d="M93.6078 10.0125C94.4465 10.0108 95.2775 10.1761 96.0531 10.4988C96.8284 10.8215 97.5332 11.2952 98.127 11.893C98.7207 12.4908 99.1916 13.2008 99.513 13.9824C99.8344 14.764 99.9999 15.6019 99.9999 16.448V61.2477C99.9999 68.7859 97.0313 76.0157 91.7469 81.3462C86.4624 86.6767 79.2954 89.6713 71.8219 89.6713C64.3488 89.6713 57.1818 86.6767 51.8973 81.3462C46.6129 76.0157 43.6443 68.7859 43.6443 61.2477V16.448C43.6443 14.7379 44.3178 13.0979 45.5166 11.8886C46.7154 10.6794 48.341 10 50.0364 10C51.7318 10 53.3578 10.6794 54.5566 11.8886C55.7554 13.0979 56.4288 14.7379 56.4288 16.448V61.2477C56.4288 63.2865 56.827 65.306 57.6006 67.1896C58.3739 69.0736 59.5079 70.7853 60.9373 72.2274C62.3668 73.6691 64.0638 74.8129 65.9314 75.5932C67.799 76.3734 69.8005 76.7753 71.8219 76.7753C73.8437 76.7753 75.8452 76.3734 77.7128 75.5932C79.5804 74.8129 81.2774 73.6691 82.7068 72.2274C84.1363 70.7853 85.27 69.0736 86.0436 67.1896C86.8172 65.306 87.2153 63.2865 87.2153 61.2477V16.448C87.2187 14.7401 87.8935 13.1032 89.092 11.8966C90.2904 10.6901 91.9144 10.0125 93.6078 10.0125Z" fill="#FD7832"/>
</g>
</svg>
