<svg width="143" height="62" viewBox="0 0 143 62" fill="none" xmlns="http://www.w3.org/2000/svg">
<path d="M142.992 24.2873C142.992 27.0826 142.171 29.8149 140.631 32.1391C139.092 34.4633 136.903 36.2746 134.343 37.3443C131.784 38.4141 128.966 38.6939 126.248 38.1486C123.531 37.6032 121.034 36.2573 119.074 34.2807C117.115 32.3042 115.781 29.786 115.24 27.0445C114.7 24.3029 114.977 21.4613 116.037 18.8789C117.098 16.2965 118.894 14.0892 121.198 12.5363C123.501 10.9833 126.21 10.1545 128.982 10.1545C130.829 10.1265 132.663 10.4729 134.375 11.1732C136.088 11.8736 137.644 12.9135 138.95 14.2315C140.257 15.5495 141.288 17.1186 141.983 18.846C142.676 20.5733 143.02 22.4236 142.992 24.2873ZM128.982 14.7697C127.115 14.7723 125.291 15.3331 123.74 16.3812C122.19 17.4293 120.982 18.9176 120.269 20.658C119.558 22.3984 119.372 24.3127 119.739 26.1591C120.105 28.0054 121.005 29.7009 122.326 31.031C123.647 32.3612 125.33 33.2664 127.16 33.6322C128.992 33.9981 130.889 33.8082 132.613 33.0863C134.338 32.3646 135.81 31.1434 136.847 29.5773C137.883 28.0111 138.435 26.1702 138.435 24.2873C138.453 23.0305 138.221 21.7826 137.752 20.6179C137.284 19.4532 136.588 18.3952 135.706 17.5068C134.824 16.6183 133.775 15.9175 132.62 15.4458C131.465 14.9742 130.227 14.7412 128.982 14.7609V14.7697Z" fill="black"/>
<g style="mix-blend-mode:multiply">
<path d="M39.0997 10.1812C39.7001 10.1812 40.2758 10.4218 40.7003 10.85C41.1248 11.2782 41.3633 11.859 41.3633 12.4646V28.3242C41.3087 30.9578 40.2331 33.4649 38.3674 35.3078C36.5016 37.1509 33.9943 38.1831 31.3829 38.1831C28.7716 38.1831 26.2642 37.1509 24.3985 35.3078C22.5328 33.4649 21.4573 30.9578 21.4026 28.3242V12.4646C21.4026 12.1647 21.4611 11.8678 21.5749 11.5908C21.6886 11.3137 21.8553 11.062 22.0656 10.85C22.2757 10.638 22.5253 10.4698 22.8 10.355C23.0745 10.2403 23.3689 10.1812 23.6661 10.1812C23.9635 10.1812 24.2577 10.2403 24.5324 10.355C24.8071 10.4698 25.0565 10.638 25.2668 10.85C25.4769 11.062 25.6437 11.3137 25.7575 11.5908C25.8712 11.8678 25.9298 12.1647 25.9298 12.4646V28.3242C25.9091 29.0598 26.0348 29.7919 26.2996 30.4775C26.5644 31.1632 26.9627 31.7883 27.4711 32.3158C27.9795 32.8434 28.5877 33.2628 29.2596 33.5492C29.9315 33.8355 30.6535 33.9831 31.3829 33.9831C32.1123 33.9831 32.8343 33.8355 33.5063 33.5492C34.1782 33.2628 34.7863 32.8434 35.2947 32.3158C35.8032 31.7883 36.2016 31.1632 36.4663 30.4775C36.731 29.7919 36.8568 29.0598 36.8361 28.3242V12.4646C36.8355 12.1645 36.8937 11.8674 37.0072 11.5901C37.1208 11.3128 37.2875 11.0608 37.4978 10.8487C37.7081 10.6366 37.9579 10.4684 38.2327 10.3538C38.5076 10.2393 38.8023 10.1806 39.0997 10.1812Z" fill="#56EB38"/>
</g>
<g style="mix-blend-mode:multiply">
<path d="M54.5504 10.181C54.8474 10.1804 55.1417 10.2389 55.4163 10.3532C55.6909 10.4675 55.9405 10.6352 56.1507 10.8469C56.361 11.0586 56.5277 11.31 56.6415 11.5868C56.7553 11.8636 56.814 12.1603 56.814 12.4599V28.3241C56.814 30.9935 55.7627 33.5536 53.8914 35.4412C52.0202 37.3288 49.4822 38.3893 46.8358 38.3893C44.1894 38.3893 41.6515 37.3288 39.7802 35.4412C37.9089 33.5536 36.8577 30.9935 36.8577 28.3241V12.4599C36.8577 11.8543 37.0962 11.2736 37.5207 10.8454C37.9452 10.4172 38.5208 10.1766 39.1212 10.1766C39.7216 10.1766 40.2973 10.4172 40.7219 10.8454C41.1464 11.2736 41.3849 11.8543 41.3849 12.4599V28.3241C41.3849 29.0461 41.5258 29.7612 41.7998 30.4282C42.0736 31.0953 42.4752 31.7015 42.9814 32.2122C43.4875 32.7227 44.0885 33.1277 44.7498 33.404C45.4112 33.6803 46.1199 33.8226 46.8358 33.8226C47.5517 33.8226 48.2604 33.6803 48.9218 33.404C49.5831 33.1277 50.1841 32.7227 50.6903 32.2122C51.1964 31.7015 51.5979 31.0953 51.8718 30.4282C52.1458 29.7612 52.2868 29.0461 52.2868 28.3241V12.4599C52.288 11.8551 52.5269 11.2755 52.9513 10.8482C53.3757 10.4209 53.9508 10.181 54.5504 10.181Z" fill="#FD7832"/>
</g>
<path d="M93.0321 38.4203C92.4326 38.4203 91.8575 38.1803 91.4331 37.7531C91.0087 37.3259 90.7697 36.7462 90.7686 36.1414V20.2552C90.8232 17.6217 91.8987 15.1146 93.7645 13.2716C95.6302 11.4286 98.1375 10.3964 100.749 10.3964C103.36 10.3964 105.868 11.4286 107.733 13.2716C109.599 15.1146 110.675 17.6217 110.729 20.2552V36.1193C110.704 36.7081 110.454 37.2642 110.032 37.6717C109.609 38.0792 109.048 38.3065 108.463 38.3065C107.879 38.3065 107.318 38.0792 106.895 37.6717C106.473 37.2642 106.223 36.7081 106.198 36.1193V20.2552C106.198 19.5331 106.057 18.8181 105.783 18.151C105.509 17.4839 105.107 16.8777 104.601 16.3671C104.095 15.8566 103.494 15.4515 102.833 15.1752C102.171 14.8989 101.463 14.7566 100.747 14.7566C100.031 14.7566 99.3221 14.8989 98.6607 15.1752C97.9994 15.4515 97.3984 15.8566 96.8923 16.3671C96.3861 16.8777 95.9846 17.4839 95.7107 18.151C95.4367 18.8181 95.2958 19.5331 95.2958 20.2552V36.1193C95.2946 36.7241 95.0556 37.3038 94.6312 37.731C94.2068 38.1582 93.6317 38.3982 93.0321 38.3982V38.4203Z" fill="black"/>
<path d="M3.9597 37.4795C2.54113 36.8436 1.07002 35.8851 0.220623 34.1584C0.0919187 33.886 0.0179143 33.5905 0.00287012 33.2891C-0.0121741 32.9878 0.0320316 32.6863 0.132958 32.4023C0.233884 32.1182 0.38954 31.857 0.590938 31.6339C0.792337 31.4108 1.03551 31.2301 1.30645 31.1021C2.30908 30.6251 3.30734 30.9696 4.06478 31.7867C5.21553 33.0288 6.78841 33.7874 8.46935 33.911C11.1445 34.0745 13.0797 32.4933 13.0797 30.1658C13.0797 28.6951 12.423 27.1847 7.32225 25.5372C3.64884 24.3537 -0.160289 22.119 0.316947 16.7793C0.855479 10.7111 6.74431 10 8.60947 10C9.98863 10.0087 11.3516 10.3002 12.6156 10.8568C14.073 11.4439 15.2716 12.5416 15.9912 13.9484C16.1985 14.4234 16.2394 14.9554 16.1074 15.457C15.9753 15.9586 15.6781 16.4 15.2645 16.7087C14.8413 17.0246 14.3205 17.1785 13.7952 17.1429C13.2699 17.1073 12.7742 16.8846 12.3967 16.5144C11.5998 15.8121 10.4746 14.6859 8.61822 14.5225C7.10333 14.3856 5.26007 15.0392 4.91856 16.9648C4.48073 19.4028 6.17511 20.498 9.94047 21.6198C14.98 23.1215 17.677 25.6742 17.677 30.1613C17.677 35.0196 13.9598 38.3938 8.33802 38.3938C6.83457 38.3655 5.34961 38.0539 3.9597 37.4751V37.4795Z" fill="black"/>
<path d="M83.5481 30.2233C81.5515 30.3602 80.4483 34.0304 74.2048 34.0304C68.9245 34.0304 65.8466 30.7047 65.8466 26.1557H83.8196C85.8817 26.1557 86.2101 25.2149 86.2101 23.6073C86.2101 16.5409 81.9062 10.1679 74.0472 10.1679C65.9691 10.1679 61.0874 16.7927 61.0874 24.3007C61.0874 31.6189 65.1023 38.4336 74.3142 38.4336C80.803 38.4336 85.5403 34.7413 85.6978 32.4006C85.7208 32.1096 85.681 31.8169 85.5812 31.5429C85.4814 31.2688 85.324 31.0198 85.1197 30.813C84.9155 30.606 84.6693 30.4463 84.3979 30.3444C84.1267 30.2426 83.8367 30.2013 83.5481 30.2233ZM74.1128 14.6595C79.0384 14.6595 81.5165 18.3782 81.591 22.1676H65.8291C66.0831 18.1441 69.1829 14.6595 74.1128 14.6595Z" fill="black"/>
<path d="M97.5717 57.0047C100.321 51.0998 94.8046 50.8613 95.6935 56.8237C94.774 57.3846 93.7364 57.4685 93.3642 56.7751C96.5735 57.0002 95.1156 52.8841 92.865 54.5093C92.4273 53.105 93.7889 51.9566 95.4614 52.7427V51.1704C93.3466 50.2165 89.8528 51.9654 91.823 55.8431C91.2932 58.5505 94.1961 59.4956 96.3983 58.0515C96.7096 58.3316 97.1055 58.4975 97.5219 58.5223C97.9382 58.5471 98.3508 58.4294 98.6926 58.1883V56.987C98.1628 57.4286 97.2653 57.3271 97.5324 56.987L97.5717 57.0047ZM93.6707 55.2204C93.7313 55.2214 93.7903 55.2403 93.8401 55.275C93.89 55.3096 93.9287 55.3586 93.9511 55.4154C93.9735 55.4721 93.9787 55.5344 93.966 55.5942C93.9532 55.654 93.9233 55.7086 93.8799 55.7513C93.8364 55.7938 93.7814 55.8225 93.7217 55.8335C93.6622 55.8446 93.6006 55.8377 93.5449 55.8135C93.4893 55.7892 93.442 55.7489 93.409 55.6976C93.376 55.6463 93.3589 55.5863 93.3599 55.5252C93.3603 55.4845 93.3688 55.4445 93.3848 55.4071C93.4007 55.3699 93.4238 55.3361 93.4526 55.3079C93.4815 55.2795 93.5156 55.2573 93.5531 55.2423C93.5904 55.2273 93.6304 55.2198 93.6707 55.2204ZM97.1734 55.1057C97.112 55.5473 96.95 55.9006 96.8143 55.8829C96.6786 55.8652 96.6217 55.481 96.6829 55.035C96.7442 54.5888 96.9063 54.24 97.0419 54.2576C97.1777 54.2753 97.2346 54.6552 97.1734 55.1057Z" fill="black"/>
<path d="M109.849 55.7373C109.68 55.5057 109.457 55.32 109.2 55.1966C108.942 55.0734 108.658 55.0163 108.374 55.0307C106.977 52.1157 104.302 55.6666 106.67 56.4528C107.279 56.5367 106.907 57.1771 106.36 57.1329C105.812 57.0887 105.764 56.3247 105.795 55.8522C105.747 54.8629 103.969 55.3486 104.249 56.7355C100.208 59.7652 98.8946 51.4887 104.162 52.8444V51.4488C96.8018 50.3094 98.3868 62.0484 105.007 57.9455C106.662 58.9966 108.216 57.6585 108.234 56.6516C108.733 56.6516 108.965 56.8723 108.96 57.2124V58.4093H110.055V57.1594C110.055 56.7177 110.366 56.5411 110.764 56.5234V55.2779C110.37 55.172 109.853 55.4591 109.814 55.7196L109.849 55.7373ZM107.012 55.4414C106.98 55.448 106.946 55.4472 106.914 55.4391C106.882 55.4311 106.852 55.416 106.826 55.3948C106.801 55.3737 106.78 55.3471 106.766 55.3169C106.752 55.2868 106.745 55.2539 106.745 55.2206C106.745 55.1872 106.752 55.1543 106.766 55.1242C106.78 55.094 106.801 55.0674 106.826 55.0463C106.852 55.0251 106.882 55.01 106.914 55.002C106.946 54.9939 106.98 54.9931 107.012 54.9997C107.044 54.9931 107.078 54.9939 107.11 55.002C107.142 55.01 107.172 55.0251 107.197 55.0463C107.223 55.0674 107.244 55.094 107.258 55.1242C107.272 55.1543 107.279 55.1872 107.279 55.2206C107.279 55.2539 107.272 55.2868 107.258 55.3169C107.244 55.3471 107.223 55.3737 107.197 55.3948C107.172 55.416 107.142 55.4311 107.11 55.4391C107.078 55.4472 107.044 55.448 107.012 55.4414Z" fill="black"/>
<path d="M114.659 57.0887C118.704 55.406 115.045 51.758 113.114 55.5429H112.742L113.013 52.6545H111.805L111.586 55.3839H111.174L111.152 56.6073H111.441L111.406 58.5992L112.619 58.6212V57.1108C112.619 56.9385 112.939 56.8281 113.127 57.3537C113.227 57.7011 113.41 58.0186 113.66 58.2779C113.91 58.5372 114.22 58.7306 114.562 58.8409C114.903 58.9513 115.266 58.9753 115.619 58.9107C115.972 58.8463 116.304 58.6953 116.586 58.4711V57.0755C115.942 57.5171 115.141 57.8263 114.616 57.0755L114.659 57.0887ZM114.454 55.905C114.348 55.83 114.388 55.596 114.541 55.3839C114.694 55.1719 114.904 55.0571 115.01 55.1322C115.115 55.2073 115.071 55.4414 114.913 55.6533C114.756 55.8653 114.55 55.9757 114.454 55.905Z" fill="black"/>
<path d="M122.669 55.3971C122.5 54.9826 122.199 54.6365 121.814 54.4134C121.428 54.1903 120.98 54.1029 120.541 54.1649L120.225 49.5938H118.938L119.272 54.7744C117.332 56.6647 117.082 61.8408 119.131 61.9822C121.352 61.8055 120.707 56.7662 120.668 56.3422C120.41 55.3177 121.544 55.7593 121.609 56.4835L121.697 58.8287L123.011 58.8508L123.042 56.8811C123.068 56.0331 124.065 56.0464 124.065 56.9208L124.039 58.5196L125.436 58.5417V56.9694C125.256 54.2002 123.181 54.6375 122.621 55.3795L122.669 55.3971ZM119.498 58.5284C119.459 59.2968 119.32 59.9152 119.184 59.9063C119.048 59.8976 118.969 59.2704 119.009 58.5063C119.048 57.7423 119.188 57.1196 119.324 57.1283C119.459 57.1372 119.539 57.7599 119.498 58.5284Z" fill="black"/>
<path d="M141.462 55.0574C140.078 54.9514 137.8 56.9565 136.644 57.2392C137.98 54.1475 132.648 53.909 133.87 57.7559C133.667 57.8669 133.432 57.9022 133.208 57.8552C132.982 57.8083 132.781 57.6823 132.639 57.4998C133.847 55.9496 134.364 53.463 132.411 53.1053C131.216 52.9021 129.986 54.9514 130.87 57.4335C130.608 57.5438 130.069 57.7073 130.069 57.7073L130.095 55.9009H128.782C128.423 56.8637 127.468 57.3628 127.28 57.1729C127.079 56.4839 128.002 55.7463 129.771 55.6624V54.28C127.477 54.3552 125.975 55.5431 125.73 56.8947C125.646 58.8776 127.455 58.7849 128.58 58.0032V58.4449C126.391 59.2354 126.391 61.7131 128.217 61.8897C129.881 62.0443 130.134 60.4014 130.025 59.4164L131.561 58.3521C132.065 59.3458 134.289 59.2354 135.344 58.6127C135.783 58.9704 136.916 58.8115 137.271 58.5199L140.414 56.6473C141.356 56.0776 141.606 56.9918 141.29 57.3098C140.839 57.6859 140.307 57.9506 139.736 58.0826V59.4827C143.291 59.3635 144.018 55.0662 141.439 55.0662L141.462 55.0574ZM128.742 60.1982C128.745 60.2394 128.739 60.2809 128.724 60.3197C128.71 60.3583 128.687 60.3934 128.658 60.4224C128.628 60.4515 128.593 60.4737 128.555 60.4877C128.516 60.5018 128.475 60.5072 128.433 60.5037C128.393 60.5002 128.353 60.4876 128.317 60.4672C128.282 60.4467 128.251 60.4187 128.228 60.385C128.203 60.3515 128.186 60.3131 128.179 60.2724C128.171 60.2318 128.172 60.1898 128.181 60.1496C128.179 60.1083 128.185 60.0669 128.199 60.0281C128.215 59.9895 128.237 59.9544 128.267 59.9253C128.295 59.8964 128.33 59.874 128.369 59.8601C128.408 59.846 128.449 59.8406 128.49 59.8441C128.531 59.8477 128.57 59.8601 128.606 59.8806C128.642 59.9011 128.673 59.9291 128.697 59.9627C128.72 59.9963 128.737 60.0348 128.745 60.0754C128.752 60.1161 128.752 60.1579 128.742 60.1982ZM132.288 55.4284C132.223 55.87 132.061 56.1792 131.934 56.1571C131.807 56.135 131.751 55.7773 131.816 55.3577C131.882 54.9382 132.044 54.6069 132.175 54.629C132.306 54.6511 132.354 55.0043 132.288 55.4284ZM135.318 57.0846C135.139 57.0846 134.995 56.8593 134.998 56.5855C135.003 56.3117 135.152 56.0953 135.331 56.0997C135.511 56.104 135.655 56.3249 135.651 56.5987C135.647 56.8726 135.498 57.089 135.318 57.0846Z" fill="black"/>
<path d="M139.542 52.4692L140.221 53.6397L137.515 55.3179L136.683 54.2579L139.542 52.4692Z" fill="black"/>
<g style="mix-blend-mode:multiply">
<g style="mix-blend-mode:multiply">
<path d="M55.28 52.3805H59.7153V53.0164H55.9717V55.1275H59.3211V55.7634H55.9717V57.9276H59.759V58.5635H55.28V52.3805Z" fill="#FD7832"/>
</g>
<g style="mix-blend-mode:multiply">
<path d="M60.8599 53.9971H61.556V54.792C61.7096 54.5159 61.9353 54.2876 62.2086 54.1318C62.4818 53.976 62.7921 53.8989 63.1059 53.9087C64.2049 53.9087 64.8572 54.6507 64.8572 55.7372V58.5726H64.183V55.9226C64.183 55.0747 63.7452 54.5447 62.9264 54.5447C62.7411 54.5379 62.5564 54.5706 62.3845 54.641C62.2127 54.7114 62.0575 54.8176 61.9293 54.9528C61.8011 55.088 61.7026 55.249 61.6406 55.4253C61.5785 55.6016 61.5542 55.7892 61.5692 55.9757V58.5902H60.8948L60.8599 53.9971Z" fill="#FD7832"/>
</g>
<g style="mix-blend-mode:multiply">
<path d="M65.7973 56.2938C65.7808 55.9914 65.8248 55.6889 65.9269 55.404C66.0289 55.1193 66.1869 54.8582 66.3912 54.6363C66.5955 54.4146 66.8422 54.2366 67.1163 54.1131C67.3903 53.9896 67.6864 53.9232 67.9864 53.9177C69.3263 53.9177 70.1012 54.9954 70.1012 56.3292C70.1058 56.4027 70.1058 56.4764 70.1012 56.5499H66.5066C66.5192 56.9666 66.693 57.3617 66.9909 57.6507C67.2888 57.9396 67.6871 58.0994 68.1002 58.0957C68.3708 58.0978 68.6386 58.0413 68.8854 57.9301C69.1324 57.8188 69.353 57.6554 69.532 57.4509L69.9698 57.8308C69.743 58.1072 69.4567 58.328 69.1329 58.4764C68.809 58.6247 68.4558 58.6971 68.1002 58.6876C67.7898 58.6953 67.481 58.6382 67.1934 58.5197C66.9059 58.4012 66.6458 58.224 66.4294 57.9991C66.2131 57.7743 66.0452 57.5067 65.9364 57.2132C65.8276 56.9197 65.7803 56.6067 65.7973 56.2938ZM69.3962 56.0287C69.3306 55.1985 68.8533 54.4742 67.9558 54.4742C67.5604 54.4965 67.1881 54.6695 66.9142 54.958C66.6403 55.2466 66.4853 55.6293 66.4803 56.0287H69.3962Z" fill="#FD7832"/>
</g>
<g style="mix-blend-mode:multiply">
<path d="M71.0845 53.997H71.7588V55.2027C71.8991 54.8234 72.1526 54.4975 72.4843 54.2696C72.816 54.0419 73.2096 53.9235 73.6108 53.9307V54.6639H73.5583C72.5643 54.6639 71.7588 55.3793 71.7588 56.7573V58.5769H71.0845V53.997Z" fill="#FD7832"/>
</g>
<g style="mix-blend-mode:multiply">
<path d="M74.2199 59.3584L74.5263 58.8284C75.0314 59.2102 75.6464 59.415 76.2776 59.4114C77.2759 59.4114 77.9283 58.8549 77.9283 57.7861V57.2473C77.7317 57.5424 77.4665 57.7843 77.156 57.9521C76.8453 58.1199 76.4986 58.2086 76.1463 58.2101C75.8662 58.2148 75.5882 58.1628 75.3285 58.0573C75.0687 57.9516 74.8327 57.7945 74.6343 57.5952C74.4359 57.3958 74.2791 57.1584 74.1733 56.8968C74.0675 56.6352 74.0148 56.355 74.0183 56.0726C74.0137 55.7889 74.0655 55.5073 74.1706 55.2442C74.2757 54.9812 74.4322 54.7421 74.6307 54.541C74.829 54.3401 75.0654 54.1814 75.3258 54.0742C75.586 53.967 75.8651 53.9137 76.1463 53.9173C76.4937 53.913 76.8369 53.9946 77.1459 54.1547C77.455 54.3148 77.7205 54.5486 77.9195 54.8359V54.0144H78.5938V57.7861C78.6094 58.0808 78.5663 58.3757 78.4671 58.6534C78.3678 58.931 78.2144 59.1858 78.0158 59.4026C77.7788 59.6166 77.5018 59.7808 77.2011 59.8853C76.9003 59.9901 76.582 60.0331 76.2645 60.012C75.5324 60.012 74.8183 59.7837 74.2199 59.3584ZM77.937 56.0637C77.9297 55.8512 77.8807 55.6423 77.7925 55.449C77.7044 55.2559 77.579 55.0823 77.4239 54.9385C77.2686 54.7945 77.0865 54.6833 76.8883 54.6111C76.69 54.5389 76.4794 54.5072 76.2689 54.5179C76.0642 54.5082 75.8597 54.5409 75.6681 54.6142C75.4765 54.6875 75.3018 54.7995 75.1549 54.9436C75.0079 55.0878 74.8918 55.2607 74.8138 55.4518C74.7358 55.643 74.6977 55.8481 74.7014 56.0548C74.7003 56.2617 74.7401 56.4665 74.8188 56.6574C74.8975 56.8483 75.0133 57.0213 75.1594 57.1663C75.3056 57.3112 75.4791 57.4252 75.6696 57.5013C75.8602 57.5774 76.064 57.6142 76.2689 57.6095C76.6896 57.6276 77.1005 57.4779 77.4127 57.1927C77.7249 56.9075 77.9133 56.51 77.937 56.0858V56.0637Z" fill="#FD7832"/>
</g>
<g style="mix-blend-mode:multiply">
<path d="M79.9749 53.997H80.6491V58.5637H79.9749V53.997ZM80.8505 52.0272L81.551 52.3541L80.5528 53.3081H80.0273L80.8505 52.0272Z" fill="#FD7832"/>
</g>
<g style="mix-blend-mode:multiply">
<path d="M81.6958 57.2389C81.6958 56.2761 82.484 55.7638 83.631 55.7638C84.1035 55.7597 84.574 55.8252 85.0277 55.9582V55.7991C85.0277 54.9776 84.5242 54.5537 83.6749 54.5537C83.1973 54.559 82.7272 54.6739 82.3001 54.8893L82.0987 54.3328C82.6115 54.0812 83.1746 53.9513 83.7448 53.953C84.0103 53.9347 84.2765 53.9696 84.5284 54.0561C84.7802 54.1425 85.0125 54.2787 85.2116 54.4565C85.3714 54.6356 85.4943 54.845 85.5732 55.0725C85.6522 55.2999 85.6855 55.5409 85.6713 55.7815V58.5727H85.0277V57.8837C84.835 58.1361 84.5857 58.3391 84.3004 58.4757C84.015 58.6123 83.7016 58.6788 83.3858 58.6698C82.5715 58.661 81.6958 58.1751 81.6958 57.2389ZM85.0321 56.8855V56.4439C84.6056 56.3167 84.1633 56.2514 83.7186 56.2496C82.8692 56.2496 82.4051 56.6206 82.4051 57.1947C82.4051 57.7688 82.9306 58.1046 83.5435 58.1046C84.3535 58.1222 85.0365 57.6099 85.0365 56.8855H85.0321Z" fill="#FD7832"/>
</g>
</g>
</svg>
