<svg id="Capa_1" data-name="Capa 1" xmlns="http://www.w3.org/2000/svg" viewBox="0 0 78.7087 34.1255"><defs><style>.cls-1{fill:#db0626;}.cls-2{fill:#fff;}</style></defs><path class="cls-1" d="M28.0534,13.705,25.145,20.38H23.9245L21.0069,13.705h1.3443l2.2217,5.149,2.2409-5.149Z"/><path class="cls-1" d="M28.5292,13.7336a.726.726,0,0,1,.7629-.7151.71.71,0,0,1,.7627.6864.7637.7637,0,0,1-1.5256.0287Zm.1622,1.5542h1.1919V20.38H28.6914Z"/><path class="cls-1" d="M34.393,15.2306v1.1346a1.5186,1.5186,0,0,0-.2765-.0285,1.3878,1.3878,0,0,0-1.478,1.5733v2.47h-1.192V15.2878h1.1348v.7437A2.0035,2.0035,0,0,1,34.393,15.2306Z"/><path class="cls-1" d="M40.4092,15.2878v4.3194c0,1.85-.963,2.6889-2.7461,2.6889a4.0475,4.0475,0,0,1-2.4791-.7246l.5341-.8963a3.0751,3.0751,0,0,0,1.8783.61c1.1253,0,1.6209-.5149,1.6209-1.5446v-.2671a2.2409,2.2409,0,0,1-1.7066.677,2.4626,2.4626,0,1,1,0-4.92,2.2052,2.2052,0,0,1,1.7641.7342v-.677Zm-1.1725,2.3933a1.5524,1.5524,0,1,0-1.545,1.4589A1.4318,1.4318,0,0,0,39.2367,17.6811Z"/><path class="cls-1" d="M41.81,13.7336a.726.726,0,0,1,.7629-.7151.71.71,0,0,1,.7627.6864.7637.7637,0,0,1-1.5256.0287Zm.1622,1.5542h1.1919V20.38H41.9722Z"/><path class="cls-1" d="M49.743,17.4618V20.38H48.5511V17.6144c0-.9059-.4483-1.3445-1.211-1.3445a1.3524,1.3524,0,0,0-1.4208,1.5352V20.38H44.7274V15.2878h1.1347v.6579a2.2139,2.2139,0,0,1,1.7546-.7151A1.99,1.99,0,0,1,49.743,17.4618Z"/><path class="cls-1" d="M56.95,20.1031a1.873,1.873,0,0,1-1.1442.3433A1.5645,1.5645,0,0,1,54.0516,18.73V16.2795h-.8389V15.326h.8389V14.1626h1.1917V15.326h1.364v.9535h-1.364v2.4219c0,.4958.248.7628.7058.7628a1.0718,1.0718,0,0,0,.6676-.21Z"/><path class="cls-1" d="M62.5281,18.2151H58.5328a1.541,1.541,0,0,0,1.6495,1.2205,1.8247,1.8247,0,0,0,1.3827-.5531l.6389.7342a2.8592,2.8592,0,0,1-4.8627-1.783,2.5321,2.5321,0,0,1,2.6318-2.6031,2.4832,2.4832,0,0,1,2.5744,2.6317C62.5474,17.9576,62.5375,18.1007,62.5281,18.2151Zm-4.0047-.7915h2.8892a1.3863,1.3863,0,0,0-1.44-1.2395A1.4074,1.4074,0,0,0,58.5234,17.4236Z"/><path class="cls-1" d="M63.6905,13.3045h1.1922V20.38H63.6905Z"/><path class="cls-1" d="M66.0264,17.8337a2.5763,2.5763,0,0,1,2.7555-2.6031,2.2911,2.2911,0,0,1,2.174,1.1823l-.9155.534a1.44,1.44,0,0,0-1.2679-.7056,1.4943,1.4943,0,0,0-1.5445,1.5924,1.4891,1.4891,0,0,0,1.5445,1.5924A1.44,1.44,0,0,0,70.04,18.72l.9155.534a2.3147,2.3147,0,0,1-2.174,1.1919A2.5836,2.5836,0,0,1,66.0264,17.8337Z"/><path class="cls-1" d="M71.4894,17.8337a2.7146,2.7146,0,1,1,2.708,2.6126A2.563,2.563,0,0,1,71.4894,17.8337Zm4.2238,0a1.5134,1.5134,0,1,0-3.0227,0,1.5134,1.5134,0,1,0,3.0227,0Z"/><path class="cls-2" d="M16.3611,17.6443c-.0752,1.25-.6929,1.6593-.6929,2.8122a1.6546,1.6546,0,0,0,1.033,1.3992,3.9486,3.9486,0,0,0-1.8357-.4981,7.274,7.274,0,0,0-2.5251.5541,7.6166,7.6166,0,0,1-1.0347.2267h0a8.007,8.007,0,0,1-1.17.0866c-3.4442,0-6.2363-2.1739-6.2363-4.8555s2.7921-4.8556,6.2363-4.8556,6.2362,2.1739,6.2362,4.8556Z"/><path class="cls-1" d="M7.8148,17.7953l.0025-.0049.0051-.0027.0032-.0116.0017-.0059L7.83,17.765c.0013-.0057,0-.0118,0-.0176s.0056-.01.0046-.0156l-.0018-.0134-.0008-.0066.001-.0055-.0026-.0057,0-.0062-.0051-.0061-.0017-.0091a.2088.2088,0,0,1,.0123-.0581.0771.0771,0,0,1,.0012-.0142l.0037-.0057.0074,0c.0069,0,.0076-.005.0105-.01l.0052-.0136,0-.012-.006-.0022-.0026-.0007,0-.0059c.0009-.006.0043-.006.0088-.0089l.0055-.012L7.8658,17.53l-.0029-.0063a.0092.0092,0,0,1,.0027-.0115.0173.0173,0,0,0,.0062-.0106l.002-.0051L7.8731,17.49c-.0013-.0044-.006-.0028-.006-.0081l.0032-.014.0035-.0136.002-.0125.0049-.0163.0034-.0073.0015-.0068c.0024-.0035.0038-.0032.0027-.0072-.0016-.0065.0018-.0122.0018-.0188l.0014-.0077.0008-.0028-.0012-.0019.003-.0048.0015-.0092.0029-.0132c.0018-.0043.0048-.0073.005-.0121l.0013-.0135.0018-.013.0021-.013.005-.0107.0036-.0119c.0006-.0049,0-.0094,0-.0141l.0015-.0061.0037-.0041,0-.0106.0016-.0049.0007-.0071.0036-.0119.0073-.0289.0054-.0139c.0013-.0032,0-.0117.006-.0107.001-.0042-.0056-.0024-.0051-.0065l.0057-.0053-.0033-.0022.0027-.0026a.0484.0484,0,0,1,.0016-.02l.0027-.0062L7.95,17.1088l.0049-.0047,0-.0071.0024-.0149.0037-.0055.0016-.0075.0009-.0077.0033-.0013.0007-.0037.002-.0144.0007-.008c.0025-.002.0048.002.0054-.0031l-.0014-.01.0023-.0041,0-.0073.0038-.0058.0017-.0066.0023-.0061.001-.0049,0-.0059.0033-.0127.0038-.0112.0029-.0117L8,16.94,8,16.9319l.0022-.0065,0-.0068.0026-.0054.0015-.0069.0028-.0075.0036-.0047-.0014-.0034.0034-.0095.0049-.0041.0032-.0045.003-.0013,0-.0034.0006-.0081a.01.01,0,0,1,.0076-.0086l.0032-.0085.0018-.0047.0009-.005c.0027-.0067,0-.0158.0036-.022l.008-.0087a.0277.0277,0,0,0,.0027-.0144.0205.0205,0,0,1,.0028-.0142c.0053-.0063.0127-.0083.0173-.0151l.0013-.006.0023-.0051,0-.0053.0006-.0058a.0488.0488,0,0,1,.0013-.0128c.0016-.0046.0069-.0071.0072-.0118l.0011-.008L8.0886,16.7,8.09,16.698l.0033-.0143.004-.0134.0031-.0154.0077-.0121a.019.019,0,0,1,.01-.01l.007-.0018.0051-.0039a.0168.0168,0,0,0,.0076-.0108l.0024-.0061.0013-.0078.0034-.006.0032-.006.0043-.0091.0041-.0076.0007-.0058c.0011-.0048.0033-.0065.0023-.0115a.035.035,0,0,1-.0013-.0147c.0013-.0044.006-.007.0057-.0118l-.004-.0054-.0027-.007a.0427.0427,0,0,1,.0027-.0143c.0011-.0048,0-.0109.0013-.0157l.0027-.0055.0005-.0075a.0411.0411,0,0,0,.0025-.0148.0856.0856,0,0,1,.001-.0153v-.007l.0024-.0062L8.17,16.4243l-.0012-.0051.0048-.005.0029-.0065a.0218.0218,0,0,0,.0018-.0131.0242.0242,0,0,1,0-.0141l.0074-.0065c.0021-.0049-.0021-.0061-.0032-.01a.0276.0276,0,0,1,0-.0128.0864.0864,0,0,1,.0136-.0288c.0056-.01.0085-.02.0142-.03a.127.127,0,0,0,.0152-.0318l.001-.0073-.002-.0064c-.0007-.0078.0044-.0121.0073-.0186a.2455.2455,0,0,0,.0079-.0275l.0036-.0146.0014-.0158c.0011-.0053.0055-.0095.0055-.0154l.0014-.0084.0072-.005c.0061-.0029.0067-.0057.0084-.0118a.0552.0552,0,0,1,.0091-.0252l.0087-.0038.003-.0095.0032-.0088c-.0041-.0058-.01-.0077-.0115-.0147a.0405.0405,0,0,1-.0016-.0192l.004-.0057.0035-.0063.0087-.0149a.0759.0759,0,0,0,.0025-.018l.0017-.01.0046-.0067.0074-.0072.0041-.0106.0012-.0086-.0045-.0063a.0159.0159,0,0,1,.0024-.0147.0813.0813,0,0,0,.0095-.0136c.0013-.0034.0072-.0148,0-.0147l.0032-.0114.0036-.0079c.0012-.0046.0021-.0025.0057-.0041s0-.0024-.0023-.0039l-.0028-.0065.0027-.0186a.1027.1027,0,0,1,.0072-.0194l.0021-.0032.0014-.0038.0028-.0068.0028-.016.0056-.0156c.003-.0047.0037-.0093.0085-.0128a.0152.0152,0,0,0,.0057-.0139l.0017-.0077.0043-.0057-.0023-.0072.0026-.0076.0061-.0049.0019-.0087-.004-.0055.0046-.0069.0031-.0072.0064-.0031v-.0077l.0023-.006L8.4,15.6856l.0009-.0084.0015-.017.0018-.0108.0043-.0066.0007-.0085.0042-.0062.0021-.0112.0046-.01.0025-.0068a.0451.0451,0,0,1,.0065-.0143l.0027-.0055.006-.0019L8.44,15.575l.0019-.0024v-.002l.0021-.0049v-.004l.0018-.0025.0006-.0028-.0013-.0024.0017-.0069.0016-.0012.0016-.0018.0053-.0033.001-.0068,0-.0151.0009-.0061.0038-.0039.0028-.0113.0013-.0076.0064-.0114.0024-.0022v-.0023l0-.0069.0012-.007.0054-.0109.0033-.0049.0067-.0105,0-.0072.0049-.0146L8.5,15.3994c.0033-.013.0166-.0174.02-.03l.0084-.0172.0041-.0088L8.53,15.3361c.004-.0009.0087-.0109.0115-.0146.0049-.0064.0023-.0124.0056-.0191l.0068-.0079.0029-.0039.0034-.0032.0022-.0058.0036-.0033.0018-.013.0021-.01c-.0008-.0043-.0044-.0048-.0038-.01l.0017-.013c.0007-.0025.0066-.0059,0-.008a.0666.0666,0,0,1,.0073-.0183l.009-.0185.0089-.0224.0053-.0087.0028-.0124a.1364.1364,0,0,0,.0109-.0208l.001-.0059.0041-.003.0022-.0125c.0077.0013.0021-.008.0071-.0107l0-.0061.003-.0037.01-.0187.0033-.0048-.0016-.0052.0046-.0028.0013-.0057c.0007-.0049,0-.0116.0058-.0126l0-.0057c.0065-.0005.0125-.0248.0143-.0294.0083-.0194.0174-.0384.0261-.0579a.1306.1306,0,0,1,.0171-.0327l-.0025-.0019.005-.01.0043-.01a.0713.0713,0,0,1,.0088-.02l.0024-.0041.0038-.0029.0024-.01a.1932.1932,0,0,1,.0079-.0188c.0052-.008.007-.0156.0121-.0232L8.757,14.8l.0008-.0046.0056-.0114.0019-.0066.0039-.0031.0053-.011.0039-.0116.01-.0161.003-.0078a.05.05,0,0,1,.0084-.0161.0938.0938,0,0,1,.0108-.0178l.0088-.0066c.0029-.0028.0029-.005.0084-.0058.0015-.0051-.0022-.029.0092-.0237l.003-.0116L8.849,14.64c-.0091-.0061.0025-.0131.008-.0167l-.0011-.0016.0065-.0045.0016-.0087c.0017-.0061.0066-.0089.01-.0135s.0047-.0117.0111-.0149c.0045-.0021.0035-.0029.0045-.0079a.059.059,0,0,1,.01-.0182c.0083-.0111.0177-.02.0253-.0313l.0047-.0062.0057-.0013.0051-.0095.0062-.0108.0086-.01.0074-.0077.0082-.0126.0072-.0083.0085-.0062.0042-.0049.0008-.0059.0045-.0047.005-.0058.0044-.0057.0058-.0035.002-.0054L9.02,14.41l.0033-.0062.0056-.0028v-.0035l.0023-.002a.0294.0294,0,0,0,.01-.0141.087.087,0,0,1,.0153,0c.0064,0,.0013-.0068.0048-.0109l.0051-.0034.0043-.0053.0006-.0059,0-.0047.0054-.0034.004.0049-.0028.0059-.0016.0028.0028.0018c0,.0039.008-.0014.0091-.0026l.0029-.0057.0046-.0047c.004-.0042.0017-.0067-.0009-.0109l0-.0078.008-.0042,0-.0073.0039.0033-.0015.0054.0074-.0008.0024-.0018,0-.0042,0-.0041.0024.0011.0016-.0064.0061-.0021.0037-.0007.0027-.0017.0047.0026.001.0024.0035,0,.0012-.0029.0027-.0018.0037-.0044.003-.0055,0-.0082.0035-.0051c.0032.0007.0048.0045.0055-.0011.0005-.0028-.0011-.0077.0035-.0059l.001-.0057a.0254.0254,0,0,0,.0018-.0142c-.0008-.0048-.0031-.0094-.0005-.014a.0171.0171,0,0,1,.0089-.0082l.0037,0,.0021-.0013.0053.0018-.0033-.0108.0033-.0054.0057-.0041.0012-.0065.0013-.0027.0032-.0008.0032-.006.0039-.0042,0-.003.002-.0033.0041-.0056.0077-.01c.0019-.0044.0061-.0086.0069-.0134l.0024-.0048.0055-.0082.0028-.0013.0014-.0061.006-.0113.0034-.0128.0036-.0047.0024-.0057,0-.0079.0021-.0061.0027-.0131.0025-.0153.0021-.0065.0016-.0063-.002-.0013-.003-.0048.0038-.0043c.0021-.0038-.0008-.01-.0006-.0145l.0006-.0273-.0014-.0115-.0032-.01L9.26,13.97l-.0016-.0071-.0016-.0151-.0051-.0131L9.25,13.9284l-.0029-.0073,0-.0087-.0044-.0112-.0032-.0065-.0019-.0075c-.0007-.0048-.0051-.0063-.0065-.0115L9.23,13.8689l-.0052-.0053-.0021-.0066-.01-.0178L9.21,13.8329l-.0051-.0047-.0188-.0224-.0109-.0084-.0025-.0037-.0034-.0017-.0039-.0057-.0046-.0024-.0024-.0027-.0031-.0027-.0019-.0021-.0066-.0046-.0015-.0052-.0092-.0008-.0047-.0041-.0092-.0066-.0066-.0031-.0042-.0038-.0135-.0048-.0169-.0088-.0138-.0056-.0147-.0033-.0071-.0013H9.0424l-.0039-.0025a.0289.0289,0,0,0-.0125-.0073l-.0172-.0019-.0172-.0037-.0183-.0019-.0173-.002-.0079.0014-.0072-.0025-.0089.0029-.0069-.0029a.1636.1636,0,0,0-.0212.0039l-.0219.0031c-.0084.0011-.0105.0059-.0173.0083s-.0129.0018-.0192.0049l-.0172.0077a.4823.4823,0,0,0-.0782.0515c-.0091.0061-.012.0121-.02.0182l-.0038.0048-.0076.0011-.0033.0117a.02.02,0,0,0-.0124.0114l-.0045.0011c-.0018.005-.0049.0033-.0077.0067l-.0063.0121-.0168.0191a.2486.2486,0,0,0-.0163.0189.1993.1993,0,0,0-.0242.0365.1032.1032,0,0,0-.0089.0235c-.0118.0031-.0186.0262-.0241.0359l-.02.0379c-.0126.0236-.0209.0493-.0317.0751-.0058.0143-.01.0284-.0171.0429a.1333.1333,0,0,0-.0179.041.23.23,0,0,1-.0172.0507c-.0064.015-.0114.031-.0176.0458a.839.839,0,0,0-.035.084.482.482,0,0,1-.0176.045c-.0062.015-.01.03-.016.0445-.0121.0276-.02.0578-.031.0858-.0038.01-.0113.0176-.0143.0278a.24.24,0,0,1-.011.0354c-.0093.0215-.0159.0443-.025.0662-.0105.024-.019.0489-.0277.0737-.0108.0315-.0237.0622-.0344.0938-.0046.0132-.0129.0255-.0166.0388a.24.24,0,0,1-.0147.0435c-.0073.0155-.0135.0335-.02.0494-.0069.0207-.0123.0423-.02.0623-.0091.0226-.02.0441-.0276.0673-.01.0294-.02.0582-.0313.0864-.0288.0689-.0517.1419-.0749.2124l-.0079.02-.0061.0174a.1865.1865,0,0,1-.0119.017.069.069,0,0,0-.01.0214.2434.2434,0,0,0-.01.047.2247.2247,0,0,1-.02.0595c-.0036.0108-.0046.021-.0092.0317a.2974.2974,0,0,0-.0282.06c-.003.0142-.0117.0261-.0159.04s-.0065.0293-.0106.044c-.0032.01-.0134.0258-.0073.0355-.0088.0072-.0106.0289-.0141.0391a.3171.3171,0,0,1-.01.0444c-.0065.0137-.0192.0271-.0194.0432a.2176.2176,0,0,0,.0007.0463c.0021.0111-.0084.0138-.0131.0218a.067.067,0,0,0-.0081.0286.05.05,0,0,1-.0041.0271.2427.2427,0,0,0-.0109.03c-.0114.0391-.0211.0762-.0336.1146-.0061.019-.009.04-.0149.0588s-.0149.0378-.0205.0568a1.1314,1.1314,0,0,0-.0277.1178c-.0025.0138-.008.0269-.0094.0409-.0006.0056.0021.0144.0012.0189-.0018.0087-.0106.0146-.0126.024a.1654.1654,0,0,1-.0058.0311.3681.3681,0,0,0-.019.0543c-.0086.0412-.0242.0789-.0329.1193-.0066.0313-.02.0611-.0254.0928-.0025.0142-.0017.0279-.0055.0416-.0045.0163-.01.0321-.0147.0483L7.61,16.919l-.0023.0163c-.002.0051-.0067.0066-.0082.0122-.0026.01,0,.0171-.0044.0271a.0743.0743,0,0,0-.0051.0261c-.0029.0187-.01.0392-.0142.0579-.0075.03-.0157.0576-.0235.0879-.0039.0153-.006.032-.01.0471-.0066.0291-.0115.0588-.0162.0883-.0026.0161-.0081.0311-.0115.0461l-.0094.0448c-.0024.0112-.0128.0319-.0057.0418a.0879.0879,0,0,0-.0109.0409.1711.1711,0,0,1-.0056.04c-.0057.0215-.0121.0432-.016.0649a.4852.4852,0,0,1-.0118.0542.2762.2762,0,0,0-.0067.0407c-.0034.0221-.0076.0438-.01.0663-.0045.0452-.0156.0888-.0233.1327a.51.51,0,0,0-.01.0583c-.002.03-.0136.06-.0165.0894-.001.0109-.0053.0214-.0071.0325-.0034.0224-.0046.0451-.0082.0678a.9293.9293,0,0,1-.0234.1257.2326.2326,0,0,0-.007.046c-.0055.0564-.0164.1123-.0247.1681-.0042.0271-.0077.0543-.0107.0815a.4176.4176,0,0,1-.0042.0417.2465.2465,0,0,0-.0021.0282l-.0052.01c-.0008.0043,0,.0094,0,.0137-.0017.017-.0059.0337-.0072.0523l-.0063.002a.0365.0365,0,0,0-.0019.0158c-.0054.003-.0038.0127-.0084.0147-.01.0047-.0081-.0083-.0068-.0128-.0085-.009-.0066-.01-.0188-.0045L7.2411,18.67c-.0023-.008-.0012-.0052,0-.0126a.0744.0744,0,0,0,.0019-.0355c-.0019-.0062-.0054-.0062-.0052-.0136.0005-.0049.0047-.0078.0047-.0133,0-.0183-.0126-.0142-.0247-.019,0-.0051.0049-.0065.0053-.0105.0009-.0064-.0025-.01-.0027-.0162-.0005-.01,0-.02,0-.0314a.1585.1585,0,0,0,0-.0284.1566.1566,0,0,1-.0083-.0271c-.0009-.01-.0065-.0191-.0064-.028l.0051-.0113c.001-.0053-.0024-.0126-.001-.0171.0032-.0135.01-.0122.0061-.0259-.0086-.0283.0009-.0206-.0008-.0314a.078.078,0,0,0-.0074-.0254l-.01-.0066c-.0067-.0037-.0041-.0055-.0053-.0118l-.0016-.0072c.0024,0,.009,0,.008-.0037l-.005-.0023c-.004.0007-.0007.0018-.0025.0038-.0062.007-.01-.0028-.0081-.0095.001-.003.0039-.0051.0031-.0092s-.0043-.0042-.0014-.0084.0147-.0069.0142-.011l-.004-.0018-.0043.0023-.01.0032c-.0007.0069-.0079.0025-.0093-.0016l.0013-.0079-.0012-.0078,0-.0158a.0187.0187,0,0,1,.0012-.0128c.0023-.0038.0061-.0056.0062-.0106a.0091.0091,0,0,0-.0042-.01c-.0065-.005-.0032-.0027,0-.0071l.0031-.0111.0038-.01.0018-.0115.0043-.0026.0023-.0053.0041-.0095a.0285.0285,0,0,0-.0015-.02l-.0077-.014c-.0018-.0051,0-.011-.0024-.0158L7.1749,18.08l-.0017-.0117c-.0012-.0018-.01-.0053-.0032-.007.0007-.005-.0029-.0057-.0043-.0091l-.0029-.012-.0056-.0086-.001-.0125c-.0008-.0085-.0045-.0157-.0049-.0246s.0006-.0186,0-.0282a.0757.0757,0,0,0-.0008-.0233l-.0041-.0082c-.0025-.0045-.0015-.0064-.0024-.0109L7.14,17.9154l-.0059-.0132c-.0015-.0065,0-.0168-.0059-.0214.0039-.0028.0032-.0055.002-.0095L7.1267,17.86l-.0018-.0112c-.0016-.0029-.0067-.0045-.0017-.0077l.0117-.0028.0032-.0092c-.0007-.0056-.009-.0139-.013-.0182a.0373.0373,0,0,1-.01-.0222.0594.0594,0,0,1,.0025-.0161.12.12,0,0,0-.003-.0169c0-.0055,0-.0112,0-.0167s-.0029-.0077-.0052-.0128l-.003-.0141-.0088-.0094a.0534.0534,0,0,1-.0093-.0273l.002-.0079c-.003-.0029-.0082-.001-.0086-.0056,0-.0074.0054-.0034-.0015-.0082L7.0746,17.65l-.0006-.0087c-.0009-.0062-.002-.0068.0022-.0116s.0066-.0061.0037-.0123a.0129.0129,0,0,0-.0114-.0065c-.0079-.0012-.0072,0-.0086-.0079l-.0013-.0153a.06.06,0,0,0,0-.0147l-.0043-.0125c-.0013-.0079.0023-.0118.0043-.0191l-.0007-.01-.0087-.0025a.3825.3825,0,0,0-.0087-.0512c-.0016-.0066.0014-.0042.0033-.0091s-.0016-.007-.0049-.0107a.0344.0344,0,0,1-.0062-.0249L7.03,17.416a.1077.1077,0,0,1-.0042-.0172l.0035-.0063.0052-.0068-.0079-.0021-.0038-.0061.0027-.0069c.0017-.004-.0015-.0036-.0032-.0061L7.02,17.3491l.0018-.0075L7.02,17.3372l-.0036-.003-.0012-.0086-.0018-.0084-.0008-.0042L7.0109,17.31c0-.0008.0051-.0082,0-.0054-.0026-.0051,0-.0044.0037-.0059l-.0039-.0054-.0026-.008c-.0013-.0082.0012-.0091.0083-.011l.0044-.005-.0044-.0064,0-.0093-.0024-.0094-.0006-.0085c-.0018-.0038-.0074-.0043-.0067-.0086s.0061-.0023.0073-.0057L7.01,17.215l.0049-.0053L7.01,17.2046c-.0053-.0013-.01,0-.0136-.0053a.0143.0143,0,0,1-.0006-.0162c.0042-.0049.0063-.0057.0065-.0127,0-.0045,0-.0036-.0035-.0051l-.0045-.0068,0-.0181.0078-.0021c.0007-.0046-.0037-.0051-.007-.004l-.0106.0022,0,0-.003-.0063.0059-.004.0023-.0074-.0059-.0035-.0028-.0157c.0028-.001.004.0029.0059-.0014l-.0019-.0063L6.98,17.0852l-.0056-.0058L6.97,17.0606l.0023-.0076.0039-.0065c0-.0055-.0063-.0118-.0093-.0159a.024.024,0,0,1-.0039-.0161l0-.0084-.0022-.008L6.96,16.9894l-.0021-.0074.0011-.0065a.0448.0448,0,0,1-.0047-.0262.0419.0419,0,0,0-.0031-.0158l-.0034-.0172-.0041-.0174,0-.01-.0015-.01a.1237.1237,0,0,1-.0008-.02L6.94,16.85l-.0045-.0069c-.0009-.0064.0014-.0118-.0007-.0181l-.0012-.0036-.003-.0032.0015-.0063-.0041-.0177a.1682.1682,0,0,0-.0046-.02l0-.0094a.0223.0223,0,0,0-.0017-.01l-.0013-.0117-.0014-.0057-.0031-.0045.0007-.0043-.0012-.0047c-.0008-.0045,0-.0093-.0007-.0138l-.0038-.0157v-.0089l-.0023-.0081a.0809.0809,0,0,1-.0014-.0192l-.0043-.018-.0017-.0119c0-.0033.0013-.0077-.0032-.0092l-.0024-.0188-.0007-.0086-.0027-.009c-.0034-.0127-.0046-.0259-.0077-.0385l-.0019-.0178L6.8774,16.51a.2166.2166,0,0,0-.0114-.0344l-.0066-.0109-.0021-.0083-.0044-.0058L6.85,16.4426l-.0075-.0155-.0044-.0051-.0045-.0067-.0084-.0088-.0077-.0091-.0117-.009-.01-.0095-.01-.008a.1411.1411,0,0,0-.0222-.0115l-.0086-.0036L6.7367,16.35l-.009-.0028-.0226-.0033a.14.14,0,0,1-.0195-.0013L6.6784,16.34l-.008.0007c-.0063-.0011-.0119,0-.0183,0a.0459.0459,0,0,0-.0174.0023l-.018.0048-.0081.0026-.0053.005-.0106.0018.0006,0-.0172.0067-.013.0087a.099.099,0,0,0-.0253.0184c-.0065.0073-.0138.013-.0205.02a.14.14,0,0,0-.0223.0313.1862.1862,0,0,0-.022.0422c-.0056.0163-.0126.0326-.0167.0492l-.0035.0123-.0061.0117c-.0032.0082-.0033.0177-.0066.0258l-.0044.008-.003.0088-.0066.0159-.003.0094.0007.0068-.0037.002-.0011.0048c-.0058.0183-.0134.0369-.0175.0556l-.0053.0113-.0035.0118-.0073.0236-.0087.0214c-.01.0284-.0141.0575-.0258.0855a.1647.1647,0,0,1-.0138.0253.0472.0472,0,0,0-.0079.0276c-.0011.0114-.0052.0208-.0066.0334a.0484.0484,0,0,1-.0114.0254.1052.1052,0,0,0-.0131.0371c-.0027.0093-.0094.0191-.0121.03a.1064.1064,0,0,0-.0018.0249.1574.1574,0,0,1-.01.0321l-.0195.0569c-.0055.0166-.0135.0341-.017.05a.0583.0583,0,0,1-.0113.0269.0814.0814,0,0,0-.01.0241c.0056.0062-.0061.0179-.0075.0254a.17.17,0,0,1-.0045.0309.31.31,0,0,0-.0195.0583c-.0032.0181-.02.0295-.027.0461a.0748.0748,0,0,0-.007.03.0607.0607,0,0,1-.0041.0322.1409.1409,0,0,1-.0161.0385c-.0032.0032-.0284.0152-.0113.0217-.0068.0084-.0173.0109-.0067.0247l-.0108.0182a.1175.1175,0,0,1-.003.0288c-.0079.0235-.02.0456-.0283.0688-.01.0283-.0262.0535-.0347.0814l.0055,0a.1269.1269,0,0,1-.0066.0238l-.01.0241c-.0019.0049,0,.01-.0025.0157l-.0073.0118c-.0038.0076-.0035.0178-.01.0235.002.0059-.0038.0148-.0061.021s-.0022.0164-.0046.0242a.4639.4639,0,0,1-.0183.0451c-.0065.0161-.0112.03-.0161.0459a.2375.2375,0,0,0-.018.099.1084.1084,0,0,0,.0163.0492.2017.2017,0,0,0,.0614.0632.1488.1488,0,0,0,.0379.0142.1057.1057,0,0,1,.0173.0065.0485.0485,0,0,0,.016-.0012c.0068,0,.0136.0008.0206.0008a.0679.0679,0,0,0,.0152-.0039l.02-.0022.01.0008.0083-.005.0091-.0011.0056-.005a.1073.1073,0,0,1,.0162-.0065.1191.1191,0,0,0,.0321-.02l.0137-.015.0065-.0056.005-.01c.0058-.0047.0156.0046.0185-.0006s-.0025-.0047-.004-.0081c-.0049-.009,0-.0157.0037-.0235s.0026-.008.01-.0118.0056-.0077.0047-.0141l-.0013-.0084c.0016-.0031.0062-.0019.0043-.0062.0033-.0042.0058,0,.0067-.0073l.0016-.0135.0067-.0083.0013-.0136c.0014-.0087.0066-.0126.0124-.0189l.0049-.01c-.0016-.0038-.0062-.0024-.0025-.0081s.0129-.0088.0159-.0153l.003-.0118c.0025-.0034.0066-.0037.0075-.0088s-.0024-.007,0-.013l.0036-.0117a.0488.0488,0,0,1,.01-.0226c.0026-.0038.0058-.0091.0112-.0106.003-.0009.0133-.0005.0125-.0054s-.01-.0013-.0129-.0033l0-.0127.0046-.0044.0028-.0069.0009-.0068.005-.0024.0007-.0045,0-.0032.0032-.0016-.0016-.0042,0-.0064.0046-.0045,0-.0031.0016-.0015.0045-.0035c-.0048-.0021.0008-.0065.0022-.0095s.0065-.005.0087-.0086v-.0064L6.403,17.79l.0008-.0031-.0006-.0037-.0012-.0049c-.0019-.005.0046,0,.0057-.0047l.0012-.0053.0041-.0027,0-.0039-.0052.0017-.0053-.0009.0014-.0094.0057-.0041.0016.0024.0031.0014.0054.002.001-.0056-.0046-.0038.0049-.0037.0015-.0064-.0008-.0063.0014-.006.0013-.0069.0051-.0038.0029-.0048-.0047-.003c-.0078-.001-.0021-.0045-.0017-.0085l.0035-.0132.0064.0006-.0018-.0055c-.0017-.005.0038-.0079.0052-.0122l.0017-.0059.0075-.0017.0031-.0077-.0042-.0036,0-.0064c0-.0043-.0013-.0109.0029-.0139l.0038-.0019.0008-.0046.0016-.009.0035-.0042.0031-.0015.0029-.0028.0022-.0014.0032,0,.0014-.0065-.0062-.0018-.0009-.0022.0017-.0055.0036-.0036.0044-.0029-.0029-.0054.012-.0045.0047-.0116-.0045-.0031-.0018-.0068c.0009-.0073.0035,0,.0064.0005.0065.0017,0-.007,0-.0084l.004-.003-.0016-.0049.0024-.0136-.0031.0045L6.49,17.5175l-.003-.0068,0-.0077c.0032-.0041.0071.0036.01.0043s.0028-.0005.0032-.0032l.0046-.0029h.011l.0025.0046.0041-.0026c.0005-.0059-.0082-.002-.0072-.0065l0-.0027L6.51,17.4927l-.0014.0037.0012-.0081,0-.0053.0034-.0023-.0014-.0091c.0045-.0011.0115.01.0163.006l.0015-.0048.0036-.0023,0-.0092.0035,0,.0031-.0026V17.452l-.0009-.0066.0023-.0023.0018-.0033.0055-.0037.0026-.0046.0006-.0049.0017-.0017,0-.0033.0011-.0064c.0025-.0041.0045-.0048.0049-.01l0-.0062.0006-.0029,0-.0028.01-.0065.0132,0,.0032.0049.0057,0,.0063.0019.0065.0014.004.0032.0025.0053a.0105.0105,0,0,0,.0067.0094l.0066.0014.0042,0-.0038.0043,0,.007V17.43l-.0021.0025-.0016.006c-.0015.0039-.0052.0066-.0029.0113l.0035.0036.0033.0053c.0044.0038.0054-.0047.0065-.007a.0116.0116,0,0,1,.0115-.0055.01.01,0,0,1,.01.0068c.0018.0048.0005.0074-.0052.0085l-.0053.0026.0022.006,0,.0068,0,.0071c-.0016.0029-.0105.0028-.0039.0065l.0112.0075-.0035.0039-.0007.0031-.0035.0016-.0043.0023.0019.006.0028.0042-.0025.0066-.0021.0132c.0019.0047.0071.0041.01.0079s.0008.0063-.0013.01a.0225.0225,0,0,0,.0017.0272.0221.0221,0,0,0,.0105.0106l.0057.001.0011.0065.0033.0045-.001.0066.0055.0006.0028.0063.0026.0235a.0346.0346,0,0,1-.0072.0191l.0094-.0064a.1238.1238,0,0,1,.0025.0271c0,.0054.0027.0058.0044.01l.0016.0123a.1343.1343,0,0,0,.003.0264.0872.0872,0,0,1,.0041.0219c.001.0061,0,.0128.0009.0186l.0034.0123c.0022.0083.0025.0175.0051.0258a.12.12,0,0,1,.0026.0265l.0019.0136c.0015.004.0038.0051.0029.01l-.0026.0032.0012.0043.0023.0094.0038.02.0039.021.0028.0183.0033.0163.0035.0122c.002.0075,0,.0176.0011.0258l.0012.0054-.0027.005a.0476.0476,0,0,0,0,.0131.124.124,0,0,1,0,.0279c-.0006.0027-.0028.0073.0022.0068.002.0037-.0032.0037-.0026.0076.0062.0008.0022.0222.01.0173l.0021.0087.0066.0071a.0782.0782,0,0,1,.0005.0145l.0042.0316L6.76,18.16l.0031.0128c0,.0041-.0035.0072-.0026.01.0045.0015.0023.008.0026.0117l.0034.0115.0042.025a.4045.4045,0,0,1,.008.0531l.0007.0118c.0012.004.0041.0066.004.011s-.0021.0088,0,.0143l.0032.0125.003.0232.0021.01a.0622.0622,0,0,1,.0033.0252l.0022.0133v.0066l.0027.0045a.0439.0439,0,0,1,.0012.0127l.003.0266.0028.0117A.0173.0173,0,0,1,6.81,18.48a.1124.1124,0,0,0,.0009.0253l.004.01c0,.0037-.0034.0046-.002.0091l.0027.0034,0,.0061.0021.0112.0054.0257a.2254.2254,0,0,0,.0032.0247.1153.1153,0,0,0,.0023.02.028.028,0,0,1,.0011.0123.0479.0479,0,0,0,.0031.0153l.0024.0146a.1907.1907,0,0,1,.0011.02l.0066.02a.0208.0208,0,0,1,.0018.01l-.0025.0107c0,.0051.0065.007.0063.0129l-.0005.0108c-.0007.0054.0022.0079.0037.0129l.001.0072-.001.0048c-.0012.0046.0019.0062.0027.01l-.0031.0068.0035.0053c.0037.0037.0028.0119.0027.017l0,.0077.0042.0058c.004.005,0,.0115,0,.017a.0377.0377,0,0,0,.0048.0161l-.0006.0084v.0038l.003.0014,0,.007.0028.0085a.0345.0345,0,0,1,0,.0163l.0042,0v.003c-.0045,0-.0021.0029-.0008.0048l0,.0085.0011.01.0015.01.0011.0127.0029.0031,0,.0057.0022.0172.0015.0173.0041.0044-.0013.0073.0005.0091.0022.0076c.0009.0051,0,.0106.0009.0157l.0011.0027-.0011.0026.0045.005.001.0083.0012.0092v.01l.0041.0051c0,.0037-.0011.0072-.0008.0112l.0036.01.0028.0046-.0026.0039c-.0016.0042.0026.0065.0028.0105l-.0017.0086.0019.0049.0012.0059c.0011.0051-.0016.021.0055.0213.0008.0039,0,.0085.0008.0125l.0021.0014-.0009.0081a.0087.0087,0,0,0,.0013.0078l.0043.0136.001.0092.0033.0062-.0021.0061.0009.0068c.0047.001.0032.0081.0032.0114l-.0043.0118c-.0042.004-.0049.0049-.0031.0105l.0005.011-.0024.0069-.0019.0091c-.0012.0049-.0039.008.0007.0125l.0073.0031.0066.0036.0094.012.0016.0077.0015.0067.0022.0063-.0032.0057c-.0024.0051-.0021.0086-.0071.0123l-.0058.004-.0066.0035c-.0005.0029.0056.0012.0014.004l-.0037.0046.0052-.0042.0051.0016.0044-.0023.0089.0022.0045.0024.0024.0062.0039.0142c.001.005,0,.01.0007.0157l.0031.0148a.0347.0347,0,0,0,.003.0152l.0026.0072.0015.0075-.0011.0034.0011.0024.0014.0061,0,.007,0,.0061-.0008.0063-.0064.0027.006.0067.0031.0066.0036.0072.0006.0076.0036.0068-.0005.0067.0029.0059,0,.009.0023.0187,0,.0084-.0042.0055c-.003.0041-.004.0118.001.0145l.0055.0037.0031.0065a.0266.0266,0,0,1,.0051.0136.0572.0572,0,0,0,.0006.015l.0023.0064v.0086L7,19.6525l.0028.02.0042.0171.0018.0157.0009.0079,0,.0077.0013.0033.0032,0-.001.0076.001.0037-.0007.0036-.0016.0062-.0013.0046.0044.0054.0013.0077.0029.0065a.0637.0637,0,0,1,.0034.0233c0,.0083.0042.0159.0045.0242l.0018.0125c0,.0051-.0012.0069.0017.0112l.0015.0115.0009.0078.0023.0075.0005.0087.0028.0067.0034.0154a.0323.0323,0,0,0,.0032.0161c-.0051.0033,0,.003.002.0059l-.0006.0111.0036.01-.0011.0069.0031.0033L7.05,19.955l.0019.0029.0013.0028v.0043l-.002.0068c-.0035.0052.0037.0047.005.0093l.0011.0063.0028.0011,0,.0033v.0069l.0028.0137.0025.0063-.002.0053c.0041.0013.0031.0072.004.01l.004.011,0,.004-.0024.0025.0044.0057a.0305.0305,0,0,1,.0013.0146l.0016.0072.0035.0065.0019.01.0012.009.0017.0035-.0018.0028.0025.0055a.0565.0565,0,0,1,.0039.0157v.0075l.0026.0078.001.0078.0051.0137,0,.0053.0012.0045.0021.0045c0,.0058.0038.01.0051.0147s-.0007.0043-.0013.0076l.003.01.0043.0059.004.0079c.0023.0049.0057.008.0056.0138l.0048.0039c.0045.0029.0053.0079.0081.012l.0058.0054.0015.0033.0033.002.0036.0066.0052.0046.0094.0061.0083.0023.0019.0039.0052.0062.0124.0039a.0484.0484,0,0,0,.0164.0071l.0083.0025.012.0021a.0608.0608,0,0,0,.016.0034l.008-.003.008-.0007a.1046.1046,0,0,1,.0177,0l.0083-.0023h.01a.0447.0447,0,0,0,.0177-.0047l.0295-.0073V20.3l-.0008-.0048h.0079l.0047-.0053.0073-.0036.0072-.0033.0049-.0038.0125-.0093.01-.0091.0052-.0049.005-.0046.0039-.0092.0036-.003.0023-.004.0048-.0073.0038-.0068.0017-.0057L7.43,20.21l.0032-.01.0057-.0142c.0023-.0053.0014-.0112.004-.0163l.0037-.0057.0017-.0071c.0019-.005.0005-.0109.0026-.0157l.0036-.0062.0012-.0076.0044-.0154.001-.0072v-.0079a.1763.1763,0,0,1,.0062-.0248l.0051-.0061-.0055-.0043.001-.0067c.0014-.0054,0-.0111.0038-.0154s.0028-.01.0026-.0156l0-.009,0-.0074.0051-.0037,0-.0061a.0468.0468,0,0,1,.0014-.0159l.003-.0149a.0344.0344,0,0,0,.0021-.0164.062.062,0,0,1,.0025-.0156l.0014-.0117.0028-.0165v-.0082l.0009-.0076.0011-.0081.0005-.008.0044-.0148.0026-.0165.002-.0072-.0014-.0036.0017-.0032-.0019-.007.0033-.0062.0008-.0077.0021-.0158.0023-.0061-.0007-.0079.0021-.0085,0-.0077.0029-.0045V19.75l.0034-.0041-.0027-.0034.0017-.0046.0006-.0116,0-.0087.0021-.0079.0009-.0074.0035-.0058a.0674.0674,0,0,1,.0013-.0169.08.08,0,0,0,.0021-.0168c.0009-.0062.0034-.0088,0-.0147s.0014-.0091.0031-.0144l.0007-.0036.0022-.0024L7.5341,19.62l0-.0076.0026-.0139.0019-.0067.0018-.0153a.0755.0755,0,0,0,.0011-.017l-.0011-.0065.0035-.0052.0018-.0069,0-.0066.0015-.0062,0-.0072c-.0052.0007,0-.0065,0-.0078.0019-.0053,0-.0113.0015-.0163l.0026-.006L7.55,19.4884l.0024-.0018,0-.0089,0-.0084.002-.0151-.0007-.0079.0031-.0057a.0409.0409,0,0,0,.0018-.0164.0945.0945,0,0,0,.0018-.015.0262.0262,0,0,1,.0028-.0152l0,.0008,0-.0116.0022-.0078c0-.0059.0013-.0118.0011-.0171l.0015-.0068.0017-.0077.0023-.0027,0-.004.0007-.0083a.0714.0714,0,0,1,0-.0167l.0016-.0074c.0009-.0017.0039-.0046,0-.0044a.0182.0182,0,0,1,.0037-.0143.0292.0292,0,0,0,.001-.0159c-.0006-.0052.0012-.01.0007-.0158l.0009-.0091.0012-.0044.0029-.0013-.0027-.0051.0037-.0054a.0531.0531,0,0,0,0-.0154l.0012-.0161.0018-.0142a.0415.0415,0,0,0,.0029-.0183l0-.008.0017-.0073a.05.05,0,0,1,.002-.0165l.0022-.0063v-.0082l.003-.0164a.0427.0427,0,0,0,.0014-.0165l0-.004.0024-.0016-.0021-.0026V19.073c.0011-.0043.005-.0075.0038-.0127l-.0006-.007.0013-.0073a.1053.1053,0,0,0,.002-.0153l.0014-.0068.0008-.0085.002-.0072.0009-.0093-.0015-.0062.0038-.0015c-.0045-.0026-.0014-.01,0-.0132l.0009-.0079.0022-.0086c0-.0056,0-.0115,0-.0173s.0048-.0088.0047-.0142a.05.05,0,0,1,.0023-.0175l-.0006-.0071.002-.0077.0031-.0068.0016-.0079.0053-.0042.0007-.0044.0013-.0032.0012-.0036.0028-.0017,0-.0062.0018-.0051.0014-.0057.0033-.0045v-.0055a.06.06,0,0,0,0-.014l-.0011-.011-.0019-.0024.0032-.0015.0006-.0044.0018-.003.0066-.0044-.0019.0033h.0043l.0072.0006.0067-.0034.0017-.0037,0-.0038c.0013-.0038.0075-.0049.0069-.0092l-.0024-.0063-.0039-.0051-.0008-.0055c-.0024-.0022-.0033.0006-.0036-.0037l-.0032-.0046-.0073-.0019c-.0062-.0027-.006-.0064-.006-.0128l0-.0077.0027-.0061-.0009-.0058-.0019-.0066.0025-.007-.0021-.0058c-.0008-.004.0031-.0083.0052-.0115a.0245.0245,0,0,0,.0028-.0152.0387.0387,0,0,1,0-.0166l.0024-.0147.0032-.0145.0016-.0137.0012-.0156.0023-.0046,0-.0065c0-.0048-.0035-.0074-.0024-.012l.001-.0026-.0007-.0019-.0008-.0025.0007-.0029.0033-.0051,0-.0072c.0021-.0063.0109-.0033.0078-.0127l.0013,0,.0009-.0043.0035-.0031.0025-.0105.0031,0,.0007-.002.0039-.0029c.0038-.001.0072-.0013.0091-.0053l.0029-.0136c.0019-.0031.0063-.0054.006-.01a.0714.0714,0,0,1-.0022-.0124l.0009-.0095,0-.0032.0027,0,0-.0028.003,0L7.73,18.46a.0285.0285,0,0,0,.0009-.0137.0238.0238,0,0,1,.0008-.0132l.0026-.0106.0029-.0065.0008-.0077-.0017-.0065-.0054-.0045.0025-.0084V18.382l.0018-.002,0-.0031-.0006-.003.0014-.0019L7.7332,18.37l-.0011-.0031-.001-.006c-.0058-.0032-.0041.0016-.0086.0033s-.0081-.0032-.0106-.0057l-.0025-.0107,0-.0063-.0022-.0045,0-.0055.0034-.0007L7.71,18.3279c-.0007-.0047.0044-.0082.0018-.0125l-.0012-.0049.001-.0067,0-.0079,0-.0064,0-.0055.0033-.0054,0-.0051.0008-.0065.0008-.0054L7.72,18.259,7.72,18.2563l.0027-.0035.0027-.0049.0022-.0074-.0013-.0059.0007-.0072.0027-.0059a.0123.0123,0,0,0,0-.0119l.0013-.0124.0056-.0019.0027-.0056,0-.0133a.03.03,0,0,1,.0019-.0156l-.0007-.005.0007-.0039L7.7408,18.15l.0029-.0069.0013-.0059.0039-.0036h.0062c.0043-.0024-.0073-.006-.0084-.0074l.0007-.0067.0022-.0014,0-.0028.0023-.0056L7.75,18.1036l-.0047-.0051.0012-.006.0016-.0065.0011-.0026V18.08c.0006-.0049.0026-.0085.0082-.0086l.0036-.005.0037-.0007.0023-.0023c.0067-.0066.0049-.0181.0032-.0265-.0009-.004.0009-.01-.0006-.0145l-.0034-.0035.0031-.0109.0009-.005.002-.0112.0057-.0086-.006-.009a.0124.0124,0,0,1,.0024-.0119c.0032-.005-.0017-.007-.0027-.0117a.0349.0349,0,0,1,.0083-.0236l.0064-.0123.0009-.0033.0024-.0017.0009-.0068a.0148.0148,0,0,1,.0012-.0121l.0011-.006c0-.0049.0017-.0056.0043-.0091l.0016-.0041.0021-.0077.0022-.0055,0-.0069,0-.0038L7.8,17.8469l-.0022-.0019,0-.0028-.0008-.0059L7.7953,17.83l.0024-.0054.0007-.0065L7.8,17.8122l.0019-.002.0012-.0025.003-.001-.0015-.0026.0047-.0014.0026-.0015-.0006-.0024Z"/><path class="cls-1" d="M8.8226,16.5586c.0059-.01.001-.019-.001-.0287V16.519c-.0057.0007-.0076-.0087-.0077-.0126-.0006-.0086-.0009-.0127-.0091-.0157l-.0018-.01-.0036-.0084-.0021-.0043v-.0056l-.0052-.0065-.0015-.0089-.0041-.0083c-.0029-.0062-.003-.0138-.0108-.009l-.001-.0035a.0144.0144,0,0,1-.011-.0037L8.7608,16.42l-.0053-.0011-.01-.0027-.0035.0032-.0022-.0032c-.008-.0031-.0147.0009-.0222.0017-.0037,0-.007-.0014-.0114-.0008l-.0121.0029-.0073.0006-.0022.0046-.0127,0a.1384.1384,0,0,0-.0224.0084l-.0112.0061-.0125.0044-.019.0112a.0587.0587,0,0,0-.0137.0069l-.0118.0094c-.0118.0091-.0225.0187-.0335.0281l-.0177.0147c-.0063.0045-.0137.0038-.0172.0115a.0407.0407,0,0,1-.0138.0145l-.0151.011a.0857.0857,0,0,0-.02.0292l-.0074.0075-.01.0079v.0122a.0179.0179,0,0,1-.0037.0122l-.006.01-.0063.0081-.0013.006-.004.004-.0015.0126-.0066.014-.0021.0077-.0044.0051a.0329.0329,0,0,0-.0013.0168.122.122,0,0,1-.0019.0161c-.0045.0008-.0029.004-.0019.0067l.0025.0032-.0018.004.002.0091c-.001.0037-.0043.0033-.0028.0074l.0052.0062v.011a.12.12,0,0,1,.0057.0169l0,.0062.0039.001.0015-.003.0039.0092.0089.0039c.0023.007-.0012.0105.0046.0164l.01.0083.005.0036h.0081l.0131.0038-.0041.0045.0042.0045c.0041-.0008.0071-.0046.0117-.0041l.0026.0023.0084.0013.0081,0,.0065-.0027,0,.0027c.0061,0,.0087.0045.0138.0051.0035,0,.0054-.0033.0114-.0029l.008-.0006.0027-.0062.012-.0048-.0015.0026.0091.0005c-.0022-.0045.0051-.0038.0059-.0076l.0118-.0047c-.0046-.0093.0157-.003.0162-.01l.0062-.0069.0095-.0039.0039-.0029L8.6259,16.8l.0067-.0066.0087-.0056.0041-.0023.0026-.004.0114-.0023.0075-.0057.0012-.0026.0091-.0026c.0027-.0021.0016-.0072.0063-.0077l.0159-.0117c-.0014-.004.01-.0058.0127-.0077l.0039-.0045.0057-.01c.0035-.0041.0044-.0039.01-.0051a.0242.0242,0,0,0,.0162-.0124l.003-.0054.0042-.0027c.0014-.0042-.0036-.006-.0024-.0107s.0045-.0051.0091-.0064c.0071-.0015.0071-.0011.0106-.0074l.0085-.01.0052-.0116.0029-.0049v-.0077l.0048-.0016.0035-.0051c.0026-.0068.008-.0085.0121-.014a.0223.0223,0,0,0,.0033-.0153c0-.0063.0006-.0041.0038-.0084l.0013-.0049.0048,0c.0007-.0037-.0049-.0032-.0054-.0077l.0044-.008-.0033-.0033v-.01Z"/><path class="cls-1" d="M8.6576,17.4718c-.0154,0-.0147-.0134-.0242-.0209-.0052-.0041-.0067-.0255.0037-.0257l0-.0026-.0053-.01-.0065-.0188a.1125.1125,0,0,0-.0112-.0334.06.06,0,0,0-.0152-.0177c-.0141-.01-.0146-.0162-.0175-.0162-.0075,0-.0138-.0045-.02-.0052l-.0285-.0029a.1429.1429,0,0,0-.05.0091.3088.3088,0,0,0-.083.0381.1852.1852,0,0,1-.0245.0174.0539.0539,0,0,0-.0229.015l.0039.0031a.0728.0728,0,0,0-.0142.0045l-.009.0088c-.006.0055-.0161.0129-.017.02-.0116.004-.0213.02-.0286.0294a.2346.2346,0,0,0-.0249.038c-.0132.0276-.023.0555-.0354.0838l-.0126.0315c-.0026.0075-.0017.0343-.01.0352l-.0016.0031c.0092.0161-.0007.0287-.0035.046a.2783.2783,0,0,0-.0048.0552c.001.0205-.0043.0383-.0033.0579a.4038.4038,0,0,1-.0069.05c-.0007.01-.0086.0546.0011.06.0021.01-.0047.0094-.0065.0164-.0013.0048.0035.0155.0032.0216l-.0034.0424-.0024.02a.0978.0978,0,0,0,0,.0163.2925.2925,0,0,1-.01.0923c.0034.0038.0006.0242,0,.0314a.0553.0553,0,0,0,.0018.0335l-.0009-.0005c-.0037.0115.0011.0262-.0037.0376-.0206-.0154-.0046.028-.0039.0334.0006.0082-.0044.0154-.0048.0227s.0045.0154.0033.025a.4658.4658,0,0,1-.0089.0472c-.0036.0166-.0047.0324-.007.049a.0283.0283,0,0,0-.001.011l.0042.0014a.2556.2556,0,0,1-.0011.04c0,.03-.006.0583-.0044.0886a.1269.1269,0,0,1-.0034.0248.1237.1237,0,0,0,.001.0246.0557.0557,0,0,1-.001.0224.0783.0783,0,0,0-.0013.0223c0,.0164-.0044.0327-.0044.0494v.0706c0,.0122,0,.0247,0,.037,0,.0089.0047.0263,0,.0326.0068.0063.0009.0144.0024.0224a.145.145,0,0,0,.0078.0215l.0067.02c.0013.0071.01.0126.01.0173.0063.0023.0032.0062.0067.0093s.0038.0023.01.0045l.021.0087a.1255.1255,0,0,0,.0476.009l.0126.0013.0114-.0045c.0075-.0024.0186,0,.0249-.0024l.0074-.0084.01-.0045.02-.01c.012-.0062.0222-.0118.034-.0193a.1259.1259,0,0,0,.02-.0143.0608.0608,0,0,1,.0168-.0147l.0191-.0116a.1728.1728,0,0,0,.03-.0277c.0066-.008.004-.016.0148-.0115.005.0022.0155.0047.0206-.0021s.0007-.02.0079-.0257a.0144.0144,0,0,0,.0133.0111l.0091-.0012.0037-.0072a.0534.0534,0,0,1,.0061-.018c.0009-.0192-.0123-.0084-.0234-.0073-.0083.0007-.0045.0024-.0053-.0066a.0519.0519,0,0,1,.0008-.0181.1679.1679,0,0,1,.0138-.025c.0035-.0084-.0023-.0184.0018-.027.0019-.0043.0045-.0054.0048-.0112L8.52,18.67a.0859.0859,0,0,1,.004-.0271.0188.0188,0,0,0,.0025-.0123c-.0011-.0041-.0045-.0044-.0029-.01l0-.0017.0053-.0127a.0413.0413,0,0,0,.0048-.0181l.0025-.0163c.0007-.003.0074-.0145,0-.0136-.0037-.0112.0033-.0286-.0069-.0381.0033-.01.0079-.0158.0051-.0268l-.0031-.0149L8.53,18.4731l.0059-.015.0027-.0066-.0007-.0084,0-.0078-.0027-.0008a.2163.2163,0,0,1-.0013-.0279l.004-.01.0026-.0122a.1217.1217,0,0,0,.001-.0269.0264.0264,0,0,1,.0026-.0123l.0012-.0129.003-.0281c0-.008.0054-.0148.0063-.0227.0008-.01-.0021-.0178-.0007-.0266s.0082-.0126.0073-.0212a.0616.0616,0,0,1,0-.027l.0033,0c.0017-.004-.0007-.01,0-.0145l.0046-.0107a.0922.0922,0,0,0,.0057-.023.0546.0546,0,0,0,.0006-.0254.1459.1459,0,0,1,0-.0265.0478.0478,0,0,1,.0015-.0258l.0051-.0058a.0654.0654,0,0,0,.0053-.0341c.0006-.0051-.0018-.0065.001-.0116l.0083-.0075c.0027-.0055,0-.0143,0-.0223v-.0234a.0779.0779,0,0,1,.0008-.0247l.0047-.0236a.4072.4072,0,0,0-.003-.0491.0947.0947,0,0,1,.0006-.0243c.002-.0064.008-.0113.01-.0177s.0029-.0169.0048-.0233a.1432.1432,0,0,0,.0069-.0237c.0006-.0095-.0059-.0152-.0021-.0245.0014-.0034.0056-.003.0067-.009s-.002-.0078-.0026-.0121c-.0016-.01.0018-.011.0049-.02a.1.1,0,0,0,.002-.0269l.0014-.0092-.0047-.0065a.051.051,0,0,1,.0033-.017c.0038-.0109.01-.0177.0137-.0285l.0062-.0176c-.0007-.0067-.0083-.01-.0085-.0176l.0038-.02.0083-.0117-.0053-.004c-.0048-.0041-.0068-.0136-.01-.0189a.0773.0773,0,0,1-.0111-.0306.0575.0575,0,0,1,.0043-.0329C8.6372,17.4758,8.6589,17.4826,8.6576,17.4718Z"/><path class="cls-1" d="M9.2461,16.9883c.0036-.0053-.0023-.004-.0056-.0027l0-.0011c-.0106.0042-.0217.0063-.0323.0094s-.02.0081-.03.0116l-.01.0058-.0111.0041-.0107.0046-.0119.0049-.0093.0078-.0094.006-.0063.0025-.004.0038a.364.364,0,0,0-.0353.03l-.0166.0166c-.0052.0052-.0082.0116-.0125.0166l-.0028.0042-.0041.003-.0059.009-.01.0193c-.0041.0079-.0055.0168-.009.0245a.1613.1613,0,0,0-.009.0228.015.015,0,0,0,0,.0131c-.0067.0059-.0068.0149-.0088.0237l-.0071.0308a.2433.2433,0,0,0-.0074.0514l-.003.0464-.0012.0238-.0012.0117-.0032.0106c.0062,0,.0032.0107.0029.0137a.0667.0667,0,0,0,0,.0167.2541.2541,0,0,1-.0022.0427c0,.0165-.0045.0326-.0032.0491a.1055.1055,0,0,1,.0016.0139l-.0024.0116-.0027.0254c0,.0087-.0023.0186-.002.0276a.2589.2589,0,0,1,.0008.028l-.0013.0274a.1668.1668,0,0,1-.0033.0247.2227.2227,0,0,0-.0036.0294.1178.1178,0,0,1,0,.0145c-.001.0039-.0051.0071-.0006.0108-.0046.0024-.0037.0138-.0039.0189a.07.07,0,0,0,0,.0158l.002.0063-.0019.0049-.001.0072-.0063.0111a.0946.0946,0,0,1-.0081.0255c-.0092.0008-.0078.0227-.0013.0234l0,.0117c.0039.003-.0062.012.0011.0129.001.0032-.009.0353-.0007.0326l-.0011.0129c-.0027.004-.0069.0057-.0083.0106s.0033.0091.0049.0132c.0035.0083-.0049.0157.002.0229.0042.0043.0033.0032.0032.01l.0007.0066-.0029.0051-.003.0117-.0045.0107-.0006.013-.0017.014c0,.0047.0013.0091.0005.014l-.0045.0116c-.0012.0056.0018.0056.0039.01l.0037.01a.0463.0463,0,0,1,.0022.0271l0,.0022,0,.0007a.022.022,0,0,1-.0026.0224c-.0036.0046-.0024.0034-.0006.0088l.0032.0158a.2464.2464,0,0,1-.0029.0257.2182.2182,0,0,1-.0012.027c-.0012.0077-.0082.0119-.0086.0207l-.0012.0133c-.0011.0045-.0027.0061-.0008.0108s.0059.0077.0055.0147l-.0023.0132a.11.11,0,0,0,.0011.0264.1507.1507,0,0,1,.0006.0268l-.0017.0277a.2383.2383,0,0,0,.0011.028.2041.2041,0,0,0,.0023.0264l.004.0093.0019.0113.0038.0106L8.93,18.46l.0057.0034.0021.0084.0033.0078c.0025.006.0054.0062.01.0106l.0054.0062.0048.0058.0008.0034.0029.0023.0065.0039.0042,0,0,.0064c.0048.0008.0076.0048.0124.0062l.0132.0052c.0022-.0062.0146.0017.02.002a.0808.0808,0,0,0,.0257-.0016l.0047-.001.0039-.0028h.012a.1278.1278,0,0,0,.0212-.0076c.0043-.0014.0142,0,.0156-.0058l.01-.0019c.0008-.0065.0183-.0046.0234-.0081l.0194-.0114.0092-.0064.0052-.0019.0043-.0036.0054-.0015.0035-.0046.01-.0042.0095-.0045.0076-.0068.0074-.0057.0084-.0072.0115.001c.0039-.0017.0016-.0065.0029-.01l.0051-.0073c.0078-.0081.0172-.0145.024-.0231l.0059-.0082.0075-.0073a.093.093,0,0,0,.0117-.021l.0115-.0194.0082-.02c.002-.0043.0057-.0187.0105-.02l-.0005-.0072.003-.0073.0044-.0164a.1976.1976,0,0,0,.0039-.03l.0025-.0282a.1653.1653,0,0,0,.0007-.0253.0344.0344,0,0,1-.0013-.0122l.0026-.01c.0017-.0081-.0013-.0163.0021-.0245.0051,0,.0069-.01.0073-.0132a.0354.0354,0,0,0-.0016-.0183A.05.05,0,0,1,9.3455,18.1l.0055-.0058c.0023-.0038,0-.0042-.0042-.0038a.0765.0765,0,0,1,0-.0234l.001-.0246.0005-.0324a.1339.1339,0,0,1,.0006-.0155c0-.0039.0039-.0083.0031-.0123-.0007-.0024-.0083-.0077-.001-.0089.0015-.004-.0007-.009,0-.0124l.0019-.0134c0-.0046,0-.0094,0-.0139s0-.008,0-.0125l.0021-.0273c0-.0094.0011-.0181.0007-.0275a.0139.0139,0,0,1,.004-.013c-.0044-.0024-.0036-.0088-.0035-.0133.01,0,.0031-.0139.0028-.0193a.2469.2469,0,0,1,.0012-.0257c.0009-.0069.007-.0121.0075-.019,0-.0042-.0026-.0056-.0042-.0087l-.0019-.0114a.1558.1558,0,0,1,.0014-.0257.129.129,0,0,0,.0041-.022l-.0047-.0023.003-.0056-.0028-.005.0028.0017.0011-.0128c.0006-.005.0036-.0094.0027-.014-.0055-.0023-.0029-.0079-.0021-.012l.0026-.0067.0032-.0066c.0085-.0031.0021-.0117-.0041-.0131-.0006-.0042.0064-.0029.0089-.0056.0044-.0044.001-.0059.0075-.0055l.0052,0,.0029-.0055L9.388,17.605l-.002-.0122a.0265.0265,0,0,1-.0014-.0122L9.39,17.57l.0007-.0123c.002-.006.0091-.0081.0129-.0123s.0016-.0063,0-.0118L9.4017,17.52l.0021-.0129c.0026-.0059.0064,0,.01-.0044l-.0087-.0056.0027-.0113c.004-.0067.0127-.0053.0164-.0128a.0152.0152,0,0,1-.0053-.0135.0288.0288,0,0,1,.0042-.0161l.007-.0142c.0023-.0039.0036-.0118.01-.012l.0036-.0108.0071-.0108.0151-.02.0146-.0176.0145-.0186c.0051-.0062.0089-.0144.0143-.02.0036-.0039.0092-.0051.0085-.011l.0046-.0047.0078-.0018,0-.0009-.0019-.0012.0092-.0061.0084-.0084.0036-.0039.005-.0064h.0066L9.565,17.27l.0046-.0049.0071-.0041-.0011-.0015.0132-.0092c.0034-.0022.011-.0064.0115-.0109a.0356.0356,0,0,0,.0165-.0087c.0048-.0055.012-.01.0165-.0147l.008-.0076.0032-.0036.0055-.0022.0081-.0081.01-.0056.0188-.0118A.153.153,0,0,1,9.7,17.1635l.0045-.0018.0032-.0042.0089-.0041c.01-.0061.0145-.0253.0265-.0264l.0078-.0191.0056-.0088.0084-.0059.0036-.01.005-.0088a.0456.0456,0,0,0,.0058-.0222c-.009.0021-.0016-.0218-.0016-.0269L9.78,17.012l.0034-.0145-.0052-.0105.0029-.0091-.0021,0-.0047-.01-.0038-.0036,0-.0028L9.7684,16.96l-.0015-.0032.0015-.0021-.0038-.0039-.0054-.0091-.0006-.0061-.0031-.0044c0-.0053.002-.0065-.0011-.0112l-.0076-.0072-.0056-.009L9.738,16.9l-.0019-.0062-.0078-.009a.0353.0353,0,0,0-.0158-.0137l-.01-.0065-.0134-.0035a.0821.0821,0,0,0-.0266-.0062l-.004.0012-.0078,0-.0113.001-.0132.0022-.0126.0028-.01.0027-.0055.0018-.0023.0012-.0018.0032-.012.0036-.01-.0019.0005.0052-.0005.0044-.0073.0028-.0032-.0078H9.56l-.0016.0037c-.0034.0013-.004.0037-.0083.0036l.0055.0046-.0115.006L9.54,16.8918l-.0041.0014-.0063.0017-.0093.0038c-.0038.0008-.0072,0-.0088.0045-.01-.001-.0063.0071-.0111.011s-.0133-.0012-.0181,0l-.0057.0021-.0005.003c-.0073,0-.0156-.0018-.0143.0075l.01-.0025.0016.0043a.0772.0772,0,0,1-.0207.003c-.01-.0006-.016.0048-.0193.0048-.0058,0-.006.0072-.0116.01a.1088.1088,0,0,1-.0253.0067c-.0093.002-.017.009-.0265.0106l-.01.003a.017.017,0,0,1-.0118.002c-.005,0-.015,0-.0172.0048-.0137.0012-.0284.0012-.0423.0032L9.27,16.98a.1062.1062,0,0,1-.0186.004Z"/><path class="cls-1" d="M14.3257,16.46l0-.0044.0024-.005c0-.0049-.0012-.0017-.0045-.0033l-.0085-.0066c0-.003.0065-.0048.0048-.01s-.0058-.0029-.0074-.0067l.0005-.0057-.0033-.0042-.0021-.0113c-.0067-.0006-.0037-.0063-.0058-.01l-.0083-.0069c-.003-.0048-.0066-.004-.0058-.0089.0008-.0065-.0021-.0055-.0046-.01l-.0056-.01c-.0012-.0057-.0031-.0063-.0075-.0088l-.0053-.0047-.0049-.0024c-.0043-.0014.0023-.0048-.0018-.0056s-.0032-.0062-.0077-.008-.0069-.0054-.0114-.0047l.004.0065a.0165.0165,0,0,1-.0147-.0062c-.002-.004.0007-.0093-.0058-.0111-.0036.006-.0063.0006-.0106,0-.0011.0051.0026.0055.0053.0082a.0228.0228,0,0,1-.0158-.0014c-.0055-.002-.011,0-.0167-.0006l-.0164-.0041c-.0047,0-.0091-.0033-.016-.0021s-.0091-.0041-.0149-.0038-.0114-.0025-.0176-.0025c-.0134,0-.0267.0027-.04.0025l-.0072-.0011c-.0046-.0006-.0074.0011-.0111,0l-.0049-.0019-.006.0028-.0129.0029-.0245.0051-.0241.0067-.0072.0039c-.0143.0057-.029.011-.0442.0179a.0836.0836,0,0,0-.0205.0117l-.0076.0067-.0042.0031L13.9,16.365c-.0044,0-.01.007-.0141.0093l-.0024-.002c-.002.0055-.0129.0085-.0187.011a.1825.1825,0,0,0-.0189.0105l-.0185.01c-.0081.0053-.0177.0094-.026.0143l-.0088.0022-.0051.0057-.0091.0027c-.0014.0047-.0123.0045-.01.0088l-.0055,0c-.0046.0051-.01.0048-.016.0086l-.007.0059-.0081.0028-.0162.0073,0,.0037-.0032-.0019-.01.0044-.0079.005-.0062.0007-.0007.0025-.0035.0012-.013.0061-.01.0048c-.0062.0038-.0151.0055-.0206.0093a.123.123,0,0,1-.0211.0107l-.01.0023c0,.0059-.0162.0072-.02.009-.0067.0032-.0155.0048-.0229.0078a.1385.1385,0,0,1-.0481.0135.16.16,0,0,1-.0171-.0013c-.0049,0-.0105-.0043-.0149-.0039l.0007-.0032a.034.034,0,0,1-.0165-.0091c-.0078-.0069-.0027-.014-.0085-.0177a.0179.0179,0,0,0-.0158-.0024c-.004.0023-.0075,0-.0069-.0049l.0022-.004.0014-.0057c-.0009-.0074-.0048-.0021-.0086-.0025s-.0041-.0079-.0027-.0125l.0021-.0018,0-.003.0007-.0081c-.0059-.0006-.0023-.0086-.0086-.0067a.0069.0069,0,0,1-.01.0044c-.006-.002-.0027-.004-.0057-.0077l.0051-.0014-.0033-.0035c-.0024-.0028-.0051-.0056.0005-.0063a.02.02,0,0,0,.0159-.0147l-.0015-.0107-.0059-.0013-.0034-.004c-.0028-.001-.008.0031-.01-.001l.0005-.0126c-.0116.0009.0056-.0148.0052-.0174L13.4,16.3758c-.0051,0-.0105.002-.01-.0036l.0033-.0037-.0019-.0059c-.0021-.005-.0028-.0032.0006-.0082l.0033-.0106c.0007-.007-.0023-.0055-.0046-.0106l.003-.01c.0053-.0035.0056.0039.01.0027l.0039-.0108c-.0016-.0063-.0051-.0026-.01-.0036-.0069-.0011-.0132-.0126-.0083-.0185l.012-.0028c.0056-.0052-.006-.0036-.0078-.0043-.0052-.0017-.0036-.0057.0016-.0072s.0092.0022.012-.0012v-.0054l-.0007-.0047c0-.0042.0021-.009-.0058-.0073s0,.0047-.0037.01c-.0023.0029-.009.0029-.0093-.0016l.0028-.004-.0016-.0055c-.0012-.0043,0-.0075,0-.012s-.0037-.0082.0032-.006c.0047.0017.0049.0089.0084.0031a.05.05,0,0,0,.0015-.0212v-.0094l-.0047-.0082c-.0021-.0047.0007-.0048.0023-.0075l.0032-.0085c.0007-.0023.0007-.01.0056-.0054l0,.01.0045-.0056c.0018-.0041.0016-.0024-.0009-.0055l-.0036-.0057-.0036-.0072-.0024-.0062L13.4,16.1544c-.0012-.01.0081-.0029.0088-.0088s.0067-.007-.0021-.0106l-.0155-.0052-.0021-.0078-.0007-.0079.0037-.0073c0-.0029-.0042-.0027-.003-.0067.0037-.0026.0091,0,.0116-.0044s-.003-.0049-.0065-.0069a.011.011,0,0,1-.0047-.0107V16.072l.0029-.0047c0-.0039-.001-.0009-.0024-.0035l-.0009-.0054h.0128c.0062-.0033.003-.0049.002-.0093s0-.0074-.0057-.01-.007,0-.0087-.0064a.0545.0545,0,0,1,0-.0171.28.28,0,0,0-.0019-.03c0-.01.0019-.02.0019-.03l0-.0314a.1734.1734,0,0,1,0-.033l.004-.0118L13.39,15.874l.0026-.02.0128,0c.0042.0012.0125.0031.0063-.0031l-.0105-.0069L13.4,15.84l-.0065.0005,0-.0147c0-.0071.0009-.0057.0071-.0068.0045-.0007.0091-.0016.0112-.0067.0027-.0069-.0009-.0061-.0067-.0068a.0126.0126,0,0,1-.0116-.0088.0749.0749,0,0,1,.0013-.0285c.004,0,.0068.0023.01.0016s.0031-.0031.008-.0016l.007.001.0009-.0049.0026-.0029c-.0084-.0029-.0076-.0031-.0079-.0119l-.0048-.0138c-.0031-.0045-.0065-.0057-.0038-.0112l.0035-.0053-.0028-.0082.0056-.0047c-.0018-.0026-.009.0005-.01-.0038s.0061-.002.0082-.0044l-.0009-.01c-.0021-.0038-.0054-.0028-.0045-.0082.0005-.0034.0018-.0069.007-.0072.0037,0,.0053.0047.0092.0045s.004-.0049.0038-.0084c-.0081.007-.0038-.0052-.0112-.0052a.0324.0324,0,0,1,.0008-.0259c.0023-.0046.0011-.0062.0015-.011l.0014-.0044.0012-.0055c-.003-.0048-.0123.0086-.015.0116-.0012.0017-.0052.0074-.0093.0045l-.001-.0123.0049-.0056,0-.0095c-.0053-.0025-.0051-.0045-.0051-.01V15.58a.0686.0686,0,0,1,.0035-.0274l.0059-.0087.0061.001.0054,0,.0039-.0028.0074-.0006.0017-.0048-.0049-.001c-.0049-.0015-.0028,0-.0049-.0044l-.0032-.0089c-.0016-.0069-.003-.0112.0005-.0165.0019-.0028.0067-.0019.0058-.0094-.0007-.0031.0072-.0025.0032-.0054s-.01.0014-.0134,0c-.0056-.0022-.0044-.01-.0082-.0151s-.0062-.0053-.0074-.01a.0551.0551,0,0,1,.0007-.0285c.0042,0,.0144.0032.0162-.0014-.0041-.006-.0043-.0153-.0109-.0177l-.013-.0037-.0009-.0121c-.0007-.0083-.0067-.0146-.0049-.0226l.0033-.0113c-.0023-.004-.0035.0072-.0093.0042l-.0028-.02c0-.0059-.0006-.0065-.0041-.01l-.0088-.01c-.0026-.0041-.004-.0043-.0036-.0089l.0031-.01c-.0007-.0118-.0091.0009-.0109.0054-.0063,0-.0114-.0126-.0146-.0168l-.0109-.01-.01-.009a.4018.4018,0,0,0-.05-.0188.1038.1038,0,0,0-.0263-.0051c-.01-.001-.0208-.0028-.0308-.0028l-.029.0005a.2256.2256,0,0,0-.0288.0056l-.01.004h-.006l-.0084.0024-.0151.002-.0139.0053a.102.102,0,0,0-.0232.007l-.0106.0077-.0173.0075-.0241.0119-.045.0265-.0222.0129a.0851.0851,0,0,0-.02.0131l-.0046.0109-.0121.01a.075.075,0,0,0-.02.0188.0794.0794,0,0,1-.0139.017l-.0088.0082-.0121.0074c-.01.01-.0258.02-.032.0341l.0014.0028c-.0047.0008-.0035.0048-.0065.0069l-.0088.004c-.0042.005-.0049.0116-.0091.0166a.0916.0916,0,0,1-.0181.0137l-.009.0055c-.0049.0023-.0047.0041-.0075.0085a.0552.0552,0,0,1-.02.0139.1558.1558,0,0,0-.0218.0105l-.0127.0034-.0112.0072-.0116.0044c-.0051.001-.01-.0008-.0149,0-.009.002-.0137.0054-.0236.002l-.0114-.0028-.0123-.0034a.081.081,0,0,1-.0188.0014c-.0057-.0011-.0057-.004-.0076-.0082s-.004-.0077-.0095-.0067-.0052.0025-.0107.0005a.0438.0438,0,0,0-.0271.0017l-.0109.006-.0082.0076c-.0069.005-.0209.0017-.0286-.0007a.1006.1006,0,0,0-.0287-.0021.2909.2909,0,0,0-.0589.0071.2092.2092,0,0,0-.0263.009l-.0124.0038-.0076.0023c-.01.0026-.0157.0105-.0248.014a.1288.1288,0,0,0-.0243.0129l-.0132.009-.0026.004-.0064.0017-.0031.0044-.0076.0028c-.0038.0021-.0038.0091-.0125.0112s-.0141.0152-.0206.0223l-.0144.02-.0136.0187a.1447.1447,0,0,0-.0109.0206.1081.1081,0,0,0-.0116.0227l-.0088.0238a.1936.1936,0,0,0-.017.05.2247.2247,0,0,0-.0043.03.1931.1931,0,0,1-.0009.0285c-.0027.0189-.004.0381-.0052.0574a.2256.2256,0,0,1-.0025.0478.1862.1862,0,0,0-.002.0367.2973.2973,0,0,0-.0017.0352.19.19,0,0,1-.002.0345l-.002.0069.0026.0071-.002.0082a.0509.0509,0,0,0,.001.0086.271.271,0,0,1-.0022.0356.325.325,0,0,0-.0015.036c0,.0126-.0023.0244-.0014.0372l0,.0074v.0025c.0012.0079-.0029.009-.0042.0171-.0007.0048.0013.012.0008.0179l-.0008.0194c0,.0057-.0017.0158.0017.02-.0047.0035,0,.0071.0014.011-.0054.0049-.0039.0153-.0041.0218l-.0011.011c-.0017.005-.0059.0086-.004.0144l.004.0053-.0029.0068a.1048.1048,0,0,0,0,.0224l-.0011.0172-.0013.0374c-.0013.0123.0024.0257.0006.038l-.0016.01a.0167.0167,0,0,0-.0013.009c0,.0087-.0016.0181-.001.0257s-.0008.016-.0011.0245l-.0012.0125a.0536.0536,0,0,0-.0022.0135l.0027.0015-.0018.0024c.003.0046,0,.0157-.0009.0216s.0028.0171-.0037.0193l.0028.0019c0,.006.0005.0139,0,.02l-.0022.0119c.0083.0014.0019.0094.0006.0128a.0466.0466,0,0,0-.0015.0171c0,.0128-.0016.0259-.0022.039l-.0016.0171-.0028.0164.0024.0069.0013.009a.0764.0764,0,0,1-.0018.0175l-.0022.0213-.0009.0128c0,.0053.0019.0071.0027.0116s-.0014.0038-.0022.0068a.0806.0806,0,0,0-.0012.019l.0016.014c0,.0054-.0007.01,0,.0155a.1494.1494,0,0,0,.006.0337l.003.0025,0,.0042.0049.0084.0053.0157c.0055.0128.0119.0155.0225.0225a.0714.0714,0,0,0,.0313.0163l.0165.0032.0092.0016.0069-.002a.1336.1336,0,0,0,.0337.0017.3563.3563,0,0,0,.0374-.0059c.0119-.0043.0226-.01.0343-.014l.0122-.0075a.0193.0193,0,0,1,.015-.0054c.0059,0,.007-.0072.0113-.0091l.0077-.0017.0077-.0056c.0069-.0037.0153-.0053.0225-.0087l.0084-.007.0116-.0074.0055-.004.0078-.0024.0026-.006.0059-.0046.0086-.0133.002-.0006c.0026.005.0161.002.0114-.0024l-.0026,0c-.0081-.0087.0132-.0069.0173-.0137l.0011-.0165-.0019-.0067.0006-.0065.0038-.002.0028-.0054.0071-.0022c.0088-.0031-.0023-.0032-.0028-.0085l.0028-.0068.0009-.0072.0043-.0046.0008-.0076c.0161.0016.0042-.0055.007-.0109l.0091-.0083.0069-.0051c.0035-.0061-.003-.0037-.0023-.0067.0018-.0071.0056-.0037.0114-.0045,0-.0072.0032-.0121.0011-.0189s-.005-.008-.009-.0126-.0032-.011-.0035-.0172-.0063-.0121-.0049-.02c.0067-.0029.0052.0165.0133.0182s.0032-.0059.0012-.0088c-.0038-.0041-.0033-.0063-.0038-.0123l-.0014-.0062c-.0014-.0022-.0035.0016-.0037-.0033s.0058-.0068.0074-.0113l.0037-.0116-.0025-.0043.0011-.0053c.0031-.0058.0119-.0086.0114-.0163l-.0044-.0122c-.0018-.0013-.009.0024-.0056-.0051-.0034-.0016-.02.0023-.0162-.0068.0026-.0058.014-.0012.0181-.0035l0-.0072-.0054-.0022c-.0063-.0025-.0051-.006-.0072-.0112s-.0062-.0069-.0009-.0112l.0065-.0045c.001-.0048-.0047-.0059-.0056-.0091-.0018-.0061.0075-.0056.0119-.0079a.018.018,0,0,0,.0067-.0181l-.0056-.0008-.0009.0017-.0012-.0022c-.0049-.0014-.0049.0054-.0086.0075s-.0078.0009-.0069-.0041l.0074-.0093c0-.0044-.0079-.0014-.0086-.0064l.004-.0128a.1135.1135,0,0,0-.0007-.0142c0-.01.0007-.0186.0011-.028l.0005-.023a.0784.0784,0,0,1-.0005-.02l.0023-.0067,0-.0093c0-.0048-.0005-.0048.0051-.0048l.01,0c.001-.0055-.0057-.0057-.0032-.0109l-.006-.0058-.0054-.0041c-.0032-.0075.0049-.0089.004-.0144-.01-.0019.0067-.0113.0077-.0122.0032-.0048-.0024-.0036-.0031-.0064l.0012-.0084c0-.0019-.0062-.016.0021-.01.0044.0034.0021.0136.0027.0184a.0115.0115,0,0,0,.0112-.0021l.0114-.0052c.0083-.0028.0055-.005,0-.008l-.0079-.0033.0037-.01-.0016-.011-.0046-.008.0074-.0055-.0039-.0106.0018-.0045-.0048-.0026c-.0075-.0036-.0133-.0071-.0154-.015-.0039-.0023-.006-.0007-.0056-.0064l.0033-.0095-.0021-.0008v-.0115l.0114.0036c.0044.0008.009-.0034.0028-.0038,0-.0074-.0054-.0082-.0084-.0133.0042-.0047.0253,0,.016-.0112l-.0025-.0031.01,0c.0123.0011.0058-.0105.0112-.0151s.0006-.01-.0021-.0157l-.0037-.008-.01-.0088a.0129.0129,0,0,0,.0037-.01c-.0005-.0063-.0043-.0046-.0051-.0091s.0011-.0081,0-.0122l-.0046-.01c-.0005-.0053.0081-.0136.0125-.0136s.0174.0045.0214-.0032l-.0084-.0077c-.004-.0017-.01.0006-.0137-.0022.006-.0032.0155.0006.0177-.0084.0009-.0058-.0051-.0033-.0057-.0079s.0057-.0035.0049-.009l.0082-.0059c0-.0047-.0065-.0028-.01-.0026-.009.0007-.0178-.003-.0122-.0118l.0025-.0043.0051-.0019c.0025-.0048-.0046-.0058-.003-.01s.02-.0014.0093.0084l.0076.0006.0052-.0043c.0027-.0035.01-.0072.0069-.0126s-.0109,0-.0137-.0044.004-.01.0068-.0137a.01.01,0,0,0,.0074-.0084c.0009-.0052-.004-.0077-.004-.0117l.0037-.0041.0007-.0077a.1422.1422,0,0,0,0-.0146l.0008-.0126c-.0017-.0053-.005-.0043-.0021-.0108l.0029-.0051.0077.0018.0014-.0063-.0007-.0033.0035-.0017a.0241.0241,0,0,0,.0021-.0119l.0046-.0112a.0431.0431,0,0,0,.0021-.026c-.0016-.0051-.003-.0068.0026-.01l.0113-.0057a.0929.0929,0,0,0,.0193-.0129.0246.0246,0,0,0,.0055-.0239l-.008-.01.0062-.0012.0023.0056c.0037.0045.0049.0017.0079-.0024l.0114-.0128a.1433.1433,0,0,1,.0211-.0182l.0107-.0077.0095-.006c.0065-.0057.0058-.0171.0069-.0251a.0493.0493,0,0,0,.0179-.01c.0046-.0042.0009-.0031.0016-.0083l.0037-.0085.0067-.0086.0093-.0065c.0044-.0041.0047-.0037.0112-.0043.0116-.0014.0116-.0137.02-.0185l.0074-.0058c.0051-.0017.0105-.0006.0144-.0038l.0095-.0089c.0049-.003.01,0,.014-.0046a.0352.0352,0,0,1,.0215-.0118c.0072-.0012.0153.0011.0214-.002a.0214.0214,0,0,1,.0122-.0047.0109.0109,0,0,1,.0077.0018l.0044.0033.0051-.002.0047.0033a.0689.0689,0,0,0,.0268,0,.0572.0572,0,0,1,.0423.0278l.0067.0115.0044.01.0056.003-.0008.0044a.0311.0311,0,0,0,.0006.0125.563.563,0,0,1,.0023.0578c0,.0214-.0021.0435,0,.0645.0012.0091-.0016.0185-.0005.0279,0,.0044.0014.0084-.0014.0123l-.0041.0025c-.0012.0041.002.0021.0037.004l.0018.001a.0844.0844,0,0,1-.0018.0262c-.0017.009.0011.0179,0,.0274-.0019.02-.0029.0392-.004.06l.0009.01-.0021.0231-.0016.0124-.0048.0017-.0019.0061a.0263.0263,0,0,0-.0007.0134l.0049.0007a.0344.0344,0,0,1,.0014.0128c-.0014.0046-.0045.0044-.0077.0079a.0187.0187,0,0,0-.0037.0145l.004.0034.0011.007c0,.0058-.0014.0118.0018.0161l.0042.0032,0,.0075a.0606.0606,0,0,1-.007.0238l-.0044.0119c0,.0041.0014.0086.0011.0134a.1189.1189,0,0,1-.006.0335c-.0035.0094.0033.0131.0054.0216a.1014.1014,0,0,1,.0051.0262.0771.0771,0,0,1-.0051.0308.0633.0633,0,0,0,0,.0269c0,.01.0009.02,0,.031l-.0012.014-.0005.0061L13,16.4079c-.0039.0067-.0014.0111-.0025.0176s-.0077.0114-.0045.0185c.0024.0047.005.0065.0056.0118a.0319.0319,0,0,1-.0014.0134.04.04,0,0,0-.0013.014l.0032.0128a.1738.1738,0,0,1-.0019.0271.3878.3878,0,0,0,0,.056.2115.2115,0,0,1,.0023.028.072.072,0,0,0,.0046.0245.0511.0511,0,0,1,.0012.0136.0187.0187,0,0,0,.0051.011l.0072.0074.0041.0114.0049.013.0095.0109a.0946.0946,0,0,0,.0156.0179l.0112.0075.0085.0082a.0852.0852,0,0,0,.0244.012c.0049.0018.0084,0,.0092.0122a.0113.0113,0,0,1-.0064.0114l-.01.0066-.0158.01-.0088.0027a.2846.2846,0,0,1-.0281.0166c-.007.0035-.0106.0083-.0178.0124s-.0123.0063-.0189.0113l-.0111.0058-.01.0079-.01.0051-.0109.0066c-.01.0045-.0191.0111-.0291.0162-.015.0076-.03.0141-.045.022-.0341.0184-.064.04-.0983.0568a.2634.2634,0,0,0-.0246.0116l-.0128.0085-.01.0051a.2985.2985,0,0,1-.048.0255.0543.0543,0,0,0-.0187.0117l.0015.0016-.0116.0031-.0113.0058c-.0095.0067-.0214.0119-.0311.018l-.0063.0024-.0151.0089-.0127.0088c-.0035.0016-.0123.0014-.013.0063a.4048.4048,0,0,0-.0462.0266.2324.2324,0,0,0-.0445.024l-.009.0082-.0053-.0016-.0043.0039-.0117.0046-.01.0061-.0475.0262c-.0161.009-.0336.0156-.0487.0259l-.0234.0151a.1028.1028,0,0,1-.0211.0125.34.34,0,0,0-.0418.021.1174.1174,0,0,1-.0229.01c-.009.0028-.01.01-.018.014l-.01.0065c-.0041.0014-.0063-.0014-.0109.0017a.2252.2252,0,0,1-.022.0153c-.0159.0085-.0313.02-.0473.029l-.0163.0107-.0147.0059-.01.0067-.0107.0058a.0229.0229,0,0,0-.0105.0077l-.01.0048-.0109.0068c-.0051.001-.0063-.0011-.01.0031l-.0071.0088L12.02,17.374l-.0054.0032-.0042.0041-.0058.0014-.0029.0047-.0059.0012a.0372.0372,0,0,0-.0185.013c-.0031.0044-.0046.0035-.01.0054l-.0106.0058-.011.0044c-.0041,0-.0044-.0057-.01-.0057l-.0144.0073v.0053l-.006.0039c-.0057.0047-.01.0136-.0185.0145-.0045.0006-.0056-.0029-.01.0016l-.0065.0078a.0474.0474,0,0,1-.02.0117.1467.1467,0,0,0-.0241.01c-.0072.0037-.016.0055-.0234.0087a.1281.1281,0,0,0-.0233.0134c-.007.005-.0145.0057-.02.0112l-.0119.01-.0063.0053a.1894.1894,0,0,1-.019.0112.1753.1753,0,0,1-.0215.0144l-.0185.0071a.0284.0284,0,0,0-.0168.0092v0l-.0215.0159a.0718.0718,0,0,1-.0216.0108.1007.1007,0,0,0-.0217.014l-.0137.0085-.0117.0041-.0128.0095c-.003.002-.0153.0073-.0153.0114l.0025.0018c-.02.0073-.0387.0236-.059.0333a.58.58,0,0,0-.0585.0367c-.0357.0223-.0719.0429-.1082.0653a.6586.6586,0,0,0-.0659.0423l-.0115.0092-.012.0025c-.0064.0013-.006.004-.01.0085s-.0093.0052-.0139.0074l-.0218.0119c-.0075.005-.016.0076-.0227.0129l-.0112.0077-.009.0056a.1213.1213,0,0,1-.0211.0126l-.01.0053c-.0063.0014-.0036.0013-.0071.0059l-.01.0056-.0093.0064-.0047.0051-.0067.0024-.0068.0078-.0047.0022-.0041.0049-.009.0063-.023.0074,0,0c.0023-.0061-.0017-.014-.0038-.02.0042-.0038.0051-.004.0033-.0091s-.0031-.0061-.0005-.0113l.0025-.0111c-.0015-.0053-.004-.0032-.0017-.01a.0456.0456,0,0,0,.0019-.0235.0244.0244,0,0,1-.0017-.0231c.0036-.0084-.001-.0147-.0025-.023a.0572.0572,0,0,1,.0036-.0251c.0019-.0084-.0013-.017.0029-.0248l.0035-.0119,0-.0055-.0029-.0044c0-.0054.003-.0035.0058-.0064l.0005-.01.0015-.0082-.0027-.0031L11.05,17.72c-.0008-.0077-.01-.0071-.0059-.0154a.0332.0332,0,0,0,.0051-.02c-.011.0025,0-.008,0-.0107-.0077,0-.0047-.0187-.0031-.0235h.0072c.001-.0044-.0055-.0052-.0072-.0086-.0029-.0052,0-.0061.0031-.01a.035.035,0,0,0,.0083-.02c0-.0052-.0027-.0061-.0046-.01s0-.005.0028-.0094l.0015-.0062-.0026-.004c-.0018-.0045.0011-.0055,0-.01s-.0078-.0042-.0085-.0124a.16.16,0,0,1-.0005-.0184l.0006-.0173.0006-.0089.0044-.0062-.005-.0035.0008-.0088.0036-.0161a.1461.1461,0,0,0,.0022-.0349v-.0134l.005-.0105.0063-.0059c-.0039-.0022-.0071.0015-.01-.0025l.0015-.0129c.0014-.0085-.0013-.0177,0-.0266a.1942.1942,0,0,1,.0023-.0246c.0024-.0075.0087-.0133.0067-.0229-.0093,0-.0029-.007-.0014-.0105a.0423.0423,0,0,0,.0007-.0177c-.0007-.013.0023-.0256.0028-.0387l.0033-.0365.0015-.0182v-.0088l.0043-.0061v0c-.0074-.0019-.0009-.0123,0-.0181l.0022-.0246c0-.0088,0-.0179.0005-.0264.0007-.0049-.004-.0211.003-.0208.0007-.0271.006-.0543.0078-.0814l.0031-.0732.003-.02.0007-.02c.0014-.0123.001-.0253.0014-.0382l.0019-.0178.0021-.0068-.0054-.0059c-.0009-.0053.006-.0072.007-.012.0013-.0064-.0038-.0086-.0031-.0139a.09.09,0,0,0,.0038-.0166l.0014-.0179c.001-.0111,0-.0217.001-.0327.0041-.0013.0239-.0068.0115-.0137-.0011.0064-.0041.01-.0092.0035-.0031-.0041.001-.0094.001-.0142s-.0027-.0129.0015-.0156l.0056.0027c.0053-.0071-.0038-.0106-.0052-.0154l.0039-.008c.0054-.0021.0021.0039.0069.0033a.0147.0147,0,0,0,0-.0118c-.0022-.0036-.0055-.0036-.0012-.0081l.0051-.0027,0-.0059c0-.0043.0037-.0068.0032-.0116l-.0044-.0124a.0158.0158,0,0,1,0-.0119.0116.0116,0,0,0-.0029-.0109c-.0028-.0031-.0064-.0045-.003-.01.0046-.007.0152-.0089.01-.02l-.0069-.0107c-.0014-.0052.0032-.0059.0047-.0093s-.0024-.0059-.0035-.01a.0552.0552,0,0,1,.0005-.014c0-.0086-.004-.0223.0048-.0247.0048-.0017.01-.0031.0059-.0127a.0136.0136,0,0,1-.0021-.0115c.001-.0044.0025-.01-.0038-.01l-.001-.0132.01-.003.0035-.0083-.009-.0075c-.0042-.0045-.0028-.014-.0028-.02v-.0111l.0051-.006c-.0055,0-.0042-.0061-.0042-.01s-.0013-.0062-.0023-.0107a.04.04,0,0,1,.0027-.0129.05.05,0,0,0,0-.014l0-.0122c.0023-.0035.0071-.0056.0049-.01-.0019-.003-.0088-.003-.0074-.0089s.007-.0019.011-.004l.0033-.0028-.013-.0023c-.0055-.0022-.0027-.0041-.0013-.0085a.0142.0142,0,0,0-.0081-.02c-.0051-.0025-.0052-.0029-.008-.0084l-.007-.01c-.0043-.0061-.0111-.01-.0153-.0166-.0109-.0167-.03-.0194-.0468-.0259a.1.1,0,0,0-.0317-.0083.1794.1794,0,0,1-.0336,0,.1268.1268,0,0,0-.06.0053c-.0076.0024-.0133.0069-.0207.01l-.0108.0045-.0137.0017-.0018.0062c-.0039,0-.0119.0075-.0137.0025l-.0044.0031c-.0066.0009-.01.0076-.016.0107a.0786.0786,0,0,0-.0161.0113l-.014.0137c-.0046.0047-.013.0116-.0147.0174l-.0037.0006.0008.004-.0084.0095v.0063l-.0038.0039a.0966.0966,0,0,0-.0123.0252l-.0029.0127-.0037.0124c-.0018.0085,0,.0174-.0014.0263s-.0051.0177-.0055.027a.1288.1288,0,0,1,0,.0185l-.0027.0123-.0028.028a.1486.1486,0,0,0-.0028.0336.1649.1649,0,0,1,0,.0186.16.16,0,0,0-.0006.0182.0667.0667,0,0,1-.0038.025l-.0025.0055.002.0049c.0012.0051,0,.0059-.0018.01a.2177.2177,0,0,0,0,.0291l-.0015.013-.004.0122.0028.005-.0019.0063-.0009.0134a.23.23,0,0,0-.0012.031.1629.1629,0,0,1-.0011.0277.1754.1754,0,0,0-.0036.0259.0722.0722,0,0,1,.0007.014l-.0023.0124a.2225.2225,0,0,0-.0022.0322.0271.0271,0,0,1-.0018.0132.0753.0753,0,0,0-.0009.0135l-.0023.0145-.0012.0141-.0013.0247c0,.008-.0016.0157-.0013.0239a.09.09,0,0,1-.0045.02c0,.0043.0027.0162.0005.0194-.0029.0051-.0092-.0044-.0118.0059l-.0028.011c.0007.0047.0038.0012.008.0031a.114.114,0,0,1,0,.0268v.0055l-.0042.0034.0009.0123a.0745.0745,0,0,1,0,.0315.144.144,0,0,0-.0032.03.2752.2752,0,0,0-.003.0307.0667.0667,0,0,1,0,.0161l-.0026.0043v.0065c0,.0091-.0025.018-.0029.0273s-.0041.017-.0046.0254l-.0031.0217a.0678.0678,0,0,1,0,.0246l-.0033,0-.0011.0226-.0026.024a.22.22,0,0,0-.0043.0415.0331.0331,0,0,1,0,.0133l-.0052.0094a.1975.1975,0,0,0-.0039.031c-.0013.0089-.004.0175-.0047.0275a.2639.2639,0,0,1-.0084.0542l-.0012.013-.003.0112a.184.184,0,0,0-.006.0269.2193.2193,0,0,1-.04.0909l-.0138.0157c-.0084.01-.0175.0185-.0256.0293l-.0128.0108-.0031-.0017-.0069.0086-.003.0043-.0063.003-.0108.0075-.0085.0064-.01.0041-.0126.0065-.0143.0042-.0127.0066a.3644.3644,0,0,1-.0443.01.2023.2023,0,0,1-.0271.0017.0714.0714,0,0,1-.0123.0006l-.0126-.0045-.0155-.0053-.0125-.0084a.0921.0921,0,0,1-.02-.02.0562.0562,0,0,1-.0118-.023.0253.0253,0,0,0-.0041-.0152l-.0068-.0085a.2052.2052,0,0,1-.0125-.0532.1432.1432,0,0,1,0-.0514l.003-.0092c0-.0047-.0066-.0048-.0069-.0086l.0044-.0095a.029.029,0,0,0-.0049-.0219l-.0022-.0135v-.0139l.0063-.0088a.0637.0637,0,0,0,.0061-.0231c0-.0092-.0023-.018-.0019-.0275a.171.171,0,0,1,.0059-.0543.0652.0652,0,0,0,.0044-.0271l-.0014-.0152c-.0005-.0044.002-.0078.0023-.0123,0-.0063-.0025-.0128.0006-.02l.0044-.0073.0018-.01c.0055-.0017.0094-.0171.01-.023a.1126.1126,0,0,0-.0065-.0286c-.0086.0009-.0045-.0062-.0066-.011l-.0036-.0044c-.0015-.0041,0-.0025.0011-.0059a.0358.0358,0,0,0-.0017-.0146c-.001-.008-.0023-.0122.0025-.0152.0095-.0008.001-.0345.0015-.0392l.0045-.013a.1281.1281,0,0,0,.01-.02l.0016-.0136.0031-.0112.0026-.0129.0058-.0123a.1146.1146,0,0,0,.0072-.0279.0929.0929,0,0,1,.0076-.0308.1611.1611,0,0,1,.01-.0248c.0048-.0082.02-.014.02-.0244s.0067-.02.0067-.0313c0-.0084.0017-.0268.0119-.03,0-.0039.0032-.0133.0076-.0119l.0019-.0116c.01.0015.0058-.011.0069-.0167s.007-.0144.0111-.0048l.0093-.0137-.0014,0a.0254.0254,0,0,1,.0037-.0163c-.0083-.0045.0012-.01.0041-.0121.0047-.0036.005-.0106.01-.0127l.0008.0014c.0087-.007.015-.005.0161-.0176l.0057,0a.0491.0491,0,0,1,.0083-.0269c.0031-.005.0151-.0222.0185-.0194l.0017-.0028.002,0,0-.0035c.003-.004.0082-.0025.0118-.0049s.0038-.0088.0094-.0089c.0017-.0052.0082-.0017.01-.0071l.0108-.0156.0029-.0085.0039-.0095c.0039,0,.0094.0014.01-.0037l0-.009.0018-.0075.0062-.0065c.0035-.0031.0111-.0075.0115-.0115-.0029-.0015,0-.0154.0018-.0193l.0052-.0084c.0012-.0039,0-.0068,0-.01,0-.0049.009-.0164.0109-.0253a.0086.0086,0,0,0-.0068-.0113l.0042-.0046c0-.0048-.0006-.0181.0057-.0184a.0388.0388,0,0,0,.0019-.0247l-.0031-.01-.0023-.0121-.0022.0011c-.0027-.0019.0016-.0061.0012-.01l-.0057-.01-.0072-.0073-.0067-.0089-.012-.0038-.0112-.0029-.0107-.0042a.0349.0349,0,0,0-.0106-.0012l-.0114-.0029-.0131-.0012a.0293.0293,0,0,0-.0118.0027.0818.0818,0,0,1-.0138.0014l-.0129.0027c-.0046.0021-.0029.004-.0088.0044-.0092.0009-.0155.0047-.0245.005a.0591.0591,0,0,0-.022.0065l-.0108.004-.01.0049-.0124.0026-.0112.0046a.0458.0458,0,0,0-.0193.0082l-.0082.0059c-.001.0043-.0064.0053-.01.0077l-.0091.009-.0052.0034-.0058.0032c-.0015.0016-.0049.0123-.0069.0037-.0051-.0024-.0025.002-.0045.0037l-.0079.0022c-.0039.0014-.0125.0072-.0127.0112a.1305.1305,0,0,0-.0379.0265.3533.3533,0,0,0-.0351.029l-.0155.0143-.0067.0093-.0047.01-.0049.002-.0035.0048-.0068.0085-.0133.0151-.0042.0072-.0052.0041-.0072.014a.09.09,0,0,0-.0165.0236l-.0135.0163-.0055.0092c-.0042.0007-.0013.0031-.0026.0054l-.0045.0048-.0085.0127a.06.06,0,0,0-.0111.0136l-.0052.0145-.0028-.0006-.0035.01-.0079.0105-.0058.0092,0,.0061-.0039.0036-.0013.0044-.0039.004-.0057.0095-.0046.01-.0051.0094-.0038.0111-.0049.0094-.0093.0237-.0034.0108-.0048.01-.002.0123-.0066.009-.0029.0073-.0048.015-.0045.0178a.1837.1837,0,0,0-.0062.0209.0929.0929,0,0,1-.0072.023.1455.1455,0,0,0-.0059.0236l-.0062.0236a.3961.3961,0,0,0-.0075.0442l-.0046.0209-.0029.01c.0008.0032.0067.0064.0023.0073a.0957.0957,0,0,1-.0055.0241l-.0025.0134c-.0008.0064.0013.0129.0008.0194s-.0057.01-.0081.0159l-.0007.0129,0,.0066-.0017.0051.0007.0107-.0036.0039.0009.0057a.2212.2212,0,0,1-.0013.0269c-.0019.0176-.0006.0349-.0028.0527a.37.37,0,0,0-.0024.0538l-.0008.0179c0,.0073-.003.0086-.0053.0142l-.0051.0159-.0039.0148c0,.0061.0006.0112,0,.0172a.0593.0593,0,0,0-.0015.0162c.0067.0036-.0028.025-.0009.0323a.0475.0475,0,0,0,.0076.0132.0329.0329,0,0,1,.0022.0167c0,.0233-.002.046-.0008.07a.5481.5481,0,0,1-.0007.056l-.0015.0159c-.0011.0114.0025.0233.0008.035-.0029.02.0013.0418,0,.0656a.11.11,0,0,0,.0014.0237l-.0035.0011c.0046.0047.0028.0125.0028.0185,0,.0079.0036.0138.0031.0218a.0484.0484,0,0,0,.0011.02.27.27,0,0,1,.0089.0427l.0006.012.005.01a.1812.1812,0,0,0,.0056.0217c.0019.0049.0118.0154.0071.02a.0289.0289,0,0,1,.0059.0141c.0016.006.0054.0062.0083.0112s.0005.01.0041.0148.0074.0056.0106.0107a.2035.2035,0,0,0,.023.0252c.0069.0069.0164.0108.0212.0185l.0031.007.0024-.0037a.1444.1444,0,0,0,.0365.0231.23.23,0,0,0,.0244.01l.008.0068c.0025.0033.0013.0085.0076.0074l0-.005a.02.02,0,0,1,.0138.0033l.0126.004.0168.0014c.0053.0014.0073.0047.0138.0053l.0142.0023c.0043.0009.01-.0013.0147-.0008l.0125.0023c.006,0,.0092-.0013.0148-.0015l0,.0029.0051-.0009,0-.0028c.0079-.0045.02.0025.0284-.0008l0-.0021.0177,0,.0148-.0037c.0112-.0037.0231-.0007.0342-.0037a.25.25,0,0,1,.0321-.0075l.0115-.0029.0042-.0016.0019-.0051c.0051-.0028.005,0,.0084.0015l.0028.0038.0063.0007.0106.0029.0108-.0022c.0035.0005.0159.0072.0174-.0014-.0046-.0012-.0161.0034-.0139-.0053.0017-.0058.0112-.004.016-.0054s.0115-.0068.0168-.0067.0115.0073.0138-.0013l-.0035-.0066.01-.0019.0055-.0067c.0053-.002.0177.0012.0236,0a.1348.1348,0,0,0,.02-.0057c.0071-.0023.0166,0,.016-.01l.0082-.0015.0034-.0059c.0052-.005.0093-.0011.0151-.0038l.0037-.0053.0062-.0037c.0039-.0035.0049-.0081.0093-.01s.0136,0,.0173-.0031.0007-.0089.0061-.0128l.0145-.0067.0116-.0082.0148-.0063c-.0006-.004.0059-.0089.0087-.0112a.0138.0138,0,0,1,.0125-.0035l.0055,0c.0132.002.0088.021.0091.0278a.24.24,0,0,0,.0031.0315l-.0013.0082-.0012.005a.0191.0191,0,0,0-.0015.0155l.004.0057-.0021.0075a.0426.0426,0,0,0,.0008.0164l.0054.01c.0015.0049-.0026.0035-.0069.0059l0,.0119.0045.0058v.009l-.001.0075c-.001.0056.0043.0007,0,.0066l-.0034.0026,0,.0064a.027.027,0,0,1-.0018.0125c.0028.004,0,.0073,0,.011s.0062.0054,0,.0079V18.21l.0012.0006v.0027a.0869.0869,0,0,0-.0177.0081l-.0118.0079-.0123.0075-.0132.0072c-.0076.0049-.0133.0131-.02.0187l-.025.0161-.0184.0139c-.0049.0045-.0178.0079-.0191.015l-.0046.0023.0015.0007a.2682.2682,0,0,0-.0607.04l-.0228.0166-.0117.009-.0129.0079-.0048.0055-.0064.0038-.0125.0094-.0457.0336a.5063.5063,0,0,1-.05.04.7175.7175,0,0,1-.0595.0412c0,.0058-.004.0066-.0081.01l-.01.0076a.0947.0947,0,0,1-.0219.0126l-.0113.0072c-.0033.0045-.0029.0078-.0081.01s-.008.0021-.0121.0063l-.01.0091-.0089.0072-.0116.003c.0017.008-.0081.0078-.0127.0115a.1545.1545,0,0,1-.0147.0123l-.0177.0088c-.0058.0042-.0066.0094-.0141.0094.001.006-.0071.0066-.0112.0095l-.0091.0105-.0127.0054-.01.0088c-.0048.0034-.0057.0061-.0119.008a.0372.0372,0,0,0-.0145.0075c-.0069.0066-.0153.0114-.0219.0176a.1931.1931,0,0,1-.0312.0229c-.01.0058-.02.0152-.0311.02l0,.0021-.0089.0043-.007.0074-.0077.0054-.0064.007a.1655.1655,0,0,1-.0188.0095.1221.1221,0,0,1-.0179.0121c0,.0056-.0051.0042-.0085.0067s-.0024.0069-.007.009l-.0122.005L9.81,18.816l-.0056,0a.1058.1058,0,0,0-.0174.0137l-.0087.007c-.0036.0021-.0082.0039-.0073.0086a.0422.0422,0,0,0-.0226.0131l-.0076.0058-.01.0058c-.0024.0024-.0031.0071-.0072.0074l-.0011-.0041c-.0043,0-.0043.0064-.0069.0095l-.0113.0062-.0193.0139-.02.0142-.0137.0054-.01.0068,0,.0042c-.0087.0043-.0147.0118-.0233.0168l-.0123.0081a.04.04,0,0,0-.0092.012l-.0114.01-.01.01c-.0042.0036-.01.0041-.015.0072l-.011.0108a.1438.1438,0,0,0-.0227.015l-.0188.0181a.1806.1806,0,0,1-.0229.0149l-.0213.0163c-.0066.0057-.01.0148-.0182.0189s-.0137.0118-.0232.017c-.018.01-.0316.0259-.0489.0378s-.0315.0258-.0475.0381a.227.227,0,0,0-.026.02c-.0043.0042-.0048.008-.0109.01l-.0119.0076c-.0127.0122-.0263.0225-.039.0334s-.0254.0191-.037.03a.0628.0628,0,0,1-.0289.0192c.0053.0123-.0243.0123-.0217.0245-.0046,0-.0032-.0058-.008-.0037,0,.0117-.0225.0225-.03.0286a.0432.0432,0,0,0-.0157.0146c-.0056.01-.0131.0071-.0225.01l-.0077.0111-.01.0115a.0839.0839,0,0,1-.0222.02c-.017.0117-.0324.0276-.0491.041l-.0149.0089c-.0045.0033-.0065.0121-.01.0165-.0059-.0044-.0068.0032-.0105.0059l-.0133.0077L8.913,19.52a.5276.5276,0,0,1-.0461.038c-.02.0128-.034.0345-.0546.0465l-.0134.0071c-.0042.0037-.0045.0088-.01.0123l-.0117.0087-.011.0085a.2148.2148,0,0,0-.025.02l-.0059.0073a.1122.1122,0,0,0-.0249.02l-.0216.0178a.1205.1205,0,0,0-.0267.021l-.0143.0088-.0089.0109c-.0077.0071-.0161.0127-.0246.0194s-.0148.0139-.0236.0205a.5554.5554,0,0,0-.0469.0386l-.02.0182c-.0055.005-.0121.0085-.0174.0141a.1083.1083,0,0,0-.0154.0136l-.0019.0071-.0073.0027a.0942.0942,0,0,0-.0229.02.043.043,0,0,1-.0113.0112l-.0111.0086-.0123.0125-.0116.0079-.0082.0109-.0055.0037-.0062.005-.0206.0178a.5351.5351,0,0,0-.0433.0432c-.0064.0072-.0156.0125-.0226.0192s-.0148.0154-.023.0225a.4687.4687,0,0,0-.0429.0374c-.0136.0157-.0317.0269-.046.0415l-.0107.01-.0091.0131a.235.235,0,0,1-.0221.017.1352.1352,0,0,0-.018.019l-.0207.0177c-.0131.0124-.0273.0242-.0408.0363s-.0259.0268-.04.0393c-.0173.0149-.032.0328-.048.0479a.3.3,0,0,0-.023.0236.1688.1688,0,0,0-.02.0223.2776.2776,0,0,1-.04.0474c-.011.0121-.02.0257-.03.0387l-.0188.0241c-.0058.008-.01.0165-.0153.0239a.0583.0583,0,0,0-.0121.0259c.0053.0026,0,.0085-.0025.0119.0039.0048-.0052.0239-.0061.03-.0025.0142.0068.02.0076.0332,0,.0058-.0021.0112-.0015.0168l.0045.015.0068.0219.005.0124c.004.0075.0066.0178.0109.025l.0077.01a.105.105,0,0,0,.0078.0175c.0034.0049.01.0071.0149.01.0071.0046.0091.015.0177.018.0153.0056.0281.0168.0439.0231l.0124.0033.0106.0055.0137.0026.0119.0052a.1587.1587,0,0,0,.0274.0039l.0065-.0011.0054.0024c.0052,0,.0085-.0033.0143-.0021a.0278.0278,0,0,0,.0132.0025c.0043-.0009.0073-.0037.0119-.0032l.0133.0032.0131-.0037c.0091-.0013.019.0016.0279,0,.0054-.001.0054-.0036.0089-.0068l.0042-.0033.0042-.0044.0112-.0014c.0058-.0011.0047-.0011.0082-.0059s.0062-.0031.0094-.0057l.0072-.0079c-.0017-.0088.0067-.0074.012-.01s.0065-.0068.01-.01l.0126-.007.0063-.0093.0142-.0171.0063-.0084c.0036-.0047.0055-.003.01-.0052l.0064-.0079.0078-.0066c.0073-.0055.0122-.0122.02-.0175.0111-.008.0206-.0174.0306-.0261l.0042-.0031.0028-.0046a.1065.1065,0,0,1,.0137-.0172c.006-.0061.0071-.0108.0143-.0146s.0092-.0115.0162-.0138c.013-.0046.0133-.0112.02-.0174l.0074-.006L8.4,20.5644l.0055-.0095.0071-.0073.0082-.0069.0066-.0094.0106-.0041.0071-.0091.0116-.0083.0024-.0107.0085-.007.01-.0094a.09.09,0,0,0,.0153-.02l.01-.0136c.004-.0054.0036-.0126.0086-.0157l.0087-.006.0037-.0032.003,0,.001-.0032.003-.0035.0068-.0018.006-.01.0089-.0065.0078-.0086a.0871.0871,0,0,0,.0174-.0157c.0041-.0044.0125-.0075.015-.0121l.0158-.0165.0078-.0075.0059-.009c.0048-.0049.0117-.0077.0169-.0125a.12.12,0,0,0,.0145-.0182l.0126-.0116.0066-.0073.0077-.0051c.0058-.0041.0063-.0122.0115-.0171l.0035.0018.0075-.0086.0078-.0062a.0947.0947,0,0,1,.0166-.0169c.0065-.0058.0059-.0122.0138-.0171l.008-.0064.0053-.01a.086.086,0,0,1,.0141-.016.236.236,0,0,1,.021-.0137c.0158-.01.02-.0248.028-.0394A.0641.0641,0,0,1,8.85,20.095l.0084-.0064c.0047-.0058.01-.01.0148-.0157s.0045-.0089.01-.0127l.0116-.0072c.0059-.0063.0046-.0123.0117-.0182l.0128-.0081.0009-.0057.0035-.004.0089-.0058.01-.0107.0075-.0111.0126-.0094a.1606.1606,0,0,0,.019-.0213c.0092-.0094.0194-.01.03-.0245a.0545.0545,0,0,1,.0169-.0115l.0167-.01c.0054-.0031.009-.01.0154-.0118,0-.0053.0043-.0053.0074-.0067a.0121.0121,0,0,0,.0081-.0083A.0447.0447,0,0,1,9.09,19.87l.0091-.0052.0074-.0079.016-.0145.011-.0093.0035-.0094.0138-.0169c.005-.0053.0115-.0083.0151-.0153.003-.0055.002-.0058.0075-.0076l.0108-.0064.0149-.0167.01-.0087.0049-.01a.0779.0779,0,0,1,.0176-.0141l.01-.0081.0115-.0047.0052-.0093.009-.0065.0112-.0069.0064-.009c.0048-.0056.0134-.007.0187-.0125l.0073-.008.0082-.0065.0128-.0087.0108-.0111.0007.0018c.0041-.0042.0105-.0064.0148-.0113.0092-.01.023-.0157.0324-.0255a.0887.0887,0,0,1,.017-.0152.1219.1219,0,0,0,.02-.0168l.0076-.008.01-.0058.02-.0175.02-.0161a.4246.4246,0,0,1,.0386-.0309c.0047-.0032.0052-.0085.01-.011a.2412.2412,0,0,0,.0248-.0151c.0087-.007.0154-.0158.0244-.0227a.4413.4413,0,0,1,.0361-.0282c.0075-.0045.0128-.013.02-.0168l.0057-.0017.0029-.0048.0125-.0069.0194-.0163.019-.0139a.1677.1677,0,0,0,.0206-.0183c.004-.0051.0106-.0065.0156-.01l.0143-.013.01-.0073.0033-.0044.0052-.0029.0082-.0079a.18.18,0,0,1,.0206-.0178l.01-.0073.0035-.0039.0068-.0005.007-.0089.0124-.01.02-.0155a.0913.0913,0,0,1,.0192-.0155l.0082-.0069c.0028-.0043.0049-.0033.0089-.0059l.0078-.009.0081-.0069.0057-.0041.0074-.0022.0049-.01.0055-.0019.0048-.0044.0075-.007c.0078-.0052.0137-.0117.0207-.0173.0137-.01.0266-.0206.039-.0318l.01-.0065.0089-.0071.017-.0125.0174-.0147c.0066-.0055.0136-.0065.0188-.0135l-.0006.0007.0095-.0078.0105-.0039.0032-.0043,0,.0009.01-.01.0211-.0166.0039-.0052.0063-.0016c.0053-.002.0046-.0031.0072-.0069l.01-.0062a.055.055,0,0,0,.0177-.0124.1915.1915,0,0,1,.0171-.0145l.0075-.0092.0063-.0016.0047-.0036.0085-.0068.0029-.0046.006.0006c0-.0046.0059-.005.009-.0077l.0084-.0062.0064-.0077.0094-.0066.01-.0058.0062-.0085.012-.0063.0114-.0077L10.31,18.87l.0157-.0131a.1063.1063,0,0,0,.0139-.0095c.0022-.0021.0042-.0154.0074-.009.0055.0008.0143-.0087.0187-.0112a.0826.0826,0,0,0,.02-.0156c.0063-.0079.0156-.01.0224-.0167l.0083-.0092.0112-.0045.0078-.009a.012.012,0,0,1,.0083-.0075.0426.0426,0,0,0,.0177-.0129.0725.0725,0,0,1,.0172-.0141.1386.1386,0,0,1,.0191-.0124.0569.0569,0,0,0,.0118-.01.138.138,0,0,1,.0156-.0106.1971.1971,0,0,0,.0213-.0136.1562.1562,0,0,1,.02-.0132l.01-.0064.0107-.0049a.0761.0761,0,0,0,.0163-.0109l.0157-.0086.011-.0047.0038-.0017.0027-.0039c.0049-.0041.012-.0044.0176-.0073l.0014.001-.0006.0126c.0016.0054.0025.0051.0006.0112l-.0019.0128-.0018.0073,0,.0118a.0887.0887,0,0,1,.0021.024l-.0044.0114.0027.0106c.0012.0171-.0027.0352-.0015.0532.0006.0094-.0008.0175,0,.0267a.1041.1041,0,0,1,.0012.0272l-.0024.001c-.002.0061.0021.0143.0018.0212l-.0014.0108a.0969.0969,0,0,1,.0019.024.02.02,0,0,0-.0015.0113c.0016.0081-.0015.0168,0,.0257s.0008.0183.0014.0276a.0547.0547,0,0,1,0,.014l-.002.0054.0014.0052c.0011.0095,0,.019.0006.0286s0,.0155,0,.0245-.0006.0183,0,.0276a.2444.2444,0,0,0-.0006.0258c.0006.0045-.0014.0086-.0012.0128l.0018.0129a.1882.1882,0,0,1,0,.0281c-.0006.0089.0006.0184.0009.0276a.0648.0648,0,0,1,.0014.0246l-.0017.0011a.1408.1408,0,0,0-.0006.043.0377.0377,0,0,1,0,.0142l-.0035.0112.0027.0112c.0011.0044-.001.0085,0,.0127a.0274.0274,0,0,1,.001.0126l-.0028.0039.0018.0053c0,.009-.0015.0193-.0013.0283l.0023.0107a.0722.0722,0,0,1-.0006.0132c0,.0046,0,.0094,0,.0136a.06.06,0,0,0-.0024.0119l.0039.0116c.0025.0053.0012.0065-.0009.0113a.0861.0861,0,0,0-.0015.0189c-.0005.0086-.001.0181-.0008.0271,0,.0064,0,.0141,0,.0218a.0742.0742,0,0,0-.0007.021c.0015.0062-.0016.0137-.0008.0214l.0013,0,.0007.0014-.0028.006c.0046.0014.0024.0094.0028.0132l0,.0078-.0022.0069.0045.0044L10.65,19.57a.134.134,0,0,1-.002.0289c-.0044.001-.0072-.0026-.01.0022v.0127l.0058.0105.0023.0119a.033.033,0,0,1,.0005.0133l-.0038.0107a.1144.1144,0,0,1,.0038.0247.0743.0743,0,0,0-.0028.0188.199.199,0,0,1-.001.02c0,.0089-.0048.0148-.0043.0242a.1841.1841,0,0,1-.001.0269.0706.0706,0,0,0-.0013.0134l.0028.0113a.2775.2775,0,0,1,.0048.0416l0,.0213a.0687.0687,0,0,1-.0045.0173l-.0012.0135a.1577.1577,0,0,0,.0017.0267.1218.1218,0,0,1,.0012.0263.2037.2037,0,0,0,.0014.0273.068.068,0,0,1,0,.0143l-.0042.01c-.0017.0058.0021.0061.0036.0108a.0426.0426,0,0,1,0,.0138.0962.0962,0,0,1-.0049.0251.0588.0588,0,0,0-.0017.0172.0509.0509,0,0,1,.0018.0124c-.0007.0089-.0034.017-.0034.0266l-.0007.0273c0,.0093.0007.0187,0,.0274l-.0016.0259c0,.0038-.0008.0076-.0005.0117l.0032.0092a.0592.0592,0,0,1-.0027.0211.1192.1192,0,0,0,.0005.0134c0,.0052-.0027.0062-.0039.01v.0139l.0012.0135-.0022.0265a.0956.0956,0,0,0,0,.0239.161.161,0,0,1-.0013.0225.2322.2322,0,0,0,0,.0236.0747.0747,0,0,1-.0011.014l-.0027.01c.0051.0039.0022.02.0022.0265l-.0011.0268c-.0006.0047.0015.0086.0011.0127s-.0032.007-.0028.0119a.0763.0763,0,0,1,.0015.0124l-.0011.0052.0013.006a.2376.2376,0,0,1-.0042.0353c-.0007.0086.0021.0173.0021.0262l-.0013.0114a.0771.0771,0,0,1,.0013.0135.0566.0566,0,0,0-.0043.0142.16.16,0,0,1-.0023.0373c.0051.0012.0065.0088.0048.0129l-.0038.0057.0035.0095a.0919.0919,0,0,1,0,.0174.0668.0668,0,0,1-.0007.02l.002.0252a.1216.1216,0,0,0,.0007.0134l.0016.0057.0017.0021-.0019.0025-.0005.006.0028.0052a.1322.1322,0,0,1,.0008.0142l.0019.0131.002.0131.0038.0022,0,.006.0044.0113a.1054.1054,0,0,1,.0035.0227l.0033,0,.0019.0134.0028.01a.167.167,0,0,0,.01.0248l.0042.014.0014.0055.0035.0045a.1078.1078,0,0,0,.01.0222l.0107.0134.0111.0092.0087.0109a.1113.1113,0,0,0,.0222.0167.1346.1346,0,0,1,.0188.0123.0983.0983,0,0,0,.0225.01.3143.3143,0,0,0,.052.0156.1915.1915,0,0,0,.0286.0053l.0444.0007a.138.138,0,0,0,.0476-.0042l.0131-.0048.0125-.0019.0092-.0076.0124-.005a.6392.6392,0,0,0,.0591-.04l.0085-.0079.008-.0082.0157-.02.0048-.0087.0026-.0112.0078-.017.0044-.0079.0024-.0036.0016-.0042.0107-.0014.002-.0039.005,0,.006-.006c.0025-.0017.0081,0,.0088-.0037a.0973.0973,0,0,0-.0214-.007l-.0037-.0023-.006-.0019-.0021-.0119.0042-.0089.0032-.0094c.0028-.0019.02.0026.0156-.0067-.0052.001-.0034-.0026-.0057-.0044l-.0068-.004.0077-.0008.0021-.0082c-.0023-.0058-.0081-.0068.0041-.013.0018-.0007.007-.0088.0137-.01.0036-.0045.0048-.0105.0015-.0125l-.0046.007c-.0068.0013-.0009-.0052-.0023-.0072l-.0108-.0006-.0073-.0056-.0013.0052-.0068-.0045.0044-.0062c0-.0013-.0072-.0027-.0049-.0083.0014-.0041.0082-.0082.0026-.0123l-.0073.0061.0038-.0061-.0014-.0009c-.0055.0063-.0037-.003-.005-.0043l-.0122-.0027.0029-.0039c-.0051,0-.0038-.0047-.0049-.0072-.0014-.0048-.0032-.0048.0015-.0081l.0039,0L11.1,20.702c.0033-.0012.0093.0026.0087-.0027-.0079,0-.0017-.0065-.0033-.0105L11.1,20.6851c-.0039-.0015-.0022.0005-.0048.0017s-.009.0043-.0117-.0012l.001-.0063-.0045-.0039.0026-.0014-.001-.0055c.0058-.0012.0029.0034.0036.0057l.0068.0058.0119.0012.0012-.01c.0028,0,.0126.0011.01-.0052-.001-.0026-.01-.0035-.0054-.0089l-.0058-.003.0086.0012.0056-.0054c-.01-.0012-.0024-.0082.0039-.0074.01.001.0015.0082.001.0116.0055-.0006.0113-.0087.008-.0142l-.0092-.0031-.0083-.0045c-.0062,0-.008-.0078-.0107-.0114-.0065-.0094-.01.0073-.0166-.0011.0046-.0025.009-.014.0166-.0089l.0057.008.0079-.0074c-.0042-.001-.0028-.005-.0058-.0071s-.0081.0013-.0057-.0052c-.0045-.0008-.0042-.004-.0074-.006-.0059-.0035-.0033.0041-.0044.0073a.027.027,0,0,1-.0015-.0184c.0012-.0028.0038-.0009.0015-.0053l-.0067-.0043c-.0038.0065.0078.0168-.0054.02-.0054.001-.02-.0047-.0214-.01l-.0036-.0123c.0011-.0053.0062-.0028.0022-.009l-.0047-.0051-.0006-.0068-.0016-.0054.0055-.0033.0018-.0063c-.0031-.0027-.0061.0027-.0051-.0027l.0036-.0014-.0029-.0025-.0017-.0064c.0035-.0044.0114.0017.0171,0a.03.03,0,0,0,.0123-.0094l-.0009-.0007-.0031.0013-.0126-.0085c-.0073-.0018-.0053.0072-.0082.01l-.0046-.004c-.0137-.0016-.0014-.0091.0029-.0106a.0663.0663,0,0,1,.016-.001c.0056,0,.0086.001.0133-.0026-.0031-.0031-.0091-.0045-.0075-.01l.0092-.0088.0051-.0045-.0007-.0058L11.1,20.457l-.0069-.0067c.0008-.0026.0093-.0026.0042-.0068l-.0057.0047c-.0049,0-.0005-.0047.0012-.0057l-.0092-.0006.0007-.007-.0052.0012c-.0019-.0041.0028-.0042.0043-.0072.0031-.0059-.004-.0019-.0032-.0068l-.0008-.0031-.0033-.0014-.0021-.0087-.001-.01-.0023-.01-.003-.0006v-.0021l-.0029-.0034.0023-.0026.0021.0038.0023-.0026-.0033-.003v-.0075l.0027-.0031.0009-.005.0008-.0043-.004-.0023-.0028-.004H11.06l.0014-.0041.0025-.0035c0-.0024.0018-.0083-.0027-.0077l-.0045.003-.0046.0035c-.001.0026.0036.0061-.0009.0083l-.0062,0-.0028-.004-.0064-.0068-.0049-.0011.0013-.004,0-.0043-.0012-.0011,0-.003-.0083-.0041.0035-.0049.0012-.0039.0026-.0028.0006-.0044,0-.0036.0066-.0074a.01.01,0,0,0-.0016-.0125c-.005-.0035-.01-.0034-.0085-.0112.0019-.0118.02-.0127.019,0-.0094.0013-.0018.0122.0011.0029l0-.0046.0026-.0027c.0013-.005,0-.0038-.0015-.0079l-.0011-.0089.0011-.0072.0041-.007-.0116-.0016c-.0038-.01.0153-.007.0086-.0154-.0041-.0047-.0221-.0032-.0114-.0129.0028-.0027.0064-.0031.0081-.0075l.0005-.0068-.0058.0008-.01-.0035-.0013-.0106c-.0007-.0045-.0024-.0062,0-.0095l.0041-.004.0035-.0017.0036.0011c.01-.0046-.0049-.01-.016-.0068-.0037.0008-.0063.0047-.01.0008s0-.0082.0041-.0095c.0124-.0057-.0023-.0181.0039-.0232l.0046-.0021.0009-.0028.0026-.0006.0046-.0044.0026-.0052c.0008-.01-.0127-.0043-.0162-.0008l-.0039-.0011c.0032-.0046.0051-.0063,0-.0112-.0039.0033-.0065.0024-.0113,0l.0026-.0116c-.0042-.002-.0143-.006-.0143-.011s.0074-.0081.01-.0112a.026.026,0,0,0,.0031-.0217c-.0031-.0033-.0058-.0021-.0068-.0078l0-.0055-.0042-.0052c-.0048-.0111.0107-.0066.0171-.0084l.0095-.0075-.0093-.0038-.0055-.0018.0006-.0049-.0017-.011.0005-.0062.0033-.0034c.001-.0027-.0038-.0068-.0078-.0046s.0017.0045.0017.008l-.007.0073-.01-.0013-.0015-.0065-.0047-.0058c-.0007-.0061.0085-.0035.0081-.0095,0-.0045-.0064-.0076-.0081-.0116-.0029-.0063.0048-.0075.0043-.0131-.0005-.0078.0221,0,.0258-.0034l-.0037-.01c-.004-.0025-.0093,0-.009-.0068l.0008-.0116c-.0028-.0026-.01.0009-.0119-.0041l.0021-.0106-.0021-.0062-.0052-.0023c-.0077-.0017.0008-.005.0027-.0068l.0021-.0052.0047-.0039.0048-.0125.0132-.0006c.0071-.0006.0093-.01.011-.015-.0048-.0027-.005.0073-.0058.0092-.0019.0045-.0074.0038-.008-.0014s.0033-.0054.0059-.0095l.0026-.0121.0029-.0034c-.0041-.0019-.0042.0033-.0055.0057l-.0072.0037.0006-.0082-.007-.0053c-.001-.0042.006-.0016.0081-.0056s-.0025-.0081-.0017-.0123l.0031-.0045-.0028-.0015-.0013.0056-.0053.0027-.006,0-.0005-.0071,0-.0047.0025-.0034c.0017-.0044-.0033-.0051-.0067-.006l-.0011-.0068-.0048-.004c-.0051-.0044-.0021-.0072.002-.01l.0053-.006.0047-.0038.0066-.0106c.001-.0031.001-.01-.0033-.0106-.0024,0-.0047.0014-.0037-.0032l.0038-.0034.007-.0009-.0008-.0047-.0142,0c-.0033,0-.0095.0023-.01-.0031l.0118.0013.007,0,.0047-.003.0094-.0061v-.0062L11.0071,19.7c-.0011-.0043.0055-.0068.0034-.0111l-.0017-.002-.0007-.0032-.0063-.0025c-.0027-.0017-.0089-.0054-.0066-.01l.0127-.0018c.0047-.0009.0064-.0046.0026-.0079L11,19.6565l-.0048-.0041-.002-.0051-.0068-.0071c-.0026-.0044.0021-.0044.0054-.0059l.004-.0033.0118.0034.0043.0031.0012-.0059.0022-.0054-.0022-.0051-.0018-.0075-.0043-.0051c-.0045-.0018-.0087.0087-.0142.0066,0-.0035.0079-.0023.0065-.0075l-.01-.0021-.0016.0049-.002-.005-.0031-.004.0031-.0041.0073-.0061.0013-.0055-.0066,0c-.0057-.0011.0013-.0084-.0021-.0116L10.982,19.57l.0027-.004.0042-.0042-.0006-.0035.0015-.0038.0006-.0064.0041-.0051.0112-.0036.0122-.0031-.0007-.0049-.006,0-.0041-.0037-.0025-.0052c-.0018-.0072.0035-.006.007-.0084l-.0021-.0031-.0054-.0025-.0035-.0023.003-.003.0056-.008-.0038.0036-.0048-.0018.003-.0046.001-.0069.0054-.0092.001-.0051-.0043.0035c-.0017.0024-.0028.0115-.0077.0076l.0022-.0115.0067-.0119c.0016-.0037.006-.0075.0005-.01l-.0051-.0011.0027-.0038-.001-.003-.0041.0007-.0026-.0029.0041-.0058.0026-.0075.0007-.0044.0017-.0036.0018-.0045,0-.0041.0017-.0036.0014-.0042,0-.01-.0036-.002-.0028-.003c-.0025-.0024-.006-.0025-.0067-.0069L11,19.3755V19.371l.0036-.0014.003-.0033-.003-.0079L11,19.3563l-.0032.0025-.0033.0007,0-.0039c.0012-.0025.0057.0008.0063-.0032l0-.0058v-.0033l.0026-.0013c.0044-.0019.0041-.0093.0041-.0131s-.0006-.0083,0-.0127l-.0009-.0094L11,19.305l.0011-.0035.0048-.0013.0022-.0039,0-.01,0-.0049-.0014-.0046,0-.01,0-.0047.0018-.0043-.0006-.0038-.001-.005,0-.0094v-.0043l.0038-.0021,0-.0037-.0015-.0009-.001-.0026-.0046-.0041-.003-.0017.0035-.0016.0029-.0029.0022-.0032L11.01,19.21l-.0015-.0007v-.0022l-.0014-.0039-.0008-.01.002-.0113.0026-.0033.0007-.0039v-.0023l-.0016-.0009-.0012-.0032v-.0075l.0024-.0039.0066-.0014-.0038-.0017-.0014-.003-.0031-.0019.0017-.0023.0014-.0039.0008-.006-.0018-.0047v-.0092l-.0031,0,.001-.0094c.0017-.0027.0045-.0059,0-.007l-.0049,0-.0037.0029-.0035.0013-.0025-.0032v-.0006l.0037-.0013.0005-.0049.0015-.0043.004-.0019.0014-.0042-.0035-.004.0075-.0046.01-.001.0017-.004-.0031-.0027-.0042-.0005V19.07l.0011-.0073.0025-.0018.0018-.0032v-.0031h-.003l-.0035-.0062-.0028-.0023-.0015.0027-.0058-.0038.0033-.0022.0009-.0058.004-.0067.0025-.008-.0006-.0047-.0036-.0016L11.005,19.01l.0007-.0045.0014-.0033a.0557.0557,0,0,0,0-.0129v-.0114l.001-.0048-.0014-.0037,0-.0109.001-.01-.0012-.0082.0012-.0045.0028-.0031.0017-.0047-.0034-.0027-.0013-.0035-.0012-.0056c-.001-.0056.0042-.0029.0059-.0065l-.0021-.0079-.0038-.002v-.005l.0006-.004.0032-.0026.0023-.0075.0038-.0058.0012-.0072-.0039-.0048.0008-.0079.0031-.0055c0-.0049-.0073-.004-.01-.0066l-.001-.0145.0026-.0057.0038-.0044.0017-.0071v-.0032l.002-.0024.0015-.0116L11.014,18.79l-.0035-.0051a.0122.0122,0,0,1-.0042-.0113l0-.0056-.0042-.0054c-.0019-.0039-.0014-.01.0028-.0114l.0066,0,.0019.0068.0086-.0043-.0032-.0073.0051-.0063-.0006-.0042-.002.0007-.0022-.0012-.01-.0035c.0008-.0035.0047-.0072.0027-.0112l-.0038-.0049.0007-.0064.0051-.0035.0008-.0077.0028-.005-.0042-.005.0037-.0054.0022-.0084.0022-.0059.0041-.0078V18.649l0-.0137-.0055-.002-.0009-.0056-.0036-.0025-.0057-.0009-.0031-.0043.0041-.0034.0033-.012.0038-.0048.0012-.0061.0017-.0142.0047-.01-.0027-.0048-.0032.0034-.011-.0057.0022-.0018.0006-.0037v-.0063l.0041-.0046.0038-.0044.0048-.0042.0026-.0064.0045-.0045.002-.0061-.0025-.0051-.0057.0024c-.0057.0017-.004-.0052-.0047-.0088l.0008-.0057.003-.0045,0-.0052,0-.0038.0013-.0061-.0037-.0061,0-.0082.0035-.0108-.0009-.0094-.0048-.0023.001-.0046.005.0006.0048-.0022.0015-.0061-.0009-.0054c-.0047-.0024-.0111.0018-.01-.006.0007-.0048.005-.0057.0067-.01l0-.0085.0033-.0071.0013-.007-.0039-.0035.0006-.0026-.002-.0019-.0012-.0065c.0015-.0053.0046-.0045.0088-.0069a.0245.0245,0,0,0,.01-.0121l-.0017-.0008.0054-.0087c.0029.0022.003.0046.0076.0037l.0046-.0064.0107-.003.0027-.0081c.0048-.0038.0113-.0006.0166-.0025l.0042-.0041.0044-.0035.0063-.01c.0028-.003.0057-.0056.0039-.01l-.0015-.0016.0021-.0013.0042-.0032.0049-.0043.0059-.0035.0055-.003.0051,0c-.0045-.0033.0023-.0064.0055-.0064l.0058-.0017.002-.0053.0021-.0017.0009-.0022.0042-.0026.0025-.0014.0032-.0006.0014-.0026.0029-.0019.0076-.0048v.0018l.006-.0047.007-.0057c.0025-.0023.0074-.0077.0115-.0073l.005-.0011.0008-.0043.01-.007.003,0,.0038-.0037.0042-.0035.0051-.0036.0056-.0042.0052-.0037.0061-.0014c.0043-.0016.0167-.0194.0217-.0146.0039-.0065.0113-.0086.0172-.0131l.0085-.0043.009-.0063a.0746.0746,0,0,1,.02-.0111l.0076-.0066.01-.0063a.0922.0922,0,0,0,.0189-.013.1067.1067,0,0,1,.0225-.0137l.0111-.0038.0122-.0042-.0012-.005.0036-.0046.0107-.0049a.0138.0138,0,0,1,.0114-.0019c.0038,0,.0116.0011.0114-.0039l-.0046-.0041c-.0006-.0045.0043-.0053.0077-.0065l.0083-.0057.0092-.0066.0045-.0023.005-.0051.0112-.0034.0078-.0081a.1964.1964,0,0,0,.023-.01l.0011-.0027.0233-.0137.0061-.0034.0046-.006c.0045-.0028.0108-.001.0112-.0083l.0182-.01c.0055-.0073.0106-.0082.0186-.0124l.019-.0117.01-.006.0082-.0064a.1865.1865,0,0,1,.02-.0127l.0227-.0132c.0062-.0038.014-.0046.02-.0083l.0078-.0072.01-.0063.0044-.0022.0042-.0049.0079-.0013.0054-.0037.0094-.0071.0229-.0133c.0144-.0085.03-.0157.0445-.0247.0066-.0041.01-.01.0173-.0123s.015-.009.0231-.0127c.0153-.0074.03-.0186.0447-.0276l.0245-.014c.0073-.0045.0154-.0067.0228-.0109s.0152-.01.0236-.0143A.07.07,0,0,0,11.99,17.75a.0847.0847,0,0,1,.0177-.0116.0789.0789,0,0,0,.0213-.0107l.0079-.0075.01-.0041.01-.0082.0129-.0044.0084-.0059.0108-.0054.02-.0131.0109-.0079.0135-.0057.01-.0058.0061-.001.0026-.0048.012-.0034.0094-.0058a.0319.0319,0,0,1,.0172-.0112.0854.0854,0,0,0,.0234-.0121l.0083-.0073.012-.0046a.2079.2079,0,0,0,.0237-.0137c.014-.0078.0285-.0159.0428-.0221l.009-.0065.0205-.01.0085-.0063.0206-.0114a.1321.1321,0,0,1,.0226-.0129l.0089-.003.0086-.006c.0042-.0014.0176-.0045.0171-.01l.0083-.0029.0059-.0044.0142-.0081.0092-.0016.0095-.0065.0061-.0054.0081-.0027.0088-.0074.0116-.0053.0211-.0114.01-.0091.0223-.01.0088-.0061a.1606.1606,0,0,0,.0271-.0122c.0039-.002.007-.0057.0121-.0062.0019-.0051.0023-.0064.0083-.0081l.0195-.0041c.0026-.0051.0137-.0092.0184-.0121l.0085-.0063.0093-.0047a.1077.1077,0,0,1,.02-.01l.01-.0051.0063-.0083.0144-.0012.0039-.0043.0062-.0023a.1542.1542,0,0,1,.0228-.0118.2228.2228,0,0,0,.0213-.0107l.0084-.0062.0072-.0023.0046-.0044c.0081-.0053.019-.0077.0276-.0128l.0242-.0131.0211-.01a.17.17,0,0,0,.0222-.0109.0781.0781,0,0,1,.03-.0141.0258.0258,0,0,1,.016-.0106l.0086-.0023.0023-.0041.0125-.0049.0072-.0043.0274-.012.0077-.005c.005-.0022.0056-.0011.007-.0064l.0106-.0017.0021-.0035.0049-.0013c.0067-.0029.0122-.0082.0185-.011l.01-.0023.0084-.0064.0186-.01.0007.0021.0083-.0065.0111-.0037.02-.0117.0107-.0069c.0061-.0035.0137-.0043.0194-.0081s.0068-.0077.0115-.0095l.0115-.004.0224-.01a.1293.1293,0,0,1,.03-.0152.1017.1017,0,0,0,.0234-.0109l.013-.0065.0068-.0029h.0037l.0009-.0029c.0067-.004.0151-.0051.0218-.01l.0093-.0058.0093-.0063a.197.197,0,0,1,.025-.0081l.0233-.0111.0215-.0095A.1.1,0,0,0,13.4,17.004a.2025.2025,0,0,1,.0216-.01c.003-.0014.0049-.0056.0093-.0065l.0113,0c-.0043-.0044.0054-.0055.0077-.0064l.0106-.0052a.1131.1131,0,0,1,.0212-.0089.1446.1446,0,0,0,.0241-.01l.0116-.0068.0128-.0038.0167-.0079.0169-.0051.0174-.0078c.0053-.0023.0121-.0012.0174-.0041l.0195-.01.0179-.0065a.4816.4816,0,0,0,.0559-.02l.0257-.0092c.0077-.0034.0483-.0144.0592-.0186.0179-.007.0369-.0117.0552-.0173l.0276-.0093c.01-.0025.02-.0042.03-.0074.0176-.006.0362-.0105.0541-.0168.0093-.0033.0188-.0033.0278-.0069.0133-.0051.026-.0093.0386-.0155a.3173.3173,0,0,1,.0447-.0161l.0184-.0093c.006-.0042.0343-.0193.0417-.0227l.0221-.0131a.2156.2156,0,0,1,.0412-.029l.0077-.0041.0088-.0117c.0049-.0028.0139-.0035.01-.0111a.0187.0187,0,0,0,.01-.0074c.0031-.0035.0092-.0038.012-.008.0053-.0078.0111-.0149.0158-.0234s.0091-.0083.0126-.0157l.0064-.012.0039-.01.0021-.005.0044,0c.0014.002.0044.01.0084.0049.0026-.0034-.0051-.0088-.0042-.0132l.0042-.006-.0005-.0077a.0071.0071,0,0,0,.0083-.0072l-.0018,0c-.0034-.0053.0049-.02.01-.014l.0023.0051.0035-.0047c.0012-.0041-.0009-.0066,0-.0108l.006-.0094a.02.02,0,0,0,.0014-.0126l.0114-.0029.0093-.0076-.009-.0047,0-.0128c-.0042-.0006-.0086.0066-.0123.0017s.0077-.0069.01-.0108l0-.0051C14.319,16.4625,14.319,16.4621,14.3257,16.46Z"/><path class="cls-1" d="M11.3929,17.2959l.0084.0236a.0438.0438,0,0,0,.0092.0168.0969.0969,0,0,0,.019.0157c.0038.0027.0118.0053.0121.0105a.1821.1821,0,0,1,.0244.0048.13.13,0,0,0,.0277.0026.0811.0811,0,0,0,.03-.0015c.0055-.0024.038-.0115.041-.0132.0074-.0052.0372-.02.0419-.0227a.1069.1069,0,0,1,.0255-.0134l.0063-.0014.0023-.0055.0128-.0036.0191-.0149.0125-.0032.0034-.005.0074-.0037a.0612.0612,0,0,0,.0151-.0171.1326.1326,0,0,1,.0211-.02.1049.1049,0,0,0,.0244-.0275.0777.0777,0,0,1,.0111-.02.0284.0284,0,0,0,.0038-.015c0-.0068.0058-.0038.011-.0065.007-.0034.007-.0108.0067-.0177s.0038-.014.0041-.0205c-.0058.0038-.0067-.0036-.0027-.0042l.0036-.0011c.0008-.0042.0014-.0087-.0013-.01l-.0014-.0088.0071-.0091.0024-.0049-.0042-.0022.001-.01a.01.01,0,0,0,0-.0128l-.0072-.007a.0155.0155,0,0,1-.0031-.0139l.002-.0281a.1731.1731,0,0,0,0-.0288l.0009-.0115.0038-.0028L11.793,16.98l-.0017-.0048.0025-.0041c0-.0033-.0063-.0038,0-.0069-.0045-.0057.0012-.0177.0017-.025a.0829.0829,0,0,0,.0007-.015.2672.2672,0,0,1,.0014-.0452.1008.1008,0,0,1,.0017-.03l.0018-.0066-.0035-.0055.0028-.003,0-.0057.0032-.012-.0019-.0058.0009-.0062.0018.0014.003.0009.0167.01.005.0012,0-.0066-.0006-.0065L11.8259,16.8l-.0044.0031L11.8128,16.8v-.0056l.001-.0071-.0014-.002.0022-.0021-.0029-.0027-.0069,0-.0005-.0062-.0008-.0072.0059-.0035.0038.0041-.0027.0048.004-.0011.0046.0025.0053.0038-.0015.0024.0026.0017.0034,0,0-.0028.0024-.0073.0036-.0054-.0032-.0045-.0034-.0063-.0048-.0039-.0121-.0061-.0035-.006-.0007-.0072,0-.0049,0-.0072a.0259.0259,0,0,1-.0029-.0131l.0031-.006.0057-.0025-.0019-.0053a.0283.0283,0,0,1-.0044-.0177c.0006-.0043.0047-.0055.0086-.0055l.0056.0021v-.0048l.0023-.0053-.0029-.0044c-.0013-.0042.0054-.007.0091-.0063l.0048,0,.0007-.005-.0073-.0072a.0139.0139,0,0,1,.003-.0137l.0036-.0054,0-.0082-.0044-.0053-.0024-.0079.004-.0061c.0026,0,.0069.0019.0058-.0028l-.0083-.0081v-.0054l-.0041-.0024-.0012-.018.0031-.0041-.0008-.0041.0021-.0035.0066-.0062-.0013-.0064-.0044.004-.0049.0031.0023-.0048-.0021-.0056.0013-.0066.0043-.0062.0048-.0037-.0026-.0033-.0022,0-.0013-.0023-.0037-.0027-.0006-.0126,0-.0074.0034-.0034.0015-.0063.0016-.0024-.0065-.0041a.0061.0061,0,0,1,.0031-.0087l.0066-.0042-.0017-.0028.002-.0036h-.0026l-.0025-.0011-.0049-.0051-.0018-.006.0018-.0133c0-.0045.004-.0065.0049-.0108l.0025-.0126.0006-.0016.0017.0006,0-.003-.0036-.0048-.0031-.0043.0015-.0018-.0015-.0021.0012-.0025-.0009-.0019.0025-.0023-.0028-.0012-.0022-.0009-.002.0015,0-.0024.0019-.0013-.003,0,.0024-.0014.0031-.0055.003-.0025-.002-.002-.0013.0018-.0037.0006L11.823,16.36c0-.0049.0006-.01,0-.0144v-.0189l0-.0081.0007-.0026-.002-.0057-.0009-.0026.0013-.0025.002-.0019-.0008-.0044.0012-.0081a.034.034,0,0,1,.0005-.0131l.001-.0016.0011,0,.002.0014.0034-.0006.0017-.0027.0017-.0027-.0025-.0012v-.0024l-.0043-.0041-.0039-.0054.0021-.005.0033,0,.0009.0025.0036-.0036.0007-.0065-.0015-.006-.0037-.0023-.0016-.0051-.0009-.0025.0036.0015.0037-.0015h.003l.0007.0025h.0026l-.0011-.0015-.0018-.0034.0032-.0027,0-.0051.0053-.0044-.0031.001-.0021-.001-.004,0-.0107-.0016.001-.0013-.001-.0013.0022-.0052.0028-.0007.002-.0023.0026-.0047.0044-.0036.0014-.0025.0036-.0038-.0036-.0009-.0008-.0067-.0019-.003.0013-.0022.0024-.0019.0028.0008.0018-.0059-.0056-.0006-.0007-.0033-.0009-.001.0016-.0037-.0005-.0025.0061-.0026.005-.0032-.003-.004.0008-.0058-.0006-.0022.0022-.0013.0006-.0061-.0029-.0012-.0005-.0015L11.85,16.13l-.0019-.0021.0034-.0084.003-.0008.0018-.0016H11.85l-.002-.0012-.0016.0014V16.114l-.0011-.0031-.002-.0032-.0014-.0023.0045-.0043.0089-.0083.0007-.0052-.003-.0041-.0023-.0012-.0005-.0031.0018-.0049.0024,0,.004-.0018-.0013-.0018.0022,0,0-.0034-.0024.0008,0-.0028-.0045-.0046.0052-.003.0031-.004,0-.0072.004-.003.0019-.0049-.0013-.0049-.0023-.0015-.0009-.0085,0-.0057.0028-.0054.0005-.0066-.0016-.0048L11.8627,16l-.0017-.0021.0012-.0023L11.86,15.99l-.0017-.0019-.0023.004-.0019,0,.0009-.0017-.0035-.005,0-.0029.0015-.0088.0009-.002-.0024.0012.003-.0045-.0018-.0021.0012-.0024-.0028-.0009-.005-.0008-.002.0019-.0024.0029,0-.0026-.0021-.004,0-.0018-.0022,0,.0009-.0053.0024-.0017V15.95l.0014-.0024,0-.0035-.0022-.0016-.0022-.0007.0024-.0015.0009-.0074.0006-.0036-.0021-.0042-.0021.0006,0-.007-.0019-.0058V15.91l-.0025-.0018,0-.0027-.0027-.0013-.0039-.0027-.0047-.0046-.0044-.0033-.0054-.0028-.007-.0016-.0045-.0029-.0094-.0026a.0258.0258,0,0,1-.014-.0011l-.0035-.0018-.0033.0026h-.0062l-.0079.0013-.0195.0019-.0043.0029-.0034-.0048-.0028,0-.0028,0-.0057.0028-.0063.0026-.0082,0-.0079.0013-.0062.0031-.0066.0021-.0075.004-.0017.002-.0034,0-.0045.0041-.0064.003-.0117.0049-.0138.0116-.0043.0043-.0174.0153-.0059.0037-.0029.0052-.0078.0051-.0017.003-.005.0039-.0126.0143-.0129.0136-.0047.0105-.0022.0014-.0055.01-.0033.0014-.0024.0092-.011.0157.0012.0058-.0059.0116.0022.0014-.0045.0032-.0016.0018.0006.0022-.0008.0038-.0037.0018.0009.0021-.0022.003-.0015.0091-.0021.0041-.0043.0072v.007l-.0026.0019-.0038.0112-.0054.0216.0014,0-.0021.0083-.0015.0156-.0022.0018.0014.002.0014.006-.0029.0016.0027.0036-.0026.0013-.0007.0073-.0009.0167-.0056.0114.0035.0058,0,.0118-.0021.0017-.0022.0105-.0025.0127-.0007.0131-.0027-.0014.0009.0022.0021.0019-.0027.0005,0,.0072,0,.005.0031.0011-.0007.0029-.0024.0018-.0018.0089-.0019.0064v.0074l.0015.0028-.0028.0041-.002.0014v.0033l0,.0047-.001.0218-.002.0131-.0014.0082.0014.0035v.007H11.47l-.0007.003.0007.0078-.0014.0163-.0018.0125v.0087l-.0006.0076-.0022.0046.0028.0007-.0017.0018-.0019.0011-.0008.0064.0029.0011.0006.0018-.0029-.0011-.003,0,.0014.0026.0023.0044-.0009.0044-.0016.0055.0026.0068-.0051.0009-.0017.0024c.0042.0008.0017.0025.0026.0055l.0023.0048a.1076.1076,0,0,1-.0014.0157l-.0042.0092-.0006.0149,0,.003-.001.0032,0,.0177-.0017.01-.0026.0017.0043.0066-.0007.0033-.003.0008-.0012.0063a.0387.0387,0,0,1-.0006.0122l-.0026.0117.0005.0176.0013.0061-.0047.0028.0029.0036-.0029.0035V16.65l.0022.0011.003.0054-.0058.002-.0006.0021-.0009.0246-.0029.0129-.0016.0063.0029.0053-.0029.0037v.0041l.0023.0014.0006.0033-.0024.0011-.0024.0007c-.0009.0075.001.013,0,.014l-.0021.0245-.0027.0058.0026.0064-.0014.0074a.1131.1131,0,0,0-.0026.02c-.001.0026-.0014.0234-.0028.0283v.0137l-.0028.0158-.0029.0255-.0029.0086.0016.0057.0006.0068-.0029.0268-.0007.0094-.0029.005.0015.0025-.0016.01c-.0009.0022-.0058.0051-.0019.0072l.0014.0056-.002,0,.0016.0014-.0019.01c0,.0047,0,.0093,0,.014,0,.0111-.0043.04-.0051.0436a.113.113,0,0,0-.004.0277.1365.1365,0,0,1-.002.03.183.183,0,0,0-.0025.0264.1963.1963,0,0,1-.0012.03l-.0044.0137.0005.0113c-.001.004-.0023.0411-.003.0455a.1221.1221,0,0,0,0,.03c0,.0052-.0012.0087-.0012.0141A.0523.0523,0,0,0,11.3929,17.2959Z"/><path class="cls-1" d="M11.6312,15.4234c.0025.0057.001.0123.0039.0184l.0046.0165.0018.009.0042.006c.005.0111.0143.0155.0229.0237a.0232.0232,0,0,0,.0139.008.0258.0258,0,0,1,.017.0058c.0089.0073.0216.0056.0322.0086.0088.0024.0178.0011.0263.0035s.01-.0013.0171-.0037l.0085-.0008.0061.003a.0181.0181,0,0,0,.0159-.0008l.0061-.0047c.0074-.0034.02-.0053.0255-.0116a.0383.0383,0,0,1,.0121-.01l.0158-.0043.0051-.0072.0067-.0053.0172-.01a.1691.1691,0,0,0,.029-.0243.081.081,0,0,0,.0105-.015.0679.0679,0,0,1,.01-.0139l.0087-.0139a.15.15,0,0,1,.0171-.0176.1052.1052,0,0,0,.0137-.0188c.0039-.0064.01-.0051.0146-.01l.002-.008.0038-.0067.0058-.0064.0042-.0075.0053-.0063L12.02,15.31l.0038-.0048.0006-.0064.0024-.0135.0061-.0154.0085-.0111.0019-.0044-.0022-.004,0-.0062-.0039-.0084-.0017-.0048.002-.0039c-.0062-.0019-.0045-.0128-.0043-.0173v-.0108c-.0007-.0051-.0026-.0046-.0061-.0071l-.006-.0062-.0037-.0075-.0045-.0055-.0055-.0093-.0036-.0073-.0047-.005-.0064.0008a.031.031,0,0,1-.0167.0023L11.967,15.15l-.0077-.0023-.0069-.0039-.0084-.0017a.0906.0906,0,0,1-.0138,0,.0424.0424,0,0,0-.0138,0l-.0093-.0007a.0891.0891,0,0,0-.0186.0007l-.0038.0011-.0038-.0011-.0083.0023a.0447.0447,0,0,1-.0169.0047.11.11,0,0,1-.015.0048l-.0075.0014-.0067.0035c-.0054.0023-.0108.0017-.0156.0048l-.0057.0039-.014.0066-.0071.0029-.0049.0051-.0067.0029-.002.0028-.0046.0014-.0057.0046-.0064.004-.0023.0023-.0036.001-.0027.0038-.0085.0029-.0044.0063-.0118.01-.0048.0062-.0079.0034-.0044.0056c-.0011.0038.0005.004-.0039.0056l-.0074.0032,0,.0042-.0026.0029-.0091.0113-.0045.0071-.0067.0057-.0035.0064-.0037.0064a.073.073,0,0,0-.01.0176l-.004.0092c-.0005.0017-.0025.0206-.0067.0167l-.0017.0094-.0009.0045-.0032.0025-.0016.01-.002.0132-.0042.0094-.0012.0088c.0009.0061-.0024.0111-.0022.0175S11.6291,15.4178,11.6312,15.4234Z"/><path class="cls-1" d="M16.93,15.0272a7.5992,7.5992,0,0,0-6.7686-3.5637c-4.0621,0-7.367,2.6456-7.367,5.8975s3.3049,5.8974,7.367,5.8974a11.1556,11.1556,0,0,0,1.9386-.16l.0071-.0006.0268-.005.0081-.0016c.0682-.0125.1344-.0255.198-.0389l.0527-.0113.012-.0029a7.4817,7.4817,0,0,0,1.1907-.377,2.901,2.901,0,0,1,1.16-.2727,3.0776,3.0776,0,0,1,1.6825.3731.2061.2061,0,0,0,.2449-.3315,3.37,3.37,0,0,0-1.9274-.4537,3.27,3.27,0,0,0-1.31.301,6.9553,6.9553,0,0,1-1.1865.3711c-.0624.0128-.125.0254-.1886.037l-.0132.0025a10.7122,10.7122,0,0,1-1.8958.1582c-3.835,0-6.955-2.4608-6.955-5.4854s3.12-5.4854,6.955-5.4854a7.1862,7.1862,0,0,1,6.4058,3.3469.206.206,0,1,0,.3628-.1953Z"/></svg>