<svg width="143" height="63" viewBox="0 0 143 63" fill="none" xmlns="http://www.w3.org/2000/svg">
<path fill-rule="evenodd" clip-rule="evenodd" d="M5.19641 9.68701L6.78404 53.315L16.6806 41.8342L137.804 39.5464V11.9739L5.19641 9.68701Z" fill="white"/>
<path fill-rule="evenodd" clip-rule="evenodd" d="M110.145 20.928L113.336 29.7379C113.574 29.1668 113.812 28.5236 114.05 27.8092C114.288 27.0948 114.518 26.3536 114.741 25.5832C114.963 24.8137 115.177 24.0316 115.384 23.2378C115.589 22.4445 115.78 21.6745 115.955 20.928H118.86C118.273 23.23 117.645 25.341 116.979 27.2619C116.313 29.1829 115.654 30.8022 115.003 32.1193C114.701 32.7221 114.387 33.3098 114.062 33.8814C113.737 34.4525 113.312 34.9647 112.788 35.4169C112.265 35.8696 111.606 36.2341 110.812 36.5124C110.018 36.7901 109.002 36.9368 107.764 36.9529L107.502 34.3098C107.788 34.3098 108.113 34.2937 108.479 34.262C108.843 34.2298 109.205 34.167 109.562 34.072C109.919 33.9765 110.256 33.8459 110.574 33.6787C110.891 33.5121 111.153 33.2859 111.36 33.0004C111.423 32.9205 111.478 32.8415 111.527 32.7621C111.574 32.6822 111.63 32.5794 111.693 32.4527L106.979 20.928H110.145ZM46.0931 16.5179V32.4049H43.3783L43.2584 31.5239C42.989 31.8255 42.6328 32.0916 42.1898 32.3211C41.7468 32.5516 41.224 32.6666 40.6231 32.6666C39.8317 32.6666 39.1349 32.5004 38.5336 32.1666C37.9318 31.8333 37.4255 31.3889 37.0137 30.8329C36.6024 30.2774 36.2896 29.6341 36.0761 28.9037C35.8622 28.1732 35.7555 27.411 35.7555 26.6167C35.7555 25.8707 35.8661 25.1402 36.0878 24.4254C36.3095 23.711 36.6458 23.0721 37.0965 22.5078C37.5478 21.9445 38.114 21.4918 38.7948 21.1502C39.475 20.8091 40.2742 20.6385 41.1923 20.6385C41.7941 20.6385 42.4427 20.7487 43.1391 20.9684V16.5179H46.0931ZM28.7656 20.6385C29.6866 20.6385 30.4887 20.8091 31.1714 21.1502C31.8541 21.4918 32.4258 21.9445 32.8867 22.5078C33.3472 23.0721 33.6922 23.711 33.9227 24.4254C34.1527 25.1402 34.2682 25.8707 34.2682 26.6167C34.2682 27.3633 34.1527 28.0977 33.9227 28.8203C33.6922 29.543 33.3511 30.1896 32.8984 30.7617C32.4457 31.3328 31.8741 31.7938 31.1836 32.1427C30.4926 32.4921 29.6866 32.6666 28.7656 32.6666C27.8446 32.6666 27.0386 32.4921 26.3481 32.1427C25.6576 31.7938 25.086 31.3328 24.6333 30.7617C24.1806 30.1896 23.839 29.543 23.609 28.8203C23.3785 28.0977 23.2635 27.3633 23.2635 26.6167C23.2635 25.8707 23.3785 25.1402 23.609 24.4254C23.839 23.711 24.1806 23.0721 24.6333 22.5078C25.086 21.9445 25.6576 21.4918 26.3481 21.1502C27.0386 20.8091 27.8446 20.6385 28.7656 20.6385ZM53.0264 20.6385C53.6613 20.6385 54.2412 20.7214 54.7651 20.8885C55.2889 21.0552 55.7416 21.3169 56.1227 21.6741C56.5038 22.0308 56.8015 22.483 57.0159 23.0297C57.2303 23.577 57.3375 24.2397 57.3375 25.0165V32.3942H54.6452L54.5268 31.5365C54.2081 31.8893 53.8017 32.1666 53.3076 32.3664C52.8134 32.5667 52.272 32.6666 51.6824 32.6666C51.1883 32.6666 50.7137 32.5833 50.26 32.4166C49.8058 32.2499 49.4033 32.0117 49.0525 31.7022C48.7021 31.3923 48.4194 31.0112 48.2041 30.559C47.9892 30.1063 47.8815 29.5946 47.8815 29.0226C47.8815 28.451 47.9926 27.9466 48.2162 27.5105C48.4394 27.0738 48.742 26.7045 49.1246 26.4023C49.5071 26.1012 49.9452 25.8546 50.4393 25.6641C50.9334 25.4735 51.4514 25.3308 51.9933 25.2353C52.3758 25.1563 52.7939 25.0969 53.2486 25.0569C53.7028 25.0174 54.0809 24.9814 54.384 24.9492V24.7826C54.384 24.1476 54.2203 23.6954 53.8933 23.4249C53.5663 23.1555 53.1156 23.02 52.541 23.02C52.2053 23.02 51.8861 23.0604 51.5835 23.1394C51.2799 23.2188 51.0085 23.3177 50.7692 23.4371C50.5295 23.556 50.318 23.6749 50.1347 23.7943C49.951 23.9137 49.8034 24.0204 49.6918 24.1159L48.7152 22.0434C48.8419 21.9328 49.0364 21.7978 49.299 21.6385C49.5607 21.4801 49.8779 21.3252 50.2512 21.1741C50.6245 21.0235 51.045 20.8968 51.5138 20.793C51.9821 20.6902 52.4865 20.6385 53.0264 20.6385ZM71.9171 20.6385C72.8381 20.6385 73.6402 20.8091 74.3229 21.1502C75.0056 21.4918 75.5772 21.9445 76.0382 22.5078C76.4987 23.0721 76.8437 23.711 77.0742 24.4254C77.3042 25.1402 77.4197 25.8707 77.4197 26.6167C77.4197 27.3633 77.3042 28.0977 77.0742 28.8203C76.8437 29.543 76.5026 30.1896 76.0499 30.7617C75.5972 31.3328 75.0256 31.7938 74.3351 32.1427C73.6441 32.4921 72.8381 32.6666 71.9171 32.6666C70.9961 32.6666 70.1901 32.4921 69.4996 32.1427C68.8091 31.7938 68.2375 31.3328 67.7848 30.7617C67.3321 30.1896 66.9905 29.543 66.7605 28.8203C66.53 28.0977 66.415 27.3633 66.415 26.6167C66.415 25.8707 66.53 25.1402 66.7605 24.4254C66.9905 23.711 67.3321 23.0721 67.7848 22.5078C68.2375 21.9445 68.8091 21.4918 69.4996 21.1502C70.1901 20.8091 70.9961 20.6385 71.9171 20.6385ZM96.6339 20.6385C97.3644 20.6385 98.0393 20.7574 98.6587 20.9957C99.2776 21.2335 99.8136 21.6029 100.266 22.1029C100.719 22.6033 101.076 23.2505 101.338 24.0443C101.6 24.8386 101.731 25.7835 101.731 26.8789V27.4028H94.2759C94.3397 28.3715 94.6423 29.0703 95.1842 29.4991C95.7261 29.9275 96.4278 30.1419 97.2884 30.1419C97.687 30.1419 98.0612 30.1063 98.4121 30.0347C98.7625 29.9635 99.0739 29.8724 99.3448 29.7608C99.6157 29.6502 99.8472 29.5386 100.038 29.4275C100.23 29.3164 100.373 29.2131 100.469 29.1176L101.255 31.5239C101.143 31.6028 100.965 31.7105 100.719 31.845C100.472 31.98 100.167 32.1072 99.8019 32.2261C99.4364 32.3455 99.0076 32.4483 98.5154 32.536C98.0232 32.6227 97.4833 32.6666 96.8956 32.6666C96.1496 32.6666 95.4391 32.5477 94.7642 32.3094C94.0893 32.0716 93.4972 31.7022 92.9899 31.2018C92.4812 30.7018 92.0762 30.0785 91.7751 29.332C91.4729 28.5859 91.3224 27.6971 91.3224 26.6645C91.3224 25.6962 91.4608 24.8386 91.739 24.092C92.0168 23.3455 92.3978 22.7188 92.8822 22.2106C93.3666 21.7023 93.9304 21.3135 94.5736 21.0435C95.2164 20.7735 95.9035 20.6385 96.6339 20.6385ZM123.577 20.928V27.452C123.577 28.2463 123.72 28.889 124.006 29.3807C124.291 29.8734 124.783 30.1195 125.482 30.1195C126.053 30.1195 126.537 30.004 126.934 29.774C127.33 29.544 127.649 29.3257 127.887 29.119V20.928H130.839V32.4049H128.125L128.03 31.5C127.505 31.9449 126.962 32.2465 126.399 32.4049C125.835 32.5633 125.283 32.6432 124.744 32.6432C123.394 32.6432 122.371 32.2383 121.672 31.4288C120.974 30.6194 120.625 29.3968 120.625 27.7619V20.928H123.577ZM14.0808 20.9241L17.0816 28.546L19.9879 20.9241H22.9887L18.3203 32.4049H15.7479L10.9363 20.9241H14.0808ZM64.2002 16.208C64.9146 16.208 65.5062 16.2757 65.9744 16.4102C66.4427 16.5457 66.7166 16.6368 66.7965 16.6846L66.4627 19.1377C66.3677 19.0899 66.1811 19.0227 65.9033 18.9354C65.6251 18.8482 65.2562 18.8043 64.7957 18.8043C64.3824 18.8043 64.0374 18.9276 63.7597 19.1737C63.4814 19.4198 63.3425 19.8209 63.3425 20.3759V20.9241H65.82V23.306H63.3664V32.4049H60.4129V23.306H58.8886V20.9241H60.4129V20.3047C60.4129 19.5587 60.5084 18.9276 60.6984 18.4116C60.8895 17.8955 61.155 17.4745 61.4966 17.149C61.8378 16.8235 62.2388 16.5857 62.6993 16.4346C63.1598 16.2835 63.6603 16.208 64.2002 16.208ZM85.4202 20.6385C86.0235 20.6385 86.579 20.7302 87.0877 20.9124C87.5955 21.0951 88.0321 21.3846 88.3976 21.7818C88.7626 22.1784 89.0442 22.695 89.243 23.3299C89.4414 23.9653 89.5408 24.7275 89.5408 25.6163V32.4049H86.5873V25.8546C86.5873 24.9814 86.4045 24.3065 86.0395 23.8299C85.6741 23.3538 85.1663 23.1155 84.5148 23.1155C84.0543 23.1155 83.6293 23.2344 83.241 23.4727C82.8516 23.711 82.5144 23.9727 82.2284 24.2592V32.4049H79.2748V20.9241H81.9667L82.1095 21.8295C82.57 21.4484 83.0894 21.1546 83.6693 20.948C84.2492 20.7419 84.8325 20.6385 85.4202 20.6385ZM54.4079 27.0217C54.0882 27.0378 53.7607 27.0656 53.425 27.1055C53.0892 27.145 52.7696 27.1966 52.466 27.26C51.8267 27.3872 51.3827 27.6055 51.1352 27.9154C50.8871 28.2248 50.7634 28.5621 50.7634 28.927C50.7634 29.3086 50.9032 29.6141 51.1829 29.8446C51.4626 30.0751 51.8583 30.1896 52.37 30.1896C52.753 30.1896 53.1248 30.1107 53.4845 29.9518C53.8441 29.793 54.1521 29.5946 54.4079 29.3559V27.0217ZM41.5519 23.1155C41.0466 23.1155 40.6119 23.2115 40.2484 23.4025C39.8853 23.5935 39.5852 23.8523 39.3483 24.1793C39.1115 24.5063 38.9337 24.8717 38.8152 25.2786C38.6968 25.685 38.6374 26.1026 38.6374 26.5334C38.6374 27.011 38.689 27.4695 38.7918 27.9076C38.8947 28.3462 39.0526 28.7282 39.2655 29.0552C39.4785 29.3817 39.7474 29.6443 40.071 29.8437C40.3951 30.0425 40.7781 30.1419 41.2201 30.1419C41.5831 30.1419 41.9549 30.0425 42.3335 29.8437C42.7127 29.6443 42.9812 29.4095 43.1391 29.1385V23.4498C42.5709 23.2271 42.0417 23.1155 41.5519 23.1155ZM28.7656 23.1155C28.3373 23.1155 27.964 23.2076 27.6463 23.3903C27.3286 23.5736 27.0586 23.8206 26.8369 24.1315C26.6142 24.4424 26.4471 24.8123 26.3364 25.243C26.2249 25.6733 26.1693 26.127 26.1693 26.6051C26.1693 27.0992 26.2249 27.5572 26.3364 27.9797C26.4471 28.4012 26.6103 28.7721 26.8247 29.0908C27.0386 29.4095 27.3086 29.6604 27.6346 29.8437C27.9596 30.0264 28.3373 30.118 28.7656 30.118C29.1945 30.118 29.5677 30.0264 29.8855 29.8437C30.2027 29.6604 30.4726 29.4095 30.6953 29.0908C30.9176 28.7721 31.0842 28.4012 31.1953 27.9797C31.3064 27.5572 31.3625 27.0992 31.3625 26.6051C31.3625 26.127 31.3064 25.6733 31.1953 25.243C31.0842 24.8123 30.9176 24.4424 30.6953 24.1315C30.4726 23.8206 30.2027 23.5736 29.8855 23.3903C29.5677 23.2076 29.1945 23.1155 28.7656 23.1155ZM71.9171 23.1155C71.4887 23.1155 71.1155 23.2076 70.7978 23.3903C70.48 23.5736 70.2101 23.8206 69.9883 24.1315C69.7656 24.4424 69.5985 24.8123 69.4879 25.243C69.3763 25.6733 69.3212 26.127 69.3212 26.6051C69.3212 27.0992 69.3763 27.5572 69.4879 27.9797C69.5985 28.4012 69.7618 28.7721 69.9762 29.0908C70.1901 29.4095 70.4601 29.6604 70.7861 29.8437C71.1116 30.0264 71.4887 30.118 71.9171 30.118C72.3459 30.118 72.7192 30.0264 73.0369 29.8437C73.3541 29.6604 73.6241 29.4095 73.8468 29.0908C74.069 28.7721 74.2357 28.4012 74.3468 27.9797C74.4579 27.5572 74.5139 27.0992 74.5139 26.6051C74.5139 26.127 74.4579 25.6733 74.3468 25.243C74.2357 24.8123 74.069 24.4424 73.8468 24.1315C73.6241 23.8206 73.3541 23.5736 73.0369 23.3903C72.7192 23.2076 72.3459 23.1155 71.9171 23.1155ZM96.6222 22.9966C96.1111 22.9966 95.6247 23.1871 95.1613 23.5682C94.6984 23.9493 94.427 24.5209 94.347 25.283H98.7298C98.6977 24.8863 98.6138 24.5408 98.4784 24.247C98.3424 23.9532 98.1748 23.7149 97.9755 23.5321C97.7762 23.3499 97.5603 23.2149 97.3283 23.1272C97.0974 23.0405 96.8615 22.9966 96.6222 22.9966Z" fill="#EE3023"/>
</svg>
