<svg width="100" height="101" viewBox="0 0 100 101" fill="none" xmlns="http://www.w3.org/2000/svg">
<path fill-rule="evenodd" clip-rule="evenodd" d="M3.91455 4.89941V95.7492L31.2058 91.8448L58.0071 88.1317L96.0855 83.2668V11.1814L3.91455 4.89941Z" fill="#EE3023"/>
<path fill-rule="evenodd" clip-rule="evenodd" d="M19.4136 34.9619L28.2576 59.384C28.9182 57.8008 29.5774 56.0177 30.238 54.0373C30.8986 52.057 31.5362 50.0023 32.1522 47.8666C32.7682 45.7336 33.3625 43.5655 33.9353 41.365C34.5054 39.1658 35.0336 37.0314 35.5185 34.9619H43.571C41.9446 41.3434 40.2046 47.1953 38.3567 52.5203C36.51 57.8454 34.6837 62.3343 32.8789 65.9857C32.0428 67.6567 31.1728 69.2858 30.2705 70.8704C29.3694 72.4536 28.1915 73.8733 26.7407 75.1269C25.2885 76.3818 23.4621 77.3923 21.2629 78.1636C19.061 78.9336 16.2445 79.3402 12.8133 79.3848L12.0866 72.0578C12.8782 72.0578 13.7805 72.0132 14.7937 71.9254C15.8041 71.8362 16.8065 71.662 17.7967 71.3985C18.7868 71.1338 19.7203 70.7717 20.6024 70.3084C21.4818 69.8464 22.2072 69.2196 22.7799 68.428C22.9556 68.2065 23.1082 67.9876 23.2433 67.7674C23.3743 67.5459 23.5283 67.2609 23.7026 66.9096L10.6357 34.9619H19.4136ZM56.6472 34.9619V53.0472C56.6472 55.2491 57.0444 57.0308 57.836 58.3939C58.6276 59.7596 59.992 60.4417 61.9277 60.4417C63.5123 60.4417 64.8537 60.1216 65.9546 59.484C67.0529 58.8464 67.935 58.2412 68.5956 57.6684V34.9619H76.7791V66.7773H69.2548L68.9914 64.2687C67.5379 65.5021 66.0316 66.3382 64.47 66.7773C62.9071 67.2163 61.3779 67.4378 59.8825 67.4378C56.1407 67.4378 53.3039 66.3153 51.3668 64.0715C49.431 61.8277 48.4638 58.4384 48.4638 53.9063V34.9619H56.6472Z" fill="white"/>
</svg>
