<svg width="100" height="100" viewBox="0 0 100 100" fill="none" xmlns="http://www.w3.org/2000/svg">
<path d="M85.7366 48.0583L85.6794 47.8008C84.5639 43.7393 80.5882 41.2223 76.5267 41.7944C78.2714 38.7339 77.8138 34.8154 75.3254 32.2412L75.354 32.2126C75.211 32.0982 75.068 31.9838 74.9536 31.8694C74.8677 31.8122 74.8105 31.7264 74.7533 31.6406L74.1241 31.0971C74.0955 31.0685 74.0383 31.0399 74.0097 31.0113C72.4652 29.7528 70.8348 28.6087 69.0901 27.579C63.3696 24.2898 56.9913 22.6309 49.9266 22.6309C42.8618 22.6309 36.4835 24.2898 30.7631 27.579C25.0426 30.8683 20.4949 35.4447 17.0912 41.2509C13.6875 47.0572 12 53.7787 12 61.3869C12 68.9951 13.6875 75.7166 17.0912 81.5229C20.4949 87.3291 25.0426 91.8483 30.7631 95.109C36.4835 98.3696 42.8618 99.9999 49.9266 99.9999C56.9913 99.9999 63.3696 98.3696 69.0901 95.109C74.8105 91.8483 79.3583 87.3291 82.762 81.5229C86.1656 75.7166 87.8532 68.9951 87.8532 61.3869C87.8532 56.6675 87.1667 52.2914 85.851 48.2585C85.7652 48.2013 85.7652 48.1155 85.7366 48.0583ZM68.2034 73.6001C66.2871 77.0895 63.7415 79.8067 60.538 81.7517C57.3346 83.6967 53.7879 84.6691 49.8694 84.6691C45.9795 84.6691 42.4042 83.6967 39.2007 81.7517C35.9973 79.8067 33.4517 77.0895 31.5353 73.6001C29.619 70.1106 28.6751 66.0491 28.6751 61.4155C28.6751 56.6675 29.619 52.5774 31.5353 49.0879C33.4517 45.5985 35.9973 42.8813 39.2007 40.9363C42.4042 38.9913 45.9509 38.0189 49.8694 38.0189C53.7593 38.0189 57.3346 38.9913 60.538 40.9363C61.5963 41.5656 62.5402 42.3378 63.4554 43.1387C63.5699 43.2245 63.6271 43.3389 63.7415 43.4533L64.3135 43.9109C64.3993 43.9967 64.4851 44.0539 64.5423 44.1398L64.5709 44.1111C66.3157 45.4841 68.4608 46.0275 70.5488 45.7701C69.4047 47.6578 69.0043 50.0032 69.6335 52.2914L69.6907 52.5488C69.6907 52.5774 69.7193 52.6346 69.7193 52.6632H69.6907C70.5774 55.2946 71.035 58.2121 71.035 61.4155C71.0636 66.0491 70.0912 70.1106 68.2034 73.6001Z" fill="url(#paint0_linear_210_47)"/>
<path opacity="0.5" d="M37.313 11.4189C37.3416 11.3331 37.3988 11.2759 37.4274 11.1901L37.7421 10.3606C37.7707 6.84254 34.9962 3.8393 31.3924 3.61048H31.2779C27.5597 3.38166 24.299 6.21329 24.0702 9.90298L23.5267 18.6839C23.5267 18.7697 23.4981 18.8555 23.4981 18.9413L23.1549 30.5824C26.1295 27.951 29.5046 25.7486 33.1371 24.0325L37.313 11.4189Z" fill="#19AA92"/>
<path opacity="0.8" d="M41.0885 21.6298L56.0761 9.53109L56.1905 9.27367C56.3049 8.98765 56.3907 8.73023 56.4765 8.44421C57.3918 5.32656 55.79 1.92289 52.5866 0.578589L52.5008 0.549987C48.9827 -0.908728 44.864 0.635794 43.3481 3.98226L39.7442 11.9337C39.7156 12.0195 39.6584 12.0767 39.6298 12.1625L34.9962 23.3174C36.9126 22.5737 38.9719 22.0303 41.0885 21.6298Z" fill="#19AA92"/>
<path d="M49.8407 20.543C51.5569 20.543 53.2444 20.6574 54.9033 20.8576C58.45 21.2009 61.8537 22.0875 65.0571 23.489C65.3145 23.6034 65.572 23.7179 65.858 23.8323L69.8623 20.8004C69.9767 20.7146 70.0911 20.5716 70.2055 20.4858L76.8985 15.7664C80.2449 13.421 81.5034 8.27264 79.7301 4.32553L79.6729 4.21112C77.8995 0.264009 73.695 -1.02309 70.3771 1.32229L62.4257 6.92833C62.3399 6.98554 62.2541 7.01414 62.1969 7.07134L43.7198 21.0006C45.6934 20.7146 47.7528 20.543 49.8407 20.543Z" fill="#19AA92"/>
<defs>
<linearGradient id="paint0_linear_210_47" x1="49.157" y1="24.3906" x2="50.1088" y2="73.8848" gradientUnits="userSpaceOnUse">
<stop stop-color="#00AA92"/>
<stop offset="0.2344" stop-color="#04AB99"/>
<stop offset="0.5653" stop-color="#0EB0AB"/>
<stop offset="0.5825" stop-color="#0EB0AD"/>
<stop offset="0.7176" stop-color="#16ACAE"/>
<stop offset="0.9181" stop-color="#2AA3B2"/>
<stop offset="1" stop-color="#349EB4"/>
</linearGradient>
</defs>
</svg>
