<svg width="100" height="100" viewBox="0 0 100 100" fill="none" xmlns="http://www.w3.org/2000/svg">
<mask id="mask0_32_100" style="mask-type:alpha" maskUnits="userSpaceOnUse" x="13" y="0" width="73" height="100">
<path d="M13.5 0.5H85.5V99.5H13.5V0.5Z" fill="#C4C4C4" stroke="black"/>
</mask>
<g mask="url(#mask0_32_100)">
<path d="M269.74 67.975C266.765 64.4131 264.732 54.5513 263.757 55.4255C262.944 56.1451 262.969 66.9209 262.876 71.0405L269.74 67.975ZM262.876 71.0405C261.855 78.5001 258.653 85.4919 253.672 91.1382C245.192 98.9348 227.386 102.097 211.937 98.5569C196.617 95.0417 192.818 91.4584 194.847 82.4349C196.614 74.5735 199.021 72.6055 204.245 74.7534C212.768 78.2577 222.234 80.215 226.627 79.3911C231.513 78.4736 237.201 73.6345 237.201 70.3964C237.201 68.6514 236.28 68.4966 231.121 69.3708C223.045 70.8633 214.723 70.2828 206.932 67.6836C190.382 59.8258 186.065 35.353 198.046 17.2484C201.626 12.0393 206.854 8.18499 212.889 6.30447C218.924 4.42395 225.416 4.62634 231.322 6.87926L237.385 9.56329L241.058 6.84687C244.149 4.56222 245.872 4.2493 251.935 4.87533C261.62 5.87554 262.8 7.09515 262.8 16.1078C262.736 21.714 263.079 27.3175 263.826 32.874C264.387 33.2338 266.837 22.1523 269.266 18.8854C276.08 9.72521 283.682 6.42602 297.973 6.42602C307.766 6.42602 310.609 6.93691 316.682 9.79003C329.127 15.6258 334.466 25.7538 334.466 43.5417C334.466 56.4185 332.113 63.6646 325.832 70.0905C319.104 76.984 311.85 79.3911 297.977 79.3335C283.693 79.276 276.857 76.5308 269.719 67.993L262.876 71.0405ZM308.576 52.7199C310.469 50.1446 311.58 47.0794 311.779 43.8897C311.977 40.6999 311.254 37.5204 309.695 34.7305C307.732 32.3958 305.087 30.7344 302.132 29.9795C299.176 29.2245 296.059 29.4139 293.217 30.521C290.87 31.182 288.801 32.5866 287.32 34.5238C285.84 36.461 285.028 38.8262 285.006 41.2643C284.497 44.0072 284.934 46.842 286.247 49.3038C287.559 51.7657 289.669 53.7085 292.231 54.8139C294.829 56.2493 297.817 56.8185 300.76 56.4387C303.704 56.0588 306.449 54.7499 308.598 52.702L308.576 52.7199ZM236.917 49.0465C238.231 45.8027 238.758 42.2936 238.453 38.807C238.453 29.0207 236 24.9839 230.049 24.9839C222.338 24.9839 218.071 29.6611 218.014 38.1629C217.96 46.4632 221.874 50.5828 229.818 50.5828C232.292 50.7395 234.759 50.2011 236.942 49.0285L236.917 49.0465ZM35.0757 95.3009C30.8032 94.4826 26.6224 93.2424 22.5947 91.5987C17.5576 89.3752 17 88.6807 17 84.7626C17 73.6092 21.9902 68.932 29.6789 72.9184C42.2031 79.3946 59.2391 76.1925 59.2391 67.3633C59.2391 65.129 58.4116 64.9959 48.3735 65.6219C31.2584 66.7012 22.6811 62.0492 18.4571 49.4314C16.6582 44.0346 16.5574 23.8181 18.306 14.6076C20.2956 4.11253 22.3536 2.70934 33.8129 4.04415L43.2394 5.14148V23.2317C43.2394 39.2207 43.5236 41.6385 45.6787 44.0311C46.4794 44.852 47.4349 45.5061 48.4899 45.9557C49.5449 46.4053 50.6785 46.6415 51.8252 46.6505C52.972 46.6596 54.1092 46.4414 55.1711 46.0084C56.2331 45.5755 57.1987 44.9364 58.0122 44.1281C60.4084 41.7319 60.5991 40.1489 60.3113 24.9335C60.1134 14.3629 60.502 7.84718 61.3907 6.9693C63.0421 5.31787 82.2224 5.19905 83.8522 6.83249C85.0453 11.119 85.6504 15.5477 85.6512 19.9971C86.011 26.61 84.7517 39.6776 87.8099 40.1993C88.1697 41.2787 89.2958 32.946 92.2317 28.7545C99.0245 19.0402 106.328 15.5179 120.896 14.9386C135.561 14.3557 142.976 16.7375 149.92 24.2751C153.06 27.8586 155.574 31.9453 157.357 36.3639C158.634 39.9618 159.555 52.504 159.962 52.504C160.368 52.504 162.437 41.1779 163.995 39.066C166.596 35.5437 167.471 35.227 174.476 35.227C187.327 35.227 189.159 39.0876 189.159 66.2192C189.159 85.9356 188.576 86.9537 177.268 87.0221C166.931 87.0833 163.563 84.6333 161.538 75.5846C160.667 71.6917 161.315 62.5673 160.739 62.5673C158.942 65.6421 157.358 68.8362 155.997 72.127C151.867 78.7536 145.672 83.8382 138.367 86.5976C130.474 88.8643 113.427 88.5692 107.577 86.0578C107.577 86.0578 94.7665 78.2223 91.102 71.6663C89.429 68.5146 87.5545 54.2167 86.9392 54.4218C86.324 54.6268 84.8165 69.9105 83.5968 73.8502C80.5278 83.7696 76.9659 88.2417 69.0973 92.1022C61.3115 95.9124 46.4307 97.3013 35.0973 95.2829L35.0757 95.3009ZM131.229 61.4448C133.177 59.4465 134.535 56.9496 135.156 54.229C135.776 51.5083 135.633 48.6692 134.744 46.0243C134.415 43.2574 133.033 40.7236 130.885 38.9484C128.737 37.1732 125.989 36.2928 123.209 36.4899C115.517 36.4899 111.509 40.7318 110.768 49.6581C110.214 56.3466 110.448 57.1345 114.067 60.754C115.128 61.9672 116.424 62.9515 117.878 63.6464C119.332 64.3413 120.912 64.7323 122.522 64.7957C124.132 64.859 125.739 64.5932 127.242 64.0145C128.746 63.4359 130.116 62.5567 131.269 61.4304L131.229 61.4448ZM167.568 26.2827C156.504 22.7963 154.745 10.452 164.474 4.50827C167.354 2.99208 170.537 2.14047 173.79 2.01595C177.042 1.89143 180.281 2.49722 183.269 3.78876C184.995 4.77554 186.452 6.17313 187.508 7.85768C188.565 9.54223 189.19 11.4616 189.327 13.4454C189.464 15.4293 189.109 17.4162 188.294 19.2301C187.479 21.0439 186.229 22.6285 184.654 23.8433C179.51 26.8403 173.398 27.7092 167.622 26.2647L167.568 26.2827Z" fill="url(#paint0_linear_32_100)"/>
</g>
<defs>
<linearGradient id="paint0_linear_32_100" x1="393.121" y1="41.2402" x2="82.321" y2="41.2402" gradientUnits="userSpaceOnUse">
<stop stop-color="#400B81"/>
<stop offset="0.434" stop-color="#8D1383"/>
<stop offset="1" stop-color="#F31E7F"/>
</linearGradient>
</defs>
</svg>
