<svg width="143" height="62" viewBox="0 0 143 62" fill="none" xmlns="http://www.w3.org/2000/svg">
<path d="M114.049 38.51C112.718 36.9168 111.808 32.5057 111.372 32.8968C111.009 33.2186 111.02 38.0385 110.978 39.8812L114.049 38.51ZM110.978 39.8812C110.521 43.2178 109.089 46.3452 106.862 48.8708C103.068 52.3581 95.104 53.7726 88.1936 52.1891C81.3412 50.6168 79.6418 49.014 80.5494 44.9778C81.3396 41.4615 82.4162 40.5812 84.7529 41.542C88.5654 43.1094 92.7994 43.9849 94.7644 43.6164C96.9498 43.206 99.4941 41.0415 99.4941 39.5931C99.4941 38.8126 99.0821 38.7433 96.7744 39.1344C93.1622 39.8019 89.4396 39.5423 85.9551 38.3797C78.5523 34.865 76.6211 23.9185 81.9801 15.8205C83.5818 13.4905 85.9201 11.7665 88.6196 10.9254C91.319 10.0842 94.2228 10.1747 96.8645 11.1825L99.5762 12.383L101.219 11.168C102.602 10.1461 103.373 10.0061 106.084 10.2861C110.416 10.7335 110.944 11.279 110.944 15.3103C110.916 17.8179 111.069 20.3243 111.403 22.8097C111.654 22.9706 112.75 18.014 113.836 16.5527C116.884 12.4554 120.285 10.9797 126.677 10.9797C131.057 10.9797 132.329 11.2082 135.045 12.4844C140.612 15.0947 143 19.6249 143 27.5812C143 33.3409 141.948 36.5821 139.138 39.4563C136.128 42.5397 132.884 43.6164 126.678 43.5906C120.29 43.5649 117.232 42.337 114.039 38.5181L110.978 39.8812ZM131.419 31.6866C132.266 30.5347 132.763 29.1636 132.852 27.7369C132.941 26.3102 132.617 24.888 131.92 23.6401C131.042 22.5958 129.859 21.8527 128.537 21.515C127.215 21.1773 125.821 21.262 124.549 21.7572C123.5 22.0529 122.574 22.6811 121.912 23.5476C121.25 24.4141 120.887 25.4721 120.877 26.5626C120.649 27.7895 120.845 29.0574 121.432 30.1586C122.019 31.2598 122.963 32.1288 124.108 32.6232C125.27 33.2652 126.607 33.5198 127.924 33.3499C129.24 33.18 130.468 32.5946 131.429 31.6786L131.419 31.6866ZM99.367 30.0435C99.9549 28.5926 100.19 27.023 100.054 25.4634C100.054 21.0861 98.9566 19.2805 96.2948 19.2805C92.8461 19.2805 90.9375 21.3726 90.9117 25.1753C90.8876 28.888 92.6385 30.7307 96.1918 30.7307C97.298 30.8008 98.4018 30.5599 99.3782 30.0354L99.367 30.0435ZM9.08511 50.7327C7.17405 50.3667 5.30401 49.812 3.50245 49.0767C1.24943 48.0822 1 47.7716 1 46.019C1 41.0302 3.23208 38.9381 6.67116 40.7212C12.2731 43.618 19.8932 42.1857 19.8932 38.2364C19.8932 37.2371 19.523 37.1775 15.0331 37.4575C7.37764 37.9403 3.54109 35.8595 1.65177 30.2157C0.847114 27.8017 0.802042 18.7591 1.58416 14.6393C2.47411 9.94492 3.39462 9.31728 8.52025 9.91433L12.7366 10.4052V18.4968C12.7366 25.6485 12.8638 26.73 13.8277 27.8001C14.1859 28.1673 14.6133 28.4599 15.0852 28.661C15.557 28.8621 16.0641 28.9678 16.577 28.9718C17.09 28.9758 17.5986 28.8782 18.0736 28.6846C18.5486 28.4909 18.9805 28.2051 19.3444 27.8436C20.4162 26.7718 20.5015 26.0637 20.3728 19.2579C20.2843 14.5298 20.4581 11.6154 20.8556 11.2227C21.5942 10.4841 30.1734 10.4309 30.9024 11.1615C31.4361 13.0789 31.7068 15.0598 31.7071 17.05C31.868 20.0079 31.3048 25.8529 32.6727 26.0862C32.8336 26.569 33.3373 22.8419 34.6505 20.967C37.6889 16.6219 40.9558 15.0464 47.4718 14.7873C54.0313 14.5266 57.3481 15.592 60.4541 18.9635C61.8586 20.5663 62.9831 22.3943 63.7805 24.3707C64.3518 25.98 64.7638 31.59 64.9456 31.59C65.1275 31.59 66.0528 26.524 66.7496 25.5793C67.9132 24.0038 68.3042 23.8621 71.4375 23.8621C77.186 23.8621 78.0051 25.5889 78.0051 37.7247C78.0051 46.5437 77.7444 46.9991 72.6863 47.0297C68.0628 47.057 66.5565 45.9611 65.6505 41.9138C65.2611 40.1725 65.5507 36.0912 65.2932 36.0912C64.4897 37.4666 63.781 38.8953 63.1722 40.3672C61.3247 43.3312 58.5539 45.6055 55.2866 46.8398C51.7558 47.8536 44.1309 47.7216 41.5142 46.5983C38.3881 45.3681 35.7843 43.0936 34.1452 40.1611C33.3969 38.7514 32.5584 32.3561 32.2832 32.4478C32.008 32.5395 31.3337 39.3758 30.7882 41.138C29.4154 45.5748 27.8222 47.5752 24.3027 49.302C20.8202 51.0062 14.1641 51.6275 9.09479 50.7246L9.08511 50.7327ZM52.0937 35.5892C52.9649 34.6953 53.5726 33.5785 53.85 32.3616C54.1274 31.1446 54.0637 29.8748 53.666 28.6917C53.5186 27.4541 52.9005 26.3207 51.9399 25.5267C50.9792 24.7327 49.7498 24.3389 48.5066 24.427C45.0659 24.427 43.2731 26.3244 42.9416 30.3171C42.6938 33.3088 42.7984 33.6612 44.4173 35.2801C44.8917 35.8228 45.4717 36.2631 46.122 36.5739C46.7722 36.8847 47.4791 37.0596 48.1992 37.088C48.9194 37.1163 49.6378 36.9974 50.3105 36.7386C50.9832 36.4798 51.5959 36.0865 52.1114 35.5827L52.0937 35.5892ZM68.3477 19.8614C63.3991 18.302 62.6121 12.7805 66.9637 10.1219C68.252 9.44375 69.6758 9.06283 71.1307 9.00713C72.5855 8.95144 74.0343 9.2224 75.3707 9.8001C76.1429 10.2415 76.7943 10.8666 77.2669 11.6201C77.7396 12.3736 78.0189 13.2321 78.0802 14.1194C78.1415 15.0068 77.9829 15.8956 77.6183 16.7069C77.2537 17.5182 76.6945 18.227 75.9903 18.7703C73.6891 20.1108 70.9554 20.4995 68.3718 19.8534L68.3477 19.8614Z" fill="url(#paint0_linear_31_97)"/>
<defs>
<linearGradient id="paint0_linear_31_97" x1="140.87" y1="28.8571" x2="1.852" y2="28.8571" gradientUnits="userSpaceOnUse">
<stop stop-color="white"/>
<stop offset="0.434" stop-color="white"/>
<stop offset="1" stop-color="white"/>
</linearGradient>
</defs>
</svg>
