<?xml version="1.0" encoding="UTF-8" standalone="no"?><!DOCTYPE svg PUBLIC "-//W3C//DTD SVG 1.1//EN" "http://www.w3.org/Graphics/SVG/1.1/DTD/svg11.dtd"><svg width="100%" height="100%" viewBox="0 0 192 192" version="1.1" xmlns="http://www.w3.org/2000/svg" xmlns:xlink="http://www.w3.org/1999/xlink" xml:space="preserve" xmlns:serif="http://www.serif.com/" style="fill-rule:evenodd;clip-rule:evenodd;stroke-linejoin:round;stroke-miterlimit:1.41421;"><path d="M25.614,75.373c0,-62.077 45.982,-67.824 71.271,-67.824c25.291,0 71.274,5.747 71.274,67.824c0,60.544 -46.749,68.208 -71.274,68.208c-24.139,0 -71.271,-7.664 -71.271,-68.208Zm98.096,-2.299l7.663,57.476c4.216,-2.298 27.206,-13.409 26.825,-55.177c0,-49.048 -29.89,-62.077 -55.565,-62.077l21.077,59.778Zm-26.825,-11.496l3.45,0l0,-48.282l-6.513,0l0,48.282l3.063,0Zm0,76.256c14.18,0 26.825,-3.832 32.188,-6.516l-27.971,-60.926l-8.431,0l-27.973,60.926c5.366,2.683 18.01,6.516 32.187,6.516Zm-5.746,-124.538c-25.674,0 -55.563,13.029 -55.563,62.077c-0.382,41.768 22.609,52.879 26.824,55.177l8.047,-57.476l20.692,-59.778Z" style="fill:#a6a8aa;"/><path d="M16.957,156.283l7.537,0l16.958,28.075l-8.008,0l-12.812,-21.198l-6.69,11.212l10.929,0l3.203,5.275l-17.335,0l-2.826,4.711l-7.913,0l16.957,-28.075Zm150.548,0l7.631,0l16.864,28.075l-8.009,0l-12.719,-21.198l-6.782,11.212l10.929,0l3.204,5.275l-17.241,0l-2.921,4.711l-7.914,0l16.958,-28.075Zm-73.954,28.168l6.312,0c7.349,-0.093 10.269,-4.144 10.269,-10.739l0,-17.429l-6.878,0l0,18.653c0,3.486 -2.448,3.957 -4.709,4.052l-9.894,0c-2.261,-0.095 -4.71,-0.566 -4.71,-4.052l0,-18.653l-6.972,0l0,17.429c0,6.595 3.015,10.646 10.364,10.739l6.218,0Zm-45.599,-14.131l0,-3.486c0.095,-2.354 0.566,-4.805 3.863,-4.71l21.197,0l0,-5.841l-21.29,0c-6.595,0 -10.648,3.014 -10.741,10.363l0,7.442c0.095,7.349 4.146,10.269 10.741,10.269l21.29,0l0,-5.748l-21.197,0c-3.297,0 -3.768,-2.356 -3.863,-4.71l0,-3.579Zm73.579,14.038l-6.877,0l0,-28.075l25.719,0c8.952,0 11.212,11.87 4.994,16.015c2.731,1.036 3.111,4.427 3.298,5.558l0.187,6.502l-6.782,0l-0.187,-5.748c-0.19,-2.449 -1.79,-4.146 -4.241,-4.146l-13.096,0l-1.318,-5.84l15.167,0c2.357,0 3.673,-1.036 3.673,-3.109c0,-1.978 -1.318,-3.203 -3.673,-3.203l-16.864,0l0,22.046Z" style="fill:#072f5e;"/></svg>