<svg width="143" height="62" viewBox="0 0 143 62" fill="none" xmlns="http://www.w3.org/2000/svg">
<path d="M131.051 39.4646C127.694 39.4646 124.929 36.7984 124.929 33.441C124.929 30.0835 127.694 27.4173 131.051 27.4173C134.409 27.4173 137.174 30.0835 137.174 33.441C137.174 36.6997 134.508 39.4646 131.051 39.4646ZM131.051 21.6899C124.435 21.6899 119.004 26.9236 119.004 33.441C119.004 39.9584 124.337 45.192 131.051 45.192C137.668 45.192 143 39.9584 143 33.441C143 26.9236 137.668 21.6899 131.051 21.6899Z" fill="white"/>
<path d="M12.9485 39.4645C9.5911 39.4645 6.9249 36.6995 6.9249 33.4409C6.9249 30.1822 9.68985 27.4172 13.0473 27.4172C16.4047 27.4172 19.1697 30.0834 19.1697 33.4409C19.1697 36.7983 16.4047 39.4645 12.9485 39.4645ZM25.4896 33.5396V22.5785H19.5647V23.566C17.6885 22.3811 15.4172 21.5911 12.9485 21.5911C6.33241 21.6898 1 26.9235 1 33.4409C1 39.9582 6.33241 45.1919 12.9485 45.1919C16.2072 45.1919 19.1697 43.9082 21.3421 41.8345C22.6259 44.7969 24.6008 47.3644 27.0695 49.5368L30.9207 45.1919C27.4645 42.2294 25.4896 37.9833 25.4896 33.5396Z" fill="white"/>
<path d="M107.352 22.5785H84.8373V44.6981H90.7622V28.4046H97.5758V44.6981H103.501V28.4046H107.451C109.031 28.4046 110.314 29.6884 110.314 31.2683V44.7968H116.239V31.1696C116.14 26.4297 112.191 22.5785 107.352 22.5785Z" fill="white"/>
<path d="M40.9931 39.4645C37.6357 39.4645 34.8707 36.7983 34.8707 33.4409C34.8707 30.0834 37.6357 27.4172 40.9931 27.4172C44.3505 27.4172 47.1155 30.0834 47.1155 33.4409C47.1155 36.7983 44.3505 39.4645 40.9931 39.4645ZM47.6092 13V23.5661C45.733 22.3811 43.4618 21.5911 40.9931 21.5911C34.377 21.5911 29.0446 26.8248 29.0446 33.3421C29.0446 39.8595 34.377 45.0932 40.9931 45.0932C43.4618 45.0932 45.733 44.4019 47.6092 43.1182V44.5994H53.5341V13H47.6092Z" fill="white"/>
<path d="M68.445 39.4645C65.0876 39.4645 62.3226 36.7983 62.3226 33.4409C62.3226 30.0834 65.0876 27.4172 68.445 27.4172C71.8024 27.4172 74.5674 30.0834 74.5674 33.4409C74.5674 36.6995 71.8024 39.4645 68.445 39.4645ZM75.0611 22.5785V23.566C73.1849 22.3811 70.9137 21.5911 68.445 21.5911C61.8289 21.5911 56.4965 26.8247 56.4965 33.3421C56.4965 39.8595 61.8289 45.0931 68.445 45.0931C70.9137 45.0931 73.1849 44.4019 75.0611 43.1182V44.5994H80.986V22.5785H75.0611Z" fill="white"/>
</svg>
