<?xml version="1.0" encoding="UTF-8" standalone="no"?><!DOCTYPE svg PUBLIC "-//W3C//DTD SVG 1.1//EN" "http://www.w3.org/Graphics/SVG/1.1/DTD/svg11.dtd"><svg width="100%" height="100%" viewBox="0 0 192 192" version="1.1" xmlns="http://www.w3.org/2000/svg" xmlns:xlink="http://www.w3.org/1999/xlink" xml:space="preserve" xmlns:serif="http://www.serif.com/" style="fill-rule:evenodd;clip-rule:evenodd;stroke-linejoin:round;stroke-miterlimit:1.41421;"><g id="svgg"><path id="path0" d="M87.144,5.879c-10.678,1.102 -22.039,5.071 -30.488,10.649c-0.558,0.369 -1.109,0.67 -1.225,0.67c-0.116,0 -0.211,0.093 -0.211,0.206c0,0.113 -0.093,0.206 -0.208,0.206c-0.247,0 -2.93,1.947 -4.529,3.286c-0.623,0.522 -1.48,1.206 -1.904,1.519c-2.073,1.531 -7.625,7.392 -10.372,10.951c-1.297,1.681 -4.613,6.543 -4.613,6.766c0,0.05 -0.352,0.68 -0.782,1.4c-9.084,15.187 -11.764,37.051 -6.647,54.239c2.101,7.057 5.217,13.942 8.565,18.924c0.905,1.346 1.738,2.59 1.851,2.764c0.113,0.175 0.317,0.464 0.452,0.643c0.135,0.178 0.676,0.904 1.201,1.612c1.253,1.687 4.386,5.201 4.637,5.201c0.109,0 0.198,0.122 0.198,0.272c0,0.51 5.036,5.096 8.65,7.878c4.932,3.797 11.708,7.565 17.3,9.621c6.351,2.334 10.302,3.315 16.992,4.217c3.567,0.481 13.94,0.459 17.094,-0.037c1.247,-0.196 2.822,-0.436 3.502,-0.533c1.997,-0.287 8.427,-1.829 9.474,-2.272c0.227,-0.096 1.061,-0.403 1.854,-0.682c5.686,-2.003 14.628,-6.633 17.551,-9.089c0.338,-0.284 0.528,-0.43 2.43,-1.858c4.837,-3.634 11.335,-10.516 14.937,-15.821c0.783,-1.154 1.495,-2.195 1.583,-2.314c0.088,-0.119 0.284,-0.433 0.436,-0.698c0.802,-1.394 1.166,-2.046 1.557,-2.792c0.238,-0.453 0.479,-0.871 0.535,-0.928c0.26,-0.258 2.386,-4.81 3.128,-6.693c0.223,-0.566 0.526,-1.308 0.674,-1.648c0.988,-2.275 2.479,-7.588 3.208,-11.431c1.995,-10.52 1.555,-22.553 -1.183,-32.335c-1.351,-4.828 -5.127,-14.106 -5.852,-14.383c-0.1,-0.038 -0.181,-0.192 -0.181,-0.343c0,-0.425 -3.516,-6.234 -4.672,-7.719c-0.846,-1.087 -1.712,-2.289 -1.712,-2.375c0,-0.055 -0.163,-0.27 -0.361,-0.478c-0.198,-0.206 -1.026,-1.156 -1.84,-2.11c-1.911,-2.24 -6.911,-7.14 -9.024,-8.843c-0.907,-0.731 -1.679,-1.4 -1.717,-1.487c-0.037,-0.087 -0.157,-0.158 -0.265,-0.158c-0.107,0 -0.78,-0.449 -1.494,-0.996c-1.311,-1.005 -4.762,-3.33 -4.942,-3.33c-0.053,0 -0.869,-0.443 -1.813,-0.985c-3.322,-1.909 -8.054,-4.042 -11.292,-5.089c-0.623,-0.202 -1.318,-0.443 -1.545,-0.537c-1.784,-0.734 -7,-1.941 -12.048,-2.786c-2.284,-0.383 -13.998,-0.573 -16.889,-0.274m16.064,7.799c13.214,1.998 23.773,6.952 33.843,15.877c2.636,2.337 8.997,9.4 8.997,9.991c0,0.058 0.51,0.845 1.133,1.749c0.623,0.905 1.133,1.699 1.133,1.764c0,0.065 0.277,0.521 0.615,1.012c2.404,3.495 5.616,11.269 7.106,17.202c0.184,0.736 0.418,1.664 0.517,2.06c1.158,4.596 1.608,17.412 0.771,21.934c-0.189,1.02 -0.432,2.364 -0.542,2.987c-0.438,2.489 -1.77,7.596 -2.282,8.753c-0.101,0.227 -0.367,0.922 -0.593,1.545c-0.455,1.259 -1.368,3.41 -1.682,3.962c-0.112,0.196 -0.203,0.49 -0.203,0.652c0,0.162 -0.069,0.325 -0.154,0.363c-0.086,0.038 -0.612,0.991 -1.171,2.118c-1.267,2.556 -4.13,7.241 -4.852,7.94c-0.059,0.056 -0.517,0.659 -1.018,1.339c-2.343,3.177 -7.124,8.101 -10.414,10.727c-0.68,0.542 -1.267,1.061 -1.305,1.153c-0.038,0.093 -0.167,0.169 -0.288,0.169c-0.12,0 -0.599,0.308 -1.063,0.687c-0.465,0.378 -1.726,1.254 -2.802,1.947c-1.076,0.694 -2.055,1.335 -2.175,1.424c-0.494,0.37 -4.515,2.425 -6.578,3.362c-3.243,1.473 -7.739,2.963 -11.432,3.79c-0.849,0.19 -1.915,0.432 -2.368,0.539c-6.077,1.421 -17.34,1.415 -23.685,-0.014c-7.682,-1.73 -12.571,-3.461 -17.861,-6.326c-1.101,-0.597 -2.09,-1.085 -2.197,-1.085c-0.107,0 -0.226,-0.079 -0.263,-0.176c-0.038,-0.097 -0.857,-0.667 -1.82,-1.268c-18.504,-11.534 -29.655,-32.508 -29.182,-54.885c0.102,-4.792 0.192,-5.752 0.954,-10.195c0.703,-4.094 2.683,-10.391 4.437,-14.109c1.668,-3.537 2.621,-5.335 3.636,-6.858c0.324,-0.487 0.589,-0.932 0.589,-0.988c0,-0.255 3.366,-5.034 4.216,-5.984c0.116,-0.131 0.952,-1.105 1.858,-2.163c0.905,-1.059 2.698,-2.899 3.983,-4.087c1.286,-1.19 2.491,-2.309 2.679,-2.488c3.027,-2.874 11.689,-8.214 16.407,-10.115c6.514,-2.624 12.913,-4.162 19.876,-4.777c2.492,-0.221 10.499,0.066 13.18,0.472m3.09,20.819c-0.138,0.26 -0.215,2.007 -0.205,4.687c0.008,2.35 0.011,4.39 0.007,4.531c-0.006,0.204 -2.909,0.257 -13.807,0.257l-13.8,0l0,4.819c0,4.248 -0.039,4.833 -0.333,4.946c-0.183,0.07 -6.304,0.124 -13.603,0.119c-7.299,-0.005 -13.359,0.045 -13.466,0.112c-0.267,0.165 -0.254,34.874 0.014,38.096c0.626,7.542 3.726,17.927 7.253,24.304c0.126,0.226 0.595,1.107 1.044,1.956c0.449,0.849 1.313,2.409 1.921,3.466c0.608,1.057 1.106,1.964 1.106,2.017c0,0.052 0.092,0.207 0.205,0.344c0.113,0.137 1.199,1.755 2.413,3.596c1.214,1.841 2.305,3.346 2.425,3.346c0.235,0 4.019,-5.618 4.019,-5.967c0,-0.116 0.076,-0.211 0.168,-0.211c0.092,0 0.356,-0.348 0.586,-0.772c0.701,-1.296 1.341,-2.409 1.508,-2.626c0.871,-1.138 5.166,-10.196 5.907,-12.461c0.167,-0.51 0.426,-1.205 0.575,-1.545c0.318,-0.72 1.591,-4.849 1.996,-6.471c0.249,-1 0.794,-1.699 0.794,-1.021c0,0.973 3.963,8.878 6.836,13.635c3.129,5.18 5.226,8.031 5.537,7.528c0.096,-0.155 0.271,-0.422 0.39,-0.593c0.119,-0.169 0.781,-1.189 1.472,-2.265c0.692,-1.076 1.34,-1.987 1.44,-2.025c0.101,-0.038 0.184,-0.15 0.184,-0.248c0,-0.098 0.635,-1.272 1.412,-2.609c2.365,-4.068 4.685,-8.71 6.154,-12.316c0.277,-0.679 0.627,-1.513 0.777,-1.853c0.513,-1.157 2.087,-6.299 2.603,-8.5c0.323,-1.374 0.478,-1.308 1.212,0.518c0.781,1.943 3.288,7.186 4.557,9.526c0.762,1.407 2.224,3.928 2.746,4.738c2.868,4.44 4.049,6.178 4.2,6.178c0.295,0 6.409,-9.495 6.409,-9.954c0,-0.053 0.354,-0.684 0.788,-1.404c0.698,-1.16 2.062,-3.883 2.975,-5.942c0.851,-1.917 1.765,-4.088 1.995,-4.737c0.141,-0.397 0.335,-0.906 0.431,-1.133c0.8,-1.877 2.103,-6.515 2.748,-9.783c0.931,-4.713 0.975,-5.97 0.908,-25.848l-0.063,-18.742l-16.108,-0.053c-15.942,-0.052 -16.111,-0.049 -16.33,0.36m27.29,22.348c0,18.624 0.033,17.957 -1.14,22.861c-1.534,6.414 -5.338,14.737 -9.182,20.087c-0.866,1.206 -0.841,1.215 -2.062,-0.687c-0.522,-0.815 -1.161,-1.806 -1.419,-2.202c-0.982,-1.509 -2.963,-5.327 -4.208,-8.11c-2.032,-4.542 -3.506,-9.713 -4.031,-14.132c-0.32,-2.703 -0.472,-34.779 -0.166,-35.085c0.076,-0.076 5.105,-0.115 11.173,-0.086l11.035,0.054l0,17.3m-21.007,-16.375c-0.109,0.176 0.848,2.17 1.335,2.782c0.09,0.113 0.503,0.854 0.918,1.648c0.415,0.792 0.964,1.812 1.22,2.265c0.256,0.453 0.797,1.427 1.203,2.162c0.406,0.737 1.679,3.002 2.829,5.033c2.01,3.551 2.696,4.778 3.923,7.016c0.31,0.567 0.855,1.521 1.21,2.121c0.354,0.599 0.645,1.137 0.645,1.195c0,0.089 1.852,3.421 2.794,5.026c0.166,0.283 0.695,1.232 1.174,2.108c0.48,0.876 0.95,1.595 1.044,1.596c0.094,0.001 -0.012,-0.299 -0.236,-0.666c-0.379,-0.625 -1.836,-3.237 -3.13,-5.613c-0.308,-0.566 -0.744,-1.354 -0.969,-1.751c-2.77,-4.887 -3.759,-6.647 -4.861,-8.65c-0.343,-0.623 -1.455,-2.616 -2.47,-4.428c-1.016,-1.812 -2.17,-3.897 -2.565,-4.634c-0.396,-0.736 -0.789,-1.432 -0.875,-1.545c-0.909,-1.203 -3.08,-5.542 -2.846,-5.689c0.187,-0.12 0.196,-0.175 0.029,-0.177c-0.136,-0.002 -0.303,0.088 -0.372,0.201m10.194,-0.052c8.831,0.051 9.599,0.083 9.862,0.414c0.27,0.34 0.278,0.339 0.155,-0.017c-0.072,-0.208 -0.131,-0.416 -0.131,-0.463c0,-0.048 -4.379,-0.065 -9.731,-0.037l-9.732,0.049l9.577,0.054m-17.139,8.878l0.471,0.134l-0.013,17.095c-0.014,18.975 -0.041,19.409 -1.526,24.698c-1.382,4.923 -4.859,12.435 -7.829,16.913c-0.236,0.357 -0.662,1.032 -0.945,1.5c-0.283,0.468 -0.621,0.853 -0.751,0.856c-0.218,0.005 -2.07,-2.698 -3.172,-4.628c-2.659,-4.662 -4.126,-7.76 -5.224,-11.026c-0.363,-1.081 -0.715,-2.053 -0.782,-2.163c-0.227,-0.368 -1.382,-5.33 -1.7,-7.305c-0.329,-2.043 -0.497,-35.793 -0.179,-36.111c0.177,-0.177 21.025,-0.14 21.65,0.037m-20.619,0.991c-0.076,0.077 0.126,0.611 0.45,1.186c0.323,0.576 0.94,1.696 1.37,2.489c0.43,0.792 0.953,1.687 1.162,1.988c0.21,0.301 0.381,0.599 0.381,0.664c0,0.064 0.417,0.822 0.926,1.684c0.51,0.862 0.927,1.615 0.927,1.673c0,0.058 0.172,0.352 0.381,0.652c0.21,0.301 0.78,1.289 1.267,2.195c0.487,0.906 1.038,1.879 1.224,2.162c0.186,0.284 0.517,0.863 0.737,1.288c0.219,0.424 0.47,0.772 0.557,0.772c0.088,0 0.159,0.141 0.159,0.313c0,0.173 0.218,0.659 0.483,1.082c0.419,0.665 1.144,1.934 2.998,5.247c0.238,0.425 0.627,1.12 0.865,1.545c0.238,0.425 0.596,1.05 0.796,1.39c0.201,0.34 0.642,1.128 0.982,1.751c0.34,0.623 1.103,1.967 1.697,2.986c0.593,1.02 1.308,2.306 1.589,2.858c0.987,1.943 0.991,1.859 0.991,-16.719l0,-17.238l-9.901,-0.054c-5.446,-0.029 -9.964,0.009 -10.041,0.086m27.519,15.054c0.057,6.717 0.166,10.495 0.316,10.967l0.229,0.721l-0.113,-0.824c-0.255,-1.85 -0.323,-20.54 -0.074,-20.387c0.184,0.114 0.186,0.046 0.008,-0.287c-0.128,-0.24 -0.283,-0.437 -0.343,-0.437c-0.06,0 -0.07,4.611 -0.023,10.247m1.128,-8.187c0.647,1.242 0.604,1.166 3.189,5.601c0.992,1.7 1.803,3.119 1.803,3.153c0,0.033 0.37,0.67 0.823,1.416c0.454,0.746 0.827,1.427 0.829,1.515c0.002,0.087 0.189,0.389 0.415,0.673l0.411,0.515l-0.224,-0.618c-0.123,-0.34 -0.341,-0.756 -0.486,-0.927c-0.144,-0.17 -1.494,-2.487 -3,-5.149c-3.711,-6.561 -3.636,-6.434 -4.016,-6.9c-0.184,-0.226 -0.07,0.098 0.256,0.721m-35.216,1.945c0.192,0.192 0.034,33.912 -0.165,35.334c-0.322,2.282 -1.127,6.177 -1.427,6.899c-0.094,0.227 -0.436,1.247 -0.76,2.266c-0.324,1.019 -0.658,1.885 -0.743,1.922c-0.085,0.038 -0.155,0.194 -0.155,0.347c0,0.619 -2.713,6.429 -3.99,8.544c-0.239,0.396 -0.575,0.979 -0.745,1.295c-0.676,1.251 -2.92,4.677 -3.063,4.677c-0.084,0 -0.627,-0.717 -1.206,-1.595c-5.083,-7.702 -8.613,-16.371 -9.771,-23.998c-0.145,-0.962 -0.249,-7.563 -0.292,-18.625l-0.066,-17.134l0.762,-0.063c1.323,-0.11 21.502,0.012 21.621,0.131m-21.168,1.176c0,0.13 0.404,0.941 0.897,1.802c0.493,0.861 1.131,1.982 1.418,2.492c3.472,6.171 6.416,11.376 8.448,14.931c1.359,2.379 2.751,4.836 3.095,5.458c0.342,0.624 1.195,2.153 1.894,3.399c0.699,1.246 1.331,2.405 1.406,2.575c0.073,0.169 0.365,0.679 0.648,1.132c0.284,0.453 0.761,1.287 1.061,1.854c1.427,2.688 1.413,2.85 1.484,-16.487l0.064,-17.394l-10.207,0c-7.565,0 -10.208,0.062 -10.208,0.238m20.144,17.053c-0.062,16.931 -0.137,18.716 -0.714,17.191c-0.082,-0.217 -0.839,-1.6 -1.68,-3.072c-0.842,-1.473 -1.86,-3.281 -2.262,-4.017c-0.401,-0.737 -1.673,-3.007 -2.825,-5.046c-2.088,-3.693 -2.701,-4.784 -3.731,-6.642c-0.299,-0.538 -0.611,-1.071 -0.694,-1.184c-0.083,-0.113 -0.381,-0.623 -0.662,-1.133c-0.281,-0.51 -1.761,-3.151 -3.289,-5.87c-3.934,-7.002 -3.875,-6.894 -3.875,-7.113c0,-0.125 3.679,-0.199 9.898,-0.199l9.898,0l-0.064,17.085m7.511,-2.561c0.101,12.038 0.76,15.982 3.753,22.453c2.752,5.952 5.808,11.412 6.385,11.41c0.669,-0.003 7.043,-12.104 7.153,-13.579c0.019,-0.241 -2.521,-4.968 -3.541,-6.591c-0.695,-1.105 -1.449,-2.497 -1.449,-2.675c0,-0.114 -0.093,-0.208 -0.206,-0.208c-0.113,0 -0.206,-0.098 -0.206,-0.216c0,-0.119 -0.308,-0.698 -0.684,-1.287c-0.375,-0.59 -0.962,-1.582 -1.304,-2.205c-0.341,-0.623 -1.364,-2.43 -2.272,-4.016c-0.909,-1.586 -1.886,-3.301 -2.171,-3.811c-0.285,-0.509 -1.009,-1.76 -1.609,-2.78c-1.279,-2.174 -2.124,-3.635 -2.98,-5.152c-0.341,-0.604 -0.694,-1.173 -0.787,-1.265c-0.092,-0.092 -0.129,4.372 -0.082,9.922m36.924,-3.248c0.415,0.765 1.011,1.808 1.325,2.318c0.313,0.51 0.956,1.599 1.428,2.42c0.472,0.821 0.907,1.493 0.965,1.493c0.115,0 -0.892,-1.894 -1.947,-3.665c-0.357,-0.6 -0.649,-1.127 -0.649,-1.172c0,-0.146 -1.691,-2.783 -1.785,-2.783c-0.05,0 0.248,0.625 0.663,1.389m10.551,1.258c-0.081,1.173 -0.254,2.262 -0.385,2.42c-0.186,0.224 -0.169,0.288 0.077,0.288c0.338,0 0.672,-2.628 0.525,-4.12c-0.04,-0.396 -0.137,0.239 -0.217,1.412m-1.396,0.915c-0.001,0.285 0.643,1.424 0.746,1.32c0.055,-0.055 -0.091,-0.411 -0.323,-0.792c-0.232,-0.381 -0.423,-0.618 -0.423,-0.528m-73.678,11.112c0.072,8.781 0.135,10.521 0.42,11.482c0.231,0.784 0.306,0.911 0.245,0.413c-0.048,-0.397 -0.188,-1.509 -0.309,-2.472c-0.135,-1.074 -0.198,-5.123 -0.162,-10.479l0.059,-8.728l1.003,1.786c0.551,0.983 1.041,1.749 1.088,1.701c0.154,-0.153 -2.073,-4.052 -2.314,-4.052c-0.062,0 -0.076,4.657 -0.03,10.349m68.631,-6.23c0.176,0.34 0.366,0.618 0.423,0.618c0.057,0 -0.041,-0.278 -0.217,-0.618c-0.175,-0.34 -0.365,-0.618 -0.422,-0.618c-0.057,0 0.041,0.278 0.216,0.618m-12.574,0.309c0.151,1.215 1.867,6.618 2.379,7.495c0.351,0.6 0.215,0.075 -0.429,-1.663c-0.349,-0.942 -0.954,-2.825 -1.344,-4.184c-0.39,-1.36 -0.663,-2.101 -0.606,-1.648m-53.311,0.528c0.23,0.389 1.002,1.755 1.716,3.035c0.713,1.28 1.342,2.282 1.398,2.225c0.057,-0.056 -0.477,-1.103 -1.186,-2.327c-0.709,-1.224 -1.42,-2.478 -1.581,-2.788c-0.161,-0.309 -0.398,-0.628 -0.528,-0.708c-0.13,-0.081 -0.049,0.173 0.181,0.563m66.709,0.605c0.176,0.34 0.366,0.618 0.423,0.618c0.056,0 -0.041,-0.278 -0.217,-0.618c-0.176,-0.341 -0.366,-0.619 -0.422,-0.619c-0.057,0 0.04,0.278 0.216,0.619m1.257,2.213c0.419,0.765 0.937,1.686 1.151,2.046l0.389,0.656l-0.705,1.826c-1.555,4.025 -5.949,11.97 -6.545,11.832c-0.225,-0.053 -0.231,-0.013 -0.03,0.192c0.14,0.142 0.287,0.218 0.329,0.169c0.314,-0.376 1.823,-2.728 1.932,-3.01c0.074,-0.195 0.504,-0.961 0.955,-1.703c0.949,-1.561 2.896,-5.616 3.739,-7.788c0.659,-1.694 0.716,-1.433 -0.889,-4.117c-1.124,-1.88 -1.338,-1.948 -0.326,-0.103m-64.3,3.657c0.296,0.566 0.701,1.307 0.899,1.647c0.199,0.34 1.188,2.077 2.197,3.86c1.01,1.782 1.875,3.203 1.921,3.157c0.109,-0.11 -4.854,-8.976 -5.253,-9.386c-0.166,-0.169 -0.06,0.155 0.236,0.722m52.23,1.024c0,0.217 2.004,4.703 2.487,5.566c2.119,3.787 3.405,5.87 3.624,5.87c0.064,0 -0.032,-0.225 -0.212,-0.499c-1.523,-2.324 -4.048,-7.042 -4.969,-9.284c-0.571,-1.39 -0.93,-2.029 -0.93,-1.653m-46.682,8.81c4.927,8.622 5.12,9.006 4.89,9.668c-0.301,0.862 -0.27,0.994 0.086,0.373c0.517,-0.906 0.477,-1 -2.859,-6.797c-0.294,-0.51 -0.929,-1.645 -1.412,-2.523c-0.483,-0.878 -0.952,-1.596 -1.042,-1.596c-0.089,0 0.063,0.394 0.337,0.875m-11.171,2.041c-0.026,0.425 1.382,5.305 1.653,5.731c0.252,0.395 0.197,0.161 -0.61,-2.572c-0.334,-1.132 -0.701,-2.383 -0.815,-2.78c-0.114,-0.397 -0.216,-0.567 -0.228,-0.379m1.969,6.637c0.301,1.399 3.877,8.951 4.122,8.707c0.048,-0.05 -0.333,-0.853 -0.849,-1.786c-0.516,-0.932 -0.938,-1.739 -0.938,-1.792c0,-0.124 -1.565,-3.821 -2.074,-4.9c-0.31,-0.656 -0.363,-0.702 -0.261,-0.229m13.539,2.311c-0.713,2.081 -2.782,6.058 -5.446,10.47c-0.269,0.446 -0.386,0.747 -0.26,0.669c0.889,-0.55 6.342,-11.026 5.945,-11.423c-0.058,-0.058 -0.166,0.07 -0.239,0.284m-9.204,7.033c0.352,0.951 2.943,4.812 3.144,4.688c0.101,-0.062 -0.022,-0.32 -0.275,-0.573c-0.253,-0.253 -0.992,-1.363 -1.642,-2.468c-1.122,-1.908 -1.523,-2.446 -1.227,-1.647m59.273,45.286c-6.674,0.993 -10.151,2.888 -12.099,6.593c-1.935,3.683 -2.045,10.048 -0.238,13.726c0.564,1.147 1.532,2.473 1.691,2.315c0.06,-0.061 -0.069,-0.318 -0.287,-0.573c-1.667,-1.95 -2.396,-4.516 -2.384,-8.392c0.035,-10.979 7.133,-14.7 25.468,-13.354c1.406,0.103 1.629,0.089 0.927,-0.059c-0.961,-0.202 -11.99,-0.418 -13.078,-0.256m14.314,0.538c0.057,0.057 1.308,0.311 2.78,0.565c3.291,0.57 2.948,0.088 3.009,4.225l0.052,3.502l-2.56,0l-2.561,0l-0.126,-1.035c-0.248,-2.03 -2.867,-5.309 -3.631,-4.545c-0.063,0.064 0.21,0.252 0.607,0.418c1.452,0.607 2.62,2.393 2.79,4.268l0.109,1.202l2.73,0c3.269,0 2.981,0.375 2.977,-3.878c-0.004,-3.868 0.084,-3.698 -2.173,-4.168c-1.983,-0.413 -4.166,-0.715 -4.003,-0.554m-132.844,1.066c0,1.038 -0.106,0.986 2.56,1.248c3.287,0.323 3.31,0.393 3.31,10.469c0,4.623 0.06,8.191 0.134,7.93c0.226,-0.803 0.193,-15.439 -0.037,-16.266c-0.411,-1.482 -1.805,-2.291 -4.371,-2.541l-1.39,-0.136l0,-0.658l0,-0.659l16.528,0.025c14.485,0.023 16.652,0.067 17.527,0.353c1.346,0.44 2.526,1.25 2.915,2.001c0.327,0.634 0.514,0.783 0.514,0.409c0,-0.578 -1.734,-2.049 -2.947,-2.501l-1.274,-0.475l-16.735,-0.061l-16.734,-0.062l0,0.924m40.78,0.085l0,1l1.802,0.219c0.991,0.121 1.832,0.191 1.868,0.156c0.118,-0.115 -2.023,-0.517 -2.753,-0.517c-0.692,0 -0.711,-0.022 -0.711,-0.823l0,-0.824l13.028,0l-0.15,3.759c-0.083,2.067 -0.103,3.712 -0.045,3.655c0.085,-0.083 0.332,-4.046 0.43,-6.899l0.022,-0.618l-6.746,-0.055l-6.745,-0.054l0,1.001m23.973,-0.706c-0.515,1.343 0.016,1.776 2.493,2.034l1.03,0.108l-0.824,-0.273c-0.453,-0.15 -1.171,-0.28 -1.596,-0.289c-0.761,-0.015 -0.773,-0.027 -0.773,-0.839l0,-0.824l12.755,0l0.067,2.111l0.067,2.111l0.043,-2.214l0.044,-2.214l-6.598,0c-5.475,0 -6.616,0.049 -6.708,0.289m19.979,-0.002c-0.061,0.161 -0.082,0.601 -0.046,0.98l0.067,0.689l1.569,0.239c2.512,0.382 3.199,0.925 3.663,2.896c0.16,0.677 0.186,0.703 0.204,0.206c0.068,-1.876 -1.396,-3.076 -4.171,-3.418c-1.09,-0.135 -1.108,-0.162 -0.977,-1.467c0.013,-0.134 3.059,-0.206 8.683,-0.206l8.663,0l-0.064,0.771c-0.063,0.756 -0.084,0.773 -1.088,0.916c-1.75,0.249 -2.638,0.698 -3.255,1.649l-0.561,0.865l0,8.414c0,9.202 -0.017,9.057 1.229,10.106c0.384,0.324 1.004,0.578 1.604,0.66c0.537,0.073 1.163,0.176 1.389,0.228c0.32,0.075 0.343,0.053 0.103,-0.094c-0.17,-0.105 -0.74,-0.253 -1.266,-0.328c-2.729,-0.394 -2.853,-0.862 -2.853,-10.751c0,-9.926 0.002,-9.929 3.258,-10.413c1.586,-0.235 1.817,-0.465 1.65,-1.642l-0.068,-0.484l-8.81,-0.054c-7.444,-0.045 -8.828,-0.008 -8.923,0.238m57.42,0.689l0.063,0.977l1.133,0.149c0.623,0.083 1.457,0.196 1.854,0.251c0.52,0.073 0.626,0.046 0.381,-0.095c-0.187,-0.107 -0.975,-0.266 -1.751,-0.352l-1.411,-0.156l-0.064,-0.772l-0.064,-0.772l17.094,0l0.083,0.669c0.081,0.659 0.083,0.658 0.116,-0.103l0.033,-0.772l-8.765,0l-8.764,0l0.062,0.976m20.35,-0.061c0,0.904 0.013,0.922 0.772,1.041c0.425,0.066 1.045,0.164 1.377,0.217c2.334,0.374 1.651,2.346 -1.566,4.527c-0.83,0.563 -1.556,1.074 -1.612,1.136c-0.208,0.227 -4.183,3.067 -4.406,3.147c-0.126,0.045 -0.183,0.131 -0.126,0.191c0.207,0.22 8.335,-5.723 8.889,-6.5c1.028,-1.443 0.354,-2.458 -1.898,-2.855c-1.212,-0.213 -1.224,-0.222 -1.224,-0.914l0,-0.699l16.477,0l0,0.707c0,0.777 0.02,0.765 -1.921,1.15c-0.661,0.131 -1.155,0.285 -1.099,0.341c0.057,0.057 0.644,-0.004 1.305,-0.135c2.021,-0.401 1.95,-0.351 1.88,-1.308l-0.062,-0.858l-8.393,-0.054l-8.393,-0.054l0,0.92m-41.24,0.676c0.371,0.045 0.927,0.045 1.236,-0.002c0.31,-0.047 0.006,-0.085 -0.673,-0.084c-0.68,0.002 -0.933,0.04 -0.563,0.086m2.983,-0.002c0.312,0.047 0.822,0.047 1.133,0c0.311,-0.047 0.057,-0.086 -0.567,-0.086c-0.623,0 -0.878,0.039 -0.566,0.086m-5.715,0.347c-2.648,0.84 -5.295,3.606 -5.243,5.478c0.004,0.17 0.23,-0.224 0.5,-0.874c1.093,-2.632 2.362,-3.716 5.258,-4.495c0.736,-0.199 1.107,-0.363 0.823,-0.365c-0.283,-0.003 -0.885,0.113 -1.338,0.256m9.371,0.127c0.849,0.206 1.577,0.341 1.617,0.302c0.129,-0.13 -2.093,-0.718 -2.632,-0.696c-0.292,0.012 0.166,0.189 1.015,0.394m30.389,-0.186c-2.676,0.39 -3.506,1.036 -3.824,2.98c-0.259,1.583 -0.264,7.85 -0.006,8.01c0.179,0.11 2.275,-1.243 2.275,-1.468c0,-0.123 -0.355,0.088 -1.152,0.687c-0.351,0.262 -0.705,0.477 -0.787,0.477c-0.082,0 -0.12,-1.983 -0.083,-4.407c0.082,-5.482 0.176,-5.643 3.519,-5.997c0.766,-0.082 1.443,-0.23 1.505,-0.33c0.062,-0.1 0.037,-0.17 -0.054,-0.156c-0.092,0.014 -0.719,0.105 -1.393,0.204m-137.179,0.38c5.798,0.108 6,0.126 6.898,0.605c0.65,0.346 0.842,0.392 0.645,0.155c-0.66,-0.794 -2.092,-0.96 -7.941,-0.915l-5.575,0.043l5.973,0.112m-7.467,0.678c-0.237,0.255 -0.49,0.741 -0.56,1.081c-0.123,0.59 -0.114,0.586 0.199,-0.103c0.18,-0.397 0.532,-0.881 0.782,-1.077c0.251,-0.195 0.356,-0.357 0.233,-0.36c-0.121,-0.003 -0.415,0.204 -0.654,0.459m31.34,-0.194c1.519,0.946 1.656,1.646 1.376,7.033c-0.284,5.477 -0.286,9.463 -0.003,10.481c0.327,1.175 0.415,0.81 0.17,-0.701c-0.149,-0.924 -0.149,-3.297 0.002,-7.814c0.136,-4.058 0.146,-6.797 0.026,-7.312c-0.192,-0.822 -1.201,-1.969 -1.711,-1.945c-0.139,0.007 -0.077,0.123 0.14,0.258m24.157,0.327c1.29,0.935 1.504,1.72 1.503,5.535c-0.002,10.943 -0.744,13.111 -5.028,14.694c-0.818,0.301 -0.889,0.358 -0.326,0.258c2.576,-0.454 4.621,-2.574 5.129,-5.316c0.37,-2 0.547,-12.252 0.231,-13.379c-0.259,-0.926 -1.543,-2.389 -2.097,-2.389c-0.13,0 0.135,0.269 0.588,0.597m77.434,0.078c0.89,1.014 0.931,1.517 0.854,10.669l-0.065,7.74l-0.566,0.742c-0.362,0.475 -0.954,0.895 -1.647,1.171c-0.867,0.344 -0.939,0.404 -0.362,0.301c2.803,-0.5 2.914,-0.936 2.841,-11.237c-0.065,-9.274 -0.062,-9.25 -1.273,-9.898c-0.325,-0.173 -0.27,-0.044 0.218,0.512m27.975,-0.373c-0.796,0.365 -0.222,0.371 0.722,0.008c0.467,-0.181 0.576,-0.28 0.309,-0.285c-0.227,-0.003 -0.691,0.121 -1.031,0.277m-2.166,0.793c-1.38,0.569 -3.243,1.605 -4.63,2.577c-2.417,1.693 -4.84,3.609 -4.84,3.827c0,0.194 4.1,3.891 5.956,5.37c1.367,1.09 -0.081,-0.32 -2.761,-2.689c-1.647,-1.456 -2.97,-2.715 -2.94,-2.799c0.06,-0.17 1.319,-1.096 4.389,-3.229c1.889,-1.313 2.692,-1.765 5.448,-3.07c1.235,-0.584 0.809,-0.575 -0.622,0.013m-143.344,-0.097c0,0.096 0.2,0.351 0.444,0.567l0.444,0.392l-0.365,-0.566c-0.375,-0.584 -0.523,-0.695 -0.523,-0.393m8.738,0.306c0.065,0.208 0.126,1.089 0.136,1.957c0.015,1.299 0.052,1.47 0.211,0.962c0.21,-0.677 0.048,-2.497 -0.267,-2.987c-0.159,-0.248 -0.175,-0.234 -0.08,0.068m-7.742,2.276c0.18,3.558 -1.494,4.775 -6.969,5.07l-3.192,0.172l3.295,-0.068c3.665,-0.076 4.462,-0.255 5.645,-1.268c1.269,-1.086 2.005,-3.873 1.338,-5.066c-0.129,-0.229 -0.168,0.157 -0.117,1.16m47.685,1.981c0,1.076 0.035,1.517 0.077,0.979c0.042,-0.538 0.042,-1.419 0,-1.957c-0.042,-0.538 -0.077,-0.098 -0.077,0.978m-40.414,0.252c-0.533,1.1 -1.477,1.885 -3.101,2.579c-1.046,0.447 -0.681,0.507 0.438,0.072c1.362,-0.53 3.429,-2.684 3.208,-3.345c-0.047,-0.141 -0.293,0.172 -0.545,0.694m16.172,1.859c-0.395,6.857 0.015,11.689 0.992,11.689c0.064,0 -0.094,-0.394 -0.351,-0.876c-0.459,-0.859 -0.467,-0.989 -0.429,-7.002c0.042,-6.61 -0.004,-7.429 -0.212,-3.811m59.454,-1.357c-0.651,3.822 -0.071,9.702 1.177,11.913c0.819,1.451 2.862,3.162 3.516,2.944c0.125,-0.042 -0.176,-0.286 -0.67,-0.543c-3.304,-1.718 -4.726,-6.527 -3.902,-13.189c0.252,-2.038 0.167,-2.821 -0.121,-1.125m-99.958,2.383c0,0.087 1.089,0.151 2.42,0.142c1.332,-0.009 2.328,-0.05 2.214,-0.092c-0.422,-0.157 -4.634,-0.201 -4.634,-0.05m18.371,0.436c-1.356,0.295 -1.48,0.639 -0.246,0.681c0.872,0.03 0.884,0.023 0.206,-0.114l-0.721,-0.145l0.927,-0.167c0.972,-0.175 1.846,-0.533 1.236,-0.506c-0.17,0.007 -0.801,0.12 -1.402,0.251m46.183,4.562c0.001,2.719 0.03,3.803 0.066,2.409c0.035,-1.394 0.035,-3.619 0,-4.943c-0.036,-1.324 -0.066,-0.184 -0.066,2.534m-43.443,-3.427c1.133,0.21 2.092,0.356 2.131,0.324c0.16,-0.133 -1.606,-0.505 -2.851,-0.602c-1.168,-0.09 -1.076,-0.054 0.72,0.278m2.884,0.783c1.495,0.788 2.158,1.815 2.374,3.675l0.144,1.235l0.028,-1.04c0.049,-1.833 -1.669,-4.261 -2.976,-4.204c-0.104,0.005 0.09,0.155 0.43,0.334m-23.995,0.225c0,0.084 1.923,0.13 4.274,0.102c8.06,-0.099 8.799,-0.169 2.266,-0.213c-3.597,-0.024 -6.54,0.026 -6.54,0.111m14.109,0.195c1.992,0.264 3.566,1.101 4.187,2.224c0.182,0.329 0.23,0.344 0.235,0.076c0.017,-0.953 -2.793,-2.492 -4.408,-2.413l-0.632,0.031l0.618,0.082m129.022,0.782c-1.802,1.306 -1.636,0.965 -1.635,3.377c0.002,3.779 0.821,5.149 3.397,5.678c0.367,0.076 0.207,-0.04 -0.396,-0.286c-2.198,-0.898 -2.796,-2.085 -2.796,-5.55c0,-1.952 0.072,-2.096 1.485,-2.974c1.074,-0.666 1.565,-0.473 3.465,1.357c3.167,3.054 4.936,4.66 4.936,4.484c0,-0.094 -0.348,-0.473 -0.773,-0.84c-0.424,-0.367 -1.653,-1.512 -2.729,-2.544c-3.708,-3.558 -3.745,-3.578 -4.954,-2.702m-143.263,2.061c-0.001,1.019 0.034,1.462 0.077,0.984c0.044,-0.478 0.044,-1.312 0.001,-1.854c-0.043,-0.541 -0.078,-0.15 -0.078,0.87m156.681,-1.003c0.046,0.123 0.779,0.809 1.628,1.525c0.85,0.716 1.939,1.675 2.42,2.132c0.482,0.456 0.875,0.755 0.875,0.664c0,-0.173 -0.908,-1.016 -3.482,-3.231c-0.839,-0.722 -1.487,-1.213 -1.441,-1.09m-35.741,0.74c-0.147,0.082 -0.329,0.701 -0.405,1.374c-0.276,2.435 -1.471,4.117 -3.757,5.286c-0.549,0.281 -0.768,0.451 -0.484,0.377c2.321,-0.603 4.179,-2.951 4.46,-5.636l0.129,-1.241l5.756,0l-0.146,0.97c-0.174,1.155 -0.638,2.394 -1.225,3.272c-0.618,0.923 -1.723,2.142 -1.94,2.142c-0.103,0 -0.315,0.155 -0.47,0.343c-0.39,0.473 0.54,-0.01 1.216,-0.632c1.767,-1.625 3.445,-5.832 2.475,-6.204c-0.462,-0.177 -5.306,-0.221 -5.609,-0.051m-102.17,1.776c-0.002,2.7 -1.687,4.503 -4.838,5.177l-0.927,0.199l1.03,-0.1c3.283,-0.319 6.302,-4.403 4.888,-6.614c-0.083,-0.131 -0.152,0.472 -0.153,1.338m7.762,1.004c-0.129,3.097 -2.805,5.403 -7.235,6.236c-0.836,0.157 -23.091,0.304 -31.676,0.209c-0.771,-0.009 -0.266,-1.445 0.514,-1.465c0.425,-0.012 1.004,-0.1 1.288,-0.196c0.335,-0.115 0.083,-0.136 -0.721,-0.059c-1.491,0.14 -1.591,0.218 -1.508,1.18l0.066,0.754l15.756,0.013c17.29,0.013 17.248,0.016 19.852,-1.295c2.337,-1.177 3.948,-3.461 3.779,-5.357l-0.08,-0.89l-0.035,0.87m-26.298,1.799c0.173,1.633 1.54,2.624 3.543,2.567c0.329,-0.009 0.014,-0.139 -0.733,-0.301c-1.249,-0.271 -2.283,-0.755 -2.303,-1.078c-0.005,-0.082 -0.146,-0.613 -0.312,-1.179l-0.304,-1.03l0.109,1.021m76.955,-0.665c-0.123,1.563 -1.101,2.531 -2.968,2.937c-0.83,0.18 -1.064,0.284 -0.664,0.294c2.081,0.051 4.043,-1.573 3.752,-3.104c-0.055,-0.291 -0.103,-0.341 -0.12,-0.127m84.831,0.086c0.501,0.794 4.152,3.262 4.585,3.098c0.138,-0.053 -0.072,-0.248 -0.469,-0.434c-1.202,-0.562 -2.196,-1.214 -3.024,-1.983c-1.035,-0.96 -1.418,-1.2 -1.092,-0.681m-9.054,1.538c0.629,0.61 1.878,1.781 2.774,2.603l1.63,1.493l5.721,0c3.148,0 5.722,-0.081 5.722,-0.179c0,-0.098 -2.571,-0.186 -5.715,-0.195l-5.715,-0.016l-0.896,-0.783c-0.493,-0.431 -1.327,-1.178 -1.854,-1.66c-1.681,-1.537 -1.979,-1.797 -2.399,-2.087c-0.227,-0.157 0.103,0.215 0.732,0.824m-160.515,-0.128c-0.198,0.414 -0.755,0.982 -1.325,1.349c-0.628,0.406 -0.796,0.585 -0.468,0.496c0.606,-0.162 2.005,-1.447 2.181,-2.003c0.217,-0.682 -0.036,-0.579 -0.388,0.158m41.46,-0.565c0.006,1.207 2.708,3.376 5.217,4.188c1.799,0.582 6.337,1.208 5.664,0.781c-0.151,-0.095 -0.673,-0.176 -1.159,-0.177c-3.623,-0.013 -8.19,-2.11 -9.192,-4.22c-0.327,-0.69 -0.532,-0.91 -0.53,-0.572m30.906,0.01c-0.021,0.418 0.589,1.483 0.848,1.483c0.136,0 0.096,-0.151 -0.097,-0.364c-0.182,-0.201 -0.422,-0.595 -0.534,-0.876c-0.112,-0.281 -0.21,-0.39 -0.217,-0.243m-22.844,0.866c0.138,0.431 1.967,1.381 2.956,1.537c0.705,0.111 0.649,0.067 -0.391,-0.305c-0.668,-0.238 -1.541,-0.683 -1.939,-0.987c-0.452,-0.344 -0.687,-0.436 -0.626,-0.245m53.313,-0.021c0,0.591 3.95,2.795 5.402,3.014c0.39,0.059 0.108,-0.104 -0.671,-0.387c-1.848,-0.672 -2.613,-1.087 -3.753,-2.037c-0.538,-0.447 -0.978,-0.713 -0.978,-0.59m-37.938,0.927c-0.894,1.231 -3.519,2.461 -6.241,2.926l-1.648,0.28l1.458,-0.098c2.28,-0.153 4.326,-0.986 5.982,-2.436c1.024,-0.897 1.069,-0.858 1.154,0.996l0.057,1.236l5.856,0.055c3.869,0.036 5.93,-0.019 6.072,-0.161c0.15,-0.15 -1.604,-0.209 -5.753,-0.196l-5.969,0.018l-0.06,-1.557c-0.065,-1.672 -0.282,-1.925 -0.908,-1.063m8.934,0.131c0.19,0.111 0.792,0.248 1.339,0.303l0.993,0.102l-1.133,-0.301c-1.329,-0.352 -1.677,-0.382 -1.199,-0.104m5.607,0.485c-0.059,0.154 -0.078,0.732 -0.043,1.284l0.064,1.004l17.918,0l0.038,-0.515c0.021,-0.288 -0.008,-0.358 -0.066,-0.159c-0.096,0.329 -15.346,0.683 -17.324,0.402c-0.614,-0.087 -0.706,-1.812 -0.103,-1.934c0.339,-0.068 0.339,-0.081 -0.008,-0.217c-0.231,-0.091 -0.409,-0.04 -0.476,0.135m-65.125,0.072c0.985,0.038 2.654,0.039 3.708,0.001c1.053,-0.038 0.247,-0.069 -1.792,-0.069c-2.039,0 -2.901,0.031 -1.916,0.068m63.142,0.619c0.119,1.197 0.218,1.283 0.236,0.207c0.009,-0.538 -0.057,-0.979 -0.148,-0.979c-0.091,0 -0.13,0.348 -0.088,0.772m44.328,-0.527c-1.073,0.232 -5.503,0.301 -7.312,0.115l-1.235,-0.127l1.441,0.311c1.749,0.376 6.3,0.257 7.724,-0.204c1.059,-0.342 0.749,-0.389 -0.618,-0.095m7.535,0.097c-3.936,2.131 -13.363,2.787 -19.892,1.384c-0.384,-0.083 -0.44,-0.059 -0.22,0.095c1.034,0.723 11.616,1.07 14.74,0.482c2.224,-0.418 5.685,-1.632 5.97,-2.094c0.166,-0.268 0.125,-0.258 -0.598,0.133m-74.618,0.016c0.655,0.042 1.674,0.042 2.265,0c0.591,-0.042 0.054,-0.075 -1.192,-0.074c-1.246,0 -1.729,0.034 -1.073,0.074m81.635,0.002c-0.176,0.287 -0.22,1.601 -0.062,1.857c0.267,0.432 18.79,0.363 18.956,-0.071c0.191,-0.498 0.153,-0.571 -0.164,-0.309c-0.254,0.211 -5.342,0.273 -18.299,0.224c-0.282,-0.001 -0.36,-0.178 -0.36,-0.815l0,-0.812l1.082,-0.076l1.081,-0.076l-1.07,-0.038c-0.587,-0.021 -1.112,0.032 -1.164,0.116m17.857,0.047c0.436,0.084 0.885,0.282 0.998,0.439c0.156,0.221 0.175,0.199 0.081,-0.09c-0.068,-0.208 -0.123,-0.416 -0.123,-0.464c0,-0.047 -0.394,-0.075 -0.875,-0.062l-0.875,0.023l0.794,0.154m20.934,-0.121c0,0.044 0.279,0.12 0.619,0.17c0.339,0.05 0.617,0.014 0.617,-0.08c0,-0.093 -0.278,-0.17 -0.617,-0.17c-0.34,0 -0.619,0.036 -0.619,0.08m-120.949,2.543c0.481,0.043 1.269,0.043 1.75,0c0.482,-0.044 0.088,-0.079 -0.875,-0.079c-0.963,0 -1.357,0.035 -0.875,0.079" style="fill:#9a9a9a;"/><path id="path2" d="M112.683,40.574c0,0.117 2.841,5.236 3.087,5.561c0.086,0.113 0.479,0.809 0.875,1.545c0.395,0.737 1.549,2.822 2.565,4.634c1.015,1.812 2.127,3.805 2.47,4.428c1.099,1.997 2.176,3.913 4.861,8.65c0.225,0.397 0.711,1.278 1.081,1.957c0.37,0.68 1.469,2.663 2.443,4.406c0.975,1.743 1.772,3.268 1.772,3.388c0,0.142 0.07,0.148 0.203,0.016c0.433,-0.434 0.567,-5.285 0.543,-19.652l-0.025,-14.933l-9.937,-0.053c-5.466,-0.03 -9.938,-0.006 -9.938,0.053m0.004,23.909c0.006,11.835 0.732,16.424 3.586,22.638c0.156,0.34 0.518,1.174 0.804,1.854c1.181,2.805 5.181,9.873 5.481,9.687c0.68,-0.421 5.107,-8.752 6.324,-11.901l0.696,-1.804l-1.466,-2.625c-1.409,-2.523 -3.378,-5.909 -5.267,-9.058c-0.492,-0.82 -0.894,-1.534 -0.894,-1.587c0,-0.054 -0.292,-0.588 -0.648,-1.188c-0.356,-0.599 -0.927,-1.6 -1.267,-2.223c-0.341,-0.623 -0.791,-1.379 -1,-1.68c-0.209,-0.3 -0.38,-0.595 -0.38,-0.655c0,-0.059 -0.705,-1.296 -1.565,-2.748c-0.861,-1.453 -1.792,-3.058 -2.07,-3.567c-1.192,-2.195 -2.046,-3.69 -2.187,-3.831c-0.083,-0.083 -0.149,3.826 -0.147,8.688m-54.995,-3.943c0,0.164 0.091,0.354 0.204,0.423c0.114,0.071 0.151,-0.008 0.085,-0.182c-0.093,-0.241 0.097,-0.324 0.878,-0.385l0.996,-0.078l-1.082,-0.038c-0.821,-0.028 -1.081,0.035 -1.081,0.26m5.252,-0.149c7.87,0.145 14.52,0.147 14.52,0.007c0,-0.085 -3.963,-0.134 -8.805,-0.109c-4.843,0.026 -7.415,0.072 -5.715,0.102m-5.419,15.917c0.025,1.026 0.052,1.131 0.113,0.449c0.07,-0.789 0.116,-0.859 0.409,-0.618c0.292,0.241 0.303,0.225 0.097,-0.14c-0.603,-1.068 -0.653,-1.044 -0.619,0.309m15.099,10.916c0.175,0.34 0.365,0.618 0.422,0.618c0.057,0 -0.041,-0.278 -0.217,-0.618c-0.175,-0.34 -0.365,-0.618 -0.422,-0.618c-0.057,0 0.041,0.278 0.217,0.618m4.693,2.986c0.001,0.567 0.041,0.774 0.088,0.461c0.048,-0.313 0.046,-0.776 -0.002,-1.03c-0.049,-0.253 -0.087,0.003 -0.086,0.569m-0.973,3.552c0.606,1.204 0.926,1.237 0.89,0.092c-0.013,-0.418 -0.066,-0.598 -0.118,-0.4c-0.133,0.507 -0.373,0.45 -0.879,-0.206c-0.356,-0.461 -0.336,-0.366 0.107,0.514m-5.787,4.569c0.283,0.558 0.6,1.068 0.704,1.133c0.104,0.064 -0.086,-0.392 -0.423,-1.015c-0.762,-1.407 -0.981,-1.499 -0.281,-0.118m2.645,4.649c0.175,0.34 0.471,0.803 0.66,1.03c0.188,0.226 0.134,0.041 -0.12,-0.412c-0.562,-1 -0.983,-1.482 -0.54,-0.618m-13.332,0.309c0.075,0.283 0.223,0.654 0.328,0.824c0.133,0.214 0.149,0.152 0.053,-0.206c-0.076,-0.283 -0.224,-0.654 -0.329,-0.824c-0.132,-0.215 -0.148,-0.152 -0.052,0.206m2.572,6.282c0,0.113 0.136,0.385 0.302,0.606c0.167,0.219 0.303,0.306 0.303,0.193c0,-0.113 -0.136,-0.386 -0.303,-0.605c-0.166,-0.221 -0.302,-0.308 -0.302,-0.194m4.708,8.186c0.34,0.451 0.552,0.458 0.719,0.023c0.102,-0.265 0.07,-0.288 -0.147,-0.108c-0.206,0.171 -0.351,0.165 -0.561,-0.022c-0.24,-0.214 -0.242,-0.197 -0.011,0.107m56.552,41.562c-9.08,0.854 -13.29,5.084 -13.317,13.378c-0.012,3.852 0.697,6.349 2.401,8.451c4.461,5.506 21.047,6.553 28.406,1.794c1.52,-0.983 3.002,-3.471 3.316,-5.567l0.146,-0.97l-2.878,0l-2.878,0l-0.129,1.241c-0.46,4.397 -3.73,6.468 -10.227,6.477c-8.253,0.012 -10.589,-2.462 -10.597,-11.22c-0.009,-8.91 2.532,-11.75 10.494,-11.731c6.434,0.014 9.705,1.832 10.171,5.651l0.126,1.035l2.455,0.058c2.979,0.071 2.722,0.443 2.594,-3.761l-0.105,-3.497l-3.09,-0.568c-4.826,-0.887 -12.123,-1.22 -16.888,-0.771m-118.324,1.359l0,0.658l1.39,0.136c4.454,0.433 4.581,0.73 4.579,10.71c-0.002,10.471 -0.621,11.843 -5.342,11.843c-0.579,0 -0.627,0.055 -0.627,0.721c0,0.438 0.101,0.722 0.258,0.724c8.585,0.095 30.84,-0.052 31.676,-0.209c4.987,-0.937 7.224,-3.177 7.218,-7.227c-0.006,-3.834 -1.285,-5 -6.217,-5.664c-3.69,-0.498 -3.94,-0.679 -1.511,-1.102c5.174,-0.901 7.71,-4.58 5.803,-8.417c-1.391,-2.799 -1.207,-2.775 -20.699,-2.806l-16.528,-0.026l0,0.659m40.78,0.044l0,0.794l1.287,0.124c4.387,0.421 4.56,0.817 4.256,9.773c-0.239,7.017 -0.131,8.612 0.686,10.145c2.767,5.196 17.751,6.284 22.63,1.644c1.148,-1.093 1.184,-1.072 1.254,0.722c0.033,0.85 0.13,1.545 0.215,1.544c0.085,0 2.73,-0.001 5.879,-0.001l5.725,0l-0.113,-0.97l-0.112,-0.971l-1.133,-0.067c-4.456,-0.265 -4.428,-0.116 -3.779,-19.669l0.129,-3.862l-6.414,0l-6.413,0l0,0.824c0,0.799 0.021,0.823 0.699,0.823c2.196,0 4.335,1.311 4.869,2.984c0.315,0.986 0.136,11.413 -0.231,13.394c-0.713,3.856 -3.901,5.866 -9.306,5.866c-7.245,0 -8.513,-2.468 -7.571,-14.726c0.104,-1.36 0.255,-3.977 0.334,-5.818l0.145,-3.347l-6.518,0l-6.518,0l0,0.794m44.055,-0.588c-0.131,1.305 -0.113,1.332 0.977,1.467c4.169,0.513 4.193,0.576 4.191,11.141c0,9.929 -0.075,10.185 -3.082,10.566c-2.415,0.304 -2.271,0.227 -2.271,1.227c0,1.138 -0.867,1.046 9.33,0.978l8.404,-0.055l-0.063,-0.969c-0.06,-0.932 -0.087,-0.969 -0.725,-1c-1.571,-0.077 -2.561,-0.341 -3.154,-0.84c-1.246,-1.049 -1.229,-0.904 -1.229,-10.106l0,-8.414l0.561,-0.865c0.617,-0.951 1.505,-1.4 3.255,-1.649c1.004,-0.143 1.025,-0.16 1.088,-0.916l0.064,-0.771l-8.663,0c-5.624,0 -8.67,0.072 -8.683,0.206m57.316,0.566l0.064,0.772l1.398,0.155c3.781,0.417 3.738,0.298 3.811,10.627c0.078,10.988 -0.178,11.565 -5.116,11.565c-0.812,0 -0.814,0.002 -0.814,0.824c0,0.647 0.077,0.824 0.36,0.825c9.679,0.037 18.029,-0.013 18.182,-0.108c0.422,-0.26 0.226,-1.322 -0.263,-1.418c-4.744,-0.925 -5.343,-1.544 -5.472,-5.648c-0.09,-2.832 -0.162,-2.654 1.553,-3.819c1.215,-0.824 1.427,-0.721 4.489,2.179c2.998,2.839 4.241,3.996 5.145,4.791c0.34,0.298 0.994,0.885 1.452,1.304c0.459,0.419 1.34,1.207 1.957,1.753l1.123,0.991l5.664,0.015l5.663,0.016l0,-0.775l0,-0.775l-1.339,-0.349c-0.738,-0.192 -1.618,-0.524 -1.957,-0.738c-0.958,-0.606 -2.809,-2.033 -3.604,-2.779c-0.396,-0.371 -1.647,-1.466 -2.78,-2.433c-1.133,-0.968 -2.211,-1.904 -2.397,-2.081c-0.186,-0.177 -1.739,-1.524 -3.45,-2.993c-1.712,-1.469 -3.112,-2.777 -3.112,-2.907c0,-0.217 2.314,-2.051 4.84,-3.835c2.967,-2.096 6.054,-3.333 10.967,-4.397c0.373,-0.081 0.464,-0.241 0.464,-0.817l0,-0.717l-8.239,0l-8.238,0l0,0.699c0,0.692 0.012,0.701 1.224,0.914c2.321,0.409 2.965,1.469 1.793,2.951c-0.793,1.004 -10.948,8.292 -11.273,8.091c-0.251,-0.154 -0.24,-6.458 0.014,-8.004c0.317,-1.941 1.186,-2.62 3.779,-2.954c0.65,-0.084 1.179,-0.222 1.175,-0.307c-0.004,-0.085 -0.007,-0.432 -0.007,-0.772l0,-0.618l-8.56,0l-8.56,0l0.064,0.772m-115.053,1.384c4.088,1.217 4.046,7.099 -0.061,8.551c-0.565,0.199 -2.62,0.298 -7.535,0.361l-6.758,0.088l0.064,-3.925c0.091,-5.558 -0.228,-5.339 7.802,-5.362c4.25,-0.012 5.699,0.052 6.488,0.287m1.491,11.727c4.124,1.325 4.234,6.882 0.176,8.868c-2.953,1.445 -13.809,1.228 -15.279,-0.306c-0.656,-0.685 -1.092,-4.68 -0.823,-7.552l0.145,-1.548l7.344,0.093c6.176,0.079 7.517,0.149 8.437,0.445" style="fill:#1c2c67;"/><path id="path3" d="M58.876,60.409c-1.122,0.072 -1.121,0.07 -0.549,0.994c0.235,0.382 0.351,0.695 0.257,0.698c-0.095,0.001 -0.079,0.07 0.034,0.154c0.114,0.083 0.429,0.568 0.7,1.078c0.272,0.51 0.62,1.073 0.773,1.252c0.153,0.179 0.278,0.395 0.278,0.481c0,0.086 0.346,0.774 0.768,1.529c0.422,0.754 0.753,1.419 0.735,1.475c-0.017,0.057 0.18,0.381 0.437,0.72c0.257,0.341 0.641,0.99 0.852,1.443c0.212,0.453 0.484,0.925 0.605,1.05c0.122,0.126 0.4,0.635 0.621,1.134c0.219,0.497 0.462,0.951 0.539,1.008c0.248,0.182 2.297,3.801 2.303,4.068c0.003,0.141 0.077,0.257 0.163,0.257c0.087,0 0.222,0.209 0.3,0.464c0.078,0.254 0.246,0.59 0.374,0.745c0.128,0.155 0.557,0.866 0.953,1.58c0.397,0.714 1.237,2.209 1.868,3.323c0.631,1.113 1.216,2.162 1.301,2.332c0.085,0.17 0.424,0.773 0.753,1.339c0.33,0.566 0.811,1.447 1.068,1.957c0.258,0.51 0.584,1.049 0.726,1.198c0.141,0.15 0.313,0.498 0.382,0.773c0.069,0.275 0.209,0.5 0.31,0.5c0.101,0 0.183,0.099 0.183,0.22c0,0.281 1.027,1.634 1.24,1.634c0.514,0 0.597,-2.627 0.555,-17.61l-0.044,-15.653l-8.753,-0.103c-4.814,-0.056 -9.194,-0.074 -9.732,-0.04m-1.284,17.14c-0.171,2.049 -0.016,16.037 0.188,17.09c0.077,0.396 0.174,1.019 0.216,1.383c0.041,0.365 0.121,0.738 0.178,0.829c0.056,0.091 0.16,0.58 0.231,1.087c0.122,0.869 0.402,1.977 0.675,2.673c0.066,0.171 0.137,0.356 0.156,0.412c0.02,0.057 0.091,0.243 0.157,0.412c0.067,0.17 0.418,1.19 0.781,2.266c0.363,1.076 0.729,2.049 0.814,2.163c0.086,0.113 0.221,0.437 0.303,0.72c0.235,0.818 3.228,6.796 3.968,7.925c0.369,0.564 0.671,1.124 0.671,1.246c0,0.214 0.279,0.625 1.151,1.696l0.431,0.528l0.704,-1.115c0.876,-1.385 1.016,-1.619 1.962,-3.277c0.42,-0.736 0.841,-1.37 0.936,-1.408c0.094,-0.037 0.171,-0.157 0.171,-0.267c0,-0.109 0.341,-0.912 0.759,-1.784c0.418,-0.873 0.766,-1.634 0.774,-1.69c0.022,-0.154 0.72,-1.692 0.977,-2.154c0.487,-0.876 0.421,-1.67 -0.225,-2.688c-0.343,-0.542 -0.581,-1.054 -0.529,-1.14c0.053,-0.084 -0.056,-0.212 -0.242,-0.283c-0.186,-0.071 -0.287,-0.18 -0.226,-0.241c0.062,-0.062 -0.249,-0.685 -0.692,-1.386c-0.442,-0.7 -1.117,-1.876 -1.5,-2.612c-0.383,-0.736 -0.962,-1.848 -1.286,-2.472c-0.325,-0.623 -0.649,-1.179 -0.722,-1.235c-0.207,-0.162 -2.443,-4.317 -2.443,-4.539c0,-0.109 -0.076,-0.198 -0.169,-0.198c-0.092,0 -0.497,-0.626 -0.899,-1.391c-0.403,-0.764 -1.31,-2.363 -2.015,-3.552c-0.706,-1.19 -1.287,-2.209 -1.292,-2.266c-0.004,-0.056 -0.126,-0.288 -0.269,-0.515c-0.144,-0.226 -0.432,-0.747 -0.641,-1.156c-0.58,-1.139 -2.191,-3.878 -2.57,-4.369c-0.324,-0.419 -0.345,-0.362 -0.483,1.308" style="fill:#860025;"/></g></svg>