<svg width="143" height="58" viewBox="0 0 143 58" fill="none" xmlns="http://www.w3.org/2000/svg">
<g clip-path="url(#clip0_801_167)">
<path d="M66.8931 18.232C64.3319 18.232 62.2862 19.192 60.8163 21.084V10.896H57.4658V38.608H60.5425V36.144C61.9922 38.06 64.0742 39.028 66.736 39.028C69.2046 39.028 71.2463 38.188 72.8088 36.536C74.5968 34.632 75.5069 31.932 75.5069 28.512C75.5069 25.56 74.8223 23.148 73.4773 21.344C71.939 19.28 69.7241 18.232 66.8931 18.232ZM66.3132 21.368C67.8958 21.368 69.2086 21.964 70.2114 23.136C71.3752 24.492 71.9631 26.38 71.9631 28.748C71.9631 30.916 71.4436 32.66 70.4208 33.94C69.4019 35.212 68.0207 35.856 66.3132 35.856C64.7789 35.856 63.5064 35.3 62.5278 34.204C61.3922 32.9 60.8163 31.064 60.8163 28.744C60.8163 26.524 61.3237 24.72 62.3224 23.376C63.3131 22.044 64.6541 21.368 66.3132 21.368Z" fill="#504F4F"/>
<path d="M91.6795 29.552C91.6795 31.54 91.1922 33.136 90.2338 34.304C89.2794 35.464 87.9827 36.052 86.3759 36.052C85.1476 36.052 84.157 35.712 83.4361 35.044C82.7153 34.376 82.3488 33.472 82.3488 32.356V18.656H78.9984V33.624C78.9984 35.264 79.5903 36.588 80.7582 37.564C81.918 38.536 83.4965 39.028 85.4497 39.028C88.1558 39.028 90.2499 37.928 91.6795 35.764V38.608H95.0299V18.656H91.6795V29.552Z" fill="#504F4F"/>
<path d="M108.078 35.6319C107.087 35.8599 106.338 35.9759 105.859 35.9759C105.367 35.9759 104.981 35.8279 104.679 35.5279C104.377 35.2279 104.228 34.8679 104.228 34.4319V21.4039H108.287V18.6519H104.228V13.1399L100.877 14.6599V18.6519H98.171V21.4039H100.877V35.8119C100.877 37.9479 102.202 39.0319 104.812 39.0319C105.637 39.0319 106.865 38.8879 108.464 38.6079L108.565 38.5919L108.19 35.6079L108.078 35.6319Z" fill="#504F4F"/>
<path d="M113.361 10.936C112.817 10.936 112.342 11.132 111.952 11.524C111.557 11.916 111.36 12.388 111.36 12.924C111.36 13.488 111.561 13.972 111.952 14.364C112.342 14.756 112.817 14.952 113.361 14.952C113.929 14.952 114.416 14.756 114.811 14.364C115.205 13.972 115.403 13.488 115.403 12.924C115.403 12.384 115.205 11.916 114.811 11.524C114.416 11.136 113.929 10.936 113.361 10.936Z" fill="#504F4F"/>
<path d="M114.98 18.656H111.629V38.608H114.98V18.656Z" fill="#504F4F"/>
<path d="M128.732 25.576L135.775 18.656H131.37L123.094 26.872V10.896H119.748V38.608H123.094V30.828L126.058 27.956L132.747 38.608H136.907L128.732 25.576Z" fill="#504F4F"/>
<path d="M15.7861 0.300049C10.4342 0.300049 6.09302 4.58805 6.09302 9.87605V25.2V40.524C6.09302 45.812 10.4342 50.1 15.7861 50.1C21.138 50.1 25.4791 45.812 25.4791 40.524V25.2V9.87605C25.4751 4.58805 21.138 0.300049 15.7861 0.300049Z" fill="#6076BF"/>
<path d="M39.0462 4.13208C44.3981 4.13208 48.7393 8.42008 48.7393 13.7081C48.7393 18.9961 44.3981 23.2841 39.0462 23.2841C33.6943 23.2841 29.3531 18.9961 29.3531 13.7081C29.3531 8.42008 33.6943 4.13208 39.0462 4.13208Z" fill="#F8AB14"/>
<path d="M15.7861 15.624C21.138 15.624 25.4791 19.912 25.4791 25.2C25.4791 30.488 21.138 34.776 15.7861 34.776C10.4342 34.776 6.09302 30.488 6.09302 25.2C6.09302 19.912 10.4342 15.624 15.7861 15.624Z" fill="#60D2D8"/>
<path d="M39.0462 27.116C44.3981 27.116 48.7393 31.404 48.7393 36.692C48.7393 41.98 44.3981 46.268 39.0462 46.268C33.6943 46.268 29.3531 41.98 29.3531 36.692C29.3531 31.404 33.6943 27.116 39.0462 27.116Z" fill="#F27EE8"/>
<path d="M66.8931 18.232C64.3319 18.232 62.2862 19.192 60.8163 21.084V10.896H57.4658V38.608H60.5425V36.144C61.9922 38.06 64.0742 39.028 66.736 39.028C69.2046 39.028 71.2463 38.188 72.8088 36.536C74.5968 34.632 75.5069 31.932 75.5069 28.512C75.5069 25.56 74.8223 23.148 73.4773 21.344C71.939 19.28 69.7241 18.232 66.8931 18.232ZM66.3132 21.368C67.8958 21.368 69.2086 21.964 70.2114 23.136C71.3752 24.492 71.9631 26.38 71.9631 28.748C71.9631 30.916 71.4436 32.66 70.4208 33.94C69.4019 35.212 68.0207 35.856 66.3132 35.856C64.7789 35.856 63.5064 35.3 62.5278 34.204C61.3922 32.9 60.8163 31.064 60.8163 28.744C60.8163 26.524 61.3237 24.72 62.3224 23.376C63.3131 22.044 64.6541 21.368 66.3132 21.368Z" fill="#504F4F"/>
<path d="M91.6795 29.552C91.6795 31.54 91.1922 33.136 90.2338 34.304C89.2794 35.464 87.9827 36.052 86.3759 36.052C85.1476 36.052 84.157 35.712 83.4361 35.044C82.7153 34.376 82.3488 33.472 82.3488 32.356V18.656H78.9984V33.624C78.9984 35.264 79.5903 36.588 80.7582 37.564C81.918 38.536 83.4965 39.028 85.4497 39.028C88.1558 39.028 90.2499 37.928 91.6795 35.764V38.608H95.0299V18.656H91.6795V29.552Z" fill="#504F4F"/>
<path d="M108.078 35.6319C107.087 35.8599 106.338 35.9759 105.859 35.9759C105.367 35.9759 104.981 35.8279 104.679 35.5279C104.377 35.2279 104.228 34.8679 104.228 34.4319V21.4039H108.287V18.6519H104.228V13.1399L100.877 14.6599V18.6519H98.171V21.4039H100.877V35.8119C100.877 37.9479 102.202 39.0319 104.812 39.0319C105.637 39.0319 106.865 38.8879 108.464 38.6079L108.565 38.5919L108.19 35.6079L108.078 35.6319Z" fill="#504F4F"/>
<path d="M113.361 10.936C112.817 10.936 112.342 11.132 111.952 11.524C111.557 11.916 111.36 12.388 111.36 12.924C111.36 13.488 111.561 13.972 111.952 14.364C112.342 14.756 112.817 14.952 113.361 14.952C113.929 14.952 114.416 14.756 114.811 14.364C115.205 13.972 115.403 13.488 115.403 12.924C115.403 12.384 115.205 11.916 114.811 11.524C114.416 11.136 113.929 10.936 113.361 10.936Z" fill="#504F4F"/>
<path d="M114.98 18.656H111.629V38.608H114.98V18.656Z" fill="#504F4F"/>
<path d="M128.732 25.576L135.775 18.656H131.37L123.094 26.872V10.896H119.748V38.608H123.094V30.828L126.058 27.956L132.747 38.608H136.907L128.732 25.576Z" fill="#504F4F"/>
<path d="M15.7861 0.300049C10.4342 0.300049 6.09302 4.58805 6.09302 9.87605V25.2V40.524C6.09302 45.812 10.4342 50.1 15.7861 50.1C21.138 50.1 25.4791 45.812 25.4791 40.524V25.2V9.87605C25.4751 4.58805 21.138 0.300049 15.7861 0.300049Z" fill="#6076BF"/>
<path d="M39.0462 4.13208C44.3981 4.13208 48.7393 8.42008 48.7393 13.7081C48.7393 18.9961 44.3981 23.2841 39.0462 23.2841C33.6943 23.2841 29.3531 18.9961 29.3531 13.7081C29.3531 8.42008 33.6943 4.13208 39.0462 4.13208Z" fill="#F8AB14"/>
<path d="M15.7861 15.624C21.138 15.624 25.4791 19.912 25.4791 25.2C25.4791 30.488 21.138 34.776 15.7861 34.776C10.4342 34.776 6.09302 30.488 6.09302 25.2C6.09302 19.912 10.4342 15.624 15.7861 15.624Z" fill="#60D2D8"/>
<path d="M39.0462 27.116C44.3981 27.116 48.7393 31.404 48.7393 36.692C48.7393 41.98 44.3981 46.268 39.0462 46.268C33.6943 46.268 29.3531 41.98 29.3531 36.692C29.3531 31.404 33.6943 27.116 39.0462 27.116Z" fill="#F27EE8"/>
</g>
<defs>
<clipPath id="clip0_801_167">
<rect width="143" height="58" fill="white"/>
</clipPath>
</defs>
</svg>
