<svg width="143" height="62" viewBox="0 0 143 62" fill="none" xmlns="http://www.w3.org/2000/svg">
<g clip-path="url(#clip0_801_180)">
<path d="M66.8931 22.232C64.3319 22.232 62.2862 23.192 60.8163 25.084V14.896H57.4658V42.608H60.5425V40.144C61.9922 42.06 64.0742 43.028 66.736 43.028C69.2046 43.028 71.2463 42.188 72.8088 40.536C74.5968 38.632 75.5069 35.932 75.5069 32.512C75.5069 29.56 74.8223 27.148 73.4773 25.344C71.939 23.28 69.7241 22.232 66.8931 22.232ZM66.3132 25.368C67.8958 25.368 69.2086 25.964 70.2114 27.136C71.3752 28.492 71.9631 30.38 71.9631 32.748C71.9631 34.916 71.4436 36.66 70.4208 37.94C69.4019 39.212 68.0207 39.856 66.3132 39.856C64.7789 39.856 63.5064 39.3 62.5278 38.204C61.3922 36.9 60.8163 35.064 60.8163 32.744C60.8163 30.524 61.3237 28.72 62.3224 27.376C63.3131 26.044 64.6541 25.368 66.3132 25.368Z" fill="#504F4F"/>
<path d="M91.6795 33.552C91.6795 35.54 91.1922 37.136 90.2338 38.304C89.2794 39.464 87.9827 40.052 86.3759 40.052C85.1476 40.052 84.157 39.712 83.4361 39.044C82.7153 38.376 82.3488 37.472 82.3488 36.356V22.656H78.9984V37.624C78.9984 39.264 79.5903 40.588 80.7582 41.564C81.918 42.536 83.4965 43.028 85.4497 43.028C88.1558 43.028 90.2499 41.928 91.6795 39.764V42.608H95.0299V22.656H91.6795V33.552Z" fill="#504F4F"/>
<path d="M108.078 39.6319C107.087 39.8599 106.338 39.9759 105.859 39.9759C105.367 39.9759 104.981 39.8279 104.679 39.5279C104.377 39.2279 104.228 38.8679 104.228 38.4319V25.4039H108.287V22.6519H104.228V17.1399L100.877 18.6599V22.6519H98.171V25.4039H100.877V39.8119C100.877 41.9479 102.202 43.0319 104.812 43.0319C105.637 43.0319 106.865 42.8879 108.464 42.6079L108.565 42.5919L108.19 39.6079L108.078 39.6319Z" fill="#504F4F"/>
<path d="M113.361 14.936C112.817 14.936 112.342 15.132 111.951 15.524C111.557 15.916 111.359 16.388 111.359 16.924C111.359 17.488 111.561 17.972 111.951 18.364C112.342 18.756 112.817 18.952 113.361 18.952C113.929 18.952 114.416 18.756 114.811 18.364C115.205 17.972 115.403 17.488 115.403 16.924C115.403 16.384 115.205 15.916 114.811 15.524C114.416 15.136 113.929 14.936 113.361 14.936Z" fill="#504F4F"/>
<path d="M114.98 22.656H111.629V42.608H114.98V22.656Z" fill="#504F4F"/>
<path d="M128.732 29.576L135.775 22.656H131.37L123.094 30.872V14.896H119.748V42.608H123.094V34.828L126.058 31.956L132.747 42.608H136.907L128.732 29.576Z" fill="#504F4F"/>
<path d="M15.7861 4.30005C10.4342 4.30005 6.09302 8.58805 6.09302 13.876V29.2V44.524C6.09302 49.812 10.4342 54.1 15.7861 54.1C21.138 54.1 25.4791 49.812 25.4791 44.524V29.2V13.876C25.4751 8.58805 21.138 4.30005 15.7861 4.30005Z" fill="#6076BF"/>
<path d="M39.0462 8.13208C44.3981 8.13208 48.7393 12.4201 48.7393 17.7081C48.7393 22.9961 44.3981 27.2841 39.0462 27.2841C33.6943 27.2841 29.3531 22.9961 29.3531 17.7081C29.3531 12.4201 33.6943 8.13208 39.0462 8.13208Z" fill="#F8AB14"/>
<path d="M15.7861 19.624C21.138 19.624 25.4791 23.912 25.4791 29.2C25.4791 34.488 21.138 38.776 15.7861 38.776C10.4342 38.776 6.09302 34.488 6.09302 29.2C6.09302 23.912 10.4342 19.624 15.7861 19.624Z" fill="#60D2D8"/>
<path d="M39.0462 31.116C44.3981 31.116 48.7393 35.404 48.7393 40.692C48.7393 45.98 44.3981 50.268 39.0462 50.268C33.6943 50.268 29.3531 45.98 29.3531 40.692C29.3531 35.404 33.6943 31.116 39.0462 31.116Z" fill="#F27EE8"/>
<path d="M66.8931 22.232C64.3319 22.232 62.2862 23.192 60.8163 25.084V14.896H57.4658V42.608H60.5425V40.144C61.9922 42.06 64.0742 43.028 66.736 43.028C69.2046 43.028 71.2463 42.188 72.8088 40.536C74.5968 38.632 75.5069 35.932 75.5069 32.512C75.5069 29.56 74.8223 27.148 73.4773 25.344C71.939 23.28 69.7241 22.232 66.8931 22.232ZM66.3132 25.368C67.8958 25.368 69.2086 25.964 70.2114 27.136C71.3752 28.492 71.9631 30.38 71.9631 32.748C71.9631 34.916 71.4436 36.66 70.4208 37.94C69.4019 39.212 68.0207 39.856 66.3132 39.856C64.7789 39.856 63.5064 39.3 62.5278 38.204C61.3922 36.9 60.8163 35.064 60.8163 32.744C60.8163 30.524 61.3237 28.72 62.3224 27.376C63.3131 26.044 64.6541 25.368 66.3132 25.368Z" fill="white"/>
<path d="M91.6795 33.552C91.6795 35.54 91.1922 37.136 90.2338 38.304C89.2794 39.464 87.9827 40.052 86.3759 40.052C85.1476 40.052 84.157 39.712 83.4361 39.044C82.7153 38.376 82.3488 37.472 82.3488 36.356V22.656H78.9984V37.624C78.9984 39.264 79.5903 40.588 80.7582 41.564C81.918 42.536 83.4965 43.028 85.4497 43.028C88.1558 43.028 90.2499 41.928 91.6795 39.764V42.608H95.0299V22.656H91.6795V33.552Z" fill="white"/>
<path d="M108.078 39.6319C107.087 39.8599 106.338 39.9759 105.859 39.9759C105.367 39.9759 104.981 39.8279 104.679 39.5279C104.377 39.2279 104.228 38.8679 104.228 38.4319V25.4039H108.287V22.6519H104.228V17.1399L100.877 18.6599V22.6519H98.171V25.4039H100.877V39.8119C100.877 41.9479 102.202 43.0319 104.812 43.0319C105.637 43.0319 106.865 42.8879 108.464 42.6079L108.565 42.5919L108.19 39.6079L108.078 39.6319Z" fill="white"/>
<path d="M113.361 14.936C112.817 14.936 112.342 15.132 111.951 15.524C111.557 15.916 111.359 16.388 111.359 16.924C111.359 17.488 111.561 17.972 111.951 18.364C112.342 18.756 112.817 18.952 113.361 18.952C113.929 18.952 114.416 18.756 114.811 18.364C115.205 17.972 115.403 17.488 115.403 16.924C115.403 16.384 115.205 15.916 114.811 15.524C114.416 15.136 113.929 14.936 113.361 14.936Z" fill="white"/>
<path d="M114.98 22.656H111.629V42.608H114.98V22.656Z" fill="white"/>
<path d="M128.732 29.576L135.775 22.656H131.37L123.094 30.872V14.896H119.748V42.608H123.094V34.828L126.058 31.956L132.747 42.608H136.907L128.732 29.576Z" fill="white"/>
<path d="M15.7861 4.30005C10.4342 4.30005 6.09302 8.58805 6.09302 13.876V29.2V44.524C6.09302 49.812 10.4342 54.1 15.7861 54.1C21.138 54.1 25.4791 49.812 25.4791 44.524V29.2V13.876C25.4751 8.58805 21.138 4.30005 15.7861 4.30005Z" fill="white"/>
<path d="M39.0462 8.13208C44.3981 8.13208 48.7393 12.4201 48.7393 17.7081C48.7393 22.9961 44.3981 27.2841 39.0462 27.2841C33.6943 27.2841 29.3531 22.9961 29.3531 17.7081C29.3531 12.4201 33.6943 8.13208 39.0462 8.13208Z" fill="white"/>
<path d="M15.7861 19.624C21.138 19.624 25.4791 23.912 25.4791 29.2C25.4791 34.488 21.138 38.776 15.7861 38.776C10.4342 38.776 6.09302 34.488 6.09302 29.2C6.09302 23.912 10.4342 19.624 15.7861 19.624Z" fill="white"/>
<path d="M39.0462 31.116C44.3981 31.116 48.7393 35.404 48.7393 40.692C48.7393 45.98 44.3981 50.268 39.0462 50.268C33.6943 50.268 29.3531 45.98 29.3531 40.692C29.3531 35.404 33.6943 31.116 39.0462 31.116Z" fill="white"/>
</g>
<defs>
<clipPath id="clip0_801_180">
<rect width="143" height="62" fill="white"/>
</clipPath>
</defs>
</svg>
