<?xml version="1.0" encoding="UTF-8" standalone="no"?><!DOCTYPE svg PUBLIC "-//W3C//DTD SVG 1.1//EN" "http://www.w3.org/Graphics/SVG/1.1/DTD/svg11.dtd"><svg width="100%" height="100%" viewBox="0 0 192 192" version="1.1" xmlns="http://www.w3.org/2000/svg" xmlns:xlink="http://www.w3.org/1999/xlink" xml:space="preserve" xmlns:serif="http://www.serif.com/" style="fill-rule:evenodd;clip-rule:evenodd;stroke-linejoin:round;stroke-miterlimit:1.41421;"><g><path d="M73.218,155.412c0.087,0.263 0.313,0.372 0.602,0.372c0.305,0 0.516,-0.079 0.599,-0.361l5.972,-22.978l5.084,0l-6.796,25.179c-0.392,1.592 -1.404,2.39 -2.962,2.39l-5.306,0c-1.562,0 -2.664,-0.768 -3.003,-2.427l-6.962,-25.145l6.71,0l6.062,22.97Zm-56.055,-22.974l0,4.207l-9.298,0c-1.724,0 -2.107,0.448 -2.107,2.104l-0.008,14.924c0,1.723 0.516,2.115 2.107,2.115l0,0.004l9.306,0l0,4.211l-12.866,0c-2.72,0 -4.297,-1.239 -4.297,-4.309l0.004,-18.951c0,-2.785 1.366,-4.305 4.308,-4.305l12.851,0Zm7.956,27.565l-5.754,0l0,-27.561l5.754,0l0,11.029l8.244,0l0,-11.029l5.754,0l0,27.561l-5.757,0l0,-12.325l-8.241,0l0,12.325Zm166.881,-27.561l0,4.207l-7.82,0l0,23.354l-5.75,0l0,-23.354l-7.808,0l0,-4.207l21.378,0Zm-51.75,0l-0.007,23.357l10.706,0l0,4.204l-16.46,0l0,-27.561l5.761,0Zm-80.372,4.207l-9.441,0c-1.75,0 -2.108,0.508 -2.108,2.103l0,4.719l11.429,0l0,4.207l-11.432,0l0,5.999c0,1.753 0.511,2.115 2.107,2.115l10.642,0l0,4.211l-14.198,0c-2.883,0 -4.301,-1.393 -4.301,-4.309l0,-18.947c0,-2.823 1.328,-4.305 4.304,-4.305l12.998,0l0,4.207Zm42.38,-4.207c2.947,0 4.305,1.426 4.305,4.305l0.004,7.308c0,3.089 -1.637,4.308 -4.301,4.308l-1.291,0.008l7.605,11.632l-7.12,0l-7.263,-12.4c-0.24,-0.433 -0.545,-0.862 -0.545,-1.464c0,-1.189 0.681,-1.919 1.904,-1.919l3.146,0c1.663,0 2.115,-0.478 2.115,-2.107l-0.015,-3.361c0,-1.595 -0.32,-2.103 -2.1,-2.103l-6.725,0l0,23.35l-5.75,0l0,-27.557l16.031,0Zm24.453,27.561l-12.686,0c-2.63,0 -4.301,-1.178 -4.301,-4.309l0.007,-18.947c0,-2.751 1.269,-4.305 4.305,-4.305l12.675,0c2.969,0 4.297,1.482 4.297,4.305l0.007,18.947c0,3.014 -1.55,4.308 -4.304,4.309Zm-3.557,-23.358l-5.565,0c-1.912,0 -2.108,0.662 -2.108,2.104l0,14.924c0,1.656 0.448,2.115 2.108,2.115l5.565,0c1.562,0 2.111,-0.331 2.111,-2.115l-0.003,-14.924c0,-1.844 -0.602,-2.104 -2.108,-2.104Z" style="fill:#4f4f4f;fill-rule:nonzero;"/><path d="M157.816,147.678l-0.004,5.999c0,1.753 0.516,2.115 2.111,2.115l10.642,0l0,4.211l-14.205,0c-2.875,0 -4.301,-1.393 -4.301,-4.309l0.007,-18.947c0,-2.823 1.329,-4.305 4.305,-4.305l12.998,0l0,4.207l-9.446,0c-1.753,0 -2.103,0.508 -2.103,2.103l0,4.719l11.425,0l0,4.207l-11.429,0" style="fill:#4f4f4f;fill-rule:nonzero;"/></g><path d="M125.804,31.986c2.257,0 3.499,1.219 3.499,3.53l0.004,8.015c0,1.897 0.903,2.307 2.277,2.307l54.015,-0.007c1.332,0 3.281,0.794 3.281,3.055c0,0.854 -0.252,1.261 -0.624,1.983l-17.04,33.296c-1.189,2.202 -2.897,2.826 -5.26,2.826l-34.372,0.011c-1.585,0 -2.277,0.667 -2.277,2.303l0.008,8.012c0,2.465 -1.404,3.488 -3.511,3.488l-61.832,0c-2.107,0 -3.507,-1.095 -3.507,-3.51l0.004,-8.008c0,-1.536 -0.595,-2.307 -2.284,-2.307l-54.802,0.007c-2.42,0 -3.289,-1.723 -3.289,-3.055c0,-0.508 0.132,-1.005 0.354,-1.434l17.231,-33.683c0.82,-1.697 2.401,-2.988 5.11,-2.988l35.396,-0.011c1.482,0 2.28,-0.618 2.28,-2.303l0.004,-8.016c0.004,-2.209 1.193,-3.511 3.503,-3.511l61.832,0" style="fill:#727272;fill-rule:nonzero;"/><path d="M116.298,42.681c1.539,0 2.303,0.685 2.303,2.322l0,9.242c0,1.588 0.734,2.288 2.326,2.288l49.191,0c1.565,0 2.081,1.031 2.081,1.851c-0.001,0.301 -0.074,0.596 -0.215,0.862l-8.218,16.072c-0.516,0.933 -1.427,0.971 -2.074,0.971l-40.769,0c-1.686,0 -2.303,0.764 -2.303,2.299l-0.004,9.25c0,1.531 -0.677,2.273 -2.318,2.273l-42.824,0c-1.437,0 -2.31,-0.504 -2.31,-2.296l-0.004,-9.242c0,-1.686 -0.775,-2.292 -2.311,-2.292l-49.988,0c-1.227,0 -2.078,-0.767 -2.078,-1.84c0,-0.316 0.076,-0.602 0.215,-0.865l8.215,-16.069c0.312,-0.564 0.828,-0.967 2.069,-0.967l41.567,0.012c1.438,0 2.326,-0.58 2.326,-2.322l0,-9.25c0,-1.637 0.711,-2.292 2.299,-2.292l42.824,-0.007" style="fill:#d9b65e;fill-rule:nonzero;"/></svg>