<svg width="100" height="100" viewBox="0 0 100 100" fill="none" xmlns="http://www.w3.org/2000/svg">
<path fill-rule="evenodd" clip-rule="evenodd" d="M57.1607 66.9123C56.1214 67.9336 55.0755 68.9482 54.0444 69.9777C45.1453 78.8609 36.2599 87.7576 27.3484 96.628C21.5768 102.373 11.9455 100.519 8.93459 93.0248C7.11704 88.5004 7.96314 84.3105 11.3624 80.8079C15.6253 76.4141 20.0094 72.1379 24.3411 67.8108C25.3439 66.809 26.36 65.8196 27.3464 64.8019C31.7043 60.2992 31.675 53.4025 27.2503 48.9547C22.0191 43.6962 16.7627 38.464 11.5114 33.2256C9.0959 30.8167 7.9503 27.9214 8.08079 24.5082C8.27395 19.4337 12.262 14.8759 17.2697 14.0555C21.2151 13.4098 24.6195 14.4973 27.4522 17.3213C32.5591 22.4133 37.6562 27.5145 42.76 32.6091C42.9311 32.7796 43.0637 33.0031 43.3195 33.0745C43.4068 33.3442 43.6401 33.4968 43.826 33.6828C48.9807 38.841 54.1867 43.949 59.2772 49.1699C62.3154 52.2867 63.1003 56.0707 61.9301 60.2591C61.6188 61.3744 61.0239 62.3577 60.4937 63.3712C59.4945 64.6576 58.2559 65.7174 57.1607 66.9123Z" fill="#003A8A"/>
<path fill-rule="evenodd" clip-rule="evenodd" d="M57.1606 66.9123C58.2558 65.7174 59.4944 64.6576 60.4931 63.3712C60.7587 63.3763 60.8835 63.1631 61.035 63.0059C61.8025 62.2097 62.6322 61.4761 63.3298 60.6089C65.5224 57.8826 66.3413 54.8044 65.7078 51.364C65.2476 48.8642 63.9828 46.8032 62.1863 45.0293C57.8505 40.7495 53.5327 36.4517 49.2056 32.1626C48.3759 31.3402 47.537 30.5264 46.7022 29.7091C48.8938 27.5155 51.0843 25.3214 53.2773 23.1299C59.816 16.5954 66.3623 10.069 72.8907 3.52372C75.1953 1.213 77.9401 -0.00914339 81.2114 5.15039e-05C87.1295 0.0175701 92.0689 4.75511 92.333 10.6629C92.483 14.0047 91.378 16.8753 89.0195 19.2405C83.7831 24.4918 78.5329 29.7291 73.2842 34.9681C70.9036 37.344 69.7287 40.2034 69.8659 43.5678C69.9871 46.5324 71.1677 49.0415 73.2601 51.1323C78.4769 56.3445 83.6922 61.5588 88.9126 66.7679C91.38 69.2297 92.5164 72.1892 92.3248 75.6728C92.0494 80.679 88.0953 85.1201 83.1389 85.9343C79.191 86.5832 75.7901 85.4812 72.9595 82.6599C67.8526 77.5694 62.7565 72.4687 57.6548 67.3731C57.494 67.2143 57.3249 67.0659 57.1606 66.9123Z" fill="#00CBFE"/>
<path fill-rule="evenodd" clip-rule="evenodd" d="M46.7018 29.7097C47.5366 30.527 48.3755 31.3408 49.2051 32.1632C53.5322 36.4523 57.85 40.7501 62.1858 45.0299C63.9823 46.8033 65.2471 48.8643 65.7074 51.3646C66.3408 54.805 65.5219 57.8832 63.3294 60.6095C62.6323 61.4767 61.8021 62.2103 61.0346 63.0066C60.883 63.1638 60.7582 63.3769 60.4926 63.3719C61.0228 62.3582 61.6172 61.375 61.929 60.2597C63.0992 56.0713 62.3143 52.2867 59.2761 49.1705C54.1862 43.949 48.9801 38.8416 43.8249 33.6833C43.639 33.4974 43.4063 33.3448 43.3184 33.0751C44.4137 31.9203 45.5279 30.7849 46.7018 29.7097Z" fill="#0099CE"/>
</svg>
