<?xml version="1.0" encoding="UTF-8" standalone="no"?><!DOCTYPE svg PUBLIC "-//W3C//DTD SVG 1.1//EN" "http://www.w3.org/Graphics/SVG/1.1/DTD/svg11.dtd"><svg width="100%" height="100%" viewBox="0 0 192 192" version="1.1" xmlns="http://www.w3.org/2000/svg" xmlns:xlink="http://www.w3.org/1999/xlink" xml:space="preserve" xmlns:serif="http://www.serif.com/" style="fill-rule:evenodd;clip-rule:evenodd;stroke-linejoin:round;stroke-miterlimit:1.41421;"><g><path d="M39.424,0l113.152,0c3.208,0 5.83,2.746 5.83,6.077l0,179.846c0,3.331 -2.622,6.077 -5.83,6.077l-113.152,0c-3.208,0 -5.83,-2.746 -5.83,-6.077l0,-179.846c0,-3.362 2.622,-6.077 5.83,-6.077"/><path d="M141.563,178.674l-7.157,0l0,-2.839l1.419,0l0,-9.655l-1.419,0l0,-2.53l7.157,0l0,2.499l-1.388,0l0,9.656l1.388,0l0,2.869Zm0.093,-18.479c0,0.401 -0.34,0.772 -1.018,1.049c-0.71,0.278 -1.605,0.432 -2.653,0.432c-1.018,0 -1.882,-0.154 -2.592,-0.432c-0.709,-0.277 -1.049,-0.617 -1.049,-1.049c0,-0.401 0.34,-0.74 1.049,-1.048c0.71,-0.278 1.543,-0.432 2.592,-0.432c1.018,0 1.912,0.154 2.622,0.432c0.678,0.308 1.049,0.647 1.049,1.048m-9.687,11.661l-4.38,0l0,-4.905c0,-0.185 -0.031,-0.339 -0.062,-0.401c-0.031,-0.031 -0.093,-0.062 -0.185,-0.062c-0.278,0 -0.71,0.34 -1.357,0.988c-0.432,0.462 -0.802,0.925 -1.111,1.419l0,6.94l1.388,0l0,2.839l-7.033,0l0,-2.839l1.45,0l0,-9.655l-1.45,0l0,-2.53l5.645,0l0,2.129c0.432,-0.463 0.987,-0.895 1.728,-1.296c0.956,-0.555 1.82,-0.802 2.622,-0.802c0.863,0 1.511,0.216 2.005,0.679c0.493,0.463 0.74,1.049 0.74,1.789l0,5.707Zm-19.589,4.751l0,-5.245l-2.159,0c-0.555,0 -0.833,0.247 -0.833,0.741l0,3.64c0,0.586 0.278,0.895 0.895,0.895l2.097,0l0,-0.031Zm5.491,2.067l-9.501,0c-1.049,0 -1.882,-0.309 -2.468,-0.957c-0.555,-0.586 -0.833,-1.295 -0.833,-2.19l0,-3.239c0,-1.728 1.08,-2.591 3.209,-2.591l4.133,0l0,-3.239c0,-0.494 -0.216,-0.741 -0.648,-0.741l-1.634,0c-0.216,0 -0.401,0.062 -0.525,0.216c-0.123,0.154 -0.185,0.309 -0.185,0.463l0,2.098l-4.35,0l0,-1.882c0,-1.974 1.234,-2.962 3.702,-2.962l4.72,0c2.19,0 3.27,1.018 3.27,3.054l0,9.131l1.11,0l0,2.839Zm-14.251,-6.818l-4.381,0l0,-4.905c0,-0.185 -0.031,-0.339 -0.062,-0.401c-0.03,-0.031 -0.092,-0.062 -0.185,-0.062c-0.277,0 -0.709,0.34 -1.357,0.988c-0.432,0.462 -0.802,0.925 -1.111,1.419l0,6.94l1.389,0l0,2.839l-7.034,0l0,-2.839l1.45,0l0,-9.655l-1.45,0l0,-2.53l5.645,0l0,2.129c0.432,-0.463 0.988,-0.895 1.728,-1.296c0.956,-0.555 1.82,-0.802 2.622,-0.802c0.864,0 1.512,0.216 2.005,0.679c0.494,0.463 0.741,1.049 0.741,1.789l0,5.707Zm-14.129,0l-4.38,0l0,-4.905c0,-0.185 -0.031,-0.339 -0.062,-0.401c-0.031,-0.031 -0.093,-0.062 -0.185,-0.062c-0.278,0 -0.71,0.34 -1.358,0.988c-0.431,0.462 -0.802,0.925 -1.11,1.419l0,6.94l1.388,0l0,2.839l-7.033,0l0,-2.839l1.45,0l0,-9.655l-1.45,0l0,-2.53l5.645,0l0,2.129c0.432,-0.463 0.987,-0.895 1.727,-1.296c0.957,-0.555 1.82,-0.802 2.623,-0.802c0.863,0 1.511,0.216 2.005,0.679c0.493,0.463 0.74,1.049 0.74,1.789l0,5.707Zm-18.509,-1.203l0,-4.041c0,-0.586 -0.247,-0.864 -0.74,-0.864l-2.345,0c-0.524,0 -0.771,0.309 -0.771,0.895l0,4.01l3.856,0Zm4.35,1.697l-8.206,0l0,3.485c0,0.525 0.278,0.803 0.833,0.803l2.221,0c0.524,0 0.771,-0.278 0.771,-0.833l0,-2.036l4.35,0l0,1.851c0,0.956 -0.34,1.696 -1.018,2.251c-0.679,0.556 -1.604,0.833 -2.777,0.833l-5.12,0c-1.173,0 -2.098,-0.308 -2.715,-0.925c-0.586,-0.586 -0.895,-1.357 -0.895,-2.375l0,-8.638c0,-1.018 0.401,-1.82 1.173,-2.375c0.647,-0.463 1.511,-0.71 2.529,-0.71l5.214,0c2.406,0 3.609,1.049 3.609,3.178l0,5.491l0.031,0Zm57.532,-13.635l0,2.838l-75.116,0l0,5.645l1.388,0l0,-1.327l2.129,0l0,5.306l-2.129,0l0,-1.264l-1.388,0l0,5.953l2.931,0l0,2.838l-10.335,0l0,-2.838l2.931,0l0,-14.282l-2.931,0l0,-2.869l82.52,0Zm-27.486,-23.013c-0.339,1.234 -0.71,1.388 -2.406,2.097c-1.851,1.142 -2.838,2.468 -1.388,0.309c0.339,-0.37 0.647,-0.71 0.987,-1.08c0.956,-0.648 1.912,-1.758 2.807,-1.326m20.637,-27.178c8.422,-5.213 3.239,-10.303 5.584,-16.411c-3.733,4.535 1.018,11.106 -6.787,15.548c-2.252,0.925 -1.234,1.789 1.203,0.863m-8.761,2.191c-0.894,0.925 -0.832,1.326 -0.586,3.115c-0.03,2.16 -0.678,3.671 0.432,1.358c0.154,-0.463 0.278,-0.926 0.432,-1.389c0.093,-1.172 0.555,-2.591 -0.278,-3.084m-15.084,-11.784c1.264,0.863 1.049,1.11 -0.062,2.252c-0.71,1.48 -0.123,2.683 -1.265,0.802c-0.092,-0.34 -0.185,-0.71 -0.277,-1.049c0.215,-0.833 -0.124,-1.882 1.604,-2.005m-0.093,10.457c0,1.913 -0.524,3.825 -2.098,5.738c-0.493,-0.093 -0.956,-0.154 -1.419,-0.247c-0.74,0.278 -0.894,0.555 -0.493,0.833c0.277,0.247 0.555,0.494 0.833,0.74c-0.771,2.437 -1.296,4.874 -0.247,7.342c1.08,0.494 1.45,0.216 1.172,-0.833c-1.758,-2.745 -0.37,-4.503 0.833,-6.323c0.494,1.511 -0.987,4.133 0.154,4.503c1.111,-1.912 3.332,-5.244 0.494,-5.336c1.511,-1.913 2.252,-5.09 2.283,-6.077c0.061,-2.129 -0.957,-2.098 -1.512,-0.34m-6.663,2.653c1.08,0.648 1.45,0.494 1.172,-0.432c-1.604,-2.776 -2.529,-2.93 -3.948,-4.504c-0.926,-0.154 -1.173,-0.246 -0.772,0.247c1.296,1.974 2.622,3.085 3.548,4.689m-1.944,-7.311c-1.82,0.74 -8.915,-6.386 -9.439,-6.756c-0.987,-1.666 -0.926,-2.437 0.216,-2.282c2.9,3.084 6.324,6.879 9.223,9.038m8.669,-13.419c-0.525,3.794 -5.923,-6.571 -5.244,-7.003c-0.494,-1.634 0.154,-2.036 1.079,-1.696c0.864,3.023 0.987,5.707 4.165,8.699m-28.658,-7.774c-0.34,-1.666 0,-1.912 1.604,-2.93c1.542,-1.604 1.912,-3.455 1.481,-0.494c-0.186,0.494 -0.34,1.018 -0.525,1.512c-0.74,0.956 -1.234,2.498 -2.56,1.912m-2.036,-4.041c-1.173,-0.031 -1.265,-0.123 -1.697,-1.326c-0.864,-1.234 -1.882,-3.209 0.864,-1.358c0.308,0.185 0.617,0.371 0.925,0.556c0.556,0.647 0.494,1.357 -0.092,2.128m-4.535,-8.576c-0.154,0.926 -0.247,0.987 -1.265,1.203c-1.11,0.556 -2.807,1.142 -0.987,-0.833c0.185,-0.215 0.37,-0.462 0.555,-0.678c0.556,-0.34 1.111,-0.247 1.697,0.308m-4.411,11.291c0.833,0.463 0.833,0.586 0.648,1.789c0.092,1.419 -0.031,3.517 -1.173,0.833c-0.154,-0.278 -0.277,-0.555 -0.432,-0.833c-0.123,-0.74 0.216,-1.326 0.957,-1.789m3.856,3.825c2.252,0.925 3.455,2.252 4.935,2.961c1.635,0.802 2.468,0.062 1.728,-0.863c-2.776,-1.388 -5.275,-3.332 -6.663,-2.098m25.82,-39.332c0.524,0 0.956,0.371 0.956,0.802c0,0.432 -0.123,0.802 -0.648,0.802c-0.524,0 -1.079,-0.678 -1.079,-1.11c0.03,-0.432 0.246,-0.494 0.771,-0.494m-3.332,22.273c-0.154,3.794 5.954,-6.694 6.324,-7.095c0.494,-1.635 0.278,-2.252 -0.648,-1.913c-1.881,2.992 -3.763,5.985 -5.676,9.008m-4.596,3.918c-0.401,0.339 -0.37,0.709 0.092,1.048c2.345,-0.215 2.9,-0.647 5.029,0.216c0.894,0.062 2.036,-0.586 1.172,-1.264c-1.728,-1.389 -4.196,-0.371 -6.293,0m-21.748,8.946c1.48,-0.278 2.961,-0.463 4.935,-0.093c0.957,0.216 2.993,0.679 4.042,0.524c-0.833,-1.11 -1.45,-2.375 -2.345,-3.455c-0.74,-0.802 -1.604,-1.511 -2.252,-2.406c-0.925,-0.524 -1.141,-0.617 -2.159,-0.277c-0.833,0.647 -0.895,1.141 -1.265,2.128c0.031,1.543 -0.154,2.314 -0.956,3.579m18.077,-31.836c0.401,0 0.709,0.401 0.678,0.926c-0.03,0.493 -0.401,0.925 -0.802,0.925c-0.401,0 -0.709,-0.401 -0.678,-0.925c0.031,-0.525 0.401,-0.926 0.802,-0.926m-2.314,1.82c-0.216,-1.974 -0.154,-2.529 2.653,-3.763c2.19,-0.987 4.072,-1.049 6.262,-1.666c1.111,-1.296 1.574,-1.234 2.993,-1.604c0.031,-0.278 0.061,-0.586 0.123,-0.864c-1.018,-0.709 -1.542,-1.111 -2.314,-2.067c0.031,-0.339 0.062,-0.648 0.124,-0.987c0.308,0.031 0.586,0.062 0.894,0.123c-0.123,-0.339 -0.216,-0.647 -0.339,-0.987c1.049,0.062 2.129,0.155 3.208,0.216l0,-0.864l0,-1.419c0.093,-0.462 0.309,-0.586 0.648,-0.339c0.648,0.802 1.327,1.604 1.974,2.406c0.062,-0.863 0.247,-1.573 0.309,-2.437c0.031,-0.462 0.278,-0.586 0.771,-0.339c0.648,1.234 1.234,2.283 1.882,3.517c1.45,-0.525 3.455,-0.309 5.614,0.092c-0.154,0.247 -0.308,0.494 -0.432,0.771c0.802,0.247 1.605,0.494 2.437,0.772c-0.03,0.216 -0.061,0.431 -0.123,0.647c2.437,0.247 3.671,0.587 5.954,1.512c-1.296,0.37 -2.561,0.74 -3.856,1.08c-0.71,0.339 -0.71,0.647 0,0.987c2.468,0.833 4.935,1.943 7.372,4.905c-0.061,0.216 -0.154,0.432 -0.215,0.648c-2.839,-2.129 -5.368,-3.301 -7.497,-3.054c-0.216,0.37 -0.061,0.74 0.432,1.079c2.684,2.005 5.368,3.27 8.052,3.394c-2.191,0.431 -4.412,0.431 -6.602,-0.556c-0.123,0.432 -0.37,0.864 0,1.296c1.573,0.956 2.715,2.036 6.077,2.499c0,0.216 -0.709,0.246 -0.709,0.462c-2.191,0.124 -3.702,-0.617 -5.892,-1.665c-0.432,0.215 -0.617,0.524 -0.556,0.987c1.574,2.313 3.085,4.719 5.183,6.54c-0.216,0.061 -0.432,0.154 -0.648,0.215c-2.745,-1.789 -3.887,-3.177 -5.522,-4.688c-0.185,0.431 -0.586,0.863 0,1.295c1.82,1.82 3.455,3.178 6.077,6.756c-0.092,0.463 -0.308,0.586 -0.647,0.339c-2.283,-2.252 -2.314,-2.097 -5.522,-2.498c0.092,2.467 4.226,2.375 6.663,6.354c-0.185,0.062 -0.093,0.309 -0.278,0.401c-2.252,-1.172 -2.128,-1.079 -4.627,-0.555c0.956,0.648 1.913,1.296 2.869,1.974l0,0.648c-1.635,-0.678 -3.023,-0.709 -4.411,-0.648c1.295,1.018 2.56,2.036 3.856,3.054c0.462,0.34 0.308,0.556 -0.432,0.648c-1.388,-0.463 -2.807,-0.956 -4.196,-1.419c1.481,1.357 2.684,2.345 4.134,3.671c0.37,0.525 0.185,0.802 -0.185,0.864c-2.715,-1.635 -3.054,-2.314 -6.046,-1.604l0,1.203c2.807,0 2.498,-0.34 4.195,1.851c-1.203,-0.556 -1.542,-0.648 -2.869,-0.648c0.586,1.172 0.895,2.314 2.746,3.486c2.807,2.128 -3.733,-0.432 -4.843,-1.975c-1.234,-0.863 -2.499,-1.48 -3.764,-1.85c-0.278,1.079 -0.463,2.19 0,3.269c1.357,2.222 2.715,4.443 4.072,6.664c1.141,1.203 2.19,2.591 3.332,3.763c1.511,1.08 2.375,2.283 3.887,3.363c3.794,3.177 8.144,5.275 8.113,10.858c9.223,2.592 10.673,-13.079 9.47,-14.622c-4.288,-9.563 -1.326,-16.874 4.751,-21.038l0,0.647c-2.838,3.178 -3.394,4.042 -4.627,8.052c0.185,0.709 0.154,1.697 1.11,1.419c1.265,-1.512 2.746,-2.807 4.411,-3.918c0.741,0.124 0.895,0.494 0.432,1.08c-2.252,3.362 -2.745,4.072 -3.208,8.051c0.278,0.154 0.586,0.278 0.895,0.432c0.894,-0.987 1.758,-1.974 2.653,-2.93c0.678,0.277 0.74,0.678 0.216,1.203c-2.653,1.943 0.061,11.475 -0.556,14.93c-0.864,4.813 -3.64,6.324 -7.496,9.255c0.895,3.671 0.679,4.38 -0.216,8.051c-0.308,-2.499 0.216,-4.072 -1.882,-5.46c-0.154,5.028 -3.763,8.021 -3.084,7.62c1.018,-2.962 1.881,-3.671 0.647,-6.54c-0.493,1.511 -1.079,2.992 -1.665,4.473c0.185,-1.481 0.216,-7.157 -0.124,-6.664c-0.339,0.031 -0.648,0.062 -0.987,0.093c-2.005,6.54 -3.887,8.236 -9.378,12.093c-0.771,0.493 -1.542,1.018 -2.313,1.511c-0.525,2.221 -0.155,2.807 0.555,5.028c0.401,0.864 0.802,1.759 1.203,2.622c0,2.036 0.092,1.944 -1.203,3.486c-1.08,0.401 -2.129,0.802 -3.208,1.203c-1.666,1.605 -3.301,3.209 -4.967,4.782c-0.309,2.221 -0.432,1.697 -2.653,2.283c0.154,0.586 0.309,1.172 0.432,1.758c-2.591,1.943 -3.301,2.19 -6.509,2.838c-0.185,-0.278 -0.37,-0.586 -0.555,-0.864c0.462,-0.987 0.956,-1.974 1.419,-2.93c1.11,-1.358 1.974,-3.394 3.732,-3.394c0.031,-0.277 0.062,-0.586 0.124,-0.863c0.709,-0.525 1.573,-1.018 2.282,-1.512c1.851,-1.758 3.486,-3.486 5.337,-5.244c0.401,-0.648 0.401,-1.296 0.34,-1.974c-0.34,-0.587 -0.679,-1.173 -0.988,-1.759c-0.37,-0.864 -0.74,-1.758 -1.11,-2.622c-0.432,0.062 -0.895,0.154 -1.327,0.216c-0.647,1.913 -0.123,2.036 -2.19,1.728c-1.789,-0.833 -3.609,-1.666 -5.398,-2.499c-1.543,-0.216 -3.085,-0.432 -4.628,-0.648c-1.758,-0.216 -2.591,-0.154 -4.072,-1.08c-0.894,0.031 -1.758,0.062 -2.652,0.093c-0.186,0.216 -0.371,0.432 -0.556,0.648c-3.115,0.123 -2.375,0.216 -4.812,-1.975c-0.401,-0.956 -1.172,-1.881 -1.573,-2.838c2.375,-0.37 3.701,-0.524 6.077,-0.216c0.401,0.278 0.802,0.587 1.203,0.864c2.313,0.185 3.733,0 5.738,1.203c1.912,0.432 3.825,0.864 5.737,1.296c0.833,-0.062 1.697,-0.154 2.53,-0.216c0.216,-0.463 0.432,-0.956 0.679,-1.419c-0.155,-0.586 -0.309,-1.172 -0.432,-1.728c-1.851,-1.048 -3.085,-3.177 -3.301,-5.491c0,0 -1.727,-1.758 -2.036,-3.177c-0.709,-3.362 -2.653,-6.108 0.586,-6.725c0.494,-0.894 -2.591,-2.56 -3.517,-3.27c-3.917,-3.146 -7.989,-5.552 -8.483,-10.797c-0.802,-0.031 -1.604,-0.061 -2.437,-0.092c-2.591,0.247 -2.437,-0.185 -4.195,-1.851c-2.129,-0.679 -3.949,-1.944 -5.522,-3.609c0,0 -1.45,-0.988 -2.221,-0.988c-1.08,0 0.308,6.602 -0.093,7.435c1.142,1.141 1.234,0.894 1.111,2.499c1.049,1.234 1.604,1.542 1.758,3.146c0.154,0.401 0.278,0.802 0.432,1.203c2.098,0.432 1.45,-0.061 1.789,1.851c0.216,1.203 -0.031,2.715 -0.031,2.715c-0.154,0.555 -0.308,1.079 -0.431,1.635c0,0 -1.419,-0.432 -2.098,-1.08c-1.481,-1.481 -1.604,-1.049 -1.327,-3.054c-0.894,-0.37 -0.956,-0.617 -1.542,-1.419c0,0 0.339,-0.339 -0.432,-0.864c-1.265,-0.894 -0.987,-0.709 -0.987,-2.282l0,-1.42c0,-0.555 0.432,-0.431 -0.123,-1.634c-0.556,-1.204 -0.34,-0.34 -0.988,-1.975c-0.339,-0.709 -0.03,-1.974 -0.123,-2.19c-0.71,-1.943 -0.679,-2.591 -0.895,-2.499c-0.061,0.648 -0.154,1.296 -0.216,1.975l0,0.863c-0.678,1.358 -0.925,1.851 -1.881,3.394c-1.296,0.37 -2.098,0.586 -2.098,-1.419c0,-2.067 -0.031,-2.314 0.895,-4.134c0.123,-0.463 0.216,-0.956 0.339,-1.419l0,-1.512c0,-2.252 0.37,-4.75 1.882,-6.539c0.925,-1.111 1.943,-4.659 2.313,-5.985c0.185,-1.851 -0.216,-1.974 1.419,-2.715c0.216,-1.11 2.869,-1.234 3.64,-0.771c0.556,0.339 1.543,1.296 1.543,1.296c2.067,1.264 4.164,2.313 5.954,4.349c0.802,0 1.604,0 2.437,0c0.709,-0.493 1.388,-1.018 2.097,-1.511c0.093,-0.895 2.993,-2.653 3.671,-2.252c1.111,-2.653 2.19,-3.856 4.35,-5.985c-0.432,-0.123 3.825,-7.28 4.535,-7.249c0.154,-0.74 0.678,-3.023 -0.309,-3.27c-1.296,0.401 -4.905,-0.154 -5.522,-1.203c-0.401,0 -0.524,0.185 -0.956,0.185c-0.401,0.123 -0.802,0.216 -1.203,0.339c-0.926,0.772 -1.111,0.278 -2.16,0.617c-0.647,0 -1.665,0.216 -1.881,-0.277c-0.401,-0.895 0.462,-0.772 1.018,-0.833c0.246,-0.062 0.524,-0.155 0.771,-0.216c1.203,-0.401 0.216,-0.463 -0.555,-0.864c-0.309,0.062 -0.586,0.154 -0.895,0.216l-1.419,0c-0.895,-0.339 -0.555,-0.216 -0.648,-1.265m-38.745,-25.388l113.213,0c1.049,0.154 1.45,1.111 1.512,2.067l-0.031,157.635c-0.154,0.987 -0.71,1.696 -1.759,1.727l-113.213,0c-1.049,-0.154 -1.45,-1.11 -1.511,-2.036l0,-157.635c0.185,-1.018 0.74,-1.696 1.789,-1.758" style="fill:#fff000;"/><rect x="37.758" y="4.103" width="116.483" height="7.311" style="fill:#009844;"/><rect x="37.758" y="11.445" width="116.483" height="7.311" style="fill:#fff;"/><rect x="37.758" y="18.756" width="116.483" height="7.311" style="fill:#e50012;"/></g></svg>