<svg width="143" height="62" viewBox="0 0 143 62" fill="none" xmlns="http://www.w3.org/2000/svg">
<path d="M9.17815 26.0723C9.18361 25.8657 9.21412 25.6605 9.26902 25.4612C9.36749 25.2787 9.4815 25.105 9.60978 24.9421C9.95314 24.6654 10.3872 24.5265 10.8274 24.5525H11.6498V20.0091H9.87557C8.24142 19.9206 6.63852 20.4815 5.4162 21.5698C4.83559 22.0904 4.38974 22.744 4.11679 23.4746C3.83709 24.1913 3.70422 24.9568 3.72605 25.7258V26.505H1V30.7077H3.72605V41.0542H9.26902V30.7043H13.9885V41.0508H19.4872V26.505H9.17815V26.0723Z" fill="#6B42EA"/>
<path d="M35.8071 26.4164C35.0722 26.1527 34.2925 26.0369 33.5127 26.0757C32.6658 26.0615 31.8253 26.2236 31.0445 26.5516C30.2765 26.8851 29.5844 27.3712 29.0101 27.9805V26.0757H23.558V41.0939H29.0999V34.1232C29.0257 33.2641 29.2556 32.4061 29.7496 31.6993C29.9579 31.4385 30.2249 31.2306 30.5288 31.0927C30.843 30.9546 31.1817 30.8808 31.5249 30.8758C31.8043 30.8731 32.0822 30.9168 32.3473 31.0053C32.6179 31.0966 32.8578 31.2613 33.0402 31.4812C33.437 31.9513 33.64 32.5547 33.6081 33.1691V41.0485H39.1499V32.0457C39.2136 31.2585 39.1201 30.4664 38.8748 29.7157C38.6295 28.9649 38.2373 28.2704 37.721 27.6727C37.1955 27.1036 36.5383 26.6722 35.8071 26.4164Z" fill="#6B42EA"/>
<path d="M54.7645 28.1486C54.0436 27.4199 53.1716 26.8585 52.2099 26.5039C51.2458 26.1292 50.2121 25.9668 49.1795 26.0279C47.0413 25.9784 44.9659 26.7531 43.3832 28.1917C42.5974 28.8905 41.9889 29.7661 41.6079 30.7463C41.2037 31.7041 41.01 32.7376 41.04 33.7767C40.9887 34.8175 41.1833 35.8556 41.6079 36.8072C42.0008 37.7685 42.608 38.6275 43.3832 39.3186C44.9515 40.7883 47.0354 41.5815 49.184 41.5267C50.8075 41.5827 52.4135 41.1774 53.816 40.3579C55.1536 39.5726 56.1784 38.3491 56.717 36.8947L51.7817 35.9417C51.5496 36.4116 51.1692 36.7921 50.6993 37.0241C50.2353 37.2729 49.708 37.3785 49.184 37.3274C48.8692 37.3501 48.553 37.308 48.2551 37.2036C47.9572 37.0993 47.6838 36.935 47.4519 36.7209C46.9744 36.2823 46.6419 35.7085 46.4989 35.0762H56.976V34.0369C57.037 32.962 56.875 31.8861 56.5001 30.8769C56.0994 29.8658 55.5104 28.94 54.7645 28.1486ZM46.5386 32.132C46.7105 31.5737 47.0603 31.087 47.5348 30.7463C48.0149 30.4396 48.5722 30.2753 49.142 30.2726C49.7051 30.2651 50.2543 30.448 50.7004 30.7917C51.1396 31.1301 51.4582 31.6008 51.6091 32.1343L46.5386 32.132Z" fill="#6B42EA"/>
<path d="M86.289 33.2145L83.8186 26.5038H80.1838L77.7156 33.2145L75.7665 26.5038H65.4189V22.4341H64.4238L57.6269 29.6638V30.7031H59.9213V35.6816C59.8825 36.4755 59.9983 37.2693 60.2621 38.0191C60.5696 38.7695 61.0094 39.4585 61.5604 40.0535C62.1678 40.5882 62.8734 40.9998 63.6378 41.2654C64.4013 41.5391 65.2154 41.6426 66.0231 41.5687C67.5035 41.5758 68.9631 41.2193 70.2735 40.5305L69.191 36.4608C68.6035 36.7699 67.9501 36.9331 67.2862 36.9367C67.0269 36.9872 66.7591 36.9724 66.507 36.8935C66.2618 36.8189 66.0387 36.685 65.8574 36.5038C65.6762 36.3225 65.5423 36.0994 65.4677 35.8542C65.3889 35.6169 65.374 35.363 65.4245 35.1182V30.7031H71.7024L74.9964 41.0496H79.5398L82.0012 33.8176L84.4717 41.0496H89.1912L93.6891 26.5038H88.2779L86.289 33.2145Z" fill="#6B42EA"/>
<path d="M108.279 28.2362C106.661 26.7631 104.536 25.972 102.348 26.0281C100.183 25.9848 98.0815 26.7576 96.4606 28.193C95.6729 28.8923 95.039 29.7474 94.5989 30.7044C94.1622 31.6531 93.9544 32.6911 93.9924 33.7348C93.9544 34.7785 94.1622 35.8166 94.5989 36.7653C95.0238 37.7312 95.6599 38.5894 96.4606 39.2767C98.0772 40.7246 100.179 41.5127 102.349 41.4848C104.526 41.5212 106.639 40.7499 108.28 39.3198C109.068 38.6207 109.702 37.7655 110.142 36.8085C110.579 35.8597 110.786 34.8217 110.749 33.778C110.786 32.7343 110.579 31.6962 110.142 30.7475C109.691 29.797 109.058 28.9439 108.279 28.2362ZM104.47 36.0736C104.216 36.4138 103.89 36.6945 103.517 36.8959C103.141 37.0938 102.728 37.21 102.305 37.2367C101.905 37.2315 101.51 37.1582 101.136 37.0197C100.769 36.8653 100.443 36.6281 100.183 36.3268C99.8635 36.0138 99.6256 35.6273 99.4899 35.2012C99.3341 34.7866 99.2604 34.3457 99.273 33.9029C99.239 33.459 99.3134 33.0134 99.4899 32.6047C99.652 32.1811 99.903 31.7973 100.226 31.479C100.495 31.1872 100.818 30.9517 101.179 30.7862C101.548 30.6309 101.947 30.5569 102.348 30.5692C102.747 30.5743 103.142 30.6477 103.517 30.7862C103.89 30.9508 104.228 31.1861 104.513 31.479C105.086 32.1072 105.409 32.9233 105.421 33.7734C105.381 34.6255 105.044 35.4366 104.47 36.0667V36.0736Z" fill="#6B42EA"/>
<path d="M120.185 27.1105C119.327 27.6632 118.638 28.4422 118.194 29.3617V26.5039H112.652V41.094H118.194V36.7641C118.116 36.1067 118.19 35.4402 118.411 34.8161C118.631 34.1975 118.986 33.6357 119.45 33.1714C120.508 32.3826 121.814 31.9986 123.13 32.0889H123.996L124.213 26.4176C123.854 26.3673 123.493 26.3385 123.13 26.3313C122.094 26.3009 121.071 26.5715 120.185 27.1105Z" fill="#6B42EA"/>
<path d="M136.549 33.4314L142.438 26.5027H135.901L131.874 31.3085H131.225V20.0101H125.772V41.0939H131.225V36.2449H132.133L136.117 41.0939H143L136.549 33.4314Z" fill="#6B42EA"/>
<path d="M19.4429 20.0101H13.9442V24.5536H19.486L19.4429 20.0101Z" fill="#6B42EA"/>
</svg>
