<?xml version="1.0" encoding="UTF-8" standalone="no"?><!DOCTYPE svg PUBLIC "-//W3C//DTD SVG 1.1//EN" "http://www.w3.org/Graphics/SVG/1.1/DTD/svg11.dtd"><svg width="100%" height="100%" viewBox="0 0 192 192" version="1.1" xmlns="http://www.w3.org/2000/svg" xmlns:xlink="http://www.w3.org/1999/xlink" xml:space="preserve" xmlns:serif="http://www.serif.com/" style="fill-rule:evenodd;clip-rule:evenodd;stroke-linejoin:round;stroke-miterlimit:1.41421;"><g id="Layer-1" serif:id="Layer 1"><path id="path3014" d="M96.001,61.448c-53.04,0 -96.001,15.444 -96.001,34.553c0,19.102 42.961,34.551 96.001,34.551c53.044,0 95.999,-15.449 95.999,-34.551c0,-19.109 -42.955,-34.553 -95.999,-34.553Z" style="fill:#064a93;fill-rule:nonzero;"/><path id="path3098" d="M135.1,103.37c-0.012,-0.029 -0.019,-0.06 -0.02,-0.094c0.001,0.009 0.001,0.012 0.001,0.017c0.031,0.323 0.116,0.93 0.185,1.383c0.107,-0.203 0.214,-0.419 0.327,-0.649c0.085,-0.173 0.042,-0.227 -0.032,-0.255c-0.214,-0.076 -0.432,-0.236 -0.461,-0.402l0,0Z" style="fill:url(#_Linear1);fill-rule:nonzero;"/><path id="path3119" d="M138.811,98.483c0.03,0.346 0.295,0.388 0.512,0.084c0.057,-0.084 0.122,-0.187 0.199,-0.303c-0.061,-0.082 -0.123,-0.161 -0.188,-0.242c-0.303,-0.355 -1.022,-1.12 -1.718,-1.721c0.692,0.653 1.115,1.451 1.195,2.182Z" style="fill:url(#_Linear2);fill-rule:nonzero;"/><path id="path3413" d="M124.93,74.658c0.032,0.045 0.06,0.092 0.088,0.143c-0.028,-0.055 -0.056,-0.105 -0.088,-0.143Z" style="fill:url(#_Linear3);fill-rule:nonzero;"/><path id="path3534" d="M96.492,127.521c-51.076,0 -92.479,-14.268 -92.479,-31.868c0,-17.604 41.404,-31.87 92.479,-31.87c51.071,0 92.473,14.266 92.473,31.87c0,17.6 -41.402,31.868 -92.473,31.868Zm0,-60.978c-49.281,0 -89.227,13.03 -89.227,29.109c0,16.079 39.946,29.111 89.227,29.111c49.281,0 89.224,-13.032 89.224,-29.111c0,-16.079 -39.943,-29.109 -89.224,-29.109Z" style="fill:#fff;fill-rule:nonzero;"/><path id="path3549" d="M154.072,85.225c0.128,-0.222 -0.006,-0.385 -0.289,-0.385c-1.477,0 -3.414,0.004 -4.953,0.004c-0.367,0 -0.556,0.044 -0.729,0.381c-0.568,1.078 -7.49,11.348 -8.778,13.342c-0.217,0.304 -0.482,0.262 -0.513,-0.084c-0.13,-1.184 -1.163,-2.546 -2.791,-3.197c-1.241,-0.499 -2.454,-0.589 -3.714,-0.423c-2.276,0.302 -4.305,1.492 -6.088,2.832c-2.688,2.024 -5.006,4.646 -7.999,6.583c-1.635,1.054 -3.872,1.974 -5.369,0.601c-1.355,-1.243 -1.202,-4.007 0.871,-6.143c0.219,-0.224 0.48,-0.037 0.439,0.164c-0.195,0.967 0.046,1.928 0.786,2.602c0.904,0.802 2.199,0.893 3.306,0.358c1.308,-0.642 2.076,-1.88 2.3,-3.286c0.347,-2.181 -1.349,-4.104 -3.47,-4.258c-1.723,-0.12 -3.375,0.474 -4.985,1.79c-0.807,0.663 -1.267,1.153 -1.964,2.136c-0.17,0.241 -0.432,0.266 -0.423,-0.091c0.081,-2.792 -1.086,-4.363 -3.418,-4.414c-1.809,-0.042 -3.742,0.929 -5.249,2.119c-1.651,1.313 -3.096,3.053 -4.643,4.689c-0.193,0.201 -0.361,0.192 -0.415,-0.199c-0.047,-1.85 -0.516,-3.642 -1.381,-4.914c-0.306,-0.442 -0.949,-0.662 -1.49,-0.362c-0.25,0.135 -1.12,0.531 -1.752,1.036c-0.315,0.256 -0.436,0.626 -0.299,1.101c0.836,2.763 0.652,5.905 -0.48,8.559c-1.04,2.43 -3.06,4.623 -5.435,5.365c-1.565,0.491 -3.192,0.25 -4.198,-1.123c-1.383,-1.896 -0.824,-5.192 1.236,-7.929c1.819,-2.41 4.448,-3.941 7.072,-4.927c0.309,-0.118 0.373,-0.314 0.285,-0.574c-0.143,-0.428 -0.369,-1.008 -0.463,-1.274c-0.24,-0.634 -0.914,-0.738 -1.736,-0.649c-1.907,0.22 -3.626,0.867 -5.325,1.767c-4.448,2.359 -6.678,6.924 -7.656,9.366c-0.47,1.172 -0.873,1.904 -1.393,2.553c-0.701,0.873 -1.581,1.667 -3.191,3.067c-0.145,0.128 -0.254,0.396 -0.132,0.645c0.165,0.337 1.002,1.507 1.238,1.611c0.262,0.128 0.567,-0.05 0.688,-0.137c1.127,-0.756 2.474,-1.954 3.134,-2.767c0.231,-0.278 0.468,-0.161 0.591,0.262c0.615,2.174 2.227,3.949 4.455,4.691c4.079,1.362 8.31,-0.61 11.502,-4.041c2.03,-2.181 2.762,-3.584 3.539,-4.537c1.318,-1.618 3.919,-5.236 7.016,-7.559c1.136,-0.856 2.48,-1.509 3.156,-1.076c0.542,0.348 0.717,1.157 -0.153,2.725c-3.157,5.709 -7.804,12.417 -8.656,14.044c-0.155,0.282 -0.02,0.504 0.279,0.504c1.652,-0.008 3.29,-0.004 4.79,-0.004c0.25,-0.012 0.362,-0.125 0.487,-0.299c2.423,-3.756 4.703,-7.331 7.148,-11.027c0.137,-0.218 0.263,-0.049 0.268,0.046c0.051,0.857 0.263,2.031 0.777,2.801c0.924,1.424 2.234,2.036 3.686,2.045c1.156,0.013 1.74,-0.161 2.986,-0.621c1.014,-0.373 1.828,-0.862 2.453,-1.304c0.365,-0.251 0.429,0.169 0.419,0.234c-0.56,2.981 0.132,6.514 3.125,7.979c3.582,1.748 7.517,-0.709 9.781,-2.927c0.221,-0.214 0.459,-0.192 0.482,0.269c0.048,0.847 0.434,1.852 1.142,2.556c1.897,1.885 5.726,1.138 9.568,-1.807c2.467,-1.885 5.048,-4.549 7.38,-7.37c0.087,-0.108 0.151,-0.285 -0.016,-0.461c-0.355,-0.368 -0.869,-0.79 -1.221,-1.114c-0.16,-0.135 -0.396,-0.096 -0.531,0.005c-2.39,2.251 -4.542,4.817 -7.651,6.94c-1.049,0.725 -2.719,1.309 -3.47,0.303c-0.293,-0.39 -0.26,-0.931 0.029,-1.639c0.907,-2.24 15.26,-23.877 16.005,-25.153l0,0Zm-18.972,18.145c0.029,0.166 0.247,0.326 0.461,0.402c0.074,0.028 0.117,0.082 0.032,0.255c-0.611,1.296 -1.172,2.043 -1.937,3.167c-0.703,1.04 -1.496,1.852 -2.456,2.631c-1.447,1.187 -3.457,2.478 -5.12,1.61c-0.738,-0.38 -1.057,-1.402 -1.042,-2.231c0.038,-2.329 1.081,-4.719 3.013,-7.069c2.355,-2.871 4.959,-4.36 6.668,-3.546c1.768,0.835 1.203,2.862 0.413,4.453c-0.06,0.123 -0.064,0.227 -0.032,0.328l0,0Z" style="fill:#fff;fill-rule:nonzero;"/><path id="path3564" d="M49.959,115.688c-5.352,0.038 -10.067,-3.238 -10.607,-8.907c-0.301,-3.142 0.596,-5.942 2.391,-8.248c1.593,-2.055 4.289,-3.763 6.57,-4.18c0.743,-0.135 1.741,-0.049 2.153,0.438c0.647,0.745 0.461,1.564 -0.185,1.891c-1.741,0.88 -3.836,2.387 -4.872,4.444c-0.842,1.679 -1.011,3.703 0.273,5.63c2.149,3.214 8.14,3.302 13.71,-1.822c1.379,-1.254 2.614,-2.459 3.869,-3.886c2.453,-2.777 3.269,-3.79 6.53,-8.269c0.04,-0.051 0.05,-0.119 0.033,-0.152c-0.027,-0.058 -0.072,-0.074 -0.167,-0.079c-2.177,0.059 -4.075,0.702 -5.92,2.067c-0.531,0.383 -1.296,0.33 -1.63,-0.175c-0.373,-0.571 -0.106,-1.315 0.507,-1.734c2.968,-2.044 6.21,-2.414 9.521,-2.968c-0.003,0 0.23,0.011 0.419,-0.238c1.359,-1.727 2.386,-3.285 3.834,-5.032c1.46,-1.772 3.346,-3.399 4.787,-4.621c2.011,-1.713 3.3,-2.288 4.611,-2.995c0.345,-0.178 -0.044,-0.392 -0.149,-0.392c-7.318,-1.362 -14.924,-3.124 -22.193,-0.46c-5.032,1.86 -7.238,5.812 -6.177,8.453c0.754,1.873 3.243,2.178 5.572,1.049c1.935,-0.939 3.725,-2.451 4.994,-4.399c0.711,-1.081 2.207,-0.301 1.399,1.577c-2.126,4.949 -6.19,8.875 -11.139,9.041c-4.211,0.135 -6.929,-2.933 -6.92,-6.718c0.015,-7.465 8.411,-12.383 17.232,-13.118c10.623,-0.869 20.685,1.932 31.233,3.199c8.081,0.969 15.829,0.99 23.952,-0.859c0.96,-0.206 1.634,0.401 1.572,1.361c-0.08,1.388 -1.165,2.725 -3.841,4.17c-3.042,1.652 -6.225,2.153 -9.549,2.18c-8.039,0.066 -15.527,-3.036 -23.276,-4.703c0.011,0.335 0.098,0.737 -0.186,0.948c-4.292,3.135 -8.172,6.318 -10.77,10.788c-0.088,0.104 -0.04,0.202 0.111,0.192c2.256,-0.119 4.285,-0.177 6.392,-0.343c0.367,-0.031 0.381,-0.121 0.348,-0.388c-0.185,-1.541 0.269,-3.298 1.638,-4.507c1.401,-1.244 3.156,-1.385 4.318,-0.489c1.324,1.02 1.207,2.855 0.483,4.231c-0.736,1.397 -1.952,2.143 -3.12,2.505c0,0 -0.244,0.054 -0.208,0.274c0.046,0.352 1.636,1.225 1.772,1.457c0.131,0.221 0.064,0.564 -0.178,0.827c-0.169,0.19 -0.432,0.37 -0.769,0.363c-0.274,-0.005 -0.44,-0.098 -0.787,-0.285c-0.715,-0.383 -1.606,-1.012 -2.2,-1.754c-0.204,-0.251 -0.306,-0.256 -0.813,-0.229c-2.279,0.13 -5.833,0.47 -8.241,0.769c-0.583,0.071 -0.669,0.179 -0.789,0.379c-3.839,6.269 -7.938,13.028 -12.438,17.554c-4.828,4.852 -8.841,6.129 -13.1,6.163l0,0Zm36.583,-27.853c0.061,0.322 0.188,0.384 0.334,0.357c0.731,-0.145 1.532,-0.741 2.005,-1.431c0.432,-0.625 0.635,-1.529 0.206,-1.891c-0.383,-0.325 -1.005,-0.232 -1.466,0.171c-0.918,0.803 -1.198,1.943 -1.079,2.794" style="fill:#fff;fill-rule:nonzero;"/></g><defs><linearGradient id="_Linear1" x1="0" y1="0" x2="1" y2="0" gradientUnits="userSpaceOnUse" gradientTransform="matrix(3.18079e-15,-51.9463,51.9463,3.18079e-15,135.36,120.347)"><stop offset="0" style="stop-color:#00053e;stop-opacity:1"/><stop offset="0.17" style="stop-color:#00073f;stop-opacity:1"/><stop offset="0.33" style="stop-color:#001046;stop-opacity:1"/><stop offset="0.48" style="stop-color:#001950;stop-opacity:1"/><stop offset="0.62" style="stop-color:#00245d;stop-opacity:1"/><stop offset="0.76" style="stop-color:#002f6d;stop-opacity:1"/><stop offset="0.81" style="stop-color:#003475;stop-opacity:1"/><stop offset="0.92" style="stop-color:#005693;stop-opacity:1"/><stop offset="1" style="stop-color:#006ca9;stop-opacity:1"/></linearGradient><linearGradient id="_Linear2" x1="0" y1="0" x2="1" y2="0" gradientUnits="userSpaceOnUse" gradientTransform="matrix(3.17259e-15,-51.8123,51.8123,3.17259e-15,138.57,120.302)"><stop offset="0" style="stop-color:#00053e;stop-opacity:1"/><stop offset="0.17" style="stop-color:#00073f;stop-opacity:1"/><stop offset="0.33" style="stop-color:#001046;stop-opacity:1"/><stop offset="0.48" style="stop-color:#001950;stop-opacity:1"/><stop offset="0.62" style="stop-color:#00245d;stop-opacity:1"/><stop offset="0.76" style="stop-color:#002f6d;stop-opacity:1"/><stop offset="0.81" style="stop-color:#003475;stop-opacity:1"/><stop offset="0.92" style="stop-color:#005693;stop-opacity:1"/><stop offset="1" style="stop-color:#006ca9;stop-opacity:1"/></linearGradient><linearGradient id="_Linear3" x1="0" y1="0" x2="1" y2="0" gradientUnits="userSpaceOnUse" gradientTransform="matrix(3.12826e-15,-51.0883,51.0883,3.12826e-15,124.974,119.653)"><stop offset="0" style="stop-color:#00053e;stop-opacity:1"/><stop offset="0.17" style="stop-color:#00073f;stop-opacity:1"/><stop offset="0.33" style="stop-color:#001046;stop-opacity:1"/><stop offset="0.48" style="stop-color:#001950;stop-opacity:1"/><stop offset="0.62" style="stop-color:#00245d;stop-opacity:1"/><stop offset="0.76" style="stop-color:#002f6d;stop-opacity:1"/><stop offset="0.81" style="stop-color:#003475;stop-opacity:1"/><stop offset="0.92" style="stop-color:#005693;stop-opacity:1"/><stop offset="1" style="stop-color:#006ca9;stop-opacity:1"/></linearGradient></defs></svg>