<svg width="143" height="62" viewBox="0 0 143 62" fill="none" xmlns="http://www.w3.org/2000/svg">
<path d="M36.0871 30.8012C36.1665 31.1867 36.1664 31.5722 36.1664 32.0349C36.1664 36.0442 33.2319 38.897 29.187 38.897C25.1421 38.897 21.8903 35.89 21.8903 32.0349C21.8903 28.1797 25.0627 25.1727 29.1077 25.1727C32.1215 25.1727 34.7388 26.5606 35.6906 29.105L32.5181 29.9531C31.725 28.4881 30.456 28.1026 29.1077 28.1026C26.8869 28.1026 25.2214 29.7989 25.2214 32.0349C25.2214 34.2708 26.9662 35.9671 29.187 35.9671C30.9318 35.9671 32.2802 35.0419 32.756 33.5769H28.6318V30.8012H36.0871Z" fill="white"/>
<path d="M43.5422 34.6567V34.4254H41.3215C40.5283 34.4254 39.9731 34.8109 39.9731 35.4277C39.9731 36.0445 40.5283 36.43 41.4008 36.43C42.5904 36.5072 43.5422 35.8132 43.5422 34.6567ZM46.7147 32.3436V38.5889H43.6215V37.895C42.9077 38.5118 41.9559 38.8973 40.6076 38.8973C38.3076 38.8973 36.8007 37.5866 36.8007 35.659C36.8007 33.7315 38.3076 32.4978 41.0042 32.4978H43.6215V32.2665C43.6215 31.4184 43.0663 30.8787 42.1939 30.8787C41.2421 30.8787 40.687 31.2642 40.5283 32.1123L37.5145 31.4955C37.9903 29.5679 39.7352 28.4114 42.1939 28.4114C44.8905 28.4114 46.7147 29.7992 46.7147 32.3436Z" fill="white"/>
<path d="M58.2152 32.4978V38.5118H54.9634V33.1146C54.9634 31.9581 54.2496 31.1871 53.2185 31.1871C51.9495 31.1871 51.0771 32.0352 51.0771 33.9628V38.5118H47.8253V28.7198H51.0771V29.645C51.8702 28.7969 52.9806 28.4114 54.1703 28.4114C56.629 28.4114 58.2152 30.0305 58.2152 32.4978Z" fill="white"/>
<path d="M65.9085 34.6567V34.4254H63.6878C62.8946 34.4254 62.3394 34.8109 62.3394 35.4277C62.3394 36.0445 62.8946 36.43 63.7671 36.43C64.8774 36.5072 65.9085 35.8132 65.9085 34.6567ZM69.0017 32.3436V38.5889H65.9085V37.895C65.1947 38.5118 64.2429 38.8973 62.8946 38.8973C60.5946 38.8973 59.0876 37.5866 59.0876 35.659C59.0876 33.7315 60.5946 32.4978 63.2912 32.4978H65.9085V32.2665C65.9085 31.4184 65.3533 30.8787 64.4809 30.8787C63.5291 30.8787 62.9739 31.2642 62.8153 32.1123L59.8015 31.4955C60.2773 29.5679 62.0222 28.4114 64.4809 28.4114C67.2568 28.4114 69.0017 29.7992 69.0017 32.3436Z" fill="white"/>
<path d="M84.6263 38.5886H74.0778V25.4041H84.547V28.1797H77.4089V30.647H83.9918V33.3456H77.4089V35.8129H84.6263V38.5886Z" fill="white"/>
<path d="M95.9678 32.4978V38.5118H92.716V33.1146C92.716 31.9581 92.0022 31.1871 90.9711 31.1871C89.7021 31.1871 88.8297 32.0352 88.8297 33.9628V38.5118H85.6572V28.7198H88.909V29.645C89.7021 28.7969 90.8918 28.4114 92.0022 28.4114C94.3816 28.4114 95.9678 30.0305 95.9678 32.4978Z" fill="white"/>
<path d="M100.171 32.4975H104.375C104.058 31.4181 103.264 30.9555 102.313 30.9555C101.282 30.9555 100.409 31.5723 100.171 32.4975ZM107.547 34.4251H100.092C100.33 35.5816 101.202 36.3527 102.313 36.3527C103.026 36.3527 103.899 36.1985 104.454 35.1961L107.309 35.7358C106.437 37.8176 104.613 38.8199 102.313 38.8199C99.3781 38.8199 96.9194 36.7382 96.9194 33.577C96.9194 30.4158 99.3781 28.334 102.313 28.334C105.168 28.334 107.468 30.3387 107.547 33.577V34.4251Z" fill="white"/>
<path d="M116.113 28.6425L115.955 31.8037H115.399C113.099 31.8037 111.91 32.9603 111.91 35.5047V38.5888H108.658V28.7196H111.91V30.5701C112.623 29.4136 113.734 28.5654 115.399 28.5654C115.637 28.5654 115.875 28.5654 116.113 28.6425Z" fill="white"/>
<path d="M124.599 33.6544C124.599 32.1123 123.41 31.11 122.141 31.11C120.713 31.11 119.682 32.1894 119.682 33.6544C119.682 35.1193 120.713 36.1987 122.141 36.1987C123.41 36.1987 124.599 35.1964 124.599 33.6544ZM127.851 38.7431C127.851 41.8272 125.155 43.4464 121.903 43.4464C119.603 43.4464 117.858 42.6754 116.827 41.0562L119.523 39.437C120.237 40.2852 120.872 40.6707 121.903 40.6707C123.33 40.6707 124.599 39.9768 124.599 38.4347V37.7408C123.806 38.4347 122.775 38.8973 121.427 38.8973C118.73 38.8973 116.51 36.8156 116.51 33.6544C116.51 30.4931 118.81 28.4114 121.427 28.4114C122.775 28.4114 123.806 28.7969 124.599 29.5679V28.7198H127.851V38.7431Z" fill="white"/>
<path d="M128.961 27.4089L130.389 24.4019H134.196L131.817 27.4089H128.961ZM128.803 38.5887H132.055V28.7196H128.803V38.5887Z" fill="white"/>
<path d="M139.907 34.6567V34.4254H137.686C136.893 34.4254 136.338 34.8109 136.338 35.4277C136.338 36.0445 136.893 36.43 137.765 36.43C138.876 36.5072 139.907 35.8132 139.907 34.6567ZM143 32.3436V38.5889H139.907V37.895C139.193 38.5118 138.241 38.8973 136.893 38.8973C134.593 38.8973 133.086 37.5866 133.086 35.659C133.086 33.7315 134.593 32.4978 137.289 32.4978H139.907V32.2665C139.907 31.4184 139.352 30.8787 138.479 30.8787C137.527 30.8787 136.972 31.2642 136.814 32.1123L133.8 31.4955C134.276 29.5679 136.02 28.4114 138.479 28.4114C141.176 28.4114 143 29.7992 143 32.3436Z" fill="white"/>
<path d="M7.29662 28.6425C7.13799 28.6425 6.97937 28.7967 6.97937 28.9509C6.97937 28.9509 6.97937 28.9509 6.97937 29.028C7.13799 30.2616 8.40699 31.1868 9.67598 30.9555C10.707 30.8013 11.5002 30.0303 11.6588 29.028C11.6588 28.8738 11.5795 28.7196 11.4209 28.7196C11.4209 28.7196 11.4209 28.7196 11.3415 28.7196H7.29662V28.6425Z" fill="white"/>
<path d="M6.97951 24.7102C6.34501 24.7102 5.86914 25.1728 5.86914 25.7896C5.86914 26.4065 6.34501 26.8691 6.97951 26.8691C7.61401 26.8691 8.08988 26.4065 8.08988 25.7896C8.08988 25.1728 7.61401 24.7102 6.97951 24.7102Z" fill="white"/>
<path d="M11.8178 24.7102C11.1833 24.7102 10.7074 25.1728 10.7074 25.7896C10.7074 26.4065 11.1833 26.8691 11.8178 26.8691C12.4523 26.8691 12.9281 26.4065 12.9281 25.7896C12.9281 25.1728 12.373 24.7102 11.8178 24.7102Z" fill="white"/>
<path d="M14.6728 30.2616C13.8796 31.5724 13.0072 33.1144 12.452 35.5046H6.34497C5.78979 33.1915 4.91735 31.5724 4.12423 30.2616C3.2518 28.7967 2.77593 27.9486 2.77593 26.0981C2.69661 22.5514 5.63116 19.6215 9.27952 19.5444C12.9279 19.4673 15.9417 22.3201 16.0211 25.8668C16.0211 25.9439 16.0211 26.021 16.0211 26.0981C16.0211 27.9486 15.4659 28.7967 14.6728 30.2616ZM9.35884 17C4.20355 17 0 21.0864 0 26.0981C0 28.6425 0.793122 30.0303 1.74487 31.5724C2.53799 32.9602 3.48974 34.5023 3.8863 37.0467C3.96561 37.6635 4.52079 38.2032 5.15529 38.2032H13.5624C14.2762 38.2032 14.8314 37.7406 14.9107 37.0467C15.3072 34.5023 16.259 32.9602 17.0521 31.5724C18.0039 30.0303 18.797 28.6425 18.797 26.0981C18.797 21.0864 14.5934 17 9.35884 17Z" fill="white"/>
<path d="M13.5624 39.2056H5.23466C4.44154 39.2056 3.88635 39.8224 3.88635 40.5163C3.88635 41.2873 4.52085 41.8271 5.23466 41.8271H13.6418C14.4349 41.8271 14.9901 41.2102 14.9901 40.5163C14.9901 39.8224 14.3556 39.2056 13.5624 39.2056Z" fill="white"/>
<path d="M12.2141 42.9066H6.58293C5.7898 42.9066 5.23462 43.5234 5.23462 44.2174C5.23462 44.9884 5.86912 45.5281 6.58293 45.5281H12.2141C13.0072 45.5281 13.5624 44.9113 13.5624 44.2174C13.5624 43.5234 12.9279 42.9066 12.2141 42.9066Z" fill="white"/>
</svg>
