<svg width="160" height="25" viewBox="0 0 160 25" fill="none" xmlns="http://www.w3.org/2000/svg">
<path d="M26.2552 24.8789H19.6904V15.4056H15.4435V24.8789H8.69922V0.438862H15.4285V9.56416H19.6755V0.438862H26.2403L26.2552 24.8789ZM56.3726 24.9849C63.1018 24.9849 68.59 19.3251 68.59 12.4243C68.59 5.41768 63.1018 0 56.3726 0C49.5535 0 46.1141 5.00908 45.2767 7.05206C45.2767 4.02542 42.2859 0.408596 38.8166 0.408596H27.6011V24.8789H38.039C42.2859 24.8789 45.2767 21.2016 45.2767 17.9782C46.2188 19.9758 49.5685 24.9849 56.3726 24.9849ZM37.2015 15.0575C38.1735 15.0575 38.9512 16.0109 38.9512 17.1005C38.9512 18.2355 38.1735 19.204 37.2015 19.204H33.8518V15.0575H37.2015ZM37.2015 5.87167C38.1735 5.87167 38.9512 6.82506 38.9512 7.91465C38.9512 9.00424 38.1735 9.95763 37.2015 9.95763H33.8518V5.87167H37.2015ZM41.6279 12.4243C42.4055 12.3789 43.6766 11.4709 44.1551 10.9261C43.9757 11.5769 43.9757 13.6501 44.1551 14.316C43.6168 13.5139 42.4055 12.5757 41.6279 12.4243ZM50.2414 12.4243C50.2414 8.97397 53.0079 6.18947 56.4174 6.2046C59.8419 6.23487 62.5635 9.04964 62.5186 12.5151C62.4738 15.9201 59.7522 18.6592 56.3726 18.6592C52.978 18.6743 50.2414 15.8898 50.2414 12.4243ZM56.3726 17.3275C58.9895 17.3275 61.1877 15.1483 61.1877 12.4243C61.1877 9.70036 58.9895 7.55145 56.3726 7.55145C53.6808 7.55145 51.5275 9.70036 51.5275 12.4243C51.5275 15.1483 53.6659 17.3275 56.3726 17.3275Z" fill="black"/>
<path d="M103.702 9.0799C103.568 3.1477 99.4255 0.0151332 94.3412 0.0151332C91.5597 0.0151332 89.0475 0.95339 87.3278 2.79964C85.623 0.968523 83.1107 0.0151332 80.3143 0.0151332C75.23 0.0151332 71.0877 3.16283 70.9531 9.09504V22.6544C70.9531 23.8953 71.955 24.8941 73.1663 24.8941H75.2599C75.4692 24.8941 75.6337 24.7276 75.6337 24.5157V9.1253C75.7235 6.2046 77.7721 4.66102 80.2994 4.66102C82.8266 4.66102 84.8753 6.2046 84.965 9.1253V22.6392C84.965 23.8801 85.9669 24.8789 87.1782 24.8789H89.2718C89.4811 24.8789 89.6456 24.7125 89.6456 24.5006V9.11017C89.7353 6.18947 91.784 4.64588 94.3113 4.64588C96.8385 4.64588 98.8872 6.18947 98.9769 9.11017V22.6241C98.9769 23.865 99.9788 24.8638 101.19 24.8638H103.284C103.493 24.8638 103.658 24.6973 103.658 24.4855L103.702 9.0799C103.717 9.11017 103.702 9.09504 103.702 9.0799ZM150.957 0.408596H147.398C146.411 0.408596 145.499 0.90799 144.931 1.74031L140.998 7.64225C140.474 8.41404 139.368 8.41404 138.844 7.64225L134.911 1.74031C134.373 0.90799 133.431 0.408596 132.444 0.408596H128.885C128.661 0.408596 128.541 0.650726 128.646 0.847458L135.674 11.3953C136.182 12.1519 136.182 13.1507 135.674 13.9074L128.646 24.4552C128.511 24.6368 128.661 24.8941 128.885 24.8941H132.444C133.431 24.8941 134.343 24.3947 134.911 23.5623L138.844 17.6604C139.368 16.8886 140.474 16.8886 140.998 17.6604L144.931 23.5623C145.469 24.3947 146.411 24.8941 147.398 24.8941H150.957C151.181 24.8941 151.301 24.6519 151.196 24.4552L144.168 13.9225C143.659 13.1659 143.659 12.1671 144.168 11.4104L151.196 0.862591C151.301 0.66586 151.166 0.408596 150.957 0.408596ZM127.031 0.408596H124.937C123.875 0.408596 122.978 1.16525 122.754 2.17918C120.885 0.726392 118.552 0 116.024 0C109.878 0 104.899 4.32809 104.899 12.5C104.899 20.6719 109.878 25 116.024 25C118.537 25 120.855 24.2736 122.724 22.8662C122.829 24.0012 123.771 24.9092 124.937 24.9092H127.031C127.24 24.9092 127.404 24.7427 127.404 24.5309V0.786925C127.39 0.575061 127.24 0.408596 127.031 0.408596ZM116.024 20.3541C112.361 20.3541 109.385 17.6453 109.385 12.5151C109.385 7.38499 112.361 4.67615 116.024 4.67615C119.688 4.67615 122.664 7.38499 122.664 12.5151C122.664 17.6453 119.688 20.3541 116.024 20.3541Z" fill="url(#paint0_linear_1162_390)"/>
<defs>
<linearGradient id="paint0_linear_1162_390" x1="70.9742" y1="12.495" x2="151.229" y2="12.495" gradientUnits="userSpaceOnUse">
<stop stop-color="#991EEB"/>
<stop offset="0.399" stop-color="#5822B4"/>
<stop offset="0.727" stop-color="#5822B4"/>
<stop offset="1" stop-color="#991EEB"/>
</linearGradient>
</defs>
</svg>
