<svg width="100" height="100" viewBox="0 0 100 100" fill="none" xmlns="http://www.w3.org/2000/svg">
<rect width="100" height="100" fill="url(#paint0_linear_307_30)"/>
<path d="M28 66.1406H41.7109V88.289H28V66.1406ZM59.2891 66.1406H73V88.289H59.2891V66.1406ZM28 55.242V12H41.7109V36.9609H42.0625V36.6093H42.414V36.2578H42.7656V35.9062H43.1171V35.5546H43.4687V35.2031H44.1718V34.8515H44.5234V34.4999H45.2265V34.1484H45.9297V33.7968H46.2812V33.4453H46.9843V33.0937H48.3906V32.7422H49.4453V32.3906H50.4999V32.039H52.9609V31.6875H56.125V32.039H59.2891V32.3906H60.3438V32.7422H61.3985V33.0937H62.4531V33.4453H63.1561V33.7968H63.8593V34.1484H64.5625V34.4999H65.2655V34.8515H65.6172V35.2031H66.3202V35.5546H66.6719V35.9062H67.0234V36.2578H67.3748V36.6093H67.7266V36.9609H68.078V37.3124H68.4295V37.664H68.7813V38.3671H69.1327V38.7188H69.4842V39.4218H69.8359V39.7735H70.1874V40.4764H70.5389V41.1797H70.8906V42.2343H71.2421V42.9376H71.5936V43.9922H71.9453V45.3984H72.2968V46.8046H72.6483V49.6171H73V55.242H59.2891V52.4297H58.9374V50.6718H58.5859V49.2657H58.2344V48.9139H57.8827V48.211H57.5312V47.5078H57.1797V46.8046H56.828V46.4531H56.4765V46.1016H55.7733V45.7499H55.4218V45.3984H55.0703V45.0469H54.3671V44.6952H53.664V44.3437H52.2578V43.9922H48.7422V44.3437H47.6875V44.6952H46.9843V45.0469H46.2812V45.3984H45.5781V45.7499H45.2265V46.1016H44.875V46.4531H44.5234V46.8046H44.1718V47.1563H43.8203V47.5078H43.4687V48.211H43.1171V48.9139H42.7656V49.6171H42.414V50.6718H42.0625V52.4297H41.7109V55.242H28Z" fill="url(#paint1_linear_307_30)"/>
<defs>
<linearGradient id="paint0_linear_307_30" x1="0" y1="50" x2="100" y2="50" gradientUnits="userSpaceOnUse">
<stop stop-color="#F9DC1A"/>
<stop offset="0.1875" stop-color="#F59E3D"/>
<stop offset="0.484375" stop-color="#F36C58"/>
<stop offset="0.92" stop-color="#ED0E8D"/>
</linearGradient>
<linearGradient id="paint1_linear_307_30" x1="326.969" y1="-1844.58" x2="27.3602" y2="-1844.58" gradientUnits="userSpaceOnUse">
<stop stop-color="white"/>
<stop offset="1" stop-color="white"/>
</linearGradient>
</defs>
</svg>
