<svg width="143" height="62" viewBox="0 0 143 62" fill="none" xmlns="http://www.w3.org/2000/svg">
<path d="M34.6772 48.7661V48.6034H34.0269V48.4409H33.3766V48.2784H32.7263V48.1157H32.2386V47.9532H31.9134V47.7906H31.5883V47.628H31.2632V47.4654H30.938V47.3029H30.6129V47.1403H30.4503V46.9777H30.2877V46.8152H30.1252V46.6525H29.8V46.49H29.6375V46.3275H29.4748V46.1648H29.1498V45.8398H28.9871V45.6771H28.8246V45.5146H28.662V45.352H28.4994V45.0269H28.3368V44.8643H28.1743V44.7017H28.0117V44.5391H27.8491V44.2139H27.6866V43.8889H27.5239V43.5637H27.3614V43.2385H27.1989V42.9134H27.0362V42.4257H26.8737V41.7753H26.7112V41.1251H26.5485V40.3122H26.386V38.0363H32.7263V39.3368H32.8889V40.1497H33.0515V40.7999H33.214V41.1251H33.3766V41.2876H33.5392V41.6128H33.7018V41.938H33.8643V42.1005H34.0269V42.2631H34.1895V42.4257H34.352V42.5883H34.6772V42.7508H34.8397V42.9134H35.1649V43.076H35.6526V43.2385H36.3029V43.4012H37.441V43.2385H38.0912V43.076H38.579V42.9134H38.7415V42.7508H39.0667V42.5883H39.2292V42.4257H39.3919V42.2631H39.7169V42.1005H39.8796V41.7753H40.0421V41.4503H40.2046V41.2876H40.3673V40.9626H40.5298V40.6374H40.6924V39.8245H40.855V38.0363H47.1954V40.6374H47.0327V41.2876H46.8702V41.938H46.7076V42.4257H46.545V42.9134H46.3825V43.2385H46.2199V43.5637H46.0573V43.8889H45.8947V44.2139H45.7322V44.5391H45.5696V44.7017H45.407V45.0269H45.2445V45.1894H45.0818V45.352H44.9193V45.5146H44.7568V45.8398H44.5941V46.0023H44.4316V46.1648H44.269V46.3275H43.9439V46.49H43.7813V46.6525H43.6187V46.8152H43.4561V46.9777H43.131V47.1403H42.9684V47.3029H42.6432V47.4654H42.3182V47.628H41.993V47.7906H41.6678V47.9532H41.3427V48.1157H40.855V48.2784H40.2046V48.4409H39.7169V48.6034H38.9041V48.7661H34.6772ZM68.1673 48.7661V48.6034H67.5169V48.4409H67.0292V48.2784H66.5415V48.1157H66.0538V47.9532H65.8912V47.7906H65.566V47.628H65.241V47.4654H64.9158V47.3029H64.7533V47.1403H64.5906V46.9777H64.4281V46.8152H64.2655V46.6525H64.1029V46.49H63.9404V46.3275H63.7778V46.1648H63.4526V45.8398H63.2901V45.6771H63.1275V45.352H62.9649V45.1894H62.8024V44.8643H62.6397V44.7017H62.4772V44.2139H62.3147V43.8889H62.152V43.4012H61.9895V43.076H61.8269V42.4257H61.6643V41.6128H61.5018V40.6374H61.3392V38.0363H67.8421V39.9871H68.0046V40.6374H68.1673V40.9626H68.3298V41.2876H68.4924V41.6128H68.655V41.938H68.8175V42.1005H68.9801V42.2631H69.3053V42.4257H69.4678V42.5883H69.793V42.7508H69.9555V42.9134H70.4432V43.076H71.0936V43.2385H72.3941V43.076H72.8818V42.9134H73.3696V42.7508H73.6947V42.5883H74.0199V42.4257H74.1825V42.2631H74.345V42.1005H74.5077V41.938H74.6702V41.7753H74.8327V41.6128H74.9954V41.4503H75.1579V41.1251H75.3204V40.7999H75.4831V40.3122H75.6456V39.4994H75.8082V38.0363H82.1485V48.2784H76.6211V47.628H76.4585V46.8152H76.2959V46.1648H76.1333V46.3275H75.9708V46.49H75.8082V46.6525H75.6456V46.8152H75.4831V46.9777H75.3204V47.1403H75.1579V47.3029H74.8327V47.4654H74.6702V47.628H74.345V47.7906H74.0199V47.9532H73.8573V48.1157H73.3696V48.2784H72.8818V48.4409H72.3941V48.6034H71.7439V48.7661H68.1673ZM103.771 48.7661V48.6034H103.12V48.4409H102.633V48.2784H101.982V48.1157H101.657V47.9532H101.495V47.7906H101.17V47.628H100.844V47.4654H100.519V47.3029H100.357V47.1403H100.194V46.9777H100.032V46.8152H99.8691V46.6525H99.7064V46.49H99.5439V46.3275H99.3813V46.1648H99.2187V45.8398H99.0561V45.6771H98.8936V45.352H98.731V45.1894H98.5684V44.8643H98.4059V44.5391H98.2432V44.0514H98.0807V43.7262H97.9182V43.2385H97.7555V42.4257H97.593V41.7753H97.4305V38.0363H103.771V39.6619H103.933V40.4748H104.096V40.9626H104.259V41.2876H104.421V41.6128H104.584V41.938H104.746V42.1005H104.909V42.2631H105.071V42.4257H105.397V42.5883H105.559V42.7508H105.722V42.9134H106.209V43.076H106.86V43.2385H108.16V43.076H108.811V42.9134H109.298V42.7508H109.461V42.5883H109.786V42.4257H109.949V42.2631H110.111V42.1005H110.436V41.938H110.599V41.6128H110.761V41.4503H110.924V41.1251H111.087V40.7999H111.249V40.4748H111.412V39.8245H111.574V38.0363H118.077V48.2784H112.387V47.4654H112.225V46.8152H112.062V46.0023H111.899V46.3275H111.737V46.49H111.574V46.6525H111.412V46.8152H111.249V46.9777H111.087V47.1403H110.761V47.3029H110.436V47.4654H110.274V47.628H109.949V47.7906H109.786V47.9532H109.461V48.1157H108.973V48.2784H108.485V48.4409H108.16V48.6034H107.347V48.7661H103.771ZM2 38.0363H8.34035V48.2784H2V38.0363ZM16.469 38.0363H22.8094V48.2784H16.469V38.0363ZM51.0971 38.0363H57.4375V48.2784H51.0971V38.0363ZM86.7006 38.0363H93.041V48.2784H86.7006V38.0363ZM121.166 48.2784V44.3766H121.329V44.2139H121.491V43.8889H121.654V43.7262H121.816V43.4012H121.979V43.2385H122.141V42.9134H122.304V42.7508H122.467V42.4257H122.629V42.2631H122.792V41.938H122.954V41.6128H123.117V41.4503H123.28V41.1251H123.442V40.9626H123.605V40.6374H123.767V40.4748H123.93V40.1497H124.092V39.9871H124.255V39.6619H124.418V39.4994H124.58V39.1742H124.743V39.0117H124.905V38.6865H125.067V38.524H125.231V38.1988H125.393V38.0363H132.383V38.3613H132.221V38.6865H132.059V38.849H131.896V39.1742H131.733V39.3368H131.571V39.6619H131.408V39.8245H131.246V40.1497H131.083V40.3122H130.92V40.6374H130.758V40.7999H130.596V41.1251H130.432V41.4503H130.27V41.6128H130.108V41.938H129.945V42.1005H129.782V42.4257H129.62V42.5883H129.457V42.9134H129.295V43.076H140.187V48.2784H121.166ZM2 32.9964V12.9999H8.34035V24.5426H8.50292V24.38H8.6655V24.2175H8.82807V24.0549H8.99064V23.8923H9.15322V23.7298H9.47836V23.5672H9.64094V23.4046H9.96608V23.242H10.2912V23.0795H10.4538V22.9169H10.7789V22.7543H11.4292V22.5918H11.917V22.4292H12.4047V22.2666H13.5427V22.104H15.0059V22.2666H16.469V22.4292H16.9568V22.5918H17.4445V22.7543H17.9322V22.9169H18.2573V23.0795H18.5825V23.242H18.9076V23.4046H19.2327V23.5672H19.3954V23.7298H19.7204V23.8923H19.8831V24.0549H20.0456V24.2175H20.2081V24.38H20.3708V24.5426H20.5333V24.7052H20.6959V24.8678H20.8585V25.1929H21.0211V25.3555H21.1836V25.6806H21.3462V25.8433H21.5088V26.1683H21.6713V26.4935H21.834V26.9812H21.9965V27.3064H22.159V27.7941H22.3217V28.4444H22.4842V29.0946H22.6467V30.3953H22.8094V32.9964H16.469V31.6959H16.3064V30.883H16.1439V30.2327H15.9813V30.0701H15.8187V29.745H15.6561V29.4198H15.4936V29.0946H15.331V28.9321H15.1684V28.7696H14.8432V28.6069H14.6807V28.4444H14.5182V28.2819H14.193V28.1192H13.8678V27.9567H13.2175V27.7941H11.5918V27.9567H11.1041V28.1192H10.7789V28.2819H10.4538V28.4444H10.1287V28.6069H9.96608V28.7696H9.80351V28.9321H9.64094V29.0946H9.47836V29.2573H9.31579V29.4198H9.15322V29.745H8.99064V30.0701H8.82807V30.3953H8.6655V30.883H8.50292V31.6959H8.34035V32.9964H2ZM26.386 32.9964V30.7205H26.5485V29.9076H26.7112V29.2573H26.8737V28.6069H27.0362V28.1192H27.1989V27.7941H27.3614V27.469H27.5239V27.1438H27.6866V26.8187H27.8491V26.4935H28.0117V26.331H28.1743V26.1683H28.3368V25.8433H28.4994V25.6806H28.662V25.5181H28.8246V25.3555H28.9871V25.1929H29.1498V24.8678H29.4748V24.7052H29.6375V24.5426H29.8V24.38H30.1252V24.2175H30.2877V24.0549H30.4503V23.8923H30.6129V23.7298H30.938V23.5672H31.2632V23.4046H31.5883V23.242H31.9134V23.0795H32.2386V22.9169H32.7263V22.7543H33.3766V22.5918H33.8643V22.4292H34.5147V22.2666H35.9778V22.104H37.6035V22.2666H39.0667V22.4292H39.7169V22.5918H40.3673V22.7543H41.0175V22.9169H41.3427V23.0795H41.6678V23.242H41.993V23.4046H42.3182V23.5672H42.6432V23.7298H42.9684V23.8923H43.131V24.0549H43.4561V24.2175H43.6187V24.38H43.7813V24.5426H43.9439V24.7052H44.269V24.8678H44.4316V25.0303H44.5941V25.1929H44.7568V25.5181H44.9193V25.6806H45.0818V25.8433H45.2445V26.0058H45.407V26.331H45.5696V26.4935H45.7322V26.8187H45.8947V27.1438H46.0573V27.469H46.2199V27.7941H46.3825V28.1192H46.545V28.6069H46.7076V29.0946H46.8702V29.745H47.0327V30.3953H47.1954V32.9964H40.855V31.2082H40.6924V30.3953H40.5298V30.0701H40.3673V29.745H40.2046V29.5824H40.0421V29.2573H39.8796V28.9321H39.7169V28.7696H39.5544V28.6069H39.2292V28.4444H39.0667V28.2819H38.7415V28.1192H38.579V27.9567H38.0912V27.7941H37.441V27.6315H36.1404V27.7941H35.4901V27.9567H35.0024V28.1192H34.8397V28.2819H34.6772V28.4444H34.352V28.6069H34.1895V28.7696H34.0269V28.9321H33.8643V29.0946H33.7018V29.4198H33.5392V29.745H33.3766V29.9076H33.214V30.2327H33.0515V30.883H32.8889V31.6959H32.7263V32.9964H26.386ZM51.0971 12.9999H57.4375V32.9964H51.0971V12.9999ZM61.3392 32.9964V30.3953H61.5018V29.4198H61.6643V28.6069H61.8269V27.9567H61.9895V27.6315H62.152V27.1438H62.3147V26.8187H62.4772V26.331H62.6397V26.1683H62.8024V25.8433H62.9649V25.6806H63.1275V25.3555H63.2901V25.1929H63.4526V24.8678H63.6152V24.7052H63.7778V24.5426H63.9404V24.38H64.1029V24.2175H64.4281V24.0549H64.5906V23.8923H64.7533V23.7298H64.9158V23.5672H65.241V23.4046H65.566V23.242H65.7287V23.0795H66.0538V22.9169H66.379V22.7543H66.8667V22.5918H67.5169V22.4292H68.0046V22.2666H69.3053V22.104H70.7684V22.2666H71.9064V22.4292H72.5568V22.5918H72.8818V22.7543H73.3696V22.9169H73.8573V23.0795H74.1825V23.242H74.345V23.4046H74.6702V23.5672H74.8327V23.7298H75.1579V23.8923H75.3204V24.0549H75.4831V24.2175H75.6456V24.38H75.8082V24.5426H75.9708V24.7052H76.1333V24.8678H76.2959V24.2175H76.4585V23.4046H76.6211V22.7543H82.1485V32.9964H75.8082V31.5332H75.6456V30.7205H75.4831V30.2327H75.3204V29.9076H75.1579V29.5824H74.9954V29.4198H74.8327V29.2573H74.6702V29.0946H74.5077V28.9321H74.345V28.7696H74.1825V28.6069H74.0199V28.4444H73.6947V28.2819H73.5322V28.1192H73.0445V27.9567H72.5568V27.7941H70.931V27.9567H70.2807V28.1192H69.9555V28.2819H69.6305V28.4444H69.4678V28.6069H69.3053V28.7696H68.9801V28.9321H68.8175V29.0946H68.655V29.4198H68.4924V29.745H68.3298V30.0701H68.1673V30.3953H68.0046V31.0455H67.8421V32.9964H61.3392ZM86.7006 12.9999H93.041V32.9964H86.7006V12.9999ZM97.4305 22.7543H103.771V32.9964H97.4305V22.7543ZM111.574 22.7543H118.077V32.9964H111.574V22.7543ZM128.969 32.9964V32.5087H129.133V32.3462H129.295V32.021H129.457V31.8584H129.62V31.5332H129.782V31.3707H129.945V31.0455H130.108V30.883H130.27V30.5578H130.432V30.3953H130.596V30.0701H130.758V29.9076H130.92V29.5824H131.083V29.2573H131.246V29.0946H131.408V28.7696H131.571V28.6069H131.733V28.2819H131.896V28.1192H132.059V27.9567H121.654V22.7543H140.025V26.6561H139.862V26.9812H139.699V27.1438H139.537V27.469H139.375V27.6315H139.211V27.9567H139.049V28.1192H138.887V28.4444H138.724V28.6069H138.561V28.9321H138.399V29.0946H138.236V29.4198H138.074V29.745H137.912V29.9076H137.748V30.2327H137.586V30.3953H137.424V30.7205H137.26V30.883H137.098V31.2082H136.936V31.3707H136.773V31.6959H136.611V31.8584H136.448V32.1836H136.285V32.3462H136.123V32.6713H135.961V32.8339H135.797V32.9964" fill="url(#paint0_linear_307_26)"/>
<defs>
<linearGradient id="paint0_linear_307_26" x1="140.253" y1="-845.541" x2="1.70412" y2="-845.541" gradientUnits="userSpaceOnUse">
<stop stop-color="white"/>
<stop offset="1" stop-color="white"/>
</linearGradient>
</defs>
</svg>
