<?xml version="1.0" encoding="UTF-8" standalone="no"?><!DOCTYPE svg PUBLIC "-//W3C//DTD SVG 1.1//EN" "http://www.w3.org/Graphics/SVG/1.1/DTD/svg11.dtd"><svg width="100%" height="100%" viewBox="0 0 192 192" version="1.1" xmlns="http://www.w3.org/2000/svg" xmlns:xlink="http://www.w3.org/1999/xlink" xml:space="preserve" xmlns:serif="http://www.serif.com/" style="fill-rule:evenodd;clip-rule:evenodd;stroke-linejoin:round;stroke-miterlimit:1.41421;"><g id="g2821"><path id="polygon2708" d="M19.862,142.184l-13.564,0l0,11.464l-6.298,0l0,-27.773l6.298,0l0,10.981l13.564,0l0,-10.981l6.137,0l0,27.773l-6.137,0l0,-11.464Z" style="fill:#0065ad;"/><path id="polygon2710" d="M185.864,125.875l0,27.773l6.136,0l0,-27.773l-6.136,0Z" style="fill:#0065ad;"/><path id="path2712" d="M80.417,146.061c0,1.775 -0.322,2.259 -1.938,2.259c-1.776,0 -11.142,0 -11.142,0l0,-22.445l-6.137,0l0,27.773l20.186,0c0,0 5.167,-0.322 5.167,-6.134c0,-5.977 0,-21.639 0,-21.639l-6.136,0c0,0 0,18.892 0,20.186Z" style="fill:#0065ad;"/><path id="path2714" d="M111.421,153.648l6.298,0c0,0 0,-15.664 0,-21.638c0,-5.812 -5.329,-6.135 -5.329,-6.135l-20.185,0l0,27.773l6.298,0l0,-22.445c0,0 9.205,0 10.981,0c1.615,0 1.937,0.484 1.937,2.262c0,1.291 0,20.183 0,20.183Z" style="fill:#0065ad;"/><path id="polygon2716" d="M40.692,153.648l6.138,0l0,-10.011l11.949,-17.762l-7.752,0l-7.427,11.787l-7.428,-11.787l-7.59,0l12.11,17.923l0,9.85Z" style="fill:#0065ad;"/><path id="path2718" d="M123.209,153.648c0,0 14.533,0 19.862,0c5.329,0 5.813,-5.49 5.813,-5.49l0,-16.792c0,0 -0.484,-5.49 -5.813,-5.49c-5.329,0 -19.862,0 -19.862,0l0,27.772Zm19.377,-7.587c0,0 0,2.259 -1.937,2.259c-1.453,0 -11.303,0 -11.303,0l0,-17.117c0,0 9.85,0 11.303,0c1.937,0 1.937,2.262 1.937,2.262l0,12.596Z" style="fill:#0065ad;"/><path id="path2720" d="M180.536,125.875l0,27.773l-6.299,0l0,-8.074l-13.887,0l0,8.074l-6.136,0l0,-20.667c0,-7.43 6.782,-7.106 6.782,-7.106l19.54,0Zm-6.299,14.533l0,-9.205l-11.788,0c0,0 -2.099,0 -2.099,2.584c0,2.259 0,6.621 0,6.621l13.887,0Z" style="fill:#0065ad;"/><path id="path2722" d="M167.294,74.362c0,19.7 -31.974,35.848 -71.213,35.848c-39.401,0 -71.213,-16.148 -71.213,-35.848c0,-19.862 31.812,-36.01 71.213,-36.01c39.239,0 71.213,16.148 71.213,36.01Zm-74.604,-5.006c6.136,-1.13 12.111,-3.229 16.794,-5.005c15.179,-5.33 22.284,-10.819 23.738,-12.112c1.938,-1.776 0.485,-2.422 -1.292,-3.068c-10.336,-3.069 -25.998,-5.33 -36.01,-4.844c-7.267,0.16 -11.304,8.074 -12.918,11.465c-7.591,15.986 5.973,14.372 9.688,13.564Zm-46.507,22.607c0.322,-0.646 12.272,-28.583 26.321,-43.761c1.775,-1.615 -0.162,-1.938 -2.422,-1.455c-23.252,4.523 -39.401,15.181 -39.401,27.454c0,6.782 4.844,13.081 12.919,18.086c1.13,0.646 2.26,0.161 2.583,-0.324Zm53.127,-12.756c-6.136,1.131 -12.111,3.229 -16.794,5.006c-15.179,5.329 -22.285,10.98 -23.738,12.273c-1.938,1.614 -0.485,2.422 1.292,2.907c10.334,3.067 25.998,5.328 36.01,5.005c7.266,-0.322 11.304,-8.236 13.08,-11.627c7.429,-15.987 -6.135,-14.211 -9.85,-13.564Zm62.009,-4.845c0,-6.782 -4.683,-12.919 -12.919,-17.924c-1.129,-0.808 -2.098,-0.324 -2.583,0.322c-0.322,0.484 -12.272,28.421 -26.321,43.6c-1.616,1.776 0.16,2.098 2.422,1.614c23.253,-4.682 39.401,-15.339 39.401,-27.612Z" style="fill:#0065ad;"/></g></svg>