<svg width="100" height="100" viewBox="0 0 100 100" fill="none" xmlns="http://www.w3.org/2000/svg">
<path fill-rule="evenodd" clip-rule="evenodd" d="M38.0267 4C35.7725 32.362 0.486239 30.4326 0.00262354 57.4425C-0.0761046 61.3906 1.60932 66.8933 6.10325 71.3469C7.61316 72.8367 9.34509 74.0871 11.2382 75.0542C10.0493 81.0799 9.60424 87.989 10.4349 96L14.7248 95.7752C13.1502 88.3893 13.0056 81.9123 13.7592 76.1671C31.7654 82.8498 59.8922 67.4642 38.0267 4V4Z" fill="#CBC953"/>
<path fill-rule="evenodd" clip-rule="evenodd" d="M15.0673 61.9542C12.204 57.3974 9.2205 48.5339 9.37869 42.3727L9.3866 42.3695C10.611 47.6576 13.4174 54.7254 16.1557 59.5149C18.3229 54.9373 20.8857 50.8617 23.4816 46.8913C20.5819 42.5002 19.8432 35.2778 19.8859 33.8582C19.8859 33.8391 19.9191 33.8391 19.9365 33.8247C20.699 36.3325 22.1401 40.6233 24.7978 44.8949C27.2561 41.1554 29.6654 37.4845 31.6871 33.5347C30.3804 30.8373 29.5246 26.6231 29.6084 25.256H29.6148C30.1653 27.1138 31.6729 29.542 32.883 31.0492C35.5549 25.734 36.9043 21.3206 37.4896 18.4989C38.1493 14.1174 38.2078 9.34229 37.439 4C35.2211 32.3414 0.478745 30.4135 0.0025831 57.4022C-0.0749316 61.3471 1.58452 66.8456 6.00918 71.2956C7.49582 72.7843 9.20106 74.0337 11.065 75C11.932 70.5197 13.2738 66.1461 15.0673 61.9542V61.9542Z" fill="#739857"/>
<path fill-rule="evenodd" clip-rule="evenodd" d="M64.3731 4C62.2232 32.5134 28.4722 30.5722 28.0019 57.7263C27.9359 61.6952 29.5449 67.227 33.8417 71.7041C48.4966 86.9963 88.6513 78.0614 64.3731 4Z" fill="#308DCA"/>
<path fill-rule="evenodd" clip-rule="evenodd" d="M92.0279 4C89.7673 32.5134 54.4814 30.5722 54.0026 57.7263C53.9239 61.6952 55.6093 67.227 60.1016 71.7041C75.4213 86.9963 117.409 78.0614 92.0279 4Z" fill="#D5904E"/>
</svg>
