<svg width="143" height="62" viewBox="0 0 143 62" fill="none" xmlns="http://www.w3.org/2000/svg">
<g clip-path="url(#clip0_507_156)">
<path fill-rule="evenodd" clip-rule="evenodd" d="M14.88 12C13.9979 22.7899 0.190267 22.0559 0.0010266 32.3314C-0.02978 33.8334 0.629734 35.9268 2.38823 37.6211C2.97906 38.1879 3.65677 38.6636 4.39758 39.0315C3.93233 41.3239 3.75818 43.9524 4.08322 47L5.76187 46.9145C5.14574 44.1046 5.08915 41.6405 5.38402 39.4549C12.4299 41.9972 23.4361 36.144 14.88 12V12Z" fill="#CBC953"/>
<path fill-rule="evenodd" clip-rule="evenodd" d="M5.55112 34.0389C4.49622 32.306 3.39703 28.9354 3.45531 26.5924L3.45822 26.5912C3.90932 28.6022 4.94324 31.29 5.9521 33.1113C6.75056 31.3705 7.69472 29.8207 8.65112 28.3108C7.58282 26.6409 7.31064 23.8944 7.32638 23.3545C7.32638 23.3472 7.33862 23.3472 7.34503 23.3418C7.62595 24.2955 8.15689 25.9272 9.13603 27.5516C10.0417 26.1295 10.9294 24.7335 11.6742 23.2315C11.1928 22.2057 10.8775 20.6031 10.9084 20.0833H10.9107C11.1135 20.7898 11.669 21.7131 12.1148 22.2863C13.0992 20.265 13.5963 18.5867 13.812 17.5137C14.055 15.8475 14.0766 14.0316 13.7933 12C12.9762 22.7777 0.17638 22.0446 0.000951668 32.3079C-0.0276064 33.8081 0.583769 35.899 2.21391 37.5913C2.76162 38.1574 3.38986 38.6325 4.07659 39C4.39599 37.2962 4.89033 35.633 5.55112 34.0389V34.0389Z" fill="#739857"/>
<path fill-rule="evenodd" clip-rule="evenodd" d="M24.8799 12C24.0004 22.7888 10.1932 22.0544 10.0008 32.3289C9.97376 33.8306 10.632 35.9237 12.3898 37.6178C18.385 43.404 34.8119 40.0232 24.8799 12Z" fill="#308DCA"/>
<path fill-rule="evenodd" clip-rule="evenodd" d="M35.0538 12C34.2184 22.7888 21.1779 22.0544 21.001 32.3289C20.9719 33.8306 21.5947 35.9237 23.2549 37.6178C28.9166 43.404 44.4336 40.0232 35.0538 12Z" fill="#D5904E"/>
<path fill-rule="evenodd" clip-rule="evenodd" d="M103.903 22.4517C104.852 22.1833 106.511 21.4232 106.511 19.373C106.511 17.7769 105.147 16.163 102.536 16.163H96.9673V27.837H99.5478V17.7505H101.583C103.538 17.7505 103.832 18.836 103.832 19.4827C103.832 20.5602 102.999 21.2344 101.659 21.2344C100.793 21.2351 100.294 21.5501 100.294 22.0852C100.294 22.3868 100.498 22.7729 101.454 22.9127C102.635 23.0818 103.113 24.1581 103.718 25.5152C103.718 25.5152 104.241 26.665 104.419 27.0346C104.598 27.4042 104.762 27.8376 105.656 27.8376H107.667L106.779 26.0564C105.89 24.2219 105.182 23.1419 103.903 22.4517ZM78.5011 22.4517C79.4504 22.1833 81.1093 21.4232 81.1093 19.373C81.1093 17.7769 79.7453 16.163 77.1351 16.163H71.5646V27.837H74.1458V17.7505H76.1806C78.1364 17.7505 78.4287 18.836 78.4287 19.4827C78.4287 20.5602 77.5973 21.2344 76.257 21.2344C75.3893 21.2351 74.893 21.5501 74.893 22.0852C74.893 22.3868 75.0944 22.7729 76.0496 22.9127C77.2352 23.0818 77.7112 24.1581 78.3155 25.5152C78.3155 25.5152 78.8382 26.665 79.0192 27.0346C79.197 27.4042 79.3609 27.8376 80.2542 27.8376H82.266L81.3779 26.0564C80.4872 24.2219 79.7796 23.1419 78.5011 22.4517V22.4517ZM43 16.1637H45.5832V27.837H43V16.1637ZM62.9776 22.605H69.0261V21.0162H62.9776V17.7499H69.3184V16.1637H60.3971V27.837H69.4521V26.247H62.9776V22.605V22.605ZM88.7049 16.1637H83.6274V27.837H88.3375C92.9575 27.837 95.4993 25.7708 95.4993 22.0178C95.4986 18.4058 92.895 16.1637 88.7049 16.1637V16.1637ZM86.2066 17.7499H88.2776C91.1656 17.7499 92.82 19.2988 92.82 22.0012C92.82 24.662 91.1353 26.2476 88.3145 26.2476H86.206L86.2066 17.7499V17.7499ZM114.485 16C109.85 16 107.775 19.0132 107.775 22.0006C107.775 24.9893 109.85 28 114.485 28C119.083 28 121.178 24.8912 121.178 22.0006C121.178 19.0132 119.107 16 114.485 16V16ZM114.485 26.106C111.923 26.106 110.452 24.6093 110.452 22.0012C110.452 19.392 111.923 17.8952 114.485 17.8952C117.036 17.8952 118.5 19.392 118.5 22.0012C118.499 24.6086 117.036 26.106 114.485 26.106ZM55.6487 21.4907C56.5637 21.1302 57.8152 20.361 57.8152 18.8373C57.8152 17.5066 56.567 16.1637 53.7824 16.1637H48.4086V27.837H54.5013C58.4044 27.837 58.8244 25.5415 58.8244 24.5541C58.825 22.5106 56.8731 21.7591 55.6487 21.4907V21.4907ZM50.9872 17.7499H53.0826C54.5961 17.7499 55.1359 18.5234 55.1359 19.2412C55.1359 20.0521 54.4934 20.9182 53.0826 20.9182C52.2104 20.9182 51.712 21.2081 51.712 21.7107C51.712 21.9461 51.8457 22.4965 53.0688 22.5032L53.6652 22.5081C55.0477 22.5081 56.0522 23.2988 56.0522 24.3929C56.0522 26.0368 54.5348 26.247 53.2182 26.247H50.9866L50.9872 17.7499V17.7499ZM137.429 16.1637H134.603L129.526 27.837H132.258C132.258 27.837 133.148 25.6378 133.249 25.3926H139.15C139.252 25.6194 139.885 27.0371 139.885 27.0371C140.053 27.411 140.249 27.8376 141.117 27.8376H143L137.429 16.1637V16.1637ZM133.958 23.6451C134.088 23.327 135.712 19.3313 136.038 18.5198C136.396 19.3068 138.134 23.1542 138.358 23.6451H133.958ZM125.326 26.247V16.1637H122.74V27.837H129.249L129.258 26.247H125.326V26.247Z" fill="#739857"/>
<line x1="43" y1="33.5" x2="143" y2="33.5" stroke="#739857"/>
<path d="M54.0123 39.0923H52.9044C52.8618 38.8556 52.7825 38.6473 52.6665 38.4673C52.5505 38.2874 52.4084 38.1347 52.2403 38.0092C52.0722 37.8838 51.884 37.7891 51.6757 37.7251C51.4697 37.6612 51.2507 37.6293 51.0187 37.6293C50.5997 37.6293 50.2245 37.7346 49.893 37.9453C49.564 38.156 49.3035 38.465 49.1118 38.8722C48.9224 39.2794 48.8277 39.7765 48.8277 40.3636C48.8277 40.9555 48.9224 41.455 49.1118 41.8622C49.3035 42.2694 49.5651 42.5772 49.8966 42.7855C50.228 42.9938 50.6009 43.098 51.0152 43.098C51.2448 43.098 51.4626 43.0672 51.6686 43.0057C51.8769 42.9418 52.0651 42.8482 52.2332 42.7251C52.4013 42.602 52.5434 42.4517 52.6594 42.2741C52.7777 42.0942 52.8594 41.8883 52.9044 41.6562L54.0123 41.6598C53.9532 42.0173 53.8383 42.3464 53.6679 42.647C53.4998 42.9453 53.2832 43.2034 53.018 43.4212C52.7552 43.6366 52.4546 43.8035 52.116 43.9219C51.7775 44.0402 51.4082 44.0994 51.0081 44.0994C50.3783 44.0994 49.8173 43.9503 49.3248 43.652C48.8324 43.3513 48.4442 42.9216 48.1601 42.3629C47.8783 41.8042 47.7375 41.1378 47.7375 40.3636C47.7375 39.5871 47.8795 38.9207 48.1636 38.3643C48.4477 37.8056 48.836 37.3771 49.3284 37.0788C49.8208 36.7782 50.3807 36.6278 51.0081 36.6278C51.394 36.6278 51.7538 36.6835 52.0876 36.7947C52.4238 36.9036 52.7256 37.0646 52.9932 37.2777C53.2607 37.4884 53.482 37.7464 53.6572 38.0518C53.8324 38.3549 53.9508 38.7017 54.0123 39.0923ZM57.5377 44.1101C57.0264 44.1101 56.5801 43.9929 56.199 43.7585C55.8178 43.5241 55.5219 43.1963 55.3112 42.7749C55.1005 42.3535 54.9951 41.861 54.9951 41.2976C54.9951 40.7318 55.1005 40.237 55.3112 39.8132C55.5219 39.3894 55.8178 39.0604 56.199 38.826C56.5801 38.5916 57.0264 38.4744 57.5377 38.4744C58.0491 38.4744 58.4954 38.5916 58.8765 38.826C59.2577 39.0604 59.5536 39.3894 59.7643 39.8132C59.975 40.237 60.0803 40.7318 60.0803 41.2976C60.0803 41.861 59.975 42.3535 59.7643 42.7749C59.5536 43.1963 59.2577 43.5241 58.8765 43.7585C58.4954 43.9929 58.0491 44.1101 57.5377 44.1101ZM57.5413 43.2188C57.8727 43.2188 58.1473 43.1312 58.3651 42.956C58.5829 42.7808 58.7439 42.5476 58.8481 42.2564C58.9546 41.9652 59.0079 41.6444 59.0079 41.294C59.0079 40.946 58.9546 40.6264 58.8481 40.3352C58.7439 40.0417 58.5829 39.8061 58.3651 39.6286C58.1473 39.451 57.8727 39.3622 57.5413 39.3622C57.2075 39.3622 56.9305 39.451 56.7103 39.6286C56.4925 39.8061 56.3303 40.0417 56.2238 40.3352C56.1196 40.6264 56.0676 40.946 56.0676 41.294C56.0676 41.6444 56.1196 41.9652 56.2238 42.2564C56.3303 42.5476 56.4925 42.7808 56.7103 42.956C56.9305 43.1312 57.2075 43.2188 57.5413 43.2188ZM62.3273 36.7273V44H61.2655V36.7273H62.3273ZM65.3431 44.1207C64.9975 44.1207 64.685 44.0568 64.4056 43.929C64.1263 43.7988 63.9049 43.6106 63.7416 43.3643C63.5806 43.1181 63.5001 42.8163 63.5001 42.4588C63.5001 42.151 63.5593 41.8977 63.6776 41.6989C63.796 41.5 63.9558 41.3426 64.157 41.2266C64.3583 41.1106 64.5832 41.023 64.8318 40.9638C65.0803 40.9046 65.3337 40.8596 65.5917 40.8288C65.9184 40.791 66.1836 40.7602 66.3872 40.7365C66.5908 40.7105 66.7387 40.669 66.8311 40.6122C66.9234 40.5554 66.9695 40.4631 66.9695 40.3352V40.3104C66.9695 40.0002 66.882 39.7599 66.7068 39.5895C66.5339 39.419 66.2759 39.3338 65.9326 39.3338C65.5751 39.3338 65.2934 39.4131 65.0874 39.5717C64.8838 39.728 64.743 39.902 64.6649 40.0938L63.667 39.8665C63.7854 39.535 63.9582 39.2675 64.1855 39.0639C64.4151 38.858 64.6791 38.7088 64.9774 38.6165C65.2757 38.5218 65.5893 38.4744 65.9184 38.4744C66.1362 38.4744 66.367 38.5005 66.6109 38.5526C66.8571 38.6023 67.0867 38.6946 67.2998 38.8295C67.5152 38.9645 67.6916 39.1574 67.8289 39.4084C67.9662 39.657 68.0349 39.9801 68.0349 40.3778V44H66.998V43.2543H66.9553C66.8867 43.3916 66.7837 43.5265 66.6464 43.6591C66.5091 43.7917 66.3327 43.9018 66.1173 43.9893C65.9018 44.0769 65.6438 44.1207 65.3431 44.1207ZM65.574 43.2685C65.8675 43.2685 66.1185 43.2105 66.3268 43.0945C66.5375 42.9785 66.6973 42.8269 66.8062 42.6399C66.9175 42.4505 66.9731 42.2481 66.9731 42.0327V41.3295C66.9352 41.3674 66.8618 41.4029 66.7529 41.4361C66.6464 41.4669 66.5245 41.4941 66.3872 41.5178C66.2499 41.5391 66.1161 41.5592 65.9859 41.5781C65.8557 41.5947 65.7468 41.6089 65.6592 41.6207C65.4532 41.6468 65.265 41.6906 65.0945 41.7521C64.9265 41.8137 64.7915 41.9025 64.6897 42.0185C64.5903 42.1321 64.5406 42.2836 64.5406 42.473C64.5406 42.7358 64.6376 42.9347 64.8318 43.0696C65.0259 43.2022 65.2733 43.2685 65.574 43.2685ZM69.5344 44V36.7273H70.5961V39.4297H70.6601C70.7216 39.3161 70.8104 39.1847 70.9264 39.0355C71.0424 38.8864 71.2034 38.7562 71.4094 38.6449C71.6153 38.5312 71.8876 38.4744 72.2261 38.4744C72.6665 38.4744 73.0595 38.5857 73.4051 38.8082C73.7507 39.0308 74.0218 39.3516 74.2183 39.7706C74.4172 40.1896 74.5166 40.6939 74.5166 41.2834C74.5166 41.8729 74.4184 42.3783 74.2219 42.7997C74.0254 43.2187 73.7555 43.5419 73.4122 43.7692C73.0689 43.9941 72.6771 44.1065 72.2368 44.1065C71.9053 44.1065 71.6343 44.0509 71.4236 43.9396C71.2152 43.8284 71.0519 43.6982 70.9335 43.549C70.8151 43.3999 70.724 43.2673 70.6601 43.1513H70.5713V44H69.5344ZM70.5748 41.2727C70.5748 41.6562 70.6305 41.9924 70.7417 42.2812C70.853 42.5701 71.014 42.7962 71.2247 42.9595C71.4354 43.1205 71.6934 43.201 71.9988 43.201C72.3161 43.201 72.5812 43.117 72.7943 42.9489C73.0074 42.7784 73.1684 42.5476 73.2773 42.2564C73.3885 41.9652 73.4442 41.6373 73.4442 41.2727C73.4442 40.9129 73.3897 40.5897 73.2808 40.3033C73.1743 40.0168 73.0133 39.7907 72.7979 39.625C72.5848 39.4593 72.3184 39.3764 71.9988 39.3764C71.6911 39.3764 71.4307 39.4557 71.2176 39.6143C71.0069 39.773 70.8471 39.9943 70.7382 40.2784C70.6293 40.5625 70.5748 40.8939 70.5748 41.2727ZM78.0065 44.1101C77.4951 44.1101 77.0489 43.9929 76.6677 43.7585C76.2865 43.5241 75.9906 43.1963 75.7799 42.7749C75.5692 42.3535 75.4639 41.861 75.4639 41.2976C75.4639 40.7318 75.5692 40.237 75.7799 39.8132C75.9906 39.3894 76.2865 39.0604 76.6677 38.826C77.0489 38.5916 77.4951 38.4744 78.0065 38.4744C78.5178 38.4744 78.9641 38.5916 79.3453 38.826C79.7264 39.0604 80.0223 39.3894 80.233 39.8132C80.4437 40.237 80.5491 40.7318 80.5491 41.2976C80.5491 41.861 80.4437 42.3535 80.233 42.7749C80.0223 43.1963 79.7264 43.5241 79.3453 43.7585C78.9641 43.9929 78.5178 44.1101 78.0065 44.1101ZM78.01 43.2188C78.3415 43.2188 78.6161 43.1312 78.8339 42.956C79.0517 42.7808 79.2127 42.5476 79.3169 42.2564C79.4234 41.9652 79.4767 41.6444 79.4767 41.294C79.4767 40.946 79.4234 40.6264 79.3169 40.3352C79.2127 40.0417 79.0517 39.8061 78.8339 39.6286C78.6161 39.451 78.3415 39.3622 78.01 39.3622C77.6762 39.3622 77.3992 39.451 77.1791 39.6286C76.9613 39.8061 76.7991 40.0417 76.6926 40.3352C76.5884 40.6264 76.5363 40.946 76.5363 41.294C76.5363 41.6444 76.5884 41.9652 76.6926 42.2564C76.7991 42.5476 76.9613 42.7808 77.1791 42.956C77.3992 43.1312 77.6762 43.2188 78.01 43.2188ZM81.7343 44V38.5455H82.7606V39.4119H82.8174C82.9168 39.1184 83.092 38.8875 83.343 38.7195C83.5963 38.549 83.8827 38.4638 84.2023 38.4638C84.2686 38.4638 84.3467 38.4661 84.4367 38.4709C84.529 38.4756 84.6012 38.4815 84.6533 38.4886V39.5043C84.6107 39.4924 84.5349 39.4794 84.426 39.4652C84.3171 39.4486 84.2082 39.4403 84.0993 39.4403C83.8484 39.4403 83.6247 39.4936 83.4282 39.6001C83.234 39.7043 83.0802 39.8499 82.9665 40.0369C82.8529 40.2216 82.7961 40.4323 82.7961 40.669V44H81.7343ZM87.1107 44.1207C86.7651 44.1207 86.4526 44.0568 86.1732 43.929C85.8939 43.7988 85.6725 43.6106 85.5091 43.3643C85.3482 43.1181 85.2677 42.8163 85.2677 42.4588C85.2677 42.151 85.3269 41.8977 85.4452 41.6989C85.5636 41.5 85.7234 41.3426 85.9246 41.2266C86.1259 41.1106 86.3508 41.023 86.5993 40.9638C86.8479 40.9046 87.1012 40.8596 87.3593 40.8288C87.686 40.791 87.9511 40.7602 88.1547 40.7365C88.3583 40.7105 88.5063 40.669 88.5986 40.6122C88.691 40.5554 88.7371 40.4631 88.7371 40.3352V40.3104C88.7371 40.0002 88.6495 39.7599 88.4743 39.5895C88.3015 39.419 88.0435 39.3338 87.7002 39.3338C87.3427 39.3338 87.061 39.4131 86.855 39.5717C86.6514 39.728 86.5106 39.902 86.4324 40.0938L85.4346 39.8665C85.5529 39.535 85.7258 39.2675 85.953 39.0639C86.1827 38.858 86.4466 38.7088 86.7449 38.6165C87.0432 38.5218 87.3569 38.4744 87.686 38.4744C87.9038 38.4744 88.1346 38.5005 88.3785 38.5526C88.6247 38.6023 88.8543 38.6946 89.0674 38.8295C89.2828 38.9645 89.4592 39.1574 89.5965 39.4084C89.7338 39.657 89.8025 39.9801 89.8025 40.3778V44H88.7655V43.2543H88.7229C88.6543 43.3916 88.5513 43.5265 88.414 43.6591C88.2767 43.7917 88.1003 43.9018 87.8849 43.9893C87.6694 44.0769 87.4114 44.1207 87.1107 44.1207ZM87.3415 43.2685C87.6351 43.2685 87.886 43.2105 88.0944 43.0945C88.3051 42.9785 88.4649 42.8269 88.5738 42.6399C88.685 42.4505 88.7407 42.2481 88.7407 42.0327V41.3295C88.7028 41.3674 88.6294 41.4029 88.5205 41.4361C88.414 41.4669 88.2921 41.4941 88.1547 41.5178C88.0174 41.5391 87.8837 41.5592 87.7535 41.5781C87.6233 41.5947 87.5144 41.6089 87.4268 41.6207C87.2208 41.6468 87.0326 41.6906 86.8621 41.7521C86.694 41.8137 86.5591 41.9025 86.4573 42.0185C86.3579 42.1321 86.3081 42.2836 86.3081 42.473C86.3081 42.7358 86.4052 42.9347 86.5993 43.0696C86.7935 43.2022 87.0409 43.2685 87.3415 43.2685ZM93.2586 44.1065C92.8183 44.1065 92.4253 43.9941 92.0796 43.7692C91.7364 43.5419 91.4665 43.2187 91.27 42.7997C91.0758 42.3783 90.9788 41.8729 90.9788 41.2834C90.9788 40.6939 91.077 40.1896 91.2735 39.7706C91.4724 39.3516 91.7446 39.0308 92.0903 38.8082C92.4359 38.5857 92.8277 38.4744 93.2657 38.4744C93.6043 38.4744 93.8765 38.5312 94.0825 38.6449C94.2908 38.7562 94.4518 38.8864 94.5654 39.0355C94.6814 39.1847 94.7714 39.3161 94.8353 39.4297H94.8992V36.7273H95.961V44H94.9241V43.1513H94.8353C94.7714 43.2673 94.6791 43.3999 94.5583 43.549C94.44 43.6982 94.2766 43.8284 94.0683 43.9396C93.8599 44.0509 93.5901 44.1065 93.2586 44.1065ZM93.493 43.201C93.7984 43.201 94.0564 43.1205 94.2671 42.9595C94.4802 42.7962 94.6412 42.5701 94.7501 42.2812C94.8614 41.9924 94.917 41.6562 94.917 41.2727C94.917 40.8939 94.8625 40.5625 94.7536 40.2784C94.6447 39.9943 94.4849 39.773 94.2742 39.6143C94.0635 39.4557 93.8031 39.3764 93.493 39.3764C93.1734 39.3764 92.907 39.4593 92.694 39.625C92.4809 39.7907 92.3199 40.0168 92.211 40.3033C92.1045 40.5897 92.0512 40.9129 92.0512 41.2727C92.0512 41.6373 92.1057 41.9652 92.2146 42.2564C92.3235 42.5476 92.4845 42.7784 92.6975 42.9489C92.913 43.117 93.1781 43.201 93.493 43.201ZM99.7741 44.1101C99.2627 44.1101 98.8164 43.9929 98.4353 43.7585C98.0541 43.5241 97.7582 43.1963 97.5475 42.7749C97.3368 42.3535 97.2314 41.861 97.2314 41.2976C97.2314 40.7318 97.3368 40.237 97.5475 39.8132C97.7582 39.3894 98.0541 39.0604 98.4353 38.826C98.8164 38.5916 99.2627 38.4744 99.7741 38.4744C100.285 38.4744 100.732 38.5916 101.113 38.826C101.494 39.0604 101.79 39.3894 102.001 39.8132C102.211 40.237 102.317 40.7318 102.317 41.2976C102.317 41.861 102.211 42.3535 102.001 42.7749C101.79 43.1963 101.494 43.5241 101.113 43.7585C100.732 43.9929 100.285 44.1101 99.7741 44.1101ZM99.7776 43.2188C100.109 43.2188 100.384 43.1312 100.601 42.956C100.819 42.7808 100.98 42.5476 101.084 42.2564C101.191 41.9652 101.244 41.6444 101.244 41.294C101.244 40.946 101.191 40.6264 101.084 40.3352C100.98 40.0417 100.819 39.8061 100.601 39.6286C100.384 39.451 100.109 39.3622 99.7776 39.3622C99.4438 39.3622 99.1668 39.451 98.9466 39.6286C98.7288 39.8061 98.5667 40.0417 98.4601 40.3352C98.356 40.6264 98.3039 40.946 98.3039 41.294C98.3039 41.6444 98.356 41.9652 98.4601 42.2564C98.5667 42.5476 98.7288 42.7808 98.9466 42.956C99.1668 43.1312 99.4438 43.2188 99.7776 43.2188ZM103.502 44V38.5455H104.528V39.4119H104.585C104.684 39.1184 104.86 38.8875 105.111 38.7195C105.364 38.549 105.65 38.4638 105.97 38.4638C106.036 38.4638 106.114 38.4661 106.204 38.4709C106.297 38.4756 106.369 38.4815 106.421 38.4886V39.5043C106.378 39.4924 106.303 39.4794 106.194 39.4652C106.085 39.4486 105.976 39.4403 105.867 39.4403C105.616 39.4403 105.392 39.4936 105.196 39.6001C105.002 39.7043 104.848 39.8499 104.734 40.0369C104.62 40.2216 104.564 40.4323 104.564 40.669V44H103.502ZM112.284 44.1101C111.772 44.1101 111.326 43.9929 110.945 43.7585C110.564 43.5241 110.268 43.1963 110.057 42.7749C109.847 42.3535 109.741 41.861 109.741 41.2976C109.741 40.7318 109.847 40.237 110.057 39.8132C110.268 39.3894 110.564 39.0604 110.945 38.826C111.326 38.5916 111.772 38.4744 112.284 38.4744C112.795 38.4744 113.241 38.5916 113.623 38.826C114.004 39.0604 114.3 39.3894 114.51 39.8132C114.721 40.237 114.826 40.7318 114.826 41.2976C114.826 41.861 114.721 42.3535 114.51 42.7749C114.3 43.1963 114.004 43.5241 113.623 43.7585C113.241 43.9929 112.795 44.1101 112.284 44.1101ZM112.287 43.2188C112.619 43.2188 112.893 43.1312 113.111 42.956C113.329 42.7808 113.49 42.5476 113.594 42.2564C113.701 41.9652 113.754 41.6444 113.754 41.294C113.754 40.946 113.701 40.6264 113.594 40.3352C113.49 40.0417 113.329 39.8061 113.111 39.6286C112.893 39.451 112.619 39.3622 112.287 39.3622C111.954 39.3622 111.677 39.451 111.456 39.6286C111.239 39.8061 111.076 40.0417 110.97 40.3352C110.866 40.6264 110.814 40.946 110.814 41.294C110.814 41.6444 110.866 41.9652 110.97 42.2564C111.076 42.5476 111.239 42.7808 111.456 42.956C111.677 43.1312 111.954 43.2188 112.287 43.2188ZM118.608 38.5455V39.3977H115.525V38.5455H118.608ZM116.37 44V37.9134C116.37 37.5724 116.445 37.2895 116.594 37.0646C116.743 36.8374 116.941 36.6681 117.187 36.5568C117.433 36.4432 117.701 36.3864 117.99 36.3864C118.203 36.3864 118.385 36.4041 118.536 36.4396C118.688 36.4728 118.8 36.5036 118.874 36.532L118.625 37.3913C118.576 37.3771 118.512 37.3606 118.434 37.3416C118.355 37.3203 118.261 37.3097 118.149 37.3097C117.891 37.3097 117.707 37.3736 117.595 37.5014C117.487 37.6293 117.432 37.8139 117.432 38.0554V44H116.37ZM119.703 44V38.5455H120.765V44H119.703ZM120.239 37.7038C120.055 37.7038 119.896 37.6423 119.763 37.5192C119.633 37.3937 119.568 37.2446 119.568 37.0717C119.568 36.8965 119.633 36.7474 119.763 36.6243C119.896 36.4988 120.055 36.4361 120.239 36.4361C120.424 36.4361 120.581 36.4988 120.712 36.6243C120.844 36.7474 120.91 36.8965 120.91 37.0717C120.91 37.2446 120.844 37.3937 120.712 37.5192C120.581 37.6423 120.424 37.7038 120.239 37.7038ZM124.491 44.1101C123.963 44.1101 123.508 43.9905 123.127 43.7514C122.748 43.5099 122.457 43.1773 122.254 42.7536C122.05 42.3298 121.948 41.8445 121.948 41.2976C121.948 40.7436 122.052 40.2547 122.261 39.831C122.469 39.4048 122.763 39.0722 123.141 38.8331C123.52 38.594 123.966 38.4744 124.48 38.4744C124.895 38.4744 125.264 38.5514 125.588 38.7053C125.912 38.8568 126.174 39.0698 126.373 39.3445C126.574 39.6191 126.694 39.9399 126.732 40.3068H125.698C125.641 40.0511 125.511 39.831 125.308 39.6463C125.106 39.4616 124.836 39.3693 124.498 39.3693C124.202 39.3693 123.943 39.4474 123.72 39.6037C123.5 39.7576 123.328 39.9777 123.205 40.2642C123.082 40.5483 123.021 40.8845 123.021 41.2727C123.021 41.6705 123.081 42.0137 123.202 42.3026C123.323 42.5914 123.493 42.8151 123.713 42.9737C123.936 43.1323 124.197 43.2116 124.498 43.2116C124.699 43.2116 124.881 43.175 125.045 43.1016C125.211 43.0258 125.349 42.9181 125.46 42.7784C125.574 42.6387 125.653 42.4706 125.698 42.2741H126.732C126.694 42.6269 126.579 42.9418 126.387 43.2188C126.195 43.4957 125.939 43.7135 125.617 43.8722C125.297 44.0308 124.922 44.1101 124.491 44.1101ZM127.867 44V38.5455H128.929V44H127.867ZM128.403 37.7038C128.219 37.7038 128.06 37.6423 127.927 37.5192C127.797 37.3937 127.732 37.2446 127.732 37.0717C127.732 36.8965 127.797 36.7474 127.927 36.6243C128.06 36.4988 128.219 36.4361 128.403 36.4361C128.588 36.4361 128.745 36.4988 128.876 36.6243C129.008 36.7474 129.074 36.8965 129.074 37.0717C129.074 37.2446 129.008 37.3937 128.876 37.5192C128.745 37.6423 128.588 37.7038 128.403 37.7038ZM131.945 44.1207C131.599 44.1207 131.287 44.0568 131.007 43.929C130.728 43.7988 130.506 43.6106 130.343 43.3643C130.182 43.1181 130.102 42.8163 130.102 42.4588C130.102 42.151 130.161 41.8977 130.279 41.6989C130.398 41.5 130.557 41.3426 130.759 41.2266C130.96 41.1106 131.185 41.023 131.433 40.9638C131.682 40.9046 131.935 40.8596 132.193 40.8288C132.52 40.791 132.785 40.7602 132.989 40.7365C133.192 40.7105 133.34 40.669 133.433 40.6122C133.525 40.5554 133.571 40.4631 133.571 40.3352V40.3104C133.571 40.0002 133.484 39.7599 133.308 39.5895C133.136 39.419 132.877 39.3338 132.534 39.3338C132.177 39.3338 131.895 39.4131 131.689 39.5717C131.485 39.728 131.345 39.902 131.266 40.0938L130.269 39.8665C130.387 39.535 130.56 39.2675 130.787 39.0639C131.017 38.858 131.281 38.7088 131.579 38.6165C131.877 38.5218 132.191 38.4744 132.52 38.4744C132.738 38.4744 132.969 38.5005 133.212 38.5526C133.459 38.6023 133.688 38.6946 133.901 38.8295C134.117 38.9645 134.293 39.1574 134.43 39.4084C134.568 39.657 134.636 39.9801 134.636 40.3778V44H133.6V43.2543H133.557C133.488 43.3916 133.385 43.5265 133.248 43.6591C133.111 43.7917 132.934 43.9018 132.719 43.9893C132.503 44.0769 132.245 44.1207 131.945 44.1207ZM132.176 43.2685C132.469 43.2685 132.72 43.2105 132.928 43.0945C133.139 42.9785 133.299 42.8269 133.408 42.6399C133.519 42.4505 133.575 42.2481 133.575 42.0327V41.3295C133.537 41.3674 133.463 41.4029 133.354 41.4361C133.248 41.4669 133.126 41.4941 132.989 41.5178C132.851 41.5391 132.718 41.5592 132.587 41.5781C132.457 41.5947 132.348 41.6089 132.261 41.6207C132.055 41.6468 131.867 41.6906 131.696 41.7521C131.528 41.8137 131.393 41.9025 131.291 42.0185C131.192 42.1321 131.142 42.2836 131.142 42.473C131.142 42.7358 131.239 42.9347 131.433 43.0696C131.627 43.2022 131.875 43.2685 132.176 43.2685ZM137.112 36.7273V44H136.051V36.7273H137.112Z" fill="#739857"/>
</g>
<defs>
<clipPath id="clip0_507_156">
<rect width="143" height="62" fill="white"/>
</clipPath>
</defs>
</svg>
