<svg width="143" height="62" viewBox="0 0 143 62" fill="none" xmlns="http://www.w3.org/2000/svg">
<path d="M76.0865 20.7176C75.3029 19.8828 74.2669 19.4589 73.007 19.4589C72.2286 19.4589 71.505 19.6123 70.862 19.9114C70.4038 20.1246 69.9926 20.4003 69.6385 20.7358C69.3235 20.3977 68.9565 20.122 68.54 19.9088C67.9491 19.6097 67.2801 19.4589 66.546 19.4589C65.9447 19.4589 65.3746 19.5655 64.8514 19.7762C64.5676 19.8906 64.3047 20.031 64.0626 20.1948C64.008 20.1168 63.9455 20.0414 63.8752 19.9738C63.6019 19.7111 63.2531 19.5759 62.8392 19.5759C62.4253 19.5759 62.0686 19.7163 61.7953 19.9842C61.5142 20.2547 61.3658 20.6239 61.3658 21.0504V29.6765C61.3658 30.0874 61.5116 30.4515 61.7901 30.7271C62.066 31.0028 62.4305 31.151 62.8418 31.151C63.2531 31.151 63.6357 31.0028 63.9091 30.7219C64.1772 30.4463 64.3177 30.0848 64.3177 29.6765V24.2101C64.3177 23.6068 64.4869 23.1335 64.8384 22.7564C65.1794 22.3897 65.6115 22.2129 66.1608 22.2129C66.71 22.2129 67.0927 22.3637 67.3946 22.6758C67.6966 22.9878 67.8502 23.4768 67.8502 24.1321V29.6765C67.8502 30.0874 67.996 30.4515 68.2745 30.7271C68.5504 31.0028 68.9149 31.151 69.3262 31.151C69.7375 31.151 70.1227 31.0028 70.3934 30.7219C70.6616 30.4463 70.8021 30.0848 70.8021 29.6765V24.2101C70.8021 23.6068 70.9713 23.1335 71.3227 22.7564C71.6638 22.3897 72.0907 22.2129 72.6269 22.2129C73.1632 22.2129 73.5588 22.3637 73.8608 22.6758C74.1628 22.9878 74.3163 23.4768 74.3163 24.1321V29.6765C74.3163 30.0874 74.4621 30.4515 74.7407 30.7271C75.0166 31.0028 75.381 31.151 75.7923 31.151C76.2036 31.151 76.5889 31.0028 76.8596 30.7219C77.1277 30.4463 77.2683 30.0848 77.2683 29.6765V24.1321C77.2683 22.694 76.8752 21.5445 76.0995 20.7176H76.0865ZM57.1748 15.272C56.6932 15.272 56.2741 15.4462 55.9305 15.7921C55.5843 16.138 55.4099 16.5567 55.4099 17.0352C55.4099 17.5137 55.5843 17.935 55.9305 18.2782C56.2767 18.6241 56.6958 18.7983 57.1748 18.7983C57.6537 18.7983 58.0755 18.6241 58.4191 18.2782C58.7653 17.9324 58.9397 17.5137 58.9397 17.0352C58.9397 16.5567 58.7653 16.1354 58.4191 15.7921C58.0728 15.4462 57.6537 15.272 57.1748 15.272ZM57.1748 19.5551C56.7661 19.5551 56.4042 19.6955 56.1283 19.9634C55.8472 20.2338 55.6988 20.6031 55.6988 21.0296V29.6557C55.6988 30.0666 55.8446 30.4281 56.1231 30.7063C56.399 30.982 56.7635 31.1302 57.1748 31.1302C57.5861 31.1302 57.9713 30.982 58.242 30.7011C58.5102 30.4255 58.6507 30.064 58.6507 29.6557V21.0296C58.6507 20.6005 58.5128 20.2443 58.2368 19.9686C57.9635 19.6955 57.6043 19.5551 57.1748 19.5551ZM87.8135 20.2521C86.9337 19.7397 85.9393 19.4771 84.8616 19.4771C83.7839 19.4771 82.7869 19.7371 81.894 20.2495C81.0012 20.7618 80.2905 21.4769 79.7829 22.3689C79.2779 23.2609 79.0202 24.2621 79.0202 25.3518C79.0202 26.4414 79.2571 27.4348 79.7256 28.3216C80.1968 29.2162 80.858 29.9262 81.6858 30.4359C82.5162 30.9456 83.4533 31.2056 84.4711 31.2056C85.2911 31.2056 86.0668 31.034 86.7775 30.6933C87.1367 30.5217 87.4725 30.311 87.7797 30.0666C87.8448 30.3162 87.9697 30.5399 88.1546 30.7245C88.4305 31.0002 88.7949 31.1484 89.2062 31.1484C89.6175 31.1484 89.9793 31.0028 90.2579 30.7245C90.5338 30.4489 90.6822 30.0848 90.6822 29.6739V25.3518C90.6822 24.2621 90.4219 23.2583 89.9091 22.3663C89.3962 21.4769 88.6908 20.7644 87.8135 20.2521ZM87.4231 26.9719C87.1654 27.4478 86.8192 27.8145 86.3662 28.0876C85.9159 28.3606 85.4239 28.4932 84.8616 28.4932C84.2993 28.4932 83.8073 28.3606 83.357 28.0876C82.9015 27.8119 82.5526 27.4478 82.2897 26.9693C82.0268 26.496 81.894 25.9525 81.894 25.3518C81.894 24.751 82.0268 24.2049 82.2897 23.7238C82.5552 23.2401 82.9041 22.8708 83.357 22.5978C83.8073 22.3247 84.2993 22.1921 84.8616 22.1921C85.4239 22.1921 85.9159 22.3247 86.3662 22.5978C86.8192 22.8708 87.1628 23.2375 87.4231 23.7212C87.6808 24.2049 87.8109 24.7536 87.8109 25.3544C87.8109 25.9551 87.6808 26.4986 87.4231 26.9745V26.9719ZM100.944 20.2286C100.064 19.7293 99.0616 19.4771 97.9579 19.4771C96.8542 19.4771 95.8312 19.7293 94.9461 20.2286C94.0558 20.7306 93.353 21.4353 92.8584 22.3247C92.3664 23.2089 92.1191 24.2257 92.1191 25.3518C92.1191 26.4778 92.3482 27.466 92.8037 28.345C93.2645 29.237 93.9179 29.9444 94.7483 30.4463C95.5787 30.9508 96.5288 31.2056 97.5701 31.2056C98.4838 31.2056 99.3194 30.9794 100.053 30.5347C100.355 30.3526 100.631 30.1394 100.886 29.8976C100.837 30.4229 100.707 30.8858 100.499 31.2811C100.228 31.7934 99.8816 32.1678 99.4417 32.4279C98.994 32.6906 98.5098 32.8154 97.9605 32.8154C97.3618 32.8154 96.8204 32.7088 96.3544 32.5007C95.8936 32.2927 95.5214 32.0014 95.222 31.6113C94.7509 30.9924 93.9777 30.7869 93.215 31.2784C92.71 31.6373 92.6033 32.0716 92.6033 32.3707C92.6033 32.6698 92.71 32.9454 92.9209 33.2133C93.5092 33.9544 94.2485 34.5344 95.1153 34.9322C95.9769 35.3275 96.9193 35.5278 97.9189 35.5278C99.0356 35.5278 100.056 35.2599 100.949 34.7346C101.844 34.2067 102.547 33.4759 103.042 32.5605C103.531 31.6529 103.779 30.6361 103.779 29.5387V25.3518C103.779 24.2257 103.526 23.2063 103.026 22.3221C102.526 21.4353 101.824 20.7306 100.941 20.2286H100.944ZM100.527 26.9953C100.277 27.4686 99.9363 27.8275 99.486 28.0954C99.033 28.3632 98.5358 28.4932 97.9579 28.4932C97.38 28.4932 96.8802 28.3632 96.4299 28.0954C95.9795 27.8275 95.6333 27.4686 95.3782 26.9927C95.1205 26.5168 94.9904 25.9655 94.9904 25.3518C94.9904 24.738 95.1205 24.1815 95.3782 23.7004C95.6359 23.2193 95.9795 22.8578 96.4299 22.59C96.8828 22.3221 97.3826 22.1921 97.9579 22.1921C98.5332 22.1921 99.0356 22.3221 99.486 22.59C99.9337 22.8552 100.275 23.2167 100.527 23.6952C100.78 24.1789 100.907 24.7354 100.907 25.3518C100.907 25.9681 100.78 26.5194 100.527 26.9953ZM135.193 22.3663C134.68 21.4743 133.975 20.7644 133.098 20.2521C132.218 19.7397 131.226 19.4771 130.146 19.4771C129.065 19.4771 128.071 19.7371 127.178 20.2495C126.285 20.7618 125.574 21.4743 125.067 22.3689C124.562 23.2583 124.307 24.2621 124.307 25.3518C124.307 26.4414 124.544 27.4348 125.012 28.3216C125.483 29.2162 126.142 29.9262 126.972 30.4359C127.803 30.9456 128.74 31.2056 129.758 31.2056C130.578 31.2056 131.353 31.034 132.064 30.6933C132.423 30.5217 132.759 30.311 133.066 30.0666C133.131 30.3162 133.256 30.5399 133.441 30.7245C133.717 31.0002 134.081 31.1484 134.493 31.1484C134.904 31.1484 135.266 31.0028 135.544 30.7245C135.82 30.4489 135.966 30.0848 135.966 29.6739V25.3518C135.966 24.2621 135.706 23.2583 135.193 22.3663ZM132.707 26.9719C132.449 27.4478 132.103 27.8119 131.65 28.0876C131.2 28.3606 130.708 28.4932 130.146 28.4932C129.583 28.4932 129.091 28.3606 128.641 28.0876C128.185 27.8119 127.837 27.4478 127.571 26.9693C127.308 26.496 127.175 25.9525 127.175 25.3518C127.175 24.751 127.308 24.2049 127.571 23.7238C127.834 23.2401 128.183 22.8734 128.638 22.5978C129.089 22.3247 129.581 22.1921 130.143 22.1921C130.705 22.1921 131.197 22.3247 131.648 22.5978C132.101 22.8708 132.444 23.2375 132.704 23.7212C132.962 24.2023 133.092 24.751 133.092 25.3544C133.092 25.9577 132.962 26.5012 132.704 26.9745L132.707 26.9719ZM120.017 20.0986C119.236 19.6747 118.348 19.4589 117.38 19.4589C116.674 19.4589 116 19.5837 115.375 19.8334C115.032 19.9712 114.712 20.1402 114.417 20.3405C114.352 20.2052 114.264 20.0804 114.152 19.9712C113.876 19.6981 113.519 19.5577 113.09 19.5577C112.66 19.5577 112.325 19.6955 112.043 19.966C111.762 20.2365 111.614 20.6057 111.614 21.0322V29.6765C111.614 30.0874 111.76 30.4515 112.038 30.7271C112.314 31.0028 112.679 31.151 113.09 31.151C113.501 31.151 113.884 31.0028 114.157 30.7219C114.423 30.4463 114.566 30.0848 114.566 29.6765V24.2101C114.566 23.8408 114.662 23.5158 114.863 23.2219C115.068 22.915 115.349 22.6784 115.722 22.4937C116.099 22.3091 116.526 22.2155 116.992 22.2155C117.802 22.2155 118.424 22.4339 118.897 22.8864C119.363 23.3311 119.592 23.9943 119.592 24.9097V29.6791C119.592 30.09 119.738 30.4541 120.014 30.7297C120.29 31.008 120.655 31.1536 121.066 31.1536C121.477 31.1536 121.839 31.008 122.118 30.7297C122.393 30.4541 122.542 30.09 122.542 29.6791V24.9097C122.542 23.7862 122.321 22.8058 121.883 21.9944C121.438 21.1701 120.811 20.5355 120.019 20.1038L120.017 20.0986ZM107.425 19.5551C107.017 19.5551 106.655 19.6955 106.379 19.9634C106.098 20.2338 105.95 20.6031 105.95 21.0296V29.6557C105.95 30.0666 106.095 30.4281 106.371 30.7063C106.647 30.9846 107.012 31.1302 107.423 31.1302C107.834 31.1302 108.219 30.982 108.49 30.7011C108.758 30.4255 108.899 30.064 108.899 29.6557V21.0296C108.899 20.6005 108.761 20.2443 108.485 19.9712C108.212 19.6955 107.855 19.5577 107.423 19.5577L107.425 19.5551ZM107.425 15.272C106.944 15.272 106.525 15.4462 106.181 15.7921C105.838 16.138 105.661 16.5567 105.661 17.0352C105.661 17.5137 105.835 17.935 106.181 18.2782C106.527 18.6241 106.947 18.7983 107.425 18.7983C107.904 18.7983 108.326 18.6241 108.67 18.2782C109.013 17.9324 109.19 17.5137 109.19 17.0352C109.19 16.5567 109.016 16.1354 108.67 15.7921C108.324 15.4462 107.904 15.272 107.425 15.272Z" fill="white"/>
<path d="M104.013 38.5369C103.526 38.282 102.969 38.1546 102.355 38.1546C101.863 38.1546 101.399 38.256 100.98 38.4562C100.79 38.5473 100.608 38.6565 100.441 38.7839C100.423 38.6383 100.363 38.5161 100.267 38.4172C100.03 38.1806 99.5875 38.178 99.3402 38.412C99.2517 38.4952 99.1476 38.6461 99.1476 38.8879V44.5442C99.1476 44.7262 99.2127 44.8848 99.335 45.0071C99.4574 45.1293 99.6188 45.1943 99.7984 45.1943C100.04 45.1943 100.191 45.0877 100.275 44.9993C100.389 44.877 100.449 44.721 100.449 44.5416V40.9866C100.449 40.7057 100.527 40.4561 100.686 40.222C100.847 39.9854 101.077 39.7981 101.36 39.6629C101.654 39.5251 101.99 39.4549 102.355 39.4549C102.946 39.4549 103.409 39.6187 103.771 39.9542C104.125 40.2844 104.297 40.7629 104.297 41.4183V44.5416C104.297 44.7236 104.362 44.8822 104.484 45.0045C104.606 45.1267 104.768 45.1917 104.947 45.1917C105.127 45.1917 105.288 45.1267 105.411 45.0045C105.533 44.8822 105.598 44.721 105.598 44.5416V41.4183C105.598 40.7499 105.458 40.1622 105.182 39.6733C104.901 39.1792 104.507 38.7969 104.013 38.5369ZM135.537 39.91C135.227 39.369 134.797 38.9373 134.256 38.6305C133.717 38.3236 133.111 38.1676 132.455 38.1676C131.799 38.1676 131.182 38.3236 130.643 38.6305C130.101 38.9399 129.669 39.369 129.362 39.91C129.055 40.4483 128.899 41.0594 128.899 41.7199C128.899 42.3805 129.055 42.9786 129.362 43.5195C129.672 44.0605 130.101 44.4921 130.643 44.799C131.182 45.1059 131.791 45.2619 132.455 45.2619C133.053 45.2619 133.603 45.1319 134.089 44.8718C134.311 44.7548 134.516 44.6144 134.698 44.4557V44.5416C134.698 44.7236 134.764 44.8822 134.886 45.0045C135.008 45.1267 135.17 45.1917 135.349 45.1917C135.591 45.1917 135.742 45.0877 135.823 44.9993C135.938 44.877 136 44.721 136 44.5416V41.7199C136 41.0568 135.844 40.4483 135.537 39.91ZM134.404 42.898C134.212 43.2439 133.941 43.5169 133.603 43.712C132.926 44.1047 131.978 44.1047 131.301 43.712C130.963 43.5169 130.69 43.2413 130.494 42.8954C130.297 42.5495 130.198 42.1542 130.198 41.7199C130.198 41.2857 130.297 40.893 130.494 40.5445C130.692 40.1986 130.963 39.9204 131.304 39.7201C131.642 39.5199 132.028 39.4184 132.452 39.4184C132.876 39.4184 133.262 39.5199 133.6 39.7201C133.938 39.9204 134.209 40.196 134.402 40.5419C134.597 40.8904 134.693 41.2857 134.693 41.7199C134.693 42.1542 134.594 42.5495 134.402 42.8954L134.404 42.898ZM127.706 35.3642L126.251 36.8205C126.155 36.9427 126.106 37.0857 126.106 37.2392C126.106 37.4186 126.173 37.5824 126.298 37.7073C126.426 37.8347 126.587 37.8997 126.767 37.8997C126.946 37.8997 127.095 37.8373 127.212 37.7177L128.644 36.2874C128.769 36.1599 128.836 36.0039 128.836 35.8297C128.836 35.6554 128.769 35.4864 128.644 35.3616C128.402 35.1197 127.943 35.1197 127.704 35.3616L127.706 35.3642ZM96.7527 38.6227C96.2607 38.3288 95.6985 38.178 95.0789 38.178C94.4594 38.178 93.8685 38.3314 93.3713 38.6331C92.8715 38.9373 92.4784 39.3638 92.1999 39.9048C91.9265 40.4379 91.7886 41.049 91.7886 41.7199C91.7886 42.3909 91.937 42.9994 92.2337 43.5325C92.5305 44.0709 92.947 44.4974 93.4702 44.799C93.9908 45.0981 94.5921 45.2515 95.2559 45.2515C95.6542 45.2515 96.0759 45.1709 96.5054 45.0123C96.9402 44.851 97.302 44.643 97.5857 44.3855C97.7133 44.2581 97.7784 44.1125 97.7784 43.9512C97.7784 43.7692 97.6951 43.6002 97.5441 43.4779C97.3462 43.3089 97.0052 43.2517 96.6851 43.5117C96.5393 43.6522 96.331 43.7666 96.0707 43.8576C95.4173 44.0813 94.7275 44.037 94.1808 43.7328C93.8659 43.5585 93.6108 43.3115 93.4207 42.9994C93.2828 42.7706 93.1865 42.5105 93.1396 42.2323H97.6742C97.8539 42.2323 98.0074 42.175 98.1246 42.0632C98.2105 41.9826 98.3146 41.837 98.3146 41.6055C98.3146 40.9554 98.1766 40.3651 97.9085 39.8501C97.6352 39.33 97.2473 38.9165 96.7553 38.6227H96.7527ZM93.1734 41.0256C93.275 40.5939 93.4754 40.2324 93.7617 39.9542C94.121 39.6057 94.5531 39.4366 95.0789 39.4366C95.6048 39.4366 96.0707 39.6057 96.4247 39.9542C96.7111 40.235 96.8985 40.5939 96.987 41.0282H93.1708L93.1734 41.0256ZM126.488 38.412C126.4 38.4952 126.293 38.6461 126.293 38.8879V44.5442C126.293 44.7262 126.358 44.8848 126.48 45.0071C126.603 45.1293 126.764 45.1943 126.944 45.1943C127.186 45.1943 127.337 45.0903 127.42 44.9993C127.535 44.877 127.595 44.7184 127.595 44.5416V38.8853C127.595 38.6487 127.496 38.4978 127.412 38.4146C127.175 38.178 126.733 38.1754 126.486 38.4094L126.488 38.412ZM111.518 38.6227C111.026 38.3288 110.463 38.178 109.844 38.178C109.224 38.178 108.633 38.3314 108.136 38.6331C107.636 38.9373 107.241 39.3638 106.967 39.9048C106.694 40.4353 106.556 41.0464 106.556 41.7199C106.556 42.3935 106.704 42.9968 107.001 43.5325C107.298 44.0709 107.714 44.4974 108.238 44.799C108.758 45.0981 109.36 45.2515 110.023 45.2515C110.422 45.2515 110.843 45.1709 111.273 45.0123C111.708 44.8536 112.07 44.643 112.353 44.3855C112.481 44.2581 112.546 44.1125 112.546 43.9512C112.546 43.7692 112.463 43.6002 112.312 43.4779C112.114 43.3089 111.773 43.2517 111.453 43.5117C111.307 43.6522 111.099 43.7666 110.836 43.8576C110.182 44.0813 109.492 44.037 108.946 43.7328C108.631 43.5585 108.376 43.3115 108.186 42.9994C108.048 42.7706 107.951 42.5131 107.905 42.2323H112.439C112.619 42.2323 112.77 42.175 112.89 42.0632C112.975 41.9826 113.077 41.837 113.077 41.6055C113.077 40.9554 112.939 40.3651 112.671 39.8501C112.398 39.33 112.01 38.9165 111.518 38.6227ZM107.938 41.0256C108.04 40.5939 108.238 40.235 108.529 39.9542C108.888 39.6057 109.318 39.4366 109.846 39.4366C110.375 39.4366 110.838 39.6057 111.192 39.9542C111.479 40.235 111.666 40.5939 111.755 41.0282H107.938V41.0256ZM123.276 38.6253C122.74 38.321 122.125 38.1676 121.446 38.1676C120.767 38.1676 120.186 38.321 119.647 38.6253C119.106 38.9295 118.671 39.3586 118.361 39.8995C118.049 40.4379 117.89 41.0516 117.89 41.7225C117.89 42.3935 118.044 43.015 118.348 43.5507C118.653 44.0891 119.082 44.5156 119.621 44.8146C120.157 45.1137 120.772 45.2645 121.449 45.2645C122.084 45.2645 122.654 45.1163 123.143 44.8276C123.331 44.7158 123.505 44.5884 123.659 44.4427C123.614 44.721 123.528 44.9837 123.404 45.2203C123.213 45.5766 122.948 45.86 122.617 46.0629C122.287 46.2657 121.909 46.3672 121.495 46.3672C121.082 46.3672 120.673 46.2865 120.34 46.1305C120.006 45.9719 119.723 45.756 119.501 45.4882C119.278 45.1995 118.853 45.1345 118.577 45.3451C118.419 45.457 118.333 45.6234 118.333 45.8132C118.333 45.9615 118.385 46.1019 118.489 46.2319C118.825 46.661 119.249 47.0017 119.749 47.2513C120.251 47.4984 120.837 47.6258 121.493 47.6258C122.149 47.6258 122.742 47.4646 123.276 47.1473C123.81 46.8301 124.234 46.3906 124.536 45.8366C124.838 45.2879 124.991 44.669 124.991 44.0006V41.7251C124.991 41.049 124.84 40.4353 124.541 39.8995C124.239 39.3612 123.815 38.9321 123.276 38.6279V38.6253ZM123.404 42.9162C123.213 43.2569 122.948 43.5273 122.612 43.7172C122.274 43.9096 121.881 44.0084 121.449 44.0084C121.016 44.0084 120.613 43.9096 120.272 43.7172C119.936 43.5247 119.668 43.2543 119.481 42.9162C119.291 42.5729 119.192 42.1698 119.192 41.7225C119.192 41.2753 119.288 40.8696 119.481 40.5211C119.671 40.1778 119.936 39.9048 120.272 39.7149C120.613 39.5225 121.006 39.4236 121.449 39.4236C121.891 39.4236 122.274 39.5225 122.612 39.7149C122.948 39.9048 123.213 40.1778 123.404 40.5211C123.594 40.8696 123.692 41.2727 123.692 41.7225C123.692 42.1724 123.596 42.5729 123.406 42.9162H123.404ZM118.072 39.0414C118.091 38.9868 118.098 38.9243 118.098 38.8541C118.098 38.399 117.7 38.1676 116.911 38.1676C116.448 38.1676 116.013 38.282 115.62 38.5108C115.474 38.5941 115.336 38.6929 115.209 38.8021C115.188 38.6149 115.105 38.4926 115.032 38.4198C114.795 38.1832 114.352 38.1806 114.105 38.4146C114.017 38.4978 113.913 38.6487 113.913 38.8905V44.5468C113.913 44.7288 113.978 44.8874 114.1 45.0097C114.222 45.1319 114.384 45.1969 114.563 45.1969C114.805 45.1969 114.956 45.0903 115.04 45.0019C115.154 44.8796 115.214 44.721 115.214 44.5442V41.0126C115.214 40.7135 115.287 40.4405 115.428 40.2038C115.568 39.9672 115.769 39.7773 116.021 39.6421C116.276 39.5043 116.576 39.4341 116.911 39.4341C116.974 39.4341 117.057 39.4419 117.153 39.4549C117.458 39.4965 117.666 39.4991 117.843 39.3742C117.953 39.2988 118.033 39.1818 118.07 39.0388L118.072 39.0414Z" fill="white"/>
<path d="M51.1595 21.3002C55.2664 41.8155 39.0399 36.8275 36.7968 39.2316C25.4351 51.4092 10.6684 43.9682 7.46072 34.1075C4.04258 23.5999 12.8132 12.2052 24.8723 10.8788C38.5269 9.37679 47.894 10.9965 51.1595 21.3002Z" fill="white"/>
<path d="M46.109 44.9623C45.6889 47.0161 43.11 48.5293 42.5617 48.743C38.9676 50.1432 36.7025 48.8574 36.2138 46.2225C35.7251 43.5875 38.6583 41.2041 41.4414 41.5083C44.4971 41.8423 45.85 43.745 46.109 44.9623Z" fill="white"/>
</svg>
