<svg width="143" height="62" viewBox="0 0 143 62" fill="none" xmlns="http://www.w3.org/2000/svg">
<g clip-path="url(#clip0_709_546)">
<path d="M3.87817 37.4727C5.45894 37.4727 7.06167 37.4727 8.64244 37.4501C9.21327 37.4274 9.45478 37.5632 9.45478 38.2422C9.41087 39.6906 9.43282 41.1616 9.45478 42.6101C9.45478 43.0401 9.45478 43.4248 8.86199 43.4022C7.1934 43.3569 5.54676 43.3569 3.87817 43.3343C3.87817 41.3653 3.87817 39.419 3.87817 37.4727Z" fill="#00B8B4"/>
<path d="M140 43.3116C139.934 43.3116 139.868 43.3342 139.802 43.3342C139.539 43.1079 139.473 42.7684 139.473 42.429C139.429 41.2068 139.429 39.9847 139.473 38.7626C139.495 38.4232 139.539 38.0837 139.824 37.88C139.89 37.9026 139.934 37.9253 140 37.9253C140 39.7358 140 41.5237 140 43.3116Z" fill="#3B3B3B"/>
<path d="M36.2839 37.4726C40.3895 37.4726 44.2536 37.4952 48.0958 37.45C48.8203 37.45 49.0838 37.5858 49.0399 38.4231C48.974 39.8489 48.996 41.2747 49.0399 42.6779C49.0618 43.2889 48.8642 43.4247 48.3153 43.4247C41.9044 43.4021 35.4935 43.4021 29.0607 43.4247C28.5338 43.4247 28.3142 43.3342 28.3362 42.7005C28.3801 41.1615 28.402 39.6226 28.3362 38.1063C28.3142 37.4726 28.6435 37.1558 28.9948 36.7937C32.9028 32.4937 36.7889 28.2163 40.6969 23.9163C40.7847 23.8258 40.8726 23.7126 40.9604 23.5994C40.6969 23.26 40.4115 23.441 40.148 23.441C36.5254 23.4184 32.9248 23.3958 29.3022 23.4637C28.4899 23.4863 28.2923 23.2373 28.3362 22.4226C28.402 21.0421 28.3801 19.6615 28.3362 18.281C28.3142 17.6926 28.4899 17.5342 29.0387 17.5342C35.4496 17.5568 41.8605 17.5568 48.2934 17.5342C48.8203 17.5342 49.1277 17.6247 49.0179 18.2584C48.996 18.3263 49.0179 18.4168 49.0179 18.4847C48.996 20.1594 49.3911 22.0152 48.8642 23.4863C48.3373 24.9121 46.8444 25.9079 45.7685 27.1073C42.6509 30.4342 39.5333 33.8742 36.2839 37.4726Z" fill="black"/>
<path d="M61.4884 37.4727C65.594 37.4727 69.4581 37.4953 73.3222 37.45C74.0248 37.45 74.3102 37.5858 74.2663 38.4232C74.2005 39.8037 74.2224 41.1843 74.2663 42.5648C74.2883 43.1532 74.2004 43.4248 73.5418 43.4248C67.1309 43.4021 60.72 43.4021 54.3091 43.4248C53.7602 43.4248 53.5626 43.3116 53.5846 42.6779C53.6285 41.139 53.6285 39.6 53.5846 38.0837C53.5626 37.4727 53.892 37.1332 54.2213 36.7485C58.0415 32.539 61.8836 28.3295 65.7038 24.12C65.8575 23.939 66.0331 23.7579 66.2088 23.5543C65.8795 23.26 65.5501 23.3958 65.2647 23.3958C61.6421 23.3732 58.0415 23.3732 54.4189 23.3958C53.7822 23.3958 53.5626 23.2827 53.5846 22.5358C53.6504 21.11 53.6285 19.6843 53.5846 18.2811C53.5626 17.6927 53.6724 17.4437 54.3091 17.4437C60.72 17.4664 67.1309 17.4664 73.5418 17.4437C74.0907 17.4437 74.2883 17.5795 74.2663 18.1906C74.2224 19.7295 74.2224 21.2685 74.2663 22.7848C74.2883 23.3732 73.9809 23.6674 73.6735 24.0069C69.8314 28.239 65.9673 32.4711 62.1251 36.7258C61.9495 36.9295 61.7958 37.1106 61.4884 37.4727Z" fill="black"/>
<path d="M85.1342 27.4921C85.1342 30.5247 85.1122 33.5347 85.1561 36.5673C85.1561 37.2689 85.0463 37.5405 84.2999 37.5179C82.9606 37.45 81.6213 37.4726 80.2601 37.5179C79.6893 37.5405 79.4697 37.4047 79.4697 36.7257C79.4917 30.57 79.4917 24.3915 79.4697 18.2357C79.4697 17.6473 79.6015 17.4663 80.1723 17.4663C81.5774 17.5115 83.0045 17.5115 84.4096 17.4663C85.0683 17.4436 85.1342 17.7152 85.1342 18.3036C85.1342 21.3589 85.1342 24.4142 85.1342 27.4921Z" fill="black"/>
<path d="M23.0231 33.3763C23.0231 36.4089 23.0011 39.4189 23.045 42.4516C23.067 43.2663 22.8255 43.4474 22.1009 43.4021C20.8056 43.3342 19.4883 43.3568 18.171 43.4021C17.6221 43.4247 17.3586 43.3342 17.3586 42.6326C17.3806 36.4768 17.3806 30.321 17.3586 24.1652C17.3586 23.4863 17.5782 23.3505 18.149 23.3731C19.4883 23.3958 20.8495 23.441 22.1888 23.3731C22.9352 23.3279 23.045 23.6447 23.045 24.3237C23.0011 27.3337 23.0231 30.3663 23.0231 33.3763Z" fill="black"/>
<path d="M139.824 37.88C139.824 39.7131 139.802 41.5237 139.802 43.3568C138.309 43.5379 138.309 43.5379 138.309 41.9763C138.309 40.9579 138.331 39.9621 138.309 38.9437C138.287 38.0837 137.914 37.4952 137.036 37.4952C136.18 37.4952 135.763 38.0837 135.741 38.921C135.697 40.1884 135.675 41.4558 135.741 42.7231C135.785 43.5152 135.324 43.4247 134.862 43.4247C134.423 43.4247 134.028 43.47 134.072 42.7458C134.116 41.5916 134.094 40.4373 134.094 39.2831C134.072 38.061 133.655 37.4726 132.821 37.4726C131.986 37.4726 131.503 38.061 131.503 39.2379C131.481 40.3468 131.437 41.4784 131.525 42.5873C131.569 43.3568 131.262 43.4021 130.669 43.4247C130.01 43.4473 129.813 43.2437 129.835 42.5421C129.879 40.7542 129.857 38.9663 129.857 37.1558C129.857 36.1373 130.493 35.5942 131.262 36.16C131.767 36.5221 131.92 36.2731 132.228 36.1373C133.106 35.7526 133.984 35.7526 134.731 36.3863C135.148 36.7484 135.345 36.6805 135.763 36.4089C137.497 35.2547 139.693 36.2052 139.824 37.88Z" fill="#010101"/>
<path d="M79.4917 47.9964C79.6454 47.0911 79.4318 46.0002 79.7113 45.1901C80.2601 44.9591 81.4677 45.009 82.3898 45.0316C83.268 45.0543 84.3357 44.7197 84.9585 45.1901C85.649 45.7116 84.948 47.053 85.1342 47.8832C85.1781 48.698 85.1122 49.5353 85.1561 50.3501C85.1781 50.9385 84.9585 51.1195 84.4097 51.0969C83.0265 51.0743 81.6433 51.0516 80.2601 51.0969C79.5576 51.1195 79.4258 50.8253 79.4697 50.169C79.5356 49.5127 79.4917 48.7885 79.4917 47.9964Z" fill="#FED700"/>
<path d="M20.125 15.95C19.2687 15.9048 18.149 16.199 17.6001 15.7237C17.1022 16.1054 17.3297 13.8834 17.3297 12.9555C17.3077 11.9597 17.1022 9.7186 17.5782 10.1337C18.1929 9.4774 19.4663 9.95266 20.4324 9.93003C23.6139 9.95627 23.045 9.29478 23.045 12.7137V12.8269C22.9792 13.8227 23.4148 15.1842 22.8474 15.7237C22.2766 16.2216 21.0691 15.9048 20.125 15.95Z" fill="#FE7101"/>
<path d="M96.2874 17.4889C97.0119 17.6247 98.2194 17.3295 98.7463 17.7379C98.901 18.4729 98.922 19.5257 98.9 20.4536C98.8781 21.4042 99.0582 22.6263 98.7024 23.26C98.2958 23.6792 97.0119 23.3957 96.1337 23.4184C95.3872 23.441 94.6407 23.4184 93.9162 23.4184C93.4552 23.441 93.1917 23.3505 93.2137 22.7621C93.2576 21.2231 93.2356 19.7068 93.2137 18.1679C93.1917 17.6021 93.4113 17.4663 93.8943 17.4889C94.6407 17.5115 95.3872 17.4889 96.2874 17.4889Z" fill="#FE0E8A"/>
<path d="M112.205 40.3469C111.744 40.3469 111.283 40.3242 110.822 40.3469C110.536 40.3695 110.119 40.1206 110.009 40.5958C109.922 40.9353 110.141 41.2521 110.361 41.5011C110.866 42.1348 112.007 42.3158 112.776 41.6821C113.5 41.0937 113.851 41.6142 114.137 42.0216C114.51 42.5648 113.873 42.7911 113.566 42.9721C112.359 43.6963 111.085 43.8548 109.812 43.1758C108.626 42.5421 108.341 41.3427 108.297 40.0527C108.187 36.9069 110.053 35.1869 112.534 36.1148C113.851 36.6127 114.839 38.6042 114.466 39.9848C114.378 40.3469 114.137 40.3242 113.895 40.3242C113.347 40.3469 112.776 40.3469 112.205 40.3469Z" fill="#010101"/>
<path d="M100.92 40.3468C100.415 40.3468 99.9319 40.3694 99.427 40.3468C98.5487 40.2789 98.6805 40.7315 98.9659 41.2747C99.4489 42.1347 100.656 42.4063 101.579 41.682C102.325 41.0936 102.654 41.6368 102.918 42.0668C103.269 42.6099 102.632 42.8136 102.325 43.0173C99.91 44.6242 97.2534 43.1984 97.0558 40.211C96.8582 37.1105 98.6805 35.2999 101.183 36.1373C102.61 36.6126 103.576 38.4684 103.225 40.0073C103.137 40.4373 102.874 40.3921 102.588 40.3921C102.04 40.3468 101.469 40.3468 100.92 40.3468Z" fill="#010101"/>
<path d="M128.298 39.8264C128.298 42.2479 127.288 43.5379 125.334 43.5832C123.578 43.6285 122.436 42.6327 122.194 40.8221C122.107 40.2111 122.107 39.5548 122.172 38.9211C122.348 36.9974 123.556 35.8658 125.334 35.9111C127.046 35.9564 128.144 37.1106 128.298 39.0343C128.32 39.3058 128.298 39.5548 128.298 39.8264Z" fill="#010101"/>
<path d="M115.652 39.7585C115.652 36.6579 117.979 34.9606 120.306 36.3637C120.658 36.5674 121.338 36.7711 120.987 37.3595C120.723 37.8122 120.35 38.3779 119.582 37.7669C118.638 37.0201 117.606 37.5858 117.386 38.8079C117.298 39.3058 117.276 39.849 117.32 40.3695C117.474 41.9764 118.418 42.4969 119.735 41.6369C120.438 41.1843 120.636 41.7953 120.921 42.0895C121.404 42.5874 120.833 42.8137 120.548 42.9948C119.45 43.7643 118.264 43.8095 117.123 43.1985C115.827 42.4969 115.674 41.139 115.652 39.7585Z" fill="#010101"/>
<path d="M95.2116 43.5379C93.9821 43.4926 93.4113 42.9947 93.3015 41.7274C93.2356 40.8674 93.3235 40.0074 93.2576 39.1474C93.1917 38.5137 93.6967 37.6537 92.6648 37.2689C92.4892 37.201 92.4672 36.341 92.6868 36.2731C93.5869 35.9789 93.2796 35.2774 93.2576 34.7342C93.2356 34.0326 93.4552 33.8516 94.0919 33.8516C94.7066 33.8516 94.992 33.9421 94.9481 34.6889C94.9042 35.3226 94.5529 36.2731 95.8263 36.16C96.1996 36.1147 96.0459 36.6352 96.0679 36.9068C96.1118 37.2689 95.98 37.5179 95.6068 37.45C94.9042 37.3368 94.8823 37.7668 94.9042 38.31C94.9262 39.0568 94.9042 39.8037 94.9042 40.5505C94.9042 41.2295 94.7066 41.9763 95.8044 42.0442C96.3094 42.0668 96.0459 42.7458 96.0459 43.1079C96.0678 43.7868 95.497 43.4247 95.2116 43.5379Z" fill="#020202"/>
<path d="M104.696 38.0158C104.696 36.9068 104.762 35.7753 104.674 34.6663C104.63 33.8742 104.96 33.8742 105.53 33.8516C106.167 33.8289 106.387 34.01 106.365 34.7116C106.321 36.7937 106.343 38.8984 106.343 40.9805C106.343 41.4784 106.321 41.9537 107.001 41.9989C107.726 42.0442 107.353 42.6779 107.397 43.04C107.462 43.5379 107.067 43.4926 106.738 43.5153C105.421 43.5831 104.762 42.9721 104.696 41.5689C104.674 40.9805 104.696 40.3695 104.674 39.781C104.696 39.1926 104.696 38.6042 104.696 38.0158Z" fill="#030303"/>
<path d="M111.371 39.1022C110.953 38.74 110.097 39.5774 110.031 38.6043C109.965 37.7895 110.646 37.4048 111.392 37.4048C112.139 37.4048 112.82 37.8122 112.754 38.6269C112.666 39.5548 111.81 38.7627 111.371 39.1022Z" fill="#F9F9F9"/>
<path d="M100.173 39.1022C99.7343 38.7627 98.878 39.5548 98.8122 38.6269C98.7463 37.8348 99.4269 37.4048 100.173 37.4048C100.942 37.4048 101.6 37.8122 101.535 38.6269C101.447 39.5774 100.591 38.7627 100.173 39.1022Z" fill="#F8F8F8"/>
<path d="M123.797 39.7131C123.819 39.4189 123.797 39.1247 123.841 38.8305C123.973 37.9931 124.434 37.4726 125.268 37.4952C126.059 37.5178 126.498 38.0384 126.585 38.8305C126.651 39.4189 126.651 40.03 126.607 40.6184C126.542 41.4557 126.146 42.0215 125.29 42.0668C124.39 42.0894 123.951 41.5236 123.841 40.641C123.797 40.3468 123.841 40.0526 123.841 39.7584C123.819 39.7131 123.819 39.7131 123.797 39.7131Z" fill="#FDFDFD"/>
</g>
<defs>
<clipPath id="clip0_709_546">
<rect width="137" height="43" fill="white" transform="translate(3 9.5)"/>
</clipPath>
</defs>
</svg>
