<svg width="143" height="62" viewBox="0 0 143 62" fill="none" xmlns="http://www.w3.org/2000/svg">
<path d="M136.839 14H143V14.7692C141.682 20.331 142.424 26.0629 142.281 31.7061C142.37 36.8461 141.778 42.0533 143 47.1118V47.8666C140.944 47.8818 138.888 47.8918 136.832 47.8966C136.847 36.5957 136.85 25.2973 136.839 14.0012V14ZM12.0121 14.3846C14.164 14.3774 16.3206 14.375 18.4821 14.3774C18.4006 22.357 18.4964 30.3378 18.4377 38.3103C18.3862 41.5057 17.8459 45.3062 14.8505 47.1118C10.2449 49.9214 4.20982 47.7253 1 43.775V43.4155C2.48649 42.0249 3.9606 40.6199 5.42234 39.2005C6.89365 40.4945 8.4105 42.1587 10.5408 42.1659C12.0864 41.5896 11.9534 39.7996 11.9977 38.46C12.0049 30.4325 11.9678 22.405 12.0121 14.3774V14.3846ZM95.8436 14.3774C97.9667 14.3702 100.089 14.4517 102.212 14.5332C102.123 17.4914 102.153 20.4568 102.145 23.415C103.336 23.4006 104.527 23.3922 105.716 23.3778C105.702 25.2422 105.694 27.0921 105.628 28.9612C104.467 28.9312 103.306 28.9097 102.153 28.8797C102.153 35.2626 102.155 41.6451 102.16 48.0272C100.06 48.1087 97.9667 48.0943 95.8735 48.0044C95.8807 36.7922 95.9406 25.5872 95.8436 14.3762V14.3774ZM21.7985 33.8208C22.5366 27.4827 28.5932 22.0395 35.0871 22.7464C38.2558 23.0944 41.1956 24.5642 43.3753 26.8903C45.555 29.2164 46.831 32.2453 46.9726 35.4299C47.017 39.645 46.9655 43.8684 46.9798 48.0847C42.2316 48.0032 37.4762 48.1961 32.728 48.0032C31.065 47.8226 29.4558 47.3076 27.9969 46.4892C26.5381 45.6709 25.2597 44.566 24.2387 43.241C23.2177 41.9161 22.4751 40.3983 22.0556 38.7791C21.636 37.1599 21.5482 35.4725 21.7973 33.8184L21.7985 33.8208ZM29.1863 39.8235C32.1229 43.3293 37.1371 41.7322 41.0862 41.991C41.0347 39.6833 41.1305 37.3757 41.0347 35.0753C40.7315 30.9405 36.0947 27.4132 32.0858 29.0474C27.8096 30.4337 26.0723 36.4903 29.1851 39.8259L29.1863 39.8235ZM111.498 26.1264C116.624 20.6976 126.638 21.4668 130.993 27.5018C133.124 30.2576 133.597 33.852 133.545 37.2343C126.911 37.2643 120.27 37.1385 113.636 37.3014C114.531 40.0967 116.86 42.7518 120.011 42.7003C121.232 42.8005 122.46 42.6479 123.62 42.2521C124.779 41.8563 125.844 41.2257 126.748 40.3998C128.501 41.2385 130.254 42.064 132.02 42.8632C127.679 49.054 118.079 50.1335 112.281 45.4596C106.49 40.8887 106.313 31.2077 111.497 26.1264H111.498ZM114.034 32.1243C118.486 32.2201 122.946 32.28 127.398 32.0871C126.022 29.7352 123.715 27.7091 120.838 27.7978C117.843 27.5689 115.425 29.6693 114.034 32.1243ZM51.7053 23.5336C58.0135 23.4665 64.3229 23.5264 70.6359 23.4965C66.9456 29.9664 63.1739 36.4016 59.5795 42.9255C63.011 42.6667 66.4652 42.7554 69.9039 42.7554C69.8967 44.5526 69.8667 46.3426 69.7565 48.1326C63.1739 47.9409 56.5841 48.1254 50.0027 48.1182C53.5984 41.677 57.327 35.3269 60.9573 28.9097C57.8805 28.9168 54.7965 28.9324 51.7197 28.8953C51.7125 27.1053 51.7053 25.3236 51.7053 23.5336V23.5336ZM73.0789 23.548C79.3799 23.4449 85.681 23.5408 91.9832 23.4965C88.2929 29.9604 84.5056 36.3801 80.9483 42.9183C84.3426 42.6787 87.7597 42.7626 91.1625 42.7554C91.1848 44.5302 91.1848 46.3051 91.1625 48.0799C84.5511 48.1027 77.9386 48.0056 71.3272 48.1314C74.9073 41.6615 78.7557 35.3365 82.2806 28.821C79.3368 28.8953 76.3786 29.0498 73.4348 28.8581C72.6212 27.3497 73.279 25.2709 73.0753 23.548H73.0789Z" fill="#FCC113"/>
<path opacity="0.94" d="M142.274 31.7061C142.421 26.0628 141.675 20.3309 142.993 14.7692V47.1106C141.772 42.052 142.363 36.8461 142.274 31.7061Z" fill="#EBB310"/>
</svg>
