<?xml version="1.0" encoding="UTF-8" standalone="no"?><!DOCTYPE svg PUBLIC "-//W3C//DTD SVG 1.1//EN" "http://www.w3.org/Graphics/SVG/1.1/DTD/svg11.dtd"><svg width="100%" height="100%" viewBox="0 0 192 192" version="1.1" xmlns="http://www.w3.org/2000/svg" xmlns:xlink="http://www.w3.org/1999/xlink" xml:space="preserve" xmlns:serif="http://www.serif.com/" style="fill-rule:evenodd;clip-rule:evenodd;stroke-linejoin:round;stroke-miterlimit:1.41421;"><path d="M155.172,98.417c-0.144,7.948 1.572,12.158 8.124,12.158c6.541,0 7.479,-7.171 7.479,-12.628c0,-5.46 -1.241,-10.761 -8.113,-10.761c-4.215,0 -7.328,3.276 -7.49,11.231Zm-13.254,33.212l0,-53.798l13.416,0l0,2.183c0,2.91 1.174,1.71 2.12,0.576c0.158,-0.19 3.148,-3.85 9.882,-3.85c6.714,0 17.158,4.677 17.158,21.207c0,12.786 -6.231,22.14 -16.992,22.14c-5.93,0 -9.358,-2.334 -10.142,-3.276c-0.785,-0.93 -1.875,-1.092 -1.875,0l0,14.818l-13.567,0m-103.696,-71.258l14.502,0l0,38.046c0,6.545 -2.81,20.271 -22.922,20.271c-20.114,0 -22.296,-12.793 -22.296,-19.961l0,-7.016l14.034,0l0,6.858c0,4.209 2.808,8.106 8.106,8.106c5.301,0 8.576,-2.962 8.576,-7.948l0,-38.356m44.832,32.275c0,-3.902 -2.179,-7.644 -7.169,-7.644c-4.834,0 -6.55,3.427 -6.55,7.644l13.719,0Zm-8.567,-16.374c11.389,0 21.364,4.365 21.364,24.48l-26.974,0c0,6.393 2.648,9.045 7.326,9.045c4.679,0 6.237,-3.745 6.237,-3.745l13.258,0c0,5.771 -7.953,13.567 -19.963,13.413c-13.718,0 -20.424,-10.136 -20.424,-20.584c0,-10.452 5.921,-22.609 19.176,-22.609m51.687,16.374c0,-3.902 -2.181,-7.644 -7.171,-7.644c-4.831,0 -6.552,3.427 -6.552,7.644l13.723,0Zm-8.567,-16.374c11.388,0 21.36,4.365 21.36,24.48l-26.972,0c0,6.393 2.651,9.045 7.332,9.045c4.674,0 6.235,-3.745 6.235,-3.745l13.258,0c0,5.771 -7.955,13.567 -19.961,13.413c-13.725,0 -20.431,-10.136 -20.431,-20.584c0,-10.452 5.928,-22.609 19.179,-22.609" style="fill:#231f20;fill-rule:nonzero;"/></svg>