<?xml version="1.0" encoding="UTF-8" standalone="no"?><!DOCTYPE svg PUBLIC "-//W3C//DTD SVG 1.1//EN" "http://www.w3.org/Graphics/SVG/1.1/DTD/svg11.dtd"><svg width="100%" height="100%" viewBox="0 0 192 192" version="1.1" xmlns="http://www.w3.org/2000/svg" xmlns:xlink="http://www.w3.org/1999/xlink" xml:space="preserve" xmlns:serif="http://www.serif.com/" style="fill-rule:evenodd;clip-rule:evenodd;stroke-linejoin:round;stroke-miterlimit:1.41421;"><path id="path0" d="M90.098,49.848c-48.4,1.545 -86.13,21.733 -86.13,46.085c0,25.537 41.167,46.189 92.051,46.178c51.829,-0.01 93.396,-21.519 91.868,-47.537c-1.533,-26.092 -45.895,-46.382 -97.789,-44.726m14.165,3.674c44.661,2.285 78.151,19.315 80.043,40.701c1.862,21.047 -28.928,39.671 -72.061,43.587c-5.715,0.519 -9.207,0.66 -16.314,0.66c-20.322,0.001 -38.834,-3.052 -54.465,-8.982c-43.591,-16.539 -45.515,-47.746 -4.037,-65.48c18,-7.697 43.416,-11.684 66.834,-10.486m-14.121,2.249c-0.337,0.015 -1.581,0.071 -2.762,0.124c-45.538,2.032 -79.912,20.774 -77.405,42.205c2.71,23.171 46.728,40.533 95.904,37.827c51.321,-2.824 85.746,-25.862 73.783,-49.379c-8.438,-16.588 -37.715,-28.585 -74.829,-30.662c-1.576,-0.087 -13.286,-0.18 -14.691,-0.115m-32.266,12.78c-0.502,0.533 -0.886,1.499 -5.867,14.796l-1.002,2.675l3.452,0.023c2.845,0.019 3.504,0.001 3.753,-0.104l0.303,-0.126l-0.217,0.586c-0.12,0.322 -0.565,1.533 -0.99,2.691l-0.773,2.105l-7.225,0.022l-7.224,0.023l0.271,-0.286c0.532,-0.56 0.676,-0.933 5.743,-14.933c2.445,-6.755 2.526,-7.063 2.001,-7.589c-0.173,-0.172 -0.156,-0.173 3.937,-0.173l4.111,0l-0.273,0.29m22.312,-0.046c-0.347,0.469 -0.343,0.784 0.141,11.357c0.48,10.471 0.495,10.658 0.877,11.112l0.225,0.267l-3.692,0c-2.03,0 -3.692,-0.022 -3.692,-0.048c0,-0.026 0.089,-0.167 0.198,-0.314c0.18,-0.243 0.2,-0.38 0.226,-1.576l0.028,-1.309l-3.742,0.022l-3.741,0.024l-0.661,1.206c-0.451,0.823 -0.676,1.332 -0.706,1.601l-0.044,0.394l-3.717,0c-2.044,0 -3.716,-0.016 -3.716,-0.035c0,-0.02 0.132,-0.114 0.295,-0.209c0.309,-0.183 0.495,-0.454 9.809,-14.272c5.004,-7.423 4.841,-7.157 4.847,-7.916l0.003,-0.548l7.242,0l-0.18,0.244m17.222,-0.091c0.024,0.085 0.352,2.69 0.728,5.789c0.377,3.1 0.705,5.635 0.73,5.635c0.194,-0.001 3.963,-10.474 3.959,-11.003l-0.004,-0.574l3.088,0.001c1.843,0.001 3.142,0.036 3.22,0.087c0.076,0.049 0.088,0.085 0.029,0.086c-0.219,0.003 -0.576,0.921 -4.503,11.579c-2.231,6.054 -4.075,11.057 -4.098,11.117c-0.032,0.085 -0.736,0.11 -3.105,0.11c-2.373,0 -3.072,-0.025 -3.1,-0.11c-0.032,-0.096 -1.532,-11.827 -1.54,-12.041c-0.001,-0.047 -0.91,2.362 -2.018,5.353c-2.149,5.796 -2.151,5.805 -1.884,6.601l0.067,0.197l-3.344,0l-3.344,0l0.253,-0.349c0.333,-0.461 0.103,0.148 4.312,-11.404c3.873,-10.629 3.824,-10.475 3.555,-11.074c-0.064,-0.144 0.131,-0.153 3.444,-0.153c3.269,0 3.515,0.01 3.555,0.153m25.009,-0.064c6.466,0.529 8.948,4.664 6.868,11.445c-1.887,6.153 -5.869,9.881 -11.96,11.199c-1.187,0.257 -12.253,0.364 -11.903,0.115c0.447,-0.317 0.355,-0.082 5.326,-13.594c2.811,-7.643 2.548,-6.801 2.548,-8.136l0,-1.118l4.034,0.001c2.219,0.001 4.508,0.04 5.087,0.088m-5.917,11.16c-1.22,3.437 -2.237,6.299 -2.261,6.359c-0.15,0.392 2.839,-0.088 3.88,-0.622c3.497,-1.797 6.101,-9.584 3.832,-11.461c-0.476,-0.394 -1.029,-0.526 -2.21,-0.526l-1.022,0l-2.219,6.25m-44.186,-0.039c-1.074,1.748 -1.952,3.217 -1.952,3.264c0,0.053 0.765,0.086 2.017,0.086l2.017,0l-0.009,-2.478c-0.005,-1.363 -0.035,-2.832 -0.066,-3.265l-0.056,-0.787l-1.951,3.18m78.828,-2.357c0,0.084 -1.822,5.455 -1.862,5.491c-0.042,0.036 -16.672,5.478 -16.741,5.478c-0.048,0 0.562,-1.907 0.666,-2.082c0.007,-0.011 2.378,-0.836 5.269,-1.834c2.891,-0.997 5.294,-1.847 5.34,-1.887c0.046,-0.04 -2.02,-0.073 -4.592,-0.073c-3.704,0 -4.667,-0.023 -4.634,-0.11c0.022,-0.06 0.386,-1.096 0.807,-2.302c0.422,-1.206 0.82,-2.321 0.885,-2.478l0.118,-0.285l7.372,0c4.477,0 7.372,0.032 7.372,0.082m-60.513,18.654c3.973,0.679 6.119,3.524 6.481,8.591c0.518,7.242 -4.747,14.236 -11.487,15.26c-8.683,1.318 -13.182,-7.045 -8.732,-16.231c2.663,-5.498 8.196,-8.568 13.738,-7.62m-20.842,0.759c3.724,1.018 5.243,3.748 4.234,7.608c-0.929,3.555 -4.06,6.314 -7.164,6.314c-0.553,0 -0.764,-0.492 1.623,3.789c2.206,3.954 2.518,4.439 3.066,4.769l0.351,0.212l-4.001,0l-4.002,0.001l-0.045,-0.373c-0.049,-0.412 -3.653,-7.573 -3.751,-7.455c-0.301,0.358 -2.644,7.033 -2.6,7.407l0.05,0.421l-3.723,0c-2.049,0 -3.724,-0.019 -3.724,-0.043c0,-0.024 0.183,-0.31 0.408,-0.636c0.592,-0.861 0.52,-0.671 4.061,-10.787c3.646,-10.414 3.641,-10.398 3.191,-11.276l-0.125,-0.245l11.278,0.055l0.873,0.239m37.062,-0.199c0,0.048 -0.042,0.088 -0.093,0.088c-0.477,0 -0.634,2.694 -0.588,10.078l0.023,3.631l4.14,-6.219c4.741,-7.119 4.622,-6.908 4.168,-7.425c-0.128,-0.145 0.083,-0.153 4.282,-0.153l4.416,0l-0.39,0.25c-1.113,0.715 -2.533,2.417 -6.883,8.258c-1.923,2.58 -5.025,6.732 -6.894,9.225c-2.237,2.985 -3.435,4.656 -3.506,4.89l-0.106,0.357l-3.098,0l-3.099,0l0.196,-0.373l0.196,-0.372l0.023,-10.52c0.025,-11.215 0.025,-11.209 -0.387,-11.55c-0.125,-0.104 0.197,-0.127 2.258,-0.167c4.626,-0.089 5.342,-0.088 5.342,0.002m31.839,-0.03c0,0.063 -1.941,5.315 -1.984,5.369c-0.015,0.018 -0.15,-0.07 -0.3,-0.197l-0.273,-0.23l-3.439,0l-3.439,0l-0.319,0.899c-0.175,0.494 -0.499,1.405 -0.72,2.022l-0.403,1.125l2.829,-0.028c2.679,-0.026 2.849,-0.037 3.201,-0.214c0.206,-0.103 0.373,-0.158 0.373,-0.124c0,0.288 -2.021,5.655 -2.119,5.628c-0.558,-0.156 -1.075,-0.182 -3.51,-0.185l-2.778,-0.002l-0.173,0.461c-0.095,0.253 -0.394,1.048 -0.664,1.767c-0.27,0.718 -0.491,1.34 -0.491,1.381c0,0.134 7.174,0.092 7.699,-0.043c0.251,-0.066 0.458,-0.093 0.458,-0.061c0,0.032 -0.411,1.26 -0.912,2.728l-0.911,2.67l-7.728,0.023c-4.25,0.012 -7.728,0.002 -7.728,-0.022c0,-0.025 0.132,-0.232 0.294,-0.461c0.792,-1.121 0.608,-0.653 5.673,-14.371c1.249,-3.382 2.311,-6.322 2.359,-6.534c0.113,-0.488 0.117,-1.223 0.008,-1.396c-0.074,-0.116 0.606,-0.136 5.856,-0.176c3.267,-0.025 6.659,-0.054 7.54,-0.066c0.88,-0.011 1.601,0.005 1.601,0.037m14.866,0.282c3.184,0.893 4.692,3.033 4.342,6.157c-0.483,4.31 -3.38,7.489 -7.083,7.771c-0.398,0.03 -0.724,0.073 -0.724,0.094c0,0.077 3.977,7.175 4.216,7.527c0.237,0.347 0.761,0.855 1.098,1.064c0.132,0.082 -0.729,0.106 -3.964,0.11l-4.133,0.005l-0.044,-0.373c-0.054,-0.459 -3.569,-7.632 -3.643,-7.433c-0.026,0.072 -0.576,1.552 -1.221,3.289c-1.189,3.203 -1.386,3.931 -1.175,4.327l0.102,0.19l-2.972,0c-1.634,0 -3.39,-0.026 -3.902,-0.057l-0.93,-0.057l0.332,-0.378c0.574,-0.652 0.824,-1.254 2.891,-6.964c1.109,-3.063 2.656,-7.325 3.439,-9.472c1.569,-4.306 1.712,-4.905 1.367,-5.729l-0.138,-0.331l5.72,0.031c5.614,0.031 5.733,0.035 6.422,0.229m-103.195,2.226c-0.012,0.257 -0.677,1.933 -0.791,1.994c-0.069,0.038 -2.451,0.872 -5.294,1.854l-5.169,1.787l4.626,0.023c4.352,0.021 4.624,0.032 4.578,0.175c-0.027,0.084 -0.435,1.258 -0.908,2.609l-0.859,2.456l-7.386,0.022c-5.752,0.017 -7.386,-0.001 -7.386,-0.084c0,-0.136 1.763,-5.354 1.839,-5.443c0.059,-0.069 16.449,-5.479 16.645,-5.494c0.061,-0.005 0.108,0.04 0.105,0.101m36.185,2.409c-4.24,1.71 -6.161,11.841 -2.467,13.007c2.365,0.747 4.683,-1.526 5.746,-5.634c1.089,-4.213 0.594,-6.886 -1.378,-7.433c-0.483,-0.134 -1.499,-0.102 -1.901,0.06m-23.152,0.37c-0.035,0.057 -0.394,1.092 -0.797,2.3l-0.733,2.197l1.421,-0.038c1.209,-0.031 1.497,-0.066 1.925,-0.234c2.245,-0.879 2.957,-3.436 1.138,-4.091c-0.526,-0.189 -2.854,-0.295 -2.954,-0.134m82.922,2.22c-0.4,1.17 -0.746,2.181 -0.769,2.246c-0.077,0.218 2.623,0.092 3.241,-0.15c2.131,-0.834 2.844,-3.584 1.068,-4.117c-0.204,-0.061 -0.875,-0.106 -1.584,-0.106l-1.229,0l-0.727,2.127" style="fill:#2b6352;"/><path id="path2" d="M90.669,45.684c-51.76,1.88 -90.669,23.463 -90.669,50.293c0,30.999 52.662,54.56 111.148,49.728c48.616,-4.017 83.782,-27.033 80.659,-52.79c-3.035,-25.031 -39.106,-44.492 -87.324,-47.112c-1.63,-0.089 -12.152,-0.179 -13.814,-0.119m12.104,4.159c52.302,2.071 90.398,25.169 84.627,51.309c-4.485,20.315 -35.709,36.93 -75.813,40.341c-60.319,5.13 -113.496,-19.909 -107.169,-50.462c5.108,-24.669 49.202,-43.135 98.355,-41.188m-10.92,3.598c-51.379,1.122 -89.942,23.14 -83.633,47.752c5.931,23.141 49.687,39.679 97.929,37.014c40.808,-2.255 73.27,-17.971 77.658,-37.596c5.821,-26.038 -37.684,-48.355 -91.954,-47.17m11.972,2.365c44.81,2.093 78.283,19.301 78.225,40.215c-0.062,22.591 -39.894,40.761 -88.092,40.185c-54.09,-0.646 -93.381,-23.878 -82.28,-48.649c8.887,-19.833 49.284,-33.753 92.147,-31.751m-53.657,12.652c0.438,0.471 0.365,0.954 -0.503,3.353c-6.469,17.883 -6.656,18.38 -7.164,19.058l-0.214,0.285l7.12,-0.022l7.119,-0.023l0.953,-2.587c0.523,-1.423 0.953,-2.593 0.954,-2.599c0.001,-0.006 -0.146,0.041 -0.326,0.106c-0.408,0.145 -7.127,0.181 -7.127,0.038c0,-0.048 0.826,-2.287 1.835,-4.978c4.382,-11.678 4.515,-12.013 5.017,-12.562l0.242,-0.266l-4.044,0l-4.045,0l0.183,0.197m22.988,0.282c0.024,0.368 -0.02,0.589 -0.184,0.948c-0.308,0.672 -13.861,20.741 -14.274,21.136l-0.344,0.329l7.171,0l0.09,-0.416c0.049,-0.23 0.378,-0.94 0.731,-1.578l0.641,-1.16l3.74,-0.002c3.33,-0.001 3.746,0.014 3.794,0.137c0.209,0.548 0.005,2.417 -0.314,2.866l-0.171,0.241l7.294,0l-0.227,-0.343c-0.345,-0.522 -0.36,-0.716 -0.842,-11.366c-0.468,-10.353 -0.471,-10.618 -0.12,-11.006c0.074,-0.081 0.134,-0.174 0.134,-0.206c0,-0.032 -1.609,-0.059 -3.574,-0.059l-3.575,0l0.03,0.479m17.357,-0.15c0.148,0.53 -0.082,1.221 -3.736,11.236c-3.895,10.672 -3.942,10.796 -4.247,11.13l-0.18,0.197l6.599,0l-0.127,-0.304c-0.22,-0.529 -0.161,-0.736 1.486,-5.196c0.886,-2.402 1.804,-4.891 2.038,-5.532c0.295,-0.805 0.445,-1.117 0.486,-1.009c0.032,0.086 0.38,2.722 0.772,5.857c0.391,3.136 0.733,5.81 0.759,5.943l0.047,0.241l6.099,0l4.058,-11.029c2.446,-6.649 4.158,-11.178 4.31,-11.403l0.251,-0.372l-3.134,0l-3.134,0l0.029,0.468c0.027,0.43 -0.134,0.905 -1.959,5.767c-2.036,5.422 -2.141,5.686 -2.146,5.402c-0.001,-0.087 -0.318,-2.727 -0.704,-5.865c-0.386,-3.138 -0.702,-5.721 -0.702,-5.739c0,-0.019 -1.559,-0.033 -3.466,-0.033l-3.466,0l0.067,0.241m22.782,-0.093c0.357,0.882 0.134,1.843 -1.386,5.992c-5.212,14.225 -5.879,15.968 -6.297,16.443l-0.27,0.309l4.854,-0.002c7.486,-0.002 9.574,-0.427 12.844,-2.614c4.071,-2.723 6.835,-7.961 6.835,-12.952c0,-4.101 -1.836,-6.293 -5.962,-7.121c-1.155,-0.232 -10.709,-0.282 -10.618,-0.055m7.957,4.866c1.511,0.453 1.999,2.318 1.307,4.993c-1.053,4.072 -2.954,6.615 -5.534,7.402c-0.571,0.174 -2.806,0.298 -2.806,0.155c0,-0.071 4.04,-11.527 4.385,-12.435c0.096,-0.25 1.931,-0.329 2.648,-0.115m-46.854,6.125l0,3.333l-2.07,0c-1.621,0 -2.062,-0.024 -2.029,-0.11c0.034,-0.088 3.397,-5.585 3.89,-6.359c0.069,-0.108 0.145,-0.197 0.168,-0.197c0.022,0 0.041,1.499 0.041,3.333m61.11,0.11c-0.471,1.362 -0.856,2.507 -0.855,2.543c0.001,0.036 2.123,0.067 4.716,0.068c2.593,0.002 4.655,0.036 4.583,0.077c-0.072,0.04 -2.5,0.892 -5.394,1.891c-2.894,1.001 -5.291,1.864 -5.327,1.92c-0.036,0.055 -0.189,0.475 -0.342,0.934c-0.152,0.458 -0.295,0.88 -0.316,0.938c-0.021,0.059 0.961,-0.226 2.184,-0.63c2.211,-0.732 11.569,-3.798 13.493,-4.421l1.008,-0.326l0.893,-2.627c0.491,-1.444 0.895,-2.675 0.899,-2.736c0.005,-0.087 -1.517,-0.109 -7.339,-0.108l-7.346,0.001l-0.857,2.476m-48.08,16.125c-5.296,0.558 -9.495,4.176 -11.356,9.784c-2.616,7.885 0.872,14.19 7.843,14.176c8.653,-0.019 15.202,-9.604 12.628,-18.485c-1.165,-4.023 -4.409,-5.971 -9.115,-5.475m-29.695,0.55c0,0.019 0.065,0.186 0.143,0.373c0.342,0.816 0.332,0.852 -3.081,10.601c-1.723,4.92 -3.252,9.278 -3.399,9.685c-0.148,0.406 -0.479,1.054 -0.736,1.439c-0.258,0.385 -0.469,0.714 -0.469,0.731c0,0.017 1.652,0.03 3.671,0.03l3.672,0l-0.085,-0.328c-0.075,-0.296 2.35,-7.169 2.646,-7.499c0.102,-0.114 3.705,7.038 3.756,7.455l0.045,0.372l7.655,0l-0.475,-0.504c-0.377,-0.399 -0.92,-1.302 -2.599,-4.32l-2.122,-3.815l0.798,-0.096c3.822,-0.459 6.616,-3.517 7.085,-7.754c0.376,-3.4 -1.635,-5.688 -5.514,-6.272c-0.789,-0.119 -10.991,-0.21 -10.991,-0.098m41.742,0.515l0.227,0.461l0.025,10.302c0.024,10.362 0.012,10.858 -0.285,11.429l-0.124,0.24l3.065,0c2.709,0 3.065,-0.015 3.065,-0.136c0,-0.273 0.336,-0.754 3.281,-4.679c1.651,-2.2 4.752,-6.348 6.892,-9.218c4.583,-6.149 5.834,-7.668 7.105,-8.626l0.307,-0.231l-4.278,-0.001l-4.278,-0.001l0.134,0.259c0.171,0.331 0.169,0.559 -0.008,0.901c-0.321,0.62 -8.499,12.8 -8.52,12.688c-0.012,-0.067 0.012,-2.963 0.055,-6.437c0.081,-6.527 0.093,-6.718 0.457,-7.181l0.181,-0.23l-3.764,0l-3.765,0l0.228,0.46m24.25,-0.307c0.137,0.462 0.139,0.658 0.016,1.254c-0.075,0.36 -0.45,1.503 -0.834,2.54c-0.383,1.037 -1.945,5.26 -3.47,9.385c-2.737,7.403 -3.101,8.283 -3.872,9.364l-0.141,0.197l7.701,-0.022l7.7,-0.023l0.862,-2.586c0.997,-2.988 0.941,-2.734 0.578,-2.612c-0.342,0.116 -7.872,0.208 -7.872,0.097c0,-0.041 0.306,-0.882 0.68,-1.872l0.68,-1.797l3.025,0c1.665,0 3.12,0.019 3.235,0.043c0.193,0.041 0.228,-0.011 0.451,-0.658c0.133,-0.385 0.576,-1.636 0.984,-2.779l0.741,-2.079l-0.272,0.149c-0.284,0.156 -6.104,0.287 -6.104,0.138c0,-0.035 0.324,-0.966 0.718,-2.069l0.718,-2.005l3.441,0.025l3.441,0.025l0.278,0.205c0.152,0.113 0.286,0.192 0.297,0.176c0.048,-0.07 1.897,-5.124 1.896,-5.183c0,-0.036 -3.358,-0.066 -7.462,-0.066c-7.065,0 -7.458,0.008 -7.415,0.153m17.818,0.059c0.494,0.754 0.417,1.046 -2.145,8.11c-1.201,3.31 -2.723,7.518 -3.383,9.351c-1.211,3.362 -1.556,4.148 -2.123,4.84l-0.311,0.379l7.648,0l-0.088,-0.231c-0.152,-0.398 0.93,-3.706 2.461,-7.531c0.099,-0.247 3.683,7.012 3.683,7.459l0,0.303l4.056,0c4.012,-0.001 4.054,-0.002 3.786,-0.166c-0.507,-0.309 -0.924,-0.961 -3.019,-4.719l-2.094,-3.754l0.85,-0.103c3.311,-0.402 5.816,-2.707 6.7,-6.166c1.12,-4.381 -0.632,-7.151 -4.968,-7.854c-0.634,-0.104 -1.84,-0.129 -5.993,-0.13l-5.198,0l0.138,0.212m-99.466,4.874c-4.534,1.489 -8.301,2.743 -8.37,2.786c-0.07,0.043 -0.53,1.289 -1.024,2.77l-0.898,2.691l7.374,-0.023l7.374,-0.022l0.86,-2.456c0.473,-1.351 0.862,-2.485 0.864,-2.522c0.002,-0.035 -2.115,-0.065 -4.706,-0.065c-2.617,0 -4.673,-0.034 -4.626,-0.075c0.045,-0.042 2.48,-0.9 5.409,-1.908l5.326,-1.833l0.347,-1.03c0.19,-0.567 0.339,-1.029 0.33,-1.026c-0.008,0.003 -3.725,1.224 -8.26,2.713m46.697,-0.168c1.568,0.693 2.05,2.87 1.367,6.177c-0.947,4.592 -2.973,7.175 -5.447,6.944c-1.87,-0.175 -2.641,-1.518 -2.55,-4.444c0.178,-5.664 3.527,-10.047 6.63,-8.677m-22.223,0.525c1.905,0.982 0.455,3.872 -2.151,4.288c-0.836,0.133 -2.544,0.122 -2.545,-0.017c-0.001,-0.061 0.341,-1.11 0.759,-2.332l0.761,-2.222l1.37,0.029c1.267,0.027 1.403,0.046 1.806,0.254m83.453,0.013c1.726,0.762 0.808,3.496 -1.411,4.206c-0.735,0.235 -3.062,0.349 -3.062,0.15c0,-0.096 1.22,-3.846 1.448,-4.45c0.066,-0.176 2.592,-0.097 3.025,0.094" style="fill:#fffac3;"/></svg>