<svg width="100" height="100" viewBox="0 0 100 100" fill="none" xmlns="http://www.w3.org/2000/svg">
<g clip-path="url(#clip0_37_317)">
<path d="M113.6 -3H-11.6666V101.6H113.6V-3Z" fill="#29FD2E"/>
<path d="M95.9439 59.2546C94.8282 59.2546 93.7125 59.2546 92.4251 59.2546C92.4251 57.3665 92.4251 55.7358 92.4251 54.1051C92.4251 52.9894 92.5109 51.9595 92.4251 50.8438C92.2535 49.1273 91.3094 48.2691 89.5929 48.3549C88.0481 48.4407 87.0182 49.4706 87.0182 51.1013C87.0182 53.4185 87.0182 55.7358 87.0182 58.0531C87.0182 58.3964 87.0182 58.6538 86.9324 59.083C85.8166 59.083 84.7868 59.083 83.4994 59.083C83.4994 58.3964 83.4994 57.7098 83.4994 57.0232C83.4994 54.8776 83.4994 52.7319 83.4994 50.5863C83.5852 47.4967 85.9025 45.1794 88.9921 44.9219C92.3393 44.5786 95.3431 46.8959 95.8581 49.9856C96.1156 51.0155 95.9439 56.1649 95.9439 59.2546Z" fill="black"/>
<path d="M9.5188 39C9.5188 45.5227 9.5188 52.0453 9.5188 58.568C9.5188 58.7396 9.5188 58.8254 9.43297 59.0829C8.31726 59.4262 7.11572 59.0829 6 59.2546C6 52.4744 6 45.7801 6 39C7.20154 39 8.31726 39 9.5188 39Z" fill="black"/>
<path d="M30.5456 59.0829C29.4299 59.0829 28.1426 59.0829 27.1127 59.0829C27.1127 58.6538 27.1127 53.8477 27.1127 51.9595C27.0268 49.2131 27.7134 46.8959 30.374 45.6085C33.0346 44.3212 35.6093 44.6645 37.8407 46.8101C40.7587 44.3212 43.7626 44.3212 46.7665 46.4668C50.3711 44.3212 52.6025 44.407 55.6922 46.8101C57.3228 45.2652 59.2968 44.5786 61.5282 45.0936C64.1888 45.6085 65.9911 47.4108 66.1628 50.1572C66.3344 53.0752 66.1628 56.0791 66.1628 59.1688C65.047 59.1688 64.0171 59.1688 62.7298 59.1688C62.7298 58.1389 62.7298 57.109 62.7298 56.1649C62.7298 54.5343 62.7298 52.8178 62.7298 51.1871C62.7298 49.4706 61.7857 48.4407 60.1551 48.4407C58.5244 48.4407 57.3229 49.4706 57.3229 51.1871C57.237 53.4185 57.3229 55.65 57.3229 57.7956C57.3229 58.2247 57.3229 58.6538 57.3229 59.1688C56.1213 59.1688 55.0914 59.1688 53.8899 59.1688C53.8899 57.3665 53.8899 55.5641 53.8899 53.7618C53.8899 52.9036 53.8899 52.0453 53.8899 51.1871C53.8899 49.4706 52.9458 48.5266 51.401 48.4407C49.7703 48.3549 48.5688 49.299 48.4829 51.0155C48.3971 53.2469 48.3971 55.4783 48.3971 57.7956C48.3971 58.2247 48.3971 58.7396 48.3971 59.2546C47.1956 59.2546 46.1657 59.2546 44.8783 59.2546C44.8783 57.7098 44.8783 56.2507 44.8783 54.7917C44.8783 53.5902 44.8783 52.3886 44.8783 51.1871C44.8783 49.4706 43.9343 48.5266 42.3036 48.4407C40.6729 48.4407 39.5572 49.3848 39.4714 51.1013C39.3856 53.3327 39.4714 55.5641 39.4714 57.7098C39.4714 58.1389 39.4714 58.6538 39.4714 59.1688C38.2698 59.1688 37.1541 59.1688 35.9526 59.1688C35.9526 57.2806 35.9526 55.3925 35.9526 53.5044C35.9526 52.6461 35.9526 51.7879 35.9526 50.9296C35.8668 49.3848 34.9227 48.4407 33.3779 48.4407C31.833 48.4407 30.6315 49.3848 30.6315 50.9296C30.5456 53.2469 30.5456 58.7396 30.5456 59.0829Z" fill="black"/>
<path d="M14.9258 53.5901C15.784 56.7656 18.9595 57.3664 21.5343 54.7917C22.3925 54.7917 24.7956 54.7917 25.0531 54.7917C24.7098 57.6239 21.1051 59.8553 17.5005 59.4262C13.7243 58.9971 10.892 55.2208 11.407 51.4445C12.0078 47.2391 15.6124 44.3211 19.4745 45.0077C23.5941 45.6085 26.083 49.2131 25.3964 53.5901C23.6799 53.5901 21.9634 53.5901 20.2469 53.5901C18.4446 53.5901 16.7281 53.5901 14.9258 53.5901ZM21.8776 50.6721C21.4484 48.8698 19.9036 47.8399 18.1871 48.0116C16.5565 48.1832 15.2691 49.2989 15.1833 50.6721C17.3289 50.6721 19.5603 50.6721 21.8776 50.6721Z" fill="black"/>
<path d="M74.917 59.4262C70.9691 59.4262 67.8794 56.3365 67.8794 52.217C67.8794 48.0974 70.9691 44.8361 74.917 44.8361C78.7791 44.8361 81.8688 48.0116 81.9546 52.1311C81.9546 56.2507 78.8649 59.4262 74.917 59.4262ZM78.6074 52.4744C78.6074 49.728 77.1484 48.3549 75.2603 48.1832C73.6296 48.0116 71.999 49.1273 71.5698 50.9296C71.1407 52.6461 71.3124 54.2767 72.7714 55.5641C73.8013 56.5082 75.0028 56.6798 76.2044 56.0791C77.7492 55.2208 78.5216 53.5901 78.6074 52.4744Z" fill="black"/>
</g>
<defs>
<clipPath id="clip0_37_317">
<rect width="100" height="100" fill="white"/>
</clipPath>
</defs>
</svg>
