<svg width="100" height="100" viewBox="0 0 100 100" fill="none" xmlns="http://www.w3.org/2000/svg">
<g clip-path="url(#clip0_102_168)">
<path fill-rule="evenodd" clip-rule="evenodd" d="M-363.779 76.7267C-353.508 76.7732 -343.254 76.7189 -332.976 76.75C-330.292 76.6258 -327.716 77.5103 -325.42 78.8602C-324.435 80.5902 -323.721 82.4522 -323.217 84.3762C-323.244 89.9019 -323.239 95.4295 -323.224 100.958L-323.171 117.546C-323.144 128.605 -323.163 139.664 -323.403 150.716L-323.465 151.336C-325.544 159.948 -340.034 159.591 -341.524 150.84C-342.082 144.788 -341.586 138.691 -341.741 132.631C-351.717 132.694 -361.7 132.655 -371.676 132.655C-371.753 138.085 -371.52 143.508 -371.722 148.931C-371.738 152.097 -373.421 155.021 -375.965 156.782C-376.33 156.876 -377.059 157.054 -377.416 157.132C-381.426 157.83 -386.228 157.682 -388.881 154.028C-388.989 153.803 -389.199 153.346 -389.3 153.121L-389.827 152.399C-389.409 150.297 -389.253 144.365 -389.236 137.208L-389.235 134.686C-389.239 132.693 -389.251 130.633 -389.27 128.556L-389.288 126.773L-389.307 125.176C-389.458 112.937 -389.794 101.095 -389.825 100.025L-389.827 99.9466C-389.284 93.8798 -387.29 87.6268 -382.838 83.3599C-377.827 78.4102 -370.582 76.6724 -363.779 76.7267ZM-149.105 76.8687C-145.273 76.7601 -142.287 79.8168 -141.511 83.4863L-141.527 97.0412L-206.387 126.553L-271.247 156.065C-271.246 165.101 -181.768 98.9589 -181.855 107.996C-183.678 114.986 -243.004 80.7093 -247.953 76.7837C-250.163 74.0684 -274.882 103.868 -160.152 145.38C-160.058 141.152 -160.097 136.909 -160.113 132.657C-170.065 132.704 -180.025 132.642 -189.977 132.696C-190.195 139.151 -197.958 131.811 -198.951 138.211C-201.379 145.341 -203.506 159.104 -207.601 153.588C-208.044 151.323 -208.346 149.034 -208.346 146.73V106.171C-208.362 100.81 -207.764 95.3872 -205.81 90.391C-202.296 81.283 -192.436 76.7756 -183.306 76.7911C-171.911 76.7833 -160.493 76.6127 -149.105 76.8687ZM-241.744 76.7461C-234.833 76.5754 -227.37 77.9409 -222.072 82.8052C-216.472 87.7005 -218.305 289.125 -247.953 157.364C-247.929 171.988 -214.207 132.015 -214.16 146.639C-214.183 148.749 -214.238 150.898 -214.68 152.977C-217.48 158.004 -224.306 158.609 -228.945 156.065C-231.675 154.381 -232.552 150.867 -232.49 147.795C-232.552 133.186 -232.343 118.578 -232.568 103.977C-232.288 100.106 -234.995 96.2887 -238.82 95.7379C-244.762 95.0397 -250.758 95.5672 -256.731 95.4276C-256.591 113.232 -256.607 131.029 -256.684 148.842C-256.428 152.504 -258.6 156.243 -262.215 157.128C-266.939 158.353 -273.734 156.864 -274.603 151.154C-275.123 135.413 -274.549 119.625 -274.882 103.868C-274.867 100.121 -277.465 96.087 -281.344 95.7301C-287.2 95.0086 -293.096 95.5439 -298.976 95.3655C-298.945 112.449 -298.968 129.517 -298.952 146.592C-298.89 149.804 -299.387 153.52 -302.001 155.661C-305.538 157.725 -310.107 157.927 -313.784 156.08C-316.848 154.079 -317.461 150.045 -317.391 146.615C-317.391 126.778 -317.406 106.941 -317.391 87.1031C-317.368 84.3956 -317.275 81.3311 -315.234 79.2985C-313.124 76.8082 -309.642 76.6142 -306.64 76.5444C-285.013 76.4358 -263.379 76.94 -241.744 76.7461ZM-408.687 53.035C-405.545 54.9435 -405.072 58.9389 -405.095 62.337C-405.157 87.6283 -404.994 112.92 -405.173 138.211C-402.427 138.723 -399.215 139.002 -397.555 141.632C-394.181 146.807 -396.159 156.512 -403.218 156.947C-404.416 156.978 -405.628 157.059 -406.846 157.145L-408.676 157.271C-412.339 157.508 -416.015 157.58 -419.469 156.256C-422.649 154.728 -423.526 150.942 -423.433 147.66C-423.51 119.615 -423.417 91.5617 -423.479 63.5007C-419.469 147.795 -422.393 119.951 -419.469 117.546C-416.11 114.838 -412.294 50.8627 -408.687 53.035ZM-441.781 53.1491C-438.817 55.1662 -438.461 59.0995 -438.523 62.42C-438.6 87.6493 -438.414 112.894 -438.616 138.131C-435.257 138.643 -431.068 139.559 -429.959 143.36C-429.199 147.806 -428.958 153.942 -433.729 156.153C-436.783 157.239 -440.004 157.304 -443.233 157.285L-445.17 157.271C-446.46 157.266 -447.746 157.276 -449.018 157.364C-449.553 157.317 -450.647 157.232 -451.198 157.185C-454.51 155.649 -457.008 152.561 -456.891 148.698C-457.085 120.288 -456.868 91.8774 -457 63.4673C-456.915 60.0305 -457.008 55.8721 -454.145 53.4827C-450.647 50.8216 -445.458 50.8759 -441.781 53.1491ZM-185.145 96.1863C-190 98.2221 -190.211 103.243 -190.044 108.094L-190.006 109.094C-189.937 110.753 -189.859 112.367 -189.946 113.805C-179.986 113.673 -170.026 113.797 -160.082 113.751C-160.089 107.622 -160.082 101.477 -160.097 95.3484C-162.545 95.4967 -165.01 95.4786 -167.479 95.4237L-170.442 95.3486C-175.382 95.2215 -180.317 95.1549 -185.145 96.1863ZM-364.772 95.6564C-368.394 95.8504 -371.497 99.0855 -371.598 102.755C-371.769 106.363 -371.606 109.962 -371.753 113.562C-361.809 113.872 -351.848 113.616 -341.881 113.741C-341.656 107.619 -341.663 101.498 -341.865 95.3926C-349.506 95.5711 -357.154 95.0978 -364.772 95.6564ZM63.441 11.2803C65.8845 18.666 60.0512 24.9655 58.9264 31.9633C58.236 34.1899 59.5548 36.2458 60.6795 38.0301C62.1534 38.7439 63.759 39.6438 65.4656 39.1085C73.2382 37.0836 77.776 27.8593 86.3631 28.1463C92.4446 27.6498 98.1771 32.4831 98.9063 38.6585C99.5889 44.7796 96.5094 51.5369 90.7381 53.8954C82.8647 55.9746 74.5879 51.9404 66.8308 54.8264L66.3913 55.5516C66.0551 56.1073 65.6673 56.7504 65.4345 57.1383C68.9562 66.2385 79.3041 69.3495 84.1135 77.4567C85.3314 83.4925 84.7807 90.8394 79.8007 95.021C74.5569 98.807 65.5975 99.0165 61.9439 92.8721C58.0033 85.6648 58.5618 76.58 53.7369 69.8072C51.8054 66.9678 47.8959 68.0539 46.2824 70.6296C42.5513 76.3318 41.5118 83.2753 39.0916 89.5594C36.0508 98.4579 21.9253 99.8 17.2943 91.6618C14.6026 87.1698 13.9588 80.5755 17.7365 76.5025C22.6079 71.6149 29.5194 69.2875 33.8944 63.8258C35.7948 61.6535 35.1665 57.8288 32.4438 56.6883C29.1515 55.1253 25.5684 55.06 21.9837 55.0853L20.1926 55.099C18.702 55.1058 17.2196 55.0877 15.7662 54.9428C7.46611 54.7255 -0.128049 46.2615 1.50093 37.7043C2.04393 33.6235 5.42602 30.4194 9.2037 29.3023C12.547 28.3791 16.0532 28.573 19.3499 29.6514C21.9735 30.5651 24.1727 32.2558 26.337 34.0117L27.9597 35.3297C30.1309 37.0738 32.3645 38.7051 35.0502 39.5119C39.177 40.6911 42.7219 35.9432 42.5512 32.0719C43.0244 25.8422 38.3237 20.9468 37.3774 15.0196C37.2532 10.8458 38.409 6.09009 42.1479 3.79369C49.4938 -0.108625 61.0053 2.34294 63.441 11.2803Z" fill="#6F367A"/>
</g>
<defs>
<clipPath id="clip0_102_168">
<rect width="100" height="100" fill="white"/>
</clipPath>
</defs>
</svg>
