<svg width="143" height="62" viewBox="0 0 143 62" fill="none" xmlns="http://www.w3.org/2000/svg">
<path d="M116.743 24.2748C114.807 24.2748 110.074 24.2748 110.074 27.0715C110.074 29.0078 111.58 29.2229 111.58 30.5137C111.58 30.944 109.428 35.8921 107.707 35.8921C106.417 35.8921 104.48 31.5894 104.48 30.5137C104.48 29.2229 106.201 29.0078 106.201 27.0715C106.201 24.0596 100.393 24.0596 98.2414 24.0596C87.4846 24.0596 87.0544 26.211 87.0544 27.2867C87.0544 29.438 90.4965 29.438 90.4965 32.0197C90.4965 32.8802 88.9906 35.677 87.9149 35.677C86.409 35.677 84.0425 30.7288 84.0425 29.8683C84.0425 29.2229 85.1181 28.5775 85.1181 27.2867C85.1181 24.0596 78.4489 24.0596 76.2976 24.0596C73.7159 24.0596 65.3256 24.2748 65.3256 27.9321V28.1472C61.6683 24.4899 56.2899 22.9839 51.3418 24.0596C43.3818 25.7807 36.4974 31.8045 36.7126 39.9797C36.2823 39.1191 35.2066 38.4737 34.1309 38.4737C30.6888 38.4737 33.7007 46.2186 24.4498 46.2186C20.5774 46.2186 19.932 44.2824 19.932 40.41V22.7688C19.932 17.6055 24.2347 19.972 24.2347 16.745C24.2347 14.8088 23.8044 12.8726 12.6173 12.8726C9.60544 13.0877 1 13.3028 1 17.1753C1 20.4023 5.94813 17.8207 5.94813 22.5537C5.94813 25.5656 6.3784 28.7926 6.3784 32.0197C6.3784 35.2467 6.3784 38.904 6.16326 42.7765C5.94813 49.2305 1.64541 46.4338 1.64541 49.8759C1.64541 52.4576 4.44217 52.2424 6.16326 52.2424H24.6649C25.9558 52.2424 27.4617 52.4576 28.7525 52.6727C29.6131 52.8878 30.6888 53.103 31.5493 53.103C33.9158 53.103 36.4974 48.5851 37.1428 44.4975C39.5093 51.8122 46.8239 54.6089 54.3537 53.103C62.3137 51.3819 70.704 44.0673 68.9829 35.2467C68.5527 33.3105 67.9073 31.5894 66.6165 30.0834C67.9073 30.2986 68.9829 31.1591 69.6284 32.2348L80.17 49.2305C81.0306 50.7365 82.3214 53.103 84.4727 53.103C86.1938 53.103 87.0544 51.3819 87.9149 50.0911L92.0025 42.9916C92.4328 42.131 93.2933 40.41 94.369 40.41C95.2295 40.41 95.8749 41.7008 96.3052 42.3462L99.102 46.864C100.178 48.5851 102.759 52.8878 104.911 52.8878C107.277 52.8878 109.859 48.1549 110.719 46.4338L117.819 32.4499C120.4 27.7169 123.627 30.0834 123.627 26.8564C123.412 24.2748 118.464 24.2748 116.743 24.2748ZM55.6445 45.7884C51.7721 46.4338 49.1904 38.2586 48.3299 34.8164C47.6845 33.3105 48.545 31.5894 50.051 31.1591H50.2661C53.9234 30.5137 56.9353 39.5494 57.3656 42.131C57.7959 43.637 57.5807 45.3581 55.6445 45.7884Z" fill="white"/>
<path d="M139.978 42.1312V26.6414C139.978 25.5657 139.978 24.2749 138.257 24.2749C137.611 24.2749 123.627 25.996 123.627 29.8684C123.627 32.4501 126.424 31.8047 126.854 33.7409C127.5 37.8285 127.285 41.7009 126.639 45.7885C125.994 47.5096 123.627 47.7247 123.627 49.6609C123.627 50.9518 124.058 53.1031 133.524 53.1031C136.105 53.1031 142.99 53.1031 142.99 49.2307C143.205 46.2188 139.978 48.5853 139.978 42.1312Z" fill="white"/>
<path d="M130.727 9C134.384 9 137.396 12.0119 137.396 15.6692V15.8843C137.396 17.6054 136.751 19.3265 135.46 20.6173C132.878 23.199 128.791 23.199 125.994 20.6173C123.412 18.0357 123.412 13.5179 125.994 10.9362C127.5 9.64541 129.006 9 130.727 9Z" fill="white"/>
</svg>
