<svg width="143" height="62" viewBox="0 0 143 62" fill="none" xmlns="http://www.w3.org/2000/svg">
<path d="M105.66 25.8326C104.16 25.8326 100.494 25.8326 100.494 27.9991C100.494 29.499 101.66 29.6656 101.66 30.6656C101.66 30.9989 99.9939 34.8319 98.6607 34.8319C97.6608 34.8319 96.1609 31.4988 96.1609 30.6656C96.1609 29.6656 97.4941 29.499 97.4941 27.9991C97.4941 25.6659 92.9944 25.6659 91.3279 25.6659C82.9952 25.6659 82.6618 27.3325 82.6618 28.1657C82.6618 29.8323 85.3283 29.8323 85.3283 31.8321C85.3283 32.4988 84.1617 34.6653 83.3285 34.6653C82.1619 34.6653 80.3287 30.8322 80.3287 30.1656C80.3287 29.6656 81.1619 29.1657 81.1619 28.1657C81.1619 25.6659 75.9957 25.6659 74.3291 25.6659C72.3293 25.6659 65.8297 25.8326 65.8297 28.6657V28.8324C62.9966 25.9992 58.8302 24.8326 54.9972 25.6659C48.831 26.9992 43.498 31.6655 43.6647 37.9984C43.3314 37.3317 42.4981 36.8318 41.6648 36.8318C38.9983 36.8318 41.3315 42.8313 34.1654 42.8313C31.1656 42.8313 30.6656 41.3315 30.6656 38.3317V24.666C30.6656 20.6663 33.9987 22.4995 33.9987 19.9997C33.9987 18.4998 33.6654 16.9999 24.9993 16.9999C22.6662 17.1665 16 17.3332 16 20.333C16 22.8328 19.8331 20.8329 19.8331 24.4993C19.8331 26.8325 20.1664 29.3323 20.1664 31.8321C20.1664 34.332 20.1664 37.1651 19.9997 40.1649C19.8331 45.1645 16.5 42.998 16.5 45.6645C16.5 47.6643 18.6665 47.4977 19.9997 47.4977H34.332C35.3319 47.4977 36.4985 47.6643 37.4984 47.831C38.1651 47.9976 38.9983 48.1643 39.665 48.1643C41.4982 48.1643 43.498 44.6645 43.998 41.4981C45.8312 47.1644 51.4974 49.3309 57.3303 48.1643C63.4966 46.8311 69.9961 41.1648 68.6629 34.332C68.3295 32.8321 67.8296 31.4988 66.8297 30.3322C67.8296 30.4989 68.6629 31.1655 69.1628 31.9988L77.3289 45.1645C77.9955 46.3311 78.9954 48.1643 80.662 48.1643C81.9952 48.1643 82.6618 46.8311 83.3285 45.8311L86.4949 40.3315C86.8282 39.6649 87.4948 38.3317 88.3281 38.3317C88.9947 38.3317 89.4947 39.3316 89.828 39.8316L91.9945 43.3313C92.8278 44.6645 94.8276 47.9976 96.4942 47.9976C98.3274 47.9976 100.327 44.3312 100.994 42.998L106.493 32.1654C108.493 28.499 110.993 30.3322 110.993 27.8324C110.826 25.8326 106.993 25.8326 105.66 25.8326ZM58.3303 42.498C55.3305 42.998 53.3306 36.6651 52.664 33.9986C52.1641 32.8321 52.8307 31.4988 53.9972 31.1655H54.1639C56.997 30.6656 59.3302 37.6651 59.6635 39.6649C59.9968 40.8315 59.8302 42.1647 58.3303 42.498Z" fill="black"/>
<path d="M123.659 39.665V27.6658C123.659 26.8326 123.659 25.8326 122.326 25.8326C121.826 25.8326 110.993 27.1659 110.993 30.1657C110.993 32.1655 113.16 31.6656 113.493 33.1654C113.993 36.3319 113.826 39.3317 113.326 42.4981C112.826 43.8313 110.993 43.998 110.993 45.4979C110.993 46.4978 111.326 48.1644 118.659 48.1644C120.659 48.1644 125.992 48.1644 125.992 45.1646C126.159 42.8314 123.659 44.6646 123.659 39.665Z" fill="black"/>
<path d="M116.493 14C119.326 14 121.659 16.3332 121.659 19.1663V19.3329C121.659 20.6662 121.159 21.9994 120.159 22.9993C118.159 24.9992 114.993 24.9992 112.826 22.9993C110.826 20.9995 110.826 17.4997 112.826 15.4999C113.993 14.5 115.159 14 116.493 14Z" fill="#C73348"/>
</svg>
