<svg width="100" height="100" viewBox="0 0 100 100" fill="none" xmlns="http://www.w3.org/2000/svg">
<mask id="mask0_34_170" style="mask-type:alpha" maskUnits="userSpaceOnUse" x="1" y="9" width="66" height="82">
<rect x="1" y="9" width="65.5241" height="81.4624" fill="#C4C4C4"/>
</mask>
<g mask="url(#mask0_34_170)">
<path d="M207.743 34.5051C204.314 34.5051 195.932 34.5051 195.932 39.458C195.932 42.8869 198.599 43.2679 198.599 45.5538C198.599 46.3158 194.789 55.0785 191.741 55.0785C189.455 55.0785 186.026 47.4588 186.026 45.5538C186.026 43.2679 189.074 42.8869 189.074 39.458C189.074 34.1242 178.788 34.1242 174.978 34.1242C155.928 34.1242 155.166 37.934 155.166 39.839C155.166 43.6489 161.262 43.6489 161.262 48.2207C161.262 49.7447 158.595 54.6976 156.69 54.6976C154.023 54.6976 149.833 45.9348 149.833 44.4109C149.833 43.2679 151.737 42.1249 151.737 39.839C151.737 34.1242 139.927 34.1242 136.117 34.1242C131.545 34.1242 116.687 34.5051 116.687 40.982V41.3629C110.21 34.8861 100.685 32.2192 91.9222 34.1242C77.8257 37.1721 71.8368 48.2207 66.015 62.3173C65.253 60.7934 63.3481 59.6504 61.4431 59.6504C55.3473 59.6504 60.6812 73.366 44.2986 73.366C37.4408 73.366 36.2979 69.9371 36.2979 63.0793V31.8382C36.2979 22.6945 43.9177 26.8854 43.9177 21.1705C43.9177 17.7416 43.1557 14.3127 23.3443 14.3127C18.0104 14.6937 2.77087 15.0747 2.77087 21.9325C2.77087 27.6474 11.5336 23.0755 11.5336 31.4572C11.5336 36.7911 12.2956 42.5059 12.2956 48.2207C12.2956 53.9356 12.2956 60.4124 11.9146 67.2702C11.5336 78.6998 3.91384 73.747 3.91384 79.8428C3.91384 84.4147 8.86669 84.0337 11.9146 84.0337H44.6796C46.9656 84.0337 49.6325 84.4147 51.9184 84.7957C53.4424 85.1767 55.3473 85.5576 56.8713 85.5576C61.0622 85.5576 65.634 77.5569 66.777 70.3181C70.9679 83.2717 83.9215 88.2246 97.2561 85.5576C111.353 82.5097 126.211 69.5561 123.163 53.9356C122.401 50.5067 121.258 47.4588 118.972 44.7918C121.258 45.1728 123.163 46.6968 124.306 48.6017L142.975 78.6998C144.499 81.3668 146.785 85.5576 150.595 85.5576C153.642 85.5576 155.166 82.5097 156.69 80.2238L163.929 67.6512C164.691 66.1272 166.215 63.0793 168.12 63.0793C169.644 63.0793 170.787 65.3652 171.549 66.5082L176.502 74.509C178.407 77.5569 182.979 85.1767 186.788 85.1767C190.979 85.1767 195.551 76.7949 197.075 73.747L209.648 48.9827C214.22 40.601 219.934 44.7918 219.934 39.077C219.553 34.5051 210.791 34.5051 207.743 34.5051ZM99.542 72.604C92.6842 73.747 88.1124 59.2694 86.5884 53.1736C85.4454 50.5067 86.9694 47.4588 89.6363 46.6968H90.0173C96.4941 45.5538 101.828 61.5553 102.59 66.1272C103.352 68.7941 102.971 71.842 99.542 72.604Z" fill="black"/>
</g>
<path d="M87.1893 60.3567C93.6661 60.3567 99 65.6905 99 72.1673V72.5483C99 75.5962 97.857 78.6441 95.5711 80.9301C90.9992 85.5019 83.7604 85.5019 78.8076 80.9301C74.2357 76.3582 74.2357 68.3575 78.8076 63.7856C81.4745 61.4997 84.1414 60.3567 87.1893 60.3567Z" fill="#C73348"/>
</svg>
