<svg width="143" height="62" viewBox="0 0 143 62" fill="none" xmlns="http://www.w3.org/2000/svg">
<path fill-rule="evenodd" clip-rule="evenodd" d="M39.6018 34.4279C38.3491 34.4279 37.4781 35.2509 37.3693 36.6241C36.9342 41.1263 33.6122 44.8608 29.0393 44.8608C24.4655 44.8608 21.1987 41.1263 20.7093 36.6241C20.6005 35.3606 19.7294 34.427 18.4767 34.427C17.225 34.427 16.2442 35.415 16.2442 36.6241C16.2442 43.5981 21.961 49.2533 29.0393 49.2533C36.1166 49.2533 41.8334 43.5972 41.8334 36.6241C41.8334 35.4159 40.8545 34.427 39.6018 34.427V34.4279ZM18.639 31.1312C19.7285 31.0224 20.5996 30.1976 20.5996 29.2096V26.0806V25.4217C20.4908 24.3231 19.7285 23.5544 18.639 23.5C17.496 23.3895 16.5705 24.0484 16.353 25.0917C16.2442 25.3664 16.2442 25.7507 16.2442 26.0797V28.3866C16.2442 28.4962 16.2442 29.2658 16.353 29.5395C16.5705 30.5837 17.4951 31.2427 18.639 31.1321V31.1312ZM39.4369 31.1312C40.5808 31.2418 41.5062 30.5828 41.7238 29.5386C41.7781 29.2096 41.8325 28.4962 41.8325 28.3857V26.0797C41.8325 25.7498 41.8325 25.4207 41.7238 25.0917C41.5062 24.0475 40.5264 23.3885 39.4369 23.4982C38.3491 23.6088 37.5316 24.3775 37.4772 25.4198V29.2096C37.4772 30.1432 38.3482 31.0224 39.4369 31.1312ZM8.40547 45.1907C8.13355 45.1354 7.86162 45.1354 7.58879 45.1354C6.60894 45.0811 5.95541 44.5861 5.79226 43.6525C5.68144 43.0733 5.62681 42.4847 5.6291 41.895V15.8118V15.0431C5.51942 13.9445 4.70183 13.1215 3.50445 13.0109C2.30706 12.9021 1.32631 13.6164 1.10877 14.7132C1 15.0431 1 15.3721 1 15.7012V42.1152C1 42.9392 1.05439 43.8175 1.16316 44.6414C1.3807 46.0138 1.87107 47.3317 3.12375 48.1556C4.75712 49.2533 6.60804 49.3639 8.51334 49.1436C9.65634 49.0349 10.2555 48.21 10.2555 47.1123C10.2555 46.0138 9.54847 45.2995 8.40457 45.1907H8.40547ZM141.796 45.9594C141.62 45.5525 141.401 45.1657 141.143 44.8055C140.434 43.7631 140.217 42.5539 140.217 41.3466V32.9441C140.217 32.0104 140.162 31.0768 139.999 30.1985C139.455 26.9046 137.44 24.7074 134.065 23.9387C131.124 23.2254 128.13 23.3351 125.191 24.1581C124.101 24.488 123.067 24.9829 122.086 25.5313C121.271 25.9709 121.053 26.9046 121.325 27.7829C121.542 28.4962 122.195 28.9911 123.067 28.9359C123.611 28.8815 124.155 28.7165 124.645 28.4962C126.932 27.5082 129.273 27.1239 131.723 27.5082C133.956 27.8373 135.316 29.1008 135.698 31.1874C135.861 31.9561 135.807 32.7247 135.861 33.5486C135.861 34.2629 135.861 34.2629 135.154 34.2629C132.594 34.3173 130.09 34.2629 127.531 34.3717C125.898 34.427 124.373 34.8666 122.957 35.6905C120.78 36.9532 119.855 38.8204 119.691 41.1816C119.473 44.7511 121.052 47.6063 124.864 48.7049C126.878 49.3086 128.947 49.3639 131.015 49.0893C133.194 48.8146 135.044 47.9907 136.515 46.3981C136.569 46.3437 136.569 46.3437 136.678 46.2893C136.895 46.6183 137.059 46.8921 137.276 47.222C137.549 47.6063 137.821 48.046 138.202 48.375C138.964 49.0893 140.217 49.0893 141.088 48.4847C141.959 47.9363 142.232 46.9474 141.796 45.9594ZM136.024 40.6323C136.024 42.7189 134.936 44.2018 132.812 44.9161C130.852 45.5741 128.837 45.6294 126.823 45.0801C124.319 44.3668 123.285 41.7853 124.645 39.6987C125.19 38.8195 126.115 38.3264 127.15 38.1614C128.293 37.9421 129.436 37.8868 130.58 37.7771C131.233 37.7227 131.887 37.7771 132.54 37.7771H135.48C135.861 37.7771 136.024 37.8868 136.024 38.2711V40.6323ZM67.8052 42.6092C67.0972 42.0056 66.063 42.0056 65.2463 42.5549C64.9744 42.7189 64.756 42.9392 64.5384 43.1585C63.3401 44.4212 61.8708 45.1345 60.1278 45.1898C57.1882 45.3004 54.9013 43.9825 54.0303 41.1816C53.5408 39.589 53.5408 37.9965 53.4864 36.0195C53.5408 35.3062 53.5408 34.2629 53.6496 33.2187C53.7583 32.0657 54.0846 30.9128 54.7373 29.8695C56.5891 26.9046 61.0541 26.9046 63.2314 28.3866C63.8296 28.8262 64.3753 29.3746 64.9191 29.8695C65.7902 30.6381 66.9341 30.7487 67.7508 30.0344C68.5122 29.3755 68.6209 28.2769 68.0227 27.288C67.2613 26.135 66.2262 25.2576 64.9735 24.5977C62.7419 23.3895 60.2918 23.1701 57.7874 23.4991C53.8127 23.994 50.6547 26.5193 49.6749 30.3091C48.5863 34.3173 48.6407 38.3264 49.6749 42.3346C50.3275 44.7511 51.8521 46.6183 54.0846 47.8257C56.2084 48.9796 58.5497 49.3086 60.9997 49.0893C63.1226 48.869 65.0823 48.1556 66.6613 46.728C67.2604 46.171 67.7905 45.5441 68.2402 44.8608C68.7297 44.1465 68.5122 43.1585 67.8052 42.6092ZM116.97 24.488C115.118 23.3895 113.158 23.2798 111.089 23.6641C108.965 24.1037 107.332 25.2567 106.243 27.1783C106.243 26.7396 106.297 26.2447 106.243 25.806C106.134 24.7074 105.373 23.9387 104.283 23.8291C103.031 23.7194 102.159 24.3231 101.833 25.4217C101.724 25.7507 101.724 26.135 101.724 26.464V47.222C101.833 48.4303 102.649 49.198 103.847 49.2533C104.991 49.3086 105.917 48.6496 106.189 47.4967C106.243 47.222 106.243 46.8921 106.243 46.6174C106.243 42.7742 106.189 38.9301 106.243 35.0315C106.243 33.8233 106.406 32.5606 106.732 31.4068C107.496 28.4971 109.782 27.1239 112.831 27.6723C113.593 27.7829 114.355 28.1119 115.118 28.3322C116.043 28.6068 116.914 28.4409 117.513 27.6732C118.438 26.6299 118.166 25.2023 116.97 24.488ZM88.1127 24.3231C85.9898 23.4438 83.7573 23.2807 81.5248 23.6097C77.8229 24.1581 75.2097 26.135 73.8483 29.5948C73.1413 31.4077 72.9228 33.2749 72.9228 35.1965C72.8684 37.6121 72.9228 40.083 73.7386 42.3899C74.5562 44.8055 75.9176 46.8377 78.3124 47.9363C82.3415 49.8035 86.3161 49.5833 90.2364 47.6063C91.2706 47.1123 92.1417 46.3437 93.0128 45.5741C93.7751 44.9161 93.7207 43.7622 93.1215 43.0489C92.5233 42.3346 91.4882 42.2249 90.6171 42.7742C90.3996 42.9392 90.1276 43.1032 89.9101 43.2682C87.8951 44.7511 85.6626 45.3548 83.1581 45.0811C80.8722 44.8055 79.1835 43.7622 78.2036 41.6756C77.6598 40.5779 77.4966 39.4241 77.4422 38.2158C77.4422 37.6121 77.4423 37.5568 78.0405 37.5568H92.4136C93.4488 37.5568 94.1023 36.9532 94.1023 36.0195C94.1567 33.9883 93.9391 32.0113 93.34 30.0888C92.4689 27.5082 90.7803 25.476 88.1127 24.324V24.3231ZM88.8206 34.427H78.3659C77.822 34.427 77.7133 34.3726 77.7677 33.768C77.8764 32.8344 77.9308 31.8464 78.1484 30.9671C78.8563 28.6068 80.3809 27.2336 82.559 26.9046C84.6275 26.5746 86.5328 26.9046 88.0574 28.6612C89.2013 29.9791 89.6364 31.627 89.6907 33.4381C89.7451 34.427 89.9083 34.427 88.8206 34.427Z" fill="#00FFAA"/>
</svg>
