<?xml version="1.0" encoding="UTF-8" standalone="no"?><!DOCTYPE svg PUBLIC "-//W3C//DTD SVG 1.1//EN" "http://www.w3.org/Graphics/SVG/1.1/DTD/svg11.dtd"><svg width="100%" height="100%" viewBox="0 0 192 192" version="1.1" xmlns="http://www.w3.org/2000/svg" xmlns:xlink="http://www.w3.org/1999/xlink" xml:space="preserve" xmlns:serif="http://www.serif.com/" style="fill-rule:evenodd;clip-rule:evenodd;stroke-linejoin:round;stroke-miterlimit:1.41421;"><path id="path0" d="M93.933,13.742c-1.868,0.15 -3.207,0.309 -4.095,0.484c-0.481,0.095 -1.022,0.197 -1.202,0.226c-0.296,0.048 -0.938,0.218 -1.864,0.492c-0.184,0.054 -0.416,0.099 -0.515,0.099c-0.099,0 -0.341,0.067 -0.538,0.15c-0.198,0.083 -0.556,0.209 -0.796,0.28c-0.24,0.071 -0.621,0.2 -0.846,0.286c-0.608,0.234 -1.309,0.5 -1.556,0.593c-0.383,0.142 -0.746,0.301 -1.483,0.647c-0.395,0.185 -0.776,0.337 -0.847,0.337c-0.07,0 -0.128,0.049 -0.128,0.109c0,0.06 -0.092,0.109 -0.205,0.109c-0.112,0 -0.266,0.074 -0.341,0.164c-0.074,0.09 -0.204,0.164 -0.288,0.164c-0.084,0 -0.347,0.123 -0.585,0.273c-0.238,0.15 -0.459,0.273 -0.492,0.273c-0.033,0 -0.371,0.197 -0.751,0.437c-0.381,0.24 -0.748,0.437 -0.817,0.437c-0.068,0 -0.124,0.038 -0.124,0.084c0,0.047 -0.185,0.182 -0.41,0.3c-0.225,0.119 -0.459,0.254 -0.519,0.299c-0.06,0.046 -0.842,0.603 -1.738,1.238c-2.555,1.81 -3.609,2.723 -7.313,6.334c-0.067,0.066 -0.54,0.577 -1.05,1.137c-0.511,0.559 -0.978,1.071 -1.038,1.136c-0.06,0.066 -0.29,0.341 -0.511,0.611c-0.221,0.27 -0.516,0.622 -0.655,0.781c-0.14,0.16 -0.597,0.743 -1.018,1.295c-0.42,0.553 -0.899,1.158 -1.065,1.345c-0.165,0.187 -0.3,0.375 -0.3,0.418c0,0.042 -0.064,0.142 -0.143,0.221c-0.144,0.145 -0.511,0.681 -1.783,2.602c-0.378,0.57 -0.726,1.086 -0.773,1.146c-0.047,0.06 -0.183,0.294 -0.302,0.519c-0.118,0.225 -0.248,0.409 -0.287,0.409c-0.04,0 -0.101,0.086 -0.136,0.192c-0.067,0.198 -0.187,0.4 -0.568,0.955c-0.124,0.18 -0.31,0.5 -0.414,0.71c-0.105,0.21 -0.278,0.53 -0.386,0.71c-0.107,0.18 -0.334,0.573 -0.504,0.874c-0.429,0.759 -2.565,5.004 -2.885,5.733c-0.145,0.331 -0.382,0.871 -0.527,1.201c-0.145,0.331 -0.328,0.748 -0.407,0.928c-0.079,0.181 -0.225,0.525 -0.325,0.765c-0.099,0.24 -0.228,0.522 -0.285,0.626c-0.057,0.105 -0.104,0.24 -0.104,0.301c0,0.061 -0.122,0.366 -0.273,0.677c-0.15,0.312 -0.273,0.646 -0.273,0.743c0,0.098 -0.072,0.273 -0.16,0.39c-0.088,0.116 -0.162,0.319 -0.164,0.451c-0.002,0.131 -0.047,0.266 -0.099,0.298c-0.053,0.033 -0.122,0.171 -0.153,0.307c-0.032,0.136 -0.163,0.518 -0.293,0.848c-0.13,0.331 -0.311,0.847 -0.403,1.147c-0.092,0.3 -0.237,0.707 -0.321,0.905c-0.085,0.197 -0.154,0.445 -0.154,0.551c0,0.106 -0.039,0.24 -0.087,0.297c-0.048,0.057 -0.169,0.374 -0.27,0.704c-0.101,0.33 -0.312,1.018 -0.469,1.529c-0.157,0.51 -0.361,1.198 -0.455,1.529c-0.093,0.33 -0.208,0.699 -0.256,0.819c-0.047,0.12 -0.111,0.366 -0.141,0.546c-0.097,0.572 -0.339,1.453 -0.424,1.538c-0.045,0.045 -0.082,0.205 -0.082,0.354c0,0.15 -0.078,0.548 -0.174,0.883c-0.096,0.336 -0.215,0.782 -0.265,0.993c-0.154,0.652 -0.333,1.452 -0.439,1.965c-0.056,0.271 -0.18,0.836 -0.274,1.256c-0.094,0.421 -0.21,1.01 -0.257,1.311c-0.137,0.879 -0.348,1.939 -0.456,2.301c-0.056,0.184 -0.101,0.528 -0.102,0.764c-0.001,0.236 -0.074,0.7 -0.163,1.03c-0.088,0.33 -0.162,0.784 -0.162,1.008c-0.001,0.225 -0.048,0.618 -0.106,0.874c-0.129,0.573 -0.335,2.119 -0.448,3.36c-0.046,0.51 -0.167,1.739 -0.268,2.73c-0.693,6.794 -0.694,16.571 -0.003,23.425c0.097,0.961 0.218,2.239 0.269,2.839c0.051,0.601 0.123,1.166 0.161,1.256c0.038,0.09 0.117,0.606 0.177,1.147c0.211,1.897 0.315,2.624 0.429,3.002c0.063,0.21 0.115,0.592 0.115,0.848c0,0.257 0.044,0.552 0.098,0.656c0.088,0.171 0.167,0.584 0.456,2.374c0.049,0.3 0.169,0.89 0.266,1.31c0.098,0.421 0.214,0.986 0.257,1.257c0.043,0.27 0.118,0.556 0.166,0.634c0.049,0.078 0.13,0.397 0.181,0.709c0.151,0.927 0.52,2.44 0.664,2.723c0.053,0.104 0.096,0.283 0.096,0.397c0,0.114 0.07,0.446 0.156,0.738c0.086,0.293 0.236,0.827 0.334,1.187c0.098,0.36 0.225,0.741 0.281,0.845c0.057,0.104 0.103,0.267 0.103,0.361c0,0.166 0.255,1.067 0.431,1.524c0.046,0.12 0.171,0.513 0.276,0.874c0.106,0.36 0.228,0.753 0.272,0.873c0.289,0.788 0.363,1.017 0.411,1.285c0.03,0.166 0.098,0.328 0.151,0.362c0.054,0.032 0.097,0.142 0.098,0.244c0,0.101 0.074,0.325 0.163,0.497c0.09,0.172 0.164,0.403 0.164,0.512c0,0.11 0.045,0.228 0.1,0.262c0.056,0.034 0.136,0.22 0.178,0.413c0.042,0.192 0.115,0.425 0.161,0.517c0.046,0.092 0.169,0.389 0.272,0.659c0.352,0.918 0.401,1.037 0.555,1.347c0.084,0.17 0.153,0.403 0.153,0.518c0,0.116 0.05,0.21 0.11,0.21c0.06,0 0.109,0.089 0.109,0.198c0,0.108 0.072,0.292 0.16,0.409c0.088,0.117 0.162,0.272 0.164,0.345c0.003,0.131 0.214,0.619 0.93,2.16c0.196,0.421 0.441,0.961 0.546,1.202c0.104,0.24 0.331,0.719 0.505,1.065c0.173,0.346 0.357,0.715 0.409,0.819c0.052,0.105 0.183,0.363 0.293,0.573c0.287,0.552 0.354,0.69 0.428,0.873c0.036,0.091 0.209,0.41 0.383,0.71c0.175,0.301 0.404,0.718 0.51,0.929c0.182,0.36 0.903,1.608 1.136,1.965c0.059,0.09 0.141,0.238 0.182,0.328c0.12,0.259 1.811,2.955 2.168,3.454c0.177,0.249 0.381,0.543 0.454,0.656c0.245,0.377 1.916,2.712 2.178,3.043c0.143,0.18 0.295,0.377 0.34,0.438c0.126,0.173 1.384,1.74 1.445,1.801c0.03,0.03 0.22,0.251 0.422,0.491c1.666,1.984 4.858,5.216 6.349,6.429c0.21,0.172 0.579,0.491 0.819,0.709c0.24,0.219 0.732,0.617 1.092,0.885c0.36,0.267 0.704,0.526 0.764,0.574c0.06,0.049 0.503,0.366 0.983,0.704c0.481,0.338 0.899,0.644 0.929,0.68c0.089,0.108 0.477,0.341 0.682,0.41c0.105,0.035 0.191,0.101 0.191,0.148c0,0.046 0.086,0.113 0.191,0.15c0.105,0.037 0.413,0.211 0.683,0.388c0.27,0.177 0.614,0.389 0.764,0.472c0.15,0.083 0.552,0.306 0.891,0.496c0.729,0.407 2.787,1.442 2.869,1.442c0.031,0 0.316,0.117 0.633,0.259c0.317,0.142 0.797,0.344 1.068,0.449c0.27,0.106 0.589,0.231 0.71,0.28c0.12,0.048 0.464,0.17 0.764,0.271c0.3,0.101 0.644,0.221 0.764,0.266c0.242,0.091 1.181,0.362 1.857,0.535c0.24,0.061 0.692,0.188 1.003,0.282c0.312,0.093 0.721,0.17 0.908,0.17c0.188,0 0.431,0.047 0.54,0.106c1.407,0.753 11.105,0.756 13.264,0.004c0.174,-0.06 0.435,-0.11 0.58,-0.11c0.145,0 0.518,-0.077 0.83,-0.17c0.312,-0.094 0.763,-0.221 1.003,-0.282c0.704,-0.181 1.621,-0.445 1.857,-0.537c0.12,-0.047 0.317,-0.109 0.437,-0.14c0.244,-0.061 1.627,-0.565 1.965,-0.717c0.121,-0.053 0.415,-0.18 0.656,-0.28c0.24,-0.1 0.535,-0.224 0.655,-0.274c0.393,-0.166 2.722,-1.324 3.058,-1.521c0.18,-0.106 0.622,-0.354 0.983,-0.552c0.36,-0.198 0.811,-0.476 1.002,-0.619c0.192,-0.143 0.375,-0.259 0.409,-0.259c0.033,0 0.393,-0.226 0.799,-0.501c0.725,-0.493 0.83,-0.566 1.516,-1.057c0.603,-0.432 2.382,-1.803 2.608,-2.009c0.12,-0.111 0.636,-0.566 1.146,-1.013c0.989,-0.866 4.119,-3.971 4.884,-4.846c0.879,-1.005 2.314,-2.734 2.872,-3.461c0.208,-0.27 0.465,-0.586 0.57,-0.703c0.106,-0.116 0.192,-0.248 0.192,-0.292c0,-0.045 0.063,-0.146 0.14,-0.225c0.077,-0.08 0.421,-0.538 0.764,-1.018c0.343,-0.481 0.673,-0.933 0.734,-1.006c0.06,-0.073 0.11,-0.179 0.11,-0.237c0,-0.057 0.037,-0.121 0.082,-0.141c0.081,-0.036 0.904,-1.213 1.01,-1.445c0.03,-0.066 0.239,-0.4 0.464,-0.743c0.225,-0.342 0.409,-0.674 0.409,-0.737c0,-0.063 0.042,-0.114 0.092,-0.114c0.05,0 0.186,-0.196 0.301,-0.436c0.114,-0.239 0.245,-0.436 0.29,-0.437c0.045,0 0.082,-0.071 0.082,-0.157c0,-0.086 0.061,-0.221 0.136,-0.302c0.075,-0.08 0.235,-0.342 0.354,-0.581c0.12,-0.239 0.246,-0.46 0.281,-0.49c0.035,-0.03 0.095,-0.128 0.134,-0.218c0.039,-0.09 0.215,-0.41 0.39,-0.71c0.327,-0.559 2.23,-4.349 2.702,-5.379c0.144,-0.315 0.38,-0.831 0.524,-1.146c0.482,-1.054 0.612,-1.37 0.612,-1.491c0,-0.066 0.049,-0.12 0.109,-0.12c0.06,0 0.109,-0.072 0.109,-0.16c0,-0.088 0.07,-0.322 0.155,-0.519c0.085,-0.197 0.235,-0.555 0.335,-0.795c0.326,-0.792 0.408,-0.981 0.506,-1.173c0.053,-0.104 0.096,-0.244 0.096,-0.311c0,-0.067 0.068,-0.276 0.151,-0.466c0.083,-0.189 0.213,-0.516 0.29,-0.726c0.076,-0.21 0.196,-0.53 0.267,-0.71c0.277,-0.7 0.411,-1.104 0.464,-1.393c0.03,-0.166 0.098,-0.329 0.151,-0.362c0.053,-0.033 0.097,-0.17 0.097,-0.305c0,-0.135 0.072,-0.341 0.16,-0.458c0.088,-0.117 0.162,-0.337 0.164,-0.49c0.002,-0.154 0.042,-0.326 0.09,-0.383c0.048,-0.057 0.177,-0.398 0.288,-0.759c0.11,-0.36 0.262,-0.851 0.338,-1.092c0.076,-0.24 0.196,-0.658 0.266,-0.928c0.07,-0.27 0.178,-0.639 0.24,-0.819c0.063,-0.18 0.137,-0.45 0.166,-0.601c0.028,-0.15 0.091,-0.371 0.138,-0.491c0.084,-0.212 0.27,-0.915 0.448,-1.693c0.049,-0.21 0.169,-0.677 0.267,-1.037c0.216,-0.792 0.336,-1.322 0.492,-2.171c0.065,-0.353 0.165,-0.731 0.223,-0.84c0.058,-0.108 0.105,-0.31 0.104,-0.449c-0.001,-0.251 0.258,-1.472 0.448,-2.117c0.055,-0.185 0.099,-0.48 0.099,-0.657c0,-0.176 0.051,-0.492 0.114,-0.702c0.124,-0.418 0.277,-1.349 0.432,-2.627c0.055,-0.455 0.151,-0.962 0.214,-1.127c0.063,-0.165 0.114,-0.478 0.114,-0.696c0,-0.217 0.049,-0.669 0.108,-1.003c0.15,-0.844 0.345,-2.398 0.44,-3.501c0.145,-1.697 0.332,-3.755 0.435,-4.805c0.339,-3.457 0.339,-14.692 -0.001,-17.637c-0.055,-0.48 -0.157,-1.562 -0.226,-2.403c-0.198,-2.396 -0.288,-3.283 -0.482,-4.75c-0.1,-0.751 -0.218,-1.712 -0.263,-2.136c-0.045,-0.424 -0.116,-0.826 -0.158,-0.894c-0.042,-0.068 -0.123,-0.508 -0.18,-0.977c-0.142,-1.165 -0.456,-3.019 -0.654,-3.856c-0.05,-0.21 -0.149,-0.677 -0.221,-1.037c-0.178,-0.894 -0.286,-1.396 -0.496,-2.294c-0.098,-0.42 -0.204,-0.961 -0.235,-1.201c-0.032,-0.24 -0.095,-0.486 -0.142,-0.546c-0.046,-0.06 -0.12,-0.33 -0.164,-0.601c-0.043,-0.27 -0.117,-0.54 -0.163,-0.6c-0.046,-0.06 -0.107,-0.282 -0.135,-0.492c-0.067,-0.501 -0.303,-1.424 -0.424,-1.664c-0.053,-0.104 -0.098,-0.301 -0.101,-0.437c-0.002,-0.136 -0.074,-0.37 -0.16,-0.52c-0.085,-0.15 -0.157,-0.384 -0.16,-0.52c-0.002,-0.136 -0.046,-0.332 -0.097,-0.437c-0.163,-0.329 -0.453,-1.302 -0.453,-1.52c0,-0.115 -0.042,-0.256 -0.095,-0.313c-0.052,-0.057 -0.179,-0.399 -0.283,-0.759c-0.103,-0.36 -0.254,-0.827 -0.335,-1.037c-0.081,-0.211 -0.204,-0.579 -0.274,-0.82c-0.069,-0.24 -0.195,-0.576 -0.279,-0.745c-0.084,-0.17 -0.153,-0.38 -0.153,-0.466c0,-0.086 -0.043,-0.242 -0.096,-0.346c-0.223,-0.441 -0.45,-1.026 -0.45,-1.16c0,-0.133 -0.209,-0.64 -0.444,-1.076c-0.056,-0.104 -0.102,-0.265 -0.102,-0.356c0,-0.092 -0.047,-0.252 -0.105,-0.357c-0.18,-0.327 -0.769,-1.675 -0.769,-1.76c0,-0.045 -0.123,-0.336 -0.273,-0.647c-0.15,-0.311 -0.273,-0.599 -0.273,-0.64c0,-0.041 -0.142,-0.372 -0.317,-0.738c-0.174,-0.365 -0.497,-1.057 -0.716,-1.537c-0.22,-0.481 -0.454,-0.972 -0.521,-1.092c-0.066,-0.12 -0.46,-0.882 -0.876,-1.693c-0.922,-1.8 -1.311,-2.518 -1.727,-3.196c-0.177,-0.286 -0.32,-0.543 -0.32,-0.572c0,-0.029 -0.369,-0.646 -0.82,-1.372c-0.45,-0.726 -0.819,-1.342 -0.819,-1.371c0,-0.028 -0.196,-0.317 -0.436,-0.642c-0.241,-0.325 -0.437,-0.62 -0.437,-0.655c0,-0.035 -0.197,-0.33 -0.437,-0.655c-0.24,-0.326 -0.437,-0.639 -0.437,-0.697c0,-0.057 -0.042,-0.121 -0.092,-0.141c-0.052,-0.02 -0.211,-0.213 -0.355,-0.43c-0.373,-0.558 -1.794,-2.443 -2.385,-3.161c-0.274,-0.333 -0.663,-0.81 -0.863,-1.059c-1.552,-1.928 -5.058,-5.497 -6.787,-6.91c-0.74,-0.604 -1.086,-0.893 -1.245,-1.037c-0.067,-0.06 -0.343,-0.281 -0.613,-0.49c-0.271,-0.209 -0.541,-0.418 -0.601,-0.466c-0.147,-0.116 -2.798,-1.955 -3.065,-2.126c-0.116,-0.075 -0.383,-0.235 -0.593,-0.358c-0.211,-0.122 -0.53,-0.311 -0.71,-0.42c-1.553,-0.937 -3.27,-1.781 -5.461,-2.685c-0.24,-0.099 -0.522,-0.227 -0.626,-0.284c-0.104,-0.057 -0.262,-0.104 -0.351,-0.104c-0.149,0 -0.718,-0.217 -1.178,-0.45c-0.104,-0.053 -0.301,-0.097 -0.437,-0.099c-0.136,-0.003 -0.37,-0.075 -0.52,-0.16c-0.15,-0.086 -0.405,-0.158 -0.567,-0.16c-0.161,-0.003 -0.324,-0.053 -0.361,-0.113c-0.037,-0.061 -0.215,-0.11 -0.396,-0.11c-0.181,0 -0.43,-0.054 -0.554,-0.12c-0.123,-0.066 -0.477,-0.163 -0.784,-0.213c-0.308,-0.051 -0.953,-0.171 -1.433,-0.266c-2.338,-0.462 -5.818,-0.669 -8.136,-0.483m2.676,14.262c0.061,0.25 0.147,0.491 0.191,0.536c0.045,0.044 0.081,0.232 0.081,0.418c-0.002,0.32 0.235,1.48 0.447,2.2c0.055,0.185 0.099,0.459 0.099,0.609c0,0.15 0.068,0.491 0.149,0.757c0.082,0.266 0.206,0.729 0.276,1.029c0.316,1.362 1.007,3.446 1.484,4.48c0.212,0.458 0.385,0.878 0.385,0.934c0,0.056 0.04,0.101 0.089,0.101c0.049,0 0.172,0.175 0.274,0.389c0.102,0.214 0.381,0.654 0.621,0.978c0.239,0.324 0.435,0.62 0.435,0.657c0,0.037 0.062,0.129 0.137,0.205c0.075,0.076 0.308,0.352 0.519,0.615c0.567,0.707 1.006,1.224 1.254,1.475c0.121,0.122 0.462,0.491 0.759,0.819c0.296,0.328 0.898,0.975 1.338,1.44c0.98,1.036 1.031,1.285 0.259,1.285c-0.297,0 -0.57,-0.049 -0.607,-0.109c-0.037,-0.06 -0.148,-0.109 -0.245,-0.109c-0.098,0 -0.39,-0.098 -0.649,-0.219c-0.259,-0.12 -0.68,-0.311 -0.935,-0.424c-0.256,-0.114 -0.833,-0.379 -1.283,-0.589c-0.451,-0.21 -1.065,-0.492 -1.366,-0.627c-0.3,-0.135 -0.859,-0.388 -1.242,-0.563c-0.382,-0.175 -0.72,-0.293 -0.75,-0.263c-0.262,0.261 -0.28,4.375 -0.04,8.91c0.138,2.601 0.433,4.96 1.009,8.081c0.532,2.886 1.632,6.462 2.769,9.01c0.928,2.076 1.58,3.38 2.883,5.77c0.427,0.783 2.099,3.492 2.201,3.567c0.144,0.106 0.423,0.737 0.355,0.805c-0.037,0.038 -1.499,0.068 -3.249,0.068l-3.18,0l-0.433,-0.736c-0.808,-1.377 -2.452,-4.611 -2.452,-4.825c0,-0.066 -0.047,-0.206 -0.104,-0.31c-0.165,-0.301 -0.414,-0.913 -0.588,-1.445c-0.089,-0.271 -0.21,-0.615 -0.27,-0.765c-0.06,-0.15 -0.242,-0.715 -0.405,-1.256c-0.491,-1.631 -0.619,-1.818 -0.765,-1.119c-0.083,0.397 -0.564,1.983 -0.703,2.32c-0.05,0.121 -0.173,0.465 -0.275,0.765c-0.176,0.524 -0.24,0.691 -0.545,1.42c-0.075,0.18 -0.188,0.45 -0.251,0.6c-0.241,0.577 -1.239,2.601 -1.642,3.331c-0.726,1.314 -0.844,1.522 -1.008,1.775c-0.158,0.245 -0.16,0.245 -3.354,0.245l-3.195,0l0,-0.264c0,-0.145 0.041,-0.28 0.09,-0.3c0.088,-0.035 1.854,-2.828 2.268,-3.585c0.114,-0.211 0.233,-0.407 0.263,-0.437c0.03,-0.03 0.189,-0.316 0.353,-0.635c0.164,-0.32 0.38,-0.737 0.48,-0.929c0.099,-0.191 0.227,-0.438 0.282,-0.549c0.056,-0.111 0.29,-0.578 0.522,-1.037c0.653,-1.297 1.312,-2.731 1.312,-2.856c0,-0.062 0.046,-0.198 0.104,-0.302c0.515,-0.941 1.646,-4.362 2.03,-6.142c0.098,-0.45 0.222,-0.932 0.277,-1.07c0.055,-0.138 0.1,-0.388 0.1,-0.557c0,-0.168 0.049,-0.448 0.108,-0.623c0.123,-0.359 0.311,-1.482 0.437,-2.61c0.048,-0.42 0.14,-1.108 0.206,-1.529c0.478,-3.058 0.738,-12.369 0.355,-12.752c-0.05,-0.05 -0.405,0.052 -0.789,0.228c-0.385,0.175 -0.945,0.429 -1.245,0.564c-0.3,0.135 -0.915,0.416 -1.365,0.626c-0.45,0.21 -1.089,0.505 -1.42,0.656c-0.33,0.151 -0.731,0.343 -0.89,0.426c-0.16,0.083 -0.39,0.151 -0.512,0.151c-0.123,0 -0.253,0.049 -0.29,0.109c-0.073,0.118 -1.067,0.153 -1.178,0.041c-0.117,-0.117 0.368,-0.726 1.739,-2.182c0.729,-0.775 1.466,-1.576 1.638,-1.78c0.172,-0.205 0.462,-0.549 0.644,-0.765c0.457,-0.54 1.607,-2.166 1.862,-2.631c0.115,-0.21 0.233,-0.407 0.264,-0.437c0.311,-0.311 1.566,-3.67 1.856,-4.969c0.054,-0.24 0.178,-0.756 0.275,-1.146c0.098,-0.391 0.217,-0.931 0.265,-1.202c0.103,-0.577 0.309,-1.53 0.451,-2.087c0.056,-0.217 0.101,-0.511 0.101,-0.652c0,-0.141 0.079,-0.479 0.176,-0.752c0.097,-0.272 0.195,-0.56 0.218,-0.639c0.09,-0.309 0.426,-0.069 0.535,0.383m-32.251,16.869c0.341,0.083 0.656,0.187 0.7,0.231c0.044,0.044 0.159,0.08 0.256,0.08c0.266,0 1.796,0.605 2.901,1.147c2.233,1.095 3.921,2.38 6.447,4.908c3.126,3.128 3.488,3.956 1.236,2.822c-1.527,-0.77 -1.909,-0.931 -3.006,-1.27c-2.169,-0.672 -2.645,-0.657 -2.172,0.069c0.513,0.786 2.637,5.046 3.129,6.275c0.055,0.135 0.145,0.356 0.201,0.492c0.328,0.791 0.641,1.578 0.88,2.211c0.046,0.12 0.143,0.366 0.218,0.546c0.147,0.359 0.621,1.774 0.767,2.293c0.051,0.181 0.174,0.598 0.274,0.929c0.099,0.33 0.222,0.797 0.273,1.037c0.156,0.747 0.55,2.376 0.714,2.958c0.087,0.306 0.157,0.696 0.157,0.866c0,0.171 0.046,0.461 0.102,0.646c0.088,0.291 0.296,1.414 0.498,2.683c0.582,3.659 0.878,6.026 0.784,6.27c-0.06,0.158 -0.382,0.174 -2.992,0.148l-2.924,-0.029l-0.024,-0.492c-0.087,-1.722 -0.51,-6.297 -0.743,-8.026c-0.088,-0.661 -0.18,-1.398 -0.203,-1.638c-0.023,-0.241 -0.125,-0.929 -0.226,-1.529c-0.102,-0.601 -0.228,-1.363 -0.281,-1.693c-0.052,-0.33 -0.17,-0.969 -0.264,-1.42c-0.092,-0.45 -0.219,-1.065 -0.28,-1.365c-0.265,-1.29 -0.39,-1.792 -0.465,-1.867c-0.044,-0.044 -0.08,-0.186 -0.08,-0.316c0,-0.129 -0.068,-0.453 -0.15,-0.719c-0.083,-0.266 -0.285,-0.926 -0.449,-1.466c-0.328,-1.079 -0.379,-1.225 -0.642,-1.833c-0.098,-0.227 -0.179,-0.459 -0.179,-0.516c0,-0.056 -0.116,-0.362 -0.258,-0.679c-0.142,-0.317 -0.35,-0.797 -0.461,-1.067c-0.294,-0.715 -2.107,-4.255 -2.238,-4.369c-0.034,-0.03 -0.157,-0.226 -0.273,-0.437c-0.115,-0.21 -0.238,-0.406 -0.273,-0.436c-0.034,-0.03 -0.157,-0.227 -0.273,-0.437c-0.115,-0.21 -0.236,-0.407 -0.268,-0.437c-0.032,-0.03 -0.227,-0.325 -0.434,-0.655c-0.207,-0.331 -0.721,-1.096 -1.143,-1.701c-1.707,-2.448 -1.714,-2.492 -0.343,-2.414c0.487,0.028 1.165,0.118 1.507,0.2m66.359,0.071c0.021,0.147 -0.082,0.406 -0.246,0.621c-0.155,0.203 -0.281,0.399 -0.281,0.435c0,0.037 -0.051,0.126 -0.113,0.199c-0.546,0.639 -3.162,4.681 -3.654,5.647c-0.108,0.21 -0.225,0.406 -0.263,0.436c-0.063,0.052 -1.464,2.873 -1.653,3.331c-0.246,0.594 -0.42,1.027 -0.595,1.474c-0.106,0.271 -0.234,0.59 -0.287,0.71c-0.11,0.256 -0.935,2.881 -1.08,3.44c-0.054,0.211 -0.17,0.653 -0.257,0.983c-0.086,0.331 -0.239,0.969 -0.339,1.42c-0.099,0.45 -0.223,0.991 -0.274,1.201c-0.145,0.599 -0.359,1.744 -0.449,2.403c-0.253,1.859 -0.331,2.364 -0.386,2.512c-0.034,0.09 -0.103,0.556 -0.154,1.037c-0.051,0.48 -0.173,1.562 -0.271,2.403c-0.163,1.403 -0.248,2.441 -0.434,5.296c-0.038,0.571 -0.092,1.197 -0.122,1.392l-0.054,0.355l-2.955,0l-2.955,0l0.055,-0.901c0.03,-0.495 0.135,-1.441 0.234,-2.102c0.098,-0.661 0.224,-1.545 0.28,-1.966c0.091,-0.678 0.194,-1.297 0.549,-3.276c0.053,-0.3 0.176,-0.939 0.273,-1.419c0.097,-0.481 0.214,-1.095 0.26,-1.366c0.046,-0.27 0.144,-0.712 0.219,-0.982c0.074,-0.271 0.177,-0.664 0.228,-0.874c0.216,-0.902 0.465,-1.82 0.557,-2.053c0.054,-0.138 0.098,-0.334 0.098,-0.437c0.001,-0.102 0.075,-0.327 0.164,-0.499c0.09,-0.172 0.164,-0.42 0.164,-0.551c0,-0.131 0.043,-0.285 0.095,-0.342c0.053,-0.057 0.197,-0.401 0.32,-0.764c0.123,-0.363 0.271,-0.781 0.329,-0.928c0.058,-0.148 0.239,-0.613 0.403,-1.033c0.163,-0.421 0.414,-1.024 0.558,-1.341c0.143,-0.317 0.26,-0.608 0.26,-0.646c0,-0.099 2.548,-5.207 2.944,-5.903l0.326,-0.574l-0.268,0c-0.991,0 -2.792,0.605 -4.913,1.65c-1.732,0.853 -1.693,0.841 -1.693,0.502c0,-0.668 3.319,-4.112 5.968,-6.192c0.453,-0.357 1.552,-1.092 1.631,-1.092c0.046,0 0.161,-0.067 0.256,-0.148c0.219,-0.188 1.471,-0.853 1.974,-1.048c0.21,-0.081 0.53,-0.212 0.71,-0.29c0.542,-0.237 1.936,-0.677 2.402,-0.759c0.241,-0.042 0.511,-0.119 0.601,-0.171c0.387,-0.222 1.799,-0.061 1.838,0.21m-8.522,36.699c0.102,0.064 0.132,0.347 0.109,1.008l-0.032,0.919l-25.991,0l-25.992,0l-0.032,-0.864c-0.018,-0.475 -0.007,-0.93 0.024,-1.01c0.064,-0.168 51.65,-0.221 51.914,-0.053m-2.403,4.576l0.031,1.01l-23.511,-0.027l-23.511,-0.028l-0.032,-0.919c-0.023,-0.661 0.008,-0.944 0.109,-1.008c0.078,-0.05 10.658,-0.079 23.512,-0.064l23.37,0.025l0.032,1.011m2.511,3.658l-0.031,1.01l-25.773,0.03c-14.175,0.016 -25.883,0.003 -26.018,-0.029c-0.246,-0.06 -0.394,-1.728 -0.173,-1.948c0.04,-0.04 11.762,-0.073 26.05,-0.073l25.977,0l-0.032,1.01m-43.57,3.123c0.041,0.574 -0.242,1.532 -0.65,2.203c-0.423,0.695 -0.716,0.93 -1.777,1.431c-0.471,0.223 -3.092,0.212 -3.234,-0.014c-0.117,-0.185 -0.147,-3.963 -0.032,-4.078c0.041,-0.041 1.331,-0.062 2.866,-0.046l2.792,0.029l0.035,0.475m31.113,-0.35c0.039,0.117 -0.273,0.229 -1.825,0.652c-1.476,0.402 -2.769,1.144 -3.741,2.149c-0.345,0.356 -0.628,0.688 -0.628,0.737c0,0.049 -0.063,0.154 -0.14,0.233c-0.472,0.485 -1.152,2.456 -1.387,4.022c-0.068,0.45 -0.159,0.942 -0.202,1.092l-0.078,0.273l-5.349,0.03c-5.903,0.033 -5.839,0.038 -5.839,-0.371c0,-0.431 -0.328,-2.255 -0.444,-2.47c-0.056,-0.104 -0.102,-0.284 -0.102,-0.4c0,-0.116 -0.071,-0.351 -0.158,-0.521c-0.086,-0.17 -0.241,-0.505 -0.345,-0.746c-0.188,-0.438 -0.651,-1.202 -0.87,-1.435c-0.064,-0.068 -0.237,-0.267 -0.383,-0.441c-0.772,-0.917 -3.448,-2.328 -4.415,-2.328c-0.264,0 -1.256,-0.341 -1.256,-0.431c0,-0.043 0.033,-0.112 0.074,-0.152c0.137,-0.137 27.042,-0.031 27.088,0.107m9.726,1.925c0.035,2.424 0.195,2.212 -1.668,2.203c-2.485,-0.013 -3.986,-1.398 -3.986,-3.68l0,-0.631l5.624,0.058l0.03,2.05m-15.494,8.749c0.087,0.104 0.116,0.741 0.096,2.048l-0.03,1.896l-7.863,0l-7.863,0l-0.03,-1.896c-0.021,-1.307 0.009,-1.944 0.095,-2.048c0.105,-0.126 1.403,-0.151 7.798,-0.151c6.394,0 7.693,0.025 7.797,0.151m-1.982,5.378c0.243,0.065 0.246,0.085 0.246,2.052c0,1.398 0.039,2.024 0.131,2.117c0.101,0.101 4.88,0.131 20.846,0.131l20.715,0l0.058,0.223c0.032,0.122 0.013,0.38 -0.042,0.572c-0.055,0.193 -0.1,0.593 -0.1,0.89c0,0.297 -0.049,0.813 -0.11,1.147c-0.132,0.737 -0.31,1.906 -0.424,2.792c-0.104,0.808 -0.323,1.962 -0.458,2.41c-0.055,0.184 -0.1,0.485 -0.1,0.669c0,0.183 -0.074,0.542 -0.164,0.798c-0.09,0.255 -0.164,0.589 -0.164,0.743c0,0.153 -0.046,0.429 -0.102,0.614c-0.097,0.319 -0.234,0.894 -0.441,1.864c-0.052,0.24 -0.175,0.732 -0.274,1.092c-0.099,0.361 -0.223,0.852 -0.275,1.092c-0.053,0.241 -0.178,0.707 -0.277,1.038c-0.099,0.33 -0.217,0.772 -0.26,0.983c-0.044,0.21 -0.138,0.489 -0.208,0.621c-0.071,0.131 -0.129,0.34 -0.129,0.465c0,0.125 -0.043,0.312 -0.095,0.417c-0.053,0.104 -0.182,0.484 -0.286,0.845c-0.105,0.36 -0.23,0.753 -0.278,0.873c-0.049,0.12 -0.171,0.514 -0.271,0.874c-0.101,0.36 -0.224,0.753 -0.273,0.874c-0.049,0.12 -0.248,0.685 -0.441,1.255c-0.193,0.571 -0.394,1.085 -0.446,1.142c-0.052,0.057 -0.094,0.207 -0.094,0.334c0,0.126 -0.072,0.325 -0.16,0.442c-0.088,0.117 -0.162,0.299 -0.164,0.404c-0.002,0.106 -0.046,0.278 -0.097,0.383c-0.103,0.21 -0.35,0.778 -0.557,1.282c-0.074,0.18 -0.203,0.466 -0.288,0.636c-0.084,0.17 -0.154,0.353 -0.154,0.407c0,0.054 -0.128,0.381 -0.286,0.728c-0.157,0.347 -0.398,0.877 -0.534,1.177c-0.435,0.962 -2.609,5.349 -2.678,5.406c-0.037,0.03 -0.098,0.128 -0.137,0.218c-0.039,0.09 -0.219,0.41 -0.4,0.71c-0.182,0.3 -0.364,0.62 -0.406,0.71c-0.25,0.539 -2.989,4.772 -3.475,5.37c-0.081,0.1 -0.201,0.281 -0.265,0.401c-0.064,0.12 -0.181,0.284 -0.259,0.363c-0.079,0.08 -0.359,0.44 -0.622,0.801c-0.565,0.772 -1.279,1.658 -1.585,1.967c-0.12,0.121 -0.35,0.391 -0.511,0.601c-0.77,1.004 -3.916,4.164 -5.38,5.404c-0.355,0.3 -0.698,0.598 -0.763,0.661c-0.064,0.064 -0.756,0.594 -1.537,1.179c-0.781,0.584 -1.479,1.11 -1.551,1.168c-0.073,0.057 -0.161,0.104 -0.196,0.104c-0.035,0 -0.33,0.197 -0.655,0.437c-0.326,0.24 -0.626,0.437 -0.668,0.437c-0.042,0 -0.237,0.123 -0.434,0.273c-0.197,0.15 -0.387,0.273 -0.422,0.273c-0.035,0 -0.272,0.133 -0.526,0.295c-0.254,0.162 -0.757,0.448 -1.117,0.635c-0.361,0.187 -0.935,0.497 -1.278,0.688c-0.342,0.191 -0.698,0.348 -0.791,0.348c-0.094,0 -0.17,0.049 -0.17,0.109c0,0.06 -0.058,0.109 -0.128,0.109c-0.113,0 -1.239,0.496 -1.755,0.772c-0.104,0.056 -0.264,0.102 -0.356,0.102c-0.092,0 -0.252,0.046 -0.356,0.104c-0.271,0.148 -0.916,0.41 -1.173,0.476c-0.12,0.031 -0.39,0.117 -0.6,0.191c-1.353,0.477 -1.926,0.648 -2.173,0.648c-0.128,0 -0.318,0.047 -0.422,0.103c-0.105,0.056 -0.583,0.18 -1.064,0.277c-0.48,0.095 -1.086,0.222 -1.345,0.281c-2.245,0.509 -7.785,0.509 -10.176,0.001c-0.27,-0.058 -0.909,-0.185 -1.42,-0.284c-0.51,-0.098 -1.014,-0.223 -1.118,-0.278c-0.104,-0.055 -0.294,-0.1 -0.422,-0.1c-0.207,0 -0.97,-0.215 -1.572,-0.444c-0.12,-0.046 -0.317,-0.108 -0.437,-0.138c-0.425,-0.106 -1.611,-0.554 -1.937,-0.733c-0.104,-0.058 -0.26,-0.104 -0.345,-0.104c-0.085,0 -0.393,-0.117 -0.684,-0.26c-0.291,-0.142 -1.217,-0.595 -2.058,-1.006c-0.841,-0.411 -1.545,-0.786 -1.565,-0.833c-0.02,-0.047 -0.089,-0.085 -0.154,-0.085c-0.141,0 -1.213,-0.67 -1.266,-0.79c-0.02,-0.046 -0.099,-0.084 -0.177,-0.084c-0.162,0 -3.46,-2.294 -3.772,-2.624c-0.03,-0.032 -0.276,-0.227 -0.546,-0.435c-0.271,-0.208 -0.546,-0.428 -0.611,-0.489c-0.066,-0.061 -0.484,-0.429 -0.929,-0.818c-0.974,-0.852 -3.304,-3.171 -4.172,-4.152c-0.346,-0.391 -0.715,-0.808 -0.821,-0.929c-0.106,-0.12 -0.412,-0.488 -0.68,-0.819c-0.268,-0.33 -0.515,-0.625 -0.55,-0.655c-0.067,-0.058 -1.772,-2.289 -2.092,-2.737c-1.017,-1.426 -1.45,-2.048 -1.599,-2.299c-0.097,-0.163 -0.459,-0.743 -0.805,-1.29c-0.345,-0.546 -0.628,-1.042 -0.628,-1.101c0,-0.06 -0.04,-0.108 -0.09,-0.108c-0.049,0 -0.199,-0.209 -0.333,-0.464c-0.134,-0.256 -0.331,-0.612 -0.439,-0.792c-0.452,-0.76 -1.024,-1.813 -1.511,-2.785c-0.287,-0.57 -0.558,-1.054 -0.603,-1.074c-0.045,-0.02 -0.082,-0.124 -0.082,-0.232c0,-0.108 -0.073,-0.257 -0.163,-0.332c-0.091,-0.075 -0.164,-0.183 -0.164,-0.24c0,-0.058 -0.167,-0.457 -0.372,-0.888c-0.357,-0.753 -0.774,-1.67 -1.124,-2.476c-0.27,-0.621 -0.437,-1 -0.735,-1.668c-0.154,-0.347 -0.281,-0.694 -0.281,-0.77c0,-0.077 -0.042,-0.186 -0.094,-0.243c-0.052,-0.057 -0.23,-0.497 -0.395,-0.977c-0.283,-0.824 -0.404,-1.134 -0.776,-1.997c-0.085,-0.197 -0.155,-0.445 -0.155,-0.552c0,-0.105 -0.043,-0.239 -0.095,-0.296c-0.052,-0.057 -0.18,-0.399 -0.284,-0.759c-0.104,-0.36 -0.229,-0.754 -0.278,-0.874c-0.048,-0.12 -0.172,-0.488 -0.275,-0.819c-0.102,-0.33 -0.223,-0.676 -0.268,-0.768c-0.045,-0.092 -0.119,-0.337 -0.163,-0.546c-0.045,-0.208 -0.119,-0.428 -0.164,-0.488c-0.046,-0.06 -0.111,-0.256 -0.144,-0.436c-0.095,-0.515 -0.311,-1.292 -0.416,-1.501c-0.053,-0.104 -0.097,-0.291 -0.097,-0.416c0,-0.125 -0.058,-0.335 -0.129,-0.466c-0.071,-0.131 -0.166,-0.435 -0.211,-0.675c-0.163,-0.867 -0.34,-1.531 -0.436,-1.633c-0.054,-0.057 -0.097,-0.287 -0.097,-0.512c0,-0.225 -0.044,-0.436 -0.097,-0.468c-0.053,-0.033 -0.13,-0.294 -0.171,-0.58c-0.041,-0.286 -0.116,-0.668 -0.167,-0.848c-0.257,-0.909 -0.403,-1.596 -0.65,-3.058c-0.061,-0.36 -0.162,-0.827 -0.223,-1.036c-0.062,-0.21 -0.112,-0.526 -0.112,-0.703c0,-0.176 -0.046,-0.471 -0.102,-0.656c-0.055,-0.184 -0.178,-0.9 -0.272,-1.591c-0.094,-0.691 -0.198,-1.428 -0.231,-1.638c-0.034,-0.21 -0.089,-0.714 -0.123,-1.119l-0.061,-0.737l21.042,0c14.296,0 21.109,-0.037 21.253,-0.113c0.197,-0.106 0.211,-0.248 0.211,-2.121c0,-1.504 0.034,-2.021 0.136,-2.062c0.197,-0.08 11.336,-0.083 11.631,-0.004m-28.334,11.043c0.007,0.368 -0.061,0.786 -0.164,1.01c-0.096,0.21 -0.258,0.628 -0.359,0.929c-0.101,0.3 -0.229,0.631 -0.284,0.735c-0.054,0.105 -0.099,0.262 -0.099,0.351c0,0.089 -0.081,0.348 -0.179,0.575c-0.25,0.576 -0.34,0.816 -0.404,1.069c-0.031,0.12 -0.213,0.636 -0.405,1.146c-0.192,0.511 -0.374,1.051 -0.405,1.202c-0.031,0.15 -0.092,0.322 -0.136,0.382c-0.044,0.06 -0.185,0.418 -0.314,0.794c-0.379,1.111 -0.668,1.501 -1.314,1.768c-0.22,0.091 -0.336,0.208 -0.314,0.32c0.033,0.173 3.26,0.335 3.656,0.183c0.273,-0.105 0.016,-0.353 -0.507,-0.487c-1.049,-0.268 -1.117,-1.032 -0.288,-3.228c0.362,-0.96 0.3,-0.93 1.931,-0.932c1.589,-0.002 1.574,-0.01 1.903,1.036c0.113,0.36 0.245,0.702 0.293,0.759c0.048,0.057 0.087,0.195 0.087,0.307c0,0.112 0.079,0.445 0.176,0.741c0.289,0.885 0.053,1.249 -0.91,1.406c-0.262,0.042 -0.413,0.126 -0.413,0.229c0,0.137 0.356,0.166 2.321,0.191c2.221,0.028 2.32,0.021 2.32,-0.179c0,-0.149 -0.102,-0.227 -0.358,-0.275c-0.725,-0.136 -1.004,-0.516 -1.452,-1.978c-0.11,-0.36 -0.239,-0.702 -0.287,-0.759c-0.048,-0.057 -0.087,-0.19 -0.087,-0.296c0,-0.107 -0.068,-0.355 -0.151,-0.552c-0.213,-0.504 -0.62,-1.726 -0.685,-2.051c-0.03,-0.15 -0.095,-0.372 -0.146,-0.492c-0.05,-0.12 -0.176,-0.488 -0.279,-0.819c-0.104,-0.33 -0.23,-0.699 -0.282,-0.819c-0.051,-0.12 -0.265,-0.753 -0.474,-1.406c-0.48,-1.497 -0.473,-1.488 -1.317,-1.488l-0.686,0l0.012,0.628m41.123,-0.601c-0.008,0.015 -0.024,0.311 -0.035,0.658c-0.011,0.346 -0.077,0.688 -0.148,0.759c-0.071,0.071 -0.129,0.216 -0.129,0.321c0,0.107 -0.081,0.379 -0.179,0.607c-0.249,0.576 -0.34,0.816 -0.404,1.068c-0.031,0.12 -0.21,0.636 -0.399,1.147c-0.189,0.51 -0.442,1.223 -0.562,1.583c-0.121,0.361 -0.261,0.754 -0.312,0.874c-0.051,0.12 -0.175,0.464 -0.275,0.764c-0.1,0.301 -0.227,0.632 -0.281,0.736c-0.055,0.105 -0.1,0.252 -0.101,0.328c-0.003,0.252 -0.64,1.402 -0.895,1.614c-0.73,0.609 -1.899,0.117 -2.473,-1.039c-0.317,-0.641 -0.999,-2.138 -0.999,-2.195c0,-0.026 -0.123,-0.243 -0.273,-0.481c-0.351,-0.557 -0.351,-0.849 0.002,-0.983c1.53,-0.582 1.892,-3.73 0.546,-4.756c-0.811,-0.618 -1.358,-0.704 -4.497,-0.704c-2.741,0 -2.877,0.01 -2.877,0.205c0,0.169 0.104,0.213 0.599,0.254c1.088,0.09 1.04,-0.137 1.04,4.846l0,4.289l-0.368,0.391c-0.307,0.324 -0.443,0.389 -0.819,0.389c-0.38,0 -0.452,0.035 -0.452,0.221c0,0.32 5.051,0.291 5.112,-0.029c0.032,-0.162 -0.048,-0.192 -0.524,-0.192c-1.165,0 -1.311,-0.285 -1.311,-2.56l0,-1.699l0.693,0c0.72,0 1.054,0.182 1.054,0.573c0,0.096 0.04,0.19 0.088,0.21c0.049,0.02 0.211,0.282 0.361,0.582c1.101,2.208 1.481,2.615 2.992,3.207c0.528,0.207 5.132,0.123 5.132,-0.094c0,-0.094 -0.117,-0.177 -0.273,-0.195c-1.274,-0.147 -1.505,-1.042 -0.757,-2.918c0.049,-0.12 0.122,-0.341 0.163,-0.491c0.042,-0.15 0.172,-0.408 0.288,-0.573l0.211,-0.301l1.405,0c1.479,0 1.857,0.149 1.857,0.734c0,0.087 0.115,0.51 0.256,0.941c0.666,2.034 0.52,2.584 -0.688,2.584c-0.26,0 -0.333,0.048 -0.333,0.219c0,0.211 0.073,0.218 2.294,0.218c2.119,0 2.293,-0.014 2.293,-0.192c0,-0.132 -0.167,-0.252 -0.527,-0.381c-0.572,-0.203 -0.639,-0.298 -1.018,-1.442c-0.12,-0.363 -0.257,-0.759 -0.304,-0.879c-0.048,-0.12 -0.172,-0.488 -0.275,-0.819c-0.103,-0.33 -0.228,-0.699 -0.276,-0.819c-0.125,-0.309 -0.381,-1.09 -0.608,-1.856c-0.107,-0.361 -0.229,-0.729 -0.273,-0.819c-0.043,-0.09 -0.162,-0.434 -0.264,-0.765c-0.103,-0.33 -0.227,-0.699 -0.276,-0.819c-0.05,-0.12 -0.23,-0.67 -0.401,-1.222c-0.234,-0.76 -0.363,-1.019 -0.529,-1.064c-0.217,-0.059 -1.241,-0.087 -1.271,-0.035m-31.272,0.192c-0.037,0.06 -0.138,0.109 -0.224,0.109c-0.718,0 -1.793,1.506 -1.793,2.512c0,1.211 0.604,1.969 2.943,3.69c1.451,1.067 1.764,1.505 1.77,2.472c0.01,1.832 -2.238,2.607 -3.57,1.231c-0.353,-0.364 -0.818,-1.1 -0.818,-1.293c-0.001,-0.184 -0.213,-0.312 -0.516,-0.312c-0.137,0 -0.154,0.078 -0.089,0.409c0.045,0.225 0.113,0.803 0.151,1.283l0.071,0.874l0.655,-0.035c0.422,-0.022 0.8,0.026 1.061,0.136c2.006,0.847 4.345,-0.736 4.345,-2.94c0,-1.44 -0.476,-2.117 -2.571,-3.659c-2.555,-1.881 -2.858,-3.168 -0.938,-3.992c0.987,-0.423 2.478,0.495 2.78,1.714c0.077,0.307 0.289,0.449 0.488,0.326c0.087,-0.053 0.092,-0.28 0.02,-0.781c-0.057,-0.389 -0.104,-0.916 -0.105,-1.171c-0.002,-0.499 -0.141,-0.584 -0.543,-0.333c-0.157,0.098 -0.273,0.101 -0.462,0.009c-0.724,-0.35 -2.49,-0.516 -2.655,-0.249m37.8,0.191c-0.214,1.114 -0.202,2.32 0.023,2.32c0.171,0 0.243,-0.092 0.297,-0.383c0.04,-0.211 0.116,-0.41 0.169,-0.443c0.053,-0.033 0.097,-0.148 0.097,-0.255c0,-0.509 1.62,-0.886 2.67,-0.622l0.279,0.069l-0.002,4.503c-0.001,2.476 -0.04,4.563 -0.086,4.636c-0.112,0.176 -0.95,0.467 -1.346,0.467c-0.241,0 -0.314,0.051 -0.314,0.219c0,0.212 0.073,0.218 2.621,0.218c2.548,0 2.621,-0.006 2.621,-0.218c0,-0.177 -0.073,-0.219 -0.38,-0.219c-1.422,0 -1.414,0.029 -1.453,-5.154l-0.034,-4.444l0.4,-0.075c1.599,-0.3 2.479,0.047 2.845,1.123c0.274,0.807 0.652,0.849 0.548,0.06c-0.038,-0.286 -0.101,-0.875 -0.14,-1.311c-0.068,-0.774 -0.294,-1.064 -0.53,-0.682c-0.043,0.069 -1.455,0.109 -3.877,0.109c-2.421,0 -3.834,-0.04 -3.877,-0.109c-0.142,-0.231 -0.473,-0.112 -0.531,0.191m-66.394,-0.009c-0.192,0.191 -0.018,0.343 0.58,0.509c0.844,0.235 0.832,0.177 0.659,3.23c-0.077,1.357 -0.175,3.155 -0.218,3.996c-0.109,2.113 -0.37,2.566 -1.479,2.566c-0.199,0 -0.27,0.059 -0.27,0.222c0,0.214 0.055,0.22 1.829,0.191c1.516,-0.025 1.829,-0.058 1.829,-0.19c0,-0.091 -0.149,-0.19 -0.352,-0.231c-0.194,-0.04 -0.481,-0.156 -0.638,-0.259l-0.285,-0.187l0.072,-2.312c0.04,-1.271 0.118,-2.703 0.173,-3.183c0.056,-0.478 0.103,-1.142 0.103,-1.474c0.002,-0.693 0.148,-1.037 0.325,-0.767c0.059,0.09 0.108,0.218 0.109,0.284c0.002,0.114 0.228,0.648 0.446,1.052c0.056,0.105 0.102,0.257 0.102,0.338c0,0.138 0.205,0.64 0.444,1.082c0.056,0.104 0.102,0.279 0.102,0.388c0,0.109 0.041,0.244 0.091,0.301c0.05,0.057 0.25,0.546 0.445,1.087c0.194,0.541 0.393,1.081 0.441,1.201c0.088,0.217 0.392,1 0.552,1.42c0.045,0.12 0.158,0.415 0.25,0.655c0.092,0.24 0.195,0.523 0.228,0.628c0.033,0.105 0.162,0.191 0.285,0.191c0.212,0 0.272,-0.09 0.548,-0.819c0.083,-0.219 0.37,-0.965 0.568,-1.474c0.059,-0.15 0.176,-0.412 0.26,-0.582c0.085,-0.17 0.154,-0.38 0.154,-0.466c0,-0.086 0.047,-0.242 0.104,-0.346c0.12,-0.22 0.452,-1.034 0.879,-2.155c0.045,-0.12 0.168,-0.44 0.273,-0.71c0.104,-0.27 0.227,-0.59 0.273,-0.71c0.045,-0.12 0.158,-0.415 0.25,-0.655c0.093,-0.24 0.199,-0.532 0.236,-0.648c0.256,-0.793 0.606,1.317 0.606,3.651c0,0.716 0.054,1.798 0.12,2.404c0.168,1.548 -0.155,2.073 -1.277,2.073c-0.207,0 -0.269,0.05 -0.242,0.192c0.034,0.174 0.233,0.191 2.327,0.191c2.095,0 2.294,-0.017 2.327,-0.191c0.03,-0.156 -0.042,-0.192 -0.393,-0.192c-1.008,0 -1.177,-0.494 -1.346,-3.94c-0.298,-6.065 -0.332,-5.768 0.668,-5.963c0.316,-0.062 0.491,-0.153 0.491,-0.256c0,-0.268 -3.093,-0.295 -3.179,-0.027c-0.035,0.107 -0.127,0.341 -0.205,0.522c-0.145,0.334 -0.211,0.5 -0.549,1.365c-0.105,0.27 -0.251,0.639 -0.324,0.819c-0.073,0.18 -0.195,0.499 -0.271,0.71c-0.123,0.34 -0.206,0.546 -0.546,1.365c-0.05,0.12 -0.152,0.39 -0.228,0.6c-0.075,0.211 -0.196,0.53 -0.269,0.71c-0.23,0.57 -0.469,1.194 -0.536,1.405c-0.09,0.281 -0.538,-0.006 -0.592,-0.38c-0.021,-0.143 -0.076,-0.31 -0.122,-0.37c-0.046,-0.06 -0.185,-0.406 -0.309,-0.769c-0.124,-0.363 -0.284,-0.805 -0.356,-0.983c-0.072,-0.177 -0.168,-0.421 -0.213,-0.541c-0.131,-0.347 -0.454,-1.171 -0.599,-1.529c-0.073,-0.18 -0.195,-0.499 -0.271,-0.71c-0.076,-0.21 -0.2,-0.529 -0.277,-0.71c-0.076,-0.18 -0.204,-0.524 -0.284,-0.764c-0.32,-0.953 -0.267,-0.928 -1.948,-0.928c-0.824,0 -1.531,0.033 -1.571,0.073m34.915,0.085c-0.101,0.261 0.056,0.388 0.483,0.39c1.05,0.007 1.113,0.279 1.113,4.823c0,4.792 -0.053,5.003 -1.258,5.003c-0.318,0 -0.389,0.038 -0.359,0.192c0.034,0.177 0.313,0.191 4.021,0.191l3.985,0l0.067,-0.71c0.037,-0.391 0.106,-0.968 0.152,-1.283c0.15,-1.021 -0.412,-0.751 -0.662,0.318c-0.124,0.534 -0.611,0.953 -1.247,1.073c-0.767,0.146 -2.286,0.14 -2.717,-0.01l-0.344,-0.119l0,-2.106c0,-2.562 -0.099,-2.408 1.489,-2.318c1.372,0.078 1.678,0.22 1.678,0.78c0,0.47 0.094,0.716 0.273,0.716c0.274,0 0.426,-2.866 0.173,-3.265c-0.172,-0.273 -0.446,-0.048 -0.446,0.368c0,0.725 -0.241,0.833 -1.778,0.798l-1.334,-0.03l0,-2.13l0,-2.129l1.597,0.002c1.237,0.003 1.641,0.039 1.79,0.163c0.223,0.185 0.599,1.012 0.599,1.318c0,0.136 0.076,0.209 0.218,0.209c0.249,0 0.334,-1.764 0.106,-2.191c-0.153,-0.284 -7.491,-0.335 -7.599,-0.053m42.331,0.053c0,0.168 0.137,0.253 0.644,0.395c1.046,0.294 1.014,0.134 0.974,4.963c-0.041,4.765 -0.051,4.805 -1.261,4.805c-0.193,0 -0.254,0.052 -0.228,0.192c0.058,0.297 4.785,0.352 4.785,0.055c0,-0.141 -0.157,-0.24 -0.563,-0.357c-1.046,-0.302 -1.016,-0.165 -1.053,-4.748c-0.038,-4.651 -0.041,-4.633 0.811,-4.854c0.293,-0.076 0.597,-0.157 0.677,-0.181c0.079,-0.024 0.127,-0.13 0.107,-0.235c-0.061,-0.316 -4.893,-0.351 -4.893,-0.035m-26.403,0.406c1.025,0.397 1.394,1.047 1.394,2.455c0,0.525 -0.049,0.986 -0.109,1.023c-0.06,0.037 -0.109,0.156 -0.109,0.265c0,0.786 -2.265,1.603 -3.058,1.103c-0.362,-0.229 -0.282,-4.855 0.085,-4.952c0.441,-0.115 1.365,-0.061 1.797,0.106m-31.368,1.194c0,0.186 0.5,1.789 0.722,2.315c0.083,0.197 0.152,0.452 0.152,0.567c0,0.115 0.049,0.239 0.109,0.276c0.06,0.037 0.109,0.187 0.109,0.334l0,0.266l-1.359,0c-0.749,0 -1.387,-0.047 -1.423,-0.104c-0.07,-0.114 0.243,-1.195 0.395,-1.364c0.052,-0.058 0.094,-0.193 0.094,-0.302c0,-0.109 0.046,-0.284 0.103,-0.388c0.057,-0.104 0.207,-0.509 0.334,-0.899c0.277,-0.854 0.764,-1.301 0.764,-0.701m41.004,0.04c0.092,0.177 0.167,0.413 0.167,0.524c0,0.111 0.043,0.249 0.095,0.306c0.052,0.057 0.18,0.398 0.283,0.759c0.104,0.36 0.256,0.827 0.338,1.037c0.082,0.21 0.163,0.53 0.181,0.71l0.031,0.328l-1.301,0.031c-0.716,0.017 -1.345,-0.013 -1.399,-0.066c-0.089,-0.09 0.437,-1.889 0.685,-2.339c0.057,-0.104 0.104,-0.262 0.104,-0.351c0,-0.089 0.07,-0.323 0.156,-0.52c0.086,-0.198 0.182,-0.445 0.215,-0.55c0.088,-0.283 0.257,-0.233 0.445,0.131" style="fill:#fff;"/><path id="path1" d="M90.502,12.298c-0.63,0.045 -0.99,0.117 -1.02,0.206c-0.029,0.088 -0.272,0.136 -0.694,0.136c-0.477,0 -0.667,0.044 -0.713,0.164c-0.044,0.115 -0.223,0.164 -0.597,0.164c-0.294,0 -0.534,0.049 -0.534,0.109c0,0.06 -0.246,0.109 -0.546,0.109c-0.396,0 -0.547,0.043 -0.547,0.153c0,0.098 -0.168,0.175 -0.464,0.213c-0.952,0.125 -1.278,0.207 -1.402,0.356c-0.069,0.083 -0.267,0.152 -0.44,0.152c-0.173,0 -0.315,0.049 -0.315,0.109c0,0.06 -0.149,0.109 -0.331,0.109c-0.193,0 -0.357,0.068 -0.393,0.164c-0.039,0.1 -0.204,0.164 -0.422,0.164c-0.218,0 -0.384,0.064 -0.422,0.164c-0.034,0.09 -0.187,0.164 -0.339,0.164c-0.152,0 -0.277,0.049 -0.277,0.109c0,0.06 -0.123,0.109 -0.273,0.109c-0.169,0 -0.273,0.062 -0.273,0.164c0,0.1 -0.102,0.164 -0.263,0.164c-0.239,0 -0.775,0.228 -1.812,0.771c-0.21,0.11 -0.591,0.302 -0.846,0.427c-0.255,0.125 -0.464,0.274 -0.464,0.333c0,0.059 -0.123,0.107 -0.273,0.107c-0.17,0 -0.273,0.062 -0.273,0.163c0,0.102 -0.103,0.164 -0.273,0.164c-0.15,0 -0.273,0.049 -0.273,0.109c0,0.061 -0.069,0.11 -0.152,0.11c-0.084,0 -0.181,0.073 -0.215,0.163c-0.035,0.091 -0.163,0.164 -0.285,0.164c-0.122,0 -0.222,0.044 -0.222,0.098c0,0.053 -0.123,0.128 -0.273,0.165c-0.15,0.038 -0.273,0.117 -0.273,0.176c0,0.059 -0.074,0.107 -0.164,0.107c-0.09,0 -0.163,0.038 -0.163,0.085c0,0.046 -0.172,0.177 -0.383,0.29c-0.21,0.113 -0.382,0.272 -0.382,0.352c0,0.084 -0.117,0.147 -0.273,0.147c-0.15,0 -0.273,0.049 -0.273,0.109c0,0.06 -0.074,0.109 -0.164,0.109c-0.09,0 -0.164,0.074 -0.164,0.164c0,0.09 -0.073,0.164 -0.163,0.164c-0.091,0 -0.164,0.049 -0.164,0.109c0,0.06 -0.099,0.109 -0.219,0.109c-0.121,0 -0.218,0.073 -0.218,0.164c0,0.09 -0.074,0.164 -0.164,0.164c-0.09,0 -0.164,0.049 -0.164,0.109c0,0.06 -0.073,0.109 -0.163,0.109c-0.091,0 -0.164,0.074 -0.164,0.164c0,0.09 -0.095,0.164 -0.211,0.164c-0.116,0 -0.307,0.123 -0.425,0.273c-0.118,0.15 -0.269,0.273 -0.336,0.273c-0.066,0 -0.12,0.074 -0.12,0.164c0,0.09 -0.052,0.164 -0.114,0.164c-0.063,0 -0.247,0.123 -0.409,0.273c-0.162,0.15 -0.337,0.273 -0.388,0.273c-0.052,0 -0.335,0.246 -0.629,0.546c-0.294,0.3 -0.584,0.546 -0.644,0.546c-0.06,0 -0.11,0.053 -0.11,0.117c0,0.151 -0.278,0.429 -0.429,0.429c-0.064,0 -0.117,0.053 -0.117,0.117c0,0.151 -0.278,0.429 -0.429,0.429c-0.064,0 -0.117,0.053 -0.117,0.117c0,0.151 -0.278,0.429 -0.429,0.429c-0.064,0 -0.117,0.053 -0.117,0.117c0,0.151 -0.278,0.429 -0.429,0.429c-0.064,0 -0.117,0.074 -0.117,0.164c0,0.09 -0.074,0.164 -0.164,0.164c-0.09,0 -0.163,0.052 -0.163,0.117c0,0.151 -0.278,0.429 -0.429,0.429c-0.065,0 -0.118,0.052 -0.118,0.117c0,0.151 -0.277,0.429 -0.428,0.429c-0.065,0 -0.118,0.05 -0.118,0.112c0,0.061 -0.311,0.417 -0.691,0.791c-0.381,0.374 -0.761,0.84 -0.846,1.035c-0.085,0.195 -0.195,0.355 -0.244,0.355c-0.13,0 -0.403,0.291 -0.403,0.429c0,0.064 -0.073,0.117 -0.164,0.117c-0.09,0 -0.163,0.074 -0.163,0.164c0,0.09 -0.046,0.164 -0.102,0.164c-0.056,0 -0.136,0.107 -0.178,0.239c-0.041,0.131 -0.241,0.395 -0.444,0.586c-0.203,0.191 -0.368,0.382 -0.368,0.424c0,0.042 -0.062,0.145 -0.137,0.229c-0.324,0.361 -0.409,0.485 -0.409,0.592c0,0.063 -0.062,0.114 -0.137,0.115c-0.141,0 -0.409,0.48 -0.409,0.731c0,0.078 -0.049,0.142 -0.108,0.142c-0.192,0 -0.548,0.37 -0.548,0.57c0,0.107 -0.049,0.194 -0.109,0.194c-0.06,0 -0.109,0.074 -0.109,0.164c0,0.09 -0.074,0.164 -0.164,0.164c-0.09,0 -0.164,0.063 -0.164,0.142c0,0.25 -0.268,0.73 -0.409,0.73c-0.075,0.001 -0.137,0.075 -0.137,0.165c0,0.09 -0.049,0.164 -0.109,0.164c-0.06,0 -0.109,0.098 -0.109,0.218c0,0.122 -0.073,0.219 -0.164,0.219c-0.09,0 -0.164,0.073 -0.164,0.164c0,0.09 -0.043,0.163 -0.097,0.163c-0.054,0 -0.128,0.123 -0.166,0.273c-0.038,0.15 -0.117,0.273 -0.176,0.273c-0.059,0 -0.107,0.123 -0.107,0.273c0,0.17 -0.062,0.273 -0.164,0.273c-0.09,0 -0.163,0.074 -0.163,0.164c0,0.09 -0.05,0.164 -0.11,0.164c-0.06,0 -0.109,0.123 -0.109,0.273c0,0.153 -0.063,0.273 -0.143,0.273c-0.079,0 -0.21,0.17 -0.292,0.378c-0.081,0.207 -0.214,0.403 -0.293,0.433c-0.08,0.031 -0.146,0.18 -0.146,0.332c0,0.152 -0.049,0.277 -0.109,0.277c-0.06,0 -0.109,0.043 -0.109,0.096c0,0.054 -0.197,0.392 -0.437,0.751c-0.24,0.36 -0.437,0.759 -0.437,0.886c0,0.134 -0.069,0.232 -0.163,0.232c-0.102,0 -0.164,0.104 -0.164,0.273c0,0.151 -0.044,0.274 -0.097,0.274c-0.053,0 -0.126,0.086 -0.162,0.191c-0.037,0.105 -0.162,0.338 -0.278,0.518c-0.117,0.181 -0.215,0.409 -0.22,0.507c-0.004,0.099 -0.081,0.208 -0.171,0.243c-0.091,0.034 -0.164,0.16 -0.164,0.278c0,0.118 -0.046,0.244 -0.103,0.278c-0.134,0.083 -0.443,0.708 -0.443,0.895c0,0.081 -0.04,0.147 -0.089,0.147c-0.133,0 -0.457,0.799 -0.457,1.129c0,0.186 -0.06,0.291 -0.164,0.291c-0.102,0 -0.164,0.103 -0.164,0.273c0,0.15 -0.049,0.273 -0.109,0.273c-0.06,0 -0.109,0.123 -0.109,0.273c0,0.17 -0.062,0.273 -0.164,0.273c-0.102,0 -0.164,0.103 -0.164,0.273c0,0.15 -0.04,0.273 -0.088,0.273c-0.134,0 -0.458,0.799 -0.458,1.129c0,0.186 -0.059,0.291 -0.164,0.291c-0.102,0 -0.164,0.103 -0.164,0.273c0,0.15 -0.049,0.273 -0.109,0.273c-0.06,0 -0.109,0.141 -0.109,0.314c0,0.173 -0.074,0.375 -0.164,0.45c-0.09,0.075 -0.164,0.253 -0.164,0.396c0,0.143 -0.049,0.26 -0.109,0.26c-0.06,0 -0.109,0.117 -0.109,0.261c0,0.144 -0.074,0.289 -0.164,0.324c-0.103,0.039 -0.164,0.207 -0.164,0.448c0,0.213 -0.049,0.386 -0.109,0.386c-0.06,0 -0.109,0.172 -0.109,0.382c0,0.267 -0.05,0.383 -0.164,0.383c-0.103,0 -0.164,0.104 -0.164,0.281c0,0.154 -0.074,0.354 -0.164,0.444c-0.09,0.09 -0.163,0.283 -0.163,0.429c0,0.146 -0.05,0.265 -0.11,0.265c-0.06,0 -0.109,0.197 -0.109,0.437c0,0.316 -0.045,0.437 -0.164,0.437c-0.113,0 -0.163,0.115 -0.163,0.376c0,0.206 -0.05,0.406 -0.11,0.443c-0.06,0.037 -0.109,0.231 -0.109,0.432c0,0.223 -0.063,0.388 -0.164,0.427c-0.103,0.039 -0.163,0.206 -0.163,0.448c0,0.212 -0.05,0.386 -0.11,0.386c-0.06,0 -0.109,0.196 -0.109,0.437c0,0.315 -0.045,0.436 -0.164,0.436c-0.115,0 -0.164,0.116 -0.164,0.391c0,0.214 -0.073,0.463 -0.163,0.553c-0.09,0.09 -0.164,0.33 -0.164,0.532c0,0.202 -0.049,0.398 -0.109,0.436c-0.06,0.037 -0.111,0.224 -0.113,0.416c-0.002,0.191 -0.076,0.443 -0.164,0.56c-0.088,0.117 -0.16,0.372 -0.16,0.567c0,0.195 -0.049,0.385 -0.109,0.422c-0.06,0.037 -0.11,0.311 -0.11,0.607c0,0.407 -0.04,0.54 -0.163,0.54c-0.124,0 -0.164,0.133 -0.164,0.546c0,0.3 -0.049,0.546 -0.109,0.546c-0.06,0 -0.11,0.223 -0.11,0.495c0,0.339 -0.051,0.515 -0.163,0.558c-0.115,0.043 -0.164,0.222 -0.164,0.59c0,0.291 -0.049,0.559 -0.109,0.596c-0.061,0.037 -0.11,0.336 -0.11,0.665c0,0.43 -0.046,0.615 -0.163,0.66c-0.116,0.045 -0.164,0.224 -0.164,0.605c0,0.337 -0.063,0.605 -0.164,0.706c-0.105,0.106 -0.164,0.376 -0.164,0.757c0,0.326 -0.049,0.593 -0.109,0.593c-0.063,0 -0.109,0.346 -0.109,0.819c0,0.655 -0.033,0.819 -0.164,0.819c-0.129,0 -0.164,0.151 -0.164,0.703c0,0.387 -0.049,0.734 -0.109,0.771c-0.06,0.037 -0.109,0.483 -0.109,0.99c0,0.746 -0.031,0.921 -0.164,0.921c-0.133,0 -0.164,0.176 -0.164,0.922c0,0.507 -0.049,0.952 -0.109,0.99c-0.061,0.037 -0.109,0.543 -0.109,1.141c0,0.854 -0.034,1.087 -0.164,1.137c-0.133,0.051 -0.164,0.31 -0.164,1.384c0,0.981 -0.039,1.361 -0.151,1.473c-0.375,0.375 -0.408,23.216 -0.035,23.787c0.146,0.222 0.186,0.537 0.186,1.475c0,0.926 0.037,1.222 0.164,1.327c0.125,0.104 0.164,0.388 0.164,1.208c0,0.597 0.048,1.102 0.109,1.14c0.06,0.037 0.109,0.459 0.109,0.938c0,0.674 0.037,0.885 0.164,0.934c0.126,0.048 0.164,0.259 0.164,0.918c0,0.471 0.049,0.886 0.109,0.923c0.06,0.037 0.109,0.386 0.109,0.774c0,0.528 0.042,0.723 0.164,0.77c0.122,0.047 0.164,0.241 0.164,0.755c0,0.38 0.049,0.722 0.109,0.759c0.06,0.037 0.109,0.356 0.109,0.708c0,0.425 0.056,0.697 0.164,0.805c0.103,0.103 0.164,0.371 0.164,0.718c0,0.419 0.04,0.554 0.164,0.554c0.127,0 0.163,0.145 0.163,0.648c0,0.357 0.049,0.68 0.11,0.717c0.06,0.037 0.109,0.31 0.109,0.607c0,0.407 0.04,0.54 0.164,0.54c0.123,0 0.163,0.133 0.163,0.546c0,0.3 0.05,0.546 0.11,0.546c0.06,0 0.109,0.24 0.109,0.534c0,0.374 0.049,0.553 0.164,0.597c0.112,0.043 0.163,0.218 0.163,0.552c0,0.268 0.05,0.518 0.11,0.555c0.06,0.037 0.109,0.231 0.109,0.43c0,0.2 0.074,0.424 0.164,0.499c0.093,0.077 0.163,0.315 0.163,0.552c0,0.23 0.05,0.448 0.11,0.485c0.06,0.037 0.109,0.237 0.109,0.443c0,0.261 0.05,0.376 0.164,0.376c0.121,0 0.163,0.128 0.163,0.495c0,0.339 0.052,0.515 0.164,0.558c0.107,0.041 0.164,0.211 0.164,0.488c0,0.233 0.049,0.425 0.109,0.425c0.06,0 0.11,0.174 0.11,0.386c0,0.242 0.06,0.409 0.163,0.448c0.101,0.038 0.164,0.204 0.164,0.427c0,0.2 0.049,0.394 0.109,0.432c0.06,0.037 0.11,0.213 0.11,0.392c0,0.187 0.069,0.351 0.163,0.387c0.101,0.039 0.164,0.204 0.164,0.427c0,0.2 0.049,0.395 0.109,0.432c0.06,0.037 0.11,0.187 0.11,0.334c0,0.164 0.063,0.266 0.163,0.266c0.119,0 0.164,0.122 0.164,0.437c0,0.316 0.046,0.437 0.164,0.437c0.114,0 0.164,0.115 0.164,0.382c0,0.21 0.049,0.382 0.109,0.382c0.06,0 0.109,0.148 0.109,0.328c0,0.218 0.055,0.328 0.164,0.328c0.114,0 0.164,0.115 0.164,0.382c0,0.21 0.049,0.382 0.109,0.382c0.06,0 0.109,0.125 0.109,0.277c0,0.152 0.074,0.304 0.164,0.339c0.092,0.035 0.164,0.198 0.164,0.372c0,0.171 0.049,0.34 0.109,0.377c0.06,0.037 0.109,0.165 0.109,0.283c0,0.119 0.074,0.244 0.164,0.278c0.09,0.035 0.164,0.178 0.164,0.318c0,0.14 0.044,0.282 0.097,0.315c0.053,0.033 0.129,0.232 0.169,0.443c0.039,0.211 0.118,0.384 0.176,0.384c0.057,0 0.104,0.099 0.104,0.222c0,0.121 0.074,0.25 0.164,0.284c0.09,0.035 0.164,0.18 0.164,0.324c0,0.144 0.049,0.262 0.109,0.262c0.06,0 0.109,0.124 0.109,0.276c0,0.152 0.074,0.305 0.164,0.339c0.09,0.035 0.164,0.181 0.164,0.325c0,0.143 0.049,0.261 0.109,0.261c0.06,0 0.109,0.123 0.109,0.273c0,0.17 0.062,0.273 0.164,0.273c0.102,0 0.164,0.103 0.164,0.273c0,0.15 0.049,0.273 0.109,0.273c0.06,0 0.109,0.123 0.109,0.273c0,0.17 0.062,0.273 0.164,0.273c0.102,0 0.164,0.103 0.164,0.273c0,0.17 0.062,0.273 0.164,0.273c0.101,0 0.163,0.103 0.163,0.273c0,0.15 0.049,0.273 0.11,0.273c0.06,0 0.109,0.123 0.109,0.273c0,0.17 0.062,0.273 0.164,0.273c0.1,0 0.163,0.103 0.163,0.267c0,0.146 0.049,0.297 0.11,0.334c0.06,0.037 0.109,0.157 0.109,0.268c0,0.11 0.073,0.228 0.164,0.263c0.09,0.034 0.163,0.163 0.163,0.284c0,0.122 0.05,0.222 0.11,0.222c0.06,0 0.109,0.074 0.109,0.164c0,0.09 0.074,0.164 0.164,0.164c0.101,0 0.163,0.103 0.163,0.273c0,0.17 0.062,0.273 0.164,0.273c0.09,0 0.164,0.091 0.164,0.202c0,0.26 0.258,0.774 0.541,1.078c0.123,0.132 0.223,0.34 0.223,0.463c0,0.122 0.063,0.223 0.139,0.223c0.076,0 0.223,0.196 0.327,0.436c0.104,0.241 0.238,0.437 0.299,0.437c0.06,0 0.109,0.105 0.109,0.233c0,0.129 0.123,0.347 0.273,0.487c0.15,0.139 0.273,0.322 0.273,0.406c0,0.085 0.123,0.246 0.273,0.359c0.15,0.113 0.273,0.294 0.273,0.403c0,0.109 0.123,0.311 0.273,0.451c0.15,0.139 0.273,0.335 0.273,0.435c0,0.1 0.074,0.21 0.164,0.244c0.09,0.035 0.164,0.132 0.164,0.216c0,0.083 0.046,0.152 0.102,0.152c0.056,0 0.132,0.097 0.17,0.215c0.038,0.119 0.238,0.39 0.444,0.603c0.207,0.213 0.376,0.461 0.376,0.552c0,0.091 0.074,0.194 0.164,0.228c0.09,0.035 0.164,0.111 0.164,0.168c0,0.142 0.283,0.418 0.428,0.418c0.065,0 0.118,0.105 0.118,0.233c0,0.128 0.122,0.347 0.273,0.486c0.15,0.139 0.273,0.284 0.273,0.321c0,0.106 0.3,0.38 0.417,0.38c0.058,0 0.136,0.122 0.173,0.273c0.038,0.15 0.117,0.273 0.176,0.273c0.059,0 0.107,0.052 0.107,0.117c0,0.151 0.278,0.429 0.429,0.429c0.065,0 0.117,0.073 0.117,0.163c0,0.091 0.049,0.164 0.11,0.164c0.06,0 0.109,0.074 0.109,0.164c0,0.09 0.07,0.164 0.156,0.164c0.086,0 0.187,0.097 0.225,0.215c0.037,0.118 0.286,0.439 0.553,0.714c0.267,0.274 0.485,0.546 0.485,0.604c0,0.058 0.053,0.105 0.118,0.105c0.151,0 0.428,0.278 0.428,0.429c0,0.064 0.074,0.117 0.164,0.117c0.09,0 0.164,0.053 0.164,0.117c0,0.151 0.278,0.429 0.429,0.429c0.064,0 0.117,0.074 0.117,0.164c0,0.09 0.053,0.164 0.117,0.164c0.151,0 0.429,0.278 0.429,0.429c0,0.064 0.053,0.117 0.117,0.117c0.151,0 0.429,0.278 0.429,0.429c0,0.064 0.074,0.117 0.164,0.117c0.09,0 0.164,0.073 0.164,0.164c0,0.09 0.041,0.163 0.091,0.163c0.05,0 0.39,0.295 0.756,0.656c0.366,0.36 0.707,0.655 0.757,0.655c0.05,0 0.223,0.123 0.385,0.273c0.162,0.15 0.346,0.273 0.409,0.273c0.062,0 0.114,0.053 0.114,0.118c0,0.199 0.717,0.827 1.201,1.051c0.09,0.042 0.317,0.238 0.504,0.436c0.187,0.198 0.445,0.361 0.573,0.361c0.129,0 0.233,0.051 0.233,0.113c0,0.164 0.33,0.468 0.709,0.654c0.18,0.089 0.431,0.271 0.559,0.407c0.127,0.135 0.337,0.245 0.465,0.245c0.134,0 0.233,0.07 0.233,0.164c0,0.09 0.074,0.164 0.164,0.164c0.09,0 0.164,0.049 0.164,0.109c0,0.06 0.123,0.109 0.273,0.109c0.17,0 0.273,0.062 0.273,0.164c0,0.09 0.073,0.164 0.164,0.164c0.09,0 0.163,0.049 0.163,0.109c0,0.06 0.093,0.109 0.207,0.109c0.114,0 0.235,0.074 0.27,0.164c0.034,0.09 0.163,0.164 0.284,0.164c0.122,0 0.222,0.047 0.222,0.104c0,0.057 0.185,0.19 0.41,0.295c0.225,0.104 0.449,0.254 0.497,0.332c0.048,0.078 0.18,0.143 0.293,0.143c0.114,0 0.237,0.049 0.275,0.109c0.037,0.06 0.157,0.109 0.267,0.109c0.11,0 0.229,0.074 0.264,0.164c0.034,0.09 0.159,0.164 0.278,0.164c0.118,0 0.245,0.049 0.283,0.109c0.037,0.06 0.187,0.109 0.334,0.109c0.164,0 0.266,0.063 0.266,0.164c0,0.102 0.103,0.164 0.273,0.164c0.15,0 0.273,0.039 0.273,0.088c0,0.134 0.799,0.458 1.129,0.458c0.186,0 0.291,0.059 0.291,0.164c0,0.101 0.103,0.163 0.273,0.163c0.15,0 0.273,0.05 0.273,0.11c0,0.06 0.167,0.109 0.37,0.109c0.229,0 0.395,0.063 0.434,0.164c0.034,0.09 0.187,0.163 0.339,0.163c0.152,0 0.277,0.05 0.277,0.11c0,0.06 0.166,0.109 0.369,0.109c0.202,0 0.43,0.074 0.504,0.164c0.075,0.09 0.299,0.163 0.499,0.163c0.199,0 0.392,0.05 0.43,0.11c0.037,0.06 0.261,0.109 0.498,0.109c0.309,0 0.43,0.046 0.43,0.164c0,0.123 0.132,0.163 0.533,0.163c0.34,0 0.581,0.06 0.668,0.164c0.083,0.1 0.322,0.164 0.608,0.164c0.259,0 0.502,0.049 0.539,0.109c0.037,0.06 0.391,0.11 0.786,0.11c0.558,0 0.75,0.042 0.858,0.191c0.13,0.177 0.543,0.191 5.946,0.191c5.403,0 5.815,-0.014 5.945,-0.191c0.107,-0.146 0.298,-0.191 0.81,-0.191c0.375,0 0.671,-0.049 0.671,-0.11c0,-0.06 0.236,-0.109 0.525,-0.109c0.293,0 0.619,-0.071 0.737,-0.16c0.117,-0.088 0.423,-0.162 0.68,-0.164c0.312,-0.002 0.488,-0.058 0.53,-0.167c0.041,-0.107 0.211,-0.164 0.488,-0.164c0.234,0 0.425,-0.049 0.425,-0.109c0,-0.06 0.172,-0.11 0.382,-0.11c0.267,0 0.383,-0.049 0.383,-0.163c0,-0.119 0.121,-0.164 0.437,-0.164c0.24,0 0.436,-0.049 0.436,-0.109c0,-0.06 0.174,-0.11 0.386,-0.11c0.242,0 0.409,-0.06 0.448,-0.163c0.036,-0.093 0.199,-0.164 0.373,-0.164c0.17,0 0.34,-0.049 0.377,-0.109c0.037,-0.06 0.157,-0.11 0.266,-0.11c0.109,0 0.26,-0.073 0.335,-0.163c0.074,-0.091 0.252,-0.164 0.395,-0.164c0.143,0 0.26,-0.049 0.26,-0.109c0,-0.061 0.117,-0.11 0.261,-0.11c0.144,0 0.29,-0.073 0.324,-0.163c0.035,-0.091 0.189,-0.164 0.343,-0.164c0.154,0 0.308,-0.074 0.343,-0.164c0.034,-0.09 0.18,-0.164 0.324,-0.164c0.144,0 0.261,-0.049 0.261,-0.109c0,-0.06 0.096,-0.109 0.212,-0.109c0.117,0 0.243,-0.049 0.28,-0.11c0.037,-0.06 0.286,-0.209 0.552,-0.33c0.267,-0.122 0.485,-0.269 0.485,-0.328c0,-0.058 0.123,-0.106 0.273,-0.106c0.15,0 0.273,-0.044 0.273,-0.097c0,-0.054 0.123,-0.128 0.273,-0.166c0.15,-0.038 0.273,-0.117 0.273,-0.176c0,-0.059 0.062,-0.107 0.138,-0.107c0.075,0 0.27,-0.123 0.432,-0.273c0.162,-0.15 0.373,-0.273 0.468,-0.273c0.096,0 0.288,-0.123 0.427,-0.273c0.139,-0.15 0.335,-0.273 0.435,-0.273c0.1,0 0.21,-0.074 0.245,-0.164c0.034,-0.09 0.131,-0.164 0.215,-0.164c0.083,0 0.152,-0.043 0.152,-0.097c0,-0.054 0.123,-0.128 0.273,-0.166c0.15,-0.038 0.273,-0.117 0.273,-0.176c0,-0.058 0.051,-0.107 0.114,-0.107c0.107,0 0.231,-0.085 0.592,-0.409c0.084,-0.075 0.205,-0.137 0.269,-0.137c0.064,0 0.117,-0.073 0.117,-0.164c0,-0.09 0.074,-0.163 0.164,-0.163c0.09,0 0.164,-0.05 0.164,-0.11c0,-0.06 0.062,-0.109 0.137,-0.109c0.076,0 0.27,-0.123 0.433,-0.273c0.161,-0.15 0.345,-0.273 0.408,-0.273c0.062,0 0.114,-0.074 0.114,-0.164c0,-0.09 0.052,-0.163 0.117,-0.163c0.064,0 0.185,-0.062 0.269,-0.137c0.361,-0.324 0.485,-0.41 0.592,-0.41c0.063,0 0.114,-0.073 0.114,-0.163c0,-0.09 0.053,-0.164 0.117,-0.164c0.151,0 0.429,-0.278 0.429,-0.429c0,-0.064 0.074,-0.117 0.164,-0.117c0.09,0 0.164,-0.049 0.164,-0.109c0,-0.06 0.073,-0.11 0.163,-0.11c0.09,0 0.164,-0.07 0.164,-0.156c0,-0.086 0.102,-0.189 0.227,-0.228c0.218,-0.07 3.595,-3.344 3.595,-3.486c0,-0.098 0.16,-0.279 1.092,-1.245c0.844,-0.873 1.052,-1.135 1.163,-1.464c0.035,-0.105 0.111,-0.191 0.168,-0.191c0.141,0 0.417,-0.284 0.417,-0.429c0,-0.065 0.074,-0.117 0.164,-0.117c0.09,0 0.163,-0.074 0.163,-0.164c0,-0.09 0.05,-0.164 0.11,-0.164c0.06,0 0.109,-0.123 0.109,-0.273c0,-0.15 0.053,-0.273 0.117,-0.273c0.151,0 0.429,-0.278 0.429,-0.429c0,-0.064 0.074,-0.117 0.164,-0.117c0.091,0 0.163,-0.097 0.163,-0.219c0,-0.12 0.197,-0.415 0.437,-0.655c0.241,-0.24 0.437,-0.51 0.437,-0.6c0,-0.091 0.049,-0.164 0.109,-0.164c0.06,0 0.11,-0.074 0.11,-0.164c0,-0.09 0.056,-0.164 0.124,-0.164c0.168,0 0.414,-0.337 0.418,-0.573c0.002,-0.105 0.077,-0.191 0.167,-0.191c0.09,0 0.164,-0.074 0.164,-0.164c0,-0.09 0.049,-0.164 0.109,-0.164c0.06,0 0.11,-0.123 0.11,-0.273c0,-0.17 0.062,-0.273 0.163,-0.273c0.091,0 0.164,-0.074 0.164,-0.164c0,-0.09 0.049,-0.164 0.107,-0.164c0.059,0 0.136,-0.113 0.171,-0.252c0.035,-0.138 0.183,-0.342 0.329,-0.452c0.147,-0.11 0.267,-0.291 0.267,-0.403c0,-0.112 0.049,-0.203 0.109,-0.203c0.06,0 0.109,-0.093 0.109,-0.207c0,-0.114 0.074,-0.235 0.164,-0.27c0.09,-0.034 0.164,-0.138 0.164,-0.229c0,-0.092 0.049,-0.168 0.109,-0.168c0.06,0 0.109,-0.123 0.109,-0.273c0,-0.17 0.062,-0.273 0.164,-0.273c0.09,0 0.164,-0.074 0.164,-0.164c0,-0.09 0.048,-0.163 0.107,-0.163c0.059,0 0.138,-0.123 0.176,-0.273c0.038,-0.151 0.112,-0.273 0.166,-0.273c0.053,0 0.097,-0.123 0.097,-0.273c0,-0.151 0.061,-0.274 0.137,-0.274c0.137,-0.001 0.409,-0.478 0.409,-0.719c0,-0.072 0.074,-0.159 0.164,-0.194c0.09,-0.034 0.164,-0.162 0.164,-0.284c0,-0.122 0.049,-0.222 0.109,-0.222c0.06,0 0.109,-0.123 0.109,-0.273c0,-0.17 0.062,-0.273 0.164,-0.273c0.102,0 0.164,-0.103 0.164,-0.273c0,-0.15 0.043,-0.273 0.096,-0.273c0.053,0 0.126,-0.086 0.163,-0.191c0.036,-0.105 0.216,-0.437 0.398,-0.738c0.183,-0.3 0.359,-0.619 0.392,-0.709c0.033,-0.09 0.138,-0.312 0.234,-0.492c0.096,-0.18 0.223,-0.426 0.282,-0.546c0.059,-0.12 0.149,-0.292 0.2,-0.382c0.051,-0.09 0.12,-0.238 0.155,-0.328c0.033,-0.09 0.107,-0.249 0.163,-0.353c0.055,-0.105 0.101,-0.313 0.101,-0.464c0,-0.172 0.062,-0.275 0.164,-0.275c0.1,0 0.163,-0.102 0.163,-0.261c0,-0.144 0.074,-0.29 0.164,-0.324c0.09,-0.035 0.164,-0.16 0.164,-0.279c0,-0.118 0.049,-0.245 0.109,-0.282c0.06,-0.038 0.11,-0.165 0.11,-0.283c0,-0.119 0.073,-0.244 0.163,-0.278c0.09,-0.035 0.164,-0.178 0.164,-0.318c0,-0.141 0.049,-0.286 0.109,-0.323c0.06,-0.037 0.11,-0.206 0.11,-0.377c0,-0.174 0.071,-0.337 0.163,-0.372c0.09,-0.035 0.164,-0.187 0.164,-0.339c0,-0.152 0.049,-0.277 0.109,-0.277c0.06,0 0.11,-0.172 0.11,-0.382c0,-0.267 0.049,-0.382 0.163,-0.382c0.102,0 0.164,-0.103 0.164,-0.273c0,-0.15 0.049,-0.273 0.109,-0.273c0.06,0 0.11,-0.197 0.11,-0.437c0,-0.316 0.045,-0.437 0.163,-0.437c0.097,0 0.166,-0.101 0.168,-0.246c0.002,-0.135 0.075,-0.341 0.164,-0.457c0.088,-0.117 0.16,-0.326 0.16,-0.464c0,-0.139 0.049,-0.253 0.109,-0.253c0.06,0 0.109,-0.166 0.109,-0.37c0,-0.229 0.063,-0.395 0.164,-0.434c0.09,-0.034 0.164,-0.187 0.164,-0.339c0,-0.152 0.049,-0.276 0.109,-0.276c0.06,0 0.109,-0.166 0.109,-0.369c0,-0.203 0.074,-0.43 0.164,-0.505c0.09,-0.075 0.164,-0.274 0.164,-0.444c0,-0.169 0.049,-0.338 0.109,-0.375c0.06,-0.037 0.109,-0.231 0.109,-0.432c0,-0.222 0.064,-0.388 0.164,-0.427c0.097,-0.037 0.164,-0.201 0.164,-0.401c0,-0.187 0.074,-0.413 0.164,-0.503c0.09,-0.09 0.164,-0.332 0.164,-0.538c0,-0.206 0.049,-0.375 0.109,-0.375c0.06,0 0.109,-0.191 0.109,-0.425c0,-0.277 0.057,-0.447 0.164,-0.488c0.102,-0.039 0.164,-0.205 0.164,-0.442c0,-0.208 0.049,-0.409 0.109,-0.447c0.06,-0.037 0.109,-0.285 0.109,-0.552c0,-0.358 0.043,-0.485 0.164,-0.485c0.121,0 0.164,-0.127 0.164,-0.485c0,-0.267 0.049,-0.515 0.109,-0.552c0.06,-0.038 0.109,-0.265 0.109,-0.506c0,-0.244 0.073,-0.511 0.164,-0.602c0.09,-0.09 0.164,-0.336 0.164,-0.546c0,-0.21 0.073,-0.456 0.164,-0.546c0.09,-0.09 0.163,-0.354 0.163,-0.587c0,-0.232 0.049,-0.453 0.11,-0.49c0.06,-0.037 0.109,-0.329 0.109,-0.648c0,-0.366 0.057,-0.628 0.153,-0.708c0.145,-0.12 0.198,-0.404 0.352,-1.865c0.036,-0.343 0.128,-0.638 0.216,-0.688c0.105,-0.061 0.152,-0.302 0.152,-0.785c0,-0.384 0.05,-0.729 0.11,-0.766c0.06,-0.037 0.109,-0.384 0.109,-0.771c0,-0.552 0.035,-0.703 0.164,-0.703c0.131,0 0.163,-0.164 0.163,-0.819c0,-0.474 0.047,-0.819 0.11,-0.819c0.064,0 0.109,-0.401 0.109,-0.983c0,-0.801 0.03,-0.983 0.164,-0.983c0.133,0 0.163,-0.177 0.163,-0.936c0,-0.687 0.044,-0.98 0.164,-1.1c0.124,-0.123 0.164,-0.429 0.164,-1.242c0,-0.6 0.048,-1.107 0.109,-1.145c0.064,-0.039 0.109,-0.644 0.109,-1.445c0,-1.086 0.036,-1.417 0.168,-1.563c0.366,-0.404 0.35,-21.195 -0.017,-21.561c-0.113,-0.113 -0.151,-0.508 -0.151,-1.572c0,-0.829 -0.045,-1.449 -0.109,-1.488c-0.06,-0.038 -0.109,-0.527 -0.109,-1.091c0,-0.764 -0.041,-1.065 -0.164,-1.187c-0.12,-0.12 -0.164,-0.413 -0.164,-1.092c0,-0.68 -0.043,-0.973 -0.163,-1.092c-0.117,-0.117 -0.164,-0.402 -0.164,-0.991c0,-0.479 -0.046,-0.827 -0.109,-0.827c-0.063,0 -0.11,-0.346 -0.11,-0.819c0,-0.655 -0.032,-0.819 -0.163,-0.819c-0.131,0 -0.164,-0.164 -0.164,-0.819c0,-0.473 -0.046,-0.819 -0.109,-0.819c-0.062,0 -0.11,-0.309 -0.11,-0.71c0,-0.558 -0.035,-0.71 -0.163,-0.71c-0.128,0 -0.164,-0.145 -0.164,-0.648c0,-0.357 -0.049,-0.68 -0.109,-0.717c-0.061,-0.037 -0.11,-0.31 -0.11,-0.607c0,-0.407 -0.04,-0.54 -0.163,-0.54c-0.129,0 -0.164,-0.151 -0.164,-0.709c0,-0.401 -0.048,-0.71 -0.109,-0.71c-0.061,0 -0.11,-0.193 -0.11,-0.429c0,-0.236 -0.073,-0.503 -0.163,-0.593c-0.099,-0.098 -0.164,-0.365 -0.164,-0.667c0,-0.346 -0.051,-0.522 -0.164,-0.565c-0.111,-0.043 -0.164,-0.216 -0.164,-0.536c0,-0.261 -0.049,-0.504 -0.109,-0.541c-0.06,-0.037 -0.109,-0.256 -0.109,-0.486c0,-0.272 -0.058,-0.441 -0.164,-0.482c-0.112,-0.043 -0.164,-0.218 -0.164,-0.557c0,-0.273 -0.049,-0.495 -0.109,-0.495c-0.06,0 -0.109,-0.174 -0.109,-0.386c0,-0.242 -0.061,-0.409 -0.164,-0.448c-0.111,-0.043 -0.164,-0.217 -0.164,-0.537c0,-0.26 -0.049,-0.503 -0.109,-0.541c-0.06,-0.037 -0.109,-0.206 -0.109,-0.375c0,-0.169 -0.074,-0.369 -0.164,-0.444c-0.09,-0.074 -0.164,-0.302 -0.164,-0.504c0,-0.255 -0.051,-0.369 -0.164,-0.369c-0.118,0 -0.164,-0.121 -0.164,-0.437c0,-0.24 -0.049,-0.437 -0.109,-0.437c-0.06,0 -0.109,-0.174 -0.109,-0.386c0,-0.242 -0.061,-0.409 -0.164,-0.448c-0.101,-0.039 -0.164,-0.205 -0.164,-0.434c0,-0.203 -0.049,-0.37 -0.109,-0.37c-0.06,0 -0.109,-0.114 -0.109,-0.252c0,-0.139 -0.072,-0.348 -0.16,-0.464c-0.089,-0.117 -0.162,-0.323 -0.164,-0.458c-0.002,-0.135 -0.053,-0.246 -0.113,-0.246c-0.06,0 -0.109,-0.144 -0.109,-0.319c0,-0.177 -0.074,-0.394 -0.164,-0.484c-0.09,-0.09 -0.164,-0.292 -0.164,-0.448c0,-0.157 -0.073,-0.313 -0.164,-0.347c-0.093,-0.036 -0.163,-0.199 -0.163,-0.379c0,-0.174 -0.05,-0.316 -0.11,-0.316c-0.06,0 -0.109,-0.119 -0.109,-0.265c0,-0.146 -0.074,-0.339 -0.164,-0.429c-0.09,-0.09 -0.163,-0.266 -0.163,-0.39c0,-0.125 -0.05,-0.227 -0.11,-0.227c-0.06,0 -0.109,-0.124 -0.109,-0.276c0,-0.152 -0.074,-0.305 -0.164,-0.339c-0.101,-0.039 -0.163,-0.205 -0.163,-0.434c0,-0.203 -0.05,-0.37 -0.11,-0.37c-0.06,0 -0.109,-0.123 -0.109,-0.273c0,-0.17 -0.062,-0.273 -0.164,-0.273c-0.1,0 -0.163,-0.103 -0.163,-0.267c0,-0.146 -0.05,-0.297 -0.11,-0.334c-0.06,-0.037 -0.109,-0.157 -0.109,-0.266c0,-0.109 -0.074,-0.26 -0.164,-0.335c-0.09,-0.074 -0.164,-0.224 -0.164,-0.333c0,-0.108 -0.073,-0.271 -0.163,-0.361c-0.09,-0.09 -0.164,-0.265 -0.164,-0.39c0,-0.124 -0.049,-0.226 -0.109,-0.226c-0.06,0 -0.11,-0.118 -0.11,-0.261c0,-0.144 -0.073,-0.29 -0.163,-0.325c-0.09,-0.034 -0.164,-0.159 -0.164,-0.278c0,-0.118 -0.049,-0.246 -0.109,-0.283c-0.06,-0.037 -0.11,-0.164 -0.11,-0.283c0,-0.118 -0.073,-0.243 -0.163,-0.278c-0.091,-0.034 -0.164,-0.18 -0.164,-0.324c0,-0.144 -0.044,-0.261 -0.098,-0.261c-0.053,0 -0.128,-0.123 -0.165,-0.273c-0.038,-0.151 -0.117,-0.273 -0.176,-0.273c-0.059,0 -0.107,-0.123 -0.107,-0.273c0,-0.17 -0.062,-0.273 -0.164,-0.273c-0.102,0 -0.164,-0.104 -0.164,-0.273c0,-0.151 -0.049,-0.273 -0.109,-0.273c-0.06,0 -0.109,-0.069 -0.109,-0.153c0,-0.083 -0.074,-0.18 -0.164,-0.215c-0.09,-0.034 -0.164,-0.162 -0.164,-0.284c0,-0.122 -0.049,-0.222 -0.109,-0.222c-0.06,0 -0.109,-0.123 -0.109,-0.273c0,-0.17 -0.062,-0.273 -0.164,-0.273c-0.102,0 -0.164,-0.103 -0.164,-0.273c0,-0.15 -0.044,-0.273 -0.097,-0.273c-0.054,0 -0.128,-0.123 -0.166,-0.273c-0.038,-0.15 -0.117,-0.273 -0.176,-0.273c-0.059,0 -0.107,-0.074 -0.107,-0.164c0,-0.09 -0.049,-0.164 -0.109,-0.164c-0.06,0 -0.109,-0.096 -0.109,-0.213c0,-0.117 -0.062,-0.252 -0.137,-0.3c-0.16,-0.103 -0.389,-0.444 -0.48,-0.715c-0.035,-0.106 -0.107,-0.192 -0.161,-0.192c-0.053,0 -0.096,-0.091 -0.096,-0.203c0,-0.111 -0.123,-0.295 -0.273,-0.408c-0.152,-0.114 -0.273,-0.316 -0.273,-0.455c0,-0.138 -0.074,-0.279 -0.164,-0.314c-0.09,-0.034 -0.164,-0.124 -0.164,-0.199c0,-0.075 -0.11,-0.259 -0.245,-0.41c-0.318,-0.354 -0.51,-0.639 -0.59,-0.877c-0.035,-0.105 -0.107,-0.191 -0.16,-0.191c-0.053,0 -0.097,-0.074 -0.097,-0.164c0,-0.09 -0.074,-0.164 -0.164,-0.164c-0.092,0 -0.163,-0.098 -0.163,-0.226c0,-0.242 -0.237,-0.538 -0.429,-0.538c-0.065,0 -0.117,-0.103 -0.117,-0.227c0,-0.236 -0.551,-0.866 -0.756,-0.866c-0.065,0 -0.118,-0.122 -0.118,-0.273c0,-0.15 -0.049,-0.273 -0.109,-0.273c-0.06,0 -0.11,-0.073 -0.11,-0.163c0,-0.09 -0.073,-0.164 -0.163,-0.164c-0.09,0 -0.164,-0.074 -0.164,-0.164c0,-0.09 -0.049,-0.164 -0.109,-0.164c-0.06,0 -0.11,-0.091 -0.11,-0.203c0,-0.112 -0.122,-0.295 -0.273,-0.408c-0.15,-0.113 -0.273,-0.267 -0.273,-0.343c0,-0.076 -0.073,-0.138 -0.163,-0.138c-0.09,0 -0.164,-0.053 -0.164,-0.117c0,-0.064 -0.062,-0.185 -0.137,-0.269c-0.324,-0.361 -0.409,-0.485 -0.409,-0.592c0,-0.063 -0.074,-0.114 -0.164,-0.114c-0.09,0 -0.164,-0.053 -0.164,-0.117c0,-0.151 -0.278,-0.429 -0.429,-0.429c-0.064,0 -0.117,-0.07 -0.117,-0.155c0,-0.085 -0.037,-0.171 -0.083,-0.191c-0.045,-0.02 -0.252,-0.257 -0.46,-0.528c-0.207,-0.27 -0.539,-0.648 -0.736,-0.839c-0.198,-0.191 -0.359,-0.4 -0.359,-0.464c0,-0.064 -0.053,-0.116 -0.117,-0.116c-0.151,0 -0.429,-0.278 -0.429,-0.429c0,-0.065 -0.074,-0.117 -0.164,-0.117c-0.09,0 -0.164,-0.066 -0.164,-0.146c0,-0.08 -0.123,-0.211 -0.273,-0.291c-0.15,-0.08 -0.273,-0.191 -0.273,-0.245c0,-0.136 -0.286,-0.41 -0.429,-0.41c-0.064,0 -0.117,-0.074 -0.117,-0.164c0,-0.09 -0.052,-0.164 -0.117,-0.164c-0.151,0 -0.429,-0.278 -0.429,-0.429c0,-0.064 -0.049,-0.117 -0.11,-0.117c-0.061,0 -0.356,-0.246 -0.654,-0.546c-0.299,-0.3 -0.581,-0.546 -0.628,-0.546c-0.046,0 -0.217,-0.123 -0.379,-0.273c-0.162,-0.15 -0.345,-0.273 -0.408,-0.273c-0.063,0 -0.114,-0.053 -0.114,-0.117c0,-0.151 -0.278,-0.429 -0.429,-0.429c-0.064,0 -0.117,-0.068 -0.117,-0.151c0,-0.083 -0.086,-0.18 -0.191,-0.216c-0.293,-0.098 -0.583,-0.308 -0.963,-0.698c-0.191,-0.195 -0.451,-0.355 -0.579,-0.355c-0.128,0 -0.233,-0.053 -0.233,-0.117c0,-0.146 -0.276,-0.429 -0.417,-0.429c-0.058,0 -0.134,-0.074 -0.169,-0.164c-0.034,-0.09 -0.162,-0.164 -0.284,-0.164c-0.122,0 -0.222,-0.049 -0.222,-0.109c0,-0.06 -0.074,-0.109 -0.164,-0.109c-0.09,0 -0.164,-0.074 -0.164,-0.164c0,-0.102 -0.103,-0.164 -0.273,-0.164c-0.15,0 -0.273,-0.056 -0.273,-0.124c0,-0.147 -0.326,-0.413 -0.513,-0.418c-0.072,-0.002 -0.263,-0.127 -0.425,-0.277c-0.162,-0.15 -0.386,-0.273 -0.497,-0.273c-0.112,0 -0.203,-0.073 -0.203,-0.164c0,-0.101 -0.103,-0.163 -0.273,-0.163c-0.15,0 -0.273,-0.049 -0.273,-0.11c0,-0.06 -0.068,-0.109 -0.152,-0.109c-0.084,0 -0.18,-0.073 -0.215,-0.164c-0.034,-0.09 -0.157,-0.163 -0.273,-0.163c-0.115,0 -0.238,-0.074 -0.273,-0.164c-0.034,-0.09 -0.163,-0.164 -0.284,-0.164c-0.123,0 -0.222,-0.049 -0.222,-0.109c0,-0.06 -0.123,-0.109 -0.273,-0.109c-0.17,0 -0.273,-0.062 -0.273,-0.164c0,-0.102 -0.104,-0.164 -0.274,-0.164c-0.15,0 -0.273,-0.049 -0.273,-0.109c0,-0.06 -0.117,-0.109 -0.261,-0.109c-0.144,0 -0.289,-0.074 -0.324,-0.164c-0.035,-0.09 -0.187,-0.164 -0.339,-0.164c-0.152,0 -0.277,-0.049 -0.277,-0.109c0,-0.06 -0.123,-0.109 -0.273,-0.109c-0.17,0 -0.273,-0.062 -0.273,-0.164c0,-0.102 -0.103,-0.164 -0.273,-0.164c-0.15,0 -0.273,-0.049 -0.273,-0.109c0,-0.06 -0.196,-0.109 -0.437,-0.109c-0.315,0 -0.437,-0.046 -0.437,-0.164c0,-0.093 -0.098,-0.164 -0.226,-0.164c-0.124,0 -0.3,-0.074 -0.39,-0.164c-0.09,-0.09 -0.283,-0.164 -0.429,-0.164c-0.146,0 -0.265,-0.049 -0.265,-0.109c0,-0.06 -0.191,-0.109 -0.425,-0.109c-0.277,0 -0.447,-0.057 -0.488,-0.164c-0.04,-0.103 -0.207,-0.164 -0.449,-0.164c-0.212,0 -0.385,-0.049 -0.385,-0.109c0,-0.06 -0.192,-0.109 -0.425,-0.109c-0.278,0 -0.448,-0.057 -0.489,-0.164c-0.042,-0.112 -0.218,-0.164 -0.557,-0.164c-0.272,0 -0.495,-0.049 -0.495,-0.109c0,-0.06 -0.241,-0.109 -0.534,-0.109c-0.375,0 -0.553,-0.049 -0.598,-0.164c-0.045,-0.119 -0.231,-0.164 -0.671,-0.164c-0.393,0 -0.709,-0.067 -0.897,-0.19c-0.308,-0.202 -9.512,-0.319 -11.87,-0.152m8.782,1.333c0.45,0.06 1.163,0.153 1.583,0.206c0.675,0.086 1.174,0.177 2.949,0.541c0.638,0.131 1.496,0.353 1.747,0.453c0.12,0.047 0.342,0.109 0.492,0.138c0.244,0.046 0.585,0.157 1.256,0.406c0.12,0.045 0.464,0.164 0.764,0.265c0.3,0.101 0.644,0.228 0.765,0.282c0.12,0.054 0.464,0.192 0.764,0.307c2.773,1.065 7.388,3.725 9.716,5.602c0.062,0.05 0.678,0.542 1.369,1.094c2.811,2.244 6.328,5.839 8.863,9.058c0.16,0.203 0.418,0.516 0.574,0.697c0.155,0.18 0.282,0.361 0.282,0.401c0,0.041 0.062,0.14 0.138,0.219c0.588,0.614 4.121,5.797 4.121,6.045c0,0.022 0.142,0.251 0.316,0.51c0.173,0.258 0.411,0.641 0.528,0.851c0.117,0.211 0.376,0.677 0.576,1.038c0.2,0.36 0.452,0.803 0.559,0.983c0.216,0.361 2.7,5.344 2.967,5.952c0.092,0.21 0.298,0.677 0.457,1.037c0.481,1.093 0.66,1.513 0.931,2.184c0.073,0.18 0.197,0.475 0.276,0.655c0.078,0.181 0.229,0.574 0.334,0.874c0.105,0.3 0.232,0.593 0.282,0.65c0.05,0.057 0.091,0.207 0.091,0.333c0,0.126 0.043,0.276 0.096,0.333c0.085,0.092 0.205,0.409 0.68,1.796c0.071,0.211 0.168,0.481 0.214,0.601c0.046,0.12 0.168,0.489 0.272,0.819c0.103,0.33 0.225,0.699 0.27,0.819c0.133,0.351 0.39,1.151 0.597,1.857c0.105,0.36 0.234,0.74 0.287,0.845c0.053,0.104 0.096,0.286 0.096,0.404c0,0.118 0.045,0.328 0.1,0.466c0.147,0.366 0.62,2.055 0.883,3.144c0.05,0.211 0.152,0.604 0.226,0.874c0.073,0.27 0.173,0.664 0.221,0.874c0.048,0.21 0.166,0.726 0.262,1.146c0.095,0.421 0.216,0.961 0.268,1.202c0.051,0.24 0.175,0.805 0.276,1.256c0.1,0.45 0.204,0.966 0.231,1.146c0.028,0.18 0.125,0.721 0.218,1.202c0.295,1.536 0.676,3.826 0.745,4.477c0.026,0.24 0.124,0.977 0.219,1.638c0.095,0.661 0.219,1.693 0.275,2.295c0.057,0.601 0.129,1.166 0.161,1.256c0.135,0.384 0.368,4.084 0.614,9.755c0.122,2.814 0.122,3.927 0,6.771c-0.246,5.691 -0.481,9.432 -0.618,9.791c-0.034,0.09 -0.104,0.631 -0.154,1.202c-0.052,0.57 -0.174,1.602 -0.272,2.293c-0.099,0.691 -0.218,1.575 -0.265,1.966c-0.047,0.39 -0.145,1.029 -0.217,1.419c-0.073,0.391 -0.174,0.956 -0.224,1.256c-0.051,0.301 -0.151,0.841 -0.222,1.202c-0.071,0.36 -0.171,0.925 -0.222,1.255c-0.05,0.331 -0.172,0.945 -0.272,1.365c-0.099,0.421 -0.219,0.962 -0.268,1.202c-0.048,0.24 -0.167,0.781 -0.264,1.201c-0.097,0.42 -0.224,0.999 -0.281,1.286c-0.058,0.287 -0.155,0.616 -0.217,0.73c-0.061,0.115 -0.111,0.335 -0.111,0.49c0,0.155 -0.044,0.367 -0.097,0.471c-0.116,0.23 -0.354,1.148 -0.423,1.638c-0.028,0.196 -0.094,0.383 -0.147,0.416c-0.054,0.033 -0.098,0.154 -0.098,0.268c0,0.115 -0.067,0.419 -0.149,0.676c-0.082,0.258 -0.235,0.763 -0.339,1.124c-0.312,1.082 -1.272,4.027 -1.378,4.23c-0.055,0.104 -0.099,0.262 -0.099,0.351c0,0.089 -0.081,0.348 -0.179,0.575c-0.099,0.227 -0.216,0.511 -0.26,0.631c-0.045,0.121 -0.161,0.428 -0.258,0.683c-0.097,0.255 -0.256,0.673 -0.352,0.928c-0.096,0.256 -0.219,0.55 -0.273,0.654c-0.054,0.104 -0.098,0.238 -0.098,0.297c0,0.06 -0.118,0.367 -0.262,0.684c-0.144,0.317 -0.421,0.97 -0.615,1.45c-0.194,0.481 -0.476,1.144 -0.626,1.475c-1.231,2.707 -2.343,4.933 -3.521,7.044c-0.1,0.18 -0.345,0.622 -0.545,0.982c-0.792,1.434 -3.746,6.051 -4.306,6.73c-0.08,0.097 -0.481,0.638 -0.891,1.201c-0.41,0.563 -0.832,1.123 -0.937,1.243c-0.105,0.12 -0.617,0.734 -1.137,1.365c-1.727,2.096 -4.352,4.815 -6.326,6.553c-1.149,1.011 -1.301,1.139 -1.802,1.526c-0.27,0.208 -0.516,0.409 -0.546,0.446c-0.173,0.212 -4.079,2.942 -4.209,2.942c-0.025,0 -0.313,0.171 -0.641,0.38c-0.569,0.364 -1.839,1.055 -3.122,1.699c-0.643,0.322 -1.322,0.623 -2.566,1.137c-0.241,0.099 -0.523,0.226 -0.627,0.283c-0.104,0.058 -0.265,0.105 -0.356,0.105c-0.092,0 -0.252,0.048 -0.357,0.108c-0.281,0.161 -2.182,0.765 -2.408,0.765c-0.107,0 -0.241,0.04 -0.299,0.089c-0.057,0.048 -0.496,0.175 -0.977,0.281c-0.48,0.107 -1.046,0.239 -1.256,0.295c-0.52,0.138 -1.516,0.303 -2.566,0.425c-0.481,0.056 -1.292,0.152 -1.802,0.215c-2.427,0.296 -6.731,0.031 -9.665,-0.596c-1.711,-0.366 -2.411,-0.539 -2.506,-0.62c-0.057,-0.049 -0.192,-0.089 -0.299,-0.089c-0.254,0 -3.136,-0.973 -3.857,-1.302c-0.12,-0.054 -0.388,-0.165 -0.595,-0.245c-2.338,-0.904 -8.511,-4.602 -9.898,-5.929c-0.065,-0.063 -0.332,-0.286 -0.592,-0.496c-1.538,-1.239 -2.014,-1.678 -4.149,-3.818c-2.634,-2.64 -3.946,-4.131 -5.628,-6.393c-0.358,-0.48 -0.675,-0.898 -0.706,-0.928c-0.125,-0.123 -0.971,-1.317 -1.584,-2.239c-0.36,-0.54 -0.692,-0.999 -0.737,-1.019c-0.045,-0.02 -0.082,-0.076 -0.082,-0.124c0,-0.048 -0.196,-0.382 -0.436,-0.742c-0.241,-0.36 -0.437,-0.709 -0.437,-0.777c0,-0.067 -0.049,-0.123 -0.109,-0.123c-0.06,0 -0.11,-0.067 -0.11,-0.15c0,-0.083 -0.069,-0.208 -0.153,-0.278c-0.085,-0.07 -0.234,-0.285 -0.333,-0.477c-0.098,-0.193 -0.266,-0.498 -0.374,-0.678c-0.108,-0.18 -0.359,-0.623 -0.559,-0.983c-0.2,-0.36 -0.452,-0.803 -0.56,-0.983c-0.214,-0.358 -2.702,-5.346 -3.104,-6.225c-0.138,-0.3 -0.377,-0.821 -0.532,-1.157c-0.155,-0.336 -0.282,-0.683 -0.282,-0.77c0,-0.087 -0.044,-0.205 -0.099,-0.262c-0.054,-0.057 -0.326,-0.669 -0.603,-1.36c-0.278,-0.691 -0.553,-1.341 -0.611,-1.446c-0.059,-0.104 -0.106,-0.264 -0.106,-0.356c0,-0.092 -0.05,-0.252 -0.112,-0.356c-0.13,-0.222 -0.594,-1.483 -0.833,-2.265c-0.092,-0.3 -0.204,-0.62 -0.247,-0.71c-0.044,-0.09 -0.24,-0.679 -0.437,-1.31c-0.197,-0.631 -0.398,-1.245 -0.447,-1.365c-0.18,-0.441 -0.436,-1.358 -0.436,-1.559c0,-0.113 -0.035,-0.242 -0.078,-0.285c-0.043,-0.043 -0.143,-0.309 -0.222,-0.591c-0.367,-1.314 -0.711,-2.631 -0.8,-3.06c-0.054,-0.259 -0.124,-0.514 -0.156,-0.566c-0.032,-0.052 -0.103,-0.307 -0.158,-0.566c-0.055,-0.26 -0.181,-0.816 -0.282,-1.236c-0.1,-0.421 -0.225,-0.986 -0.279,-1.256c-0.053,-0.27 -0.175,-0.811 -0.271,-1.201c-0.096,-0.391 -0.215,-0.956 -0.264,-1.256c-0.05,-0.3 -0.174,-0.988 -0.276,-1.529c-0.249,-1.319 -0.332,-1.807 -0.484,-2.839c-0.071,-0.481 -0.173,-1.12 -0.226,-1.42c-0.119,-0.672 -0.417,-2.881 -0.479,-3.549c-0.025,-0.271 -0.125,-1.229 -0.221,-2.13c-0.808,-7.544 -0.809,-18.135 -0.003,-25.554c0.098,-0.901 0.199,-1.86 0.224,-2.13c0.082,-0.886 0.376,-2.993 0.484,-3.469c0.058,-0.256 0.106,-0.649 0.108,-0.874c0.001,-0.224 0.051,-0.604 0.11,-0.844c0.059,-0.241 0.155,-0.757 0.212,-1.147c0.059,-0.39 0.186,-1.103 0.283,-1.583c0.098,-0.481 0.216,-1.12 0.264,-1.42c0.047,-0.3 0.17,-0.89 0.272,-1.311c0.103,-0.42 0.224,-0.985 0.271,-1.256c0.046,-0.27 0.145,-0.737 0.219,-1.037c0.075,-0.3 0.182,-0.743 0.239,-0.983c0.057,-0.24 0.175,-0.664 0.262,-0.943c0.087,-0.278 0.159,-0.632 0.159,-0.785c0,-0.154 0.049,-0.31 0.109,-0.347c0.06,-0.037 0.109,-0.179 0.109,-0.314c0,-0.136 0.069,-0.465 0.152,-0.731c0.084,-0.266 0.236,-0.779 0.337,-1.139c0.101,-0.36 0.223,-0.778 0.272,-0.928c0.049,-0.15 0.173,-0.593 0.276,-0.983c0.104,-0.39 0.228,-0.808 0.276,-0.928c0.049,-0.12 0.173,-0.489 0.276,-0.819c0.104,-0.331 0.226,-0.699 0.273,-0.819c0.047,-0.121 0.169,-0.489 0.271,-0.819c0.103,-0.331 0.23,-0.687 0.283,-0.791c0.053,-0.104 0.096,-0.244 0.096,-0.311c0,-0.067 0.069,-0.276 0.153,-0.466c0.084,-0.189 0.285,-0.712 0.445,-1.163c0.437,-1.227 0.776,-2.095 1.236,-3.167c0.064,-0.15 0.199,-0.469 0.299,-0.71c0.293,-0.702 0.354,-0.844 0.606,-1.419c0.583,-1.334 0.833,-1.864 1.752,-3.713c0.538,-1.081 1.172,-2.31 1.41,-2.73c0.238,-0.421 0.487,-0.9 0.553,-1.065c0.066,-0.165 0.164,-0.301 0.218,-0.301c0.054,0 0.099,-0.098 0.099,-0.218c0,-0.12 0.038,-0.218 0.084,-0.218c0.046,0 0.18,-0.185 0.297,-0.41c0.313,-0.604 2.093,-3.483 2.583,-4.177c0.233,-0.33 0.47,-0.674 0.528,-0.765c0.216,-0.34 1.927,-2.721 2.241,-3.119c1.085,-1.372 2.075,-2.598 2.293,-2.838c0.06,-0.066 0.478,-0.534 0.929,-1.04c1.035,-1.163 3.238,-3.392 4.095,-4.144c1.184,-1.038 1.303,-1.142 2.079,-1.801c0.423,-0.36 0.908,-0.752 1.078,-0.872c0.17,-0.12 0.49,-0.366 0.711,-0.546c0.221,-0.18 0.695,-0.524 1.052,-0.765c0.357,-0.24 0.666,-0.473 0.686,-0.518c0.02,-0.045 0.075,-0.082 0.121,-0.082c0.047,0 0.448,-0.238 0.892,-0.528c0.444,-0.29 0.979,-0.621 1.189,-0.736c0.21,-0.115 0.456,-0.266 0.546,-0.336c0.224,-0.174 3.649,-1.912 4.259,-2.161c0.271,-0.11 0.664,-0.27 0.874,-0.355c0.21,-0.084 0.468,-0.201 0.572,-0.258c0.104,-0.057 0.258,-0.104 0.342,-0.104c0.084,0 0.294,-0.073 0.466,-0.163c0.172,-0.09 0.396,-0.163 0.497,-0.164c0.102,0 0.212,-0.044 0.245,-0.097c0.033,-0.053 0.195,-0.124 0.361,-0.157c0.166,-0.033 0.548,-0.133 0.848,-0.223c1.832,-0.551 3.682,-0.96 5.296,-1.173c0.511,-0.067 1.199,-0.159 1.529,-0.203c0.906,-0.122 5.728,-0.119 6.662,0.004m-30.032,99.58c-11.682,0.036 -21.25,0.077 -21.26,0.092c-0.011,0.014 0.025,0.186 0.081,0.38c0.056,0.195 0.101,0.527 0.1,0.737c-0.002,0.407 0.268,2.253 0.443,3.033c0.058,0.256 0.104,0.6 0.104,0.765c0,0.164 0.072,0.618 0.16,1.008c0.089,0.391 0.216,1.005 0.283,1.365c0.158,0.85 0.425,2.096 0.538,2.512c0.049,0.18 0.172,0.721 0.272,1.201c0.101,0.481 0.25,1.12 0.332,1.42c0.083,0.301 0.206,0.767 0.275,1.038c0.223,0.877 0.477,1.786 1.144,4.095c0.209,0.723 1.231,3.913 1.364,4.259c0.046,0.12 0.169,0.44 0.272,0.71c0.104,0.27 0.226,0.567 0.273,0.659c0.046,0.092 0.118,0.325 0.161,0.517c0.042,0.193 0.122,0.378 0.177,0.413c0.056,0.034 0.101,0.172 0.101,0.307c0,0.134 0.041,0.291 0.091,0.348c0.051,0.057 0.178,0.35 0.282,0.65c0.106,0.3 0.256,0.693 0.335,0.873c0.078,0.181 0.204,0.476 0.279,0.656c0.075,0.18 0.199,0.475 0.276,0.655c0.077,0.18 0.214,0.5 0.303,0.71c0.265,0.622 0.721,1.619 1.288,2.812c0.292,0.615 0.532,1.164 0.532,1.219c0,0.055 0.036,0.117 0.082,0.137c0.045,0.02 0.316,0.503 0.602,1.074c0.286,0.57 0.673,1.308 0.858,1.638c0.186,0.33 0.488,0.871 0.672,1.201c0.707,1.272 3.244,5.267 3.467,5.461c0.035,0.03 0.17,0.226 0.299,0.436c0.13,0.211 0.361,0.525 0.513,0.7c0.153,0.174 0.277,0.349 0.277,0.389c0,0.039 0.087,0.167 0.193,0.283c0.105,0.117 0.362,0.433 0.571,0.703c0.209,0.271 0.43,0.545 0.491,0.61c0.061,0.065 0.283,0.333 0.493,0.595c0.405,0.506 0.999,1.216 1.093,1.307c0.031,0.03 0.424,0.469 0.874,0.976c0.845,0.952 1.403,1.52 2.693,2.737c1.333,1.259 1.936,1.799 2.438,2.185c0.271,0.208 0.544,0.428 0.609,0.489c0.199,0.189 0.838,0.684 1.466,1.137c0.331,0.238 0.724,0.525 0.874,0.638c0.15,0.113 0.74,0.497 1.31,0.853c0.571,0.356 1.062,0.673 1.092,0.705c0.23,0.245 5.085,2.62 5.356,2.62c0.055,0 0.358,0.119 0.675,0.264c0.317,0.144 0.699,0.287 0.849,0.316c0.31,0.061 0.944,0.277 1.228,0.418c0.104,0.052 0.291,0.095 0.416,0.095c0.125,0 0.322,0.05 0.437,0.112c0.115,0.061 0.419,0.157 0.675,0.213c0.256,0.055 0.81,0.18 1.23,0.277c0.421,0.097 1.084,0.216 1.475,0.265c0.39,0.049 0.783,0.12 0.873,0.158c0.882,0.371 7.466,0.34 8.557,-0.04c0.177,-0.061 0.487,-0.112 0.689,-0.112c0.358,0 0.667,-0.068 2.494,-0.547c0.481,-0.127 0.997,-0.255 1.147,-0.286c0.15,-0.031 0.371,-0.095 0.491,-0.141c0.471,-0.183 0.998,-0.359 1.311,-0.439c0.18,-0.046 0.585,-0.189 0.901,-0.318c0.315,-0.129 0.831,-0.338 1.146,-0.465c0.753,-0.304 2.202,-0.981 3.359,-1.57c1.274,-0.649 1.43,-0.734 1.803,-0.984c0.479,-0.321 0.721,-0.465 1.113,-0.663c0.192,-0.097 0.407,-0.246 0.477,-0.33c0.071,-0.085 0.192,-0.154 0.269,-0.154c0.078,0 0.158,-0.037 0.178,-0.082c0.02,-0.045 0.356,-0.298 0.746,-0.561c0.705,-0.477 1.861,-1.322 1.966,-1.437c0.03,-0.033 0.359,-0.292 0.732,-0.576c2.113,-1.61 5.859,-5.322 7.457,-7.391c0.209,-0.27 0.54,-0.663 0.736,-0.874c0.195,-0.21 0.356,-0.415 0.357,-0.456c0,-0.041 0.065,-0.139 0.144,-0.218c0.117,-0.118 1.857,-2.538 2.264,-3.148c0.44,-0.661 1.306,-2.006 1.306,-2.029c0,-0.016 0.245,-0.425 0.546,-0.909c0.3,-0.484 0.546,-0.93 0.546,-0.992c0,-0.061 0.043,-0.111 0.096,-0.111c0.053,0 0.126,-0.086 0.163,-0.191c0.036,-0.105 0.172,-0.363 0.301,-0.573c0.3,-0.485 2.467,-4.771 2.816,-5.57c0.235,-0.535 0.475,-1.084 0.934,-2.129c0.376,-0.856 0.709,-1.679 1.15,-2.84c0.35,-0.92 0.47,-1.222 0.543,-1.368c0.047,-0.092 0.119,-0.325 0.161,-0.518c0.043,-0.192 0.123,-0.378 0.178,-0.412c0.056,-0.035 0.101,-0.173 0.101,-0.307c0,-0.135 0.039,-0.292 0.087,-0.349c0.048,-0.057 0.178,-0.398 0.289,-0.759c0.112,-0.36 0.312,-0.999 0.445,-1.419c0.133,-0.421 0.328,-1.06 0.435,-1.42c0.107,-0.36 0.232,-0.754 0.279,-0.874c0.046,-0.12 0.141,-0.439 0.21,-0.71c0.068,-0.27 0.169,-0.638 0.222,-0.819c0.121,-0.403 0.419,-1.504 0.547,-2.02c0.4,-1.61 0.462,-1.871 0.883,-3.713c0.062,-0.27 0.152,-0.713 0.2,-0.983c0.049,-0.27 0.147,-0.762 0.218,-1.092c0.072,-0.33 0.174,-0.846 0.228,-1.147c0.053,-0.3 0.155,-0.84 0.225,-1.201c0.07,-0.36 0.169,-0.975 0.219,-1.365c0.05,-0.39 0.173,-1.25 0.274,-1.911c0.1,-0.661 0.204,-1.582 0.231,-2.048l0.048,-0.846l-17.845,0c-9.816,0 -21.823,-0.017 -26.683,-0.037c-4.86,-0.02 -18.395,-0.007 -30.077,0.028m6.189,5.933c0.056,0.076 0.314,0.8 0.574,1.611c0.26,0.811 0.54,1.629 0.622,1.819c0.083,0.189 0.15,0.444 0.15,0.567c0,0.122 0.044,0.249 0.097,0.282c0.053,0.033 0.121,0.195 0.151,0.361c0.049,0.272 0.171,0.648 0.415,1.285c0.045,0.12 0.168,0.489 0.271,0.819c0.103,0.33 0.226,0.699 0.273,0.819c0.047,0.12 0.171,0.489 0.275,0.819c0.104,0.33 0.256,0.756 0.337,0.945c0.081,0.189 0.147,0.405 0.147,0.479c0,0.204 0.44,0.542 0.706,0.542c0.389,0 0.627,0.246 0.586,0.606l-0.036,0.322l-2.269,0.03c-2.43,0.031 -2.7,-0.015 -2.7,-0.468c0,-0.203 0.073,-0.284 0.3,-0.335c0.878,-0.198 1.103,-0.282 1.161,-0.432c0.063,-0.167 -0.101,-1.123 -0.262,-1.525c-0.049,-0.12 -0.172,-0.489 -0.275,-0.819c-0.308,-0.994 -0.176,-0.925 -1.828,-0.959c-1.461,-0.03 -1.483,-0.026 -1.552,0.219c-0.038,0.136 -0.11,0.347 -0.16,0.467c-0.404,0.972 -0.65,2.371 -0.466,2.648c0.05,0.074 0.331,0.18 0.625,0.235c0.735,0.138 1.075,0.63 0.608,0.881c-0.225,0.12 -3.382,0.157 -3.803,0.044c-0.466,-0.125 -0.333,-0.669 0.226,-0.916c0.638,-0.283 1.167,-0.979 1.167,-1.537c0,-0.108 0.049,-0.226 0.109,-0.263c0.06,-0.037 0.109,-0.143 0.109,-0.236c0,-0.092 0.067,-0.323 0.147,-0.512c0.082,-0.189 0.236,-0.614 0.344,-0.945c0.109,-0.33 0.232,-0.65 0.275,-0.71c0.043,-0.06 0.106,-0.232 0.139,-0.382c0.033,-0.15 0.214,-0.691 0.402,-1.201c0.188,-0.511 0.434,-1.199 0.548,-1.529c0.372,-1.084 0.472,-1.36 0.632,-1.734c0.101,-0.236 0.133,-0.524 0.089,-0.798c-0.038,-0.237 -0.04,-0.476 -0.005,-0.532c0.098,-0.159 1.752,-0.129 1.871,0.033m10.441,0.069c0.067,0.067 0.427,0.123 0.799,0.123c0.784,0 0.735,-0.078 0.91,1.464c0.118,1.03 0.043,1.376 -0.296,1.373c-0.303,-0.002 -0.419,-0.129 -0.681,-0.739c-0.399,-0.932 -1.065,-1.443 -1.881,-1.443c-1.602,0 -2.194,1.537 -0.986,2.567c0.738,0.629 1.551,1.255 1.633,1.257c0.105,0.002 0.644,0.461 1.373,1.168c2.606,2.527 0.431,6.394 -3.21,5.707c-0.418,-0.079 -0.785,-0.184 -0.815,-0.234c-0.079,-0.127 -0.563,-0.113 -0.644,0.019c-0.136,0.219 -0.594,0.121 -0.643,-0.137c-0.026,-0.135 -0.101,-0.507 -0.166,-0.827c-0.406,-1.977 0.209,-2.835 0.919,-1.283c0.711,1.554 2.113,2.058 3.303,1.185c1.348,-0.988 0.849,-2.261 -1.557,-3.971c-2.219,-1.577 -2.922,-2.864 -2.39,-4.377c0.209,-0.595 1.199,-1.729 1.509,-1.729c0.081,0 0.287,-0.077 0.459,-0.171c0.364,-0.199 2.154,-0.162 2.364,0.048m30.695,0.15c0.087,0.195 0.243,0.625 0.348,0.955c0.104,0.331 0.228,0.699 0.275,0.819c0.046,0.121 0.168,0.489 0.271,0.82c0.102,0.33 0.223,0.676 0.268,0.768c0.045,0.092 0.119,0.336 0.165,0.542c0.045,0.206 0.119,0.451 0.164,0.543c0.045,0.092 0.166,0.437 0.269,0.768c0.102,0.33 0.224,0.698 0.27,0.819c0.169,0.443 0.354,0.989 0.407,1.201c0.03,0.12 0.096,0.317 0.146,0.437c0.05,0.12 0.115,0.316 0.145,0.437c0.267,1.073 0.699,1.901 1.028,1.968c0.788,0.161 1.168,0.666 0.693,0.92c-0.407,0.218 -4.711,0.102 -4.857,-0.131c-0.161,-0.255 0.032,-0.562 0.381,-0.607c0.812,-0.103 0.972,-0.227 0.972,-0.753c0,-0.461 -0.366,-1.796 -0.719,-2.626l-0.152,-0.355l-1.451,0l-1.451,0l-0.281,0.792c-0.787,2.221 -0.741,2.685 0.288,2.871c0.725,0.131 0.967,0.559 0.468,0.826c-0.406,0.217 -5.17,0.064 -5.657,-0.183c-1.185,-0.599 -1.643,-1.147 -2.704,-3.236c-0.581,-1.143 -0.644,-1.202 -1.247,-1.158l-0.472,0.033l-0.035,1.092c-0.074,2.362 0.003,2.554 1.072,2.667c0.624,0.066 0.935,0.529 0.528,0.787c-0.281,0.178 -5.071,0.116 -5.223,-0.067c-0.257,-0.31 -0.044,-0.711 0.378,-0.711c1.109,0 1.096,0.061 1.096,-4.991c0,-4.69 0.054,-4.41 -0.872,-4.487c-0.611,-0.051 -0.878,-0.321 -0.661,-0.672c0.144,-0.233 6.293,-0.15 6.859,0.092c1.232,0.529 1.663,1.24 1.663,2.749c0,1.313 -0.703,2.722 -1.358,2.722c-0.202,0 -0.344,0.403 -0.188,0.532c0.078,0.065 0.267,0.378 0.418,0.694c0.152,0.317 0.406,0.847 0.566,1.179c0.159,0.331 0.289,0.637 0.289,0.68c0,0.619 1.275,1.697 1.842,1.558c0.626,-0.154 1.434,-1.286 1.434,-2.01c0,-0.103 0.039,-0.233 0.087,-0.29c0.048,-0.057 0.176,-0.374 0.284,-0.705c0.108,-0.33 0.266,-0.755 0.35,-0.944c0.084,-0.19 0.153,-0.42 0.153,-0.513c0,-0.092 0.049,-0.198 0.109,-0.235c0.06,-0.037 0.109,-0.185 0.109,-0.328c0,-0.143 0.049,-0.29 0.109,-0.328c0.06,-0.037 0.11,-0.15 0.11,-0.252c0.001,-0.101 0.074,-0.325 0.164,-0.497c0.09,-0.172 0.163,-0.379 0.163,-0.461c0,-0.081 0.081,-0.333 0.179,-0.56c0.734,-1.695 1.065,-2.982 0.809,-3.141c-0.35,-0.216 0.058,-0.385 0.93,-0.385l0.911,0l0.158,0.355m5.422,-0.191c0.116,0.14 0.679,0.164 3.824,0.164c3.177,0 3.697,-0.023 3.751,-0.164c0.082,-0.213 0.55,-0.211 0.727,0.002c0.277,0.334 0.209,2.94 -0.077,2.98c-0.278,0.04 -0.52,-0.284 -0.621,-0.835c-0.159,-0.864 -0.386,-1.001 -1.666,-1.001l-1.146,0l0.034,4.469c0.018,2.458 0.063,4.498 0.099,4.533c0.036,0.036 0.404,0.126 0.819,0.201c0.776,0.14 1.123,0.578 0.681,0.858c-0.254,0.161 -5.043,0.118 -5.269,-0.048c-0.452,-0.331 -0.128,-0.658 0.834,-0.843c0.86,-0.165 0.848,-0.095 0.849,-5.047l0,-4.123l-1.174,0.004c-1.35,0.004 -1.364,0.013 -1.698,1.104c-0.19,0.618 -0.431,0.826 -0.738,0.636c-0.164,-0.101 -0.154,-2.357 0.011,-2.793c0.115,-0.302 0.545,-0.357 0.76,-0.097m-63.541,0.464c0.067,0.165 0.184,0.448 0.26,0.628c0.076,0.18 0.211,0.549 0.302,0.819c0.09,0.27 0.224,0.639 0.297,0.819c0.074,0.18 0.171,0.426 0.216,0.546c0.083,0.219 0.371,0.965 0.569,1.474c0.058,0.15 0.175,0.413 0.26,0.582c0.084,0.17 0.153,0.394 0.153,0.497c0,0.104 0.043,0.235 0.094,0.292c0.052,0.057 0.185,0.374 0.296,0.704c0.272,0.812 0.593,1.19 0.593,0.7c0,-0.096 0.068,-0.305 0.151,-0.464c0.153,-0.295 0.221,-0.455 0.561,-1.328c0.105,-0.27 0.251,-0.639 0.324,-0.819c0.073,-0.18 0.194,-0.5 0.269,-0.71c0.076,-0.21 0.18,-0.48 0.232,-0.6c0.052,-0.121 0.245,-0.612 0.429,-1.092c0.402,-1.05 0.448,-1.164 0.748,-1.832l0.235,-0.522l1.665,0.03c1.646,0.03 1.666,0.033 1.701,0.282c0.053,0.37 -0.171,0.567 -0.641,0.567c-0.637,0 -0.796,0.228 -0.72,1.03c0.035,0.365 0.112,1.646 0.171,2.847c0.114,2.316 0.308,4.795 0.398,5.094c0.061,0.202 0.487,0.397 0.975,0.444c0.271,0.026 0.334,0.086 0.364,0.348c0.054,0.473 -0.072,0.499 -2.439,0.499c-2.366,0 -2.492,-0.026 -2.438,-0.499c0.033,-0.292 0.087,-0.326 0.732,-0.465l0.695,-0.149l-0.069,-2.254c-0.094,-3.041 -0.214,-5.004 -0.313,-5.102c-0.045,-0.045 -0.081,-0.002 -0.081,0.097c0,0.098 -0.081,0.364 -0.179,0.591c-0.277,0.639 -0.337,0.788 -0.695,1.724c-0.184,0.48 -0.377,0.972 -0.429,1.092c-0.052,0.12 -0.156,0.39 -0.231,0.6c-0.076,0.211 -0.197,0.53 -0.27,0.71c-0.073,0.18 -0.218,0.549 -0.324,0.819c-0.342,0.877 -0.405,1.033 -0.55,1.365c-0.079,0.181 -0.226,0.557 -0.327,0.837c-0.192,0.531 -0.473,0.713 -0.815,0.53c-0.195,-0.104 -0.36,-0.454 -0.828,-1.749c-0.162,-0.45 -0.355,-0.966 -0.429,-1.146c-0.073,-0.181 -0.195,-0.5 -0.271,-0.71c-0.076,-0.211 -0.2,-0.53 -0.277,-0.71c-0.076,-0.18 -0.203,-0.524 -0.282,-0.765c-0.079,-0.24 -0.183,-0.483 -0.231,-0.54c-0.048,-0.057 -0.087,-0.173 -0.087,-0.257c0,-0.084 -0.067,-0.307 -0.149,-0.497c-0.082,-0.189 -0.226,-0.54 -0.319,-0.781c-0.652,-1.673 -0.567,-2.132 -0.801,4.334l-0.066,1.822l0.476,0.123c0.263,0.067 0.563,0.148 0.668,0.179c0.261,0.075 0.247,0.549 -0.02,0.692c-0.224,0.119 -3.273,0.157 -3.69,0.045c-0.645,-0.173 -0.374,-0.753 0.403,-0.86c0.997,-0.137 1.063,-0.343 1.208,-3.768c0.052,-1.232 0.128,-2.96 0.17,-3.841l0.075,-1.602l-0.534,-0.071c-0.769,-0.104 -0.806,-0.126 -0.806,-0.471c0,-0.458 0,-0.458 1.822,-0.458l1.677,0l0.122,0.3m39.273,1.04c0.04,1.672 -0.461,2.036 -0.845,0.614c-0.248,-0.917 -0.349,-0.964 -2.107,-0.968l-1.501,-0.004l0,3.928l0.269,0.068c1.356,0.34 2.629,-0.102 2.701,-0.938c0.026,-0.304 0.084,-0.389 0.284,-0.418c0.517,-0.073 0.568,0.099 0.568,1.908l0,1.682l-0.27,0.123c-0.371,0.169 -0.603,-0.041 -0.607,-0.551c-0.007,-0.721 -0.126,-0.778 -1.62,-0.778l-1.325,0l0,4.027l0.511,0.077c0.281,0.042 1.03,0.048 1.665,0.013l1.154,-0.064l0.357,-0.409c0.212,-0.242 0.385,-0.582 0.425,-0.832c0.08,-0.504 0.305,-0.761 0.624,-0.716c0.411,0.059 0.347,2.683 -0.072,2.949c-0.181,0.115 -7.849,0.108 -8.031,-0.008c-0.26,-0.164 -0.113,-0.719 0.2,-0.752c1.239,-0.13 1.205,0.008 1.193,-4.82c-0.011,-4.512 -0.01,-4.506 -0.9,-4.595c-0.489,-0.05 -0.571,-0.092 -0.603,-0.311c-0.083,-0.59 -0.226,-0.571 3.992,-0.539l3.907,0.028l0.031,1.286m39.648,-1.028c0.05,0.356 -0.117,0.488 -0.776,0.616c-0.875,0.169 -0.852,0.033 -0.818,4.704c0.033,4.573 -0.019,4.317 0.915,4.527c0.838,0.187 1.116,0.649 0.526,0.873c-0.301,0.115 -4.418,0.147 -4.825,0.038c-0.31,-0.083 -0.352,-0.65 -0.055,-0.736c0.106,-0.031 0.396,-0.109 0.646,-0.173c0.704,-0.182 0.721,-0.282 0.775,-4.497c0.058,-4.457 0.026,-4.616 -0.958,-4.747c-0.441,-0.058 -0.588,-0.129 -0.677,-0.325c-0.267,-0.586 -0.207,-0.599 2.614,-0.567l2.597,0.029l0.036,0.258m-33.217,0.634c-0.04,0.04 -0.073,1.047 -0.073,2.239l0,2.166l0.939,0c1.411,0 1.753,-0.28 2.002,-1.638c0.215,-1.174 -0.177,-2.316 -0.916,-2.667c-0.366,-0.173 -1.805,-0.247 -1.952,-0.1m10.928,1.304c-0.033,0.174 -0.216,0.734 -0.408,1.244c-0.191,0.511 -0.374,1.064 -0.405,1.23c-0.031,0.166 -0.1,0.329 -0.153,0.362c-0.478,0.295 -0.072,0.483 1.043,0.483c1.28,0 1.364,-0.048 1.125,-0.637c-0.227,-0.558 -0.736,-2.167 -0.739,-2.336c-0.001,-0.076 -0.092,-0.257 -0.203,-0.401l-0.202,-0.262l-0.058,0.317m-41.005,-0.039c-0.059,0.075 -0.133,0.259 -0.164,0.41c-0.031,0.15 -0.234,0.761 -0.451,1.357c-0.598,1.638 -0.618,1.591 0.696,1.591l1.092,0l0,-0.285c0,-0.25 -0.184,-0.926 -0.442,-1.626c-0.309,-0.838 -0.431,-1.233 -0.431,-1.396c0,-0.22 -0.147,-0.245 -0.3,-0.051" style="fill:#0c2e59;"/><path id="path2" d="M96.081,27.902c-0.103,0.394 -0.28,1.203 -0.457,2.102c-1.213,6.128 -2.38,9.128 -4.595,11.812c-0.215,0.261 -0.493,0.597 -0.617,0.747c-0.385,0.465 -1.321,1.49 -3.059,3.352c-1.086,1.163 -0.486,1.261 1.677,0.272c0.384,-0.175 0.944,-0.429 1.244,-0.564c0.621,-0.279 2.302,-1.061 3.274,-1.523c0.359,-0.17 0.712,-0.287 0.784,-0.259c0.497,0.19 0.227,9.838 -0.39,13.902c-0.379,2.497 -0.47,3.038 -0.562,3.338c-0.056,0.185 -0.102,0.459 -0.102,0.609c0,0.15 -0.068,0.491 -0.151,0.757c-0.082,0.265 -0.21,0.753 -0.283,1.084c-0.204,0.922 -0.872,3.141 -1.185,3.935c-0.058,0.148 -0.239,0.613 -0.402,1.034c-0.164,0.42 -0.414,1.023 -0.558,1.34c-0.143,0.317 -0.261,0.596 -0.261,0.62c0,0.068 -0.748,1.69 -1.06,2.299c-0.422,0.824 -1.176,2.245 -1.419,2.675c-0.118,0.211 -0.377,0.677 -0.575,1.038c-0.197,0.36 -0.475,0.811 -0.618,1.003c-0.143,0.191 -0.259,0.383 -0.259,0.426c0,0.043 -0.123,0.24 -0.273,0.437c-0.15,0.197 -0.273,0.381 -0.273,0.409c0,0.028 -0.172,0.306 -0.383,0.619c-0.21,0.312 -0.382,0.612 -0.382,0.666c0,0.056 1.339,0.098 3.104,0.098l3.103,0l0.217,-0.355c0.119,-0.195 0.311,-0.527 0.428,-0.737c0.116,-0.21 0.376,-0.677 0.577,-1.037c0.634,-1.134 1.449,-2.881 1.962,-4.205c0.197,-0.51 0.397,-1.026 0.444,-1.147c0.047,-0.12 0.11,-0.316 0.141,-0.436c0.031,-0.12 0.139,-0.44 0.239,-0.71c0.225,-0.608 0.476,-1.46 0.578,-1.965c0.116,-0.576 0.414,-0.566 0.566,0.02c0.137,0.525 0.192,0.703 0.651,2.109c0.413,1.265 0.921,2.609 1.363,3.603c0.518,1.169 1.853,3.68 2.394,4.504l0.232,0.355l3.085,0c1.755,0.001 3.085,-0.041 3.085,-0.097c0,-0.054 -0.172,-0.354 -0.382,-0.666c-0.21,-0.313 -0.382,-0.595 -0.382,-0.629c0,-0.033 -0.123,-0.221 -0.273,-0.419c-0.15,-0.196 -0.273,-0.394 -0.273,-0.438c0,-0.044 -0.069,-0.158 -0.153,-0.253c-0.084,-0.095 -0.262,-0.369 -0.397,-0.609c-0.134,-0.24 -0.34,-0.609 -0.457,-0.819c-0.117,-0.21 -0.407,-0.726 -0.643,-1.147c-0.402,-0.715 -2.156,-4.254 -2.409,-4.86c-0.063,-0.15 -0.177,-0.42 -0.253,-0.6c-0.475,-1.121 -1.116,-2.892 -1.423,-3.932c-0.106,-0.36 -0.23,-0.778 -0.275,-0.928c-0.279,-0.934 -0.657,-2.528 -0.868,-3.658c-0.067,-0.361 -0.169,-0.877 -0.227,-1.147c-0.27,-1.262 -0.466,-3.084 -0.868,-8.081c-0.121,-1.512 -0.134,-6.656 -0.018,-7.425c0.111,-0.741 0.08,-0.747 2.803,0.542c0.933,0.442 1.74,0.81 2.621,1.195c0.301,0.132 0.645,0.285 0.765,0.342c0.415,0.194 1.42,0.408 1.513,0.321c0.142,-0.133 -0.004,-0.327 -1.251,-1.66c-3.36,-3.591 -4.41,-5.043 -5.591,-7.731c-0.092,-0.21 -0.299,-0.8 -0.459,-1.31c-0.16,-0.511 -0.336,-1.014 -0.391,-1.118c-0.055,-0.105 -0.101,-0.272 -0.101,-0.373c0,-0.1 -0.078,-0.458 -0.173,-0.793c-0.201,-0.704 -0.282,-1.045 -0.535,-2.248c-0.101,-0.481 -0.226,-1.071 -0.278,-1.311c-0.052,-0.24 -0.124,-0.633 -0.161,-0.874c-0.037,-0.24 -0.111,-0.584 -0.166,-0.764c-0.054,-0.18 -0.126,-0.463 -0.159,-0.628c-0.067,-0.334 -0.341,-0.406 -0.42,-0.109m-34.037,17.035c0,0.204 0.273,0.639 1.866,2.977c0.748,1.097 1.794,2.747 2.147,3.385c0.116,0.211 0.376,0.678 0.578,1.038c0.435,0.778 1.19,2.294 1.522,3.058c0.13,0.3 0.308,0.703 0.396,0.895c0.203,0.449 0.771,2.005 0.989,2.709c0.092,0.3 0.218,0.668 0.278,0.819c0.132,0.327 0.614,2.063 0.743,2.675c0.051,0.24 0.195,0.904 0.32,1.475c0.439,2.002 0.549,2.598 0.923,5.023c0.232,1.502 0.37,2.584 0.552,4.314c0.312,2.974 0.386,3.838 0.458,5.324l0.073,1.501l5.755,0l0.001,-0.3c0,-0.165 -0.076,-0.841 -0.17,-1.502c-0.095,-0.66 -0.219,-1.545 -0.276,-1.965c-0.058,-0.421 -0.178,-1.165 -0.267,-1.653c-0.089,-0.488 -0.162,-1.023 -0.162,-1.188c0,-0.166 -0.046,-0.479 -0.102,-0.696c-0.056,-0.217 -0.183,-0.837 -0.282,-1.378c-0.099,-0.54 -0.244,-1.278 -0.322,-1.638c-0.078,-0.36 -0.203,-0.95 -0.278,-1.31c-0.214,-1.026 -0.51,-2.16 -0.882,-3.386c-0.127,-0.42 -0.272,-0.912 -0.32,-1.092c-0.097,-0.359 -0.594,-1.727 -0.754,-2.075c-0.055,-0.12 -0.186,-0.464 -0.291,-0.764c-0.105,-0.301 -0.231,-0.593 -0.282,-0.65c-0.05,-0.057 -0.091,-0.166 -0.091,-0.243c0,-0.076 -0.126,-0.423 -0.281,-0.77c-0.155,-0.347 -0.345,-0.778 -0.424,-0.958c-0.294,-0.676 -2.263,-4.618 -2.687,-5.38c-0.616,-1.105 -0.475,-1.202 1.174,-0.802c1.47,0.356 2.658,0.837 4.446,1.799c0.944,0.508 1.026,0.405 0.373,-0.467c-2.265,-3.022 -6.748,-6.63 -9.645,-7.76c-0.12,-0.047 -0.365,-0.146 -0.546,-0.22c-1.898,-0.781 -4.532,-1.243 -4.532,-0.795m66.78,-0.057c-0.851,0.205 -2.297,0.652 -2.602,0.805c-0.17,0.085 -0.357,0.154 -0.416,0.154c-0.466,0 -3.284,1.634 -4.681,2.714c-2.478,1.916 -6.248,5.914 -5.577,5.914c0.055,0 0.731,-0.314 1.501,-0.698c0.77,-0.383 1.647,-0.781 1.947,-0.885c0.3,-0.103 0.644,-0.227 0.764,-0.274c0.383,-0.15 1.767,-0.437 2.112,-0.437c0.448,0 0.5,0.131 0.237,0.6c-0.123,0.218 -0.407,0.725 -0.631,1.127c-0.86,1.535 -2.374,4.737 -3.186,6.737c-0.531,1.306 -1.313,3.564 -1.626,4.696c-0.662,2.388 -1.107,4.315 -1.439,6.224c-0.052,0.301 -0.169,0.94 -0.26,1.42c-0.17,0.9 -0.261,1.498 -0.558,3.659c-0.095,0.69 -0.22,1.556 -0.278,1.923c-0.057,0.367 -0.104,0.871 -0.104,1.12l0,0.451l2.828,0c3.262,0 2.96,0.132 2.96,-1.292c0,-0.521 0.047,-1.34 0.106,-1.82c0.058,-0.481 0.161,-1.513 0.229,-2.294c0.194,-2.241 0.451,-4.461 0.645,-5.569c0.064,-0.361 0.219,-1.27 0.345,-2.02c0.373,-2.217 0.391,-2.315 0.582,-3.113c0.101,-0.42 0.226,-0.961 0.278,-1.201c0.052,-0.24 0.175,-0.732 0.275,-1.092c0.099,-0.361 0.217,-0.803 0.262,-0.983c0.045,-0.18 0.14,-0.5 0.21,-0.71c0.07,-0.21 0.229,-0.702 0.354,-1.092c0.126,-0.39 0.316,-0.931 0.423,-1.201c0.108,-0.271 0.332,-0.836 0.498,-1.256c0.366,-0.924 1.884,-4.046 2.337,-4.805c0.179,-0.301 0.406,-0.704 0.505,-0.896c0.098,-0.193 0.248,-0.408 0.332,-0.478c0.085,-0.07 0.154,-0.178 0.154,-0.24c0,-0.062 0.123,-0.274 0.273,-0.471c0.15,-0.197 0.273,-0.382 0.273,-0.412c0,-0.03 0.348,-0.561 0.774,-1.181c1.374,-2.002 1.956,-2.924 1.956,-3.092c0,-0.193 -1.056,-0.212 -1.802,-0.032m-58.48,37.707l0,0.929l51.76,0l0.063,-0.251c0.034,-0.137 0.048,-0.543 0.029,-0.901l-0.033,-0.65l-25.91,-0.028l-25.909,-0.027l0,0.928m2.585,2.749c-0.04,0.04 -0.073,0.457 -0.073,0.928l0,0.855l46.85,0l0,-0.928l0,-0.928l-23.352,0c-12.844,0 -23.385,0.033 -23.425,0.073m-2.539,3.787c-0.031,0.081 -0.042,0.487 -0.024,0.901l0.033,0.754l51.764,0l0.032,-0.901l0.031,-0.901l-25.89,0c-21.626,0 -25.899,0.024 -25.946,0.147m2.684,5.425l0,1.969l0.28,0.106c0.859,0.327 2.961,0.021 3.758,-0.546c0.793,-0.565 1.517,-2.003 1.527,-3.033l0.005,-0.464l-2.785,0l-2.785,0l0,1.968m9.829,-1.884c0,0.047 0.282,0.147 0.628,0.224c2.035,0.452 3.39,1.088 4.603,2.161c0.457,0.405 1.54,1.829 1.54,2.027c0,0.051 0.094,0.301 0.208,0.556c0.401,0.889 0.715,2.122 0.834,3.276c0.096,0.937 -0.476,0.857 5.838,0.821l5.296,-0.03l0.067,-0.71c0.424,-4.483 2.749,-7.13 7.114,-8.101c0.345,-0.077 0.628,-0.177 0.628,-0.224c0,-0.046 -6.02,-0.084 -13.378,-0.084c-7.358,0 -13.378,0.038 -13.378,0.084m31.129,0.38c0.026,2.571 2.302,4.18 5.114,3.617l0.341,-0.068l0,-2.007l0,-2.006l-2.73,0l-2.73,0l0.005,0.464m-25.511,10.488c-0.03,0.078 -0.041,0.925 -0.024,1.884l0.03,1.743l15.507,0l0.03,-1.884l0.03,-1.884l-7.759,0c-6.236,0 -7.771,0.028 -7.814,0.141m1.99,5.283c-0.04,0.04 -0.073,0.999 -0.073,2.131l0,2.057l5.87,-0.028l5.87,-0.028l0.03,-2.012c0.023,-1.537 -0.003,-2.034 -0.11,-2.101c-0.165,-0.105 -11.482,-0.124 -11.587,-0.019" style="fill:#e21a22;"/></svg>