<svg width="100" height="100" viewBox="0 0 100 100" fill="none" xmlns="http://www.w3.org/2000/svg">
<path d="M47.6805 5.14568C50.4744 4.70543 53.5216 5.24639 55.7948 6.99588C57.8205 8.54395 59.0175 11.056 59.0779 13.5939C59.0779 28.83 59.0722 44.069 59.0808 59.308C59.124 61.6647 58.2492 64.0932 56.471 65.6874C53.1993 68.585 48.0689 68.9274 44.2765 66.8758C41.7386 65.532 40.0985 62.7552 40.015 59.9037C40.0121 44.4632 40.0179 29.0199 40.0121 13.5795C40.0352 11.338 40.9933 9.11657 42.6421 7.58864C44.0031 6.25925 45.8159 5.46508 47.6805 5.14568Z" fill="#FFE200"/>
<path d="M42.147 79.8704C44.1641 77.9195 47.0617 77.1253 49.8154 77.1742C52.3705 77.2548 55.0523 77.9828 56.9025 79.8359C58.2951 81.1279 59.0951 83.0184 59.0778 84.9175C59.0807 86.9404 59.2677 89.1186 58.1628 90.9199C56.6003 93.5787 53.4553 94.7527 50.5174 95.0001H48.5004C45.4503 94.7498 42.1671 93.3974 40.7284 90.5257C39.7875 88.8136 40.0378 86.8138 40.0119 84.9405C39.9515 83.0414 40.7687 81.1653 42.147 79.8704Z" fill="#FFE200"/>
</svg>
