<svg width="143" height="62" viewBox="0 0 143 62" fill="none" xmlns="http://www.w3.org/2000/svg">
<path d="M33.7165 15.1021C34.1741 14.9211 34.7421 14.9787 35.1186 15.3098C35.6128 15.7228 35.8181 16.4718 35.5471 17.0657C35.4067 17.3757 35.1332 17.6045 34.8265 17.7409C33.4682 18.3811 32.1074 19.0164 30.7475 19.6542C30.2955 19.8757 29.7105 19.7978 29.3437 19.4505C28.8706 19.0464 28.6743 18.3324 28.9153 17.753C29.0394 17.4463 29.2974 17.2086 29.5904 17.0641C30.9649 16.4077 32.3427 15.7593 33.7165 15.1021Z" fill="#404548"/>
<path d="M93.6527 15.0761C94.1777 14.8936 94.8073 15.0429 95.1571 15.4867C95.6926 16.075 95.6618 17.138 94.9631 17.5867C94.4178 17.9023 93.8271 18.1295 93.264 18.4103C92.3812 18.8241 91.4967 19.2347 90.6155 19.6526C90.2025 19.853 89.6783 19.8149 89.3099 19.5365C88.7598 19.1446 88.4985 18.3535 88.7898 17.7287C88.9269 17.4065 89.2101 17.1664 89.5249 17.026C90.9036 16.3809 92.2708 15.7123 93.6527 15.0761Z" fill="#404548"/>
<path d="M0 23.3682C0.1136 22.392 0.961543 21.5441 1.95149 21.4848C2.52679 21.4735 3.13617 21.4248 3.66847 21.6909C4.26081 21.9822 4.60973 22.5811 4.87101 23.1604C6.37864 26.5644 7.8879 29.9675 9.39147 33.3739C10.9575 29.8734 12.5001 26.3631 14.0572 22.8586C14.2105 22.5454 14.402 22.2451 14.6601 22.0074C15.0528 21.6309 15.6086 21.4727 16.1434 21.4783C16.541 21.4816 16.9516 21.4426 17.3329 21.5806C17.9723 21.7948 18.4941 22.3295 18.7042 22.9689C18.8389 23.3714 18.8008 23.7998 18.8049 24.2177C18.8049 31.0613 18.8049 37.9049 18.8049 44.7485C18.8073 45.2824 18.658 45.8407 18.2799 46.2326C17.9318 46.6075 17.4303 46.7957 16.9321 46.8566H16.4355C15.8805 46.7836 15.319 46.5426 14.9814 46.0792C14.6925 45.6995 14.5846 45.2151 14.5854 44.7452C14.5838 40.3806 14.5887 36.0159 14.583 31.6512C13.559 33.989 12.5528 36.334 11.5312 38.6733C11.2594 39.3046 10.7198 39.841 10.0366 39.9984C9.50345 40.1087 8.92815 40.0958 8.42019 39.884C7.91549 39.6673 7.52843 39.2348 7.29637 38.7439C6.26017 36.3875 5.26049 34.0141 4.20969 31.6642C4.18373 36.1068 4.2105 40.5494 4.1959 44.9919C4.16993 45.4479 4.00278 45.9056 3.67902 46.2342C3.32929 46.6067 2.82783 46.8063 2.32555 46.8566H1.80299C1.3137 46.7779 0.824411 46.5823 0.490914 46.2026C0.191497 45.8877 0.0478743 45.4585 0 45.0333V23.3682Z" fill="#404548"/>
<path d="M30.3149 21.5206C30.9195 21.45 31.571 21.4265 32.1325 21.6983C32.8223 22.0561 33.1598 22.8181 33.3773 23.5256C35.5373 30.4025 37.6989 37.2793 39.859 44.1562C40.0391 44.7461 40.0164 45.4326 39.6569 45.9527C39.2967 46.4939 38.6621 46.795 38.0268 46.8566H37.5302C36.8023 46.7901 36.1361 46.2911 35.9244 45.5827C35.4578 44.0686 34.9928 42.5544 34.536 41.0379C32.1601 41.0281 29.7843 41.0428 27.4092 41.0306C27.01 42.2964 26.631 43.5687 26.2399 44.837C26.085 45.3498 25.9519 45.9024 25.5624 46.2968C25.2646 46.6108 24.8483 46.7723 24.4313 46.8566H23.7927C23.3212 46.7739 22.8465 46.6051 22.5009 46.2619C22.1081 45.8975 21.9101 45.3579 21.9239 44.8273C21.8955 44.4175 22.0854 44.045 22.1933 43.6604C24.2925 37.0148 26.3933 30.37 28.4933 23.7244C28.6653 23.1629 28.8422 22.5795 29.2317 22.1251C29.5011 21.7965 29.8971 21.5863 30.3149 21.5206ZM30.9625 29.3071C30.2159 31.8314 29.4556 34.3517 28.7083 36.8753C30.2151 36.8769 31.722 36.8753 33.2288 36.8761C32.4717 34.3533 31.7293 31.8265 30.9625 29.3071Z" fill="#404548"/>
<path d="M48.0203 21.5912C49.2772 21.39 50.5803 21.4419 51.8145 21.7543C53.2004 22.1146 54.5231 22.8392 55.4497 23.946C56.2685 24.9132 56.7261 26.1904 56.6539 27.4603C56.6287 27.9439 56.4186 28.421 56.0567 28.7464C55.5082 29.2657 54.6821 29.4158 53.9616 29.2438C53.3619 29.1066 52.8118 28.6847 52.6081 28.0924C52.4872 27.7929 52.5115 27.4643 52.4645 27.1511C52.4012 26.7795 52.1415 26.4752 51.8478 26.2561C51.3066 25.8634 50.6307 25.7108 49.9742 25.6654C49.3543 25.6483 48.7173 25.624 48.1209 25.8228C47.5707 25.994 47.0482 26.3275 46.7545 26.8355C46.4283 27.3613 46.4502 28.008 46.4916 28.6019C46.6068 29.2389 47.1391 29.6828 47.6284 30.0536C48.6094 30.7579 49.6975 31.2918 50.741 31.8947C52.0961 32.6615 53.4333 33.4924 54.5645 34.5716C55.4092 35.3863 56.1281 36.3551 56.5419 37.4603C57.0125 38.6896 57.0913 40.0488 56.873 41.3397C56.6076 42.8685 55.7816 44.2982 54.558 45.2573C53.3011 46.2667 51.6969 46.7609 50.1024 46.8566H48.8114C47.0393 46.7503 45.2663 46.076 44.0045 44.8021C42.8604 43.6783 42.1999 42.1195 42.0538 40.5332C42.0092 39.9782 41.9484 39.3988 42.1382 38.8633C42.3184 38.3334 42.7533 37.9082 43.271 37.707C43.9696 37.4384 44.8038 37.5187 45.418 37.9536C45.7702 38.1995 46.0193 38.5784 46.1361 38.9898C46.279 39.4889 46.184 40.0179 46.3114 40.5202C46.468 41.3097 46.9808 42.0311 47.7119 42.384C48.4114 42.7386 49.2171 42.7459 49.9831 42.7078C50.7369 42.6526 51.5208 42.4206 52.0636 41.8696C52.686 41.2594 52.8759 40.3141 52.7306 39.4767C52.5675 38.6028 51.9598 37.8944 51.2952 37.341C50.2574 36.4963 49.0638 35.8764 47.9051 35.2175C46.5232 34.432 45.1186 33.6279 43.9972 32.483C43.1825 31.6708 42.5715 30.6346 42.363 29.4953C42.2307 28.8543 42.2875 28.197 42.2737 27.5471C42.2713 26.179 42.8507 24.8466 43.7749 23.8494C44.8898 22.6542 46.421 21.8849 48.0203 21.5912Z" fill="#404548"/>
<path d="M61.9347 21.6406C62.3851 21.4297 62.8922 21.4792 63.375 21.4808C63.8789 21.4865 64.3893 21.6617 64.7545 22.0163C65.2494 22.4934 65.4872 23.1548 65.7655 23.7666C67.1839 26.9701 68.6023 30.1736 70.0223 33.3763C71.577 29.8742 73.126 26.3696 74.6782 22.8667C74.9939 22.164 75.6292 21.5571 76.4277 21.4962C76.9924 21.4759 77.5913 21.4078 78.1236 21.6447C78.8709 21.966 79.4284 22.7377 79.4202 23.5613C79.417 30.6783 79.4202 37.7954 79.4186 44.9124C79.4089 45.4147 79.2255 45.9259 78.8571 46.2756C78.5098 46.6245 78.0278 46.8079 77.5442 46.8566H77.0217C76.534 46.7754 76.0431 46.5839 75.712 46.2034C75.3696 45.835 75.2138 45.3246 75.2187 44.8288C75.2211 40.852 75.2187 36.8752 75.2195 32.8992C75.2162 32.4781 75.2292 32.0569 75.2073 31.6366C74.2109 33.9516 73.2023 36.2601 72.2034 38.5727C71.947 39.1894 71.4763 39.759 70.8158 39.9521C70.0977 40.1607 69.2546 40.1087 68.6404 39.6487C68.2574 39.3695 68.0018 38.9524 67.8192 38.5224C66.8342 36.2277 65.8239 33.9435 64.847 31.6455C64.8121 36.0694 64.8494 40.4942 64.8283 44.9173C64.8137 45.4966 64.5589 46.0825 64.0858 46.4314C63.7889 46.6683 63.4172 46.7746 63.0529 46.8566H62.4167C61.8333 46.7616 61.2467 46.4833 60.9294 45.964C60.6145 45.4869 60.5975 44.8945 60.6129 44.342C60.6145 37.4448 60.6137 30.5477 60.6129 23.6505C60.5894 22.7921 61.1468 21.9693 61.9347 21.6406Z" fill="#404548"/>
<path d="M87.1994 22.4024C88.3394 21.763 89.6539 21.4498 90.9595 21.4774C92.188 21.4547 93.4287 21.7127 94.5249 22.2758C96.1616 23.0929 97.4501 24.5827 98.0076 26.3273C98.2681 27.1111 98.3638 27.9404 98.3654 28.7648C98.3654 32.2515 98.3646 35.7391 98.3663 39.2258C98.3719 40.0437 98.3362 40.8722 98.1163 41.6641C97.7366 43.1515 96.8343 44.4952 95.6041 45.4129C94.4446 46.2901 93.0116 46.7656 91.5665 46.8564H90.3566C89.7237 46.8037 89.0949 46.6998 88.4903 46.5035C86.2808 45.8105 84.4437 43.988 83.8303 41.7436C83.4798 40.6125 83.5658 39.4173 83.5568 38.2504C83.5568 35.464 83.5568 32.6783 83.5568 29.8919C83.5633 28.9401 83.5057 27.9745 83.7256 27.0397C84.1378 25.0858 85.4532 23.3623 87.1994 22.4024ZM90.1043 25.7252C89.3026 25.8883 88.5658 26.3881 88.1576 27.1022C87.8939 27.5534 87.7609 28.0775 87.7747 28.5993C87.7779 32.3586 87.7755 36.118 87.7763 39.8765C87.7893 40.9184 88.423 41.9213 89.3586 42.3806C90.0248 42.7352 90.8021 42.762 91.5373 42.6946C92.4566 42.5875 93.3289 42.0495 93.7809 41.2332C94.0584 40.7488 94.1679 40.1824 94.1468 39.6274C94.1444 35.9241 94.1468 32.2207 94.146 28.5173C94.142 27.5769 93.6454 26.6478 92.8445 26.148C92.0452 25.6132 91.0244 25.5727 90.1043 25.7252Z" fill="#404548"/>
<path d="M101.436 22.5964C102.044 21.376 103.935 21.0717 104.866 22.0852C105.28 22.5022 105.378 23.1027 105.503 23.6529C106.59 28.2545 107.66 32.8609 108.753 37.4609C109.824 32.9259 110.886 28.3892 111.954 23.8541C112.106 23.2512 112.172 22.5761 112.621 22.103C113.411 21.238 114.908 21.2948 115.711 22.1152C116.194 22.5834 116.378 23.3112 116.231 23.962C114.523 31.0393 112.819 38.1182 111.112 45.1955C111.004 45.6409 110.757 46.0523 110.401 46.342C110.016 46.6642 109.515 46.807 109.024 46.8565H108.452C107.606 46.7964 106.761 46.2941 106.476 45.4665C106.283 44.8295 106.154 44.1747 105.99 43.5296C104.435 37.0698 102.875 30.6109 101.322 24.1503C101.188 23.6382 101.184 23.0751 101.436 22.5964Z" fill="#404548"/>
<path d="M129.03 22.2029C129.885 21.1699 131.746 21.2421 132.471 22.3887C132.864 22.9753 132.787 23.7081 132.79 24.3775C132.791 30.4161 132.789 36.4556 132.791 42.4942C135.049 42.4951 137.308 42.4951 139.567 42.4942C140.051 42.4926 140.561 42.5186 140.993 42.7645C141.581 43.085 141.933 43.7292 142 44.3824V44.7995C141.951 45.262 141.779 45.7254 141.447 46.0605C141.077 46.4686 140.519 46.6723 139.976 46.6747C136.863 46.6739 133.749 46.6739 130.636 46.6747C129.652 46.6715 128.765 45.8665 128.606 44.9066C128.553 44.6113 128.572 44.3102 128.57 44.0124C128.571 37.2248 128.571 30.4372 128.571 23.6496C128.572 23.1368 128.694 22.6037 129.03 22.2029Z" fill="#404548"/>
<path d="M121.36 21.518C122.148 21.3939 123.008 21.5464 123.649 22.0398C124.22 22.4763 124.557 23.1847 124.574 23.9004C124.574 28.1969 124.573 32.4942 124.575 36.7915C124.587 37.4561 124.341 38.1409 123.839 38.5905C122.917 39.4076 121.47 39.5041 120.401 38.9256C119.685 38.5467 119.222 37.7636 119.199 36.9595C119.198 32.6054 119.2 28.2504 119.198 23.8963C119.204 23.2642 119.475 22.6378 119.94 22.2069C120.323 21.832 120.835 21.6081 121.36 21.518Z" fill="#FFE200"/>
<path d="M119.8 42.59C120.369 42.0399 121.186 41.8159 121.962 41.8297C122.683 41.8524 123.439 42.0577 123.961 42.5803C124.354 42.9446 124.579 43.4777 124.574 44.0133C124.575 44.5837 124.628 45.198 124.316 45.7059C123.876 46.4557 122.989 46.7867 122.16 46.8565H121.592C120.732 46.7859 119.806 46.4045 119.4 45.5947C119.135 45.1119 119.205 44.548 119.198 44.0198C119.181 43.4842 119.411 42.9552 119.8 42.59Z" fill="#FFE200"/>
</svg>
