<?xml version="1.0" encoding="UTF-8" standalone="no"?><!DOCTYPE svg PUBLIC "-//W3C//DTD SVG 1.1//EN" "http://www.w3.org/Graphics/SVG/1.1/DTD/svg11.dtd"><svg width="100%" height="100%" viewBox="0 0 192 192" version="1.1" xmlns="http://www.w3.org/2000/svg" xmlns:xlink="http://www.w3.org/1999/xlink" xml:space="preserve" xmlns:serif="http://www.serif.com/" style="fill-rule:evenodd;clip-rule:evenodd;stroke-linejoin:round;stroke-miterlimit:1.41421;"><path id="path14" d="M82.426,70.953c-4.476,-6.06 -9.805,-9.459 -15.291,-12.191c-0.889,-0.443 -1.783,-0.868 -2.68,-1.286c2.599,1.023 5.11,2.192 9.124,4.481c4.403,2.512 8.361,7.869 10.861,11.572c0.31,0.46 0.625,0.92 0.942,1.378c-0.974,-1.264 -1.951,-2.594 -2.956,-3.954" style="fill:#43565c;fill-rule:nonzero;"/><path id="path220" d="M38.064,80.762c0.162,1.367 0.387,2.996 0.697,4.787c10.944,36.6 23.676,39.318 54.969,40.703c24.308,1.075 38.223,-4.957 46.418,-12.511c8.202,-7.561 10.723,-16.686 12.159,-21.914c1.031,-3.756 1.714,-7.383 2.015,-11.064l17.425,-0.001c-0.707,11.822 -4.424,23.264 -12.277,33.392c-9.711,11.96 -24.895,17.461 -38.033,19.962c-13.145,2.503 -24.302,2.015 -26.014,1.96c-1.709,-0.054 -7.96,0.035 -15.661,-0.633c-7.703,-0.668 -16.882,-2.093 -24.428,-5.186c-3.324,-1.362 -6.197,-2.761 -8.724,-4.232c-6.835,-4.117 -13.155,-10.106 -16.244,-14.502c-3.879,-5.519 -8.536,-15.186 -9.868,-30.759l17.566,-0.002l0,0Zm56.956,0c0.532,0.738 0.95,1.169 1.176,1.227c0.135,-0.024 0.29,-0.134 0.52,-0.41c0.179,-0.215 0.373,-0.494 0.579,-0.816l15.217,-0.001c-2.627,1.968 -4.902,4.22 -7.043,6.915c-3.498,4.405 -5.499,8.738 -6.138,10.848c-0.666,2.198 -1.932,4.049 -2.129,4.324c-0.233,0.326 -1.306,0.604 -1.665,-0.02c-0.369,-0.331 -0.746,-1.011 -1.09,-1.902c-0.451,-1.162 -1.012,-2.981 -2.146,-5.268c-1.129,-2.275 -2.828,-5.021 -5.558,-8.051c-2.357,-2.615 -4.809,-4.909 -7.314,-6.845l15.591,-0.001" style="fill:#657681;"/><path id="path222" d="M20.498,80.762c-0.239,-2.805 -0.371,-5.803 -0.371,-9.003l0,-0.1l0,-0.097l0,-0.097l0.001,-0.097c0.119,-14.768 6.9,-28.16 11.841,-33.922c0.68,-0.793 3.172,-3.652 5.325,-5.679c6.189,-5.825 22.925,-16.874 60.224,-15.864c21.214,0.049 34.134,2.837 42.875,6.63c4.372,1.897 7.693,4.043 10.479,6.215c2.775,2.164 5.018,4.356 7.247,6.355l0.059,0.054l0.026,0.076c0.014,0.043 10.559,12.729 12.95,30.686c0.662,4.968 0.886,9.938 0.593,14.842l-17.425,0.001c0.306,-3.758 0.214,-7.573 -0.315,-11.64c-0.371,-2.117 -0.76,-3.811 -1.04,-4.925c0.061,-0.042 -0.376,0.337 -0.376,0.337c0,0 -3.093,1.916 -18.077,6.431c-9.964,3.002 -16.7,5.824 -22.002,9.797l-15.217,0c0.043,-0.065 0.086,-0.133 0.129,-0.203c0.513,-0.824 1.061,-1.83 1.567,-2.654c1.119,-1.821 4.515,-6.659 9.343,-11.185c4.714,-4.418 16.027,-9.621 24.386,-12.727c1.532,-0.569 2.921,-1.125 4.167,-1.655c3.44,-1.586 6.845,-3.598 9.898,-5.612c-0.2,-0.78 -0.427,-1.281 -0.548,-1.534c0,0 -0.147,-0.38 -0.488,-1.021c-0.347,-0.654 -0.899,-1.584 -1.712,-2.69c-1.629,-2.216 -4.317,-5.148 -8.542,-7.991c-1.963,-1.356 -4.807,-2.859 -8.53,-4.509c-7.413,-3.043 -17.523,-5.297 -31.212,-5.297c-21.206,0 -33.608,5.348 -40.701,10.664c-3.548,2.659 -5.774,5.315 -7.111,7.3c-0.667,0.99 -1.114,1.815 -1.394,2.393c-0.274,0.565 -0.682,1.376 -0.682,1.376c-0.403,1.129 0.054,1.61 0.878,2.146c1.666,1.083 4.163,2.571 4.621,2.844c2.025,1.005 4.814,2.262 8.38,3.587c8.36,3.105 19.673,8.309 24.386,12.727c4.834,4.53 7.997,9.46 9.109,11.271c0.505,0.821 1.1,1.806 1.664,2.607c0.039,0.057 0.078,0.111 0.117,0.165l-15.591,-0.002c-3.314,-2.561 -6.721,-4.498 -10.121,-5.731c-6.021,-2.183 -12.194,-3.537 -14.904,-4.365c-1.291,-0.395 -2.846,-0.89 -4.122,-1.301c-0.886,-0.285 -1.639,-0.531 -2.073,-0.673l-0.323,-0.111c-2.929,-1.022 -5.931,-2.311 -8.761,-3.949c-0.111,-0.064 -0.18,-0.079 -0.217,-0.08c-0.032,-0.001 -0.056,0.006 -0.081,0.023c-0.031,0.02 -0.068,0.055 -0.113,0.115c-0.052,0.067 -0.097,0.141 -0.142,0.208c-0.163,0.245 -0.804,5.466 -0.912,11.637c0.013,0 0.097,1.641 0.404,4.228l-17.566,-0.001" style="fill:#657681;"/><path id="path230" d="M38.308,84.967c11.039,37.437 23.881,40.228 55.455,41.625c48.728,2.156 56.006,-24.182 58.88,-34.646c3.172,-11.548 1.396,-26.649 1.396,-26.649l4.949,16.878l-9.771,31.726l-13.705,10.153l-14.594,4.44l-23.349,2.665l-29.821,-2.665l-16.878,-8.502l-8.502,-12.182l-3.299,-11.549c0,0 -1.397,-8.248 -0.761,-11.294Z" style="fill:#ccc;fill-rule:nonzero;"/><path id="path642" d="M153.156,61.356c0,0 5.333,22.083 -3.177,39.727c-8.51,17.645 -16.607,28.424 -54.433,28.552c-37.826,0.127 -45.683,-15.617 -51.526,-26.523c-5.844,-10.907 -6.595,-26.523 -6.595,-26.523l-0.688,18.344l10.827,20.362l9.022,8.255l12.806,5.574l34.266,2.156l15.105,-2.156l16.111,-4.056l15.36,-12.822l6.084,-21.956l-0.623,-24.352c-0.945,-3.739 -1.791,-5.267 -2.539,-4.582Z" style="fill:#666;fill-rule:nonzero;"/><path id="path1070" d="M30.719,49.79l3.511,2.301c0,0 -0.55,25.548 -0.66,25.98c-0.11,0.433 0,14.247 0,14.247l4.492,17.531l-1.971,1.649l-9.534,-25.211l0.989,-20.821l1.971,-13.046l1.202,-2.63Z" style="fill:#808080;fill-rule:nonzero;"/><path id="path1222" d="M154.193,62.03c0,0 5.414,22.665 -2.775,40.18c-8.189,17.516 -14.091,26.356 -54.132,27.932c-32.479,0.814 -40.923,-7.641 -46.926,-13.795c-4.748,-4.868 -8.051,-13.012 -8.051,-13.012c0,0 -14.659,-27.122 -13.105,-18.566c2.035,11.211 5.285,27.275 17.91,37.358c7.734,6.177 23.331,9.983 23.331,9.983l24.43,1.934l21.858,-1.297l34.574,-13.329l14.785,-32.324c-0.689,-15.023 -2.137,-27.45 -4.344,-37.282l-4.823,4.163l-2.732,8.055Z" style="fill:url(#_Linear1);fill-rule:nonzero;"/><path id="path1650" d="M32.178,40.101c0,0 -0.638,6.815 0.887,10.817c-2.06,3.298 -4.772,13.178 -5.123,21.114c-0.352,7.937 1.131,28.649 11.361,40.47c-1.707,3.232 -2.725,5.222 -2.725,5.222c0,0 -16.104,-10.931 -16.104,-45.926c0,-16.878 9.092,-32.044 13.914,-36.046c-1.473,2.059 -2.21,4.349 -2.21,4.349Z" style="fill:url(#_Radial2);fill-rule:nonzero;"/><path id="path1960" d="M21.631,78.517c0,0 0.463,16.957 6.801,27.714c6.337,10.757 12.055,17.636 27.063,23.787c15.007,6.151 36.569,5.688 39.984,5.796c3.415,0.109 44.512,1.949 63.8,-21.809c11.052,-14.25 13.926,-31.128 11.623,-48.006c-2.303,-16.879 -10.865,-26.74 -10.865,-26.74c0,0 1.191,3.061 -0.217,11.515c2.087,3.632 5.472,15.687 4.823,25.332c-0.65,9.645 -2.42,22.727 -9.753,32.969c-4.714,6.584 -8.454,11.19 -18.747,16.012c-10.294,4.822 -26.059,7.234 -40.309,7.017c-14.251,-0.217 -27.959,-1.329 -39.473,-6.584c-11.515,-5.255 -17.636,-13.246 -22.025,-19.614c-4.389,-6.367 -1.004,-3.139 -6.367,-8.424c-5.363,-5.285 -6.338,-18.965 -6.338,-18.965" style="fill:#121113;fill-rule:nonzero;"/><path id="path1962" d="M32.512,37.389c0,0 14.869,-22.505 65.044,-21.145c42.388,0.097 51.511,11.141 60.407,19.123c0.193,0.582 -3.524,3.595 -3.524,3.595l-6.101,2.291l-17.476,-13.718l-31.045,-6.768c0,0 -29.215,3.458 -30.429,3.309c-1.214,-0.15 -20.353,10.542 -20.353,10.542l-3.578,10.973l-11.337,-8.561l-1.608,0.359" style="fill:#c9cdd1;fill-rule:nonzero;"/><path id="path1970" d="M35.175,35.68c0,0 13.607,-20.35 62.337,-19.029c41.167,0.094 51.167,11.88 59.807,19.632c-2.756,2.354 -5.658,2.025 -5.658,2.025l-4.829,2.632l-16.973,-13.324l-30.15,-6.572c0,0 -28.374,3.359 -29.554,3.213c-1.178,-0.145 -19.767,10.239 -19.767,10.239l-9.861,6.129l-5.955,-3.588l0.603,-1.357Z" style="fill:#e6e6e6;fill-rule:nonzero;"/><path id="path2086" d="M35.175,37.941c0,0 16.425,-18.385 60.276,-18.385c43.852,0 59.874,14.845 61.556,17.087c-1.906,2.451 -5.347,5.066 -5.347,5.066c-11.234,-7.059 -21.783,-12.636 -31.646,-16.728l-26.521,-3.918c0,0 -31.344,7.233 -31.947,7.233c-0.603,0 -16.878,11.453 -16.878,11.453c0,0 -1.331,2.239 -2.568,1.962c-3.371,-2.731 -6.925,-3.77 -6.925,-3.77Z" style="fill:#808080;fill-rule:nonzero;"/><path id="path2622" d="M146.54,45.113c0,0 -8.225,-21.691 -50.741,-21.691c-42.517,0 -49.876,21.448 -49.876,21.448l-2.033,-3.561l7.233,-9.897l19.163,-8.762l13.309,-2.035l12.708,-0.628l16.29,0.885l12.826,2.733l17.704,8.957l9.59,7.6l0.685,0.768l-6.858,4.183" style="fill:#2a2e33;fill-rule:nonzero;"/><path id="path2630" d="M145.338,48.473c0,0 -4.104,2.736 -12.467,5.842c-8.363,3.107 -19.621,8.293 -24.284,12.664c-4.806,4.504 -8.186,9.321 -9.293,11.123c-1.107,1.803 -2.415,4.475 -3.111,4.214c-0.087,1.542 -0.434,10.752 -0.434,10.752l0.521,0.347l4.388,-7.581l14.553,-15.835l6.625,-7.06l22.569,-10.774l0.933,-3.692Z" style="fill:#b3b3b3;fill-rule:nonzero;"/><path id="path2848" d="M132.038,54.867c-2.716,1.191 -15.463,5.209 -21.776,12.92c-2.152,2.629 -5.926,9.553 -6.957,11.228c-1.031,1.675 -6.019,12.35 -7.234,13.823c-1.214,1.472 6.479,-6.221 6.479,-6.221c0,0 20.871,-18.554 21.332,-18.83c0.46,-0.276 7.877,-6.957 7.877,-6.957c0,0 2.411,-6.897 0.279,-5.963" style="fill:#121113;fill-rule:nonzero;"/><path id="path2856" d="M158.667,38.209c0,0 -10.932,9.645 -22.067,14.651c-11.135,5.007 -25.025,9.796 -33.34,28.089c-6.322,11.156 9.873,-10.014 9.873,-10.014l8.522,-6.111l19.767,-8.816l10.104,-6.479l7.141,-11.32Z" style="fill:#333;fill-rule:nonzero;"/><path id="path3144" d="M158.851,38.025c0,0 -7.778,7.833 -18.736,14.007c-3.626,2.043 -13.267,6.265 -17.706,8.614c-9.779,5.174 -14.834,14.283 -16.417,16.142c-1.583,1.859 -9.736,16.51 -9.736,16.51l3.515,-0.755l13.546,-17.89l11.025,-6.681l25.141,-7.878l8.246,-6.866c0,0 1.998,1.013 2.595,-8.337c0.368,-5.762 -1.473,-6.866 -1.473,-6.866Z" style="fill:#e6e6e6;fill-rule:nonzero;"/><path id="path3344" d="M140.358,68.759l-16.652,5.35l-9.343,3.842l-11.829,8.816c0,0 -2.788,4.973 -3.014,6.028c-0.226,1.055 -1.959,6.782 -1.959,6.782l-0.226,1.884l-0.603,0.753l-0.527,-3.391l0.297,-4.627l2.31,-4.273l2.667,-4.587l4.973,-5.35l6.857,-4.069l11.603,-3.617l9.644,-2.486l5.802,-1.055Z" style="fill:#333;fill-rule:nonzero;"/><path id="path3494" d="M152.458,64.33c0,0 -3.062,1.889 -17.985,6.386c-14.923,4.496 -22.677,8.607 -29.194,16.813c-3.519,4.431 -5.539,8.798 -6.19,10.948c-0.652,2.151 -1.896,3.971 -2.086,4.236c-0.195,0.273 -1.2,0.389 -1.213,-0.197c-0.005,-0.202 0.861,0.548 1.154,-1.609c-0.009,-2.501 0.22,-6.929 1.689,-9.533c2.019,-3.585 5.082,-7.886 10.035,-10.818c4.952,-2.932 11.338,-5.474 15.509,-6.973c4.17,-1.499 14.596,-4.366 19.093,-5.995c4.496,-1.629 10.165,-4.106 10.165,-4.106l-0.977,0.848Z" style="fill:#999;fill-rule:nonzero;"/><path id="path3726" d="M96.626,93.85c0,0 0.242,6.871 0,7.597c-0.241,0.725 -1.443,-0.364 -1.443,-0.364l-4.883,-11.39l-6.87,-7.112l-10.431,-6.516l-4.58,-1.807l-7.354,-2.29l-3.016,-0.907l-0.605,-1.746l15.374,3.742l11.511,6.024l5.911,5.548l4.399,6.024l1.987,3.197Z" style="fill:#b3b3b3;fill-rule:nonzero;"/><path id="path3796" d="M47.218,48.473c0,0 4.104,2.736 12.467,5.842c8.364,3.107 19.621,8.293 24.285,12.664c4.805,4.504 7.952,9.407 9.059,11.21c1.107,1.803 2.649,4.388 3.344,4.127c0.087,1.542 0.435,10.752 0.435,10.752l-0.522,0.347l-4.387,-7.581l-14.554,-15.835l-6.625,-7.06l-22.568,-10.774l-0.934,-3.692Z" style="fill:#ccc;fill-rule:nonzero;"/><path id="path3912" d="M94.789,90.832l-5.965,-7.448l-10.832,-9.296l-34.417,-13.427l-10.49,-9.483c0,0 -2.451,-8.04 -0.916,-11.025c-0.055,-0.937 1.692,-5.809 2.343,-4.292c1.777,1.807 3.916,4.49 11.21,9.252c-0.629,1.48 -0.041,2.128 0.903,2.742c1.844,1.199 4.705,2.894 4.705,2.894l6.145,3.389l11.962,6.03l6.333,3.992l6.193,6.523l4.634,5.722l5.011,6.523l5.13,10.239l-1.949,-2.335Z" style="fill:#e6e6e6;fill-rule:nonzero;"/><path id="path4180" d="M44.616,107.891c-2.654,-1.863 -5.989,-3.407 -9.241,-5.492c-2.616,-1.676 -4.674,-8.614 -5.698,-14.384c-3.645,-20.553 3.556,-35.661 3.556,-35.661c0,0 0.127,-0.356 -0.012,-0.483c-0.523,-0.478 -0.148,-1.339 0.674,-0.793c9.195,6.11 11.551,6.163 18.753,9.522c10.315,4.811 21.128,4.766 32.599,16.327c5.46,5.503 10.886,16.339 11.516,16.204c-0.045,1.079 -0.208,6.174 -0.208,6.174c0,0 0.291,-4.901 -1.272,-7.36c-6.338,-9.971 -15.623,-14.119 -15.623,-14.119c0,0 -7.997,-4.164 -20.531,-6.575c-5.403,-1.04 -13.099,-2.958 -19.807,-6.841c-0.555,-0.321 -0.761,0.07 -0.955,0.36c-0.365,0.548 -1.81,14.361 -0.311,23.245c1.39,8.246 3.297,12.708 6.56,19.876Z" style="fill:#1a1a1a;fill-rule:nonzero;"/><path id="path4362" d="M34.587,35.915c0,0 4.029,4.772 10.91,9.222c-2.877,-1.068 -4.166,-1.234 -6.766,-3.218c-1.746,-1.331 -4.144,-6.004 -4.144,-6.004" style="fill:#3c444b;fill-rule:nonzero;"/><path id="path4364" d="M157.867,35.706c0,0 -3.197,3.442 -5.339,5.046c-2.142,1.603 -5.732,4.23 -5.732,4.23l6.54,-3.233l4.531,-6.043" style="fill:#121113;fill-rule:nonzero;"/><path id="path4372" d="M39.809,40.204c0,0 5.766,-7.987 15.41,-12.666c9.644,-4.679 16.077,-5.68 22.033,-6.557c5.72,-0.842 17.311,-1.061 18.222,-1.077l0.057,0c0.938,0.016 13.189,0.234 18.915,1.077c5.957,0.877 12.439,1.687 22.083,6.366c9.645,4.679 16.437,13.089 16.437,13.089c0,0 -2.42,0.569 -3.897,1.779c-1.478,1.21 -2.033,0.664 -2.033,0.664c0,0 -0.131,-3.342 -4.62,-8.231c-4.488,-4.889 -11.426,-7.777 -20.403,-10.988c-8.678,-3.105 -25.38,-3.209 -26.482,-3.212l-0.057,0c-1.074,0.003 -17.114,0.108 -25.789,3.212c-8.977,3.211 -14.199,6.899 -18.688,11.788c-4.488,4.89 -5.422,9.845 -5.422,9.845c0,0 -1.468,-1.868 -2.945,-3.078c-1.477,-1.21 -2.821,-2.011 -2.821,-2.011Z" style="fill:#1a1a1a;fill-rule:nonzero;"/><path id="path4848" d="M85.365,74.919c-0.94,-1.288 -1.918,-2.618 -2.923,-3.978c-4.478,-6.064 -9.81,-9.465 -15.298,-12.197c-0.889,-0.443 -1.783,-0.869 -2.681,-1.286c2.582,1.06 5.093,2.228 9.106,4.517c4.399,2.509 8.353,7.862 10.854,11.566c0.31,0.459 0.625,0.919 0.942,1.378Zm-52.029,-36.604c0.785,0.869 6.997,6.111 17.221,12.781c10.448,6.814 22.603,8.296 31.4,20.207c6.852,9.277 7.555,8.286 13.727,19.753c-1.146,-3.272 -2.357,-5.55 -3.908,-7.979c-1.551,-2.43 -4.359,-6.183 -6.853,-9.877c-2.494,-3.694 -6.519,-9.166 -11.056,-11.754c-4.537,-2.587 -7.167,-3.752 -10.133,-4.938c-2.965,-1.185 -7.796,-3.062 -12.47,-5.729c-4.673,-2.666 -12.705,-8.158 -17.928,-12.464" style="fill:#3c444b;"/><path id="path4856" d="M97.049,93.247c4.621,-10.006 9.082,-15.753 18.344,-22.454c5.361,-3.878 9.229,-4.592 15.346,-7.019c4.051,-1.608 6.486,-2.124 10.523,-3.768c7.378,-3.005 10.665,-4.484 18.255,-9.165c0.527,1.788 -3.397,8.811 -6.2,12.933c-7.886,3.473 -14.234,5.401 -23.679,7.612c-5.665,1.326 -9.833,2.696 -15.591,5.023c-9.644,3.899 -12.435,8.699 -16.998,16.838Z" style="fill:#1a1a1a;fill-rule:nonzero;"/><path id="path5044" d="M94.472,92.795c1.497,2.958 2.185,5.576 2.185,8.213c0,2.638 -0.979,2.185 -1.884,-0.15c-0.904,-2.336 -2.26,-7.309 -7.76,-13.413c-5.5,-6.103 -11.528,-10.473 -17.556,-12.658c-6.027,-2.185 -12.206,-3.542 -14.919,-4.371c-2.712,-0.828 -6.587,-2.101 -6.587,-2.101l6.814,1.725c0,0 15.445,3.466 24.261,8.665c8.816,5.199 13.08,9.416 15.446,14.09Z" style="fill:#ccc;fill-rule:nonzero;"/><path id="path5206" d="M32.167,40.113c-0.336,0.409 -8.952,11.05 -11.693,31.685c0,-15.973 8.173,-30.784 13.137,-35.718c-0.695,1.036 -1.449,3.352 -1.444,4.033" style="fill:#c9cdd1;fill-rule:nonzero;"/><path id="path5208" d="M45.541,45.245c0,0 -2.177,-2.867 -4.903,-5.004c-2.724,-2.137 -4.801,-3.009 -4.801,-3.009c0,0 1.509,1.853 4.578,4.274c3.07,2.421 5.126,3.739 5.126,3.739" style="fill:#121113;fill-rule:nonzero;"/><path id="path5210" d="M35.849,37.252c0,0 1.74,0.535 4.283,2.591c0,0 5.461,-7.409 13.54,-11.521c8.078,-4.112 16.059,-6.677 27.014,-7.76c0,0 -13.517,0.458 -27.247,7.44c-7.785,3.959 -13.368,11.251 -13.368,11.251c-1.361,-1.003 -2.768,-1.67 -4.222,-2.001" style="fill:#c9cdd1;fill-rule:nonzero;"/><path id="path5218" d="M159.622,50.471c0,0 1.486,1.94 3.331,9.39c1.402,5.663 1.706,11.228 1.706,11.228c0,0 -1.19,-11.58 -5.142,-20.239l0.105,-0.379Z" style="fill:#e6e6e6;fill-rule:nonzero;"/><path id="path5384" d="M95.534,19.56c0.993,-0.024 13.229,0.173 18.972,1.018c2.99,0.441 6.112,0.864 9.698,1.765c3.593,0.903 7.65,2.283 12.503,4.638c4.871,2.363 9.013,5.663 11.934,8.366c1.463,1.355 2.674,2.625 3.519,3.557c0.43,0.474 0.817,0.925 1.094,1.255l-0.288,0.277c0,0 -6.792,-8.41 -16.437,-13.089c-9.644,-4.679 -16.126,-5.489 -22.083,-6.366c-5.726,-0.843 -18.912,-1.421 -18.912,-1.421Z" style="fill:#f2f2f2;fill-rule:nonzero;"/><path id="path5500" d="M59.901,121.5c19.046,9.048 57.286,8.51 73.662,0c-17.218,10.38 -54.826,10.917 -73.662,0Z" style="fill:#e6e6e6;fill-rule:nonzero;"/><path id="path5538" d="M152.212,101.215l6.603,0c0,0 -7.225,18.818 -27.445,25.367c-8.461,2.741 -21.135,2.891 -21.135,2.891c23.124,-1.356 35.014,-8.749 41.977,-28.258Z" style="fill:#ccc;fill-rule:nonzero;"/><path id="path5648" d="M100.152,87.101c0,0 6.044,-12.698 20.367,-19.876c3.771,-1.891 10.085,-3.406 10.085,-3.406l-3.675,1.381c-4.113,1.479 -7.374,2.583 -11.536,5.593c-7.146,5.17 -11.434,9.772 -15.143,16.201l-0.098,0.107" style="fill:#fff;fill-rule:nonzero;"/><path id="path5656" d="M98.022,92.702c0,0 2.785,-12.37 22.707,-18.294c-12.699,4.802 -18.354,8.996 -22.707,18.294Z" style="fill:#b3b3b3;fill-rule:nonzero;"/><path id="path5700" d="M95.958,101.836c-0.149,-0.241 -0.349,-0.625 -0.577,-1.214c-0.456,-1.18 -1.029,-3.025 -2.181,-5.347c-1.163,-2.348 -2.91,-5.167 -5.703,-8.266c-2.32,-2.574 -4.738,-4.849 -7.215,-6.787c7.691,4.733 11.466,8.635 13.608,12.868c1.462,2.887 2.115,5.404 2.115,7.918c0,0.351 -0.018,0.623 -0.047,0.828Z" style="fill:#e6e6e6;fill-rule:nonzero;"/><path id="path5874" d="M146.562,45.212l0.463,1.374c0,0 2.299,-1.268 6.435,-4.456c4.137,-3.189 5.417,-4.137 5.417,-4.137c0,0 1.186,0.913 5.369,7.74c0,0 -1.304,-4.018 -6.045,-9.968l-4.812,5.938l-6.827,3.509Z" style="fill:#ececec;fill-rule:nonzero;"/><path id="path5920" d="M81.496,70.692c-6.662,-7.168 -11.36,-8.795 -19.891,-11.848c-8.192,-2.932 -11.569,-7.54 -12.21,-8.512c0.382,0.252 0.769,0.507 1.162,0.764c10.266,6.696 22.182,8.243 30.939,19.596Z" style="fill:#666;fill-rule:nonzero;"/><path id="path5946" d="M120.292,170.474l7.727,0c0,0 3.377,-0.023 3.377,-5.326c0,-5.407 -3.377,-5.415 -3.377,-5.415l-7.727,0l0,10.741Zm-48.203,-3.615c-0.822,0 -1.488,0.762 -1.488,1.701c0,0.94 0.666,1.701 1.488,1.701l9.011,-0.002l0,-3.399l-9.011,-0.001l0,0Zm73.333,0c-0.822,0 -1.489,0.762 -1.489,1.701c0,0.94 0.667,1.701 1.489,1.701l9.011,-0.001l0,-3.399l-9.011,-0.002l0,0Zm-3.147,-4.392l12.288,0c0.002,-1.197 -0.081,-3.093 -2.887,-3.094c-2.899,-0.001 -12.604,0 -12.604,0l0,-5.398c0,0 9.37,0.002 15.361,0.001c3.74,-0.001 6.697,1.524 6.697,5.994l-0.003,16.178l-18.81,0l0.214,0.014c-2.491,0 -4.585,-2.193 -5.173,-5.158c-1.675,5.143 -5.725,5.141 -8.858,5.133l-15.143,0l0,-17.368l-21.308,17.378l-23.065,0l0.214,0.014c-2.068,0 -3.864,-1.513 -4.75,-3.724l-0.003,3.71l-6.582,0l0,-14.271c0,0 -0.015,-1.901 -2.04,-1.906l-4.866,0l0,16.177l-6.511,0l0,-16.177l-6.827,0l0,16.177l-6.749,0l0.01,-22.173l27.474,0c3.032,0 6.101,1.991 6.101,5.996l-0.002,6.199c0.886,-2.204 2.677,-3.71 4.741,-3.71l-0.251,0.008l12.288,0c0.001,-1.197 -0.081,-3.093 -2.888,-3.094c-2.899,-0.002 -12.603,0 -12.603,0l0,-5.399c0,0 9.369,0.003 15.36,0.002c3.741,-0.001 6.697,1.524 6.697,5.993l-0.001,11.127l21.516,-17.122l4.045,0l15.195,0.001c3.999,0 9.583,0 9.583,11.053l-0.002,0.398c0.962,-1.792 2.571,-2.967 4.394,-2.967l-0.252,0.008l0,0Zm-52.119,-8.493l15.358,0l-6.801,5.996l-8.562,0l0.005,-5.996Zm21.206,22.156l-15.358,0l6.801,-5.996l8.562,0l-0.005,5.996" style="fill:#0080c5;fill-rule:nonzero;"/><path id="path22" d="M60.483,71.513c0,0 1.376,0.3 1.816,0.404c5.04,1.149 9.185,2.527 12.16,3.663c2.543,1.153 5.395,2.663 8.491,4.64c12.702,8.113 12.772,14.882 12.772,14.882c0,0 -0.181,-4.659 -7.932,-11.136c-7.811,-6.526 -21.086,-10.663 -25.012,-11.788c-0.719,-0.206 -2.295,-0.665 -2.295,-0.665Z" style="fill:#808080;fill-rule:nonzero;"/><defs><linearGradient id="_Linear1" x1="0" y1="0" x2="1" y2="0" gradientUnits="userSpaceOnUse" gradientTransform="matrix(-1.35313,55.1279,-55.1279,-1.35313,149.725,56.4885)"><stop offset="0" style="stop-color:#999;stop-opacity:1"/><stop offset="1" style="stop-color:#d7d7d7;stop-opacity:1"/></linearGradient><radialGradient id="_Radial2" cx="0" cy="0" r="1" gradientUnits="userSpaceOnUse" gradientTransform="matrix(27.2203,-20.3446,-12.5638,-16.8099,25.7719,70.6526)"><stop offset="0" style="stop-color:#fff;stop-opacity:1"/><stop offset="1" style="stop-color:#919191;stop-opacity:1"/></radialGradient></defs></svg>