<?xml version="1.0" encoding="UTF-8" standalone="no"?><!DOCTYPE svg PUBLIC "-//W3C//DTD SVG 1.1//EN" "http://www.w3.org/Graphics/SVG/1.1/DTD/svg11.dtd"><svg width="100%" height="100%" viewBox="0 0 192 192" version="1.1" xmlns="http://www.w3.org/2000/svg" xmlns:xlink="http://www.w3.org/1999/xlink" xml:space="preserve" xmlns:serif="http://www.serif.com/" style="fill-rule:evenodd;clip-rule:evenodd;stroke-linejoin:round;stroke-miterlimit:1.41421;"><g id="g10836"><path id="path6312" d="M39.896,181.76l0,-14.686l-5.026,10.661l-4.838,-10.661l0,14.686l-3.985,0l0,-22.512l4.39,0l4.433,10.253l4.619,-10.253l4.419,0l0,22.512" style="fill-rule:nonzero;"/><rect id="path6314" x="47.531" y="159.248" width="4.02" height="22.512" style="fill-rule:nonzero;"/><path id="path6318" d="M62.187,162.663l0,19.097l-4.011,0l0,-19.097l-4.817,0l0,-3.415l13.666,0l0,3.415" style="fill-rule:nonzero;"/><path id="path6322" d="M74.463,182.373c-5.23,0 -7.03,-3.431 -7.238,-7.664l3.825,0c0,2.035 1.01,4.022 3.413,4.022c2.005,0 3.215,-0.996 3.215,-2.591c0,-1.431 -0.996,-2.028 -5.224,-4.425c-3.018,-1.822 -5.021,-3.623 -5.021,-6.841c0,-3.423 2.216,-5.82 6.838,-5.82c5.013,0 6.827,3.204 7.027,7.019l-4.006,0c0,-1.806 -0.999,-3.626 -3.021,-3.626c-1.817,0 -2.816,0.826 -2.816,2.222c0,1.604 1.202,2.405 4.409,4.028c3.623,2.025 5.831,3.609 5.831,7.251c0,4.206 -3.402,6.425 -7.232,6.425" style="fill-rule:nonzero;"/><path id="path6326" d="M91.211,182.149c-3.604,0 -7.831,-1.404 -7.831,-7.44l0,-15.458l4.022,0l0,15.458c0,2.416 1.207,3.836 3.809,3.836c2.225,0 3.45,-1.42 3.45,-3.836l0,-15.458l4.001,0l0,15.458c0,5.842 -4.001,7.44 -7.451,7.44" style="fill-rule:nonzero;"/><path id="path6330" d="M108.308,171.909l-1.601,0l0,-3.612l1.601,0c2.014,0 3.207,-0.801 3.207,-2.807c0,-2.009 -1.401,-2.827 -3.207,-2.827l-3.01,0l0,15.688l3.207,0c2.206,0 3.618,-1.007 3.618,-3.421c0,-2.219 -1.412,-3.021 -3.815,-3.021m1.201,9.851l-8.223,0l0,-22.509l7.435,0c4.206,0 6.811,2.003 6.811,5.623c0,3.005 -2.186,4.827 -3.207,5.019c1.415,0.416 4.015,2.016 4.015,5.634c0,3.607 -2.803,6.233 -6.831,6.233" style="fill-rule:nonzero;"/><path id="path6334" d="M154.116,181.76l0,-9.851l-8.199,0l0,9.851l-4.236,0l0,-22.512l4.236,0l0,8.844l8.01,0l0,-8.844l4.222,0l0,22.512" style="fill-rule:nonzero;"/><rect id="path6336" x="118.556" y="159.248" width="4.022" height="22.512" style="fill-rule:nonzero;"/><rect id="path6338" x="161.969" y="159.248" width="4.02" height="22.512" style="fill-rule:nonzero;"/><path id="path6342" d="M132.427,181.947c-5.235,0 -7.036,-3.216 -7.238,-7.635l3.812,0c0,2.014 1.004,4.23 3.426,4.23c2.019,0 3.231,-1.007 3.231,-2.597c0,-1.436 -1.001,-2.251 -5.226,-4.651c-3.021,-1.596 -5.041,-3.418 -5.041,-6.625c0,-3.418 2.209,-5.812 6.841,-5.812c5.024,0 6.833,3.199 7.038,7l-3.814,0c-0.219,-1.99 -1.226,-3.602 -3.224,-3.602c-1.603,0 -2.818,0.794 -2.818,2.206c0,1.396 1.215,2.222 4.433,4.041c3.609,1.982 5.823,3.405 5.823,7.249c0,3.987 -3.421,6.196 -7.243,6.196" style="fill-rule:nonzero;"/></g><g id="g10769"><path id="path6300-3" d="M95.901,101.149l-26.365,-45.665l26.365,-45.857l26.556,45.857" style="fill:#e60012;fill-rule:nonzero;"/><path id="path6304-6" d="M122.457,146.804l-26.56,-45.655l52.932,0l26.378,45.655" style="fill:#e60012;fill-rule:nonzero;"/><path id="path6308-6" d="M69.533,146.804l-52.74,0l26.364,-45.655l52.74,0" style="fill:#e60012;fill-rule:nonzero;"/></g></svg>