<svg width="143" height="62" viewBox="0 0 143 62" fill="none" xmlns="http://www.w3.org/2000/svg">
<path d="M30.3321 17.1109C31.4966 16.9294 32.7884 16.9035 33.8233 17.5612C35.3178 18.4499 36.1712 20.0599 36.7605 21.6393C38.4177 26.1937 38.5756 31.1747 37.8802 35.9341C37.7247 37.1528 37.2579 38.5295 36.0627 39.0835C35.3555 39.3216 34.4503 39.2579 33.96 38.6309C33.168 37.6738 33.4178 36.3537 33.4838 35.2151C33.7408 33.4165 33.8398 31.5919 33.7573 29.7791C33.7502 28.9517 33.4721 28.0559 32.7625 27.568C32.1637 27.1154 31.2986 27.2026 30.7046 27.6175C29.698 28.2705 29.0379 29.3218 28.4981 30.3685C27.1733 33.0959 26.4402 36.0543 25.4525 38.909C24.9574 40.2362 24.1583 41.4997 22.9726 42.3083C21.5511 43.3101 19.7454 43.5742 18.0434 43.5129C15.87 43.4091 13.9134 42.0443 12.7724 40.2386C11.351 37.9402 10.0851 35.5475 8.69664 33.2302C8.25582 32.5561 7.66178 31.6933 6.74243 31.7923C5.77593 31.8819 5.41054 32.9639 5.44119 33.7984C5.50955 36.6578 6.89329 39.2626 7.38597 42.0466C7.55806 42.9047 7.3129 43.982 6.44776 44.3709C5.91972 44.444 5.36575 44.51 4.84243 44.3733C4.07394 44.081 3.67556 43.2866 3.33139 42.5959C2.13151 39.7199 1.38424 36.6672 1 33.5815C1.05422 31.9997 0.905707 30.3968 1.24045 28.8362C1.69777 26.2903 2.39789 23.5959 4.2861 21.7148C5.91265 20.067 8.71314 19.5767 10.6862 20.8755C12.6004 22.2027 13.7837 24.263 15.0402 26.1677C15.9619 27.634 16.8223 29.3595 18.5149 30.0644C19.6817 30.6325 21.1786 30.2836 22.0367 29.3289C22.652 28.6948 22.9561 27.8485 23.2814 27.0446C23.9721 25.3144 24.6604 23.5865 25.4171 21.8845C26.2775 19.704 27.9724 17.6767 30.3321 17.1109V17.1109Z" fill="#00ABE1"/>
<path d="M114.974 22.6011C115.856 22.5328 116.742 22.5728 117.624 22.6035C117.69 23.4898 117.569 24.3833 117.704 25.2649C118.607 25.2343 119.514 25.2083 120.417 25.279C120.441 26.064 120.525 26.8584 120.358 27.634C119.458 27.6175 118.559 27.6222 117.661 27.6387C117.619 29.534 117.652 31.434 117.64 33.3293C117.649 34.1331 117.638 35.0572 118.251 35.6654C118.859 36.2476 119.773 36.1581 120.551 36.2288C120.662 37.0421 120.672 37.8718 120.521 38.6804C119.043 38.6969 117.416 38.6686 116.209 37.6927C115.125 36.8299 114.816 35.3754 114.781 34.0577C114.759 30.5217 114.795 26.9834 114.766 23.4474C114.828 23.1881 114.623 22.6931 114.974 22.6011V22.6011Z" fill="#00ABE1"/>
<path d="M48.2029 26.2691C49.5395 25.0692 51.4442 24.9207 53.158 24.9843C54.5535 24.9796 55.9538 25.3639 57.0547 26.2361C58.2875 24.9561 60.1993 24.9513 61.8494 24.9843C63.3558 24.9843 64.9658 25.4322 65.9818 26.6062C66.7314 27.4855 66.8705 28.6877 66.8941 29.8003C66.9035 32.1506 66.8941 34.5008 66.8988 36.8534C66.8941 37.464 66.9648 38.091 66.7715 38.6804C65.8946 38.6426 65.0177 38.7204 64.1455 38.6356L64.0535 38.5036C63.9592 35.4414 64.1384 32.3698 63.9545 29.31C63.971 28.327 63.0611 27.6057 62.137 27.5397C61.0833 27.4737 59.8575 27.3464 58.9971 28.0936C58.3559 28.6217 58.4313 29.5245 58.3913 30.2718C58.363 32.7046 58.3748 35.1397 58.3818 37.5724C58.3229 37.9142 58.4926 38.4022 58.198 38.6521C57.3045 38.6827 56.3993 38.7157 55.5083 38.612C55.5083 35.5074 55.5813 32.4028 55.4328 29.3006C55.4281 28.2539 54.3838 27.5515 53.415 27.5232C52.5263 27.4784 51.5598 27.4077 50.7583 27.865C50.2397 28.1526 49.9261 28.7231 49.912 29.31C49.7093 32.4264 49.9002 35.5522 49.7823 38.6709C48.8795 38.6709 47.9766 38.6639 47.0761 38.678C46.9866 38.2419 46.9465 37.7987 46.963 37.3555C46.9936 34.7554 46.9394 32.1553 46.9889 29.5575C47.0031 28.3718 47.2718 27.0847 48.2029 26.2691V26.2691Z" fill="#00ABE1"/>
<path d="M72.8298 25.2531C74.9042 24.8429 77.205 24.758 79.1545 25.7033C80.9885 26.6439 81.4505 28.8834 81.5259 30.7645C81.5542 32.8295 81.6792 35.0878 80.5477 36.9147C79.4963 38.5625 77.3535 38.942 75.5431 38.8996C73.8081 38.9467 71.835 38.6992 70.6186 37.3273C69.3032 35.6866 69.315 33.4424 69.3127 31.4458C69.3645 29.8121 69.5107 28.0253 70.5361 26.6793C71.1019 25.9508 71.9529 25.4959 72.8298 25.2531ZM74.0108 27.5939C73.1905 27.7683 72.5894 28.4873 72.4291 29.2888C72.1344 31.0238 72.1344 32.8083 72.4196 34.5433C72.5823 35.2269 72.9712 35.9412 73.6784 36.1722C74.7345 36.5211 75.899 36.5022 76.974 36.2429C77.7566 36.0826 78.254 35.3565 78.4331 34.6234C78.7537 32.8413 78.7396 31.0097 78.4308 29.2275C78.221 28.4048 77.5704 27.6811 76.7005 27.5609C75.8094 27.4548 74.8948 27.4383 74.0108 27.5939V27.5939Z" fill="#00ABE1"/>
<path d="M104.621 25.6491C106.551 24.6849 108.819 24.9442 110.879 25.253C111.146 25.3568 111.678 25.2625 111.73 25.6467C111.763 26.295 111.756 26.9479 111.742 27.5986C111.66 27.6316 111.495 27.6999 111.412 27.7329C109.92 27.4736 108.385 27.2072 106.872 27.4477C106.278 27.5491 105.521 27.905 105.531 28.6075C105.396 29.2063 105.917 29.6235 106.389 29.8545C108.048 30.6159 109.929 30.9695 111.396 32.1105C112.624 33.0463 112.746 34.8025 112.355 36.1839C111.735 37.9378 109.818 38.7699 108.079 38.8642C106.424 38.9396 104.687 38.8948 103.14 38.2536C102.846 37.5276 103.032 36.6742 103.058 35.901C104.934 36.3536 106.95 36.8487 108.847 36.2334C109.818 35.9765 110.174 34.5644 109.333 33.9562C107.65 32.9237 105.554 32.7234 103.951 31.5376C102.101 30.0455 102.508 26.7122 104.621 25.6491V25.6491Z" fill="#00ABE1"/>
<path d="M123.788 25.7928C123.703 25.451 124.078 25.253 124.358 25.2389C126.298 24.9772 128.293 24.8169 130.223 25.2412C131.459 25.5548 132.668 26.3115 133.201 27.5137C133.875 28.9682 133.618 30.6065 133.667 32.1552C133.634 33.6828 133.84 35.3093 133.161 36.7355C132.505 38.1028 130.916 38.6709 129.509 38.8524C127.753 38.9608 125.869 38.982 124.288 38.1004C121.685 36.6436 121.787 32.2118 124.446 30.8658C126.407 29.8309 128.705 30.168 130.813 30.4085C130.869 29.4184 130.711 28.1832 129.681 27.7376C127.788 27.0045 125.747 27.6174 123.795 27.6009C123.79 26.9974 123.767 26.394 123.788 25.7928V25.7928ZM125.695 35.7454C126.482 36.5988 127.753 36.5351 128.816 36.4974C129.535 36.4715 130.365 36.1698 130.655 35.4531C130.9 34.5951 130.777 33.6875 130.817 32.8059C129.476 32.457 128.038 32.3721 126.676 32.6385C125.318 32.886 124.787 34.7577 125.695 35.7454Z" fill="#00ABE1"/>
<path d="M137.201 26.3587C138.693 24.8548 140.999 24.8925 142.965 25.0316C143.021 25.8283 143.005 26.6275 142.951 27.4242C141.864 27.6105 140.6 27.2074 139.66 27.9287C139.08 28.3507 139.019 29.1309 139 29.7863C138.945 32.7282 139 35.6725 138.971 38.6144C138.05 38.7346 137.121 38.6356 136.197 38.6875C135.971 36.2925 136.162 33.8691 136.098 31.4623C136.143 29.7344 135.869 27.7071 137.201 26.3587V26.3587Z" fill="#00ABE1"/>
<path d="M83.0936 25.2696C84.0884 25.2531 85.0997 25.1423 86.0827 25.3427C86.3208 28.9895 87.3533 32.5749 88.9657 35.8469C89.2415 35.4909 89.4136 35.0713 89.581 34.6565C90.8445 31.7051 91.7191 28.5557 91.8935 25.338C92.8718 25.1494 93.876 25.246 94.8661 25.2767C94.7341 29.9159 92.7869 34.2604 90.6983 38.3244C90.5522 38.7629 90.0359 38.6521 89.687 38.6757C88.9563 38.6521 88.2208 38.7252 87.4971 38.6262C87.4382 38.5531 87.3203 38.4069 87.2614 38.3339C85.0785 34.3029 83.2186 29.9206 83.0936 25.2696V25.2696Z" fill="#00ABE1"/>
<path d="M97.2257 25.2814C98.1686 25.2107 99.1186 25.2201 100.064 25.272C100.104 29.7014 100.13 34.1402 100.054 38.5672C99.1823 38.8195 98.1993 38.5908 97.287 38.678C97.2375 34.2156 97.1644 29.7462 97.2257 25.2814Z" fill="#00ABE1"/>
</svg>
