<svg width="100" height="100" viewBox="0 0 100 100" fill="none" xmlns="http://www.w3.org/2000/svg">
<path d="M0 0H99.6524C99.6514 33.3049 99.6535 66.6098 99.6514 99.9146C66.435 99.9167 33.2164 99.9146 0 99.9157V0ZM86.2813 72.2696C86.2772 72.4814 86.2762 72.6943 86.2803 72.9071C86.7564 72.904 87.2346 72.9061 87.7107 72.9061C87.7138 74.2316 87.7107 75.5571 87.7127 76.8836C87.9729 76.8815 88.2331 76.8815 88.4932 76.8826C88.4932 75.5571 88.4922 74.2316 88.4942 72.9061C88.9714 72.9061 89.4506 72.9051 89.9277 72.9061C89.9267 72.6943 89.9267 72.4835 89.9277 72.2716C88.7122 72.2696 87.4968 72.2737 86.2813 72.2696ZM90.8367 72.2706C90.8336 73.8079 90.8336 75.3453 90.8367 76.8826C91.0959 76.8826 91.355 76.8826 91.6152 76.8826C91.6203 75.6229 91.6069 74.3642 91.6234 73.1046C92.1447 74.3529 92.6157 75.6219 93.1134 76.8795C93.28 76.8805 93.4476 76.8805 93.6173 76.8805C94.1191 75.6178 94.5973 74.3457 95.1124 73.0891C95.1217 74.3529 95.1145 75.6178 95.1176 76.8826C95.3757 76.8815 95.6348 76.8815 95.894 76.8846C95.9032 75.3473 95.895 73.81 95.8981 72.2727C95.5032 72.2696 95.1083 72.2706 94.7145 72.2727C94.2754 73.4275 93.8271 74.5792 93.3818 75.7319C92.9335 74.5771 92.4769 73.4254 92.0285 72.2706C91.6306 72.2716 91.2326 72.2706 90.8367 72.2706ZM11.8286 77.187C9.88925 77.2651 7.93649 78.1443 6.7817 79.7433C5.78835 81.0832 5.39143 82.7861 5.39965 84.4345C5.36983 85.9862 5.68244 87.5842 6.51125 88.9138C7.18274 90.0017 8.21105 90.8552 9.39361 91.3344C10.8188 91.9134 12.4168 92.0172 13.9182 91.7077C15.3105 91.4208 16.6288 90.6907 17.5358 89.5832C18.3543 88.6032 18.8283 87.3713 19.0217 86.1168C19.2304 84.6597 19.1749 83.146 18.7451 81.7331C18.342 80.4086 17.5244 79.2024 16.3882 78.4055C15.073 77.4718 13.4225 77.1016 11.8286 77.187ZM25.1021 79.1541C25.1041 78.6153 25.1041 78.0764 25.1021 77.5386C23.9411 77.5386 22.7801 77.5325 21.6192 77.5428C21.6253 82.1866 21.6202 86.8304 21.6223 91.4743C22.8665 91.4794 24.1108 91.4743 25.355 91.4774C25.3612 88.3945 25.3478 85.3106 25.3622 82.2288C25.5144 81.7753 25.9298 81.4472 26.3443 81.2323C27.2954 80.7799 28.3731 80.7408 29.4066 80.7315C29.4066 79.5798 29.4055 78.4281 29.4076 77.2774C27.7787 77.1253 26.1509 77.9315 25.1021 79.1541ZM34.2376 77.6548C32.9707 78.06 31.8406 78.8826 31.0776 79.9768C31.9012 80.459 32.7331 80.9279 33.563 81.3989C34.2705 80.5207 35.3163 79.9151 36.4474 79.8256C37.2567 79.7557 38.2264 79.7968 38.8043 80.4539C39.2135 80.9238 39.0943 81.5809 39.1097 82.1516C37.2094 82.3758 35.2916 82.6884 33.5208 83.4422C32.5213 83.8761 31.5465 84.4982 30.9562 85.4422C30.2971 86.5014 30.2302 87.8557 30.5973 89.029C30.8956 89.9966 31.6133 90.8234 32.5367 91.2378C33.5949 91.7303 34.8052 91.7036 35.9332 91.5236C37.0582 91.3355 38.1359 90.8964 39.0891 90.2701C39.195 90.6722 39.301 91.0732 39.4079 91.4763C40.4969 91.4753 41.5859 91.4763 42.6748 91.4763C42.6347 88.2557 42.6604 85.033 42.6563 81.8123C42.7211 80.8632 42.5422 79.8585 41.9468 79.0945C41.1725 78.061 39.8902 77.5715 38.6552 77.3741C37.1868 77.1633 35.6587 77.2003 34.2376 77.6548ZM52.415 77.3556C51.1101 77.625 49.9676 78.3592 48.9023 79.1284C48.7953 78.5834 48.6719 78.0405 48.5753 77.4944C47.5583 77.6332 46.5403 77.7741 45.5233 77.9171C45.5212 82.4303 45.5233 86.9425 45.5233 91.4547C46.7397 91.4558 47.9552 91.4547 49.1727 91.4547C49.1727 88.1282 49.1727 84.8026 49.1727 81.4771C50.0344 80.7593 51.0206 80.1053 52.1579 79.9634C52.7307 79.8996 53.4032 79.9336 53.8207 80.3871C54.233 80.8693 54.2988 81.5388 54.3184 82.1485C54.3204 85.251 54.3194 88.3523 54.3194 91.4547C55.5431 91.4568 56.7668 91.4547 57.9905 91.4547C57.9905 88.1549 57.9905 84.8551 57.9905 81.5552C57.9761 80.893 57.8856 80.2256 57.6573 79.6025C57.3601 78.7644 56.7442 78.0394 55.9308 77.6713C54.8377 77.1746 53.579 77.1345 52.415 77.3556ZM61.9526 79.3834C60.8338 80.8981 60.442 82.8344 60.478 84.6895C60.4934 86.3821 60.8687 88.1539 61.9412 89.503C62.7917 90.6002 64.1171 91.2769 65.4869 91.4208C66.4864 91.5164 67.5548 91.4743 68.4484 90.9653C69.0695 90.6187 69.5065 90.0367 69.8736 89.4413C69.9024 90.0275 69.8818 90.6146 69.888 91.2008C69.8644 91.9771 69.7513 92.8224 69.2145 93.425C68.725 93.969 67.962 94.1613 67.2545 94.1633C66.511 94.1736 65.7079 94.1479 65.0642 93.7294C64.7434 93.5227 64.5789 93.1607 64.4843 92.8049C63.277 92.9993 62.0708 93.1946 60.8636 93.389C61.0826 94.516 61.8682 95.4724 62.8626 96.0132C64.4154 96.877 66.2612 96.9727 67.9928 96.8061C69.4942 96.6559 71.0798 96.2282 72.1503 95.098C73.1097 94.0841 73.41 92.6404 73.4316 91.2851C73.4316 86.6885 73.4316 82.093 73.4316 77.4965C72.3961 77.5026 71.3606 77.4811 70.3261 77.5078C70.2459 78.0209 70.1451 78.532 70.0556 79.0451C69.7348 78.3798 69.1096 77.9181 68.4391 77.6466C67.5579 77.2857 66.5861 77.2003 65.6411 77.2548C64.1727 77.3659 62.8112 78.1978 61.9526 79.3834ZM77.2188 79.2785C76.2111 80.4786 75.7617 82.0509 75.6496 83.5923C75.5417 85.2746 75.699 87.0289 76.4671 88.5539C77.0625 89.7426 78.0847 90.7164 79.3217 91.208C80.9105 91.8486 82.6936 91.8424 84.3491 91.4918C85.9697 91.137 87.4947 90.1632 88.3194 88.6948C87.4197 88.2001 86.5209 87.7004 85.6253 87.1986C85.2232 87.7755 84.7337 88.3153 84.0993 88.6351C83.3846 88.9991 82.5506 89.0454 81.7701 88.9323C81.0143 88.8223 80.2996 88.4058 79.8873 87.7549C79.3783 86.9549 79.2384 85.978 79.2323 85.0453C82.3049 85.0474 85.3785 85.0453 88.4531 85.0463C88.557 83.8196 88.4397 82.5691 88.087 81.3897C87.6994 80.1104 86.9117 78.9258 85.7744 78.2029C84.38 77.3001 82.638 77.1047 81.0195 77.2949C79.5706 77.4697 78.1556 78.1381 77.2188 79.2785Z" fill="#FF6600"/>
<path d="M80.0848 80.5475C80.529 80.0446 81.1912 79.7742 81.8524 79.7341C82.6957 79.6714 83.616 79.9079 84.1919 80.5629C84.7009 81.1295 84.8705 81.9131 84.8901 82.6566C83.0227 82.6555 81.1553 82.6586 79.2878 82.6545C79.3485 81.8997 79.5686 81.1213 80.0848 80.5475Z" fill="#FF6600"/>
<path d="M66.4278 79.8925C67.2875 79.7341 68.2232 80.0107 68.832 80.6472C69.5477 81.3794 69.8387 82.4211 69.9004 83.4216C69.9292 84.1548 69.8983 84.8931 69.7821 85.6181C69.6515 86.3821 69.3945 87.1636 68.8433 87.7282C68.3415 88.2392 67.6114 88.4727 66.907 88.4552C66.2509 88.4758 65.5599 88.267 65.1054 87.7724C64.4946 87.142 64.292 86.2433 64.1933 85.398C64.1131 84.5373 64.0894 83.6664 64.2025 82.8077C64.3095 82.0529 64.5429 81.2858 65.0468 80.6976C65.3974 80.2812 65.892 79.9901 66.4278 79.8925Z" fill="#FF6600"/>
<path d="M11.6785 80.3345C12.569 80.2019 13.5654 80.3489 14.2626 80.9608C14.9177 81.5253 15.2364 82.3778 15.3794 83.2107C15.5305 84.1475 15.5244 85.112 15.3423 86.0427C15.1758 86.8602 14.8117 87.6849 14.1331 88.2C13.3762 88.7636 12.3613 88.8643 11.4584 88.6782C10.7211 88.5281 10.0661 88.0479 9.68973 87.3959C9.14678 86.4519 9.0275 85.3311 9.05012 84.2596C9.08509 83.2971 9.25476 82.2955 9.80285 81.4831C10.2275 80.8518 10.9268 80.4332 11.6785 80.3345Z" fill="#FF6600"/>
<path d="M35.7285 85.147C36.7692 84.7162 37.8911 84.5249 39.0027 84.384C39.0068 85.4699 39.0006 86.5569 39.0057 87.6438C38.0762 88.4788 36.8905 89.1348 35.6123 89.1112C35.1835 89.1225 34.7588 88.9394 34.4668 88.6279C33.9105 88.0016 33.8303 87.0103 34.2611 86.2946C34.582 85.7404 35.1568 85.3959 35.7285 85.147Z" fill="#FF6600"/>
<path d="M99.6524 0H99.7368V100H0V99.9157C33.2164 99.9146 66.435 99.9167 99.6514 99.9146C99.6535 66.6098 99.6514 33.3049 99.6524 0Z" fill="#FED9BF"/>
<path d="M86.2814 72.2695C87.4968 72.2736 88.7123 72.2695 89.9277 72.2716C89.9267 72.4834 89.9267 72.6942 89.9277 72.9061C89.4506 72.905 88.9714 72.9061 88.4943 72.9061C88.4922 74.2315 88.4932 75.557 88.4932 76.8825C88.2331 76.8815 87.9729 76.8815 87.7128 76.8836C87.7107 75.557 87.7138 74.2315 87.7107 72.9061C87.2346 72.9061 86.7564 72.904 86.2803 72.9071C86.2762 72.6942 86.2772 72.4814 86.2814 72.2695Z" fill="white"/>
<path d="M90.8368 72.2705C91.2327 72.2705 91.6306 72.2715 92.0286 72.2705C92.4769 73.4253 92.9335 74.577 93.3819 75.7318C93.8271 74.5791 94.2755 73.4274 94.7146 72.2726C95.1084 72.2705 95.5033 72.2695 95.8981 72.2726C95.8951 73.8099 95.9033 75.3472 95.894 76.8845C95.6349 76.8814 95.3758 76.8814 95.1176 76.8825C95.1146 75.6177 95.1218 74.3528 95.1125 73.089C94.5973 74.3456 94.1192 75.6177 93.6173 76.8804C93.4477 76.8804 93.2801 76.8804 93.1135 76.8794C92.6158 75.6218 92.1448 74.3528 91.6234 73.1045C91.607 74.3641 91.6204 75.6228 91.6152 76.8825C91.3551 76.8825 91.0959 76.8825 90.8368 76.8825C90.8337 75.3452 90.8337 73.8078 90.8368 72.2705Z" fill="white"/>
<path d="M11.8286 77.187C13.4224 77.1016 15.0729 77.4718 16.3881 78.4055C17.5244 79.2024 18.3419 80.4086 18.745 81.7331C19.1748 83.146 19.2303 84.6597 19.0216 86.1168C18.8283 87.3713 18.3542 88.6032 17.5357 89.5832C16.6287 90.6907 15.3104 91.4208 13.9181 91.7077C12.4168 92.0172 10.8188 91.9134 9.39353 91.3344C8.21098 90.8552 7.18267 90.0017 6.51118 88.9138C5.68236 87.5842 5.36976 85.9862 5.39958 84.4345C5.39135 82.7861 5.78828 81.0832 6.78163 79.7433C7.93642 78.1443 9.88918 77.2651 11.8286 77.187ZM11.6784 80.3346C10.9267 80.4333 10.2275 80.8518 9.8028 81.4832C9.25471 82.2956 9.08504 83.2972 9.05008 84.2597C9.02745 85.3312 9.14674 86.452 9.68969 87.396C10.066 88.048 10.7211 88.5282 11.4584 88.6783C12.3612 88.8644 13.3762 88.7637 14.133 88.2001C14.8117 87.685 15.1757 86.8603 15.3423 86.0428C15.5243 85.1121 15.5305 84.1476 15.3793 83.2108C15.2364 82.3779 14.9176 81.5254 14.2626 80.9608C13.5654 80.349 12.569 80.202 11.6784 80.3346Z" fill="white"/>
<path d="M25.102 79.1541C26.1509 77.9314 27.7787 77.1252 29.4076 77.2774C29.4055 78.4281 29.4065 79.5798 29.4065 80.7315C28.3731 80.7408 27.2954 80.7799 26.3442 81.2323C25.9298 81.4472 25.5144 81.7753 25.3622 82.2288C25.3478 85.3106 25.3612 88.3945 25.355 91.4774C24.1107 91.4743 22.8665 91.4794 21.6222 91.4743C21.6202 86.8304 21.6253 82.1866 21.6191 77.5427C22.7801 77.5325 23.9411 77.5386 25.102 77.5386C25.1041 78.0764 25.1041 78.6153 25.102 79.1541Z" fill="white"/>
<path d="M34.2376 77.6549C35.6587 77.2004 37.1868 77.1633 38.6552 77.3741C39.8902 77.5716 41.1725 78.0611 41.9468 79.0945C42.5422 79.8585 42.7212 80.8632 42.6564 81.8123C42.6605 85.033 42.6348 88.2557 42.6749 91.4764C41.5859 91.4764 40.4969 91.4754 39.4079 91.4764C39.301 91.0733 39.1951 90.6722 39.0892 90.2702C38.1359 90.8964 37.0583 91.3355 35.9333 91.5237C34.8052 91.7036 33.5949 91.7304 32.5368 91.2378C31.6134 90.8234 30.8956 89.9966 30.5974 89.029C30.2303 87.8557 30.2971 86.5014 30.9563 85.4423C31.5465 84.4983 32.5214 83.8761 33.5209 83.4422C35.2916 82.6885 37.2094 82.3758 39.1097 82.1517C39.0943 81.581 39.2136 80.9239 38.8043 80.4539C38.2264 79.7968 37.2567 79.7557 36.4474 79.8256C35.3163 79.9151 34.2705 80.5208 33.563 81.399C32.7332 80.928 31.9013 80.4591 31.0776 79.9768C31.8406 78.8827 32.9707 78.06 34.2376 77.6549ZM35.7287 85.1471C35.1569 85.396 34.5821 85.7405 34.2613 86.2947C33.8304 87.0104 33.9106 88.0017 34.4669 88.628C34.759 88.9395 35.1836 89.1226 35.6125 89.1113C36.8906 89.1349 38.0763 88.4789 39.0059 87.6439C39.0007 86.557 39.0069 85.47 39.0028 84.3841C37.8912 84.525 36.7693 84.7163 35.7287 85.1471Z" fill="white"/>
<path d="M52.415 77.3557C53.5791 77.1346 54.8377 77.1747 55.9308 77.6713C56.7442 78.0395 57.3602 78.7644 57.6574 79.6025C57.8856 80.2257 57.9761 80.893 57.9905 81.5553C57.9905 84.8551 57.9905 88.155 57.9905 91.4548C56.7668 91.4548 55.5432 91.4569 54.3195 91.4548C54.3195 88.3524 54.3205 85.251 54.3184 82.1486C54.2989 81.5388 54.2331 80.8694 53.8207 80.3871C53.4032 79.9336 52.7307 79.8997 52.158 79.9635C51.0207 80.1054 50.0345 80.7594 49.1728 81.4771C49.1728 84.8027 49.1728 88.1282 49.1728 91.4548C47.9553 91.4548 46.7398 91.4558 45.5233 91.4548C45.5233 86.9426 45.5213 82.4304 45.5233 77.9171C46.5403 77.7742 47.5583 77.6333 48.5753 77.4945C48.672 78.0405 48.7954 78.5835 48.9023 79.1285C49.9677 78.3593 51.1101 77.6251 52.415 77.3557Z" fill="white"/>
<path d="M61.9526 79.3834C62.8112 78.1978 64.1727 77.3658 65.6411 77.2548C66.5861 77.2003 67.5579 77.2856 68.4391 77.6466C69.1096 77.9181 69.7348 78.3798 70.0556 79.0451C70.1451 78.532 70.2459 78.0209 70.3261 77.5078C71.3606 77.481 72.3961 77.5026 73.4316 77.4964C73.4316 82.093 73.4316 86.6885 73.4316 91.285C73.41 92.6404 73.1097 94.0841 72.1503 95.098C71.0798 96.2281 69.4942 96.6559 67.9928 96.806C66.2612 96.9726 64.4154 96.877 62.8626 96.0132C61.8682 95.4723 61.0826 94.516 60.8636 93.389C62.0708 93.1946 63.277 92.9992 64.4842 92.8049C64.5789 93.1607 64.7434 93.5226 65.0642 93.7293C65.7079 94.1479 66.511 94.1736 67.2545 94.1633C67.962 94.1612 68.725 93.9689 69.2145 93.425C69.7513 92.8224 69.8644 91.9771 69.888 91.2007C69.8818 90.6146 69.9024 90.0274 69.8736 89.4413C69.5065 90.0367 69.0695 90.6187 68.4484 90.9652C67.5548 91.4743 66.4864 91.5164 65.4869 91.4208C64.1171 91.2768 62.7917 90.6002 61.9412 89.503C60.8687 88.1538 60.4934 86.3821 60.478 84.6895C60.442 82.8344 60.8338 80.8981 61.9526 79.3834ZM66.4278 79.8924C65.892 79.9901 65.3974 80.2811 65.0467 80.6976C64.5429 81.2858 64.3094 82.0529 64.2025 82.8077C64.0894 83.6663 64.113 84.5373 64.1932 85.398C64.292 86.2432 64.4945 87.142 65.1053 87.7723C65.5599 88.267 66.2509 88.4757 66.9069 88.4551C67.6113 88.4726 68.3414 88.2392 68.8433 87.7281C69.3944 87.1636 69.6515 86.3821 69.7821 85.618C69.8983 84.8931 69.9291 84.1547 69.9004 83.4216C69.8387 82.421 69.5476 81.3793 68.8319 80.6472C68.2232 80.0107 67.2874 79.734 66.4278 79.8924Z" fill="white"/>
<path d="M77.2188 79.2785C78.1556 78.1382 79.5706 77.4698 81.0195 77.2949C82.638 77.1047 84.38 77.3001 85.7744 78.2029C86.9117 78.9258 87.6994 80.1105 88.0871 81.3897C88.4398 82.5691 88.557 83.8196 88.4531 85.0463C85.3785 85.0453 82.3049 85.0474 79.2323 85.0453C79.2384 85.978 79.3783 86.9549 79.8873 87.7549C80.2997 88.4058 81.0143 88.8223 81.7701 88.9323C82.5506 89.0454 83.3846 88.9992 84.0993 88.6351C84.7337 88.3153 85.2232 87.7755 85.6253 87.1986C86.5209 87.7004 87.4197 88.2002 88.3195 88.6948C87.4947 90.1632 85.9698 91.137 84.3491 91.4918C82.6936 91.8424 80.9105 91.8486 79.3217 91.208C78.0847 90.7164 77.0625 89.7426 76.4672 88.5539C75.699 87.0289 75.5417 85.2746 75.6496 83.5923C75.7617 82.0509 76.2111 80.4786 77.2188 79.2785ZM80.0847 80.5475C79.5685 81.1213 79.3485 81.8997 79.2878 82.6545C81.1552 82.6586 83.0226 82.6555 84.89 82.6565C84.8705 81.9131 84.7008 81.1295 84.1918 80.5629C83.616 79.9079 82.6956 79.6714 81.8524 79.7341C81.1912 79.7742 80.529 80.0446 80.0847 80.5475Z" fill="white"/>
</svg>
