<svg width="143" height="62" viewBox="0 0 143 62" fill="none" xmlns="http://www.w3.org/2000/svg">
<path d="M69.4714 23.5514C65.1693 23.5514 62.5692 27.2566 62.5692 31.4246C62.5692 35.5058 64.7063 39.2979 69.616 39.2979C72.6219 39.2979 75.7667 37.3871 75.7667 36.1408C75.7667 35.4169 75.3051 35.0115 74.8427 35.0115C73.8894 35.0115 73.0234 37.0958 69.6453 37.0958C66.7825 37.0958 65.1107 35.0402 65.1107 32.4069H74.6702C75.7667 32.4069 76.0844 31.9427 76.0844 31.0436C76.0844 27.3442 73.6589 23.5514 69.4714 23.5514ZM65.1107 30.4983C65.198 28.1535 66.3273 25.6358 69.4714 25.752C72.2726 25.752 73.543 28.2992 73.543 30.4983H65.1107Z" fill="#0A9828"/>
<path d="M48.9494 43.0181C42.5683 43.0181 37.2621 39.3904 36.2565 33.2177L32.6129 42.6465H25.4559L21.8288 33.2729C20.8032 39.4134 15.5113 43.0181 9.14735 43.0181C8.64636 43.0181 8.15468 42.9937 7.66943 42.9464L12.2384 60.0433L57.9121 47.7738L56.1536 41.1949C54.096 42.3853 51.6176 43.0181 48.9494 43.0181Z" fill="#0A9828"/>
<path d="M44.5994 31.1712C44.5994 33.831 46.3887 35.6564 48.9494 35.6564C51.5102 35.6564 53.3009 33.831 53.3009 31.1712C53.3005 30.8161 53.2635 30.4619 53.1907 30.1143L53.0382 29.5403C52.4714 27.8499 51.0135 26.6229 48.9494 26.6229C46.2656 26.6236 44.5994 28.6965 44.5994 31.1712Z" fill="#0A9828"/>
<path d="M13.4988 31.1712C13.4988 28.6965 11.832 26.6237 9.14738 26.6237C6.4628 26.6237 4.79523 28.6965 4.79523 31.1712C4.79523 33.831 6.58447 35.6564 9.14667 35.6564C11.7089 35.6564 13.4988 33.831 13.4988 31.1712Z" fill="#0A9828"/>
<path d="M17.2734 21.4761L16.4424 19.3236H25.2684L28.3538 29.9341L29.028 32.3256C29.028 32.3256 29.3737 31.0786 29.7115 29.9341L32.7983 19.3236H41.6243L40.7826 21.5034C43.0091 19.8639 45.8583 18.9526 48.9494 18.9526C49.3788 18.9526 49.8032 18.9713 50.2205 19.005L45.6729 2L0 14.263L1.78924 20.9595C3.87908 19.668 6.41766 18.9505 9.1459 18.9505C12.2198 18.9533 15.0511 19.8545 17.2734 21.4761Z" fill="#0A9828"/>
<path d="M141.841 23.5514C141.206 23.5514 140.801 23.9568 140.629 24.5064L137.163 35.0717H137.105L133.583 24.5064C133.41 23.9568 132.947 23.5514 132.312 23.5514C131.735 23.5514 131.157 23.9855 131.157 24.6226C131.157 24.9096 131.215 25.1722 131.504 26.0404L135.839 38.5739L134.221 42.8876C133.903 43.7558 133.845 44.0155 133.845 44.3054C133.845 44.9425 134.424 45.3766 135.001 45.3766C135.636 45.3766 136.041 44.9705 136.242 44.4209L142.654 26.0404C142.94 25.1722 143 24.9118 143 24.6226C142.996 23.9869 142.42 23.5514 141.841 23.5514Z" fill="#0A9828"/>
<path d="M84.9797 23.5511C83.4496 23.5511 81.86 24.1308 80.7342 25.5773L80.6763 25.5192V24.9115C80.6763 24.072 80.186 23.5482 79.4066 23.5482C78.6272 23.5482 78.1355 24.0691 78.1355 24.9115V37.9365C78.1355 38.7759 78.6272 39.2997 79.4066 39.2997C80.186 39.2997 80.6763 38.7781 80.6763 37.9365V29.5416C80.6763 26.8495 82.5535 25.7503 84.229 25.7503C85.9044 25.7503 87.7803 26.8495 87.7803 29.5416V37.9365C87.7803 38.7759 88.272 39.2997 89.0513 39.2997C89.8307 39.2997 90.3217 38.7781 90.3217 37.9365V29.3981C90.321 25.0564 87.3473 23.5511 84.9797 23.5511Z" fill="#0A9828"/>
<path d="M128.065 23.5514C127.373 23.5514 126.706 23.8994 126.706 24.7963V25.4937H126.647C125.983 24.5681 124.395 23.5564 122.749 23.5564C118.417 23.5564 115.991 27.3492 115.991 31.4297C115.991 35.5101 118.417 39.3029 122.749 39.3029C124.481 39.3029 125.867 38.434 126.647 37.103H126.706V38.434C126.706 40.6346 125.752 43.181 122.518 43.181C119.775 43.181 118.648 41.3873 117.492 41.3873C116.684 41.3873 116.424 42.0524 116.424 42.574C116.424 43.8763 119.687 45.3817 122.315 45.3817C126.474 45.3817 129.246 42.6027 129.246 38.0286V24.7963C129.249 23.8994 128.556 23.5514 128.065 23.5514ZM122.753 37.098C119.633 37.098 118.536 34.0299 118.536 31.4246C118.536 28.8194 119.633 25.752 122.753 25.752C125.872 25.752 126.97 28.8194 126.97 31.4246C126.97 34.0299 125.871 37.098 122.753 37.098Z" fill="#0A9828"/>
<path d="M99.2744 23.5514C94.9716 23.5514 92.3722 27.2566 92.3722 31.4246C92.3722 35.5058 94.5093 39.2979 99.4189 39.2979C102.425 39.2979 105.57 37.3871 105.57 36.1408C105.57 35.4169 105.108 35.0115 104.646 35.0115C103.692 35.0115 102.827 37.0958 99.4476 37.0958C96.5848 37.0958 94.9136 35.0402 94.9136 32.4069H104.472C105.57 32.4069 105.887 31.9427 105.887 31.0436C105.887 27.3442 103.462 23.5514 99.2744 23.5514ZM94.9136 30.4983C95.0009 28.1535 96.1267 25.6358 99.2744 25.752C102.076 25.752 103.346 28.2992 103.346 30.4983H94.9136Z" fill="#0A9828"/>
<path d="M114.003 23.5511C112.53 23.5511 111.115 25.0277 110.537 26.2145H110.48V24.9115C110.48 24.072 109.988 23.5482 109.209 23.5482C108.43 23.5482 107.939 24.0691 107.939 24.9115V37.9365C107.939 38.7759 108.43 39.2997 109.209 39.2997C109.988 39.2997 110.48 38.7781 110.48 37.9365V30.6135C110.48 27.6323 112.327 26.5036 113.829 26.2432C114.902 26.0401 115.418 25.5773 115.418 24.8548C115.418 24.1323 114.899 23.5511 114.003 23.5511Z" fill="#0A9828"/>
</svg>
