<?xml version="1.0" encoding="UTF-8" standalone="no"?><!DOCTYPE svg PUBLIC "-//W3C//DTD SVG 1.1//EN" "http://www.w3.org/Graphics/SVG/1.1/DTD/svg11.dtd"><svg width="100%" height="100%" viewBox="0 0 192 192" version="1.1" xmlns="http://www.w3.org/2000/svg" xmlns:xlink="http://www.w3.org/1999/xlink" xml:space="preserve" xmlns:serif="http://www.serif.com/" style="fill-rule:evenodd;clip-rule:evenodd;stroke-linejoin:round;stroke-miterlimit:1.41421;"><g id="g3256"><path id="path2494" d="M131.98,115.243c-1.608,-4.795 -8.09,-16.833 -13.185,-23.606c-1.102,-1.476 -0.69,-2.234 -0.101,-2.712c0.587,-0.477 2.484,-2.116 4.728,-4.683c2.267,-2.592 2.812,-5.523 1.209,-9.762c-1.595,-4.199 -6.863,-14.18 -7.97,-17.487c-1.268,-3.812 -1.395,-5.51 -0.631,-7.586c0.901,-2.447 2.215,-2.55 3.205,-2.535c0.533,0.011 0.931,0.572 0.934,0.828c0.026,1.078 0.081,2.41 1.132,5.196c1.68,4.436 5.989,7.334 7.35,7.919c0.946,0.41 1.117,-0.324 1.034,-0.679c-0.088,-0.35 -1.49,-5.849 -2.544,-9.98c-1.099,-4.331 -1.654,-5.271 -2.633,-6.189c-1.56,-1.481 -3.932,-2.274 -5.939,-2.197c-4.475,0.175 -6.453,4.5 -6.698,4.9c-0.213,0.36 -0.296,0.612 -0.752,0.296c-1.279,-0.894 -5.016,-4.015 -5.36,-5.969c-0.202,-1.157 -0.403,-1.317 -1.558,-1.766c-4.491,-1.752 -8.381,-3.292 -12.688,-4.052c-1.726,-0.305 -1.818,-0.454 -3.833,-0.079c-3.422,0.639 -5.521,1.428 -8.09,2.775c-1.418,0.752 -1.582,1.255 -1.858,1.61c-0.212,0.281 -0.442,0.616 -0.955,0.782c-0.854,0.279 -4.029,1.461 -5.117,2.095c-0.679,0.394 -1.05,0.81 -0.701,1.577c0.609,1.354 2.436,4.175 3.233,4.885c0.484,0.427 1.698,0.723 1.987,0.784c0.287,0.07 0.491,0.153 0.598,-0.061c0.118,-0.237 0.162,-0.581 0.732,-0.979c0.852,-0.598 2.436,-1.013 3.279,-1.087c0.646,-0.055 1.041,-0.074 1.373,0.164c0.331,0.243 1.096,1.058 1.361,1.878c0.265,0.819 0.098,1.126 -0.359,1.318c-0.46,0.193 -1.836,0.504 -3.431,0.633c-1.588,0.13 -2.042,-0.311 -2.153,-0.409c-0.084,-0.09 -0.294,-0.226 -0.456,-0.011c-0.267,0.372 -0.668,0.613 -1.29,0.922c-0.353,0.171 -0.541,0.546 -0.206,1.13c1.012,1.751 2.346,3.718 3.584,4.093c0.986,0.306 1.513,-0.016 2.622,-0.807c0.99,-0.716 1.634,-0.712 1.906,-0.512c0.298,0.223 0.896,0.729 0.742,1.235c-0.263,0.879 -2.035,2.975 -2.374,3.407c-0.32,0.407 -0.622,0.626 -1.194,0.352c-0.839,-0.4 -13.556,-6.999 -15.256,-7.66c-1.851,-0.712 -3.066,-0.885 -4.889,-0.968c-1.474,-0.066 -3.441,0.076 -4.673,0.3c-0.898,0.166 -1.408,0.591 -2.245,1.364c-1.152,1.065 -2.368,2.425 -2.482,3.56c-0.083,0.817 0.826,2.482 0.925,2.598c0.098,0.125 0.267,0.355 0.76,0.3c0.501,-0.054 1.759,-0.709 3.261,-0.449c1.361,0.237 1.499,1.306 1.569,2.125c0.011,0.14 0.182,0.458 0.567,0.451c0.541,-0.006 1.389,0.011 2.368,0.48c1.207,0.572 3.595,2.423 3.963,2.833c0.298,0.335 0.278,0.637 -0.289,0.692c-3.034,0.269 -7.65,1.17 -9.783,1.871c-1.516,0.495 -3.304,1.176 -3.935,2.274c-0.716,1.244 -1.623,3.239 -1.879,4.665c-0.261,1.418 1.257,3.177 1.663,3.569c0.273,0.265 0.46,0.432 0.944,0.166c0.74,-0.424 2.534,-1.531 4.252,-1.634c1.042,-0.059 1.459,0.923 1.708,1.282c0.252,0.355 0.493,0.109 1.426,-0.143c1.654,-0.444 10.881,-0.276 14.139,-0.122c1.489,0.063 3.562,0.285 5.086,1.126c1.516,0.834 4.261,3.426 4.261,3.426c0,0 -3.645,6.112 -5.608,9.735c-1.818,3.347 -3.144,5.862 -3.798,7.319c-0.603,1.332 -1.094,3.22 -0.986,4.707c0.164,2.178 0.221,3.295 0.195,4.281c-0.029,0.867 -0.837,0.961 -1.983,1.244c-1.581,0.403 -4.734,0.692 -7.288,1.321c-2.322,0.578 -3.187,1.126 -3.608,2.92c-0.324,1.398 -0.804,4.87 -0.861,6.48c-0.026,0.648 -0.037,0.966 0.787,0.795c0.473,-0.092 1.84,-0.289 3.579,-0.416c2.156,-0.164 4.489,-0.132 6.292,-0.136c3.318,-0.02 13.115,0.552 13.774,0.618c0.837,0.083 1.006,-0.02 0.951,-0.605c-0.081,-0.771 -0.221,-3.233 -0.257,-4.701c-0.041,-1.474 -0.262,-2.966 1.065,-4.399c1.321,-1.437 11.306,-12.569 11.858,-13.141c0.484,-0.484 0.808,-1.001 1.549,-0.322c0.751,0.69 8.97,6.616 10.642,7.827c1.669,1.211 3.222,1.623 5.123,1.649c1.356,0.025 1.735,2.39 0.581,2.614c-1.185,0.226 -2.988,0.598 -4.25,0.885c-1.945,0.456 -2.541,1.089 -3.126,2.401c-0.501,1.106 -1.051,6.545 -1.069,7.016c-0.015,0.338 -0.035,0.828 0.5,0.717c2.398,-0.487 6.201,-0.625 10.269,-0.498c4.668,0.145 9.203,0.531 9.838,0.568c0.688,0.048 0.754,-0.055 1.1,-0.592c0.589,-0.922 2.346,-2.953 3.875,-4.206c0.765,-0.622 0.78,-0.88 0.462,-1.818m-17.934,-32.888c-1.185,0.388 -1.956,0.053 -2.533,-0.497c-0.58,-0.552 -5.29,-6.221 -6.806,-7.954c-0.762,-0.874 -1.334,-2.87 0.964,-3.72c1.884,-0.685 5.262,-1.77 6.2,-2.265c0.939,-0.495 1.432,-1.003 1.522,-1.965c0.074,-0.966 0.083,-2.05 0.088,-2.411c0.006,-0.364 0.477,-0.655 0.718,-0.228c0.167,0.302 1.012,1.952 2.044,3.86c1.542,2.865 3.487,6.447 4.121,7.987c0.598,1.469 0.304,2.591 -0.607,3.721c-1.236,1.529 -4.844,3.19 -5.711,3.472" style="fill:#231f20;fill-rule:nonzero;"/><path id="path2520" d="M118.862,42.654c-3.676,-0.018 -7.4,4.243 -6.69,10.596c0.44,3.89 1.034,5.662 2.186,8.177c0.574,1.24 6.848,13.19 7.14,14.454c0.39,1.809 0.043,2.94 -1.345,4.203c-1.536,1.389 -4.075,2.967 -5.788,3.556c-0.407,0.138 -0.78,0.208 -1.117,0.208c-0.388,0 -1.358,-0.134 -3.194,-2.394l8.109,10.819c-1.036,-1.384 -1.57,-2.429 -1.382,-3.345c0.186,-0.905 1.665,-1.891 3.361,-3.229c1.704,-1.321 3.588,-2.992 4.451,-5.251c0.252,-0.644 0.361,-1.31 0.361,-2.009c0,-2.157 -1.045,-4.6 -2.304,-7.251c-1.621,-3.434 -6.217,-10.933 -7.615,-16.188c-0.339,-1.29 -0.495,-2.449 -0.495,-3.481c0,-2.979 1.269,-4.868 2.82,-5.512c0.742,-0.298 1.41,-0.401 1.962,-0.401c0.855,0 1.448,0.239 1.689,0.364c0.434,0.248 0.5,0.767 0.5,1.176l0,0.09c-0.005,0.092 -0.013,0.314 -0.013,0.642c0,1.225 0.164,3.919 1.59,6.535c1.805,3.319 4.83,5.172 6.022,5.671c0.103,0.044 -2.786,-10.657 -3.303,-12.675c-0.601,-2.352 -2.259,-4.709 -6.901,-4.755c-0.004,-0.003 -0.011,-0.003 -0.017,-0.003c-0.007,0 -0.016,0 -0.027,0.003" style="fill:url(#_Linear1);fill-rule:nonzero;"/><path id="path2546" d="M68.399,66.428c0.708,0.71 -0.523,0.671 -4.26,0.993c-3.81,0.333 -7.643,1.101 -9.65,1.853c-1.465,0.552 -2.353,0.944 -2.94,2.289c0,0 -1.22,2.651 -1.382,3.698c-0.081,0.497 -0.053,0.78 0.206,1.196c0.142,0.223 0.493,-6.907 9.693,-7.376c8.141,-0.416 10.143,-1.268 8.552,-2.826l-0.219,0.173Z" style="fill:url(#_Linear2);fill-rule:nonzero;"/><path id="path2572" d="M119.281,45.931c-0.498,0 -1.096,0.09 -1.77,0.37c-1.282,0.519 -2.46,2.129 -2.515,4.87l0.015,0.624c0,0 0.175,-1.864 0.504,-2.74c0.817,-2.375 2.34,-2.868 3.387,-2.868c0.694,0 1.014,0.166 1.312,0.482c0.23,0.252 0.385,0.484 0.414,0.841c0.026,1.06 0.066,2.278 1.095,5.025c0.064,0.167 0.129,0.333 0.2,0.493c-0.872,-2.217 -0.98,-4.278 -0.98,-5.327c-0.002,-0.338 0.016,-0.73 0.016,-0.732c0.004,-0.802 -0.877,-1.038 -1.667,-1.038c-0.005,0 -0.007,0 -0.011,0" style="fill:url(#_Linear3);fill-rule:nonzero;"/><path id="path2596" d="M68.719,66.739c0.278,0.752 -0.821,0.574 -4.558,0.898c-3.81,0.333 -7.646,1.069 -9.652,1.823c-1.47,0.554 -2.355,0.942 -2.942,2.291c0,0 -1.22,2.651 -1.387,3.698c-0.077,0.493 0.046,0.782 0.307,1.196c0.39,0.616 0.639,0.749 1.209,0.421c0.462,-0.263 2.497,-1.417 3.829,-1.442c1.218,-0.028 1.751,0.715 1.93,1.348c0.11,0.394 0.646,0.19 0.738,0.166c0.535,-0.134 1.054,-0.293 2.956,-0.434c2.26,-0.164 11.08,-0.087 14.315,-0.013c2.911,0.068 14.377,9.063 14.548,9.109l0.576,-1.166c-3.895,-3.218 -18.364,-14.692 -21.864,-18.112l-0.005,0.217Z" style="fill:url(#_Linear4);fill-rule:nonzero;"/><path id="path2632" d="M57.142,53.436c-0.719,0.09 -1.209,0.125 -1.965,0.83c-0.745,0.692 -2.04,1.634 -2.541,2.591c-0.193,0.364 -0.289,0.616 -0.239,0.945c0.075,0.468 0.294,0.959 0.421,1.112c0.135,0.165 0.319,0.241 0.701,0.136c0.771,-0.208 2.142,-0.387 2.972,-0.366c0.592,0.011 1.444,0.16 1.834,0.607c0.523,0.609 0.488,1.111 0.504,1.374c0.002,0.114 0.043,0.335 0.295,0.372c0.52,0.072 1.085,0.072 1.687,0.208c1.691,0.37 3.97,1.814 6.094,3.768c4.117,3.801 9.234,9.485 14.141,13.404c2.484,1.974 6.554,4.45 7.899,5.797c0.248,0.25 -0.289,0.436 -0.696,0.228c-0.187,-0.092 -2.5,-1.906 -3.004,-2.033c-0.429,-0.105 -0.876,0 -1.316,0.615c-3.849,5.317 -8.279,14.241 -10.084,18.472c-0.423,1.005 -0.786,2.267 -0.731,3.406c0.057,1.143 0.177,3.424 0.197,4.495c0.011,1.047 -0.246,1.47 -1.492,1.669c-2.287,0.353 -7.367,1.266 -8.662,1.584c-0.975,0.234 -1.792,0.679 -2.168,1.81c-0.541,1.638 -0.977,4.159 -1.017,4.773c-0.026,0.379 0.107,0.642 0.55,0.532c1.862,-0.469 4.743,-0.848 8.71,-0.769c3.969,0.086 11.043,0.785 11.958,0.868c0.318,0.026 0.699,0.03 0.695,-0.335c-0.009,-0.423 -0.11,-2.338 -0.14,-4.783c-0.024,-2.442 2.103,-4.234 5.051,-7.29c2.955,-3.067 10.081,-10.092 10.351,-10.337c0.177,-0.178 0.368,-0.349 0.009,-0.699c-0.5,-0.478 -2.774,-2.824 -3.032,-3.093c-0.13,-0.145 -0.421,-0.509 -0.307,-0.633c0.105,-0.13 0.379,0.078 0.73,0.368c1.377,1.119 16.442,13.251 17.492,13.722c1.073,0.468 1.726,0.609 2.687,0.777c0.723,0.132 1.356,1.201 1.459,1.996c0.106,0.797 0.057,1.853 -1.053,2.127c-1.107,0.276 -3.843,0.784 -4.807,1.049c-0.968,0.268 -1.618,0.701 -2.03,1.81c-0.416,1.117 -0.958,4.149 -0.968,4.407c-0.011,0.671 0.164,0.723 0.679,0.596c0.635,-0.149 1.382,-0.361 4.26,-0.458c4.85,-0.173 12.226,0.454 13.177,0.528c0.324,0.031 0.591,-0.3 0.705,-0.501c1.028,-1.775 0.736,-2.228 2.116,-3.35c0.717,-0.574 1.058,-0.688 0.609,-1.709c-4.506,-10.256 -8.786,-17.216 -15.726,-26.103c-4.449,-5.7 -9.643,-12.011 -11.389,-14.105l-20.938,-11.978c-1.24,-0.59 -10.922,-5.545 -12.589,-6.373c-1.672,-0.824 -3.019,-1.5 -4.728,-1.884c-1.196,-0.271 -2.383,-0.366 -3.489,-0.366c-1.052,0 -2.029,0.086 -2.872,0.189" style="fill:url(#_Linear5);fill-rule:nonzero;"/><path id="path2660" d="M80.483,43.615c-3.012,0.811 -6.863,2.381 -7.004,2.458c-0.081,0.053 -0.067,0.129 -0.026,0.221c0.035,0.081 0.438,0.778 0.438,0.778c0,0 0.202,0.473 0.785,0.8c0.576,0.326 1.143,0.462 1.288,0.497c0.151,0.031 0.219,-0.033 0.271,-0.112c0.044,-0.066 0.611,-1.154 2.697,-1.695c1.128,-0.285 1.844,-0.318 2.193,-0.318c0.543,0.013 1.384,0.28 1.853,0.738c0.762,0.752 1.43,1.996 1.544,2.592c0.123,0.578 0.027,1.299 -0.55,1.599c-0.578,0.293 -2.26,0.692 -3.318,0.797c-1.096,0.11 -2.16,0.055 -2.793,-0.309c-0.099,-0.054 -0.171,-0.065 -0.268,0.011c-0.238,0.2 -0.383,0.362 -0.85,0.64c-0.107,0.061 -0.173,0.193 -0.072,0.394c0.101,0.202 1.422,2.395 2.224,2.984c0.795,0.596 1.22,0.328 2.173,-0.199c0.957,-0.528 1.603,-1.175 2.593,-1.142c1.006,0.027 1.858,0.881 2.014,1.873c0.188,1.207 -0.585,1.994 -1.056,2.738c-0.46,0.73 -1.404,1.816 -1.891,2.425c-0.618,0.78 -1.796,0.542 -1.796,0.542c0,0 5.577,2.834 8.786,4.446c1.271,0.645 3.267,0.046 4.62,-2.488c0.316,-0.589 2.322,-4.835 2.824,-6.099c0.504,-1.259 1.216,-2.659 0.07,-5.067c-1.15,-2.398 -4.712,-6.836 -6.129,-8.539c-0.745,-0.889 -1.619,-1.434 -3.499,-1.535c-0.243,-0.013 -0.495,-0.02 -0.755,-0.02c-1.718,0 -3.794,0.296 -6.366,0.99" style="fill:url(#_Radial6);fill-rule:nonzero;"/><path id="path2682" d="M80.638,52.128c-1.073,0.099 -2.116,0.05 -2.736,-0.285c-0.096,-0.05 -0.166,-0.059 -0.26,0.009c-0.237,0.186 -0.377,0.335 -0.835,0.591c-0.103,0.055 -0.171,0.178 -0.068,0.364c0.096,0.186 1.29,2.191 2.101,2.765c0.81,0.584 1.242,0.322 2.212,-0.195c0.973,-0.517 1.63,-1.148 2.636,-1.118l0.201,-2.869c-0.563,0.274 -2.214,0.642 -3.251,0.738" style="fill:url(#_Radial7);fill-rule:nonzero;"/><path id="path2708" d="M73.681,46.174c-0.077,0.05 -0.066,0.206 -0.026,0.287c0.035,0.074 0.418,0.707 0.418,0.707c0,0 0.191,0.432 0.743,0.728c0.547,0.293 1.003,0.438 1.148,0.473c0.151,0.031 0.219,-0.033 0.271,-0.112c0.044,-0.066 0.611,-1.154 2.697,-1.695c1.128,-0.285 1.844,-0.318 2.193,-0.318l-0.791,-2.305c-2.863,0.739 -6.522,2.165 -6.653,2.235" style="fill:url(#_Radial8);fill-rule:nonzero;"/><path id="path2738" d="M84.638,59.215c-0.457,0.727 -1.406,1.816 -1.89,2.422c-0.618,0.78 -1.516,0.441 -1.516,0.441c0,0 5.277,2.683 8.486,4.295c1.271,0.645 3.192,0.206 4.546,-2.33c0.315,-0.587 2.324,-4.835 2.821,-6.097l-11.391,-1.551c0.189,1.205 -0.587,2.075 -1.056,2.82" style="fill:url(#_Radial9);fill-rule:nonzero;"/><path id="path2764" d="M67.451,73.34c-1.347,0.076 -4.522,0.37 -5.426,0.574c-0.879,0.208 -2.335,1.393 -2.528,1.599c-0.331,0.346 -0.324,0.637 -0.079,0.736c0.21,0.081 0.67,0.011 1.045,-0.02c1.11,-0.096 4.136,-0.191 7.562,-0.195c1.776,-0.002 3.711,0.018 5.238,0.037c1.588,0.022 2.736,0.042 2.815,0.035c-1.321,-1.437 -2.443,-3.183 -2.888,-3.205c-0.011,0 -0.022,0 -0.037,0c-0.631,0 -5.33,0.419 -5.702,0.439" style="fill:url(#_Linear10);fill-rule:nonzero;"/><path id="path2776" d="M59.392,76.309l0.024,-0.061l-0.024,0.061c-0.133,-0.05 -0.219,-0.171 -0.217,-0.311c0,-0.16 0.092,-0.339 0.274,-0.53c0.206,-0.217 1.65,-1.4 2.563,-1.619c0.916,-0.206 4.081,-0.497 5.435,-0.574c0.37,-0.02 5.06,-0.438 5.705,-0.44c0.015,0 0.028,0 0.041,0.002c0.151,0.011 0.305,0.136 0.497,0.326c0.191,0.193 0.417,0.458 0.666,0.769c0.502,0.62 1.111,1.416 1.768,2.13l0.094,0.1l-0.138,0.011c-0.013,0 -0.035,0 -0.072,0c-0.559,0 -4.204,-0.074 -7.498,-0.074c-0.162,0 -0.322,0 -0.485,0c-3.426,0.006 -6.449,0.101 -7.555,0.195c-0.245,0.022 -0.528,0.059 -0.758,0.059c-0.123,0 -0.232,-0.011 -0.32,-0.044m0.32,-0.09c0.217,0 0.497,-0.035 0.745,-0.057c1.117,-0.096 4.14,-0.188 7.568,-0.195c0.16,0 0.323,0 0.485,0c3.165,0 6.655,0.068 7.417,0.075c-0.953,-1.056 -1.792,-2.245 -2.331,-2.784c-0.182,-0.189 -0.337,-0.289 -0.409,-0.289c-0.009,0 -0.02,0 -0.035,0c-0.627,0 -5.324,0.418 -5.696,0.438c-1.347,0.076 -4.524,0.368 -5.415,0.571c-0.848,0.193 -2.32,1.387 -2.495,1.58c-0.169,0.177 -0.239,0.335 -0.239,0.44c0.002,0.092 0.041,0.147 0.136,0.189c0.057,0.021 0.155,0.035 0.269,0.032" style="fill:#7f7d7e;fill-rule:nonzero;"/><path id="path2810" d="M79.907,39.008c-1.183,0.719 -1.234,1.6 -2.064,2.081c-0.824,0.482 -2.721,0.914 -4.714,1.806c-1.102,0.49 -1.106,0.571 -0.843,1.191c0.103,0.259 0.819,1.562 1.182,1.562c0.36,0.011 0.796,-0.175 1.236,-0.353c0.589,-0.232 4.519,-1.754 7.641,-2.42c3.476,-0.745 7.214,-0.809 8.541,0.596c2.02,2.138 5.564,6.929 6.638,9.005c1.058,2.057 0.95,3.056 0.247,5.164c-0.646,1.951 -3.095,7.016 -3.816,8.065c-0.725,1.052 -1.601,1.635 -3.698,0.778c-2.247,-0.924 -10.526,-5.172 -12.326,-6.081c-1.218,-0.614 -6.333,-3.205 -10.206,-5.146c-1.426,-0.718 -2.607,-1.24 -3.893,-1.564c-2.848,-0.725 -5.906,-0.399 -7.317,-0.166c-0.644,0.107 -1.045,1.141 -1.016,1.561c0.026,0.344 0.69,0.301 1.496,0.257c0.416,-0.024 0.87,-0.048 1.297,-0.018c1.008,0.07 4.458,0.443 6.449,1.251c2.103,0.85 12.631,6.522 15.288,7.95c20.253,11.021 28.919,18.114 44.57,44.417c0.699,1.176 1.037,2.617 -0.07,2.946c-1.603,0.467 -8.278,1.739 -10.298,2.401c-1.697,0.558 -1.923,0.692 -2.171,1.531c-0.278,0.96 -0.709,2.857 -0.606,3.24c0.043,0.158 -0.09,0.361 0.254,0.361c1.877,0 8.613,0.007 13.803,0.498c0.626,0.065 0.661,0.05 1.056,-0.548c0.453,-0.697 2.249,-2.751 3.43,-3.625c0.495,-0.368 0.162,-1.054 0.081,-1.278c-1.483,-3.735 -5.673,-11.838 -11.411,-20.265c-5.632,-8.291 -15.178,-19.518 -16.497,-21.382c-1.29,-1.83 -1.796,-3.887 0.894,-4.734c1.756,-0.559 5.987,-1.435 7.717,-1.919c1.685,-0.462 1.807,-1.008 1.948,-2.311c0.142,-1.409 -0.241,-8.248 -1.089,-12.323c-0.178,-0.845 -0.745,-1.55 -1.424,-2.032c-0.602,-0.419 -2.925,-2.445 -4.208,-3.911c-1.477,-1.684 -2.147,-3.272 -2.388,-4.495c0,0 -0.042,-0.26 -0.331,-0.534c-0.107,-0.114 -0.19,-0.169 -0.372,-0.274c-2.53,-1.558 -11.475,-4.002 -13.299,-4.16c-0.097,-0.009 -0.213,-0.013 -0.346,-0.013c-1.586,-0.002 -5.641,0.655 -9.365,2.891" style="fill:url(#_Linear11);fill-rule:nonzero;"/><path id="path2832" d="M55.957,55.455c0.626,0 2.087,-0.046 3.067,0.062c1.886,0.208 4.265,0.729 5.763,1.308c2.123,0.825 12.097,6.771 14.675,8.212c7.768,4.403 13.674,8.452 19.216,12.916c8.473,6.826 15.788,14.741 24.958,30.8c0.361,0.622 0.554,1.1 0.554,1.682c0.033,0.896 -0.738,1.221 -0.999,1.291c-1.579,0.475 -8.053,1.934 -9.97,2.596c-1.627,0.573 -1.929,0.935 -2.162,1.688c-0.085,0.316 -0.361,1.843 -0.683,2.25c-0.32,0.416 -1.067,0.502 -1.86,0.502c-0.488,0 -0.732,0.028 -0.681,-0.515c0.046,-0.541 0.368,-2.011 0.552,-2.854c0.182,-0.848 0.534,-1.483 1.305,-1.948c0.771,-0.471 3.455,-0.904 4.967,-1.275c1.504,-0.37 1.59,-1.071 1.561,-2.208c0,1.205 -0.418,1.499 -1.934,1.838c-1.538,0.342 -4.12,0.675 -4.97,1.258c-0.826,0.56 -1.146,1.345 -1.299,1.965c-0.515,2.146 -0.868,3.717 -0.809,4.245c0.051,0.469 0.237,0.534 0.76,0.475c0.522,-0.059 1.823,-0.243 3.775,-0.315c0.578,0 0.539,-0.703 0.532,-1.479c0,-0.28 0.013,-1.117 0.158,-1.527c0.144,-0.405 0.455,-0.782 0.948,-0.933c1.085,-0.337 7.1,-1.96 10.156,-2.872c1.339,-0.398 1.899,-0.823 1.777,-2.041c-0.108,-1.072 -1.087,-2.66 -2.828,-5.385c-1.753,-2.747 -3.954,-6.497 -6.886,-10.646c-5.204,-7.37 -10.328,-13.122 -16.694,-18.158c-4.703,-3.718 -9.634,-6.699 -13.253,-8.817c-3.619,-2.121 -18.897,-10.478 -21.267,-11.221c-2.153,-0.674 -3.864,-0.896 -5.395,-1.051c-1.043,-0.105 -1.913,-0.029 -2.837,-0.029c-0.876,0 -0.567,-0.709 -0.445,-0.992c-0.092,0.201 -0.615,1.178 0.248,1.178" style="fill:url(#_Linear12);fill-rule:nonzero;"/><path id="path2864" d="M83.797,83.009c-0.585,0.708 -3.581,5.466 -6.013,9.912c-1.759,3.221 -3.866,7.786 -4.276,8.892c-0.375,1.008 -0.443,1.934 -0.408,3.069c0.038,1.128 0.226,2.962 0.29,4.281c0.065,1.261 -0.257,1.82 -1.571,2.059c-1.115,0.199 -7.038,1.194 -8.497,1.549c-1.464,0.354 -1.922,1.08 -2.206,2.151c-0.29,1.069 -0.708,3.095 -0.725,3.559c-0.011,0.452 0.046,0.542 0.468,0.485c0.421,-0.06 1.317,-0.138 1.681,-0.165c0.381,-0.026 0.304,-0.309 0.418,-0.709c0.107,-0.36 0.184,-0.964 0.403,-1.895c0.217,-0.929 0.51,-1.652 1.796,-2.031c1.288,-0.381 7.115,-1.319 8.101,-1.588c0.984,-0.274 1.615,-0.697 1.722,-1.683c0.112,-0.977 -0.09,-3.066 -0.118,-4.764c-0.027,-1.781 -0.048,-2.574 0.953,-4.5c1.934,-3.693 7.941,-12.438 11.995,-17.5c0,0 -0.381,-0.283 -0.863,-0.634c-0.598,-0.438 -1.356,-0.979 -1.774,-1.112c-0.129,-0.04 -0.248,-0.06 -0.357,-0.06c-0.377,0 -0.653,0.235 -1.019,0.684" style="fill:url(#_Linear13);fill-rule:nonzero;"/><path id="path2890" d="M83.046,108.558c-1.093,2.403 -1.404,3.772 -1.404,4.964c0,1.036 0.105,1.402 0.105,1.402c-0.053,-1.049 0.337,-2.009 1.003,-2.971c0.896,-1.288 2.281,-2.602 3.978,-4.365c2.973,-3.085 10.222,-10.18 10.482,-10.436c0.162,-0.165 0.357,-0.395 -0.044,-0.783c-0.718,-0.687 -1.095,-1.13 -2.227,-2.265c-0.69,-0.692 -1.17,-1.11 -1.144,-1.351c-0.026,0 -8.105,9.084 -10.749,15.805" style="fill:url(#_Linear14);fill-rule:nonzero;"/><path id="path2918" d="M56.062,55.455l66.987,56.314c0.681,-0.149 1.101,-0.644 1.134,-1.126c0.04,-0.549 -0.07,-1.051 -0.433,-1.684c-9.322,-16.285 -16.301,-23.889 -24.798,-30.754c-1.47,-1.19 -2.957,-2.375 -4.508,-3.525c-4.303,-3.189 -9.028,-6.256 -14.748,-9.509c-1.64,-0.92 -6.265,-3.645 -9.969,-5.74c-2.136,-1.207 -3.967,-2.203 -4.741,-2.523c-1.485,-0.622 -3.842,-1.128 -5.763,-1.367c-0.616,-0.077 -1.262,-0.094 -1.937,-0.094c-0.396,0 -0.806,0.006 -1.224,0.008" style="fill:url(#_Linear15);fill-rule:nonzero;"/><path id="path2942" d="M103.344,39.685c0.18,0.108 0.348,0.215 0.478,0.351c0.449,0.423 0.549,0.839 0.563,0.929c0.221,1.099 0.83,2.576 2.227,4.168c1.203,1.387 3.687,3.44 4.206,3.803c0.331,0.224 0.658,0.449 0.934,0.758c0.159,-0.832 0.422,-1.75 0.795,-2.648c-0.062,0.096 -0.121,0.225 -0.232,0.368c-0.125,0.171 -0.377,0.39 -0.747,0.407l-0.011,0l-0.029,0c-0.318,-0.002 -0.55,-0.138 -0.74,-0.271c-1.343,-1.002 -5.107,-3.928 -5.648,-6.41c-0.339,-1.163 0.088,-0.633 -1.121,-1.244c-0.338,-0.134 -0.662,-0.265 -0.995,-0.388c0.114,0.059 0.224,0.118 0.32,0.177" style="fill:url(#_Linear16);fill-rule:nonzero;"/><path id="path2966" d="M111.164,66.864c-1.77,0.486 -6.133,1.376 -7.816,1.899c-1.253,0.454 -1.413,0.853 -1.452,1.479l0,0.007c0,0.58 0.267,1.485 0.83,2.26c0.651,0.931 3.81,4.52 7.328,8.945c0.407,0.493 0.572,0.681 0.911,1.025c-0.129,-0.169 -5.1,-6.458 -6.624,-8.195c-0.434,-0.511 -0.931,-1.194 -0.938,-2.092c-0.004,-0.894 0.681,-2.169 2.097,-2.657c1.89,-0.691 5.329,-1.806 6.111,-2.231c0.761,-0.438 0.988,-0.628 1.1,-1.147c-0.392,0.317 -0.9,0.525 -1.547,0.707" style="fill:url(#_Linear17);fill-rule:nonzero;"/><path id="path2992" d="M118.886,42.559c-3.358,0.079 -5.621,2.931 -6.276,5.597c0.682,-2.383 2.85,-5.198 6.292,-5.198c4.377,0 6.201,1.654 6.815,4.118c-0.763,-3.393 -3.67,-4.519 -6.568,-4.519c-0.087,0 -0.175,0 -0.263,0.002" style="fill:url(#_Linear18);fill-rule:nonzero;"/><path id="path3016" d="M87.282,107.951c-3.393,3.47 -4.931,4.548 -4.863,6.706c0.042,1.27 0.143,4.405 0.147,4.872c0,0.317 0.031,0.622 -0.506,0.902c-0.263,0.143 -0.721,0.143 -0.953,0.143c-0.924,0 -9.862,-0.872 -12.999,-0.872c-3.137,0 -5.827,0.348 -7.444,0.753c-0.265,0.062 -0.942,0.02 -1.215,-0.385c-0.145,-0.211 -0.193,-0.425 -0.206,-0.612c-0.068,0.612 -0.125,1.328 -0.125,1.635c0.563,-0.11 1.895,-0.294 3.61,-0.423c2.197,-0.173 4.686,-0.142 6.342,-0.142c1.658,0 13.961,0.637 14.007,0.639c-0.082,-0.946 -0.204,-3.196 -0.239,-4.6c-0.011,-0.364 -0.011,-0.359 -0.042,-1.365c0,-1.1 0.21,-2.383 1.293,-3.529c0.582,-0.633 2.85,-3.148 5.248,-5.818c-0.786,0.793 -1.496,1.522 -2.055,2.096" style="fill:url(#_Linear19);fill-rule:nonzero;"/><path id="path3040" d="M97.57,97.673c0.348,0.05 0.648,0.247 0.917,0.495c0.638,0.589 8.929,6.587 10.577,7.774c0.703,0.5 1.351,0.853 2.022,1.085c-0.563,-0.395 -1.394,-1.025 -2.482,-1.862c-1.586,-1.227 -3.61,-2.824 -5.648,-4.438c-1.719,-1.365 -3.443,-2.743 -4.911,-3.928c-0.024,0.517 -0.344,0.793 -0.475,0.874" style="fill:url(#_Linear20);fill-rule:nonzero;"/><path id="path3064" d="M117.454,89.059c-0.088,0.215 -0.193,0.506 -0.193,0.923c0,0.514 0.166,1.229 0.828,2.184c0.397,0.56 0.78,1.115 1.148,1.647c5.761,8.482 9.777,16.684 11.295,20.513c0.333,0.927 0.265,1.384 -0.035,1.798c0,0 -2.999,3.069 -3.361,3.643c-0.155,0.23 -0.271,0.423 -0.48,0.603c-0.203,0.186 -0.733,0.304 -1.235,0.263c-4.432,-0.414 -9.242,-0.592 -11.654,-0.592c-3.137,0 -4.966,0.305 -6.009,0.331c-0.565,0.015 -0.959,-0.116 -1.027,-0.21c-0.009,-0.016 -0.016,-0.029 -0.029,-0.042c-0.044,0.44 -0.072,0.771 -0.083,0.92c1.899,-0.344 4.46,-0.488 7.303,-0.488c0.903,0 1.832,0.015 2.785,0.039c4.677,0.145 10.114,0.576 10.127,0.576c0.013,-0.006 2.609,-3.314 4.217,-4.648c0.285,-0.226 0.394,-0.208 0.394,-0.43c0,-0.151 -0.083,-0.433 -0.221,-0.819c-1.674,-4.791 -8.053,-16.622 -13.012,-23.198c-0.473,-0.629 -0.789,-1.468 -0.789,-2.053c-0.002,-0.76 0.394,-1.314 0.802,-1.63c0.342,-0.282 1.185,-1.001 2.289,-2.099c-1.713,1.286 -2.914,2.307 -3.06,2.769" style="fill:url(#_Linear21);fill-rule:nonzero;"/><path id="path3086" d="M61.083,77.256c-1.889,0.138 -2.806,0.366 -2.99,0.412c-0.184,0.042 -0.296,0.029 -0.305,0.029c0.046,0.074 0.118,0.217 0.153,0.274c0.049,-0.018 0.121,-0.046 0.261,-0.086c1.137,-0.324 3.669,-0.477 6.83,-0.488c3.013,0 6.303,0.022 8.007,0.103c1.525,0.072 3.678,0.278 5.398,1.218c1.599,0.891 5.067,3.296 5.231,3.152c-1.406,-0.993 -2.896,-2 -4.245,-2.824c-1.779,-1.115 -3.47,-1.884 -3.974,-1.868c-5.411,-0.086 -5.411,-0.086 -8.596,-0.086c-2.48,0 -4.835,0.094 -5.77,0.164" style="fill:url(#_Linear22);fill-rule:nonzero;"/><path id="path3108" d="M58.673,61.81c0.083,0.009 0.208,0.005 0.362,0.003c0.519,-0.014 1.377,-0.022 2.157,0.35c1.376,0.681 4.874,3.266 5.413,3.827c0.66,0.762 1.326,0.686 0.739,0.178c-2.051,-1.906 -5.155,-4.103 -6.614,-4.406c-0.515,-0.118 -1.235,-0.175 -1.825,-0.199c-0.447,-0.029 -0.414,-0.552 -0.545,-0.649c0.015,0.092 0.041,0.879 0.313,0.896" style="fill:url(#_Linear23);fill-rule:nonzero;"/><path id="path3130" d="M55.455,76.174c-0.966,0.02 -3.415,1.238 -3.79,1.483c-0.569,0.318 -0.817,0.327 -1.174,-0.065c0.164,0.396 0.441,0.635 0.69,0.552c0.252,-0.088 3.19,-1.617 4.491,-1.617c0.423,0 0.548,0.011 0.883,0.147c-0.202,-0.342 -0.425,-0.502 -1.034,-0.502c-0.022,0 -0.044,0 -0.066,0.002" style="fill:url(#_Linear24);fill-rule:nonzero;"/><path id="path3154" d="M84.143,39.269c-0.666,0.107 -2.797,0.681 -3.021,0.758c-0.23,0.072 -0.352,0.147 -0.503,0.394c-0.152,0.241 -0.217,0.774 -0.154,0.975c0.064,0.213 0.279,0.37 0.607,0.232c0.451,-0.188 3.091,-1.158 3.555,-1.305c0.202,-0.068 0.285,-0.169 0.325,-0.274c0.068,-0.173 0.087,-0.401 0.068,-0.581c-0.027,-0.206 -0.158,-0.267 -0.349,-0.267c-0.147,0 -0.331,0.037 -0.528,0.068" style="fill:url(#_Linear25);fill-rule:nonzero;"/><path id="path3166" d="M84.069,39.494c0.295,-0.052 0.44,-0.024 0.455,0.138c0.013,0.169 0,0.272 -0.011,0.338c-0.017,0.087 -0.052,0.138 -0.199,0.193c-0.302,0.105 -2.232,0.793 -2.697,0.988c-0.427,0.179 -0.644,0.078 -0.681,-0.099c-0.037,-0.184 0.031,-0.471 0.103,-0.6c0.077,-0.127 0.188,-0.213 0.346,-0.263c0.348,-0.125 2.138,-0.594 2.684,-0.695" style="fill:#231f20;fill-rule:nonzero;"/><path id="path3190" d="M86.947,42.288c-5.467,0.142 -10.234,2.458 -12.911,3.553c1.908,-0.655 6.543,-2.554 11.713,-2.863c2.841,-0.173 3.98,0.068 5.021,1.235c1.511,1.665 5.03,6.39 6.283,8.789c0.495,0.951 0.714,1.803 0.648,2.53c-0.101,1.102 -0.495,1.91 -0.806,2.635c-0.546,1.251 -2.559,5.341 -2.907,5.935c-1.466,2.539 -2.87,2.451 -4.364,2.105c0.077,0.042 0.763,0.366 1.391,0.62c1.74,0.712 2.841,-0.276 3.836,-2.145c0.322,-0.582 2.458,-5.099 2.973,-6.403c0.326,-0.817 0.701,-1.627 0.701,-2.666c0,-0.679 -0.189,-1.724 -0.653,-2.692c-1.176,-2.48 -4.898,-7.192 -6.384,-8.968c-1.152,-1.363 -2.203,-1.672 -4.019,-1.672c-0.167,0 -0.342,0.002 -0.522,0.007" style="fill:url(#_Linear26);fill-rule:nonzero;"/><path id="path3218" d="M80.498,93.601c-1.941,3.088 -4.738,7.697 -5.176,8.712c-0.406,0.931 -0.537,1.778 -0.55,2.878c0,0.011 0.16,4.986 0.16,5.014c0,0.616 -0.092,1.12 -0.421,1.51c-0.335,0.385 -0.841,0.576 -1.542,0.677c-1.152,0.166 -6.587,1.005 -8.081,1.31c-1.448,0.311 -2.048,0.977 -2.37,1.938c-0.235,0.692 -0.502,1.869 -0.498,2.386c0,0 -0.019,0.282 0,0.282c-0.041,0.55 0.156,0.52 0.156,0.52c0,0 6.291,-0.485 10.035,-0.261c3.746,0.219 8.914,0.707 8.914,0.707c0,0 -5.44,-1.016 -9.14,-1.246c-1.844,-0.11 -3.991,-0.066 -5.682,-0.02c-1.7,0.044 -2.944,0.09 -2.966,-0.024c-0.033,-0.153 -0.127,-0.388 -0.088,-0.841c0.062,-0.294 0.138,-0.629 0.241,-0.981c0.241,-0.92 0.671,-1.731 2.103,-2.064c1.374,-0.348 6.655,-1.222 7.656,-1.468c0.991,-0.249 1.632,-0.617 1.768,-1.426c0.037,-0.247 0.07,-0.804 0.068,-1.318c0,-1.063 -0.188,-3.878 -0.182,-4.053c0.033,-1.733 0.11,-2.649 1.242,-4.522c1.755,-2.917 8.362,-12.961 11.648,-16.447c0.21,-0.221 0.307,-0.409 0.67,-0.35c-0.07,-0.015 -0.142,-0.037 -0.214,-0.072c-0.057,-0.029 -0.32,-0.224 -0.666,-0.48c-0.82,0.924 -4.511,5.533 -7.085,9.639" style="fill:url(#_Linear27);fill-rule:nonzero;"/><g id="g3222"><clipPath id="_clip28"><rect x="9.24" y="34.726" width="173.523" height="122.398"/></clipPath><g clip-path="url(#_clip28)"><path id="path3230" d="M9.239,141.996l0,14.661l4.037,0l0,-4.51l3.617,0c7.755,0 11.707,-2.489 11.707,-5.24c0,-2.955 -4.243,-4.911 -11.356,-4.911l-8.005,0m4.037,8.569l0,-6.933l3.177,0c3.281,0 7.612,0.554 7.612,3.275c0,1.847 -1.406,3.658 -8.138,3.658l-2.651,0Z" style="fill:#0d224a;fill-rule:nonzero;"/><path id="path3234" d="M51.622,156.657l0,-1.844l-9.95,0c-2.138,0 -2.754,-0.969 -2.754,-2.607l0,-2.147l11.678,0l0,-1.84l-11.678,0l0,-4.383l12.206,0l0,-1.841l-16.243,0l0,10.299c0,2.753 1.141,4.363 4.859,4.363l11.882,0Z" style="fill:#0d224a;fill-rule:nonzero;"/><path id="path3238" d="M77.459,141.996l-4.037,0l0,12.374c-1.113,0.386 -2.602,0.734 -4.771,0.734c-3.102,0 -6.175,-0.788 -6.175,-3.513l0,-9.595l-4.038,0l0,9.888c0,4.042 4.038,5.238 8.487,5.238c4.243,0 7.698,-0.879 10.534,-2.075l0,-13.051Z" style="fill:#0d224a;fill-rule:nonzero;"/><path id="path3242" d="M88.686,149.368c0,-4.068 3.454,-5.974 7.667,-5.974c3.452,0 6.118,0.997 8.635,1.849l0,-2.46c-2.663,-0.787 -5.183,-1.229 -8.635,-1.229c-6.758,0 -12.261,3.102 -12.261,7.814c0,4.979 5.503,7.755 12.261,7.755c3.369,0 6.909,-0.699 9.076,-1.254l0,-5.811l-3.981,0l0,4.346c-1.463,0.495 -2.519,0.878 -4.799,0.878c-4.596,0 -7.963,-2.28 -7.963,-5.914" style="fill:#0d224a;fill-rule:nonzero;"/><path id="path3246" d="M129.527,156.657l0,-1.844l-9.954,0c-2.134,0 -2.749,-0.969 -2.749,-2.607l0,-2.147l11.68,0l0,-1.84l-11.68,0l0,-4.383l12.206,0l0,-1.841l-16.244,0l0,10.299c0,2.753 1.14,4.363 4.857,4.363l11.884,0Z" style="fill:#0d224a;fill-rule:nonzero;"/><path id="path3250" d="M147.047,141.553c-6.758,0 -12.289,3.161 -12.289,7.891c0,4.96 5.531,7.678 12.289,7.678c6.763,0 12.263,-2.718 12.263,-7.678c0,-4.73 -5.5,-7.891 -12.263,-7.891m0,13.933c-4.593,0 -7.695,-2.371 -7.695,-6.042c0,-4.029 3.454,-6.05 7.695,-6.05c4.215,0 7.667,2.021 7.667,6.05c0,3.671 -3.101,6.042 -7.667,6.042" style="fill:#0d224a;fill-rule:nonzero;"/><path id="path3254" d="M162.624,144.099l8.048,0l0,12.559l4.04,0l0,-12.559l8.048,0l0,-2.103l-20.136,0l0,2.103Z" style="fill:#0d224a;fill-rule:nonzero;"/></g></g></g><defs><linearGradient id="_Linear1" x1="0" y1="0" x2="1" y2="0" gradientUnits="userSpaceOnUse" gradientTransform="matrix(-25.9293,39.7138,39.7138,25.9293,130.558,46.6463)"><stop offset="0" style="stop-color:#d3d3d3;stop-opacity:1"/><stop offset="0.37" style="stop-color:#4f4c4c;stop-opacity:1"/><stop offset="0.37" style="stop-color:#4f4c4c;stop-opacity:1"/><stop offset="0.81" style="stop-color:#b0afaf;stop-opacity:1"/><stop offset="1" style="stop-color:#231f20;stop-opacity:1"/></linearGradient><linearGradient id="_Linear2" x1="0" y1="0" x2="1" y2="0" gradientUnits="userSpaceOnUse" gradientTransform="matrix(4.70117,-10.7674,-10.7674,-4.70117,57.6883,75.4618)"><stop offset="0" style="stop-color:#b2b1b1;stop-opacity:1"/><stop offset="0.2" style="stop-color:#b2b1b1;stop-opacity:1"/><stop offset="0.99" style="stop-color:#656263;stop-opacity:1"/><stop offset="0.99" style="stop-color:#656263;stop-opacity:1"/><stop offset="1" style="stop-color:#656263;stop-opacity:1"/></linearGradient><linearGradient id="_Linear3" x1="0" y1="0" x2="1" y2="0" gradientUnits="userSpaceOnUse" gradientTransform="matrix(-5.77117,-0.545403,-0.545403,5.77117,121.896,49.6047)"><stop offset="0" style="stop-color:#4f4c4c;stop-opacity:1"/><stop offset="0.36" style="stop-color:#fff;stop-opacity:1"/><stop offset="0.36" style="stop-color:#fff;stop-opacity:1"/><stop offset="0.82" style="stop-color:#4f4c4c;stop-opacity:1"/><stop offset="1" style="stop-color:#393536;stop-opacity:1"/></linearGradient><linearGradient id="_Linear4" x1="0" y1="0" x2="1" y2="0" gradientUnits="userSpaceOnUse" gradientTransform="matrix(4.68035,-10.7196,-10.7196,-4.68035,69.8771,80.941)"><stop offset="0" style="stop-color:#d3d3d3;stop-opacity:1"/><stop offset="0.37" style="stop-color:#b2b1b1;stop-opacity:1"/><stop offset="0.99" style="stop-color:#231f20;stop-opacity:1"/><stop offset="1" style="stop-color:#231f20;stop-opacity:1"/></linearGradient><linearGradient id="_Linear5" x1="0" y1="0" x2="1" y2="0" gradientUnits="userSpaceOnUse" gradientTransform="matrix(-84.9909,-86.4633,-86.4633,84.9909,116.192,132.482)"><stop offset="0" style="stop-color:#918f90;stop-opacity:1"/><stop offset="0.12" style="stop-color:#9c9a9b;stop-opacity:1"/><stop offset="0.12" style="stop-color:#9c9a9b;stop-opacity:1"/><stop offset="0.17" style="stop-color:#7b7979;stop-opacity:1"/><stop offset="0.31" style="stop-color:#918f90;stop-opacity:1"/><stop offset="0.47" style="stop-color:#f4f4f4;stop-opacity:1"/><stop offset="0.84" style="stop-color:#7f7d7e;stop-opacity:1"/><stop offset="0.84" style="stop-color:#7f7d7e;stop-opacity:1"/><stop offset="0.96" style="stop-color:#4f4c4c;stop-opacity:1"/><stop offset="1" style="stop-color:#4f4c4c;stop-opacity:1"/></linearGradient><radialGradient id="_Radial6" cx="0" cy="0" r="1" gradientUnits="userSpaceOnUse" gradientTransform="matrix(19.332,0,0,-19.332,79.3198,57.1591)"><stop offset="0" style="stop-color:#fff;stop-opacity:1"/><stop offset="0.47" style="stop-color:#fff;stop-opacity:1"/><stop offset="0.75" style="stop-color:#9c9a9b;stop-opacity:1"/><stop offset="0.75" style="stop-color:#9c9a9b;stop-opacity:1"/><stop offset="0.85" style="stop-color:#7b7979;stop-opacity:1"/><stop offset="1" style="stop-color:#4f4c4c;stop-opacity:1"/></radialGradient><radialGradient id="_Radial7" cx="0" cy="0" r="1" gradientUnits="userSpaceOnUse" gradientTransform="matrix(6.82722,0,0,-6.57893,83.661,53.3689)"><stop offset="0" style="stop-color:#fff;stop-opacity:1"/><stop offset="0.23" style="stop-color:#fff;stop-opacity:1"/><stop offset="1" style="stop-color:#231f20;stop-opacity:1"/></radialGradient><radialGradient id="_Radial8" cx="0" cy="0" r="1" gradientUnits="userSpaceOnUse" gradientTransform="matrix(8.04548,0,0,-8.04548,79.3829,42.6191)"><stop offset="0" style="stop-color:#fff;stop-opacity:1"/><stop offset="0.57" style="stop-color:#f7f7f7;stop-opacity:1"/><stop offset="0.57" style="stop-color:#f7f7f7;stop-opacity:1"/><stop offset="0.86" style="stop-color:#231f20;stop-opacity:1"/><stop offset="1" style="stop-color:#231f20;stop-opacity:1"/></radialGradient><radialGradient id="_Radial9" cx="0" cy="0" r="1" gradientUnits="userSpaceOnUse" gradientTransform="matrix(26.6513,0,0,-26.6513,92.8822,58.3025)"><stop offset="0" style="stop-color:#fff;stop-opacity:1"/><stop offset="0.25" style="stop-color:#fff;stop-opacity:1"/><stop offset="0.35" style="stop-color:#a7a6a6;stop-opacity:1"/><stop offset="0.35" style="stop-color:#a7a6a6;stop-opacity:1"/><stop offset="0.41" style="stop-color:#7b7979;stop-opacity:1"/><stop offset="0.47" style="stop-color:#4f4c4c;stop-opacity:1"/><stop offset="1" style="stop-color:#4f4c4c;stop-opacity:1"/></radialGradient><linearGradient id="_Linear10" x1="0" y1="0" x2="1" y2="0" gradientUnits="userSpaceOnUse" gradientTransform="matrix(-13.1975,3.29939,3.29939,13.1975,73.9233,73.7943)"><stop offset="0" style="stop-color:#f4f4f4;stop-opacity:1"/><stop offset="0.26" style="stop-color:#bdbcbc;stop-opacity:1"/><stop offset="0.65" style="stop-color:#f4f4f4;stop-opacity:1"/><stop offset="0.9" style="stop-color:#fff;stop-opacity:1"/><stop offset="1" style="stop-color:#fff;stop-opacity:1"/></linearGradient><linearGradient id="_Linear11" x1="0" y1="0" x2="1" y2="0" gradientUnits="userSpaceOnUse" gradientTransform="matrix(60.829,74.1112,74.1112,-60.829,73.3421,40.4406)"><stop offset="0" style="stop-color:#fff;stop-opacity:1"/><stop offset="0.07" style="stop-color:#e3e2e2;stop-opacity:1"/><stop offset="0.16" style="stop-color:#fff;stop-opacity:1"/><stop offset="0.33" style="stop-color:#d3d3d3;stop-opacity:1"/><stop offset="0.33" style="stop-color:#d3d3d3;stop-opacity:1"/><stop offset="0.5" style="stop-color:#fff;stop-opacity:1"/><stop offset="0.98" style="stop-color:#bbbaba;stop-opacity:1"/><stop offset="0.98" style="stop-color:#bbbaba;stop-opacity:1"/><stop offset="1" style="stop-color:#bbbaba;stop-opacity:1"/></linearGradient><linearGradient id="_Linear12" x1="0" y1="0" x2="1" y2="0" gradientUnits="userSpaceOnUse" gradientTransform="matrix(62.2347,59.111,59.111,-62.2347,57.801,54.7779)"><stop offset="0" style="stop-color:#dedede;stop-opacity:1"/><stop offset="0.51" style="stop-color:#4f4c4c;stop-opacity:1"/><stop offset="1" style="stop-color:#dedede;stop-opacity:1"/></linearGradient><linearGradient id="_Linear13" x1="0" y1="0" x2="1" y2="0" gradientUnits="userSpaceOnUse" gradientTransform="matrix(-24.1376,36.0857,36.0857,24.1376,87.6999,83.3491)"><stop offset="0" style="stop-color:#c8c7c8;stop-opacity:1"/><stop offset="0.1" style="stop-color:#fff;stop-opacity:1"/><stop offset="0.35" style="stop-color:#f0f0f0;stop-opacity:1"/><stop offset="0.54" style="stop-color:#fff;stop-opacity:1"/><stop offset="0.71" style="stop-color:#393536;stop-opacity:1"/><stop offset="0.84" style="stop-color:#fff;stop-opacity:1"/><stop offset="0.91" style="stop-color:#514e4f;stop-opacity:1"/><stop offset="1" style="stop-color:#868484;stop-opacity:1"/></linearGradient><linearGradient id="_Linear14" x1="0" y1="0" x2="1" y2="0" gradientUnits="userSpaceOnUse" gradientTransform="matrix(6.3478,3.7389,3.7389,-6.3478,85.1185,102.278)"><stop offset="0" style="stop-color:#fff;stop-opacity:1"/><stop offset="0.52" style="stop-color:#cfcece;stop-opacity:1"/><stop offset="0.52" style="stop-color:#cfcece;stop-opacity:1"/><stop offset="0.84" style="stop-color:#4f4c4c;stop-opacity:1"/><stop offset="1" style="stop-color:#393536;stop-opacity:1"/></linearGradient><linearGradient id="_Linear15" x1="0" y1="0" x2="1" y2="0" gradientUnits="userSpaceOnUse" gradientTransform="matrix(6.72609,-8.05258,-8.05258,-6.72609,88.6083,84.8635)"><stop offset="0" style="stop-color:#fff;stop-opacity:1"/><stop offset="0.21" style="stop-color:#fff;stop-opacity:1"/><stop offset="0.5" style="stop-color:#dedede;stop-opacity:1"/><stop offset="0.5" style="stop-color:#dedede;stop-opacity:1"/><stop offset="0.95" style="stop-color:#9c9a9b;stop-opacity:1"/><stop offset="1" style="stop-color:#959494;stop-opacity:1"/></linearGradient><linearGradient id="_Linear16" x1="0" y1="0" x2="1" y2="0" gradientUnits="userSpaceOnUse" gradientTransform="matrix(8.76877,8.97078,8.97078,-8.76877,103.555,39.9306)"><stop offset="0" style="stop-color:#231f20;stop-opacity:1"/><stop offset="0.18" style="stop-color:#f4f4f4;stop-opacity:1"/><stop offset="0.58" style="stop-color:#444041;stop-opacity:1"/><stop offset="1" style="stop-color:#231f20;stop-opacity:1"/></linearGradient><linearGradient id="_Linear17" x1="0" y1="0" x2="1" y2="0" gradientUnits="userSpaceOnUse" gradientTransform="matrix(9.97529,-6.54919,-6.54919,-9.97529,104.641,77.2743)"><stop offset="0" style="stop-color:#231f20;stop-opacity:1"/><stop offset="0.18" style="stop-color:#f4f4f4;stop-opacity:1"/><stop offset="0.58" style="stop-color:#444041;stop-opacity:1"/><stop offset="1" style="stop-color:#231f20;stop-opacity:1"/></linearGradient><linearGradient id="_Linear18" x1="0" y1="0" x2="1" y2="0" gradientUnits="userSpaceOnUse" gradientTransform="matrix(13.1057,0,0,-13.1057,112.607,45.3608)"><stop offset="0" style="stop-color:#656263;stop-opacity:1"/><stop offset="0.29" style="stop-color:#d3d3d3;stop-opacity:1"/><stop offset="0.53" style="stop-color:#656263;stop-opacity:1"/><stop offset="0.76" style="stop-color:#393536;stop-opacity:1"/><stop offset="1" style="stop-color:#231f20;stop-opacity:1"/></linearGradient><linearGradient id="_Linear19" x1="0" y1="0" x2="1" y2="0" gradientUnits="userSpaceOnUse" gradientTransform="matrix(30.2197,0,0,-30.2197,59.1152,113.512)"><stop offset="0" style="stop-color:#231f20;stop-opacity:1"/><stop offset="0.18" style="stop-color:#9e9d9d;stop-opacity:1"/><stop offset="0.58" style="stop-color:#444041;stop-opacity:1"/><stop offset="1" style="stop-color:#231f20;stop-opacity:1"/></linearGradient><linearGradient id="_Linear20" x1="0" y1="0" x2="1" y2="0" gradientUnits="userSpaceOnUse" gradientTransform="matrix(13.5159,0,0,-13.5159,97.5674,101.914)"><stop offset="0" style="stop-color:#231f20;stop-opacity:1"/><stop offset="0.18" style="stop-color:#9e9d9d;stop-opacity:1"/><stop offset="0.58" style="stop-color:#444041;stop-opacity:1"/><stop offset="1" style="stop-color:#231f20;stop-opacity:1"/></linearGradient><linearGradient id="_Linear21" x1="0" y1="0" x2="1" y2="0" gradientUnits="userSpaceOnUse" gradientTransform="matrix(24.8256,0,0,-24.8256,106.617,103.731)"><stop offset="0" style="stop-color:#231f20;stop-opacity:1"/><stop offset="0.18" style="stop-color:#9e9d9d;stop-opacity:1"/><stop offset="0.58" style="stop-color:#444041;stop-opacity:1"/><stop offset="1" style="stop-color:#231f20;stop-opacity:1"/></linearGradient><linearGradient id="_Linear22" x1="0" y1="0" x2="1" y2="0" gradientUnits="userSpaceOnUse" gradientTransform="matrix(25.8778,0,0,-25.8778,57.7881,79.4817)"><stop offset="0" style="stop-color:#7b7979;stop-opacity:1"/><stop offset="0.18" style="stop-color:#d3d3d3;stop-opacity:1"/><stop offset="1" style="stop-color:#231f20;stop-opacity:1"/></linearGradient><linearGradient id="_Linear23" x1="0" y1="0" x2="1" y2="0" gradientUnits="userSpaceOnUse" gradientTransform="matrix(8.98302,0,0,-8.98302,58.3592,63.5424)"><stop offset="0" style="stop-color:#444041;stop-opacity:1"/><stop offset="0.18" style="stop-color:#d3d3d3;stop-opacity:1"/><stop offset="1" style="stop-color:#231f20;stop-opacity:1"/></linearGradient><linearGradient id="_Linear24" x1="0" y1="0" x2="1" y2="0" gradientUnits="userSpaceOnUse" gradientTransform="matrix(6.06132,0,0,-6.06132,50.4915,77.1598)"><stop offset="0" style="stop-color:#7b7979;stop-opacity:1"/><stop offset="0.18" style="stop-color:#bdbcbc;stop-opacity:1"/><stop offset="1" style="stop-color:#444041;stop-opacity:1"/></linearGradient><linearGradient id="_Linear25" x1="0" y1="0" x2="1" y2="0" gradientUnits="userSpaceOnUse" gradientTransform="matrix(0.659271,1.44954,1.44954,-0.659271,82.3633,39.605)"><stop offset="0" style="stop-color:#fff;stop-opacity:1"/><stop offset="0.12" style="stop-color:#eee;stop-opacity:1"/><stop offset="0.91" style="stop-color:#5a5758;stop-opacity:1"/><stop offset="1" style="stop-color:#5a5758;stop-opacity:1"/></linearGradient><linearGradient id="_Linear26" x1="0" y1="0" x2="1" y2="0" gradientUnits="userSpaceOnUse" gradientTransform="matrix(24.4877,0,0,-24.4877,74.0341,54.5606)"><stop offset="0" style="stop-color:#fff;stop-opacity:1"/><stop offset="0.98" style="stop-color:#231f20;stop-opacity:1"/><stop offset="0.98" style="stop-color:#231f20;stop-opacity:1"/><stop offset="1" style="stop-color:#231f20;stop-opacity:1"/></linearGradient><linearGradient id="_Linear27" x1="0" y1="0" x2="1" y2="0" gradientUnits="userSpaceOnUse" gradientTransform="matrix(9.07668,-32.1026,-32.1026,-9.07668,72.4333,115.289)"><stop offset="0" style="stop-color:#e9e9e9;stop-opacity:1"/><stop offset="0.07" style="stop-color:#5a5758;stop-opacity:1"/><stop offset="0.35" style="stop-color:#918f90;stop-opacity:1"/><stop offset="0.6" style="stop-color:#b7b5b6;stop-opacity:1"/><stop offset="0.96" style="stop-color:#706d6e;stop-opacity:1"/><stop offset="1" style="stop-color:#b2b1b1;stop-opacity:1"/></linearGradient></defs></svg>