<?xml version="1.0" encoding="UTF-8" standalone="no"?><!DOCTYPE svg PUBLIC "-//W3C//DTD SVG 1.1//EN" "http://www.w3.org/Graphics/SVG/1.1/DTD/svg11.dtd"><svg width="100%" height="100%" viewBox="0 0 192 192" version="1.1" xmlns="http://www.w3.org/2000/svg" xmlns:xlink="http://www.w3.org/1999/xlink" xml:space="preserve" xmlns:serif="http://www.serif.com/" style="fill-rule:evenodd;clip-rule:evenodd;stroke-linejoin:round;stroke-miterlimit:1.41421;"><path id="path0" d="M84.04,16.785c-13.658,0.319 -30.072,1.19 -34.313,1.82c-6.436,0.956 -9.794,4.11 -10.695,10.047c-0.484,3.189 0.169,34.551 1.049,50.352c1.004,18.027 2.279,23.157 7.318,29.438c3.34,4.164 7.169,6.937 18.558,13.439c6.928,3.955 12.223,6.788 27.806,14.881l1.108,0.575l2.665,-1.377c20.374,-10.531 33.597,-17.951 38.509,-21.609c6.935,-5.164 10.52,-10.714 12.061,-18.667c0.688,-3.55 1.248,-9.931 1.747,-19.919c0.798,-15.944 1.335,-44.021 0.898,-46.951c-1.011,-6.782 -4.648,-9.709 -12.997,-10.461c-6.765,-0.609 -16.379,-1.105 -29.225,-1.506c-3.03,-0.094 -21.137,-0.141 -24.489,-0.062m23.635,4.976c14.27,0.419 27.891,1.17 31.823,1.755c3.842,0.572 5.665,2.121 6.264,5.322c0.525,2.798 -0.057,32.41 -0.963,49.027c-0.961,17.638 -1.996,22.126 -6.343,27.491c-4.217,5.205 -12.824,10.448 -41.982,25.571l-1.59,0.825l-2.753,-1.43c-15.117,-7.851 -22.368,-11.828 -30.552,-16.755c-10.967,-6.603 -14.514,-11.886 -15.727,-23.421c-1.065,-10.121 -1.987,-34.875 -2.024,-54.319c-0.01,-5.449 -0.001,-5.97 0.12,-6.692c0.572,-3.403 2.257,-4.944 6.102,-5.58c3.939,-0.652 20.904,-1.551 35.058,-1.858c3.535,-0.077 19.279,-0.032 22.567,0.064m-36.343,14.432c-6.255,0.305 -11.758,3.399 -15.111,8.497c-0.519,0.789 -1.669,3.035 -1.593,3.111c0.053,0.053 0.033,0.076 0.325,-0.357c5.395,-7.981 16.228,-10.406 24.315,-5.442c4.675,2.869 8.966,8.099 12.603,15.36c0.298,0.596 0.562,1.063 0.587,1.039c0.024,-0.025 0.422,-1.315 0.884,-2.868l0.84,-2.824l-0.627,-1.215c-5.338,-10.338 -13.187,-15.742 -22.223,-15.301m44.952,0.027c-8.413,0.493 -15.587,6.109 -20.461,16.018l-0.229,0.464l0.834,2.811c0.459,1.546 0.85,2.838 0.87,2.871c0.02,0.033 0.307,-0.464 0.638,-1.104c6.434,-12.421 13.508,-18.096 22.232,-17.836c5.845,0.173 10.722,2.759 14.374,7.619c0.711,0.945 0.72,0.818 0.044,-0.558c-3.297,-6.701 -10.489,-10.743 -18.302,-10.285m-53.21,11.463c-6.808,0.835 -11.231,6.58 -11.44,14.859l-0.042,1.655l2.357,0l0.049,0.302c1.527,9.41 7.236,19.133 11.234,19.133c2.2,0 2.516,-2.108 1.084,-7.226c-2.577,-9.212 -2.171,-14.554 1.156,-15.203c1.609,-0.313 3.101,0.757 4.243,3.044l0.256,0.512l-0.172,0.662c-1.177,4.512 -0.793,7.679 1.171,9.673c0.792,0.805 1.14,1.001 4.102,2.314c1.357,0.602 2.476,1.103 2.486,1.114c0.011,0.011 0.633,2.615 1.382,5.786c1.631,6.909 1.636,6.93 2.025,7.83c0.169,0.392 1.252,2.334 2.407,4.314l2.099,3.601l0.692,3.518c0.98,4.986 1.031,5.154 1.824,6.002c0.767,0.819 1.509,1.07 3.541,1.194c4.017,0.245 5.961,-0.304 6.799,-1.92c0.369,-0.712 0.41,-0.877 1.228,-4.997l0.757,-3.808l2.057,-3.53c2.921,-5.009 2.487,-3.837 4.375,-11.819c0.799,-3.376 1.478,-6.16 1.509,-6.186c0.031,-0.027 1.199,-0.553 2.596,-1.169c3.535,-1.559 4.206,-2.056 5.05,-3.743c0.908,-1.814 0.942,-4.885 0.089,-8.137l-0.183,-0.697l0.289,-0.568c1.333,-2.628 3.11,-3.604 4.982,-2.737c2.54,1.178 2.723,6.382 0.509,14.491c-1.551,5.681 -1.299,7.682 0.967,7.685c4.034,0.003 9.128,-8.645 11.208,-19.026l0.081,-0.409l2.26,0l0.05,-0.338c0.081,-0.534 -0.025,-2.739 -0.182,-3.791c-1.232,-8.291 -6.925,-13.197 -14.368,-12.383c-7.09,0.775 -13.053,6.63 -16.995,16.69c-0.489,1.248 -1.245,3.409 -1.245,3.562c0,0.053 0.641,0.538 1.424,1.079c0.782,0.54 1.423,1.031 1.423,1.09c0.002,0.156 -1.276,6.561 -1.34,6.719c-0.038,0.094 -0.861,0.469 -2.756,1.255l-2.702,1.122l-0.48,3.3c-0.264,1.816 -0.472,3.376 -0.463,3.467c0.015,0.133 0.287,-0.163 1.355,-1.47c1.313,-1.607 1.346,-1.64 1.78,-1.816c0.243,-0.098 0.861,-0.354 1.373,-0.567l0.931,-0.388l-0.431,2.159l-0.43,2.16l-2.46,1.016l-2.46,1.017l-0.866,5.956l-0.866,5.955l0.597,1.874c0.328,1.031 0.591,1.878 0.583,1.882c-0.146,0.077 -4.632,1.812 -4.686,1.812c-0.061,0 -4.605,-1.765 -4.672,-1.815c-0.01,-0.007 0.242,-0.827 0.56,-1.822c0.693,-2.171 0.728,-1.143 -0.28,-8.072l-0.839,-5.764l-2.46,-1.022l-2.461,-1.022l-0.43,-2.148c-0.236,-1.182 -0.425,-2.152 -0.419,-2.157c0.006,-0.004 0.628,0.252 1.383,0.57l1.371,0.577l1.334,1.633c0.925,1.131 1.339,1.59 1.351,1.495c0.019,-0.152 -0.939,-6.783 -0.985,-6.818c-0.016,-0.013 -1.214,-0.512 -2.663,-1.11c-1.449,-0.598 -2.666,-1.117 -2.705,-1.154c-0.039,-0.038 -0.379,-1.605 -0.755,-3.485l-0.684,-3.416l1.449,-1.003c0.797,-0.552 1.449,-1.027 1.449,-1.055c0,-0.278 -1.334,-3.865 -2.025,-5.447c-4.474,-10.238 -11.691,-15.777 -19.332,-14.841m12.909,19.802l1.61,2.541l0.595,2.603c0.328,1.431 0.586,2.602 0.574,2.602c-0.104,0 -2.547,-1.117 -2.804,-1.282c-1.93,-1.239 -2.505,-3.882 -1.768,-8.132c0.086,-0.499 0.163,-0.9 0.17,-0.89c0.007,0.009 0.737,1.161 1.623,2.558m39.623,-1.526c0.702,4.106 0.15,6.662 -1.717,7.944c-0.318,0.218 -2.826,1.362 -2.872,1.31c-0.043,-0.048 1.18,-5.206 1.266,-5.341c2.335,-3.682 3.071,-4.821 3.114,-4.821c0.029,0 0.123,0.408 0.209,0.908m-65.702,0.427c0.01,18.513 5.758,29.918 15.078,29.918c6.745,0 9.286,-6.08 5.659,-13.544c-0.465,-0.957 -0.768,-1.435 -0.633,-0.997c0.274,0.883 0.518,3.732 0.404,4.7c-0.407,3.452 -3.694,4.999 -6.904,3.25c-4.861,-2.648 -9.6,-12.812 -10.977,-23.541l-0.089,-0.694l-1.269,0l-1.27,0l0.001,0.908m87.388,-0.534c-1.769,13.843 -8.372,25.278 -14.171,24.543c-3.291,-0.418 -4.471,-3.287 -3.418,-8.311c0.142,-0.681 0.013,-0.541 -0.525,0.569c-3.755,7.742 -1.066,13.882 5.97,13.628c9.114,-0.327 14.184,-10.362 14.71,-29.112l0.047,-1.691l-1.283,0l-1.282,0l-0.048,0.374m-116.292,98.331l0,11.072l16.089,0l0,-3.346l0,-3.346l1.513,0.003l1.513,0.003l2.417,3.272l2.417,3.272l17.229,0l-0.257,-0.267c-0.141,-0.147 -1.682,-1.847 -3.425,-3.777l-3.169,-3.51l0.672,-0.349c3.521,-1.831 5.013,-4.683 4.337,-8.292c-0.572,-3.048 -2.981,-4.89 -7.371,-5.637c-0.699,-0.119 -1.754,-0.129 -16.356,-0.148l-15.609,-0.021l0,11.071m50.172,-0.113c-3.162,6.025 -5.749,10.975 -5.749,10.999c0,0.024 3.823,0.044 8.494,0.044l8.494,0l0.951,-2.172l0.952,-2.172l5.555,0.018l5.556,0.019l0.899,2.135l0.899,2.136l8.591,0.018l8.592,0.018l-0.177,-0.338c-0.097,-0.186 -2.877,-5.128 -6.178,-10.982l-6.002,-10.643l-12.564,-0.017l-12.564,-0.018l-5.749,10.955m46.862,0.044l0,10.999l16.444,0l0.018,-6.078l0.018,-6.077l3.097,6.076l3.097,6.076l3.809,-0.001l3.809,-0.001l3.061,-6.009l3.061,-6.009l0.018,6.011l0.018,6.012l16.516,0l0,-10.999l0,-10.999l-11.552,0l-11.551,0l-1.671,3.346c-0.92,1.84 -1.689,3.345 -1.709,3.345c-0.021,0 -0.789,-1.505 -1.709,-3.345l-1.672,-3.346l-11.551,0l-11.551,0l0,10.999m-25.131,0.906c0,0.03 -1.381,0.055 -3.069,0.055c-2.426,0 -3.061,-0.019 -3.034,-0.089c0.02,-0.049 0.651,-1.483 1.404,-3.186c0.753,-1.703 1.431,-3.239 1.507,-3.414l0.138,-0.316l1.527,3.448c0.84,1.897 1.527,3.473 1.527,3.502m-50.885,-5.869c1.626,0.801 1.5,2.804 -0.23,3.637l-0.534,0.258l-2.154,0.021l-2.153,0.022l0,-2.066l0,-2.066l0.836,-0.025c0.46,-0.014 1.494,-0.023 2.298,-0.02l1.461,0.005l0.476,0.234" style="fill:#014289;"/></svg>