<svg width="100" height="100" viewBox="0 0 100 100" fill="none" xmlns="http://www.w3.org/2000/svg">
<path d="M14.9846 54.443C15.1132 53.1351 15.3062 51.8273 15.5849 50.4765V50.4336C15.5421 50.4336 15.4992 50.4336 15.4777 50.4551C13.5052 50.648 10.3963 50.8839 8.08073 51.184C4.04993 51.7201 0.38354 52.2561 0.083369 52.6206C-0.752817 53.6069 4.77884 54.3358 13.1834 54.4431H14.9844L14.9846 54.443Z" fill="url(#paint0_linear_210_82)"/>
<path d="M57.33 16.0211C44.0579 16.0211 30.9579 23.5253 22.8746 34.5248C22.8746 34.5248 4.04978 35.8755 3.06313 37.5479C0.104355 43.2296 0.0185547 52.7703 0.0185547 52.7703V52.7488C0.0399919 52.706 0.0614375 52.6631 0.0828747 52.6202C0.383046 52.2557 4.04943 51.7197 8.08023 51.1836C10.3744 50.8835 13.5047 50.6476 15.4772 50.4547C15.5201 50.4547 15.5416 50.4547 15.5845 50.4332C22.1238 49.79 34.6027 48.8895 41.7206 48.6965C59.1949 48.2248 74.2674 48.3534 84.7304 48.8251C87.775 30.5575 75.8113 16.021 57.329 16.021L57.33 16.0211Z" fill="url(#paint1_linear_210_82)"/>
<path d="M84.7515 48.8254C74.3099 48.3537 59.2374 48.2036 41.7417 48.6968C34.602 48.8897 22.1236 49.7903 15.5843 50.4335C15.4557 51.1624 15.2198 52.3632 15.0268 53.9283V54.0141C14.9625 54.5501 14.9196 55.0861 14.8767 55.6221V55.7293C14.8553 56.2439 14.8339 56.7585 14.8339 57.2731C14.8339 57.5947 14.8339 57.9163 14.8553 58.2379C14.8553 58.5166 14.8553 58.7739 14.8767 59.0312C14.8982 59.5887 14.9411 60.1676 14.9839 60.725C15.0054 60.8751 15.0268 61.0467 15.0483 61.1967C15.0911 61.6256 15.1555 62.0544 15.2198 62.4831C15.2412 62.6547 15.2841 62.8262 15.3055 62.9977C15.3699 63.4051 15.4556 63.8125 15.5414 64.2199C15.5843 64.3914 15.6057 64.5415 15.6486 64.6916C15.7558 65.0989 15.863 65.5278 15.9702 65.9351C15.9916 65.9994 16.0131 66.0638 16.0345 66.1495C22.6168 65.5063 30.6997 64.8845 40.2408 64.4986C40.348 64.4986 44.4217 64.3485 44.4646 64.3485C53.2985 64.0698 73.1951 64.2199 78.5766 64.2842C79.4342 64.2842 79.9703 64.3057 79.9703 64.3057C84.4942 64.37 86.3381 64.4129 91.0339 64.6702C93.1995 64.7774 96.8014 64.9275 96.9944 65.3991V65.4206C96.9944 65.4421 96.9944 65.4421 96.9729 65.4635C99.9532 59.9532 99.996 50.8409 99.996 50.8409C100.168 50.0476 94.4858 49.2757 84.7514 48.8255" fill="url(#paint2_linear_210_82)"/>
<path d="M79.6906 33.603H83.6356C79.9693 23.0974 70.2349 16 57.3495 16C44.0774 16 30.9774 23.5257 22.8942 34.5036C28.7046 33.9676 36.2949 33.5173 43.7341 33.3887C45.1921 33.3673 47.9793 32.7669 49.5445 30.4513C52.4604 26.1203 55.3335 21.7461 59.4068 20.2883C59.4711 20.2668 59.5569 20.224 59.6212 20.2025C65.839 17.8655 74.0291 23.633 79.69 33.6033L79.6906 33.603Z" fill="url(#paint3_linear_210_82)"/>
<path d="M78.5743 64.3061C73.1927 64.2632 53.3175 64.0917 44.4623 64.3704C44.4194 64.3704 40.3672 64.5205 40.2385 64.5205C30.6974 64.9065 22.6142 65.5068 16.0322 66.1714C19.377 77.2777 29.347 84.8889 42.683 84.8889C56.7697 84.8889 70.6842 76.4199 78.5749 64.3055L78.5743 64.3061Z" fill="#E4002B"/>
<path d="M78.5744 64.3061C70.6628 76.4203 56.7691 84.8895 42.6824 84.8895C36.336 84.8895 30.7616 83.1743 26.2799 80.1726C21.3486 76.8707 17.768 72.0037 16.0095 66.1719C22.5918 65.5287 30.6747 64.9069 40.2158 64.521C40.3444 64.521 44.4182 64.371 44.4396 64.371C53.3161 64.0922 73.2128 64.2423 78.5729 64.3066L78.5744 64.3061Z" fill="url(#paint4_linear_210_82)"/>
<path d="M78.5745 64.306C77.2451 64.2845 75.0153 64.2845 72.2709 64.2631C65.9245 64.2203 56.6838 64.1988 50.101 64.2631C48.643 65.4423 46.9921 67.2005 46.2203 68.7871C41.096 77.4489 39.3164 85.9394 23.4718 72.9895C23.4718 72.9895 20.9418 72.7536 19.2266 73.0752C20.9633 75.7338 23.1931 78.0066 25.8089 79.8505C26.0018 79.9791 26.1734 80.0863 26.302 80.1721C26.6022 80.365 26.8809 80.558 27.181 80.751C31.4906 83.3882 36.7434 84.889 42.6829 84.889C56.7696 84.889 70.6842 76.42 78.5749 64.3056L78.5745 64.306Z" fill="url(#paint5_linear_210_82)"/>
<path d="M97.0124 65.3992C96.8195 64.9275 93.2175 64.7989 91.0519 64.6703C86.335 64.413 84.4911 64.3701 79.9883 64.3058C79.9883 64.3058 79.4523 64.3058 78.5946 64.2843H78.5731H78.5946C77.8013 65.485 76.9651 66.6427 76.0646 67.7792C88.5 67.4147 96.6693 66.5356 97.0118 65.3993L97.0124 65.3992Z" fill="url(#paint6_linear_210_82)"/>
<defs>
<linearGradient id="paint0_linear_210_82" x1="7.71198" y1="51.0725" x2="8.50764" y2="55.5857" gradientUnits="userSpaceOnUse">
<stop stop-color="#D85B13"/>
<stop offset="0.269" stop-color="#E57B0C"/>
<stop offset="0.5447" stop-color="#EF9407"/>
<stop offset="0.7964" stop-color="#F5A304"/>
<stop offset="1" stop-color="#F7A803"/>
</linearGradient>
<linearGradient id="paint1_linear_210_82" x1="20.5334" y1="20.0629" x2="67.0273" y2="66.5545" gradientUnits="userSpaceOnUse">
<stop stop-color="#FDCC54"/>
<stop offset="0.0154" stop-color="#FCC94D"/>
<stop offset="0.1364" stop-color="#F7B01C"/>
<stop offset="0.1963" stop-color="#F5A709"/>
<stop offset="0.4906" stop-color="#F5A509"/>
<stop offset="0.6479" stop-color="#F39D09"/>
<stop offset="0.7728" stop-color="#F28F0A"/>
<stop offset="0.8806" stop-color="#EF7C0A"/>
<stop offset="0.9766" stop-color="#EB630B"/>
<stop offset="1" stop-color="#EA5C0B"/>
</linearGradient>
<linearGradient id="paint2_linear_210_82" x1="18.016" y1="43.8104" x2="94.874" y2="71.7839" gradientUnits="userSpaceOnUse">
<stop stop-color="#A7A5A4"/>
<stop offset="0.0516" stop-color="#C5C4C3"/>
<stop offset="0.1074" stop-color="#DFDEDD"/>
<stop offset="0.1648" stop-color="#F1F0F0"/>
<stop offset="0.2241" stop-color="#FBFBFB"/>
<stop offset="0.2883" stop-color="white"/>
<stop offset="0.5148" stop-color="#FDFDFC"/>
<stop offset="0.6495" stop-color="#F5F4F4"/>
<stop offset="0.7602" stop-color="#E7E6E6"/>
<stop offset="0.8578" stop-color="#D3D2D2"/>
<stop offset="0.9461" stop-color="#BAB9B8"/>
<stop offset="1" stop-color="#A7A5A4"/>
</linearGradient>
<linearGradient id="paint3_linear_210_82" x1="28.2068" y1="19.9044" x2="81.5488" y2="39.3186" gradientUnits="userSpaceOnUse">
<stop offset="0.0859" stop-color="#FDCC54"/>
<stop offset="1" stop-color="#F1950A" stop-opacity="0.05"/>
</linearGradient>
<linearGradient id="paint4_linear_210_82" x1="47.3167" y1="84.8949" x2="47.3167" y2="64.2112" gradientUnits="userSpaceOnUse">
<stop stop-color="#88181E" stop-opacity="0.3"/>
<stop offset="0.4969" stop-color="#B21829" stop-opacity="0"/>
<stop offset="0.6534" stop-color="#AA1827" stop-opacity="0.3111"/>
<stop offset="0.8996" stop-color="#931821" stop-opacity="0.8004"/>
<stop offset="1" stop-color="#88181E"/>
</linearGradient>
<linearGradient id="paint5_linear_210_82" x1="35.2243" y1="86.9445" x2="61.8128" y2="51.6598" gradientUnits="userSpaceOnUse">
<stop offset="0.0123" stop-color="#E20334" stop-opacity="0"/>
<stop offset="0.0489" stop-color="#DA0531" stop-opacity="0.041"/>
<stop offset="0.2059" stop-color="#BB0E28" stop-opacity="0.2166"/>
<stop offset="0.3591" stop-color="#A51421" stop-opacity="0.388"/>
<stop offset="0.5056" stop-color="#98181D" stop-opacity="0.5519"/>
<stop offset="0.638" stop-color="#93191C" stop-opacity="0.7"/>
<stop offset="1" stop-color="#95191D"/>
</linearGradient>
<linearGradient id="paint6_linear_210_82" x1="86.5423" y1="67.7875" x2="86.5423" y2="64.3012" gradientUnits="userSpaceOnUse">
<stop offset="0.006135" stop-color="#D7D8D8"/>
<stop offset="0.1914" stop-color="#D0D1D1"/>
<stop offset="0.4642" stop-color="#BCBDBD"/>
<stop offset="0.7894" stop-color="#9C9D9D"/>
<stop offset="1" stop-color="#838484"/>
</linearGradient>
</defs>
</svg>
