<svg xmlns="http://www.w3.org/2000/svg" xmlns:xlink="http://www.w3.org/1999/xlink" width="143" height="62" viewBox="0 0 143 62">
  <defs>
    <clipPath id="clip-simyo">
      <rect width="143" height="62"/>
    </clipPath>
  </defs>
  <g id="simyo" clip-path="url(#clip-simyo)">
    <rect width="143" height="62" fill="#fff"/>
    <g id="simyo-logo_logotyp.us" data-name="simyo-logo@logotyp.us" transform="translate(14 12.881)">
      <path id="Path" d="M29.189,2.91A2.791,2.791,0,1,1,26.4.119,2.8,2.8,0,0,1,29.189,2.91Z" transform="translate(0.969 0)" fill="#ff6c01"/>
      <path id="Shape" d="M78.289,31.151V25.66c-3.938-.517-5.448-1.256-7.053-3.886-.436-.965-.507-1.116-.564-7.1V8.571h4.01v5.646c0,6.568-.054,6.624,1.518,7.41.878.439,1.107.466,3.917.466,2.753,0,3.046-.033,3.785-.427,1.525-.814,1.53-.84,1.531-7.36l0-5.735H89.42v5.841c0,6.95.092,7.332-1.4,8.855-1.551,1.763-3.589,1.927-6.189,2.393v6.077c0,1.414-3.54,1.47-3.54-.586Zm-73.4-5.615A6.864,6.864,0,0,1,1.33,24.183,5.3,5.3,0,0,1,0,21.114l0-.793H3.515l.122.555a2.509,2.509,0,0,0,1.825,1.595c.33.062,2.825.086,5.544.053,5.295-.064,5.733-.136,6.135-1.02a2.744,2.744,0,0,0-.034-2.116c-.411-.815-1.126-.911-6.86-.922-2.946-.006-5.824-.1-6.435-.211A3.841,3.841,0,0,1,.671,16.184a4.8,4.8,0,0,1-.48-2.754C.2,10.553.8,9.664,3.248,8.892,4.5,8.5,4.891,8.476,10.353,8.476c5.041,0,5.942.044,7.028.343,2.1.578,3.134,1.774,3.137,3.62v.606H18.7c-1.7,0-1.833-.028-2.005-.412a2.336,2.336,0,0,0-.837-.793c-.611-.356-.96-.38-5.5-.38-5.609,0-5.94.065-6.256,1.237a2.156,2.156,0,0,0,.534,2.364c.419.275,1.278.329,6.646.416,6.012.1,6.192.112,7.275.56a3.8,3.8,0,0,1,2.514,3.294c.372,2.233-.289,4.252-1.7,5.185-1.378.912-2.43,1.06-7.989,1.127-2.821.034-5.743-.015-6.493-.109Zm94.766-.008a10.409,10.409,0,0,1-3.794-1.345,6.057,6.057,0,0,1-2.119-2.971,29.181,29.181,0,0,1-.007-8.287A5.75,5.75,0,0,1,98.014,8.89c1.212-.381,1.682-.414,5.979-.414s4.767.033,5.969.412c2.542.8,3.929,2.138,4.393,4.229a27.214,27.214,0,0,1,.148,4.406c-.058,3.129-.1,3.538-.493,4.384-.785,1.707-2.143,2.735-4.464,3.38A49.972,49.972,0,0,1,99.652,25.528Zm7.439-2.953c1.717-.222,2.506-.641,3.1-1.648.443-.756.5-1.07.577-3.2.138-3.824-.374-5.235-2.15-5.92-.759-.293-1.447-.343-4.713-.343-3.706,0-3.853.014-4.757.466a2.878,2.878,0,0,0-1.4,1.306c-.441.794-.466.995-.466,3.731,0,2.622.039,2.971.42,3.743a3.594,3.594,0,0,0,3.012,1.856,35.922,35.922,0,0,0,6.381.012Zm-81.753-14h4.029V25.66H25.338Zm8.612,10.858c0-6.89.076-7.429,1.229-8.776C36.592,9,38.705,8.39,43,8.39c3.134,0,4.758.264,6.237,1.014l.966.489.973-.476c1.713-.838,3.387-1.076,6.933-.983a14.379,14.379,0,0,1,4.4.482,5.829,5.829,0,0,1,3.457,2.912c.432.928.688.788.688,7.236v6.6H62.61V19.5c0-7.264-.045-6.073-.412-6.575-.783-1.069-1.541-1.272-4.751-1.272-2.442,0-3.02.055-3.68.353-1.452.655-1.49,1.019-1.49,7.4V25.66H48.218V19.486c0-6.4-.016-6.064-.383-6.566-.783-1.069-1.541-1.272-4.751-1.272-3.361,0-4.177.231-4.894,1.382-.4.651-.215.849-.263,6.561V25.66H33.909Z" transform="translate(0 0.34)" fill="#ff6c01"/>
      <path id="Path-2" data-name="Path" d="M79.805,32.144a2.791,2.791,0,1,1-2.791-2.791A2.8,2.8,0,0,1,79.805,32.144Z" transform="translate(3.047 1.2)" fill="#ff6c01"/>
    </g>
  </g>
</svg>
