<svg width="100" height="100" viewBox="0 0 100 100" fill="none" xmlns="http://www.w3.org/2000/svg">
<path d="M23.0905 89.5736C16.997 89.0713 11.1698 86.856 6.28153 83.1835C2.67802 79.1566 0.474397 74.0717 0 68.6887L0 64.9434H16.6012L17.1774 67.5646C17.8609 69.4461 19.0099 71.1238 20.5171 72.441C22.0244 73.7583 23.8407 74.6723 25.7968 75.0978C27.3554 75.3906 39.1391 75.5039 51.9808 75.3481C76.9889 75.0458 79.0575 74.7057 80.9562 70.5306C81.5923 68.9372 81.9056 67.2332 81.8781 65.5177C81.8505 63.8021 81.4826 62.1091 80.7956 60.5369C78.8544 56.6877 75.4775 56.2343 48.3961 56.1823C34.4823 56.154 20.8896 55.71 18.0039 55.1858C14.8999 54.9647 11.9049 53.9488 9.30692 52.2358C6.70892 50.5229 4.59525 48.1704 3.1691 45.4045C1.13966 41.3898 0.350509 36.8621 0.902084 32.3975C0.944591 18.8096 3.77836 14.6109 15.3402 10.9648C21.2533 9.11335 23.1 9 48.8967 9C72.7052 9 76.9605 9.20781 82.0897 10.62C92.0079 13.3498 96.8914 18.9985 96.9056 27.7171V30.5792H88.3193C80.2902 30.5792 79.6621 30.4469 78.8497 28.6333C77.8657 27.0742 76.5066 25.7865 74.8966 24.888C72.0109 23.2066 70.3626 23.0933 48.9204 23.0933C22.4293 23.0933 20.866 23.4003 19.3736 28.9356C18.6265 30.835 18.4676 32.9151 18.9173 34.906C19.367 36.8969 20.4047 38.7067 21.8956 40.1007C23.8745 41.3995 27.9316 41.6545 53.2844 42.0654C81.6788 42.5377 82.5289 42.5944 87.6439 44.7103C90.9163 45.8761 93.7801 47.9666 95.8878 50.7281C97.9954 53.4897 99.2562 56.8036 99.5174 60.2677C101.274 70.814 98.1524 80.3497 91.4884 84.7562C84.9801 89.0635 80.0116 89.7625 53.7567 90.079C40.4332 90.2395 26.6327 90.0081 23.0905 89.5642V89.5736Z" fill="#FF6C01"/>
</svg>
