<?xml version="1.0" encoding="UTF-8" standalone="no"?><!DOCTYPE svg PUBLIC "-//W3C//DTD SVG 1.1//EN" "http://www.w3.org/Graphics/SVG/1.1/DTD/svg11.dtd"><svg width="100%" height="100%" viewBox="0 0 192 192" version="1.1" xmlns="http://www.w3.org/2000/svg" xmlns:xlink="http://www.w3.org/1999/xlink" xml:space="preserve" xmlns:serif="http://www.serif.com/" style="fill-rule:evenodd;clip-rule:evenodd;stroke-linejoin:round;stroke-miterlimit:1.41421;"><g><path id="path0" d="M74.898,62.185c-0.14,0.214 -0.254,0.567 -0.254,0.783c0,0.216 -0.071,0.436 -0.157,0.49c-0.086,0.054 -0.157,0.268 -0.157,0.476c0,0.208 -0.057,0.413 -0.126,0.456c-0.069,0.043 -0.225,0.444 -0.345,0.891c-0.121,0.447 -0.276,0.848 -0.346,0.892c-0.069,0.043 -0.126,0.248 -0.126,0.456c0,0.207 -0.07,0.421 -0.157,0.475c-0.086,0.054 -0.157,0.238 -0.157,0.408c0,0.299 -0.056,0.454 -0.447,1.215c-0.099,0.195 -0.181,0.463 -0.181,0.597c0,0.133 -0.065,0.365 -0.145,0.517c-0.08,0.151 -0.444,1.06 -0.809,2.019c-1.069,2.81 -1.965,4.422 -2.986,5.377c-0.84,0.784 -2.666,1.836 -3.188,1.836c-0.13,0 -0.28,0.071 -0.334,0.158c-0.053,0.088 -0.265,0.159 -0.471,0.159c-0.206,0 -0.418,0.071 -0.471,0.158c-0.054,0.088 -0.327,0.159 -0.607,0.159c-0.28,0 -0.576,0.064 -0.658,0.142c-0.082,0.078 -0.432,0.183 -0.778,0.233c-0.345,0.051 -1.087,0.167 -1.649,0.261c-1.008,0.167 -1.866,0.284 -4.634,0.631c-1.749,0.219 -3.431,0.435 -4.87,0.627c-0.605,0.08 -1.665,0.219 -2.356,0.31c-2.073,0.27 -3.547,0.47 -4.792,0.649c-0.648,0.093 -1.673,0.234 -2.277,0.311c-0.605,0.078 -1.666,0.216 -2.357,0.306c-0.691,0.09 -2.664,0.342 -4.384,0.56c-3.003,0.381 -3.538,0.517 -3.334,0.85c0.09,0.146 0.478,0.216 2.849,0.511c1.659,0.207 3.788,0.476 5.105,0.646c0.648,0.083 1.708,0.22 2.356,0.304c0.648,0.083 1.744,0.226 2.435,0.317c0.691,0.091 1.787,0.233 2.435,0.315c2.07,0.265 3.818,0.491 4.948,0.64c0.605,0.081 1.666,0.216 2.357,0.302c0.691,0.086 1.822,0.235 2.513,0.332c1.56,0.22 2.757,0.383 4.477,0.613c6.689,0.894 9.039,2.96 10.837,9.529c0.108,0.392 0.252,0.891 0.32,1.109c0.068,0.218 0.206,0.753 0.306,1.189c0.264,1.149 0.477,1.993 0.644,2.548c0.08,0.267 0.146,0.673 0.146,0.902c0,0.228 0.071,0.459 0.157,0.513c0.087,0.054 0.157,0.304 0.157,0.555c0,0.251 0.071,0.501 0.157,0.555c0.087,0.054 0.158,0.339 0.158,0.634c0,0.295 0.07,0.58 0.157,0.634c0.086,0.054 0.157,0.304 0.157,0.555c0,0.251 0.063,0.496 0.14,0.544c0.076,0.048 0.177,0.319 0.224,0.604c0.417,2.551 0.995,3.224 1.431,1.666c0.128,-0.458 0.413,-1.51 0.634,-2.339c0.641,-2.413 0.737,-2.753 0.886,-3.138c0.077,-0.2 0.141,-0.504 0.141,-0.676c0,-0.171 0.062,-0.435 0.138,-0.587c0.229,-0.458 0.49,-1.386 0.49,-1.743c0,-0.185 0.071,-0.38 0.157,-0.434c0.087,-0.054 0.157,-0.304 0.157,-0.555c0,-0.251 0.071,-0.501 0.157,-0.555c0.087,-0.054 0.157,-0.273 0.157,-0.487c0,-0.214 0.064,-0.513 0.142,-0.664c0.078,-0.152 0.226,-0.597 0.33,-0.989c0.103,-0.392 0.251,-0.837 0.329,-0.989c0.078,-0.151 0.142,-0.384 0.142,-0.517c0,-0.133 0.062,-0.366 0.139,-0.517c0.076,-0.152 0.209,-0.454 0.294,-0.672c0.318,-0.81 0.906,-1.983 1.02,-2.034c0.065,-0.029 0.118,-0.14 0.118,-0.246c0,-0.364 1.416,-1.805 2.426,-2.47c1.557,-1.024 3.317,-1.575 6.135,-1.923c0.691,-0.085 1.822,-0.227 2.514,-0.317c2.761,-0.356 3.515,-0.451 4.948,-0.622c2.004,-0.24 3.716,-0.437 5.42,-0.627c1.477,-0.164 3.525,-0.395 5.655,-0.639c12.747,-1.458 16.675,-1.469 27.098,-0.076c1.532,0.205 2.927,1.084 3.395,2.139c0.391,0.879 0.519,1.216 0.698,1.822c0.103,0.348 0.249,0.758 0.325,0.909c0.075,0.152 0.137,0.415 0.137,0.585c0,0.171 0.071,0.354 0.157,0.408c0.087,0.054 0.158,0.249 0.158,0.434c0,0.185 0.08,0.591 0.179,0.902c0.458,1.442 0.578,1.676 0.857,1.676c0.308,0 0.394,-0.212 1.329,-3.25c0.282,-0.915 0.572,-1.732 0.644,-1.815c0.073,-0.083 0.132,-0.277 0.132,-0.432c0,-0.239 0.5,-1.236 0.903,-1.803c0.212,-0.298 1.103,-0.864 1.36,-0.864c0.138,0 0.251,-0.071 0.251,-0.159c0,-0.087 0.198,-0.158 0.44,-0.158c0.242,0 0.507,-0.064 0.589,-0.142c0.151,-0.145 0.636,-0.232 2.741,-0.491c1.474,-0.182 3.706,-0.539 5.969,-0.956c0.476,-0.087 1.216,-0.204 1.645,-0.259c2.063,-0.267 1.385,-0.717 -1.731,-1.152c-1.292,-0.18 -2.808,-0.4 -3.37,-0.489c-0.561,-0.09 -1.551,-0.238 -2.199,-0.331c-3.313,-0.472 -3.318,-0.473 -4.479,-1.024c-1.139,-0.541 -1.731,-1.243 -2.297,-2.726c-0.075,-0.196 -0.204,-0.517 -0.287,-0.713c-0.083,-0.196 -0.439,-1.066 -0.791,-1.934c-0.352,-0.868 -0.671,-1.609 -0.709,-1.648c-0.146,-0.148 -0.548,0.348 -0.548,0.677c0,0.19 -0.056,0.413 -0.125,0.496c-0.069,0.082 -0.215,0.435 -0.325,0.784c-0.783,2.489 -2.021,4.389 -3.235,4.963c-1.342,0.635 -3.039,1.008 -5.505,1.209c-0.518,0.042 -1.561,0.151 -2.317,0.242c-3.497,0.42 -4.278,0.476 -6.558,0.473c-2.554,-0.003 -5.448,-0.177 -7.698,-0.463c-0.734,-0.094 -2.042,-0.247 -2.906,-0.34c-1.565,-0.17 -2.354,-0.26 -5.341,-0.608c-1.487,-0.173 -2.319,-0.269 -5.655,-0.653c-0.778,-0.09 -1.98,-0.229 -2.671,-0.309c-0.691,-0.081 -1.928,-0.223 -2.749,-0.318c-0.821,-0.094 -2.022,-0.241 -2.67,-0.326c-0.648,-0.085 -1.603,-0.194 -2.121,-0.242c-0.518,-0.048 -1.01,-0.153 -1.092,-0.233c-0.082,-0.08 -0.484,-0.145 -0.894,-0.145c-0.409,0 -0.788,-0.071 -0.842,-0.159c-0.053,-0.087 -0.282,-0.158 -0.508,-0.158c-0.421,0 -1.317,-0.246 -1.807,-0.495c-0.15,-0.077 -0.411,-0.139 -0.579,-0.139c-0.169,0 -0.351,-0.072 -0.405,-0.159c-0.053,-0.087 -0.223,-0.158 -0.377,-0.158c-1.608,0 -4.558,-3.823 -5.689,-7.372c-0.112,-0.348 -0.259,-0.701 -0.328,-0.784c-0.069,-0.083 -0.125,-0.311 -0.125,-0.506c0,-0.195 -0.07,-0.399 -0.157,-0.453c-0.086,-0.054 -0.157,-0.258 -0.157,-0.454c0,-0.195 -0.058,-0.423 -0.129,-0.505c-0.071,-0.083 -0.58,-1.542 -1.131,-3.242c-1.196,-3.693 -1.418,-4.063 -1.942,-3.255m40.83,28.817c-0.427,1.034 -0.504,1.252 -0.712,2.021c-0.274,1.014 -0.482,1.555 -1.177,3.06c-1.086,2.351 -3.387,3.076 -11.704,3.693c-0.648,0.048 -1.246,0.153 -1.328,0.234c-0.082,0.081 -0.43,0.146 -0.774,0.146c-0.608,0 -1.384,0.194 -2.099,0.524c-0.926,0.427 1,0.88 6.871,1.612c5.836,0.728 7.033,1.032 8.113,2.063c0.376,0.358 0.684,0.769 0.684,0.912c0,0.143 0.071,0.304 0.157,0.358c0.087,0.054 0.158,0.268 0.158,0.476c0,0.208 0.07,0.422 0.157,0.475c0.086,0.054 0.157,0.238 0.157,0.408c0,0.171 0.063,0.434 0.141,0.585c0.079,0.152 0.229,0.597 0.336,0.989c0.106,0.392 0.325,1.11 0.486,1.596c0.161,0.485 0.293,0.961 0.293,1.057c0,0.096 0.147,0.519 0.326,0.94c0.468,1.098 0.624,0.861 1.424,-2.166c0.173,-0.654 0.385,-1.439 0.471,-1.744c0.087,-0.305 0.197,-0.717 0.244,-0.914c0.048,-0.197 0.149,-0.398 0.225,-0.445c0.076,-0.048 0.138,-0.223 0.138,-0.389c0,-0.74 1.214,-2.325 2.108,-2.753c1.433,-0.686 10.88,-2.153 13.882,-2.156c3.05,-0.002 8.926,0.847 10.165,1.47c1.2,0.603 1.855,1.613 2.435,3.76c0.106,0.393 0.246,0.856 0.311,1.031c0.064,0.174 0.203,0.602 0.309,0.951c0.672,2.22 1.015,2.22 1.562,0c0.532,-2.163 0.549,-2.217 1.184,-3.592c0.974,-2.112 2.928,-2.954 8.416,-3.629c2.356,-0.288 3.03,-0.406 3.533,-0.612l0.469,-0.194l-0.386,-0.293c-0.212,-0.162 -0.742,-0.332 -1.176,-0.377c-0.759,-0.079 -1.619,-0.226 -3.304,-0.563c-0.74,-0.149 -1.308,-0.272 -2.985,-0.648c-0.388,-0.087 -1.007,-0.217 -1.374,-0.289c-2.033,-0.396 -3.033,-1.384 -3.885,-3.835c-0.932,-2.686 -1.256,-3.023 -1.816,-1.891c-0.325,0.656 -0.452,0.95 -0.858,1.973c-0.086,0.218 -0.227,0.574 -0.314,0.792c-0.375,0.947 -0.578,1.298 -1.021,1.772c-0.543,0.581 -1.522,1.161 -1.959,1.161c-0.165,0 -0.339,0.064 -0.387,0.142c-0.048,0.078 -0.352,0.182 -0.677,0.231c-0.324,0.05 -1.014,0.167 -1.533,0.26c-2.247,0.406 -2.945,0.497 -4.97,0.65c-2.158,0.162 -5.126,0.038 -7.911,-0.33c-0.691,-0.092 -1.822,-0.236 -2.513,-0.321c-3.969,-0.487 -5.283,-0.938 -6.37,-2.184c-0.685,-0.786 -1.376,-2.165 -1.881,-3.758c-0.194,-0.611 -0.408,-1.253 -0.478,-1.427c-0.07,-0.175 -0.216,-0.585 -0.325,-0.912c-0.259,-0.773 -0.495,-0.751 -0.838,0.08m-22.037,17.366c-0.194,0.415 -0.353,0.873 -0.353,1.018c0,0.145 -0.071,0.307 -0.157,0.361c-0.087,0.054 -0.157,0.304 -0.157,0.555c0,0.251 -0.071,0.501 -0.157,0.555c-0.087,0.054 -0.158,0.237 -0.158,0.407c0,0.171 -0.062,0.434 -0.138,0.585c-0.077,0.152 -0.211,0.454 -0.299,0.672c-1.281,3.185 -2.274,3.641 -9.695,4.446c-2.727,0.296 -4.16,0.485 -5.532,0.729c-0.862,0.153 -1.11,0.849 -0.302,0.849c0.193,0 0.419,0.064 0.501,0.142c0.082,0.078 0.467,0.187 0.856,0.242c0.389,0.055 1.166,0.171 1.728,0.259c1.071,0.167 2.376,0.349 4.477,0.622c2.95,0.384 4.512,0.644 4.713,0.786c0.086,0.061 0.44,0.201 0.785,0.311c1.065,0.339 1.741,1.106 2.11,2.394c0.112,0.392 0.257,0.856 0.321,1.03c0.292,0.789 0.475,1.476 0.475,1.785c0,0.185 0.071,0.38 0.158,0.434c0.086,0.054 0.157,0.268 0.157,0.476c0,0.208 0.07,0.422 0.157,0.475c0.086,0.054 0.158,0.255 0.159,0.446c0.001,0.191 0.11,0.632 0.241,0.981c0.132,0.349 0.28,0.759 0.331,0.912c0.279,0.849 0.676,-0.053 1.553,-3.525c0.996,-3.943 2.122,-5.551 3.888,-5.551c0.199,0 0.43,-0.064 0.512,-0.143c0.082,-0.079 0.467,-0.182 0.856,-0.23c0.389,-0.048 1.131,-0.162 1.649,-0.252c7.869,-1.376 10.448,-1.48 16.338,-0.653c0.605,0.085 1.488,0.224 1.963,0.31c0.476,0.085 1.202,0.205 1.614,0.266c0.412,0.061 0.788,0.172 0.834,0.248c0.047,0.075 0.257,0.137 0.468,0.137c0.211,0 0.383,0.072 0.383,0.159c0,0.087 0.099,0.158 0.22,0.158c0.301,0 1.118,0.968 1.432,1.698c0.143,0.331 0.324,0.725 0.404,0.876c0.079,0.152 0.144,0.415 0.144,0.585c0,0.171 0.07,0.354 0.157,0.408c0.086,0.054 0.157,0.268 0.157,0.476c0,0.207 0.07,0.421 0.157,0.475c0.086,0.054 0.157,0.268 0.157,0.476c0,0.207 0.071,0.421 0.157,0.475c0.086,0.054 0.159,0.255 0.162,0.446c0.021,1.444 0.761,0.998 1.266,-0.763c1.104,-3.855 2.54,-5.786 4.304,-5.786c0.182,0 0.399,-0.064 0.481,-0.144c0.082,-0.079 0.503,-0.184 0.935,-0.233c1.224,-0.14 3.774,-0.516 6.047,-0.892c0.562,-0.093 1.587,-0.231 2.278,-0.307c3.468,-0.381 2.694,-0.859 -2.435,-1.505c-10.024,-1.264 -10.07,-1.288 -11.567,-6.249c-0.331,-1.098 -0.689,-1.997 -0.815,-2.046c-0.284,-0.11 -0.805,0.556 -0.81,1.035c-0.002,0.197 -0.067,0.482 -0.145,0.634c-0.078,0.151 -0.227,0.596 -0.332,0.988c-0.751,2.816 -1.839,4.153 -3.765,4.625c-6.558,1.608 -10.556,1.696 -20.031,0.439c-4.796,-0.635 -5.695,-1.415 -7.38,-6.4c-0.905,-2.677 -0.968,-2.75 -1.457,-1.707" style="fill:#fff;"/><path id="path2" d="M90.117,56.654c-6.444,0.344 -11.895,0.983 -16.808,1.97c-0.432,0.087 -1.139,0.226 -1.571,0.31c-0.862,0.167 -1.78,0.366 -2.985,0.647c-0.432,0.101 -1.033,0.241 -1.335,0.311c-0.865,0.202 -3.643,0.944 -4.163,1.112c-0.259,0.084 -1.425,0.449 -2.592,0.812c-1.166,0.361 -2.969,0.973 -4.006,1.357c-2.005,0.745 -2.105,0.785 -3.258,1.3c-0.409,0.183 -0.809,0.333 -0.888,0.333c-0.079,0 -0.416,0.136 -0.748,0.301c-0.332,0.166 -1.028,0.497 -1.546,0.735c-13.892,6.385 -23.168,15.55 -25.502,25.199c-0.489,2.019 -0.549,2.564 -0.546,4.994c0.003,2.943 0.293,4.736 1.142,7.054c0.192,0.523 0.39,1.093 0.441,1.266c0.308,1.044 2.171,4.266 3.596,6.219c4.262,5.842 12.49,12.003 21.104,15.804c0.562,0.248 1.304,0.578 1.65,0.734c4.114,1.849 11.828,4.367 16.546,5.399c0.403,0.089 1.052,0.231 1.441,0.316c0.388,0.086 1.06,0.225 1.492,0.308c0.432,0.084 1.139,0.224 1.571,0.31c8.315,1.671 19.784,2.528 27.883,2.084c6.027,-0.331 11.514,-0.91 15.395,-1.626c0.475,-0.087 1.253,-0.23 1.728,-0.317c2.598,-0.477 2.695,-0.497 5.262,-1.086c3.344,-0.767 8.955,-2.425 11.547,-3.412c0.388,-0.149 1.095,-0.414 1.57,-0.589c0.476,-0.176 1.076,-0.413 1.336,-0.526c0.259,-0.112 0.917,-0.387 1.463,-0.609c1.786,-0.727 2.273,-0.955 5.134,-2.406c2.883,-1.462 4.457,-2.373 6.473,-3.742c0.623,-0.423 1.17,-0.769 1.216,-0.769c0.046,0 0.208,-0.101 0.36,-0.225c0.153,-0.124 1.001,-0.77 1.885,-1.435c3.047,-2.293 6.222,-5.413 8.151,-8.01c2.676,-3.603 4.081,-6.66 5.101,-11.096c0.262,-1.139 0.266,-5.969 0.006,-7.134c-0.672,-3.017 -0.961,-3.911 -1.919,-5.944c-2.201,-4.669 -7.005,-10.285 -11.454,-13.393c-0.303,-0.211 -0.586,-0.429 -0.629,-0.484c-0.125,-0.161 -3.266,-2.255 -4.555,-3.038c-2.913,-1.768 -7.086,-3.877 -9.976,-5.041c-0.172,-0.07 -0.649,-0.276 -1.058,-0.459c-0.41,-0.184 -0.817,-0.333 -0.906,-0.333c-0.088,0 -0.283,-0.07 -0.433,-0.155c-0.814,-0.459 -7.27,-2.553 -10.248,-3.323c-0.303,-0.078 -0.833,-0.216 -1.178,-0.306c-0.622,-0.163 -2.871,-0.698 -4.085,-0.973c-0.345,-0.078 -0.876,-0.184 -1.178,-0.234c-0.302,-0.051 -0.939,-0.167 -1.414,-0.258c-2.244,-0.432 -2.728,-0.511 -5.694,-0.94c-7.225,-1.043 -15.426,-1.407 -22.818,-1.012m-14.249,5.179c0.089,0.109 0.664,1.732 1.278,3.607c0.613,1.874 1.185,3.532 1.27,3.684c0.085,0.151 0.155,0.414 0.155,0.584c0,0.171 0.071,0.354 0.157,0.408c0.087,0.054 0.158,0.238 0.158,0.408c0,0.17 0.07,0.451 0.157,0.625c0.086,0.173 0.227,0.457 0.314,0.63c0.086,0.173 0.157,0.391 0.157,0.485c0,0.3 0.98,2.261 1.587,3.175c2.037,3.068 4.604,4.032 13.493,5.07c0.735,0.085 1.937,0.227 2.671,0.315c0.734,0.087 1.936,0.227 2.671,0.31c0.734,0.082 1.936,0.222 2.67,0.309c0.734,0.087 1.972,0.229 2.749,0.315c1.527,0.17 3.655,0.415 5.655,0.652c0.692,0.083 1.858,0.215 2.592,0.295c0.735,0.08 2.149,0.241 3.142,0.356c2.376,0.276 9.174,0.278 11.232,0.003c0.864,-0.116 2.207,-0.276 2.985,-0.356c3.812,-0.395 4.779,-0.584 5.948,-1.161c0.867,-0.428 1.985,-1.432 1.985,-1.783c0,-0.104 0.058,-0.213 0.128,-0.242c0.142,-0.059 0.853,-1.797 1.286,-3.144c0.854,-2.659 1.211,-2.546 2.512,0.793c0.459,1.177 0.894,2.207 0.967,2.29c0.074,0.083 0.134,0.255 0.134,0.381c0,0.654 1.146,1.561 2.592,2.053c0.594,0.202 2.617,0.553 5.655,0.981c0.691,0.097 1.645,0.238 2.121,0.314c0.475,0.076 1.464,0.222 2.199,0.326c2.932,0.414 3.026,1.381 0.17,1.761c-0.569,0.075 -1.423,0.209 -1.898,0.296c-0.951,0.175 -2.32,0.39 -4.006,0.628c-3.868,0.546 -3.974,0.57 -5.21,1.155c-0.536,0.253 -1.176,0.899 -1.427,1.439c-0.433,0.932 -0.51,1.156 -1.77,5.139c-0.394,1.241 -0.752,1.707 -1.204,1.562c-0.356,-0.114 -0.489,-0.438 -1.151,-2.79c-0.848,-3.018 -1.315,-4.183 -1.954,-4.885c-0.976,-1.07 -1.396,-1.164 -8.805,-1.96c-2.445,-0.263 -9.873,-0.261 -12.803,0.003c-4.146,0.373 -5.775,0.538 -9.661,0.976c-2.632,0.296 -4.04,0.45 -5.027,0.549c-0.518,0.052 -1.402,0.16 -1.964,0.24c-0.561,0.081 -1.728,0.224 -2.592,0.318c-0.864,0.094 -2.065,0.239 -2.67,0.321c-0.605,0.082 -2.266,0.3 -3.692,0.483c-6.479,0.835 -9.052,2.5 -10.524,6.808c-0.104,0.305 -0.245,0.698 -0.314,0.872c-0.143,0.365 -0.596,1.821 -0.803,2.576c-0.077,0.283 -0.207,0.747 -0.288,1.03c-0.082,0.284 -0.224,0.783 -0.315,1.11c-0.091,0.327 -0.24,0.862 -0.332,1.189c-0.091,0.327 -0.226,0.808 -0.3,1.07c-0.31,1.092 -1.149,4.225 -1.502,5.609c-0.653,2.559 -1.625,3.069 -2.002,1.049c-0.081,-0.44 -0.18,-0.813 -0.605,-2.299c-0.087,-0.305 -0.219,-0.804 -0.293,-1.109c-0.073,-0.305 -0.276,-1.09 -0.451,-1.744c-0.425,-1.591 -0.4,-1.493 -1.054,-4.197c-1.352,-5.592 -2.937,-8.768 -5.031,-10.079c-1.292,-0.808 -4.503,-1.608 -8.232,-2.051c-0.821,-0.098 -1.916,-0.241 -2.435,-0.319c-0.518,-0.078 -1.508,-0.214 -2.199,-0.302c-1.231,-0.156 -1.492,-0.19 -3.81,-0.497c-1.765,-0.234 -3.448,-0.452 -4.909,-0.636c-0.734,-0.093 -1.83,-0.234 -2.434,-0.313c-0.605,-0.079 -1.683,-0.217 -2.396,-0.307c-3.138,-0.395 -3.885,-0.49 -5.105,-0.651c-0.713,-0.094 -1.827,-0.223 -2.475,-0.288c-2.765,-0.277 -2.887,-1.281 -0.193,-1.603c0.668,-0.08 1.78,-0.222 2.471,-0.316c1.184,-0.161 2.151,-0.285 4.948,-0.635c0.648,-0.082 1.691,-0.222 2.318,-0.311c1.91,-0.275 3.356,-0.474 4.673,-0.644c0.691,-0.09 1.787,-0.235 2.435,-0.323c0.648,-0.088 1.779,-0.233 2.513,-0.321c0.735,-0.09 1.795,-0.222 2.357,-0.295c0.561,-0.074 1.657,-0.212 2.435,-0.307c7.026,-0.863 9.919,-1.833 11.821,-3.962c0.944,-1.055 2.148,-3.735 3.677,-8.182c0.09,-0.262 0.223,-0.619 0.295,-0.793c0.071,-0.174 0.28,-0.781 0.463,-1.348c0.182,-0.566 0.399,-1.154 0.481,-1.305c0.082,-0.152 0.15,-0.384 0.15,-0.518c0,-0.133 0.062,-0.365 0.138,-0.517c0.075,-0.151 0.221,-0.561 0.324,-0.909c0.386,-1.311 1.025,-1.786 1.547,-1.15m40.676,28.397c0.162,0.208 0.389,0.689 0.504,1.07c0.374,1.237 0.813,2.588 0.947,2.912c1.321,3.204 2.517,4.054 6.368,4.531c2.255,0.28 3.752,0.479 4.791,0.637c2.781,0.423 7.57,0.345 10.211,-0.166c0.389,-0.075 1.131,-0.218 1.649,-0.318c4.079,-0.785 4.574,-1.168 5.743,-4.447c1.206,-3.377 1.874,-3.413 2.966,-0.158c0.828,2.47 1.634,3.461 3.109,3.823c2.702,0.664 5.588,1.278 7.347,1.565c1.619,0.264 2.264,0.427 2.511,0.633c0.633,0.531 -0.022,0.988 -1.804,1.258c-0.648,0.097 -2.132,0.321 -3.299,0.497c-4.878,0.734 -6.077,1.276 -6.996,3.162c-0.479,0.982 -0.6,1.323 -0.983,2.774c-0.836,3.167 -1.239,3.641 -1.858,2.185c-0.14,-0.33 -0.317,-0.724 -0.393,-0.875c-0.075,-0.151 -0.137,-0.384 -0.137,-0.517c0,-0.133 -0.064,-0.366 -0.142,-0.517c-0.078,-0.152 -0.226,-0.597 -0.33,-0.989c-0.103,-0.393 -0.251,-0.838 -0.329,-0.989c-0.078,-0.151 -0.142,-0.376 -0.142,-0.5c0,-0.334 -0.651,-1.502 -1.075,-1.931c-1.668,-1.682 -10.416,-2.386 -16.912,-1.361c-5.1,0.805 -5.695,0.909 -7.069,1.229c-1.194,0.278 -2.749,2.056 -2.749,3.144c0,0.127 -0.071,0.275 -0.157,0.329c-0.086,0.053 -0.157,0.303 -0.157,0.554c0,0.252 -0.063,0.497 -0.14,0.545c-0.076,0.047 -0.176,0.319 -0.221,0.603c-0.044,0.284 -0.163,0.802 -0.264,1.151c-0.1,0.349 -0.218,0.812 -0.262,1.03c-0.082,0.411 -0.264,0.902 -0.587,1.586c-0.208,0.439 -0.705,0.527 -0.886,0.158c-0.307,-0.623 -0.614,-1.503 -0.942,-2.695c-0.108,-0.392 -0.319,-1.105 -0.468,-1.585c-0.15,-0.48 -0.359,-1.193 -0.466,-1.585c-0.106,-0.393 -0.257,-0.838 -0.335,-0.989c-0.078,-0.151 -0.142,-0.374 -0.142,-0.495c0,-1.359 -2.412,-2.156 -8.718,-2.881c-4.715,-0.541 -6.821,-0.992 -7.288,-1.559c-0.561,-0.682 1.21,-1.163 6.188,-1.679c7.811,-0.81 8.985,-1.243 10.119,-3.732c0.2,-0.436 0.425,-0.916 0.502,-1.068c0.077,-0.151 0.14,-0.384 0.14,-0.517c0,-0.133 0.064,-0.366 0.142,-0.517c0.078,-0.151 0.227,-0.596 0.329,-0.989c0.235,-0.898 1.07,-2.695 1.253,-2.695c0.076,0 0.27,0.17 0.432,0.378m-22.052,17.296c0.128,0.129 0.554,1.253 0.946,2.496c1.545,4.895 2.384,5.54 8.189,6.291c7.394,0.957 11.359,0.925 16.73,-0.136c0.389,-0.076 1.112,-0.213 1.607,-0.304c1.07,-0.195 2.141,-0.653 2.502,-1.07c0.313,-0.362 1.232,-2.169 1.232,-2.423c0,-0.099 0.062,-0.304 0.138,-0.455c0.076,-0.152 0.208,-0.525 0.293,-0.831c0.638,-2.283 0.846,-2.694 1.356,-2.694c0.53,0 0.611,0.176 1.663,3.619c0.38,1.242 0.637,1.789 1.067,2.269c1.106,1.236 1.606,1.361 9.7,2.426c1.728,0.227 3.283,0.452 3.456,0.499c1.773,0.481 1.602,1.329 -0.314,1.563c-1.073,0.131 -2.962,0.395 -4.006,0.56c-1.299,0.205 -3.015,0.46 -4.202,0.623c-2.735,0.377 -4.156,1.073 -4.814,2.357c-0.345,0.676 -1.146,2.872 -1.429,3.919c-0.428,1.583 -1.079,2.094 -1.498,1.177c-0.058,-0.125 -0.186,-0.387 -0.286,-0.582c-0.1,-0.195 -0.181,-0.464 -0.181,-0.597c0,-0.133 -0.064,-0.365 -0.142,-0.517c-0.078,-0.151 -0.232,-0.596 -0.342,-0.989c-0.109,-0.392 -0.258,-0.781 -0.329,-0.864c-0.071,-0.082 -0.13,-0.277 -0.13,-0.431c0,-0.276 -0.474,-1.192 -0.942,-1.822c-0.608,-0.817 -1.528,-1.126 -4.87,-1.637c-0.562,-0.086 -1.587,-0.243 -2.278,-0.35c-1.661,-0.256 -8.707,-0.247 -10.368,0.013c-0.691,0.109 -1.645,0.257 -2.121,0.33c-0.475,0.073 -1.288,0.209 -1.806,0.301c-0.518,0.093 -1.402,0.243 -1.964,0.334c-0.561,0.09 -1.303,0.241 -1.649,0.333c-0.346,0.093 -0.79,0.209 -0.988,0.257c-1.248,0.305 -2.123,1.902 -3.085,5.634c-0.872,3.379 -0.966,3.609 -1.466,3.609c-0.293,0 -0.654,-0.456 -0.661,-0.834c-0.003,-0.154 -0.069,-0.404 -0.147,-0.555c-0.078,-0.151 -0.227,-0.596 -0.332,-0.989c-0.105,-0.392 -0.245,-0.891 -0.312,-1.109c-0.066,-0.218 -0.207,-0.718 -0.313,-1.11c-0.107,-0.392 -0.248,-0.856 -0.315,-1.03c-0.067,-0.175 -0.213,-0.638 -0.324,-1.031c-0.595,-2.086 -1.477,-2.764 -4.153,-3.192c-1.877,-0.3 -3.011,-0.463 -4.399,-0.631c-1.695,-0.205 -2.996,-0.391 -4.162,-0.596c-0.476,-0.084 -1.166,-0.203 -1.536,-0.266c-0.369,-0.062 -0.709,-0.175 -0.755,-0.25c-0.046,-0.076 -0.191,-0.138 -0.322,-0.138c-0.131,0 -0.349,-0.112 -0.485,-0.249c-0.735,-0.742 2.08,-1.465 7.339,-1.885c5.789,-0.464 7.621,-1.307 8.626,-3.969c0.197,-0.523 0.415,-1.093 0.482,-1.268c0.069,-0.174 0.211,-0.638 0.317,-1.03c0.199,-0.734 0.404,-1.3 0.647,-1.782c0.076,-0.151 0.139,-0.359 0.139,-0.463c0,-0.546 0.643,-0.888 0.997,-0.531" style="fill:#0e65c2;"/><path id="path4" d="M91.531,49.587c-0.173,0.075 -1.484,0.142 -2.914,0.148c-1.43,0.006 -2.667,0.076 -2.749,0.157c-0.082,0.08 -0.891,0.187 -1.799,0.239c-3.489,0.199 -4.325,0.277 -4.469,0.419c-0.082,0.081 -0.625,0.147 -1.208,0.147c-0.582,0 -1.103,0.072 -1.156,0.159c-0.053,0.087 -0.477,0.158 -0.942,0.158c-0.465,0 -0.89,0.072 -0.943,0.159c-0.053,0.087 -0.478,0.158 -0.943,0.158c-0.465,0 -0.889,0.072 -0.942,0.159c-0.053,0.087 -0.442,0.158 -0.864,0.158c-0.422,0 -0.811,0.072 -0.864,0.159c-0.053,0.087 -0.407,0.158 -0.786,0.158c-0.378,0 -0.732,0.072 -0.785,0.159c-0.053,0.087 -0.411,0.158 -0.795,0.158c-0.384,0 -0.697,0.072 -0.697,0.159c0,0.087 -0.279,0.158 -0.619,0.158c-0.341,0 -0.663,0.072 -0.717,0.159c-0.053,0.087 -0.371,0.159 -0.706,0.159c-0.336,0 -0.654,0.071 -0.707,0.158c-0.054,0.087 -0.337,0.159 -0.629,0.159c-0.292,0 -0.575,0.071 -0.628,0.158c-0.053,0.087 -0.301,0.159 -0.55,0.159c-0.249,0 -0.49,0.061 -0.536,0.136c-0.046,0.075 -0.457,0.181 -0.913,0.236c-0.456,0.054 -1.324,0.282 -1.928,0.503c-0.605,0.223 -1.118,0.401 -1.14,0.396c-0.168,-0.037 -1.469,0.346 -2.159,0.636c-0.173,0.073 -0.774,0.283 -1.335,0.468c-0.562,0.184 -1.144,0.402 -1.295,0.486c-0.15,0.083 -0.415,0.151 -0.589,0.151c-0.174,0 -0.316,0.071 -0.316,0.158c0,0.087 -0.172,0.159 -0.383,0.159c-0.211,0 -0.427,0.071 -0.481,0.158c-0.053,0.087 -0.234,0.159 -0.402,0.159c-0.168,0 -0.305,0.071 -0.305,0.158c0,0.087 -0.212,0.159 -0.471,0.159c-0.259,0 -0.471,0.071 -0.471,0.158c0,0.087 -0.107,0.159 -0.238,0.159c-0.131,0 -0.36,0.063 -0.51,0.141c-0.15,0.078 -0.627,0.299 -1.059,0.493c-0.432,0.193 -0.908,0.415 -1.058,0.493c-0.15,0.078 -0.38,0.141 -0.511,0.141c-0.13,0 -0.237,0.071 -0.237,0.158c0,0.088 -0.142,0.159 -0.314,0.159c-0.173,0 -0.315,0.071 -0.315,0.158c0,0.088 -0.141,0.159 -0.314,0.159c-0.173,0 -0.314,0.071 -0.314,0.159c0,0.087 -0.141,0.158 -0.314,0.158c-0.173,0 -0.314,0.071 -0.314,0.159c0,0.087 -0.124,0.159 -0.275,0.16c-0.151,0.002 -0.428,0.091 -0.615,0.199c-0.479,0.275 -1.657,0.866 -1.938,0.972c-0.13,0.048 -0.589,0.307 -1.021,0.574c-0.432,0.268 -0.909,0.527 -1.06,0.577c-0.152,0.05 -0.275,0.154 -0.275,0.231c0,0.077 -0.142,0.14 -0.314,0.14c-0.173,0 -0.315,0.063 -0.315,0.139c0,0.077 -0.212,0.228 -0.471,0.337c-0.259,0.108 -0.471,0.259 -0.471,0.336c0,0.077 -0.109,0.139 -0.242,0.139c-0.134,0 -0.394,0.143 -0.58,0.317c-0.185,0.175 -0.43,0.317 -0.543,0.317c-0.113,0 -0.206,0.072 -0.206,0.159c0,0.087 -0.106,0.158 -0.236,0.158c-0.129,0 -0.235,0.072 -0.235,0.159c0,0.087 -0.106,0.158 -0.236,0.158c-0.13,0 -0.236,0.072 -0.236,0.159c0,0.087 -0.106,0.158 -0.235,0.158c-0.13,0 -0.236,0.056 -0.236,0.125c0,0.068 -0.214,0.251 -0.475,0.408c-0.262,0.155 -0.648,0.456 -0.857,0.668c-0.21,0.211 -0.485,0.385 -0.611,0.385c-0.127,0 -0.253,0.055 -0.282,0.124c-0.029,0.068 -0.512,0.475 -1.074,0.904c-0.561,0.429 -1.056,0.819 -1.099,0.868c-0.044,0.047 -0.345,0.287 -0.67,0.531c-0.714,0.538 -4.441,4.291 -5.535,5.575c-0.432,0.506 -0.98,1.135 -1.218,1.397c-0.237,0.262 -0.432,0.534 -0.432,0.604c0,0.07 -0.177,0.306 -0.393,0.524c-0.216,0.218 -0.392,0.457 -0.392,0.532c0,0.075 -0.124,0.274 -0.275,0.443c-0.382,0.427 -1.453,2.22 -1.453,2.432c0,0.096 -0.071,0.174 -0.157,0.174c-0.087,0 -0.157,0.143 -0.157,0.317c0,0.175 -0.071,0.317 -0.158,0.317c-0.086,0 -0.157,0.143 -0.157,0.317c0,0.175 -0.053,0.318 -0.117,0.318c-0.141,0.002 -0.511,0.77 -0.511,1.061c0,0.114 -0.071,0.206 -0.157,0.206c-0.086,0 -0.157,0.143 -0.157,0.318c0,0.174 -0.071,0.317 -0.157,0.317c-0.087,0 -0.157,0.138 -0.157,0.307c0,0.169 -0.071,0.352 -0.157,0.406c-0.087,0.054 -0.158,0.272 -0.158,0.485c0,0.213 -0.07,0.387 -0.157,0.387c-0.086,0 -0.157,0.174 -0.157,0.387c0,0.212 -0.07,0.431 -0.157,0.485c-0.086,0.054 -0.157,0.268 -0.157,0.475c0,0.208 -0.071,0.422 -0.157,0.476c-0.086,0.054 -0.157,0.308 -0.157,0.564c0,0.257 -0.071,0.466 -0.157,0.466c-0.087,0 -0.157,0.271 -0.157,0.603c0,0.331 -0.089,0.691 -0.197,0.8c-0.284,0.287 -0.284,11.175 0,11.461c0.108,0.109 0.197,0.465 0.197,0.791c0,0.327 0.07,0.638 0.157,0.692c0.086,0.053 0.157,0.307 0.157,0.564c0,0.256 0.071,0.466 0.157,0.466c0.086,0 0.157,0.178 0.157,0.396c0,0.218 0.071,0.397 0.157,0.397c0.087,0 0.157,0.214 0.157,0.475c0,0.262 0.071,0.476 0.157,0.476c0.087,0 0.157,0.214 0.157,0.475c0,0.262 0.071,0.476 0.158,0.476c0.086,0 0.157,0.142 0.157,0.317c0,0.174 0.07,0.317 0.157,0.317c0.086,0 0.157,0.097 0.157,0.215c0,0.211 0.932,2.164 1.107,2.321c0.049,0.044 0.24,0.41 0.425,0.813c0.308,0.671 0.929,1.711 1.272,2.13c0.076,0.093 0.229,0.342 0.341,0.555c0.112,0.212 0.333,0.501 0.493,0.642c0.159,0.142 0.289,0.327 0.289,0.413c0,0.086 0.194,0.364 0.432,0.619c0.238,0.254 0.643,0.747 0.9,1.093c0.473,0.639 5.501,5.783 5.652,5.783c0.095,0 0.488,0.324 1.396,1.149c0.359,0.327 0.699,0.595 0.756,0.595c0.056,0 0.386,0.232 0.733,0.515c1.185,0.968 1.363,1.1 1.716,1.269c0.195,0.093 0.354,0.229 0.354,0.302c0,0.073 0.106,0.133 0.236,0.133c0.129,0 0.235,0.071 0.235,0.159c0,0.087 0.106,0.158 0.236,0.158c0.129,0 0.235,0.071 0.235,0.159c0,0.087 0.106,0.158 0.236,0.158c0.13,0 0.236,0.071 0.236,0.159c0,0.087 0.074,0.158 0.163,0.158c0.09,0 0.316,0.143 0.501,0.317c0.186,0.175 0.43,0.317 0.543,0.317c0.114,0 0.206,0.072 0.206,0.159c0,0.087 0.142,0.158 0.315,0.158c0.172,0 0.314,0.063 0.314,0.139c0,0.077 0.212,0.229 0.471,0.337c0.259,0.108 0.471,0.259 0.471,0.336c0,0.077 0.142,0.139 0.315,0.139c0.172,0 0.314,0.072 0.314,0.159c0,0.087 0.106,0.159 0.235,0.159c0.13,0 0.236,0.071 0.236,0.158c0,0.087 0.1,0.159 0.223,0.159c0.122,0 0.246,0.057 0.275,0.126c0.076,0.185 4.92,2.568 5.219,2.568c0.139,0 0.252,0.072 0.252,0.159c0,0.087 0.142,0.158 0.315,0.158c0.172,0 0.314,0.072 0.314,0.159c0,0.087 0.107,0.159 0.237,0.159c0.131,0 0.361,0.062 0.511,0.138c1.168,0.594 1.668,0.813 1.859,0.813c0.121,0 0.22,0.071 0.22,0.158c0,0.087 0.177,0.159 0.393,0.159c0.216,0 0.393,0.071 0.393,0.158c0,0.087 0.137,0.159 0.305,0.159c0.167,0 0.348,0.071 0.402,0.158c0.053,0.087 0.27,0.159 0.48,0.159c0.211,0 0.384,0.071 0.384,0.158c0,0.088 0.212,0.159 0.471,0.159c0.259,0 0.471,0.071 0.471,0.158c0,0.088 0.137,0.159 0.305,0.159c0.168,0 0.349,0.071 0.402,0.158c0.054,0.088 0.27,0.159 0.481,0.159c0.211,0 0.383,0.071 0.383,0.158c0,0.088 0.208,0.159 0.462,0.159c0.254,0 0.506,0.071 0.559,0.159c0.054,0.087 0.27,0.158 0.481,0.158c0.211,0 0.383,0.071 0.383,0.159c0,0.087 0.142,0.158 0.316,0.158c0.174,0 0.439,0.063 0.589,0.139c0.459,0.234 1.376,0.495 1.737,0.495c0.189,0 0.343,0.071 0.343,0.159c0,0.087 0.208,0.158 0.462,0.158c0.254,0 0.501,0.064 0.548,0.141c0.048,0.078 0.317,0.177 0.599,0.221c0.797,0.125 1.401,0.275 1.675,0.417c0.138,0.072 0.533,0.187 0.879,0.256c0.345,0.069 0.734,0.154 0.864,0.189c0.129,0.035 0.573,0.104 0.985,0.154c0.412,0.049 0.788,0.152 0.834,0.228c0.046,0.076 0.359,0.138 0.694,0.138c0.336,0 0.654,0.071 0.707,0.158c0.054,0.088 0.407,0.159 0.786,0.159c0.378,0 0.732,0.071 0.785,0.159c0.053,0.087 0.397,0.158 0.764,0.158c0.366,0 0.733,0.065 0.815,0.143c0.14,0.134 0.595,0.213 2.505,0.431c0.432,0.049 0.853,0.154 0.935,0.233c0.082,0.08 0.559,0.144 1.06,0.144c0.503,0 0.912,0.071 0.912,0.159c0,0.09 0.468,0.158 1.09,0.158c0.599,0 1.134,0.072 1.187,0.159c0.054,0.087 0.694,0.158 1.424,0.158c0.779,0 1.325,0.066 1.325,0.159c0,0.095 0.644,0.158 1.618,0.158c0.89,0 1.686,0.067 1.768,0.149c0.455,0.453 19.938,0.463 20.885,0.01c0.173,-0.083 0.985,-0.186 1.806,-0.231c3.065,-0.166 4.167,-0.272 4.312,-0.415c0.082,-0.081 0.63,-0.147 1.218,-0.147c0.607,0 1.068,-0.068 1.068,-0.158c0,-0.089 0.442,-0.159 1.012,-0.159c0.556,0 1.055,-0.071 1.109,-0.158c0.053,-0.088 0.482,-0.159 0.952,-0.159c0.47,0 0.854,-0.071 0.854,-0.158c0,-0.088 0.349,-0.159 0.776,-0.159c0.427,0 0.82,-0.071 0.874,-0.158c0.053,-0.088 0.411,-0.159 0.795,-0.159c0.383,0 0.697,-0.071 0.697,-0.158c0,-0.088 0.354,-0.159 0.786,-0.159c0.432,0 0.785,-0.071 0.785,-0.159c0,-0.087 0.318,-0.158 0.707,-0.158c0.389,0 0.707,-0.071 0.707,-0.159c0,-0.087 0.23,-0.159 0.51,-0.16c0.456,-0.002 2.04,-0.363 3.574,-0.816c0.303,-0.09 0.78,-0.2 1.062,-0.245c0.282,-0.045 0.551,-0.145 0.598,-0.223c0.048,-0.077 0.29,-0.141 0.539,-0.141c0.249,0 0.489,-0.059 0.534,-0.131c0.044,-0.072 0.49,-0.227 0.991,-0.343c0.501,-0.116 0.977,-0.271 1.06,-0.344c0.082,-0.073 0.307,-0.133 0.501,-0.133c0.193,0 0.395,-0.071 0.449,-0.158c0.053,-0.088 0.265,-0.159 0.471,-0.159c0.206,0 0.418,-0.071 0.471,-0.158c0.054,-0.088 0.27,-0.159 0.481,-0.159c0.211,0 0.383,-0.071 0.383,-0.159c0,-0.087 0.143,-0.158 0.317,-0.158c0.174,0 0.439,-0.063 0.589,-0.14c0.15,-0.077 0.485,-0.228 0.744,-0.336c0.259,-0.107 0.594,-0.258 0.744,-0.335c0.15,-0.077 0.411,-0.14 0.58,-0.14c0.169,0 0.35,-0.072 0.404,-0.159c0.053,-0.087 0.234,-0.158 0.402,-0.158c0.168,0 0.305,-0.072 0.305,-0.159c0,-0.087 0.172,-0.158 0.383,-0.158c0.211,0 0.427,-0.072 0.481,-0.159c0.053,-0.087 0.234,-0.158 0.402,-0.158c0.168,0 0.305,-0.072 0.305,-0.159c0,-0.087 0.141,-0.158 0.314,-0.158c0.173,0 0.314,-0.072 0.314,-0.159c0,-0.087 0.177,-0.158 0.393,-0.158c0.216,0 0.392,-0.072 0.392,-0.159c0,-0.087 0.142,-0.158 0.315,-0.158c0.172,0 0.314,-0.072 0.314,-0.159c0,-0.087 0.141,-0.159 0.314,-0.159c0.173,0 0.314,-0.071 0.314,-0.158c0,-0.087 0.124,-0.159 0.275,-0.159c0.151,-0.001 0.623,-0.179 1.048,-0.397c0.425,-0.217 0.861,-0.395 0.968,-0.395c0.108,0 0.22,-0.054 0.249,-0.121c0.029,-0.066 0.688,-0.439 1.466,-0.83c0.778,-0.39 1.503,-0.795 1.611,-0.899c0.109,-0.105 0.338,-0.236 0.51,-0.291c0.173,-0.055 0.314,-0.166 0.314,-0.248c0,-0.081 0.141,-0.148 0.314,-0.148c0.173,0 0.314,-0.063 0.314,-0.139c0,-0.078 0.124,-0.18 0.275,-0.229c0.27,-0.086 1.141,-0.585 1.296,-0.742c0.043,-0.043 0.273,-0.18 0.511,-0.304c0.237,-0.123 0.432,-0.284 0.432,-0.356c0,-0.072 0.092,-0.132 0.206,-0.132c0.113,0 0.343,-0.125 0.51,-0.277c0.168,-0.153 0.499,-0.379 0.737,-0.503c0.237,-0.123 0.432,-0.284 0.432,-0.356c0,-0.073 0.081,-0.132 0.181,-0.132c0.198,0 1.279,-0.777 2.041,-1.466c0.265,-0.24 0.543,-0.436 0.617,-0.436c0.074,0 0.368,-0.232 0.653,-0.515c0.285,-0.284 0.8,-0.726 1.144,-0.983c0.637,-0.476 5.732,-5.545 5.732,-5.704c0,-0.095 0.283,-0.453 1.056,-1.335c0.279,-0.318 0.509,-0.635 0.511,-0.704c0.002,-0.07 0.175,-0.299 0.384,-0.51c0.209,-0.212 0.426,-0.529 0.482,-0.707c0.056,-0.177 0.159,-0.322 0.229,-0.322c0.07,0 0.215,-0.214 0.322,-0.475c0.108,-0.262 0.241,-0.476 0.297,-0.476c0.056,0 0.453,-0.695 0.884,-1.546c0.431,-0.85 0.836,-1.569 0.901,-1.598c0.065,-0.029 0.118,-0.185 0.118,-0.347c0,-0.162 0.07,-0.339 0.157,-0.393c0.086,-0.054 0.157,-0.236 0.157,-0.406c0,-0.169 0.07,-0.307 0.157,-0.307c0.086,0 0.157,-0.143 0.157,-0.317c0,-0.175 0.071,-0.317 0.157,-0.317c0.086,0 0.157,-0.214 0.157,-0.476c0,-0.261 0.071,-0.475 0.157,-0.475c0.087,0 0.157,-0.179 0.157,-0.397c0,-0.218 0.071,-0.396 0.157,-0.396c0.087,0 0.157,-0.21 0.157,-0.466c0,-0.256 0.071,-0.51 0.158,-0.564c0.086,-0.054 0.157,-0.268 0.157,-0.476c0,-0.208 0.07,-0.422 0.157,-0.475c0.086,-0.054 0.157,-0.365 0.157,-0.692c0,-0.326 0.088,-0.682 0.196,-0.791c0.15,-0.151 0.197,-1.523 0.197,-5.765c0,-4.312 -0.045,-5.581 -0.197,-5.632c-0.117,-0.04 -0.196,-0.348 -0.196,-0.767c0,-0.385 -0.071,-0.7 -0.157,-0.7c-0.087,0 -0.157,-0.249 -0.157,-0.555c0,-0.305 -0.071,-0.554 -0.157,-0.554c-0.087,0 -0.158,-0.174 -0.158,-0.387c0,-0.213 -0.07,-0.431 -0.157,-0.485c-0.086,-0.054 -0.157,-0.273 -0.157,-0.485c0,-0.213 -0.07,-0.387 -0.157,-0.387c-0.086,0 -0.157,-0.214 -0.157,-0.476c0,-0.261 -0.071,-0.475 -0.157,-0.475c-0.086,0 -0.157,-0.143 -0.157,-0.317c0,-0.175 -0.071,-0.317 -0.157,-0.317c-0.087,0 -0.157,-0.143 -0.157,-0.317c0,-0.175 -0.071,-0.318 -0.157,-0.318c-0.087,0 -0.157,-0.092 -0.157,-0.206c0,-0.291 -0.37,-1.059 -0.511,-1.061c-0.065,0 -0.118,-0.126 -0.118,-0.278c-0.001,-0.153 -0.248,-0.691 -0.55,-1.197c-0.302,-0.506 -0.549,-0.987 -0.549,-1.07c0,-0.083 -0.066,-0.151 -0.147,-0.151c-0.08,0 -0.188,-0.134 -0.24,-0.297c-0.052,-0.164 -0.268,-0.503 -0.482,-0.753c-0.213,-0.251 -0.388,-0.529 -0.388,-0.619c0,-0.089 -0.141,-0.266 -0.314,-0.391c-0.173,-0.126 -0.314,-0.311 -0.314,-0.413c0,-0.101 -0.283,-0.477 -0.629,-0.837c-0.345,-0.359 -0.628,-0.707 -0.628,-0.772c-0.001,-0.065 -0.213,-0.332 -0.474,-0.594c-0.26,-0.262 -0.737,-0.76 -1.06,-1.107c-1.214,-1.308 -3.767,-3.823 -4.288,-4.224c-0.297,-0.229 -0.788,-0.644 -1.09,-0.921c-0.303,-0.278 -0.799,-0.669 -1.102,-0.87c-0.304,-0.201 -0.648,-0.482 -0.766,-0.624c-0.117,-0.143 -0.31,-0.259 -0.429,-0.259c-0.119,0 -0.217,-0.055 -0.217,-0.122c0,-0.066 -0.282,-0.297 -0.628,-0.513c-0.346,-0.215 -0.628,-0.446 -0.628,-0.512c0,-0.067 -0.106,-0.122 -0.236,-0.122c-0.13,0 -0.236,-0.071 -0.236,-0.158c0,-0.087 -0.092,-0.159 -0.206,-0.159c-0.113,0 -0.357,-0.142 -0.543,-0.317c-0.185,-0.174 -0.411,-0.317 -0.501,-0.317c-0.09,0 -0.163,-0.071 -0.163,-0.158c0,-0.087 -0.126,-0.159 -0.28,-0.159c-0.154,0 -0.381,-0.142 -0.506,-0.317c-0.124,-0.174 -0.319,-0.317 -0.434,-0.317c-0.114,0 -0.359,-0.143 -0.544,-0.317c-0.186,-0.174 -0.431,-0.317 -0.544,-0.317c-0.113,0 -0.206,-0.054 -0.206,-0.12c0,-0.066 -0.23,-0.22 -0.51,-0.344c-0.281,-0.123 -0.546,-0.265 -0.589,-0.316c-0.224,-0.261 -4.159,-2.232 -4.457,-2.232c-0.141,0 -0.256,-0.071 -0.256,-0.158c0,-0.088 -0.141,-0.159 -0.314,-0.159c-0.173,0 -0.314,-0.071 -0.314,-0.158c0,-0.088 -0.142,-0.159 -0.315,-0.159c-0.172,0 -0.314,-0.071 -0.314,-0.159c0,-0.087 -0.141,-0.158 -0.314,-0.158c-0.173,0 -0.314,-0.071 -0.314,-0.159c0,-0.087 -0.137,-0.158 -0.305,-0.158c-0.168,0 -0.349,-0.071 -0.402,-0.159c-0.053,-0.087 -0.235,-0.158 -0.402,-0.158c-0.168,0 -0.305,-0.071 -0.305,-0.159c0,-0.087 -0.177,-0.158 -0.393,-0.158c-0.216,0 -0.392,-0.071 -0.392,-0.159c0,-0.087 -0.137,-0.158 -0.305,-0.158c-0.168,0 -0.349,-0.072 -0.402,-0.159c-0.054,-0.087 -0.235,-0.158 -0.402,-0.158c-0.168,0 -0.305,-0.072 -0.305,-0.159c0,-0.087 -0.173,-0.158 -0.384,-0.158c-0.21,0 -0.427,-0.072 -0.48,-0.159c-0.054,-0.087 -0.235,-0.158 -0.402,-0.158c-0.168,0 -0.305,-0.072 -0.305,-0.159c0,-0.087 -0.212,-0.158 -0.471,-0.158c-0.26,0 -0.472,-0.056 -0.472,-0.124c0,-0.069 -0.335,-0.223 -0.746,-0.344c-0.41,-0.121 -0.852,-0.276 -0.982,-0.345c-0.244,-0.129 -2.529,-0.884 -3.77,-1.244c-0.389,-0.113 -1.108,-0.341 -1.598,-0.507c-0.49,-0.166 -1.252,-0.345 -1.693,-0.398c-0.441,-0.052 -0.84,-0.157 -0.885,-0.231c-0.046,-0.075 -0.288,-0.136 -0.537,-0.136c-0.248,0 -0.491,-0.064 -0.539,-0.142c-0.048,-0.078 -0.352,-0.179 -0.677,-0.225c-0.325,-0.046 -0.908,-0.166 -1.297,-0.267c-0.389,-0.102 -0.972,-0.222 -1.297,-0.268c-0.324,-0.046 -0.629,-0.147 -0.677,-0.225c-0.048,-0.078 -0.401,-0.142 -0.784,-0.142c-0.384,0 -0.698,-0.071 -0.698,-0.158c0,-0.087 -0.353,-0.159 -0.785,-0.159c-0.432,0 -0.786,-0.071 -0.786,-0.158c0,-0.087 -0.349,-0.159 -0.776,-0.159c-0.427,0 -0.82,-0.071 -0.873,-0.158c-0.054,-0.087 -0.478,-0.159 -0.943,-0.159c-0.465,0 -0.889,-0.071 -0.942,-0.158c-0.054,-0.087 -0.553,-0.159 -1.109,-0.159c-0.57,0 -1.012,-0.069 -1.012,-0.158c0,-0.092 -0.498,-0.159 -1.178,-0.159c-0.681,0 -1.178,-0.067 -1.178,-0.158c0,-0.093 -0.521,-0.159 -1.248,-0.159c-0.686,0 -1.291,-0.071 -1.344,-0.158c-0.055,-0.09 -0.803,-0.159 -1.706,-0.159c-0.885,0 -1.676,-0.067 -1.758,-0.149c-0.26,-0.259 -14.205,-0.568 -14.759,-0.327m13.069,6.979c2.906,0.234 6.709,0.617 7.981,0.802c3.074,0.448 5.582,0.875 7.383,1.255c0.346,0.073 1.053,0.218 1.571,0.321c0.519,0.104 1.12,0.245 1.336,0.313c0.216,0.069 0.816,0.21 1.335,0.315c0.518,0.104 1.065,0.254 1.215,0.333c0.15,0.08 0.482,0.145 0.737,0.145c0.255,0 0.508,0.071 0.561,0.159c0.054,0.087 0.267,0.158 0.474,0.158c0.206,0 0.538,0.064 0.736,0.142c0.199,0.078 0.679,0.229 1.068,0.335c0.389,0.106 0.848,0.248 1.021,0.316c0.173,0.067 0.632,0.21 1.021,0.317c0.389,0.107 0.849,0.253 1.021,0.324c0.173,0.07 0.703,0.251 1.179,0.401c0.95,0.3 5.12,1.86 5.93,2.219c0.28,0.124 0.775,0.342 1.099,0.483c1.911,0.831 4.662,2.169 6.009,2.924c2.136,1.195 2.644,1.497 4.455,2.651c4.197,2.676 8.071,5.987 10.697,9.146c1.404,1.688 3.385,4.508 3.385,4.818c0,0.083 0.053,0.175 0.119,0.205c0.111,0.049 1.323,2.479 1.627,3.262c0.077,0.197 0.206,0.518 0.288,0.714c0.211,0.501 0.718,2.384 0.972,3.606c0.282,1.357 0.283,6.391 0.003,7.689c-0.237,1.09 -0.764,3.02 -0.954,3.487c-0.071,0.174 -0.2,0.495 -0.288,0.713c-0.365,0.908 -1.546,3.295 -1.922,3.884c-0.223,0.349 -0.502,0.829 -0.621,1.067c-0.12,0.239 -0.332,0.56 -0.471,0.714c-0.14,0.154 -0.428,0.53 -0.64,0.835c-0.763,1.095 -3.065,3.716 -4.181,4.759c-1.416,1.324 -3.416,3.016 -4.3,3.637c-0.303,0.213 -0.586,0.432 -0.629,0.488c-0.823,1.062 -13.003,7.919 -14.066,7.919c-0.041,0 -0.375,0.136 -0.741,0.303c-1.673,0.759 -6.77,2.578 -8.913,3.181c-0.389,0.109 -0.849,0.253 -1.021,0.321c-0.291,0.113 -1.014,0.318 -1.964,0.557c-0.216,0.054 -0.64,0.17 -0.942,0.258c-0.303,0.088 -0.833,0.222 -1.179,0.298c-0.345,0.076 -0.946,0.217 -1.335,0.313c-2.734,0.681 -6.354,1.38 -9.897,1.911c-3.143,0.472 -7.777,0.909 -11.624,1.095c-8.561,0.415 -16.812,-0.005 -24.977,-1.274c-2.085,-0.323 -4.005,-0.668 -5.263,-0.944c-0.346,-0.076 -1.017,-0.219 -1.492,-0.319c-0.962,-0.201 -1.639,-0.359 -2.632,-0.614c-0.367,-0.094 -0.968,-0.248 -1.335,-0.341c-1.186,-0.301 -2.676,-0.711 -3.417,-0.94c-0.216,-0.067 -0.71,-0.211 -1.099,-0.32c-3.936,-1.106 -9.303,-3.216 -13.746,-5.404c-3.193,-1.574 -9.393,-5.299 -9.975,-5.993c-0.043,-0.052 -0.502,-0.415 -1.021,-0.807c-0.518,-0.391 -0.978,-0.749 -1.021,-0.793c-0.043,-0.044 -0.538,-0.466 -1.099,-0.936c-13.668,-11.458 -14.791,-26.708 -2.879,-39.1c1.493,-1.554 3.818,-3.644 4.825,-4.34c0.182,-0.126 0.367,-0.272 0.41,-0.325c0.043,-0.053 0.326,-0.267 0.628,-0.477c0.303,-0.21 0.585,-0.426 0.629,-0.481c0.043,-0.055 0.608,-0.456 1.256,-0.892c3.527,-2.374 7.946,-4.782 11.861,-6.463c0.259,-0.111 0.824,-0.356 1.256,-0.544c1.408,-0.612 4.354,-1.689 6.519,-2.385c1.167,-0.375 2.244,-0.745 2.394,-0.824c0.15,-0.078 0.446,-0.142 0.658,-0.142c0.212,0 0.43,-0.071 0.483,-0.158c0.053,-0.088 0.301,-0.159 0.55,-0.159c0.249,0 0.492,-0.063 0.539,-0.141c0.048,-0.077 0.317,-0.179 0.598,-0.226c0.854,-0.143 1.438,-0.284 1.769,-0.427c0.173,-0.074 0.526,-0.172 0.785,-0.216c0.26,-0.044 0.79,-0.16 1.179,-0.257c0.388,-0.097 0.989,-0.236 1.335,-0.309c0.345,-0.073 1.017,-0.22 1.492,-0.326c3.99,-0.893 10.271,-1.765 15.866,-2.204c2.434,-0.191 15.059,-0.2 17.389,-0.012m-29.061,5.426c0.177,0.196 0.361,0.464 0.408,0.594c0.074,0.205 0.088,0.204 0.098,-0.009c0.013,-0.242 -0.529,-0.942 -0.727,-0.942c-0.055,0 0.044,0.161 0.221,0.357m-1.031,0.78c-0.011,0.145 -0.067,0.395 -0.123,0.554c-0.078,0.225 -0.057,0.25 0.092,0.111c0.107,-0.099 0.162,-0.348 0.123,-0.555c-0.038,-0.206 -0.08,-0.256 -0.092,-0.11m1.55,0.224c0.001,0.217 1.826,5.608 1.937,5.719c0.123,0.124 -0.003,-0.293 -0.987,-3.271c-0.763,-2.309 -0.951,-2.793 -0.95,-2.448m-1.867,0.806c-0.01,0.102 -0.064,0.316 -0.12,0.475c-0.079,0.226 -0.058,0.25 0.094,0.109c0.107,-0.099 0.161,-0.313 0.119,-0.475c-0.041,-0.162 -0.083,-0.211 -0.093,-0.109m3.92,5.393c-0.006,0.191 0.06,0.392 0.146,0.446c0.186,0.115 0.186,-0.04 0,-0.476c-0.13,-0.305 -0.135,-0.305 -0.146,0.03m0.31,0.884c-0.004,0.153 0.056,0.403 0.134,0.554c0.078,0.152 0.217,0.454 0.31,0.672c0.161,0.377 0.164,0.373 0.069,-0.079c-0.142,-0.679 -0.506,-1.491 -0.513,-1.147m-8.346,4.673c-0.497,0.994 -0.982,1.677 -1.714,2.413c-0.562,0.564 -0.805,0.872 -0.54,0.684c1.057,-0.749 3.336,-4.092 3.013,-4.418c-0.036,-0.036 -0.377,0.558 -0.759,1.321m10.455,0.349c0.672,1.311 3.198,3.666 3.917,3.651c0.095,-0.002 -0.203,-0.224 -0.662,-0.494c-1.033,-0.608 -2.037,-1.594 -2.794,-2.745c-0.634,-0.962 -0.835,-1.142 -0.461,-0.412m61.074,-0.15c0.337,0.977 0.956,2.377 1.021,2.312c0.044,-0.044 -0.071,-0.403 -0.255,-0.798c-0.184,-0.395 -0.337,-0.808 -0.34,-0.918c-0.002,-0.11 -0.118,-0.342 -0.256,-0.517c-0.141,-0.176 -0.216,-0.212 -0.17,-0.079m-1.119,1.356c-0.205,0.602 -0.41,1.204 -0.455,1.336c-0.054,0.158 -0.03,0.187 0.07,0.082c0.084,-0.087 0.249,-0.479 0.365,-0.872c0.117,-0.392 0.277,-0.798 0.355,-0.904c0.078,-0.104 0.118,-0.313 0.09,-0.463c-0.029,-0.15 -0.22,0.219 -0.425,0.821m2.192,1.236c-0.007,0.074 0.085,0.359 0.206,0.634c0.12,0.275 0.263,0.635 0.318,0.799c0.054,0.166 0.139,0.26 0.189,0.21c0.05,-0.05 -0.088,-0.471 -0.305,-0.934c-0.217,-0.464 -0.401,-0.783 -0.408,-0.709m-3.36,1.77c-0.144,0.304 -0.229,0.552 -0.189,0.552c0.107,0 0.584,-0.97 0.512,-1.043c-0.034,-0.034 -0.179,0.187 -0.323,0.491m-75.748,0.235c-0.303,0.132 -0.302,0.137 0.03,0.148c0.189,0.006 0.388,-0.06 0.442,-0.148c0.114,-0.187 -0.039,-0.187 -0.472,0m23.328,0c0.13,0.085 0.377,0.15 0.55,0.145l0.314,-0.008l-0.314,-0.137c-0.47,-0.203 -0.862,-0.203 -0.55,0m56.554,-0.063c-0.005,0.523 1.418,2.329 1.65,2.095c0.048,-0.047 -0.092,-0.204 -0.31,-0.348c-0.217,-0.144 -0.608,-0.635 -0.867,-1.092c-0.259,-0.456 -0.472,-0.751 -0.473,-0.655m-81.217,0.38l-0.393,0.127l0.423,0.016c0.232,0.009 0.466,-0.055 0.52,-0.143c0.11,-0.18 0.008,-0.18 -0.55,0m25.998,0c0.054,0.088 0.323,0.152 0.599,0.143c0.479,-0.015 0.483,-0.021 0.108,-0.143c-0.564,-0.182 -0.818,-0.182 -0.707,0m-27.647,0.317l-0.472,0.121l0.472,0.017c0.259,0.009 0.577,-0.053 0.706,-0.138c0.292,-0.19 0.035,-0.19 -0.706,0m29.373,-0.003c0.055,0.089 0.39,0.162 0.745,0.162c0.793,0 0.732,-0.08 -0.165,-0.22c-0.448,-0.069 -0.646,-0.049 -0.58,0.058m48.701,0.161c-0.157,0.175 -0.234,0.318 -0.171,0.318c0.165,0 0.613,-0.478 0.528,-0.563c-0.039,-0.04 -0.2,0.07 -0.357,0.245m-80.352,0.159l-0.707,0.111l0.785,0.022c0.432,0.011 0.892,-0.048 1.021,-0.133c0.276,-0.179 0.049,-0.179 -1.099,0m33.774,-0.003c0.212,0.141 1.873,0.243 1.715,0.105c-0.036,-0.032 -0.49,-0.103 -1.008,-0.16c-0.645,-0.07 -0.868,-0.052 -0.707,0.055m-36.288,0.321l-0.707,0.111l0.786,0.012c0.432,0.007 0.927,-0.049 1.1,-0.123c0.396,-0.172 -0.084,-0.172 -1.179,0m38.723,-0.005c0.296,0.133 2.091,0.229 1.951,0.106c-0.037,-0.032 -0.561,-0.101 -1.166,-0.152c-0.693,-0.06 -0.983,-0.043 -0.785,0.046m-41.315,0.322l-0.785,0.108l0.864,0.014c0.475,0.008 1.005,-0.048 1.178,-0.122c0.391,-0.17 -0.031,-0.17 -1.257,0m44.064,-0.006c0.381,0.129 2.317,0.222 2.186,0.106c-0.036,-0.031 -0.631,-0.098 -1.322,-0.148c-0.755,-0.054 -1.1,-0.037 -0.864,0.042m39.979,0.414c-0.345,0.209 -0.536,0.38 -0.423,0.381c0.112,0.002 0.465,-0.175 0.782,-0.393c0.73,-0.5 0.477,-0.492 -0.359,0.012m-86.556,-0.091l-0.786,0.108l0.864,0.014c0.476,0.008 1.006,-0.047 1.179,-0.122c0.391,-0.17 -0.031,-0.17 -1.257,0m49.326,-0.003c0.296,0.131 2.248,0.227 2.108,0.104c-0.036,-0.032 -0.596,-0.099 -1.244,-0.15c-0.728,-0.057 -1.058,-0.039 -0.864,0.046m-51.604,0.32l-0.707,0.111l0.786,0.012c0.432,0.007 0.927,-0.048 1.099,-0.123c0.397,-0.172 -0.083,-0.172 -1.178,0m54.353,-0.005c0.381,0.128 2.318,0.221 2.186,0.105c-0.036,-0.031 -0.631,-0.098 -1.322,-0.147c-0.755,-0.055 -1.1,-0.038 -0.864,0.042m42.571,-0.066c0,0.203 2.018,0.863 2.641,0.863c0.273,0 0.798,0.068 1.167,0.152c0.368,0.083 1.27,0.231 2.005,0.328c0.734,0.097 1.688,0.239 2.12,0.315c0.432,0.076 1.175,0.175 1.65,0.22l0.864,0.081l-0.707,-0.149c-0.902,-0.191 -2.237,-0.407 -3.927,-0.635c-0.735,-0.099 -1.632,-0.246 -1.994,-0.325c-0.363,-0.08 -0.868,-0.145 -1.124,-0.145c-0.256,0 -0.967,-0.171 -1.58,-0.381c-0.613,-0.209 -1.115,-0.355 -1.115,-0.324m-99.516,0.395c-1.026,0.133 -2.954,0.415 -4.32,0.632l-0.864,0.137l1.021,-0.076c0.562,-0.041 1.446,-0.137 1.964,-0.213c0.518,-0.076 1.569,-0.213 2.335,-0.305c0.767,-0.092 1.432,-0.206 1.48,-0.254c0.105,-0.106 -0.371,-0.083 -1.616,0.079m59.694,-0.011c0.471,0.125 2.388,0.213 2.265,0.105c-0.036,-0.032 -0.666,-0.096 -1.401,-0.143c-0.768,-0.05 -1.135,-0.034 -0.864,0.038m30.143,0.071c-0.356,0.112 -1.31,0.287 -2.121,0.388c-2.198,0.276 -2.389,0.324 -1.002,0.251c0.691,-0.037 1.61,-0.136 2.042,-0.222c0.432,-0.085 1.016,-0.202 1.298,-0.259c0.282,-0.057 0.551,-0.166 0.598,-0.244c0.11,-0.179 -0.021,-0.165 -0.815,0.086m-27.394,0.245c0.382,0.128 2.318,0.222 2.187,0.105c-0.037,-0.031 -0.632,-0.098 -1.323,-0.147c-0.755,-0.055 -1.1,-0.038 -0.864,0.042m2.383,0.238c0.057,0.06 0.799,0.174 1.649,0.252c0.85,0.078 2.11,0.215 2.802,0.303c3.984,0.511 10.246,0.596 13.117,0.178c3.048,-0.444 3.19,-0.475 1.806,-0.39c-0.691,0.043 -1.645,0.162 -2.121,0.266c-1.127,0.245 -9.519,0.237 -11.231,-0.011c-1.267,-0.184 -3.222,-0.416 -5.106,-0.605c-0.561,-0.057 -0.974,-0.054 -0.916,0.007m-71.816,0.41c-2.844,0.34 -3.841,0.485 -3.92,0.573c-0.085,0.093 0.234,0.064 3.056,-0.284c1.626,-0.201 2.853,-0.425 2.277,-0.417c-0.216,0.003 -0.852,0.06 -1.413,0.128m-6.127,0.783c-0.806,0.172 0.1,0.177 1.178,0.008l0.786,-0.124l-0.707,0c-0.389,0 -0.954,0.052 -1.257,0.116m123.329,-0.101c0.036,0.032 0.489,0.099 1.008,0.151c0.598,0.059 0.827,0.042 0.628,-0.046c-0.297,-0.132 -1.776,-0.227 -1.636,-0.105m-124.711,0.45c-0.257,0.259 -0.237,0.55 0.045,0.659c0.396,0.154 1.894,0.311 1.779,0.187c-0.059,-0.064 -0.483,-0.163 -0.942,-0.22c-0.911,-0.112 -1.15,-0.476 -0.442,-0.674c0.329,-0.092 0.34,-0.113 0.07,-0.126c-0.177,-0.009 -0.407,0.07 -0.51,0.174m125.247,0.761l-0.314,0.136l0.314,0.002c0.173,0.002 0.597,-0.057 0.943,-0.129l0.628,-0.131l-0.628,-0.007c-0.346,-0.004 -0.77,0.054 -0.943,0.129m-123.066,0.216c0.036,0.032 0.56,0.1 1.165,0.152c0.693,0.059 0.984,0.042 0.785,-0.046c-0.295,-0.133 -2.091,-0.23 -1.95,-0.106m87.564,0.094c-0.432,0.055 0.522,0.102 2.121,0.103c1.763,0.001 2.628,-0.044 2.199,-0.114c-0.837,-0.138 -3.211,-0.132 -4.32,0.011m33.774,0.015c-0.211,0.097 -0.057,0.113 0.472,0.048c0.432,-0.053 0.815,-0.123 0.851,-0.155c0.137,-0.124 -1.024,-0.03 -1.323,0.107m-118.668,0.209c0.036,0.032 0.525,0.101 1.087,0.154c0.658,0.062 0.909,0.045 0.707,-0.047c-0.296,-0.135 -1.934,-0.232 -1.794,-0.107m80.103,0.104c-0.225,0.075 0.347,0.093 1.335,0.042c0.951,-0.049 1.758,-0.115 1.794,-0.147c0.133,-0.118 -2.751,-0.021 -3.129,0.105m10.538,-0.104c0.036,0.032 0.702,0.099 1.479,0.149c0.841,0.053 1.255,0.036 1.021,-0.043c-0.379,-0.128 -2.633,-0.224 -2.5,-0.106m26.142,0.108c-0.211,0.097 -0.057,0.113 0.472,0.048c0.432,-0.053 0.814,-0.123 0.851,-0.155c0.137,-0.124 -1.024,-0.03 -1.323,0.107m-114.269,0.208c0.036,0.032 0.489,0.103 1.008,0.16c0.645,0.07 0.868,0.052 0.707,-0.055c-0.212,-0.142 -1.873,-0.243 -1.715,-0.105m74.211,0.105c-0.194,0.086 0.198,0.104 1.022,0.046c0.734,-0.051 1.364,-0.119 1.4,-0.151c0.142,-0.124 -2.127,-0.026 -2.422,0.105m17.372,-0.105c0.036,0.032 0.56,0.1 1.165,0.152c0.694,0.059 0.984,0.042 0.785,-0.046c-0.295,-0.133 -2.091,-0.229 -1.95,-0.106m20.723,0.11c-0.168,0.116 -0.008,0.132 0.549,0.057c0.432,-0.059 0.815,-0.133 0.852,-0.165c0.157,-0.142 -1.19,-0.038 -1.401,0.108m-109.636,0.208c0.036,0.031 0.454,0.104 0.93,0.162c0.602,0.073 0.792,0.056 0.628,-0.055c-0.211,-0.144 -1.716,-0.247 -1.558,-0.107m68.4,0.109c-0.205,0.095 0.069,0.111 0.785,0.049c0.605,-0.053 1.129,-0.123 1.165,-0.156c0.141,-0.128 -1.654,-0.03 -1.95,0.107m23.498,-0.109c0.036,0.031 0.454,0.104 0.929,0.162c0.602,0.073 0.793,0.056 0.628,-0.055c-0.211,-0.144 -1.716,-0.247 -1.557,-0.107m15.224,0.1c-0.301,0.196 0.107,0.2 1.021,0.009l0.629,-0.131l-0.707,-0.016c-0.389,-0.008 -0.813,0.054 -0.943,0.138m-104.609,0.218c0.037,0.032 0.42,0.106 0.852,0.165c0.557,0.075 0.717,0.059 0.549,-0.057c-0.211,-0.146 -1.558,-0.25 -1.401,-0.108m63.059,0.106c-0.203,0.092 0.049,0.109 0.707,0.047c0.562,-0.053 1.05,-0.122 1.087,-0.154c0.14,-0.125 -1.498,-0.028 -1.794,0.107m28.682,-0.108c0.185,0.161 0.946,0.257 0.855,0.108c-0.056,-0.091 -0.286,-0.165 -0.511,-0.165c-0.225,0 -0.38,0.026 -0.344,0.057m11.372,0.108c-0.066,0.108 0.052,0.127 0.344,0.057c0.602,-0.146 0.659,-0.222 0.167,-0.222c-0.226,0 -0.455,0.074 -0.511,0.165m-100.219,0.32c0.914,0.19 1.322,0.187 1.021,-0.01c-0.13,-0.084 -0.554,-0.146 -0.943,-0.138l-0.707,0.016l0.629,0.132m57.416,0c-0.167,0.115 0.041,0.132 0.707,0.057c0.518,-0.059 0.972,-0.133 1.008,-0.166c0.157,-0.143 -1.503,-0.038 -1.715,0.109m-54.903,0.307c0.706,0.182 1.361,0.182 0.943,0c-0.173,-0.074 -0.562,-0.132 -0.864,-0.128l-0.55,0.008l0.471,0.12m51.997,0.009c-0.208,0.095 0.006,0.112 0.628,0.048c0.519,-0.053 0.972,-0.123 1.008,-0.156c0.139,-0.126 -1.339,-0.029 -1.636,0.108m43.671,0.191c-0.733,0.54 -1.601,1.931 -1.464,2.344c0.035,0.107 0.164,-0.111 0.286,-0.485c0.224,-0.683 0.841,-1.444 1.57,-1.936c0.216,-0.145 0.322,-0.266 0.236,-0.268c-0.086,-0.002 -0.369,0.153 -0.628,0.345m-93.312,0.117c0.734,0.189 1.311,0.189 1.022,0c-0.13,-0.084 -0.519,-0.146 -0.864,-0.137c-0.606,0.016 -0.612,0.021 -0.158,0.137m46.97,0c-0.413,0.18 0.401,0.18 1.1,0c0.45,-0.115 0.443,-0.121 -0.157,-0.128c-0.346,-0.004 -0.77,0.054 -0.943,0.128m-44.456,0.327c0.346,0.072 0.805,0.128 1.021,0.124l0.393,-0.007l-0.393,-0.126c-0.216,-0.07 -0.675,-0.126 -1.021,-0.125l-0.628,0.002l0.628,0.132m41.786,-0.009c-0.68,0.174 0.061,0.18 1.021,0.007l0.707,-0.126l-0.629,-0.002c-0.345,0 -0.84,0.054 -1.099,0.121m-39.43,0.317c0.706,0.181 1.361,0.181 0.943,0c-0.173,-0.075 -0.562,-0.133 -0.864,-0.129l-0.55,0.008l0.471,0.121m36.916,0c-0.418,0.181 0.237,0.181 0.943,0l0.471,-0.121l-0.55,-0.008c-0.302,-0.004 -0.691,0.054 -0.864,0.129m-34.559,0.317c0.259,0.066 0.648,0.122 0.864,0.124l0.392,0.002l-0.392,-0.126c-0.216,-0.07 -0.605,-0.126 -0.864,-0.124l-0.472,0.003l0.472,0.121m32.124,0c-0.549,0.177 0.33,0.177 1.022,0l0.471,-0.121l-0.55,-0.003c-0.302,-0.002 -0.727,0.054 -0.943,0.124m-29.847,0.317c0.216,0.069 0.605,0.125 0.864,0.124l0.472,-0.003l-0.472,-0.121c-0.259,-0.067 -0.648,-0.123 -0.864,-0.124l-0.392,-0.003l0.392,0.127m27.413,0l-0.472,0.121l0.55,0.003c0.302,0.001 0.727,-0.055 0.943,-0.124c0.549,-0.178 -0.33,-0.178 -1.021,0m-25.763,0.317c0.173,0.075 0.491,0.134 0.707,0.131l0.392,-0.004l-0.392,-0.127c-0.216,-0.07 -0.534,-0.129 -0.707,-0.132l-0.314,-0.005l0.314,0.137m24.192,0l-0.315,0.136l0.315,0c0.172,0 0.455,-0.061 0.628,-0.136l0.314,-0.137l-0.314,0c-0.173,0 -0.456,0.062 -0.628,0.137m-21.993,0.533c2.737,0.905 3.86,1.989 5.256,5.075c0.32,0.708 0.665,1.466 0.767,1.684l0.184,0.396l-0.096,-0.396c-0.824,-3.416 -3.823,-6.619 -6.582,-7.029c-0.447,-0.067 -0.312,0.011 0.471,0.27m20.322,0.01c-1.053,0.441 -2.573,1.462 -3.121,2.094l-0.392,0.454l0.47,-0.396c0.258,-0.218 0.506,-0.437 0.55,-0.486c0.397,-0.447 2.75,-1.731 3.18,-1.736c0.109,-0.001 0.304,-0.072 0.434,-0.156c0.452,-0.295 -0.186,-0.166 -1.121,0.226m57.918,0.583c-0.042,0.122 -0.298,0.935 -0.57,1.806c-0.942,3.023 -1.003,3.171 -1.316,3.171c-0.209,0 -0.36,-0.206 -0.525,-0.714c-0.379,-1.163 -0.497,-1.403 -0.391,-0.792c0.393,2.274 1.153,2.289 1.853,0.034c0.236,-0.76 0.596,-1.875 0.802,-2.478c0.205,-0.603 0.34,-1.131 0.298,-1.172c-0.041,-0.042 -0.109,0.024 -0.151,0.145m-27.372,0.175c-0.355,0.463 -1.381,3.59 -1.228,3.744c0.075,0.077 0.086,0.048 0.392,-1.082c0.107,-0.393 0.248,-0.856 0.315,-1.031c0.702,-1.849 0.913,-2.032 1.236,-1.07c0.109,0.327 0.255,0.737 0.325,0.912c0.07,0.174 0.284,0.816 0.478,1.427c0.684,2.156 1.81,4.051 2.691,4.527c0.167,0.09 -0.013,-0.155 -0.399,-0.545c-0.784,-0.792 -1.602,-2.316 -2.134,-3.982c-0.91,-2.847 -1.257,-3.447 -1.676,-2.9m23.839,0.869c0.036,0.412 0.281,0.761 0.292,0.415c0.006,-0.191 -0.059,-0.391 -0.146,-0.445c-0.086,-0.054 -0.152,-0.041 -0.146,0.03m8.361,0.81c-0.105,0.067 -0.307,0.405 -0.449,0.751c-0.295,0.718 -0.175,0.666 0.233,-0.102c0.49,-0.922 0.87,-0.467 1.74,2.078c0.193,0.566 0.416,1.1 0.495,1.185c0.194,0.21 -0.731,-2.361 -1.166,-3.239c-0.366,-0.74 -0.538,-0.875 -0.853,-0.673m-7.963,0.454c0.144,0.608 0.22,0.665 0.22,0.168c0,-0.227 -0.074,-0.459 -0.164,-0.515c-0.107,-0.067 -0.126,0.053 -0.056,0.347m-58.662,0.069c-0.298,0.481 -0.119,0.545 0.191,0.068c0.143,-0.22 0.205,-0.401 0.137,-0.401c-0.067,0 -0.215,0.15 -0.328,0.333m-1.65,3.419c-0.058,0.058 -0.101,0.254 -0.095,0.436c0.009,0.304 0.022,0.3 0.16,-0.05c0.154,-0.388 0.122,-0.575 -0.065,-0.386m70.428,0.304c0,0.277 1.1,1.484 1.579,1.734c0.749,0.391 0.725,0.262 -0.042,-0.229c-0.397,-0.255 -0.906,-0.735 -1.13,-1.067c-0.224,-0.333 -0.407,-0.529 -0.407,-0.438m-36.987,0.631c-0.144,0.223 -0.591,0.615 -0.991,0.871c-0.828,0.53 -0.721,0.644 0.12,0.127c0.549,-0.338 1.256,-1.061 1.256,-1.286c0,-0.213 -0.116,-0.126 -0.385,0.288m-42.024,0.069c0,0.131 0.069,0.345 0.152,0.475c0.136,0.212 0.153,0.212 0.153,0c0,-0.13 -0.069,-0.344 -0.153,-0.475c-0.135,-0.211 -0.152,-0.211 -0.152,0m8.269,-0.053c-0.058,0.058 -0.101,0.254 -0.095,0.436c0.009,0.304 0.022,0.3 0.16,-0.049c0.154,-0.388 0.122,-0.576 -0.065,-0.387m65.856,0.573c-0.225,0.194 -0.544,0.437 -0.707,0.54c-0.164,0.105 -0.221,0.194 -0.128,0.199c0.094,0.005 0.448,-0.238 0.786,-0.539c0.671,-0.598 0.713,-0.77 0.049,-0.2m-66.168,0.492c-0.059,0.155 -0.103,0.401 -0.098,0.547c0.007,0.175 0.062,0.135 0.162,-0.119c0.083,-0.21 0.127,-0.457 0.098,-0.547c-0.03,-0.09 -0.103,-0.037 -0.162,0.119m-7.643,0.098c0,0.13 0.069,0.344 0.152,0.475c0.136,0.211 0.153,0.211 0.153,0c0,-0.131 -0.069,-0.345 -0.153,-0.475c-0.135,-0.212 -0.152,-0.212 -0.152,0m49.793,0.317c0.129,0.084 0.341,0.153 0.471,0.153c0.209,0 0.209,-0.017 0,-0.153c-0.13,-0.085 -0.342,-0.154 -0.471,-0.154c-0.21,0 -0.21,0.017 0,0.154m31.418,0c0.129,0.084 0.377,0.149 0.549,0.145l0.315,-0.009l-0.315,-0.136c-0.469,-0.204 -0.862,-0.204 -0.549,0m-43.121,0.317l-0.315,0.136l0.315,0.009c0.172,0.004 0.42,-0.061 0.549,-0.145c0.313,-0.204 -0.08,-0.204 -0.549,0m12.959,0c0.13,0.084 0.413,0.147 0.629,0.14l0.393,-0.014l-0.393,-0.126c-0.606,-0.196 -0.929,-0.196 -0.629,0m20.186,0c-0.302,0.131 -0.302,0.136 0.03,0.147c0.19,0.006 0.388,-0.06 0.442,-0.147c0.114,-0.188 -0.039,-0.188 -0.472,0m11.389,0c0.13,0.084 0.413,0.147 0.629,0.14l0.393,-0.014l-0.393,-0.126c-0.606,-0.196 -0.929,-0.196 -0.629,0m-75.298,0.264c-0.057,0.058 -0.099,0.29 -0.091,0.515c0.013,0.402 0.016,0.401 0.152,-0.058c0.143,-0.482 0.122,-0.641 -0.061,-0.457m29.036,0.053l-0.472,0.121l0.472,0.007c0.259,0.004 0.612,-0.053 0.785,-0.128l0.314,-0.137l-0.314,0.008c-0.173,0.004 -0.526,0.062 -0.785,0.129m16.494,0c0.173,0.075 0.597,0.133 0.943,0.129l0.628,-0.007l-0.628,-0.131c-0.346,-0.073 -0.77,-0.131 -0.943,-0.13l-0.314,0.002l0.314,0.137m16.809,0c-0.288,0.124 -0.282,0.137 0.078,0.145c0.216,0.004 0.499,-0.061 0.628,-0.145c0.31,-0.202 -0.241,-0.202 -0.706,0m14.373,0c0.13,0.084 0.377,0.149 0.55,0.145l0.314,-0.009l-0.314,-0.136c-0.47,-0.204 -0.862,-0.204 -0.55,0m-83.724,0.158c0,0.131 0.069,0.345 0.153,0.476c0.135,0.211 0.152,0.211 0.152,0c0,-0.131 -0.069,-0.345 -0.152,-0.476c-0.136,-0.211 -0.153,-0.211 -0.153,0m33.377,0.159l-0.785,0.108l0.864,0.014c0.475,0.008 1.005,-0.047 1.178,-0.122c0.391,-0.17 -0.031,-0.17 -1.257,0m21.757,0c0.216,0.069 0.64,0.125 0.942,0.124l0.55,-0.002l-0.628,-0.131c-0.839,-0.176 -1.415,-0.17 -0.864,0.009m12.489,0l-0.472,0.121l0.472,0.016c0.259,0.009 0.577,-0.053 0.706,-0.137c0.292,-0.191 0.035,-0.191 -0.706,0m17.515,0c0.13,0.084 0.412,0.148 0.628,0.14l0.393,-0.013l-0.393,-0.127c-0.605,-0.196 -0.928,-0.196 -0.628,0m-54.746,0.317l-0.628,0.113l0.785,0.02c0.432,0.011 0.892,-0.049 1.022,-0.133c0.279,-0.182 -0.171,-0.182 -1.179,0m27.098,-0.007c0.212,0.144 1.717,0.247 1.558,0.107c-0.036,-0.031 -0.454,-0.104 -0.929,-0.162c-0.602,-0.073 -0.793,-0.056 -0.629,0.055m7.933,0.007l-0.628,0.113l0.707,0.02c0.389,0.011 0.813,-0.049 0.942,-0.133c0.28,-0.183 -0.011,-0.183 -1.021,0m21.286,-0.009c0.13,0.09 0.442,0.164 0.694,0.165c0.604,0.003 0.478,-0.089 -0.301,-0.22c-0.45,-0.077 -0.562,-0.061 -0.393,0.055m-58.516,0.326l-0.471,0.121l0.579,0.019c0.319,0.01 0.624,-0.053 0.678,-0.14c0.108,-0.178 -0.094,-0.178 -0.786,0m33.028,-0.042c0.454,0.032 1.196,0.032 1.65,0c0.453,-0.032 0.082,-0.058 -0.825,-0.058c-0.907,0 -1.278,0.026 -0.825,0.058m27.216,0.042c0.13,0.084 0.483,0.146 0.785,0.137l0.55,-0.016l-0.471,-0.121c-0.737,-0.189 -1.154,-0.189 -0.864,0m-81.739,0.106c-0.058,0.057 -0.099,0.289 -0.091,0.515c0.013,0.402 0.016,0.401 0.152,-0.058c0.143,-0.483 0.121,-0.642 -0.061,-0.457m-6.362,0.211c0.008,0.412 0.256,1.088 0.261,0.713c0.002,-0.174 -0.056,-0.46 -0.13,-0.634c-0.083,-0.194 -0.133,-0.225 -0.131,-0.079m26.286,0l-0.314,0.136l0.314,0.009c0.173,0.005 0.42,-0.061 0.55,-0.145c0.312,-0.204 -0.08,-0.204 -0.55,0m63.857,0.155l0.393,0.307l-0.519,0.183c-0.285,0.101 -0.481,0.221 -0.437,0.266c0.125,0.126 1.034,-0.294 1.034,-0.477c0,-0.188 -0.477,-0.582 -0.707,-0.584c-0.086,-0.001 0.02,0.136 0.236,0.305m-64.704,0.22c-0.187,0.228 0.198,0.729 0.402,0.523c0.054,-0.054 -0.021,-0.144 -0.166,-0.2c-0.241,-0.094 -0.24,-0.118 0.017,-0.316c0.154,-0.117 0.2,-0.216 0.103,-0.218c-0.098,-0.003 -0.257,0.092 -0.356,0.211m-19.391,0.523c-0.058,0.058 -0.099,0.29 -0.092,0.515c0.014,0.402 0.017,0.402 0.152,-0.058c0.143,-0.482 0.122,-0.641 -0.06,-0.457m20.238,0.212c0.47,0.203 0.862,0.203 0.55,0c-0.13,-0.085 -0.377,-0.15 -0.55,-0.146l-0.314,0.009l0.314,0.137m61.501,0c-0.382,0.123 -0.38,0.126 0.078,0.126c0.26,0 0.648,-0.057 0.864,-0.126c0.382,-0.124 0.38,-0.127 -0.078,-0.127c-0.259,0 -0.648,0.057 -0.864,0.127m-87.486,0.317c0.005,0.13 0.07,0.38 0.144,0.554l0.135,0.317l0.009,-0.317c0.004,-0.174 -0.06,-0.424 -0.144,-0.554c-0.136,-0.212 -0.151,-0.212 -0.144,0m27.32,0c0.216,0.069 0.641,0.125 0.943,0.124l0.55,-0.002l-0.629,-0.132c-0.839,-0.175 -1.415,-0.169 -0.864,0.01m31.89,-0.016c-0.389,0.052 0.883,0.095 2.827,0.095c1.944,0 3.111,-0.046 2.592,-0.102c-1.165,-0.126 -4.465,-0.122 -5.419,0.007m25.841,0.016l-0.628,0.113l0.628,0.004c0.345,0.002 0.84,-0.051 1.1,-0.117l0.471,-0.121l-0.471,0.003c-0.26,0.002 -0.755,0.055 -1.1,0.118m-55.767,0.317c0.259,0.066 0.754,0.12 1.1,0.12l0.628,-0.002l-0.707,-0.126c-0.959,-0.173 -1.7,-0.167 -1.021,0.008m27.412,0l-0.55,0.117l0.629,0.001c0.345,0.002 0.84,-0.052 1.099,-0.118l0.472,-0.121l-0.55,0.002c-0.303,0.001 -0.797,0.054 -1.1,0.119m9.661,0.009c0.346,0.072 0.841,0.127 1.1,0.122c0.41,-0.008 0.389,-0.026 -0.157,-0.141c-0.346,-0.072 -0.841,-0.127 -1.1,-0.122c-0.41,0.008 -0.389,0.027 0.157,0.141m16.809,-0.009l-0.471,0.12l0.471,0.004c0.259,0.001 0.648,-0.055 0.864,-0.124l0.393,-0.127l-0.393,0.003c-0.216,0.001 -0.605,0.057 -0.864,0.124m-77.766,0.594c-0.05,0.24 -0.157,0.56 -0.239,0.711c-0.081,0.152 -0.144,0.437 -0.14,0.635c0.005,0.265 0.06,0.206 0.214,-0.228c0.248,-0.701 0.428,-1.554 0.328,-1.554c-0.04,0 -0.113,0.196 -0.163,0.436m26.24,-0.277c0.26,0.066 0.79,0.12 1.179,0.12l0.706,-0.001l-0.706,-0.127c-0.389,-0.07 -0.919,-0.124 -1.179,-0.12l-0.471,0.007l0.471,0.121m23.014,0l-0.55,0.117l0.55,0.002c0.302,0.001 0.762,-0.053 1.021,-0.119l0.471,-0.121l-0.471,0.002c-0.259,0.001 -0.719,0.054 -1.021,0.119m13.824,0c0.216,0.069 0.64,0.125 0.942,0.124l0.55,-0.003l-0.471,-0.121c-0.692,-0.178 -1.57,-0.178 -1.021,0m13.195,0l-0.392,0.126l0.392,0.005c0.216,0.003 0.535,-0.056 0.707,-0.131l0.315,-0.137l-0.315,0.005c-0.172,0.002 -0.491,0.062 -0.707,0.132m-47.126,0.323c0.475,0.084 1.358,0.231 1.963,0.327c1.649,0.262 3.067,0.742 3.77,1.274l0.629,0.476l-0.591,-0.544c-0.845,-0.78 -3.033,-1.406 -5.614,-1.606l-1.021,-0.079l0.864,0.152m18.536,-0.082c-0.129,0.026 -0.766,0.134 -1.414,0.239c-3.042,0.497 -4.009,0.862 -4.869,1.835c-0.228,0.257 -0.079,0.172 0.351,-0.201c0.822,-0.712 1.763,-1.019 4.518,-1.474c1.68,-0.277 2.46,-0.448 2.043,-0.447c-0.216,0.001 -0.499,0.023 -0.629,0.048m17.594,0.136c0.389,0.116 0.981,0.328 1.315,0.472c0.873,0.373 0.925,0.308 0.099,-0.125c-0.389,-0.203 -1.025,-0.412 -1.414,-0.464l-0.707,-0.094l0.707,0.211m9.474,0.09c-0.652,0.299 -2.091,1.513 -2.091,1.765c0,0.071 0.341,-0.213 0.756,-0.632c0.472,-0.477 1.078,-0.888 1.611,-1.094c0.469,-0.183 0.748,-0.334 0.618,-0.336c-0.129,-0.003 -0.532,0.131 -0.894,0.297m-79.837,0.167c0.005,0.131 0.07,0.38 0.144,0.555l0.135,0.317l0.009,-0.317c0.005,-0.175 -0.06,-0.424 -0.144,-0.555c-0.135,-0.212 -0.151,-0.212 -0.144,0m72.489,0.755c0.09,0.064 0.319,0.322 0.511,0.574c0.439,0.578 0.459,0.383 0.023,-0.235c-0.179,-0.253 -0.408,-0.459 -0.51,-0.458c-0.123,0.002 -0.13,0.043 -0.024,0.119m-72.177,0.622c0.036,0.412 0.281,0.761 0.292,0.416c0.006,-0.191 -0.059,-0.392 -0.146,-0.446c-0.086,-0.054 -0.152,-0.04 -0.146,0.03m4.142,0.485c-0.052,0.24 -0.131,0.543 -0.174,0.674c-0.227,0.677 -0.686,2.583 -0.635,2.634c0.048,0.049 0.38,-1.1 1.003,-3.466c0.04,-0.153 0.034,-0.278 -0.013,-0.278c-0.048,0 -0.129,0.197 -0.181,0.436m-3.828,0.704c0.027,0.503 0.281,0.863 0.293,0.416c0.005,-0.235 -0.06,-0.471 -0.147,-0.525c-0.086,-0.054 -0.152,-0.005 -0.146,0.109m76.551,0.248c-0.048,0.152 -0.142,0.42 -0.209,0.594c-0.285,0.749 -0.478,1.471 -0.466,1.755c0.006,0.168 0.142,-0.122 0.302,-0.645c0.16,-0.523 0.362,-1.183 0.448,-1.467c0.087,-0.283 0.126,-0.515 0.086,-0.515c-0.04,0 -0.112,0.125 -0.161,0.278m-3.504,-0.01c0.035,0.412 0.281,0.761 0.292,0.415c0.006,-0.191 -0.059,-0.391 -0.146,-0.445c-0.086,-0.054 -0.152,-0.041 -0.146,0.03m-72.649,1.264c0.144,0.608 0.22,0.665 0.22,0.168c0,-0.227 -0.074,-0.459 -0.164,-0.515c-0.107,-0.067 -0.126,0.053 -0.056,0.347m72.966,-0.264c0.004,0.131 0.069,0.381 0.143,0.555l0.135,0.317l0.009,-0.317c0.005,-0.174 -0.06,-0.424 -0.144,-0.555c-0.135,-0.211 -0.151,-0.211 -0.143,0m-28.7,0.278c-0.048,0.152 -0.151,0.441 -0.231,0.641c-0.143,0.362 -0.202,0.938 -0.082,0.812c0.11,-0.116 0.552,-1.731 0.474,-1.731c-0.041,0 -0.114,0.125 -0.161,0.278m-24.418,1.006c-0.181,0.357 -0.291,0.686 -0.246,0.732c0.045,0.045 0.208,-0.212 0.363,-0.572c0.175,-0.409 0.359,-0.625 0.487,-0.576c0.113,0.044 0.163,0.009 0.11,-0.077c-0.182,-0.297 -0.386,-0.155 -0.714,0.493m20.672,-0.283c0.177,0.714 0.569,1.68 0.461,1.139c-0.051,-0.261 -0.133,-0.672 -0.181,-0.913c-0.048,-0.241 -0.153,-0.479 -0.233,-0.528c-0.083,-0.052 -0.103,0.077 -0.047,0.302m-40.206,0.373c0.145,0.607 0.22,0.665 0.22,0.168c0,-0.227 -0.074,-0.459 -0.163,-0.515c-0.108,-0.067 -0.127,0.052 -0.057,0.347m72.963,-0.313c0.036,0.412 0.282,0.761 0.293,0.415c0.006,-0.191 -0.06,-0.391 -0.146,-0.445c-0.087,-0.054 -0.152,-0.041 -0.147,0.03m-70.925,0.932c-0.058,0.233 -0.07,0.458 -0.027,0.502c0.043,0.043 0.126,-0.111 0.184,-0.343c0.058,-0.233 0.069,-0.458 0.026,-0.502c-0.043,-0.043 -0.125,0.111 -0.183,0.343m50.834,0.084c-0.113,0.182 -0.172,0.367 -0.129,0.409c0.042,0.043 0.159,-0.078 0.26,-0.268c0.122,-0.23 0.283,-0.319 0.484,-0.266c0.165,0.044 0.261,0.015 0.213,-0.064c-0.158,-0.257 -0.617,-0.152 -0.828,0.189m21.885,0.627c-0.429,1.335 -0.524,1.301 -1.316,-0.484l-0.176,-0.397l0.092,0.397c0.199,0.857 0.706,1.764 0.957,1.714c0.237,-0.047 0.9,-1.763 0.799,-2.068c-0.024,-0.073 -0.184,0.304 -0.356,0.838m-54.111,-0.643c0,0.131 0.069,0.345 0.153,0.476c0.135,0.211 0.152,0.211 0.152,0c0,-0.131 -0.069,-0.345 -0.152,-0.476c-0.136,-0.211 -0.153,-0.211 -0.153,0m22.683,0.259c-0.829,3.564 -1.144,4.149 -1.626,3.017c-0.179,-0.421 -0.326,-0.836 -0.326,-0.921c0,-0.239 -0.498,-1.721 -0.578,-1.721c-0.077,0 -0.036,0.161 0.438,1.744c0.594,1.984 0.861,2.178 1.361,0.991c0.373,-0.888 1.025,-3.375 0.914,-3.487c-0.043,-0.043 -0.125,0.127 -0.183,0.377m-43.096,-0.1c0.005,0.13 0.07,0.38 0.144,0.554l0.135,0.317l0.009,-0.317c0.004,-0.174 -0.06,-0.424 -0.144,-0.554c-0.135,-0.212 -0.151,-0.212 -0.144,0m53.636,0.317c0.267,0.879 0.525,1.492 0.534,1.268c0.01,-0.301 -0.359,-1.381 -0.528,-1.543c-0.069,-0.067 -0.072,0.057 -0.006,0.275m-52.195,0.837c-0.225,0.859 -0.54,0.969 -0.893,0.312c-0.129,-0.24 -0.237,-0.363 -0.241,-0.273c-0.01,0.276 0.47,0.867 0.706,0.867c0.288,0 0.735,-0.873 0.672,-1.313c-0.033,-0.227 -0.113,-0.093 -0.244,0.407m50.878,-0.494c-0.011,0.146 -0.067,0.395 -0.123,0.555c-0.078,0.224 -0.057,0.249 0.092,0.111c0.106,-0.099 0.162,-0.349 0.123,-0.555c-0.039,-0.206 -0.08,-0.256 -0.092,-0.111m-31.574,0.132c0,0.131 0.061,0.381 0.135,0.555c0.085,0.2 0.135,0.229 0.135,0.079c0,-0.13 -0.061,-0.38 -0.135,-0.555c-0.085,-0.199 -0.135,-0.229 -0.135,-0.079m-2.265,0.528c-0.176,0.449 -0.147,0.679 0.058,0.472c0.095,-0.095 0.146,-0.306 0.114,-0.468c-0.057,-0.284 -0.063,-0.284 -0.172,-0.004m33.522,0.45c-0.01,0.145 -0.059,0.395 -0.109,0.555c-0.085,0.275 -0.081,0.276 0.089,0.008c0.099,-0.155 0.148,-0.405 0.109,-0.555c-0.064,-0.245 -0.073,-0.246 -0.089,-0.008m-30.869,0.29c0.41,1.659 1.926,3.892 2.951,4.345c1.475,0.652 3.603,1.09 6.143,1.263l1.099,0.075l-0.942,-0.149c-0.519,-0.082 -1.544,-0.229 -2.278,-0.327c-1.186,-0.158 -1.98,-0.329 -3.299,-0.708c-1.188,-0.341 -2.126,-1.308 -2.888,-2.975c-0.283,-0.62 -0.598,-1.306 -0.699,-1.524l-0.185,-0.396l0.098,0.396m33.05,-0.118c0,0.259 0.662,2.258 0.907,2.738c0.515,1.012 1.56,1.849 2.551,2.043c0.404,0.08 0.305,0.004 -0.374,-0.286c-1.493,-0.637 -2.078,-1.425 -2.694,-3.624c-0.204,-0.728 -0.39,-1.143 -0.39,-0.871m-2.496,0.858c-0.009,0.102 -0.063,0.316 -0.119,0.476c-0.079,0.225 -0.058,0.25 0.093,0.109c0.107,-0.1 0.161,-0.314 0.12,-0.476c-0.041,-0.161 -0.083,-0.211 -0.094,-0.109m-34.839,2.483c-0.644,0.922 -2.249,1.596 -4.765,2c-0.562,0.09 -1.445,0.232 -1.964,0.315l-0.942,0.151l1.099,-0.079c2.019,-0.146 4.159,-0.635 5.528,-1.264c0.631,-0.289 1.951,-1.809 1.572,-1.809c-0.027,0 -0.264,0.308 -0.528,0.686m33.339,0.571c-0.517,0.576 -1.548,0.94 -4.016,1.415c-0.475,0.091 -1.182,0.237 -1.571,0.325l-0.707,0.159l0.786,-0.081c0.735,-0.076 2.27,-0.368 3.537,-0.673c0.963,-0.232 2.918,-1.451 2.327,-1.451c-0.045,0 -0.205,0.137 -0.356,0.306m9.023,1.193c1.769,0.354 3.029,0.548 4.084,0.627l1.021,0.075l-0.864,-0.149c-0.475,-0.083 -1.359,-0.227 -1.963,-0.321c-0.605,-0.094 -1.397,-0.236 -1.759,-0.317c-0.362,-0.08 -0.857,-0.14 -1.099,-0.133c-0.243,0.007 0.018,0.105 0.58,0.218m-52.547,0.886c-0.281,0.076 0.067,0.093 0.864,0.04c0.735,-0.048 1.365,-0.115 1.401,-0.147c0.124,-0.112 -1.794,-0.021 -2.265,0.107m25.527,0.001c0.389,0.07 0.955,0.124 1.257,0.12l0.55,-0.006l-0.629,-0.131c-0.345,-0.073 -0.911,-0.127 -1.256,-0.121l-0.629,0.011l0.707,0.127m9.975,-0.008l-0.471,0.121l0.471,0.01c0.26,0.005 0.755,-0.05 1.1,-0.122l0.628,-0.131l-0.628,0c-0.345,0 -0.84,0.055 -1.1,0.122m22.857,0.008c0.389,0.07 0.919,0.124 1.178,0.12l0.471,-0.007l-0.471,-0.121c-0.259,-0.067 -0.789,-0.121 -1.178,-0.12l-0.707,0.001l0.707,0.127m-60.637,0.317c-0.254,0.088 -0.06,0.103 0.55,0.044c0.519,-0.051 0.972,-0.119 1.008,-0.151c0.127,-0.116 -1.17,-0.026 -1.558,0.107m31.755,0.028c1.176,0.084 2.683,0.084 3.692,0c1.545,-0.13 1.358,-0.143 -1.986,-0.142c-3.553,0 -3.617,0.005 -1.706,0.142m31.238,-0.028c0.389,0.07 0.884,0.125 1.1,0.123l0.393,-0.004l-0.393,-0.127c-0.216,-0.07 -0.711,-0.125 -1.1,-0.123l-0.707,0.004l0.707,0.127m-64.642,0.309l-0.314,0.136l0.314,0.009c0.173,0.005 0.42,-0.061 0.55,-0.145c0.312,-0.204 -0.08,-0.204 -0.55,0m-1.004,0.375c-0.136,0.166 -0.115,0.268 0.09,0.436c0.196,0.161 0.235,0.165 0.145,0.014c-0.067,-0.113 -0.036,-0.309 0.068,-0.436c0.108,-0.132 0.122,-0.231 0.033,-0.231c-0.087,0 -0.238,0.098 -0.336,0.217m67.61,0.417c-0.198,0.086 -0.227,0.137 -0.079,0.137c0.13,0 0.377,-0.062 0.55,-0.137c0.198,-0.086 0.227,-0.136 0.079,-0.136c-0.13,0 -0.377,0.062 -0.55,0.136m-66.92,0.317c0.432,0.188 0.586,0.188 0.471,0c-0.053,-0.087 -0.252,-0.153 -0.441,-0.147c-0.332,0.011 -0.333,0.016 -0.03,0.147m64.328,0.005c-0.162,0.109 0.11,0.126 0.864,0.055c0.605,-0.056 1.129,-0.129 1.165,-0.161c0.158,-0.139 -1.818,-0.036 -2.029,0.106m-63.451,0.212c0.036,0.032 0.348,0.106 0.694,0.165c0.45,0.076 0.561,0.06 0.392,-0.056c-0.212,-0.146 -1.244,-0.249 -1.086,-0.109m32.504,0.093c-0.216,0.067 0.845,0.123 2.357,0.126c1.563,0.003 2.58,-0.049 2.356,-0.12c-0.501,-0.16 -4.193,-0.164 -4.713,-0.006m29.062,0.017c-0.167,0.115 -0.008,0.131 0.55,0.056c0.432,-0.058 0.815,-0.132 0.851,-0.165c0.157,-0.142 -1.189,-0.038 -1.401,0.109m-59.301,0.308c0.736,0.189 1.154,0.189 0.864,0c-0.13,-0.085 -0.483,-0.147 -0.786,-0.138l-0.55,0.017l0.472,0.121m27.412,0.006c-0.164,0.111 0.026,0.128 0.628,0.055c0.475,-0.057 0.894,-0.13 0.93,-0.162c0.158,-0.14 -1.347,-0.037 -1.558,0.107m8.81,-0.107c0.036,0.032 0.454,0.105 0.929,0.162c0.602,0.073 0.793,0.056 0.629,-0.055c-0.212,-0.144 -1.717,-0.247 -1.558,-0.107m21.037,0.101c-0.29,0.189 0.127,0.189 0.864,0l0.471,-0.121l-0.55,-0.017c-0.302,-0.009 -0.656,0.053 -0.785,0.138m-55.597,0.216c0.036,0.032 0.454,0.105 0.93,0.162c0.602,0.073 0.792,0.056 0.628,-0.055c-0.211,-0.144 -1.716,-0.247 -1.558,-0.107m23.708,0.101c-0.291,0.189 0.127,0.189 0.864,0l0.471,-0.121l-0.55,-0.017c-0.302,-0.009 -0.656,0.053 -0.785,0.138m13.208,-0.1c0.036,0.033 0.419,0.107 0.851,0.165c0.558,0.075 0.717,0.059 0.55,-0.056c-0.212,-0.147 -1.558,-0.251 -1.401,-0.109m16.482,0.109c-0.168,0.115 -0.008,0.131 0.549,0.056c0.432,-0.058 0.815,-0.132 0.851,-0.165c0.158,-0.142 -1.189,-0.038 -1.4,0.109m-50.885,0.207c0.037,0.032 0.455,0.101 0.93,0.153c0.564,0.062 0.755,0.046 0.55,-0.047c-0.297,-0.134 -1.619,-0.229 -1.48,-0.106m19.231,0.101l-0.314,0.136l0.314,-0.008c0.173,-0.004 0.526,-0.062 0.785,-0.128l0.472,-0.121l-0.472,-0.008c-0.259,-0.004 -0.612,0.054 -0.785,0.129m17.594,0c0.259,0.066 0.613,0.124 0.785,0.128l0.315,0.008l-0.315,-0.136c-0.172,-0.075 -0.526,-0.133 -0.785,-0.129l-0.471,0.008l0.471,0.121m12.253,0c-0.112,0.182 0.143,0.182 0.707,0c0.375,-0.122 0.37,-0.128 -0.108,-0.143c-0.276,-0.009 -0.546,0.055 -0.599,0.143m-46.341,0.317c0.736,0.189 1.154,0.189 0.864,0c-0.13,-0.085 -0.484,-0.147 -0.786,-0.138l-0.55,0.017l0.472,0.121m14.687,0.008c-0.168,0.116 -0.057,0.132 0.393,0.056c0.779,-0.132 0.905,-0.224 0.301,-0.22c-0.252,0.001 -0.564,0.075 -0.694,0.164m21.129,-0.008c0.432,0.187 0.586,0.187 0.471,0c-0.053,-0.087 -0.252,-0.154 -0.441,-0.148c-0.332,0.011 -0.333,0.017 -0.03,0.148m-34.088,0.317c0.432,0.187 0.585,0.187 0.471,0c-0.054,-0.087 -0.252,-0.154 -0.442,-0.148c-0.331,0.011 -0.332,0.017 -0.029,0.148m11.31,0c-0.116,0.189 0.192,0.189 0.628,0c0.281,-0.122 0.269,-0.138 -0.108,-0.148c-0.233,-0.006 -0.467,0.061 -0.52,0.148m31.238,0.146c-0.932,0.574 -2.091,2.636 -2.462,4.38c-0.12,0.568 -0.02,0.351 0.667,-1.437c0.67,-1.745 0.991,-2.227 1.848,-2.775c0.802,-0.514 0.754,-0.665 -0.053,-0.168m-6.609,0.37c0.24,0.196 0.575,0.57 0.745,0.831c0.169,0.262 0.309,0.399 0.309,0.306c0.002,-0.247 -1.09,-1.495 -1.307,-1.494c-0.101,0 0.012,0.161 0.253,0.357m-34.204,0.079c0.082,0.067 0.394,0.334 0.694,0.595c0.298,0.261 0.44,0.332 0.314,0.159c-0.304,-0.416 -0.821,-0.862 -1.008,-0.869c-0.094,-0.003 -0.094,0.04 0,0.115m7.083,0.564c-0.65,0.656 -1.78,3.185 -1.629,3.644c0.029,0.089 0.254,-0.475 0.5,-1.251c0.392,-1.236 0.552,-1.516 1.285,-2.244c0.46,-0.458 0.766,-0.833 0.679,-0.833c-0.087,0 -0.463,0.308 -0.835,0.684m28.816,2.596c0.035,0.412 0.281,0.761 0.292,0.415c0.006,-0.191 -0.06,-0.391 -0.146,-0.445c-0.087,-0.054 -0.152,-0.04 -0.146,0.03m-33.781,1c0,0.131 0.069,0.345 0.152,0.476c0.136,0.211 0.153,0.211 0.153,0c0,-0.131 -0.069,-0.345 -0.153,-0.476c-0.135,-0.211 -0.152,-0.211 -0.152,0m34.095,-0.049c0.035,0.412 0.281,0.761 0.292,0.416c0.006,-0.191 -0.06,-0.392 -0.146,-0.446c-0.087,-0.054 -0.152,-0.04 -0.146,0.03m-31.185,1.485c-0.157,0.611 -0.251,1.147 -0.209,1.19c0.043,0.042 0.2,-0.43 0.349,-1.049c0.149,-0.62 0.243,-1.155 0.208,-1.19c-0.034,-0.035 -0.191,0.437 -0.348,1.049m32.992,-0.711c-0.059,0.233 -0.07,0.458 -0.027,0.502c0.043,0.043 0.126,-0.111 0.184,-0.343c0.057,-0.233 0.069,-0.458 0.026,-0.502c-0.043,-0.044 -0.126,0.111 -0.183,0.343m-1.493,0.177c0.035,0.412 0.281,0.761 0.292,0.416c0.006,-0.191 -0.06,-0.392 -0.146,-0.446c-0.086,-0.054 -0.152,-0.04 -0.146,0.03m-34.089,0.317c0.036,0.412 0.282,0.761 0.293,0.416c0.005,-0.191 -0.06,-0.392 -0.146,-0.446c-0.087,-0.054 -0.152,-0.04 -0.147,0.03m35.347,0.387c-0.023,0.481 -0.463,0.701 -0.719,0.36c-0.124,-0.166 -0.228,-0.221 -0.231,-0.122c-0.003,0.098 0.105,0.27 0.239,0.383c0.293,0.245 0.953,-0.297 0.808,-0.664c-0.062,-0.157 -0.088,-0.145 -0.097,0.043m-35.041,0.644c0.005,0.398 0.307,0.726 0.309,0.336c0.002,-0.191 -0.068,-0.392 -0.154,-0.446c-0.087,-0.053 -0.156,-0.004 -0.155,0.11m1.804,1.079c-0.059,0.188 -0.072,0.377 -0.029,0.42c0.044,0.044 0.127,-0.074 0.186,-0.261c0.059,-0.188 0.072,-0.377 0.029,-0.42c-0.043,-0.044 -0.127,0.074 -0.186,0.261m-1.178,0.912c0,0.291 0.431,0.713 0.642,0.629c0.163,-0.066 0.15,-0.092 -0.053,-0.101c-0.151,-0.007 -0.275,-0.116 -0.275,-0.241c0,-0.126 -0.071,-0.273 -0.157,-0.327c-0.086,-0.054 -0.157,-0.036 -0.157,0.04" style="fill:#cbcfec;"/></g></svg>