<?xml version="1.0" encoding="UTF-8" standalone="no"?><!DOCTYPE svg PUBLIC "-//W3C//DTD SVG 1.1//EN" "http://www.w3.org/Graphics/SVG/1.1/DTD/svg11.dtd"><svg width="100%" height="100%" viewBox="0 0 192 192" version="1.1" xmlns="http://www.w3.org/2000/svg" xmlns:xlink="http://www.w3.org/1999/xlink" xml:space="preserve" xmlns:serif="http://www.serif.com/" style="fill-rule:evenodd;clip-rule:evenodd;stroke-linejoin:round;stroke-miterlimit:1.41421;"><g id="TESLA"><g id="g8"><path id="polyline10" d="M145.861,168.626l0,11.065l3.548,0l0,-7.367l12.915,0l0,7.367l3.546,0l0,-11.046l-20.009,-0.019" style="fill:#e82127;fill-rule:nonzero;"/><path id="path12" d="M149.014,165.047l13.644,0c1.895,-0.377 3.305,-2.049 3.702,-3.667l-21.048,0c0.394,1.618 1.824,3.29 3.702,3.667" style="fill:#e82127;fill-rule:nonzero;"/></g><path id="path16" d="M135.114,179.698c1.789,-0.758 2.752,-2.07 3.12,-3.605l-15.915,0l0.01,-14.704l-3.567,0.01l0,18.299l16.352,0" style="fill:#e82127;fill-rule:nonzero;"/><path id="path20" d="M92.232,164.998l12.601,0c1.9,-0.552 3.495,-2 3.884,-3.604l-20.017,0l0,10.814l16.383,0l0,3.795l-12.851,0.01c-2.014,0.561 -3.722,1.914 -4.574,3.7l1.042,-0.019l19.903,0l0,-11.081l-16.371,0l0,-3.615" style="fill:#e82127;fill-rule:nonzero;"/><g id="g22"><path id="path24" d="M61.125,165.032l13.639,0c1.898,-0.378 3.308,-2.049 3.704,-3.668l-21.047,0c0.393,1.619 1.824,3.29 3.704,3.668" style="fill:#e82127;fill-rule:nonzero;"/><path id="path26" d="M61.125,172.265l13.639,0c1.898,-0.375 3.308,-2.047 3.704,-3.667l-21.047,0c0.393,1.62 1.824,3.292 3.704,3.667" style="fill:#e82127;fill-rule:nonzero;"/><path id="path28" d="M61.125,179.696l13.639,0c1.898,-0.377 3.308,-2.049 3.704,-3.667l-21.047,0c0.393,1.619 1.824,3.29 3.704,3.667" style="fill:#e82127;fill-rule:nonzero;"/></g><path id="path32" d="M25.64,161.408c0.41,1.6 1.795,3.234 3.694,3.644l5.742,0l0.293,0.115l0,14.488l3.585,0l0,-14.488l0.326,-0.115l5.746,0c1.921,-0.495 3.276,-2.044 3.679,-3.644l0,-0.035l-23.065,0l0,0.035" style="fill:#e82127;fill-rule:nonzero;"/></g><g id="T"><path id="path35" d="M96.007,139.792l17.914,-100.75c17.076,0 22.462,1.872 23.239,9.515c0,0 11.455,-4.271 17.232,-12.945c-22.544,-10.447 -45.197,-10.918 -45.197,-10.918l-13.218,16.099l0.03,-0.002l-13.218,-16.1c0,0 -22.653,0.472 -45.194,10.919c5.772,8.674 17.231,12.945 17.231,12.945c0.782,-7.643 6.162,-9.516 23.122,-9.528l18.059,100.765" style="fill:#e82127;fill-rule:nonzero;"/><path id="path37" d="M96,20.043c18.224,-0.139 39.084,2.82 60.438,12.127c2.854,-5.137 3.588,-7.408 3.588,-7.408c-23.343,-9.235 -45.204,-12.396 -64.029,-12.475c-18.823,0.079 -40.683,3.241 -64.023,12.475c0,0 1.042,2.797 3.586,7.408c21.35,-9.307 42.213,-12.266 60.437,-12.127l0.003,0" style="fill:#e82127;fill-rule:nonzero;"/></g></svg>