<?xml version="1.0" encoding="UTF-8" standalone="no"?><!DOCTYPE svg PUBLIC "-//W3C//DTD SVG 1.1//EN" "http://www.w3.org/Graphics/SVG/1.1/DTD/svg11.dtd"><svg width="100%" height="100%" viewBox="0 0 192 192" version="1.1" xmlns="http://www.w3.org/2000/svg" xmlns:xlink="http://www.w3.org/1999/xlink" xml:space="preserve" xmlns:serif="http://www.serif.com/" style="fill-rule:evenodd;clip-rule:evenodd;stroke-linejoin:round;stroke-miterlimit:1.41421;"><g id="g2834"><path id="path2843" d="M94.49,33.72c-38.295,0 -69.455,19.497 -69.455,43.46c0,23.962 31.16,43.461 69.455,43.461c38.296,0 69.447,-19.499 69.447,-43.461c0,-23.963 -31.151,-43.46 -69.447,-43.46Zm0,2.137c37.121,0 67.319,18.54 67.319,41.323c0,22.79 -30.198,41.324 -67.319,41.324c-37.121,0 -67.318,-18.534 -67.318,-41.324c0,-22.783 30.197,-41.323 67.318,-41.323Zm-3.205,5.554l-3.355,0.212c-16.255,0.992 -28.062,5.299 -30.075,10.975c-0.208,0.589 -0.318,1.189 -0.318,1.784c0,0.957 0.276,1.918 0.813,2.834c2.256,3.844 9.257,7.006 19.222,8.706l1.051,0.177l0.186,-1.051c1.635,-9.978 5.225,-17.822 9.854,-21.527l2.622,-2.11Zm6.419,0l2.614,2.11c4.627,3.705 8.218,11.549 9.854,21.527l0.177,1.051l1.05,-0.177c9.97,-1.7 16.975,-4.862 19.223,-8.706c0.874,-1.478 1.045,-3.078 0.503,-4.618c-2.012,-5.676 -13.819,-9.983 -30.074,-10.975l-3.347,-0.212Zm-12.538,2.56c-3.803,4.303 -6.73,11.235 -8.256,19.656c-8.662,-1.603 -14.892,-4.366 -16.724,-7.488c-0.348,-0.591 -0.521,-1.174 -0.521,-1.748c0,-0.363 0.066,-0.718 0.195,-1.078c1.536,-4.335 11.975,-8.12 25.306,-9.342Zm18.657,0c13.327,1.222 23.757,5.013 25.289,9.342c0.133,0.36 0.194,0.715 0.194,1.078c0,0.574 -0.172,1.157 -0.512,1.748c-1.838,3.122 -8.065,5.885 -16.724,7.488c-1.526,-8.421 -4.444,-15.353 -8.247,-19.656Zm-9.333,7.329c-4.366,0 -7.933,5.38 -9.536,14.384l-0.212,1.157l1.183,0.088c2.79,0.208 5.672,0.327 8.565,0.327c2.895,0 5.776,-0.119 8.565,-0.327l1.175,-0.088l-0.212,-1.157c-1.603,-9.004 -5.165,-14.384 -9.528,-14.384Zm0,2.137c2.983,0 5.737,4.462 7.188,11.435c-2.358,0.154 -4.759,0.247 -7.188,0.247c-2.425,0 -4.831,-0.093 -7.187,-0.247c1.446,-6.973 4.205,-11.435 7.187,-11.435Zm-45.57,2.216l-1.351,1.131c-7.306,6.119 -11.17,13.385 -11.17,21.023c0,17.968 21.915,33.155 50.966,35.32l3.24,0.247l-2.472,-2.11c-6.365,-5.445 -10.313,-18.368 -10.313,-33.722l0.061,-3.62l-0.891,-0.185c-15.281,-2.739 -26.152,-9.167 -27.7,-16.362l-0.37,-1.722Zm91.132,0l-0.371,1.722c-1.546,7.195 -12.423,13.623 -27.699,16.362l-0.892,0.168l0.071,3.637c0,15.354 -3.959,28.277 -10.322,33.722l-2.464,2.11l3.241,-0.247c29.054,-2.165 50.957,-17.352 50.957,-35.32c0,-7.638 -3.864,-14.904 -11.17,-21.023l-1.351,-1.131Zm-92.324,3.868c2.794,7.27 13.239,13.323 27.999,16.141c-0.019,0.832 -0.035,1.88 -0.035,1.88c0,14.236 3.373,26.532 8.944,33.165c-26.469,-2.824 -46.1,-16.651 -46.1,-32.9c0,-6.549 3.193,-12.827 9.192,-18.286Zm93.516,0c6.003,5.459 9.201,11.737 9.201,18.286c0,16.249 -19.637,30.076 -46.109,32.9c5.571,-6.633 8.953,-18.929 8.953,-33.165c0,0 -0.02,-1.048 -0.035,-1.88c14.755,-2.818 25.195,-8.871 27.99,-16.141Zm-57.146,15.214l-0.009,1.156l-0.009,0.389c0,14.271 4.477,25.032 10.41,25.032c5.932,0 10.402,-10.761 10.402,-25.032l-0.009,-1.545l-1.148,0.097c-3.018,0.264 -6.122,0.397 -9.245,0.397c-3.121,0 -6.235,-0.133 -9.245,-0.397l-1.147,-0.097Zm2.128,2.295c2.709,0.2 5.48,0.327 8.264,0.327c2.79,0 5.551,-0.127 8.265,-0.327c-0.16,13.279 -4.345,22.154 -8.265,22.154c-3.923,0 -8.108,-8.875 -8.264,-22.154Z" style="fill-rule:nonzero;"/><path id="path2875" d="M140.435,51.893c0.098,0.27 0.187,0.547 0.258,0.824c0.401,1.596 0.318,3.163 -0.202,4.691c6.931,5.716 11.016,12.765 11.016,20.403c0,19.064 -25.529,34.522 -57.018,34.522c-31.492,0 -57.018,-15.458 -57.018,-34.522c0,-7.632 4.089,-14.687 11.012,-20.403c-0.516,-1.528 -0.6,-3.095 -0.198,-4.691c0.073,-0.283 0.191,-0.583 0.331,-0.881c-9.457,6.738 -15.192,15.569 -15.192,25.24c0,21.116 27.338,38.233 61.065,38.233c33.723,0 61.064,-17.117 61.064,-38.233c0,-9.651 -5.711,-18.461 -15.118,-25.183" style="fill:url(#_Linear1);fill-rule:nonzero;"/><g id="g2597"><path id="path2831" d="M95.821,144.834c-0.023,-7.43 5.965,-13.424 13.445,-13.437c7.297,0.013 13.29,6.007 13.436,13.437c-0.146,7.347 -6.139,13.342 -13.436,13.446c-7.48,-0.104 -13.468,-6.099 -13.445,-13.446Zm13.445,8.492c4.038,-0.062 7.38,-3.857 7.422,-8.492c-0.042,-4.724 -3.384,-8.518 -7.422,-8.491c-4.212,-0.027 -7.563,3.767 -7.43,8.491c-0.133,4.635 3.218,8.43 7.43,8.492" style="fill:#f00;fill-rule:nonzero;"/><path id="path2833" d="M137.91,137.051l0,20.521l-5.655,0l0,-20.521l-8.138,0l0,-4.592l21.577,0l0,4.592l-7.784,0" style="fill:#f00;fill-rule:nonzero;"/><path id="path2835" d="M152.41,151.905l-2.116,5.667l-6.717,0l10.609,-25.113l7.07,0l10.261,25.113l-6.717,0l-2.122,-5.667l-10.268,0Zm5.314,-4.24l3.532,0l-3.532,-9.199l-3.538,9.199l3.538,0" style="fill:#f00;fill-rule:nonzero;"/><path id="path2837" d="M33.922,137.051l0,20.521l-5.659,0l0,-20.521l-7.78,0l0,-4.592l21.223,0l0,4.592l-7.784,0" style="fill:#f00;fill-rule:nonzero;"/><path id="path2839" d="M43.121,144.834c0.011,-7.43 5.996,-13.424 13.434,-13.437c7.343,0.013 13.337,6.007 13.446,13.437c-0.109,7.347 -6.103,13.342 -13.446,13.446c-7.438,-0.104 -13.423,-6.099 -13.434,-13.446Zm13.434,8.492c4.086,-0.062 7.426,-3.857 7.43,-8.492c-0.004,-4.724 -3.344,-8.518 -7.43,-8.491c-4.17,-0.027 -7.516,3.767 -7.419,8.491c-0.097,4.635 3.249,8.43 7.419,8.492" style="fill:#f00;fill-rule:nonzero;"/><path id="path2841" d="M82.734,157.572l2.826,0l0,-9.553l9.907,-15.56l-6.365,0l-6.368,10.606l-6.015,-10.606l-6.718,0l9.906,15.56l0,9.553l2.827,0" style="fill:#f00;fill-rule:nonzero;"/></g><path id="path2885" d="M102.972,65.871c-2.691,0.202 -5.528,0.312 -8.485,0.312c-2.955,0 -5.791,-0.11 -8.481,-0.312l-0.009,0l-1.759,1.277c3.245,0.284 6.671,0.444 10.251,0.444c3.58,0 7.006,-0.16 10.253,-0.444l-1.77,-1.277Zm31.192,-13.396c-2.144,-7.085 -19.813,-12.288 -39.675,-12.288c-19.858,0 -37.528,5.203 -39.672,12.288c-1.86,6.146 8.297,11.835 24.32,14.091l-1.392,-1.694c-12.962,-2.207 -20.667,-6.91 -18.889,-11.912c2.154,-6.071 17.8,-10.469 35.631,-10.469c17.83,0 33.481,4.398 35.633,10.469c1.775,5.002 -5.926,9.705 -18.891,11.912l-1.388,1.694c16.018,-2.256 26.182,-7.945 24.323,-14.091" style="fill:#ebeeec;fill-rule:nonzero;"/><path id="path2895" d="M102.972,65.871c-2.691,0.202 -5.528,0.312 -8.485,0.312c-2.955,0 -5.791,-0.11 -8.481,-0.312l-0.009,0l-1.759,1.277c3.245,0.284 6.671,0.444 10.251,0.444c3.58,0 7.006,-0.16 10.253,-0.444l-1.77,-1.277Zm31.192,-13.396c-2.144,-7.085 -19.813,-12.288 -39.675,-12.288c-19.858,0 -37.528,5.203 -39.672,12.288c-1.86,6.146 8.297,11.835 24.32,14.091l-1.392,-1.694c-12.962,-2.207 -20.667,-6.91 -18.889,-11.912c2.154,-6.071 17.8,-10.469 35.631,-10.469c17.83,0 33.481,4.398 35.633,10.469c1.775,5.002 -5.926,9.705 -18.891,11.912l-1.388,1.694c16.018,-2.256 26.182,-7.945 24.323,-14.091" style="fill:url(#_Linear2);fill-rule:nonzero;"/><path id="path2905" d="M86.027,65.871c1.488,-8.27 4.715,-13.437 8.46,-13.437c3.748,0 6.974,5.167 8.464,13.437l0.03,0l1.74,1.263c-1.47,-10.921 -5.495,-17.899 -10.232,-17.899c-4.741,0 -8.765,6.978 -10.232,17.899l1.74,-1.263l0.03,0" style="fill:#ebeeec;fill-rule:nonzero;"/><path id="path2915" d="M86.027,65.871c1.488,-8.27 4.715,-13.437 8.46,-13.437c3.748,0 6.974,5.167 8.464,13.437l0.03,0l1.74,1.263c-1.47,-10.921 -5.495,-17.899 -10.232,-17.899c-4.741,0 -8.765,6.978 -10.232,17.899l1.74,-1.263l0.03,0" style="fill:url(#_Linear3);fill-rule:nonzero;"/><path id="path2925" d="M105.249,73.322l-1.423,2.574c0,0.188 0.008,0.381 0.008,0.576c0,13.707 -4.192,24.101 -9.347,24.101c-5.16,0 -9.343,-10.394 -9.343,-24.101c0,-0.216 0.004,-0.43 0.008,-0.638l-1.426,-2.512c-0.041,1.028 -0.062,2.069 -0.062,3.136c0,15.54 4.845,27.312 10.825,27.312c5.979,0 10.829,-11.772 10.829,-27.312c0,-1.067 -0.027,-2.108 -0.069,-3.136" style="fill:#ebeeec;fill-rule:nonzero;"/><path id="path2935" d="M105.249,73.322l-1.423,2.574c0,0.188 0.008,0.381 0.008,0.576c0,13.707 -4.192,24.101 -9.347,24.101c-5.16,0 -9.343,-10.394 -9.343,-24.101c0,-0.216 0.004,-0.43 0.008,-0.638l-1.426,-2.512c-0.041,1.028 -0.062,2.069 -0.062,3.136c0,15.54 4.845,27.312 10.825,27.312c5.979,0 10.829,-11.772 10.829,-27.312c0,-1.067 -0.027,-2.108 -0.069,-3.136" style="fill:url(#_Linear4);fill-rule:nonzero;"/><path id="path2945" d="M93.766,40.219c-7.398,0.596 -13.636,10.356 -15.999,24.679l1.368,1.678l0.027,0c1.984,-14.705 7.759,-25.686 14.657,-26.357c-0.017,0.001 -0.035,-0.002 -0.053,0Zm1.395,0c6.899,0.671 12.676,11.652 14.658,26.357l0.018,0l1.368,-1.678c-2.363,-14.352 -8.629,-24.119 -16.044,-24.679Z" style="fill:url(#_Linear5);fill-rule:nonzero;"/><path id="path2985" d="M78.561,72.695l-1.748,2.075c-0.036,0.985 -0.062,1.97 -0.062,2.976c0,21.62 7.55,37.075 17.271,37.553c-8.652,-0.578 -15.593,-17.175 -15.593,-37.553c0,-1.713 0.055,-3.392 0.15,-5.051l-0.018,0Zm31.841,0c0.097,1.659 0.159,3.338 0.159,5.051c0,20.385 -6.951,36.984 -15.612,37.553c9.726,-0.478 17.272,-15.933 17.272,-37.553c0,-1.006 -0.018,-1.989 -0.053,-2.967l-1.749,-2.084l-0.017,0Z" style="fill:url(#_Linear6);fill-rule:nonzero;"/><path id="path3017" d="M140.491,57.408c2.65,2.186 4.885,4.571 6.633,7.104c-0.618,-4.121 -2.262,-7.91 -4.662,-11.094c-0.66,-0.52 -1.332,-1.034 -2.027,-1.525c0.098,0.27 0.187,0.547 0.258,0.824c0.401,1.596 0.318,3.163 -0.202,4.691" style="fill:#343d3b;fill-rule:nonzero;"/><path id="path3019" d="M48.483,57.408c-0.517,-1.528 -0.6,-3.095 -0.198,-4.691c0.073,-0.283 0.191,-0.583 0.331,-0.881c-0.722,0.521 -1.419,1.047 -2.1,1.582c-2.396,3.184 -4.04,6.973 -4.662,11.094c1.748,-2.533 3.979,-4.918 6.629,-7.104" style="fill:#343d3b;fill-rule:nonzero;"/><path id="path3029" d="M94.49,34.788c-37.77,0 -68.387,18.984 -68.387,42.392c0,23.414 30.617,42.384 68.387,42.384c37.767,0 68.378,-18.97 68.378,-42.384c0,-23.408 -30.611,-42.392 -68.378,-42.392Zm0,5.395c19.863,0 37.529,5.207 39.673,12.292c1.858,6.146 -8.304,11.837 -24.335,14.092c-2.047,-15.182 -8.142,-26.384 -15.338,-26.384Zm0,0c-7.191,0 -13.291,11.202 -15.337,26.384c-16.03,-2.255 -26.195,-7.946 -24.335,-14.092c2.144,-7.085 19.815,-12.292 39.672,-12.292Zm0,9.051c4.741,0 8.767,6.982 10.234,17.907c-3.241,0.287 -6.661,0.45 -10.234,0.45c-3.572,0 -6.993,-0.163 -10.233,-0.45c1.465,-10.925 5.493,-17.907 10.233,-17.907Zm-45.897,2.614c-0.135,0.293 -0.238,0.581 -0.309,0.865c-2.243,8.872 10.501,17.066 30.295,19.973c-0.097,1.658 -0.15,3.345 -0.15,5.06c0,20.744 7.189,37.562 16.061,37.562c8.873,0 16.071,-16.818 16.071,-37.562c0,-1.715 -0.053,-3.402 -0.151,-5.06c19.784,-2.909 32.526,-11.103 30.287,-19.973c-0.069,-0.273 -0.151,-0.543 -0.247,-0.812c9.402,6.726 15.107,15.532 15.107,25.173c0,21.117 -27.344,38.234 -61.067,38.234c-33.726,0 -61.067,-17.117 -61.067,-38.234c0,-9.665 5.725,-18.493 15.17,-25.226Zm35.134,21.465c3.429,0.325 7.027,0.494 10.763,0.494c3.738,0 7.334,-0.169 10.764,-0.494c0.042,1.027 0.062,2.079 0.062,3.152c0,15.534 -4.846,27.302 -10.826,27.302c-5.979,0 -10.825,-11.768 -10.825,-27.302c0,-1.073 0.02,-2.125 0.062,-3.152Z" style="fill:url(#_Linear7);fill-rule:nonzero;"/><path id="path3089" d="M83.706,73.301l0.012,0.008l1.468,2.587c2.986,0.256 6.091,0.401 9.303,0.401c3.226,0 6.34,-0.145 9.345,-0.407l1.428,-2.581l0.008,-0.008c-3.434,0.327 -7.035,0.508 -10.781,0.508c-3.747,0 -7.349,-0.181 -10.783,-0.508Zm57.228,-18.19c-0.366,7.917 -12.535,14.931 -30.523,17.574l0.006,0.006l1.755,2.096c17.6,-3.163 29.179,-10.935 28.762,-19.676Zm-92.89,0c-0.417,8.749 11.161,16.513 28.758,19.676l1.759,-2.096l0.004,-0.006c-17.991,-2.643 -30.151,-9.657 -30.521,-17.574" style="fill:#c3cecb;fill-rule:nonzero;"/><path id="path3099" d="M83.706,73.301l0.012,0.008l1.468,2.587c2.986,0.256 6.091,0.401 9.303,0.401c3.226,0 6.34,-0.145 9.345,-0.407l1.428,-2.581l0.008,-0.008c-3.434,0.327 -7.035,0.508 -10.781,0.508c-3.747,0 -7.349,-0.181 -10.783,-0.508Zm57.228,-18.19c-0.366,7.917 -12.535,14.931 -30.523,17.574l0.006,0.006l1.755,2.096c17.6,-3.163 29.179,-10.935 28.762,-19.676Zm-92.89,0c-0.417,8.749 11.161,16.513 28.758,19.676l1.759,-2.096l0.004,-0.006c-17.991,-2.643 -30.151,-9.657 -30.521,-17.574" style="fill:url(#_Linear8);fill-rule:nonzero;"/></g><defs><linearGradient id="_Linear1" x1="0" y1="0" x2="1" y2="0" gradientUnits="userSpaceOnUse" gradientTransform="matrix(-0.251968,-63.7667,63.7667,-0.251968,95.3272,115.018)"><stop offset="0" style="stop-color:#eaeeed;stop-opacity:1"/><stop offset="1" style="stop-color:#61696c;stop-opacity:1"/></linearGradient><linearGradient id="_Linear2" x1="0" y1="0" x2="1" y2="0" gradientUnits="userSpaceOnUse" gradientTransform="matrix(1.64559e-15,26.8745,-26.8745,1.64559e-15,93.8886,40.724)"><stop offset="0" style="stop-color:#60686b;stop-opacity:1"/><stop offset="1" style="stop-color:#c5d1cd;stop-opacity:1"/></linearGradient><linearGradient id="_Linear3" x1="0" y1="0" x2="1" y2="0" gradientUnits="userSpaceOnUse" gradientTransform="matrix(14.9231,17.3391,-17.3391,14.9231,88.0364,49.7949)"><stop offset="0" style="stop-color:#707978;stop-opacity:1"/><stop offset="1" style="stop-color:#d9dedc;stop-opacity:1"/></linearGradient><linearGradient id="_Linear4" x1="0" y1="0" x2="1" y2="0" gradientUnits="userSpaceOnUse" gradientTransform="matrix(19.6049,29.1037,-29.1037,19.6049,84.2325,74.6667)"><stop offset="0" style="stop-color:#67706f;stop-opacity:1"/><stop offset="1" style="stop-color:#d6dedc;stop-opacity:1"/></linearGradient><linearGradient id="_Linear5" x1="0" y1="0" x2="1" y2="0" gradientUnits="userSpaceOnUse" gradientTransform="matrix(1.61415e-15,26.3611,-26.3611,1.61415e-15,94.8374,40.2171)"><stop offset="0" style="stop-color:#cad3d0;stop-opacity:1"/><stop offset="1" style="stop-color:#95a09c;stop-opacity:1"/></linearGradient><linearGradient id="_Linear6" x1="0" y1="0" x2="1" y2="0" gradientUnits="userSpaceOnUse" gradientTransform="matrix(2.56002e-15,41.8082,-41.8082,2.56002e-15,93.7927,73.4963)"><stop offset="0" style="stop-color:#b9bebe;stop-opacity:1"/><stop offset="1" style="stop-color:#586160;stop-opacity:1"/></linearGradient><linearGradient id="_Linear7" x1="0" y1="0" x2="1" y2="0" gradientUnits="userSpaceOnUse" gradientTransform="matrix(5.13226e-15,83.8161,-83.8161,5.13226e-15,93.8886,35.7496)"><stop offset="0" style="stop-color:#eaeeed;stop-opacity:1"/><stop offset="0.5" style="stop-color:#d2ddd7;stop-opacity:1"/><stop offset="1" style="stop-color:#5b6463;stop-opacity:1"/></linearGradient><linearGradient id="_Linear8" x1="0" y1="0" x2="1" y2="0" gradientUnits="userSpaceOnUse" gradientTransform="matrix(92.9121,0,0,92.9121,48.0329,65.704)"><stop offset="0" style="stop-color:#687170;stop-opacity:1"/><stop offset="1" style="stop-color:#687170;stop-opacity:0"/></linearGradient></defs></svg>