<svg id="Capa_1" data-name="Capa 1" xmlns="http://www.w3.org/2000/svg" viewBox="0 0 78.7087 34.1255"><defs><style>.cls-1{fill:#fff;}</style></defs><path class="cls-1" d="M28.0534,13.705,25.145,20.38H23.9245l-2.9176-6.675h1.3443l2.2217,5.149,2.2409-5.149Z"/><path class="cls-1" d="M28.5292,13.7336a.7261.7261,0,0,1,.7359-.716l.027.0009a.71.71,0,0,1,.761.655l.0017.0314a.7637.7637,0,0,1-1.5256.0287Zm.1622,1.5542h1.1919V20.38H28.6914Z"/><path class="cls-1" d="M34.393,15.2306v1.1346a1.52,1.52,0,0,0-.2765-.0285,1.388,1.388,0,0,0-1.478,1.5733v2.47h-1.192V15.2878h1.1348v.7437A2.0036,2.0036,0,0,1,34.393,15.2306Z"/><path class="cls-1" d="M40.4092,15.2878v4.3194c0,1.85-.963,2.6889-2.7461,2.6889a4.0475,4.0475,0,0,1-2.4791-.7246l.5341-.8963a3.0753,3.0753,0,0,0,1.8783.61c1.1253,0,1.6209-.5149,1.6209-1.5446v-.2671a2.2412,2.2412,0,0,1-1.7066.677,2.4626,2.4626,0,0,1-.2263-4.92q.1131-.0052.2263,0a2.2052,2.2052,0,0,1,1.7641.7342v-.677Zm-1.1725,2.3933a1.5524,1.5524,0,1,0-1.6431,1.4561q.0491.003.0981.0028a1.4318,1.4318,0,0,0,1.5408-1.3137A1.4074,1.4074,0,0,0,39.2367,17.6811Z"/><path class="cls-1" d="M41.81,13.7336a.7261.7261,0,0,1,.7359-.716l.027.0009a.71.71,0,0,1,.761.655l.0017.0314a.7637.7637,0,0,1-1.5256.0287Zm.1622,1.5542h1.1919V20.38H41.9722Z"/><path class="cls-1" d="M49.743,17.4618V20.38H48.5511V17.6144c0-.9059-.4483-1.3445-1.211-1.3445a1.3524,1.3524,0,0,0-1.4208,1.5352V20.38H44.7274V15.2878h1.1347v.6579a2.214,2.214,0,0,1,1.7546-.7151,1.99,1.99,0,0,1,2.1263,2.2312Z"/><path class="cls-1" d="M56.95,20.1031a1.8729,1.8729,0,0,1-1.1442.3433A1.5647,1.5647,0,0,1,54.0516,18.73V16.2795h-.8389V15.326h.8389V14.1626h1.1917V15.326h1.364v.9535h-1.364v2.4219c0,.4958.248.7628.7058.7628a1.0718,1.0718,0,0,0,.6676-.21Z"/><path class="cls-1" d="M62.5281,18.2151H58.5328a1.541,1.541,0,0,0,1.6495,1.2205,1.8246,1.8246,0,0,0,1.3827-.5531l.6389.7342a2.8592,2.8592,0,0,1-4.8627-1.783,2.5322,2.5322,0,0,1,2.458-2.6041q.087-.0024.1738.001A2.4832,2.4832,0,0,1,62.55,17.6162c.0032.082.0023.1642-.0027.2461C62.5474,17.9576,62.5375,18.1007,62.5281,18.2151Zm-4.0047-.7915h2.8892a1.3863,1.3863,0,0,0-1.44-1.2395A1.4075,1.4075,0,0,0,58.5234,17.4236Z"/><path class="cls-1" d="M63.6905,13.3045h1.1922V20.38H63.6905Z"/><path class="cls-1" d="M66.0264,17.8337a2.5762,2.5762,0,0,1,2.543-2.6091q.1063-.0015.2125.006a2.2912,2.2912,0,0,1,2.174,1.1823l-.9155.534a1.44,1.44,0,0,0-1.2679-.7056,1.4946,1.4946,0,0,0-1.5445,1.5924,1.4891,1.4891,0,0,0,1.5445,1.5924A1.44,1.44,0,0,0,70.04,18.72l.9155.534a2.3148,2.3148,0,0,1-2.174,1.1919,2.5836,2.5836,0,0,1-2.75-2.4062C66.0273,17.9712,66.0255,17.9024,66.0264,17.8337Z"/><path class="cls-1" d="M71.4894,17.8337a2.7146,2.7146,0,1,1,2.8147,2.6107c-.0356.0013-.0711.002-.1067.0019A2.563,2.563,0,0,1,71.493,18.033Q71.4873,17.9334,71.4894,17.8337Zm4.2238,0a1.5134,1.5134,0,0,0-3.0227-.1575,1.5323,1.5323,0,0,0,0,.1575,1.5134,1.5134,0,1,0,3.0227.1575A1.5323,1.5323,0,0,0,75.7132,17.8337Z"/><path class="cls-1" d="M16.3719,17.37c0-2.6817-2.792-4.8556-6.2362-4.8556S3.8994,14.6879,3.8994,17.37s2.7921,4.8555,6.2363,4.8555a8.01,8.01,0,0,0,1.17-.0866,7.6176,7.6176,0,0,0,1.0347-.2267,7.2725,7.2725,0,0,1,2.5251-.5541,3.9493,3.9493,0,0,1,1.8357.4981,1.6546,1.6546,0,0,1-1.033-1.3992c0-1.1529.6177-1.5622.6929-2.8122Zm-4.7454-1.9761.0012-.0088.0042-.0094.002-.0132.0016-.01.0032-.0025.0009-.0045.0017-.0094c.0042.0039.0062-.015.0067-.0167l.004-.0092.01-.0176.0037-.0064.0035-.0064.0067-.0057.0045-.0071.0091-.0113.0026-.0029v-.0042l.0074-.0032c.0044-.0016.0028-.0018.0039-.0056l.0044-.0056.0079-.0034.0048-.0062.0118-.01.0044-.0063.0085-.0029.0027-.0038.0036-.001.0023-.0023.0064-.004.0057-.0046.0046-.0014.002-.0028.0067-.0029.0049-.0051.0071-.0029.014-.0066.0057-.0039c.0048-.0031.01-.0025.0156-.0048l.0067-.0035.0075-.0014.015-.0048a.0454.0454,0,0,0,.0169-.0047l.0083-.0023.0038.0011.0038-.0011a.0891.0891,0,0,1,.0186-.0007l.0093.0007a.0456.0456,0,0,1,.0138,0,.08.08,0,0,0,.0138,0l.0084.0017.0069.0039.0077.0023.009.0042a.0309.0309,0,0,0,.0167-.0023l.0064-.0008.0047.005.0036.0073.0055.0093.0045.0055.0037.0075.006.0062c.0035.0025.0054.002.0061.0071V15.21c0,.0045-.0019.0154.0043.0173l-.002.0039.0017.0048.0039.0084V15.25l.0022.004-.0019.0044-.0085.0111-.0061.0154-.0024.0135-.0006.0064L12.02,15.31l-.0012.0091-.0053.0063-.0042.0075-.0058.0064L12,15.346l-.002.008c-.0046.0049-.0107.0036-.0146.01a.1052.1052,0,0,1-.0137.0188l-.0171.0176-.0087.0139-.01.0139-.0105.015a.1691.1691,0,0,1-.029.0243l-.0172.01-.0067.0053-.0051.0072-.0158.0043-.0121.01c-.0055.0063-.0181.0082-.0255.0116l-.0061.0047a.0181.0181,0,0,1-.0159.0008l-.0061-.003-.0085.0008c-.0071.0024-.0086.0061-.0171.0037s-.0175-.0011-.0263-.0035c-.0106-.003-.0233-.0013-.0322-.0086a.0256.0256,0,0,0-.017-.0058.0237.0237,0,0,1-.0139-.008c-.0086-.0082-.0179-.0126-.0229-.0237l-.0042-.006-.0018-.009-.0046-.0165c-.0029-.0061-.0014-.0127-.0039-.0184s-.0067-.0061-.0069-.0125S11.6274,15.4,11.6265,15.3934Zm-.2378,1.8632a.1254.1254,0,0,1,0-.03c.0007-.0044.002-.0415.003-.0455l-.0005-.0113.0044-.0137a.1882.1882,0,0,0,.0012-.03l.0025-.0264a.1373.1373,0,0,0,.002-.03.1123.1123,0,0,1,.004-.0277.38.38,0,0,0,.0051-.0436v-.014l.0019-.01-.0016-.0014h.002l-.0014-.0056.0019-.0072.0016-.01-.0015-.0025.0029-.005.0007-.0094.0029-.0268L11.4192,16.9l-.0016-.0057.0029-.0086.0029-.0255.0028-.0158V16.83c.0014-.0049.0018-.0257.0028-.0283l.0026-.02.0014-.0074-.0026-.0064.0027-.0058.0021-.0245c.001-.001-.0009-.0065,0-.014l.0024-.0007.0024-.0011-.0006-.0033-.0023-.0014v-.0041L11.44,16.71l-.0029-.0053.0016-.0063.0029-.0129.0009-.0246.0006-.0021.0058-.002-.003-.0054-.0022-.0011v-.0039l.0029-.0035-.0029-.0036.0047-.0028-.0013-.0061-.0005-.0176.0026-.0117a.0357.0357,0,0,0,.0006-.0122l.0012-.0063.003-.0008.0007-.0033-.0043-.0066.0026-.0017.0017-.01v-.0177l.001-.0032v-.003l.0006-.0149.0042-.0092.0014-.0157-.0023-.0048c-.0009-.003.0016-.0047-.0026-.0055l.0017-.0024.0051-.0009-.0026-.0068.0016-.0055.0009-.0044-.0023-.0044-.0014-.0026h.003l.0029.0011-.0006-.0018-.0029-.0011.0008-.0064.0019-.0011.0017-.0018-.0028-.0007.0022-.0046.0006-.0076v-.0087l.0018-.0125.0014-.0163-.0007-.0078.0007-.003h.0023V16.38l-.0014-.0035.0014-.0082.002-.0131.001-.0218v-.008l.002-.0014L11.48,16.32l-.0015-.0028v-.0074l.0019-.0064.0018-.0089.0024-.0018.0007-.0029-.0031-.0011V16.276l.0027,0-.0021-.0019-.0009-.0022.0027.0014.0007-.0131.0025-.0127.0022-.0105.0021-.0017V16.223l-.0035-.0058.0056-.0114.0009-.0167.0007-.0073.0026-.0013-.0027-.0036.0029-.0016-.0014-.006-.0014-.002.0022-.0018L11.5,16.15l.0021-.0083H11.5l.0054-.0216.0038-.0112.0026-.0019V16.1l.0043-.0072.0021-.0041L11.52,16.08l.0022-.003-.0009-.0021.0037-.0018.0008-.0038-.0006-.0022.0016-.0018.0045-.0032-.0022-.0014.0059-.0116-.0012-.0058.011-.0157.0024-.0092.0033-.0014.0055-.01.0022-.0014.0047-.01.0129-.0136.0126-.0143.005-.0039.0017-.003.0078-.0051.0029-.0052.0059-.0037.0174-.0153.0043-.0043.0138-.0116.0117-.0049.0064-.003.0045-.0041h.0034l.0017-.002.0075-.004.0066-.0021.0062-.0031.0079-.0013h.0082l.0063-.0026.0057-.0028h.0056l.0034.0048.0043-.0029.02-.0019.0079-.0013H11.77l.0033-.0026.0035.0018a.0257.0257,0,0,0,.014.0011l.0094.0026.0045.0029.007.0016.0054.0028.0044.0033.0047.0046.0039.0027.0027.0013v.0027l.0025.0018v.0029l.0019.0058v.007l.0021-.0006.0021.0042-.0006.0036L11.84,15.94l-.0024.0015.0022.0007.0022.0016v.0035l-.0014.0024v.0016l-.0024.0017-.0009.0053H11.84V15.96l.0021.004v.0026l.0024-.0029.002-.0019.005.0008.0028.0009-.0012.0024.0018.0021-.003.0045.0024-.0012-.0009.002-.0015.0088v.0029l.0035.005-.0009.0017h.0019l.0023-.004.0017.0019.0022.0056-.0012.0023L11.8627,16l.0011.0012.0016.0048,0,.0066-.0028.0054v.0057l.0009.0085.0023.0015.0013.0049-.0019.0049-.004.003v.0072l-.0031.004-.0052.003.0045.0046v.0028l.0024-.0008v.0034h-.0022l.0013.0018-.004.0018H11.852l-.0018.0049.0005.0031.0023.0012.003.0041-.0007.0052-.0089.0083-.0045.0043.0014.0023.002.0032.0011.0031v.0033l.0016-.0014.002.0012h.0063l-.0018.0016-.003.0008-.0034.0084.0019.0021v0l.0005.0015.0029.0012-.0006.0061-.0022.0013.0006.0022-.0008.0058.003.004-.005.0032-.0061.0026.0005.0025-.0016.0037.0009.001.0007.0033.0056.0006-.0018.0059-.0028-.0008-.0024.0019-.0013.0022.0019.003.0008.0067.0036.0009-.0036.0038-.0014.0025-.0044.0036-.0026.0047-.002.0023-.0028.0007-.0022.0052.001.0013-.001.0013.0107.0016h.004l.0021.001.0031-.001-.0053.0044v.0051l-.0032.0027.0018.0034.0011.0015h-.0026l-.0007-.0025h-.003l-.0037.0015-.0036-.0015.0009.0025.0016.0051.0037.0023.0015.006-.0007.0065-.0036.0036-.0009-.0025h-.0033l-.0021.005.0039.0054.0043.0041V16.27l.0025.0012-.0017.0027-.0017.0027-.0034.0006-.002-.0014H11.826l-.001.0016a.034.034,0,0,0,0,.0131l-.0012.0081.0008.0044-.002.0019-.0013.0025.0009.0026.002.0057-.0007.0026v.027a.1152.1152,0,0,1,0,.0144l0,.0021.0037-.0006.0013-.0018.002.002-.003.0025-.0031.0055-.0024.0014h.003l-.0019.0013v.0024l.002-.0015.0022.0009.0028.0012-.0025.0023.0009.0019-.0012.0025.0015.0021-.0015.0018.0031.0043.0036.0048v.003l-.0017-.0006-.0006.0016-.0025.0126c-.0009.0043-.0049.0063-.0049.0108l-.0018.0133.0018.006.0049.0051.0025.0011h.0026l-.002.0036.0017.0028-.0066.0042-.0008,0-.0023.0083.0065.0041-.0016.0024-.0015.0063-.0034.0034v.0074l.0006.0126.0037.0027.0013.0023h.0022l.0026.0033-.0048.0037-.0043.0062-.0013.0066.0021.0056-.0023.0048.0049-.0031.0044-.004.0013.0064-.0066.0062-.0021.0035.0008.0041-.0031.0041.0012.018.0041.0024v.0054l.0083.0081c.0011.0047-.0032.0028-.0058.0028l-.004.0061.0024.0079.0044.0053V16.62l-.0036.0054a.014.014,0,0,0-.003.0137l.0073.0072-.0007.005H11.83c-.0037-.0007-.01.0021-.0091.0063l.0029.0044-.0023.0053v.0048l-.0056-.0021c-.0039,0-.008.0012-.0086.0055a.0283.0283,0,0,0,.0044.0177l.0019.0053-.0057.0025-.0031.006a.0262.0262,0,0,0,.0029.0131v.0121l.0007.0072.0035.006.0121.0061.0048.0039.0034.0063.0032.0045-.0036.0054-.0024.0073v.0028h-.0034l-.0026-.0017.0015-.0024-.0053-.0038-.0046-.0025-.004.0011.0027-.0048-.0038-.0041-.0059.0035.0008.0072.0005.0062h.0069l.0029.0027-.0022.0021.0014.002-.001.0071V16.8l.0087.0031.0044-.0031.0026.0046.0006.0065v.0066l-.005-.0012-.0167-.01-.003-.0009-.0018-.0014-.0009.0062.0019.0058-.0032.012v.0057l-.0028.003.0035.0055-.0018.0066a.1007.1007,0,0,0-.0017.03.2625.2625,0,0,0-.0014.0452.0838.0838,0,0,1-.0007.015c-.0005.0073-.0062.0193-.0017.025-.0063.0031,0,.0036,0,.0069l-.0025.0041.0017.0048.0011.0023-.0038.0028-.0009.0115a.1731.1731,0,0,1,0,.0288l-.002.0281a.0155.0155,0,0,0,.0031.0139l.0072.007v.0128l-.001.01.0042.0022-.0024.0049-.0071.0091.0014.0088c.0027.0013.0021.0058.0013.01l-.0036.0011c-.004.0006-.0031.008.0027.0042,0,.0065-.0044.0136-.0041.0205s0,.0143-.0067.0177c-.0052.0027-.011,0-.011.0065a.0291.0291,0,0,1-.0038.015.0768.0768,0,0,0-.0111.02.1034.1034,0,0,1-.0244.0275.1377.1377,0,0,0-.0211.02.06.06,0,0,1-.0151.0171l-.0074.0037-.0034.005-.0125.0032-.0191.0149-.0128.0036-.0023.0055-.0063.0014a.1052.1052,0,0,0-.0255.0134c-.0047.0027-.0345.0175-.0419.0227-.003.0017-.0355.0108-.041.0132a.0819.0819,0,0,1-.03.0015.1287.1287,0,0,1-.0277-.0026l-.0244-.0048c0-.0052-.0083-.0078-.0121-.0105a.0957.0957,0,0,1-.019-.0157.0439.0439,0,0,1-.0092-.0168l-.0084-.0236a.0512.0512,0,0,1-.0054-.0252Zm-2.1-.28c.0139-.002.0286-.002.0423-.0032.0022-.0048.0122-.0048.0172-.0048a.0169.0169,0,0,0,.0118-.002l.01-.003c.01-.0016.0172-.0086.0265-.0106a.105.105,0,0,0,.0253-.0067c.0056-.0028.0058-.01.0116-.01a.057.057,0,0,1,.0193-.0048.0762.0762,0,0,0,.0207-.003l-.0016-.0043-.01.0025c-.0013-.0093.007-.0075.0143-.0075l0-.003.0057-.0021c.0048-.0012.0133.0039.0181,0s.0011-.012.0111-.011c.0016-.0045.005-.0037.0088-.0045l.0093-.0038.0063-.0017.0041-.0014.0041.0034.0115-.006L9.55,16.8846c.0043,0,.0049-.0023.0083-.0036l.0016-.0037h.0015l.0032.0078.0073-.0028.0005-.0044-.0005-.0052.01.0019.012-.0036.0018-.0032.0023-.0012.0055-.0018.01-.0027.0126-.0028.0132-.0022.0113-.001h.0078l.004-.0012a.0839.0839,0,0,1,.0266.0062l.0134.0035.01.0065a.0351.0351,0,0,1,.0158.0137l.0078.009L9.738,16.9l.0032.0038.0056.009.0076.0072c.0031.0047.0011.0059.0011.0112l.0031.0044.0006.0061.0054.0091.0038.0039-.0015.0021.0015.0032.0021.0015v.0028l.0038.0036.0047.01h.0021l-.0029.0091.0052.0105L9.78,17.012l-.0023.0133c0,.0051-.0074.029.0016.0269a.0457.0457,0,0,1-.0058.0222l-.005.0088-.0036.01-.0084.0059-.0056.0088-.0078.0191c-.012.0011-.0165.02-.0265.0264l-.0089.0041-.0032.0042L9.7,17.1635l-.0131.0136-.0188.0118-.01.0056-.0081.0081-.0055.0022-.0032.0036-.008.0076c-.0045.0047-.0117.0092-.0165.0147a.0356.0356,0,0,1-.0165.0087c-.0005.0045-.0081.0087-.0115.0109l-.0132.0092.0011.0015-.0071.0041L9.565,17.27l-.0039.005H9.5545l-.005.0064-.0036.0039-.0084.0084L9.5283,17.3l.0019.0012v.0009l-.0078.0018-.0046.0047c.0007.0059-.0049.0071-.0085.011-.0054.0056-.0092.0138-.0143.02l-.0145.0186-.0146.0176-.0151.02-.0071.0108-.0036.0108c-.0064,0-.0077.0081-.01.012l-.007.0142a.0294.0294,0,0,0-.0042.0161.0154.0154,0,0,0,.0053.0135c-.0037.0075-.0124.0061-.0164.0128l-.0027.0113.0087.0056c-.0036.0044-.0074-.0015-.01.0044l-.0021.0129.0019.0136c.0016.0055.0038.0076,0,.0118s-.0109.0063-.0129.0123L9.39,17.57l-.0054.0106a.0267.0267,0,0,0,.0014.0122l.002.0122.0053.01-.0029.0055H9.3852c-.0065,0-.0031.0011-.0075.0055-.0025.0027-.01.0014-.0089.0056.0062.0014.0126.01.0041.0131l-.0032.0066-.0026.0067c-.0008.0041-.0034.01.0021.012.0009.0046-.0021.009-.0027.014l-.0011.0128-.0028-.0017.0028.005-.003.0056.0047.0023-.0041.022a.1472.1472,0,0,0-.0014.0257l.0019.0114.0042.0087c0,.0069-.0066.0121-.0075.019a.2443.2443,0,0,0-.0012.0257c0,.0054.0072.0193-.0028.0193,0,.0045-.0009.0109.0035.0133a.014.014,0,0,0-.004.013c0,.0094-.0007.0181-.0007.0275l-.0021.0273v.0264l-.0019.0134c-.0007.0034.0015.0084,0,.0124-.0073.0012,0,.0065.001.0089.0008.004-.0031.0084-.0031.0123a.133.133,0,0,0-.0006.0155l-.0005.0324-.001.0246a.0765.0765,0,0,0,0,.0234c.0042,0,.0065,0,.0042.0038L9.3455,18.1l.0041.0171a.0356.0356,0,0,1,.0016.0183c0,.0032-.0022.0132-.0073.0132-.0034.0082,0,.0164-.0021.0245l-.0026.01a.0358.0358,0,0,0,.0013.0122.1646.1646,0,0,1-.0007.0253l-.0025.0282a.2019.2019,0,0,1-.0039.03l-.0044.0164-.003.0073,0,.0072c-.0048.0013-.0085.0157-.01.02l-.0082.02-.0115.0194a.0939.0939,0,0,1-.0117.021l-.0075.0073-.0059.0082c-.0068.0086-.0162.015-.024.0231l-.0051.0073-.0029.01-.0115-.001-.0084.0072-.0074.0057-.0076.0068-.0095.0045-.01.0042-.0035.0046-.0054.0015-.0043.0036-.0052.0019-.0092.0064-.0194.0114c-.0051.0035-.0226.0016-.0234.0081l-.01.0019c-.0014.0058-.0113.0044-.0156.0058l-.0212.0076h-.012l-.0039.0028-.0047.001a.0821.0821,0,0,1-.0257.0016c-.0054,0-.0178-.0082-.02-.002l-.0132-.0052c-.0048-.0014-.0076-.0054-.0124-.0062v-.0064H8.9715l-.0065-.0039-.0029-.0023-.0008-.0034-.0048-.0058L8.9511,18.49c-.0046-.0044-.0075-.0046-.01-.0106l-.0033-.0078-.0021-.0084L8.93,18.46l-.0016-.0065-.0038-.0106-.0019-.0113-.004-.0093-.0023-.0264a.2375.2375,0,0,1-.0011-.028L8.917,18.34a.15.15,0,0,0-.0006-.0268.1111.1111,0,0,1-.0011-.0264l.0023-.0132c0-.007-.0036-.01-.0055-.0147s0-.0063.0008-.0108l.0012-.0133c0-.0088.0074-.013.0086-.0207a.2218.2218,0,0,0,.0012-.027l.0029-.0257-.0032-.0158c-.0018-.0054-.003-.0042.0006-.0088a.0221.0221,0,0,0,.0026-.0224v-.0029a.0465.0465,0,0,0-.0022-.0271l-.0037-.01c-.0021-.0044-.0051-.0044-.0039-.01l.0045-.0116a.0812.0812,0,0,0-.0005-.014l.0017-.014.0006-.013.0045-.0107.003-.0117.0029-.0051-.0007-.0066c0-.0068.001-.0057-.0032-.01-.0069-.0072.0015-.0146-.002-.0229-.0016-.0041-.0063-.0083-.0049-.0132s.0056-.0066.0083-.0106l.0011-.0129c-.0083.0027.0017-.0294.0007-.0326-.0073-.0009.0028-.01-.0011-.0129v-.0117c-.0065-.0007-.0079-.0226.0013-.0234a.0948.0948,0,0,0,.0081-.0255l.0063-.0111.001-.0072.0019-.0049-.002-.0063a.07.07,0,0,1,0-.0158c0-.0051-.0007-.0165.0039-.0189-.0045-.0037,0-.0069.0006-.0108a.1169.1169,0,0,0,0-.0145l.0036-.0294.0033-.0247.0013-.0274a.2611.2611,0,0,0-.0008-.028c0-.009.002-.0189.002-.0276l.0027-.0254.0024-.0116-.0016-.0139c-.0013-.0165.0032-.0326.0032-.0491a.2651.2651,0,0,0,.0022-.0427.0667.0667,0,0,1,0-.0167c0-.003.0033-.0137-.0029-.0137l.0032-.0106.0012-.0117.0012-.0238.003-.0464a.2415.2415,0,0,1,.0074-.0514l.0071-.0308c.002-.0088.0021-.0178.0088-.0237a.0151.0151,0,0,1,0-.0131l.009-.0228c.0035-.0077.0049-.0166.009-.0245l.01-.0193.0059-.009.0041-.003.0028-.0042c.0043-.005.0073-.0114.0125-.0166L9.07,17.075a.3608.3608,0,0,1,.0353-.03l.004-.0038.0063-.0025.0094-.006.0093-.0078.0119-.0049.0107-.0046.0111-.0041.01-.0058c.01-.0035.0194-.0085.03-.0116s.0217-.0052.0323-.0094v.0011c.0033-.0013.0092-.0026.0056.0027l.0053-.0043L9.27,16.98Zm-1.4768.8245-.0026.0015-.0047.0014.0015.0026-.003.001-.0012.0025-.0019.002-.0016.0059-.0007.0065-.0024.0054.0017.0063.0008.0059v.0028l.0022.0019.003.0008v.0107l-.0022.0055-.0021.0077-.0016.0041c-.0026.0035-.0043.0042-.0043.0091l-.0011.006a.0147.0147,0,0,0-.0012.0121L7.79,17.91l-.0024.0017-.0009.0033L7.78,17.927a.035.035,0,0,0-.0083.0236c.001.0047.0059.0067.0027.0117a.0125.0125,0,0,0-.0024.0119l.006.009-.0057.0086-.002.0112-.0009.005-.0031.0109.0034.0035c.0015.0045,0,.0105.0006.0145.0017.0084.0035.02-.0032.0265l-.0023.0023-.0037.0007-.0036.005c-.0056,0-.0076.0037-.0082.0086v.0034l-.0011.0026-.0016.0065-.0012.006.0047.0051.0019.0061-.0023.0056v.0028l-.0022.0014-.0007.0067c.0011.0014.0127.005.0084.0074H7.7489l-.0039.0036-.0013.0059-.0029.0069,0,.0019-.0007.0039.0007.005a.03.03,0,0,0-.0019.0156V18.19l-.0027.0056-.0056.0019L7.73,18.21v.0119l-.0027.0059-.0007.0072.0013.0059-.0022.0074-.0027.0049-.0027.0035v.0027l-.0035.0026-.0008.0054-.0008.0065v.0051l-.0033.0054v.02l-.001.0067.0012.0049c.0026.0043-.0025.0078-.0018.0125l.0006.0029-.0034.0007v.0055l.0022.0045v.0063l.0025.0107c.0025.0025.0061.0074.0106.0057s.0028-.0065.0086-.0033l.001.006.0011.0031.0028.002-.0014.0019.0006.003V18.38l-.0018.002v.0069l-.0025.0084.0054.0045.0017.0065-.0008.0077-.0029.0065-.0026.0106a.0237.0237,0,0,0-.0008.0132A.0277.0277,0,0,1,7.73,18.46l-.0068.0037H7.72v.0028H7.7175V18.47l-.0009.0095.0022.0124c0,.0046-.0041.0069-.006.01l-.0029.0136c-.0019.004-.0053.0043-.0091.0053l-.0039.0029-.0007.002H7.6931l-.0025.0105-.0035.0031-.0009.0043H7.6849c.0031.0094-.0057.0064-.0078.0127v.0072l-.0033.0051-.0007.0029.0008.0025.0007.0019-.001.0026c-.0011.0046.0024.0072.0024.012v.0065l-.0023.0046-.0012.0156-.0016.0137-.0032.0145-.0024.0147a.0387.0387,0,0,0,0,.0166.0249.0249,0,0,1-.0028.0152c-.0021.0032-.006.0075-.0052.0115l.0021.0058-.0025.007.0019.0066.0009.0058-.0027.0061v.0077c0,.0064,0,.01.006.0128l.0073.0019.0032.0046c0,.0043.0012.0015.0036.0037l.0008.0055.0039.0051.0024.0063c.0006.0043-.0056.0054-.0069.0092v.0038l-.0017.0037-.0067.0034-.0072-.0006H7.6574l.0019-.0033-.0066.0044-.0018.003L7.65,18.81l-.0032.0015.0019.0024.0011.011a.0655.0655,0,0,1,0,.014v.0055l-.0033.0045-.0014.0057-.0018.0051v.0062l-.0028.0017-.0012.0036-.0013.0032-.0007.0044-.0053.0042-.0016.0079-.0031.0068-.002.0077.0006.0071a.05.05,0,0,0-.0023.0175c0,.0054-.0047.0084-.0047.0142v.0173L7.617,18.97l-.0009.0079c-.0014.0032-.0045.0106,0,.0132l-.0038.0015.0015.0062-.0009.0093-.002.0072-.0008.0085-.0014.0068-.002.0153-.0013.0073.0006.007c.0012.0052-.0027.0084-.0038.0127v.0046l.0021.0026-.0024.0016v.004a.0419.0419,0,0,1-.0014.0165l-.003.0164v.0082l-.0022.0063a.0486.0486,0,0,0-.002.0165l-.0017.0073v.008a.0424.0424,0,0,1-.0029.0183l-.0018.0142-.0012.0161a.0567.0567,0,0,1,0,.0154l-.0037.0054.0027.0051-.0029.0013-.0012.0044-.0009.0091c0,.0058-.0013.0106-.0007.0158a.03.03,0,0,1-.001.0159.0184.0184,0,0,0-.0037.0143v.0044l-.0016.0074a.0667.0667,0,0,0,0,.0167l-.0007.0083v.004l-.0023.0027-.0017.0077-.0015.0068c0,.0053-.0011.0112-.0011.0171l-.0022.0078v.0108a.0258.0258,0,0,0-.0028.0152l-.0018.015a.0413.0413,0,0,1-.0018.0164l-.0031.0057.0007.0079-.002.0151v.0173l-.0024.0018.0013.0024-.0026.006c-.0015.005,0,.011-.0015.0163,0,.0013-.0052.0085,0,.0078v.0072l-.0015.0062v.0066l-.0018.0069L7.54,19.553l.0011.0065a.0806.0806,0,0,1-.0011.017l-.0018.0153-.0019.0067-.0026.0139V19.62l0,.0077L7.532,19.63l-.0007.0036c-.0017.0053-.0065.0085-.0031.0144s.0009.0085,0,.0147l-.0021.0168a.0681.0681,0,0,0-.0013.0169l-.0035.0058L7.52,19.71l-.0021.0079v.0087l-.0006.0116-.0017.0046.0027.0034-.0034.0041v.008l-.0029.0045V19.77l-.0021.0085.0007.0079-.0023.0061-.0021.0158-.0008.0077-.0033.0062.0019.007-.0017.0032.0014.0036-.002.0072L7.5,19.86l-.0044.0148,0,.008-.0011.0081-.0009.0076v.0082l-.0028.0165-.0014.0117-.0025.0156a.0341.0341,0,0,1-.0021.0164l-.003.0149a.045.045,0,0,0-.0014.0159v.0061l-.0051.0037v.0164a.0208.0208,0,0,1-.0026.0156c-.0038.0043-.0024.01-.0038.0154l-.001.0067.0055.0043-.0051.0061-.0062.0248v.0079l-.001.0072-.0044.0154-.0012.0076-.0036.0062c-.0021.0048-.0007.0107-.0026.0157l-.0017.0071-.0037.0057c-.0026.0051-.0017.011-.004.0163L7.4332,20.2l-.0032.01-.0027.0053-.0017.0057-.0038.0068-.0048.0073-.0023.004-.0036.003-.0039.0092-.005.0046-.0052.0049-.01.0091-.0125.0093L7.37,20.283l-.0072.0033-.0073.0036-.0047.0053H7.3425l.0008.0048v0l-.03.0073a.044.044,0,0,1-.0177.0047h-.01l-.0083.0023a.1046.1046,0,0,0-.0177,0l-.008.0007-.008.003-.016-.0034-.012-.0021L7.2078,20.31a.0478.0478,0,0,1-.0164-.0071l-.0124-.0039-.0052-.0062-.0019-.0039-.0083-.0023-.0094-.0061-.0052-.0046L7.1454,20.27l-.0033-.002-.0015-.0033-.0058-.0054c-.0028-.0041-.0036-.0091-.0081-.012l-.0048-.0039c0-.0058-.0033-.0089-.0056-.0138l-.004-.0079-.0043-.0059-.003-.01c.0006-.0033.0026-.0029.0013-.0076s-.0051-.0089-.0051-.0147l-.0021-.0045-.0012-.0045v-.0053l-.0051-.0137-.001-.0078L7.0892,20.14V20.132l-.0039-.0157-.0025-.0055.0018-.0028-.0017-.0035-.0012-.009-.0019-.01-.0035-.0065-.0016-.0072a.0315.0315,0,0,0-.0013-.0146l-.0044-.0057.0024-.0025v-.004l-.004-.011c-.0009-.0028,0-.0087-.004-.01l.002-.0053-.0025-.0063L7.06,19.9987v-.01l-.0028-.0011-.0011-.0063c-.0013-.0046-.0085-.0041-.005-.0093l.002-.0068v-.0043l-.0013-.0028L7.05,19.955l.0022-.0034-.0031-.0033.0011-.0069-.0036-.01.0006-.0111c-.002-.0029-.0071-.0026-.002-.0059a.033.033,0,0,1-.0032-.0161l-.0034-.0154-.0028-.0067,0-.0087L7.033,19.86l-.0009-.0078-.0015-.0115c-.0029-.0043-.0017-.0061-.0017-.0112l-.0018-.0125c0-.0083-.0045-.0159-.0045-.0242a.0637.0637,0,0,0-.0034-.0233l-.0029-.0065-.0013-.0077L7.0106,19.75l.0013-.0046.0016-.0062.0007-.0036-.001-.0037.001-.0076H7.011L7.01,19.7209v-.0077l-.0009-.0079L7.007,19.69l-.0042-.0171L7,19.6525l-.0032-.0039V19.64l-.0023-.0064a.0627.0627,0,0,1-.0006-.015l-.0051-.0136-.0031-.0065L6.98,19.5948c-.005-.0027-.004-.01-.001-.0145l.0042-.0055v-.0084l-.0023-.0187v-.009l-.0029-.0059,0-.0067-.0036-.0068-.0006-.0076-.0036-.0072-.0031-.0066-.006-.0067.0064-.0027.0008-.0063v-.0131l-.0014-.0061-.0011-.0024.0011-.0034L6.9661,19.45l-.0026-.0072a.0347.0347,0,0,1-.003-.0152l-.0031-.0148c-.0007-.0057,0-.0107-.0007-.0157l-.0039-.0142L6.95,19.3764l-.0045-.0024-.0089-.0022-.0044.0023-.0051-.0016-.0052.0042.0037-.0046c.0042-.0028-.0019-.0011-.0014-.004l.0066-.0035.0058-.004c.005-.0037.0047-.0072.0071-.0123l.0032-.0057-.0022-.0063L6.9436,19.33l-.0016-.0077-.0094-.012-.0066-.0036-.0073-.0031c-.0046-.0045-.0019-.0076-.0007-.0125l.0019-.0091.0024-.0069,0-.011c-.0018-.0056-.0011-.0065.0031-.0105l.0043-.0118c0-.0033.0015-.01-.0032-.0114l-.0009-.0068.0021-.0061-.0033-.0062-.001-.0092-.0043-.0136L6.9173,19.18l.0009-.0081-.0021-.0014-.0008-.0125c-.0071,0-.0044-.0162-.0055-.0213l-.0012-.0059-.0019-.0049.0017-.0086c0-.004-.0044-.0063-.0028-.0105l.0026-.0039-.0028-.0046-.0036-.01c0-.004.0008-.0075.0008-.0112l-.0041-.0051v-.01l-.0012-.0092-.001-.0083-.0045-.005.0011-.0026-.0011-.0027-.0009-.0157-.0022-.0076,0-.0091.0013-.0073L6.8854,18.99l-.0015-.0173-.0022-.0172V18.95l-.0029-.0031-.0011-.0127-.0015-.01-.0011-.01v-.0085c-.0013-.0019-.0037-.0048.0008-.0048v-.003H6.8717a.0345.0345,0,0,0,0-.0163l-.0028-.0085v-.007l-.003-.0014v-.0038l.0006-.0084a.0381.0381,0,0,1-.0048-.0161c0-.0055.004-.012,0-.017l-.0042-.0058v-.0077c0-.0051.001-.0133-.0027-.017l-.0035-.0053.0031-.0068c-.0008-.0038-.0039-.0054-.0027-.01l.001-.0048-.001-.0072c-.0015-.005-.0044-.0075-.0037-.0129l0-.0108c0-.0059-.0063-.0078-.0063-.0129l.0025-.0107-.0018-.01-.0066-.02-.0011-.02-.0024-.0146L6.83,18.6278a.0271.0271,0,0,0-.0011-.0123l-.0023-.02-.0032-.0247-.0054-.0257-.0021-.0112v-.0061l-.0027-.0034c-.0014-.0045.002-.0054.002-.0091l-.004-.01A.1073.1073,0,0,1,6.81,18.48a.0174.0174,0,0,0-.0031-.0125l-.0028-.0117-.003-.0266A.0453.0453,0,0,0,6.8,18.4165l-.0027-.0045v-.0066l-.0022-.0133a.0618.0618,0,0,0-.0033-.0252l-.0021-.01-.003-.0232-.0032-.0125a.0313.0313,0,0,1,0-.0143c0-.0044-.0028-.007-.004-.011l-.0007-.0118a.4123.4123,0,0,0-.008-.0531l-.0042-.025-.0034-.0115c0-.0037.0019-.01-.0026-.0117l.0026-.01L6.76,18.16l-.0033-.0237-.0042-.0316A.0782.0782,0,0,0,6.752,18.09l-.0066-.0071-.0021-.0087c-.0078.0049-.0038-.0165-.01-.0173l.0026-.0076c-.005.0005-.0028-.0041-.0022-.0068a.13.13,0,0,0,0-.0279.0479.0479,0,0,1,0-.0131l.0027-.005-.0012-.0054a.2394.2394,0,0,0-.0011-.0258l-.0035-.0122-.0033-.0163-.0028-.0183-.0039-.021-.0038-.02-.0023-.0094-.0012-.0043.0026-.0032c.0009-.0049-.0014-.006-.0029-.01l-.0019-.0136a.1241.1241,0,0,0-.0026-.0265c-.0026-.0083-.0029-.0175-.0051-.0258L6.7,17.7726c-.0009-.0058,0-.0125-.0009-.0186a.0856.0856,0,0,0-.0041-.0219.13.13,0,0,1-.003-.0264L6.69,17.6934c-.0017-.0042-.0044-.0046-.0044-.01a.1232.1232,0,0,0-.0025-.0271l-.0094.0064a.0358.0358,0,0,0,.0072-.0191L6.6787,17.62l-.0028-.0063L6.67,17.6132l.001-.0066-.0033-.0045-.0011-.0065-.0057-.001a.03.03,0,0,1-.0122-.0378l.0013-.01c-.0029-.0038-.0081-.0032-.01-.0079l.0021-.0132.0025-.0066-.0028-.0042-.0019-.006.0043-.0023.0035-.0016.0007-.0031.0035-.0039-.0112-.0075c-.0066-.0037.0023-.0036.0039-.0065V17.47l-.0022-.006.0053-.0026c.0057-.0011.007-.0037.0052-.0085a.01.01,0,0,0-.01-.0068.0118.0118,0,0,0-.0115.0055c-.0011.0023-.0021.0108-.0065.007l-.0033-.0053L6.6185,17.45c-.0023-.0047.0014-.0074.0029-.0113l.0016-.006.0021-.0025v-.0114l.0038-.0043H6.6247l-.0066-.0014a.0106.0106,0,0,1-.0067-.0094l-.0025-.0053-.004-.0032-.0065-.0014-.0063-.0019H6.5864l-.0032-.0049H6.57l-.01.0065v.0028l-.0006.0029v.0062c0,.0052-.0024.0059-.0049.01l-.0011.0064v.0033l-.0017.0017-.0006.0049-.0026.0046L6.543,17.44l-.0018.0033-.0023.0023.0009.0066v.0067l-.0031.0026H6.5332v.0092l-.0036.0023-.0015.0048c-.0048.004-.0118-.0071-.0163-.006l.0014.0091L6.51,17.483v.0053l-.0012.0081.0014-.0037.0052.0013v.0027c-.001.0045.0077.0006.0072.0065l-.0041.0026-.0025-.0046h-.011L6.5,17.5041l-.0032.0032c-.0029-.0007-.0068-.0084-.01-.0043v.0077l.003.0068.001.0048.0031-.0045-.0024.0136.0016.0049-.004.003c0,.0014.0065.01,0,.0084-.0029,0-.0055-.0078-.0064,0l.0018.0068.0045.0031-.0047.0116-.012.0045.0029.0054-.0044.0029-.0036.0036-.0017.0055.0009.0022.0062.0018-.0014.0065H6.4682l-.0022.0014-.0029.0028-.0031.0015-.0035.0042-.0016.009-.0008.0046-.0038.0019c-.0042.003-.0029.01-.0029.0139v.0064l.0042.0036-.0031.0077L6.441,17.66l-.0017.0059c-.0014.0043-.0069.0072-.0052.0122l.0018.0055L6.43,17.6828l-.0035.0132c0,.004-.0061.0075.0017.0085l.0047.003-.0029.0048-.0051.0038-.0013.0069-.0014.006.0008.0063-.0015.0064-.0049.0037.0046.0038-.001.0056-.0054-.002-.0031-.0014L6.41,17.749l-.0057.0041-.0014.0094.0053.0009.0052-.0017v.0039l-.0041.0027-.0012.0053c-.0011.0047-.0076,0-.0057.0047l.0012.0049.0006.0037L6.403,17.79l.0051.0053v.0064l-.0087.0086c-.0014.003-.007.0074-.0022.0095l-.0045.0035-.0016.0015v.0031l-.0046.0045v.0064l.0016.0042-.0032.0016v.0032l-.0007.0045-.005.0024-.0009.0068-.0028.0069-.0046.0044v.0127c.0029.002.0121-.0016.0129.0033s-.01.0045-.0125.0054c-.0054.0015-.0086.0068-.0112.0106a.0482.0482,0,0,0-.01.0226l-.0036.0117c-.0024.006.0009.0079,0,.013s-.005.0054-.0075.0088l-.003.0118c-.003.0065-.0122.01-.0159.0153s.0009.0043.0025.0081l-.0049.01c-.0058.0063-.011.01-.0124.0189l-.0013.0136-.0067.0083-.0016.0135c-.0009.0073-.0034.0031-.0067.0073.0019.0043-.0027.0031-.0043.0062l.0013.0084c.0009.0064.0027.01-.0047.0141s-.0063.004-.01.0118-.0086.0145-.0037.0235c.0015.0034.0069.0029.004.0081s-.0127-.0041-.0185.0006l-.005.01-.0065.0056-.0137.015a.12.12,0,0,1-.0321.02l-.0162.0065-.0056.005-.0091.0011-.0083.005-.01-.0008-.02.0022-.0152.0039-.0206-.0008a.0479.0479,0,0,1-.016.0012l-.0173-.0065a.1521.1521,0,0,1-.0379-.0142.2035.2035,0,0,1-.0614-.0632.1088.1088,0,0,1-.0163-.0492.2368.2368,0,0,1,.018-.099c.0049-.0159.01-.03.0161-.0459a.4526.4526,0,0,0,.0183-.0451c.0024-.0078.0023-.018.0046-.0242s.0081-.0151.0061-.021c.0065-.0057.0062-.0159.01-.0235l.0073-.0118c.0025-.0057.0006-.0108.0025-.0157l.01-.0241a.1236.1236,0,0,0,.0066-.0238H6.0359c.0085-.0279.0247-.0531.0347-.0814.0083-.0232.02-.0453.0283-.0688a.116.116,0,0,0,.003-.0288l.0108-.0182c-.0106-.0138,0-.0163.0067-.0247-.0171-.0065.0081-.0185.0113-.0217a.1416.1416,0,0,0,.0161-.0385.06.06,0,0,0,.0041-.0322.0741.0741,0,0,1,.007-.03c.007-.0166.0238-.028.027-.0461a.3169.3169,0,0,1,.0195-.0583.1693.1693,0,0,0,.0045-.0309c.0014-.0075.0131-.0192.0075-.0254a.0809.0809,0,0,1,.01-.0241.0575.0575,0,0,0,.0113-.0269c.0035-.0159.0115-.0334.017-.05l.02-.0569a.1572.1572,0,0,0,.01-.0321.1041.1041,0,0,1,.0018-.0249c.0027-.0109.0094-.0207.0121-.03a.1062.1062,0,0,1,.0131-.0371.048.048,0,0,0,.0114-.0254c.0014-.0126.0055-.022.0066-.0334a.0473.0473,0,0,1,.0079-.0276.1671.1671,0,0,0,.0138-.0253c.0117-.028.0158-.0571.0258-.0855l.0087-.0214.0073-.0236.0035-.0118.0053-.0113c.0041-.0187.0117-.0373.0175-.0556l.0011-.0048.0037-.002-.0007-.0068.003-.0094L6.4327,16.6l.003-.0088.0044-.008c.0033-.0081.0034-.0176.0066-.0258l.0061-.0117.0035-.0123c.0041-.0166.0111-.0329.0167-.0492a.1883.1883,0,0,1,.022-.0422.1437.1437,0,0,1,.0223-.0313c.0067-.007.014-.0127.0205-.02a.0994.0994,0,0,1,.0253-.0184l.013-.0087.0172-.0067H6.5927l.0106-.0018.0053-.005.0081-.0026.018-.0048a.0447.0447,0,0,1,.0174-.0023.1017.1017,0,0,1,.0183,0l.008-.0007.0072.0026a.1419.1419,0,0,0,.0195.0013l.0226.0033.009.0028.0183.0058.0086.0036.0222.0115.01.008.01.0095.0117.009.0077.0091.0084.0088.0045.0067.0044.0051.0075.0155.0029.008.0044.0058.0021.0083.0066.0109a.2167.2167,0,0,1,.0114.0344l.0052.0164.0019.0178c.0031.0126.0043.0258.0077.0385l.0027.009.0007.0086.0024.0188c.0045.0015.0032.0059.0032.0092l.0017.0119.0043.018a.0774.0774,0,0,0,.0014.0192l.0023.0081v.0089l.0038.0157c.0007.0045,0,.0093.0007.0138l.0012.0047-.0007.0043.0031.0045.0014.0057.0013.0117.0017.01v.0094l.0046.02.0041.0177-.0015.0063.003.0032.0012.0036c.0021.0063,0,.0117.0007.0181L6.94,16.85l.0014.0089a.1213.1213,0,0,0,.0008.02l.0015.01v.01l.0041.0174.0034.0172.0031.0158a.0449.0449,0,0,0,.0047.0262l-.0011.0065.0021.0074.0008.0087.0022.008v.0084a.0235.0235,0,0,0,.0039.0161c.003.0041.0093.01.0093.0159l-.0039.0065-.0023.0076.0044.0188.0056.0058.005.0067.0019.0063c-.0019.0043-.0031,0-.0059.0014l.0028.0157.0059.0035-.0023.0074-.0059.004.003.0063.0106-.0022c.0033-.0011.0077-.0006.007.004l-.0078.0021v.0181l.0045.0068.0035.0051c0,.007-.0023.0078-.0065.0127a.0143.0143,0,0,0,.0006.0162c.0036.0053.0083.004.0136.0053l.0049.0051L7.01,17.215l.004.0064c-.0012.0034-.0066.0014-.0073.0057s.0049.0048.0067.0086l.0006.0085.0024.0094v.0093l.0044.0064-.0044.005c-.0071.0019-.01.0028-.0083.011l.0026.008.0039.0054c-.0037.0015-.0063.0008-.0037.0059.0051-.0028,0,.0046,0,.0054l.0017.003.0008.0042.0018.0084.0012.0086.0036.003.0018.0044-.0018.0075.0023.0154c.0017.0025.0049.0021.0032.0061l-.0027.0069.0038.0061.0079.0021-.0052.0068-.0035.0063.0042.0172.0027.017a.0345.0345,0,0,0,.0062.0249c.0033.0037.0068.0058.0049.0107s-.0049.0025-.0033.0091a.37.37,0,0,1,.0087.0512l.0087.0025.0007.01c-.002.0073-.0056.0112-.0043.0191l.0043.0125a.06.06,0,0,1,0,.0147l.0013.0153c.0014.0079.0007.0067.0086.0079a.013.013,0,0,1,.0114.0065c.0029.0062,0,.0075-.0037.0123s-.0031.0054-.0022.0116l.0006.0087.0056.0037c.0069.0048.0015.0008.0015.0082,0,.0046.0056.0027.0086.0056l-.002.0079a.0532.0532,0,0,0,.0093.0273l.0088.0094.003.0141c.0023.0051.0052.0073.0052.0128v.0167l.003.0169-.0025.0161a.0372.0372,0,0,0,.01.0222c.004.0043.0123.0126.013.0182l-.0032.0092-.0117.0028c-.005.0032,0,.0048.0017.0077l.0018.0112.0035.0113c.0012.004.0019.0067-.002.0095.0059.0046.0044.0149.0059.0214l.0059.0132.004.0085c.0009.0045,0,.0064.0024.0109l.0041.0082a.076.076,0,0,1,.0008.0233c.0006.01,0,.0193,0,.0282s.0041.0161.0049.0246l.001.0125.0056.0086.0029.012c.0014.0034.005.0041.0043.0091-.0068.0017.002.0052.0032.007l.0017.0117.0077.0077c.0024.0048.0006.0107.0024.0158l.0077.014a.0282.0282,0,0,1,.0015.02L7.19,18.147l-.0023.0053-.0043.0026-.0018.0115-.0038.01-.0031.0111c-.0032.0044-.0065.0021,0,.0071l.0042.01c0,.005-.0039.0068-.0062.0106a.0188.0188,0,0,0-.0012.0128v.0158l.0012.0078-.0013.0079c.0014.0041.0086.0085.0093.0016l.01-.0032.0043-.0023.004.0018c.0005.0041-.0113.0068-.0142.011s.0006.0043.0014.0084-.0021.0062-.0031.0092c-.0019.0067.0019.0165.0081.0095.0018-.002-.0015-.0031.0025-.0038l.005.0023-.008.0037.0016.0072c.0012.0063-.0014.0081.0053.0118l.01.0066a.0781.0781,0,0,1,.0074.0254c.0017.0108-.0078.0031.0008.0314.0039.0137-.0029.0124-.0061.0259-.0014.0045.002.0118.001.0171l-.0051.0113c0,.0089.0055.018.0064.028A.16.16,0,0,0,7.22,18.49a.15.15,0,0,1,0,.0284c0,.0114,0,.0214,0,.0314,0,.0062.0036.01.0027.0162,0,.004-.0053.0054-.0053.0105.0121.0048.0247.0007.0247.019,0,.0055-.0042.0084-.0047.0133,0,.0074.0033.0074.0052.0136a.0749.0749,0,0,1-.0019.0355c-.0012.0074-.0023.0046,0,.0126l.0056.0147c.0122-.0055.01-.0045.0188.0045-.0013.0045-.0032.0175.0068.0128.0046-.002.003-.0117.0084-.0147a.037.037,0,0,1,.0019-.0158l.0063-.002c.0013-.0186.0055-.0353.0072-.0523a.0784.0784,0,0,1,0-.0137l.0052-.01.0021-.0282a.4176.4176,0,0,0,.0042-.0417c.003-.0272.0065-.0544.0107-.0815.0083-.0558.0192-.1117.0247-.1681a.2315.2315,0,0,1,.007-.046.9242.9242,0,0,0,.0234-.1257c.0036-.0227.0048-.0454.0082-.0678.0018-.0111.0061-.0216.0071-.0325.0029-.0294.0145-.0594.0165-.0894a.522.522,0,0,1,.01-.0583c.0077-.0439.0188-.0875.0233-.1327.0024-.0225.0066-.0442.01-.0663a.2808.2808,0,0,1,.0067-.0407A.4981.4981,0,0,0,7.467,17.56c.0039-.0217.01-.0434.016-.0649a.1692.1692,0,0,0,.0056-.04A.0874.0874,0,0,1,7.5,17.4146c-.0071-.01.0033-.0306.0057-.0418l.0094-.0448c.0034-.015.0089-.03.0115-.0461.0047-.0295.01-.0592.0162-.0883.004-.0151.0061-.0318.01-.0471.0078-.03.016-.0579.0235-.0879.0042-.0187.0113-.0392.0142-.0579a.0753.0753,0,0,1,.0051-.0261c.0044-.01.0018-.0171.0044-.0271.0015-.0056.0062-.0071.0082-.0122L7.61,16.919l.0087-.0317c.0047-.0162.01-.032.0147-.0483.0038-.0137.003-.0274.0055-.0416.0054-.0317.0188-.0615.0254-.0928.0087-.04.0243-.0781.0329-.1193a.36.36,0,0,1,.019-.0543A.1654.1654,0,0,0,7.722,16.5c.002-.0094.0108-.0153.0126-.024.0009-.0045-.0018-.0133-.0012-.0189.0014-.014.0069-.0271.0094-.0409a1.1314,1.1314,0,0,1,.0277-.1178c.0056-.019.0146-.038.0205-.0568s.0088-.04.0149-.0588c.0125-.0384.0222-.0755.0336-.1146a.25.25,0,0,1,.0109-.03.0505.0505,0,0,0,.0041-.0271.0668.0668,0,0,1,.0081-.0286c.0047-.008.0152-.0107.0131-.0218a.2171.2171,0,0,1-.0007-.0463c0-.0161.0129-.03.0194-.0432a.3065.3065,0,0,0,.01-.0444c.0035-.01.0053-.0319.0141-.0391-.0061-.01.0041-.0255.0073-.0355.0041-.0147.0064-.03.0106-.044s.0129-.0258.0159-.04a.296.296,0,0,1,.0282-.06c.0046-.0107.0056-.0209.0092-.0317a.2244.2244,0,0,0,.02-.0595.2428.2428,0,0,1,.01-.047.0676.0676,0,0,1,.01-.0214l.0119-.017.0061-.0174.0079-.02c.0232-.07.0461-.1435.0749-.2124.0113-.0282.0213-.057.0313-.0864.0076-.0232.0185-.0447.0276-.0673.0077-.02.0131-.0416.02-.0623.0065-.0159.0127-.0339.02-.0494a.24.24,0,0,0,.0147-.0435c.0037-.0133.012-.0256.0166-.0388.0107-.0316.0236-.0623.0344-.0938.0087-.0248.0172-.05.0277-.0737.0091-.0219.0157-.0447.025-.0662a.2418.2418,0,0,0,.011-.0354c.003-.01.0105-.0178.0143-.0278.011-.028.0189-.0582.031-.0858.006-.0145.01-.03.016-.0445a.482.482,0,0,0,.0176-.045.8218.8218,0,0,1,.035-.084c.0062-.0148.0112-.0308.0176-.0458a.228.228,0,0,0,.0172-.0507.1329.1329,0,0,1,.0179-.041c.0071-.0145.0113-.0286.0171-.0429.0108-.0258.0191-.0515.0317-.0751l.02-.0379c.0055-.01.0123-.0328.0241-.0359a.1026.1026,0,0,1,.0089-.0235.1976.1976,0,0,1,.0242-.0365l.0163-.0189.0168-.0191.0063-.0121c.0028-.0034.0059-.0017.0077-.0067l.0045-.0011a.02.02,0,0,1,.0124-.0114l.0033-.0117.0076-.0011.0038-.0048c.008-.0061.0109-.0121.02-.0182a.478.478,0,0,1,.0782-.0515l.0172-.0077a.1633.1633,0,0,1,.0192-.0049c.0068-.0024.0089-.0072.0173-.0083l.0219-.0031.0212-.0039.0069.0029.0089-.0029.0072.0025.0079-.0014.0173.002.0183.0019.0172.0037.0172.0019.0125.0073.0039.0025h.003l.0071.0013.0147.0033.0138.0056.0169.0088.0135.0048.0042.0038.0066.0031.0092.0066.0047.0041.0092.0008.0015.0052.0066.0046.0019.0021.0031.0027.0024.0027.0046.0024.0039.0057.0034.0017.0025.0037.0109.0084.0188.0224.0051.0047.0027.0063.01.0178.0021.0066.0052.0053.0011.0068c.0014.0052.0058.0067.0065.0115l.0019.0075.0032.0065.0044.0112v.0087l.0029.0073.0017.0063.0051.0131.0016.0151L9.26,13.97l-.002.0069.0032.01.0014.0115-.0006.0273c0,.0045.0027.0107.0006.0145l-.0038.0043.003.0048.002.0013-.0016.0063-.0021.0065-.0025.0153-.0027.0131-.0021.0061v.0079l-.0024.0057-.0036.0047-.0034.0128-.006.0113-.0014.0061-.0028.0013-.0055.0082-.0024.0048c-.0008.0048-.005.009-.0069.0134l-.0077.01-.0041.0056-.002.0033v.003L9.2007,14.2l-.0032.006-.0032.0008L9.193,14.21l-.0012.0065-.0057.0041-.0033.0054.0033.0108-.0053-.0018-.0021.0013H9.175l-.0089.0082c-.0026.0046,0,.0092.0005.014a.0255.0255,0,0,1-.0018.0142l-.001.0057c-.0046-.0018-.003.0031-.0035.0059-.0007.0056-.0023.0018-.0055.0011l-.0035.0051v.0082l-.003.0055-.0037.0044-.0027.0018-.0012.0029H9.1372l-.001-.0024-.0047-.0026-.0027.0017-.0037.0007-.0061.0021-.0016.0064-.0024-.0011v.0083l-.0024.0018-.0074.0008.0015-.0054L9.1028,14.32v.0073l-.008.0042v.0078c.0026.0042.0049.0067.0009.0109l-.0046.0047-.0029.0057-.0091.0026-.0028-.0018.0016-.0028.0028-.0059-.004-.0049-.0054.0034v.0047l-.0006.0059-.0043.0053-.0051.0034c-.0035.0041.0016.0109-.0048.0109a.0782.0782,0,0,0-.0153,0,.0289.0289,0,0,1-.01.0141l-.0023.002v.0035l-.0056.0028L9.02,14.41l-.0068.0042-.002.0054-.0058.0035-.0044.0057-.005.0058-.0045.0047-.0008.0059-.0042.0049-.0085.0062-.0072.0083-.0082.0126-.0074.0077-.0086.01-.0062.0108-.0051.01-.0057.0013-.0047.0062c-.0076.0113-.017.02-.0253.0313a.0578.0578,0,0,0-.01.0182c-.001.005,0,.0058-.0045.0079-.0064.0032-.0077.01-.0111.0149s-.0083.0074-.01.0135l-.0016.0087-.0065.0045.0011.0016c-.0055.0036-.0171.0106-.008.0167l-.009.0062-.003.0116c-.0114-.0053-.0077.0186-.0092.0237-.0055.0008-.0055.003-.0084.0058l-.0088.0066L8.8,14.7117a.0486.0486,0,0,0-.0084.0161l-.003.0078-.01.0161-.0039.0116-.0053.011-.0039.0031-.0019.0066-.0056.0114L8.757,14.8l-.0025.0049c-.0051.0076-.0069.0152-.0121.0232l-.0079.0188-.0024.01-.0038.0029-.0024.0041a.073.073,0,0,0-.0088.02l-.0043.01-.005.01.0025.0019a.1291.1291,0,0,0-.0171.0327c-.0087.02-.0178.0385-.0261.0579-.0018.0046-.0078.0289-.0143.0294v.0057c-.0058.001-.0051.0077-.0058.0126l-.0013.0057-.0046.0028.0016.0052-.0033.0048-.01.0187-.003.0037v.0061c-.005.0027.0006.012-.0071.0107l-.0022.0125-.0041.003-.001.0059-.0109.0208-.0028.0124-.0053.0087-.0089.0224-.009.0185-.0073.0183c.0066.0021.0007.0055,0,.008l-.0017.013c-.0006.0052.003.0057.0038.01l-.0021.01-.0018.013-.0036.0033-.0022.0058-.0034.0032-.0029.0039-.0068.0079c-.0033.0067-.0007.0127-.0056.0191-.0028.0037-.0075.0137-.0115.0146l.0025.0073-.0041.0088-.0084.0172c-.0034.0126-.0167.017-.02.03l-.0046.0127-.0049.0146v.0072l-.0067.0105-.0033.0049-.0054.0109-.0012.007v.0092l-.0024.0022-.0064.0114-.0013.0076-.0028.0113-.0038.0039-.0009.0061v.0151l-.001.0068-.0053.0033-.0016.0018-.0016.0012-.0017.0069.0013.0024-.0006.0028-.0018.0025v.004l-.0021.0049v.002L8.44,15.575l-.0022.0034-.006.0019-.0027.0055L8.4226,15.6l-.0025.0068-.0046.01-.0021.0112-.0042.0062-.0007.0085-.0043.0066-.0018.0108-.0015.017L8.4,15.6856l-.0039.0036-.0023.006v.0077l-.0064.0031-.0031.0072L8.38,15.72l.004.0055-.0019.0087-.0061.0049-.0026.0076.0023.0072-.0043.0057-.0017.0077a.0152.0152,0,0,1-.0057.0139c-.0048.0035-.0055.0081-.0085.0128L8.35,15.81l-.0028.016-.0028.0068-.0014.0038-.0021.0032-.0072.0194-.0027.0186.0028.0065.0023.0039c-.0036.0016-.0045-.0005-.0057.0041L8.3264,15.9l-.0032.0114c.0072,0,.0013.0113,0,.0147l-.0095.0136a.0158.0158,0,0,0-.0024.0147l.0045.0063-.0012.0086-.0041.0106-.0074.0072-.0046.0067-.0017.01-.0025.018-.0087.0149-.0035.0063-.004.0057a.04.04,0,0,0,.0016.0192c.0015.007.0074.0089.0115.0147l-.0032.0088-.003.0095-.0087.0038a.0545.0545,0,0,0-.0091.0252c-.0017.0061-.0023.0089-.0084.0118l-.0072.005L8.25,16.155c0,.0059-.0044.01-.0055.0154l-.0014.0158-.0036.0146-.0079.0275c-.0029.0065-.008.0108-.0073.0186l.002.0064-.001.0073a.1292.1292,0,0,1-.0152.0318c-.0057.01-.0086.02-.0142.03a.0857.0857,0,0,0-.0136.0288.0277.0277,0,0,0,0,.0128c.0011.0039.0053.0051.0032.01l-.0074.0065a.0242.0242,0,0,0,0,.0141.0211.0211,0,0,1-.0018.0131l-.0029.0065-.0048.005.0012.0051,0,.0069-.0024.0062v.007a.0787.0787,0,0,0-.001.0153.0419.0419,0,0,1-.0025.0148l-.0005.0075-.0027.0055-.0013.0157-.0027.0143.0027.007.004.0054c0,.0048-.0044.0074-.0057.0118a.035.035,0,0,0,.0013.0147c.001.005-.0012.0067-.0023.0115l-.0007.0058-.0041.0076-.0043.0091-.0032.006-.0034.006L8.14,16.61l-.0024.0061a.0169.0169,0,0,1-.0076.0108l-.0051.0039-.007.0018a.0188.0188,0,0,0-.01.01L8.1,16.6549l-.0031.0154-.004.0134L8.09,16.698l-.0014.002,0,.0038-.0011.008c0,.0047-.0056.0072-.0072.0118a.05.05,0,0,0-.0013.0128l-.0006.0058v.0053l-.0023.0051-.0013.006c-.0046.0068-.012.0088-.0173.0151a.0208.0208,0,0,0-.0028.0142.0285.0285,0,0,1-.0027.0144l-.008.0087c-.0036.0062-.0009.0153-.0036.022l-.0009.005-.0018.0047-.0032.0085a.01.01,0,0,0-.0076.0086l-.0006.0081v.0034l-.003.0013-.0032.0045-.0049.0041-.0034.0095.0014.0034-.0036.0047-.0028.0075-.0015.0069-.0026.0054v.0068L8,16.9319V16.94l-.0047.0046-.0029.0117-.0038.0112-.0033.0127v.0059l-.001.0049-.0023.0061-.0017.0066-.0038.0058v.0073l-.0023.0041.0014.01c-.0006.0051-.0029.0011-.0054.0031l-.0007.008-.002.0144-.0007.0037-.0033.0013-.0009.0077-.0016.0075-.0037.0055-.0024.0149v.0071l-.0049.0047.0014.0077-.0027.0062a.0483.0483,0,0,0-.0016.02l-.0027.0026.0033.0022-.0057.0053c-.0005.0041.0061.0023.0051.0065-.006-.001-.0047.0075-.006.0107l-.0054.0139-.0073.0289-.0036.0119-.0007.0071-.0016.0049v.0106l-.0037.0041-.0015.0061a.1106.1106,0,0,1,0,.0141l-.0036.0119-.005.0107-.0021.013-.0018.013-.0013.0135c0,.0048-.0032.0078-.005.0121l-.0029.0132-.0015.0092-.003.0048.0012.0019-.0008.0028-.0014.0077c0,.0066-.0034.0123-.0018.0188.0011.004,0,.0037-.0027.0072l-.0015.0068-.0034.0073-.0049.0163-.002.0125-.0035.0136-.0032.014c0,.0053.0047.0037.006.0081l.0007.0065-.002.0051-.0062.0106a.0093.0093,0,0,0-.0027.0115l.0029.0063.0038.0059-.0055.012c-.0045.0029-.0079.0029-.0088.0089v.0059l.0026.0007.006.0022v.012l-.0052.0136c-.0029.005-.0036.01-.01.01H7.8408l-.0037.0057-.0012.0142a.2071.2071,0,0,0-.0123.0581l.0017.0091.0051.0061v.0062l.0026.0057-.001.0055.0008.0066.0018.0134c.001.0056-.0046.01-.0046.0156a.08.08,0,0,1,0,.0176l-.0027.0052-.0017.0059-.0032.0116-.0051.0027-.0025.0049-.0035.0035Zm1.01-1.2238-.0044.008c.0005.0045.0061.004.0054.0077H8.8178l-.0013.0049c-.0032.0043-.0038.0021-.0038.0084a.0224.0224,0,0,1-.0033.0153c-.0041.0055-.01.0072-.0121.014l-.0035.0051-.0048.0016V16.65l-.0029.0049-.0052.0116-.0085.01c-.0035.0063-.0035.0059-.0106.0074-.0046.0013-.0079.0017-.0091.0064s.0038.0065.0024.0107l-.0042.0027-.003.0054a.0245.0245,0,0,1-.0162.0124c-.0056.0012-.0065.001-.01.0051l-.0057.01-.0039.0045c-.0027.0019-.0141.0037-.0127.0077l-.0159.0117c-.0047,0-.0036.0056-.0063.0077l-.0091.0026-.0012.0026-.0075.0057-.0114.0023-.0026.004-.0041.0023-.0087.0056L8.6259,16.8l-.0041.0009-.0039.0029-.01.0039-.0062.0069c-.0005.007-.0208.0007-.0162.01l-.0118.0047c-.0008.0038-.0081.0031-.0059.0076l-.0091,0,.0015-.0026-.012.0048-.0027.0062-.008.0006c-.006,0-.0079.0029-.0114.0029-.0051-.0006-.0077-.0051-.0138-.0051v-.0027l-.0065.0027H8.4982L8.49,16.8419,8.4872,16.84c-.0046-.0005-.0076.0033-.0117.0041l-.0042-.0045.0041-.0045-.0131-.0038H8.4542l-.005-.0036-.01-.0083c-.0058-.0059-.0023-.0094-.0046-.0164l-.0089-.0039L8.4218,16.79l-.0015.003-.0039-.001v-.0062l-.0057-.0169v-.011l-.0052-.0062c-.0015-.0041.0018-.0037.0028-.0074l-.002-.0091.0018-.004-.0025-.0032c-.001-.0027-.0026-.0059.0019-.0067l.0019-.0161a.0331.0331,0,0,1,.0013-.0168l.0044-.0051.0021-.0077.0066-.014.0015-.0126.004-.004.0013-.006.0063-.0081.006-.01a.0179.0179,0,0,0,.0037-.0122V16.596l.01-.0079.0074-.0075a.0864.0864,0,0,1,.02-.0292l.0151-.011a.0408.0408,0,0,0,.0138-.0145c.0035-.0077.0109-.007.0172-.0115L8.5478,16.5c.011-.0094.0217-.019.0335-.0281l.0118-.0094.0137-.0069.019-.0112.0125-.0044.0112-.0061.0224-.0084h.0127l.0022-.0046.0073-.0006.0121-.0029a.0672.0672,0,0,1,.0114.0008c.0075-.0008.0142-.0048.0222-.0017l.0022.0032.0035-.0032.01.0027.0053.0011.0029.0025a.0144.0144,0,0,0,.011.0037l.001.0035c.0078-.0048.0079.0028.0108.009l.0041.0083.0015.0089.0052.0065v.0056l.0021.0043.0036.0084.0018.01c.0082.003.0085.0071.0091.0157,0,.0039.002.0133.0077.0126V16.53c.002.01.0069.0187.001.0287l-.0043.0055v.01Zm-.1831.9688c.0032.0053.0052.0148.01.0189l.0053.004-.0083.0117-.0038.02c0,.0076.0078.0109.0085.0176l-.0062.0176c-.0037.0108-.01.0176-.0137.0285l-.0033.017.0047.0065-.0014.0092a.0972.0972,0,0,1-.002.0269c-.0031.009-.0065.01-.0049.02.0006.0043.0037.0061.0026.0121s-.0053.0056-.0067.009c-.0038.0093.0027.015.0021.0245l-.0069.0237-.0048.0233c-.002.0064-.008.0113-.01.0177a.0941.0941,0,0,0-.0006.0243.4032.4032,0,0,1,.003.0491l-.0047.0236a.0787.0787,0,0,0-.0008.0247V18c0,.008.0027.0168,0,.0223l-.0083.0075c-.0028.0051,0,.0065-.001.0116a.0654.0654,0,0,1-.0053.0341l-.0051.0058a.0472.0472,0,0,0-.0015.0258.1466.1466,0,0,0,0,.0265.0545.0545,0,0,1-.0006.0254.0912.0912,0,0,1-.0057.023l-.0046.0107c-.0007.0045.0017.0105,0,.0145H8.5612a.0615.0615,0,0,0,0,.027c.0009.0086-.0059.0124-.0073.0212s.0015.0166.0007.0266c-.0009.0079-.0063.0147-.0063.0227l-.003.0281-.0012.0129a.0262.0262,0,0,0-.0026.0123.121.121,0,0,1-.001.0269l-.0026.0122-.004.01a.2369.2369,0,0,0,.0013.0279l.0027.0008v.0078l.0007.0084-.0027.0066-.0059.015.0013.0053.0031.0149c.0028.011-.0018.0168-.0051.0268.01.0095.0032.0269.0069.0381.0074-.0009.0007.0106,0,.0136l-.0025.0163a.041.041,0,0,1-.0048.0181l-.0053.0127v.0017c-.0016.0056.0018.0059.0029.01a.019.019,0,0,1-.0025.0123.086.086,0,0,0-.004.0271l-.0025.0143c0,.0058-.0029.0069-.0048.0112-.0041.0086.0017.0186-.0018.027a.1689.1689,0,0,0-.0138.025.0524.0524,0,0,0-.0008.0181c.0008.009-.003.0073.0053.0066.0111-.0011.0243-.0119.0234.0073a.0526.0526,0,0,0-.0061.018l-.0037.0072-.0091.0012a.0145.0145,0,0,1-.0133-.0111c-.0072.0057-.0028.0189-.0079.0257s-.0156.0043-.0206.0021c-.0108-.0045-.0082.0035-.0148.0115a.1749.1749,0,0,1-.03.0277L8.4,18.8734a.0592.0592,0,0,0-.0168.0147.1277.1277,0,0,1-.02.0143c-.0118.0075-.022.0131-.034.0193l-.02.01-.01.0045-.0074.0084c-.0063.0024-.0174,0-.0249.0024l-.0114.0045L8.2433,18.95a.1251.1251,0,0,1-.0476-.009l-.021-.0087-.01-.0045c-.0035-.0031,0-.007-.0067-.0093,0-.0047-.0087-.01-.01-.0173l-.0067-.02L8.1335,18.86c-.0015-.008.0044-.0161-.0024-.0224.0047-.0063,0-.0237,0-.0326v-.1076c0-.0167.0044-.033.0044-.0494a.08.08,0,0,1,.0013-.0223.0545.0545,0,0,0,.001-.0224.1267.1267,0,0,1-.001-.0246.1309.1309,0,0,0,.0034-.0248c-.0016-.03.0044-.0586.0044-.0886a.2546.2546,0,0,0,.0011-.04l-.0042-.0014.001-.011c.0023-.0166.0034-.0324.007-.049a.4727.4727,0,0,0,.0089-.0472c.0012-.01-.0037-.0177-.0033-.025s.0054-.0145.0048-.0227c-.0007-.0054-.0167-.0488.0039-.0334.0048-.0114,0-.0261.0037-.0376l.0009,0a.0556.0556,0,0,1-.0018-.0335c.0006-.0072.0034-.0276,0-.0314a.2932.2932,0,0,0,.01-.0923.0888.0888,0,0,1,0-.0163l.0024-.02.0034-.0424c0-.0061-.0045-.0168-.0032-.0216.0018-.007.0086-.0064.0065-.0164-.01-.0054-.0018-.05-.0011-.06a.42.42,0,0,0,.0069-.05c-.001-.02.0043-.0374.0033-.0579A.284.284,0,0,1,8.2,17.7014c.0028-.0173.0127-.03.0035-.046l.0016-.0031c.0083-.0009.0074-.0277.01-.0352l.0126-.0315c.0124-.0283.0222-.0562.0354-.0838a.2437.2437,0,0,1,.0249-.038c.0073-.0094.017-.0254.0286-.0294.0009-.0071.011-.0145.017-.02l.009-.0088.0142-.0045-.0039-.0031a.0533.0533,0,0,1,.0229-.015A.1814.1814,0,0,0,8.4,17.3656a.3063.3063,0,0,1,.083-.0381.1423.1423,0,0,1,.05-.0091l.0285.0029a.1417.1417,0,0,0,.02.0052c.0029,0,.0034.0062.0175.0162a.06.06,0,0,1,.0152.0177.1106.1106,0,0,1,.0112.0334l.0065.0188.0053.01v.0026c-.01,0-.0089.0216-.0037.0257.0095.0075.0088.0209.0242.0209.0013.0108-.02.004-.0259.0109a.0573.0573,0,0,0-.0043.0329A.0778.0778,0,0,0,8.6385,17.5462Zm5.6824-1.0393L14.31,16.51a.02.02,0,0,1-.0014.0126l-.006.0094c-.0009.0042.0012.0067,0,.0108l-.0035.0047-.0023-.0051c-.0051-.006-.0134.0087-.01.014h.0018l0,.0014-.0082.0058.0005.0077-.0042.006c-.0009.0044.0068.01.0042.0132-.004.0051-.007-.0029-.0084-.0049h-.0044l-.0021.005-.0039.01-.0064.012c-.0035.0074-.0079.0072-.0126.0157s-.0105.0156-.0158.0234c-.0028.0042-.0089.0045-.012.008l-.01.0074c.0039.0076-.0051.0083-.01.0111l-.0088.0117-.0077.0041a.2155.2155,0,0,0-.0412.029l-.0221.0131c-.0074.0034-.0357.0185-.0417.0227l-.0184.0093a.3219.3219,0,0,0-.0447.0161c-.0126.0062-.0253.01-.0386.0155-.009.0036-.0185.0036-.0278.0069-.0179.0063-.0365.0108-.0541.0168-.01.0032-.02.0049-.03.0074l-.0276.0093c-.0183.0056-.0373.01-.0552.0173-.0109.0042-.0515.0152-.0592.0186l-.0257.0092a.483.483,0,0,1-.0559.02l-.0179.0065-.02.01c-.0053.0029-.0121.0018-.0174.0041l-.0174.0078-.0169.0051-.0167.0079-.0128.0038-.0116.0068a.1408.1408,0,0,1-.0241.01l-.0212.0089-.0106.0052c-.0023.0009-.012.002-.0077.0064h-.0113l-.0093.0065-.0216.01-.0206.0082-.0215.0095-.0233.0111-.025.0081-.0093.0063-.0093.0058a.2345.2345,0,0,1-.0218.01l-.0009.0029h-.0037l-.0068.0029-.013.0065a.1017.1017,0,0,1-.0234.0109.1264.1264,0,0,0-.03.0152l-.0224.01-.0115.004c-.0047.0018-.0058.0057-.0115.0095s-.0133.0046-.0194.0081l-.0107.0069-.02.0117-.0111.0037-.0083.0065-.0007-.0021-.0186.01-.0084.0064-.01.0023-.0185.011-.0049.0013-.0021.0035-.0106.0017c-.0014.0053-.002.0042-.007.0064l-.0077.005-.0274.012-.0072.0043-.0125.0049-.0023.0041-.0086.0023a.0255.0255,0,0,0-.016.0106.0781.0781,0,0,0-.03.0141l-.0222.0109-.0211.01-.0242.0131c-.0086.0051-.0195.0075-.0276.0128l-.0046.0044-.0072.0023-.0084.0062-.0213.0107-.0228.0118-.0062.0023-.0039.0043L12.7,17.35l-.0063.0083-.01.0051-.02.01-.0093.0047-.0085.0063c-.0047.0029-.0158.007-.0184.0121l-.0195.0041c-.006.0017-.0064.003-.0083.0081-.0051,0-.0082.0042-.0121.0062a.1606.1606,0,0,1-.0271.0122l-.0088.0061-.0223.01-.01.0091-.0211.0114-.0116.0053-.0088.0074-.0081.0027-.0061.0054-.01.0065-.0092.0016-.0142.0081-.0059.0044-.0083.0029c0,.0055-.0129.0086-.0171.01l-.0086.006-.0089.003a.1294.1294,0,0,0-.0226.0129l-.0206.0114-.0085.0063-.02.01-.009.0065c-.0143.0062-.0288.0143-.0428.0221l-.0237.0137-.012.0046-.0083.0073a.0853.0853,0,0,1-.0234.0121.0321.0321,0,0,0-.0172.0112l-.0094.0058-.012.0034-.0026.0048-.0061.001-.01.0058-.0135.0057-.0109.0079-.02.0131-.0108.0054-.0084.0059-.0129.0044-.01.0082-.01.0041-.0079.0075a.08.08,0,0,1-.0213.0107L11.99,17.75a.07.07,0,0,1-.0211.0107l-.0236.0143c-.0074.0042-.0155.0064-.0228.0109l-.0245.014c-.0147.009-.0294.02-.0447.0276-.0081.0037-.0158.01-.0231.0127s-.0107.0082-.0173.0123c-.0145.009-.03.0162-.0445.0247l-.0229.0133-.0094.0071-.0054.0037-.0079.0013-.0042.0049-.0044.0022-.01.0063-.0078.0072c-.006.0037-.0138.0045-.02.0083l-.0227.0132-.02.0127-.0082.0064-.01.006-.019.0117c-.008.0042-.0131.0051-.0186.0124l-.0182.01c0,.0073-.0067.0055-.0112.0083l-.0046.006-.0061.0034-.0233.0137-.0011.0027-.023.01-.0078.0081-.0112.0034-.005.0051-.0045.0023-.0092.0066-.0083.0057c-.0034.0012-.0083.002-.0077.0065l.0046.0041c0,.005-.0076.0039-.0114.0039l-.0114.0019-.0107.0049-.0036.0046.0012.005-.0122.0042-.0111.0038a.11.11,0,0,0-.0225.0137.0947.0947,0,0,1-.0189.013l-.01.0063-.0076.0066a.0753.0753,0,0,0-.02.0111l-.009.0063-.0085.0043c-.0059.0045-.0133.0066-.0172.0131-.005-.0048-.0174.013-.0217.0146l-.0061.0014-.0052.0037-.0056.0042-.0051.0036-.0042.0035-.0038.0037h-.003l-.01.007-.0008.0043-.005.0011c-.0041,0-.009.005-.0115.0073l-.007.0057-.006.0047v-.0018l-.0076.0048-.0029.0019-.0014.0026-.0032.0006-.0025.0014-.0042.0026-.0009.0022-.0021.0017-.002.0053-.0058.0017c-.0032,0-.01.0031-.0055.0064H11.13l-.0055.003-.0059.0035-.0049.0043-.0042.0032-.0021.0013.0015.0016c.0018.0044-.0011.007-.0039.01l-.0063.01-.0044.0035-.0042.0041c-.0053.0019-.0118-.0013-.0166.0025l-.0027.0081-.0107.003-.0046.0064c-.0046.0009-.0047-.0015-.0076-.0037l-.0054.0087.0017.0008a.0242.0242,0,0,1-.01.0121c-.0042.0024-.0073.0016-.0088.0069l.0012.0065.002.0019-.0006.0026.0039.0035-.0013.007-.0033.0071v.0085c-.0017.0043-.006.0052-.0067.01-.0011.0078.0053.0036.01.006l.0009.0054-.0015.0061-.0048.0022-.005-.0006-.001.0046.0048.0023.0009.0094-.0035.0108v.0082l.0037.0061-.0013.0061v.009l-.003.0045-.0008.0057c.0007.0036-.001.0105.0047.0088l.0057-.0024.0025.0051-.002.0061-.0045.0045-.0026.0064-.0048.0042-.0038.0044-.0041.0046v.0063l-.0006.0037-.0022.0018.011.0057.0032-.0034.0027.0048-.0047.01-.0017.0142-.0012.0061-.0038.0048-.0033.012-.0041.0034.0031.0043.0057.0009.0036.0025.0009.0056.0055.002v.0254l-.0041.0078-.0022.0059-.0022.0084-.0037.0054.0042.005-.0028.005-.0008.0077-.0051.0035-.0007.0064.0038.0049c.002.004-.0019.0077-.0027.0112l.01.0035.0022.0012.002-.0007.0006.0042-.0051.0063.0032.0073-.0086.0043-.0019-.0068h-.0066c-.0042.0014-.0047.0075-.0028.0114l.0042.0054v.0056a.0122.0122,0,0,0,.0042.0113l.0035.0051.004.004-.0015.0116-.002.0024v.0032l-.0017.0071-.0038.0044-.0026.0057.001.0145c.0027.0026.01.0017.01.0066l-.0031.0055-.0008.0079.0039.0048-.0012.0072-.0038.0058-.0023.0075-.0032.0026-.0006.004V18.9l.0038.002.0021.0079c-.0017.0036-.0069.0009-.0059.0065l.0012.0056.0013.0035.0034.0027-.0017.0047-.0028.0031-.0012.0045.0012.0082-.001.01v.0109l.0014.0037-.001.0048v.0114a.0557.0557,0,0,1,0,.0129l-.0014.0033-.0007.0045.0047.006.0036.0016.0006.0047-.0025.008-.004.0067-.0009.0058-.0033.0022.0058.0038.0015-.0027.0028.0023.0035.0062h.003v.0031l-.0018.0032-.0025.0018-.0011.0073v.0034l.0042,0,.0031.0027-.0017.004-.01.001-.0075.0046.0035.004-.0014.0042-.004.0019-.0015.0043-.0005.0049-.0037.0013v.0006l.0025.0032.0035-.0013.0037-.0029H11.01c.0045.0011.0017.0043,0,.007l-.001.0094h.0031v.0092l.0018.0047-.0008.006-.0014.0039-.0017.0023.0031.0019.0014.003.0038.0017-.0066.0014-.0024.0039v.0075l.0012.0032.0016.0009v.0023l-.0007.0039-.0026.0033-.002.0113.0008.01.0014.0039v.0022l.0015.0007-.0008.0025-.0022.0032-.0029.0029-.0035.0016.003.0017.0046.0041.001.0026.0015.0009v.0037l-.0038.0021v.0137l.001.005.0006.0038-.0018.0043v.0147l.0014.0046v.0149l-.0022.0039-.0048.0013L11,19.305l.0056.0018.0009.0094a.09.09,0,0,0,0,.0127c0,.0038,0,.0112-.0041.0131L11,19.3433v.0091c-.0006.004-.0051.0007-.0063.0032V19.36l.0033-.0007L11,19.3563l.0036.0021.003.0079-.003.0033L11,19.371v.0045l-.0008.0037c.0007.0044.0042.0045.0067.0069l.0028.003.0036.002v.01l-.0014.0042-.0017.0036v.0041l-.0018.0045-.0017.0036-.0007.0044-.0026.0075-.0041.0058.0026.0029.0041-.0007.001.003-.0027.0038.0051.0011c.0055.0025.0011.0063-.0005.01l-.0067.0119-.0022.0115c.0049.0039.006-.0052.0077-.0076l.0043-.0035-.001.0051-.0054.0092-.001.0069-.003.0046.0048.0018.0038-.0036-.0056.008-.003.003.0035.0023.0054.0025.0021.0031c-.0035.0024-.0088.0012-.007.0084l.0025.0052.0041.0037h.006l.0007.0049-.0122.0031-.0112.0036-.0041.0051-.0006.0064-.0015.0038.0006.0035-.0042.0042-.0027.004.0036.0041c.0034.0032-.0036.01.0021.0116h.0066l-.0013.0055-.0073.0061-.0031.0041.0031.004.002.005.0016-.0049.01.0021c.0014.0052-.0065.004-.0065.0075.0055.0021.01-.0084.0142-.0066l.0043.0051.0018.0075.0022.0051-.0022.0054-.0012.0059-.0043-.0031-.0118-.0034-.004.0033c-.0033.0015-.008.0015-.0054.0059l.0068.0071.002.0051L11,19.6565l.0105.005c.0038.0033.0021.007-.0026.0079l-.0127.0018c-.0023.0046.0039.0083.0066.01l.0063.0025.0007.0032.0017.002c.0021.0043-.0045.0068-.0034.0111l.007.0024v.0062l-.0094.0061L11,19.7177h-.007l-.0118-.0013c.0005.0054.0067.0031.01.0031h.0142l.0008.0047-.007.0009-.0038.0034c-.001.0046.0013.0032.0037.0032.0043.0006.0043.0075.0033.0106l-.0066.0106-.0047.0038-.0053.006c-.0041.0028-.0071.0056-.002.01l.0048.004.0011.0068c.0034.0009.0084.0016.0067.006l-.0025.0034v.0047l.0005.0071H11l.0053-.0027.0013-.0056.0028.0015-.0031.0045c-.0008.0042.0038.0083.0017.0123s-.0091.0014-.0081.0056l.007.0053-.0006.0082.0072-.0037c.0013-.0024.0014-.0076.0055-.0057l-.0029.0034-.0026.0121c-.0026.0041-.0065.0043-.0059.0095s.0048.0043.0071.0013l.0067-.0091c-.0048-.0027-.005.0073-.0058.0092l-.0009,0-.0043.0059-.0132.0006-.0048.0125-.0047.0039-.0021.0052c-.0019.0018-.01.0051-.0027.0068l.0052.0023.0021.0062-.0021.0106c.0019.005.0091.0015.0119.0041L11,19.92c0,.0068.005.0043.009.0068l.0037.01c-.0037.0034-.0263-.0044-.0258.0034.0005.0056-.0072.0068-.0043.0131.0017.004.0081.0071.0081.0116,0,.006-.0088.0034-.0081.0095l.0047.0058.0015.0065.01.0013.007-.0073c0-.0035-.0057-.0058-.0017-.008s.0088.0019.0078.0046l-.0033.0034-.0005.0062.0017.011-.0006.0049.0055.0018.0093.0038-.01.0075c-.0064.0018-.0219-.0027-.0171.0084l.0042.0052v.0055c.001.0057.0037.0045.0068.0078a.026.026,0,0,1-.0031.0217c-.0026.0031-.01.0062-.01.0112s.01.009.0143.011l-.0026.0116c.0048.0024.0074.0033.0113,0,.0051.0049.0032.0066,0,.0112l.0039.0011c.0035-.0035.017-.0092.0162.0008l-.0026.0052-.0046.0044-.0026.0006-.0009.0028-.0046.0021c-.0062.0051.0085.0175-.0039.0232-.0041.0013-.0078.0056-.0041.01l.01-.0008c.0111-.0032.026.0022.016.0068l-.0036-.0011-.0035.0017-.0041.004c-.0024.0033-.0007.005,0,.0095l.0013.0106.01.0035.0058-.0008-.0005.0068c-.0017.0044-.0053.0048-.0081.0075-.0107.01.0073.0082.0114.0129.0067.0084-.0124.0054-.0086.0154l.0116.0016-.0041.007-.0011.0072.0011.0089c.0015.0041.0028.0029.0015.0079l-.0026.0027v.0046c-.0029.0093-.0105-.0016-.0011-.0029.001-.0127-.0171-.0118-.019,0-.0015.0078.0035.0077.0085.0112a.01.01,0,0,1,.0016.0125l-.0066.0074v.0036l-.0006.0044-.0026.0028-.0012.0039-.0035.0049.0083.0041v.003l.0012.0011v.0043l-.0013.004.0049.0011.0064.0068.0028.004h.0062c.0045-.0022,0-.0057.0009-.0083l.0046-.0035.0045-.003c.0045-.0006.0027.0053.0027.0077l-.0025.0035-.0014.0041h.0058l.0028.004.004.0023-.0008.0043-.0009.005-.0027.0031v.0075l.0033.003-.0023.0026-.0021-.0038-.0023.0026.0029.0034v.0021l.003.0006.0023.01.001.01.0021.0087.0033.0014.0008.0031c-.0008.0049.0063.0009.0032.0068-.0015.003-.0062.0031-.0043.0072l.0052-.0012-.0007.007.0092.0006c-.0017.001-.0061.0057-.0012.0057l.0057-.0047c.0051.0042-.0034.0042-.0042.0068l.0069.0067-.0092.01.0007.0058-.0051.0045-.0092.0088c-.0016.0055.0044.0069.0075.01-.0047.0036-.0077.0026-.0133.0026a.066.066,0,0,0-.016.001c-.0043.0015-.0166.009-.0029.0106l.0046.004c.0029-.0028.0009-.0118.0082-.01l.0126.0085.0031-.0013.0009.0007a.0293.0293,0,0,1-.0123.0094c-.0057.0017-.0136-.0044-.0171,0l.0017.0064.0029.0025-.0036.0014c-.001.0054.002,0,.0051.0027l-.0018.0063-.0055.0033.0016.0054.0006.0068.0047.0051c.004.0062-.0011.0037-.0022.009l.0036.0123c.0014.0053.016.011.0214.01.0132-.0032.0016-.0135.0054-.02l.0067.0043c.0023.0044,0,.0025-.0015.0053a.0272.0272,0,0,0,.0015.0184c.0011-.0032-.0015-.0108.0044-.0073.0032.002.0029.0052.0074.006-.0024.0065.0027.0031.0057.0052s.0016.0061.0058.0071l-.0079.0074-.0057-.008c-.0076-.0051-.012.0064-.0166.0089.0066.0084.01-.0083.0166.0011.0027.0036.0045.0114.0107.0114l.0083.0045.0092.0031c.0033.0055-.0025.0136-.008.0142.0005-.0034.009-.0106-.001-.0116-.0063-.0008-.0139.0062-.0039.0074l-.0056.0054-.0086-.0012.0058.003c-.0046.0054.0044.0063.0054.0089.0026.0063-.0072.0052-.01.0052l-.0012.01L11.092,20.68l-.0068-.0058c-.0007-.0023.0022-.0069-.0036-.0057l.001.0055-.0026.0014.0045.0039-.001.0063c.0027.0055.0091.0024.0117.0012l.0048-.0017.0054.0037c.0016.004-.0046.0105.0033.0105.0006.0053-.0054.0015-.0087.0027l-.0042.0039h-.0039c-.0047.0033-.0029.0033-.0015.0081.0011.0025,0,.0072.0049.0072l-.0029.0039.0122.0027c.0013.0013,0,.0106.005.0043l.0014.0009-.0038.0061.0073-.0061c.0056.0041-.0012.0082-.0026.0123-.0023.0056.0049.007.0049.0083l-.0044.0062.0068.0045.0013-.0052.0073.0056.0108.0006c.0014.002-.0045.0085.0023.0072l.0046-.007c.0033.002.0021.008-.0015.0125-.0067.0012-.0119.0093-.0137.01-.0122.0062-.0064.0072-.0041.013l-.0021.0082-.0077.0008.0068.004c.0023.0018,0,.0054.0057.0044.0044.0093-.0128.0048-.0156.0067l-.0032.0094-.0042.0089.0021.0119.006.0019.0037.0023a.0993.0993,0,0,1,.0214.007L11.13,20.87l-.006.006h-.005l-.002.0039-.0107.0014-.0016.0042-.0024.0036-.0044.0079-.0078.017-.0026.0112-.0048.0087-.0157.02-.008.0082-.0085.0079a.6585.6585,0,0,1-.0591.04l-.0124.005-.0092.0076-.0125.0019-.0131.0048a.1414.1414,0,0,1-.0476.0042l-.0444-.0007a.1973.1973,0,0,1-.0286-.0053.3272.3272,0,0,1-.052-.0156.0984.0984,0,0,1-.0225-.01l-.0188-.0123a.1094.1094,0,0,1-.0222-.0167L10.7,20.9622l-.0111-.0092-.0107-.0134a.1135.1135,0,0,1-.01-.0222l-.0035-.0045-.0014-.0055-.0042-.014-.01-.0248-.0028-.01-.0019-.0134h-.0033l-.0035-.0227-.0044-.0113v-.006l-.0038-.0022-.002-.0131-.0019-.0131-.0008-.0142-.0028-.0052,0-.006.0019-.0025-.0017-.0021-.0016-.0057-.0007-.0134-.002-.0252a.067.067,0,0,0,.0007-.02.0843.0843,0,0,0,0-.0174l-.0035-.0095.0038-.0057c.0017-.0041,0-.0117-.0048-.0129a.1607.1607,0,0,0,.0023-.0373l.0043-.0142L10.62,20.572l.0013-.0114c0-.0089-.0028-.0176-.0021-.0262a.2345.2345,0,0,0,.0042-.0353l-.0013-.006.0011-.0052-.0015-.0124c0-.0049.0024-.0078.0028-.0119s-.0017-.008-.0011-.0127l.0011-.0268c0-.0065.0029-.0226-.0022-.0265l.0027-.01a.0734.0734,0,0,0,.0011-.014.2322.2322,0,0,1,0-.0236.1544.1544,0,0,0,.0013-.0225.0956.0956,0,0,1,0-.0239l.0022-.0265-.0012-.0135V20.25c.0012-.0038.0039-.0048.0039-.01a.12.12,0,0,1-.0005-.0134.0578.0578,0,0,0,.0027-.0211l-.0032-.0092c0-.0041,0-.0079,0-.0117l.0016-.0259c.0007-.0087,0-.0181,0-.0274l.0007-.0273c0-.01.0027-.0177.0034-.0266l-.0018-.0124a.0585.0585,0,0,1,.0017-.0172.0971.0971,0,0,0,.0049-.0251.04.04,0,0,0,0-.0138c-.0015-.0047-.0053-.005-.0036-.0108l.0042-.01a.0683.0683,0,0,0,0-.0143.2081.2081,0,0,1-.0014-.0273A.1218.1218,0,0,0,10.64,19.92a.159.159,0,0,1-.0017-.0267l.0012-.0135.0045-.0173v-.0213A.276.276,0,0,0,10.639,19.8l-.0028-.0113.0013-.0134a.1856.1856,0,0,0,.001-.0269c-.0005-.0094.0043-.0153.0043-.0242l.001-.02.0028-.0188a.1144.1144,0,0,0-.0038-.0247l.0038-.0107a.0332.0332,0,0,0,0-.0133l-.0023-.0119-.0058-.0105v-.0127c.0028-.0048.0056-.0012.01-.0022a.133.133,0,0,0,.002-.0289l.0025-.0063-.0045-.0044.0022-.0069v-.0078c0-.0038.0018-.0118-.0028-.0132l.0028-.006L10.65,19.524h-.0013c-.0008-.0077.0023-.0152.0008-.0214a.0777.0777,0,0,1,.0007-.021V19.46c0-.009,0-.0185.0008-.0271a.0852.0852,0,0,1,.0015-.0189c.0021-.0048.0034-.006.0009-.0113l-.0039-.0116.0024-.0119v-.0136a.073.073,0,0,0,.0006-.0132l-.0023-.0107c0-.009.0013-.0193.0013-.0283l-.0018-.0053.0028-.0039a.0284.0284,0,0,0-.001-.0126c-.001-.0042.0011-.0083,0-.0127l-.0027-.0112.0035-.0112a.0377.0377,0,0,0,0-.0142.1409.1409,0,0,1,.0006-.043l.0017-.0011a.0657.0657,0,0,0-.0014-.0246c0-.0092-.0015-.0187-.0009-.0276a.1883.1883,0,0,0,0-.0281l-.0018-.0129c0-.0042.0018-.0083.0012-.0128a.2222.2222,0,0,1,.0006-.0258c-.0006-.0093,0-.0186,0-.0276s.0006-.0149,0-.0245.0005-.0191-.0006-.0286L10.65,18.98l.002-.0054a.0547.0547,0,0,0,0-.014c-.0006-.0093,0-.0187-.0014-.0276s.0016-.0176,0-.0257l.0015-.0113a.0969.0969,0,0,0-.0019-.024l.0014-.0108c0-.0069-.0038-.0151-.0018-.0212l.0024-.001a.1033.1033,0,0,0-.0012-.0272c-.0008-.0092.0006-.0173,0-.0267-.0012-.018.0027-.0361.0015-.0532l-.0027-.0106.0044-.0114a.088.088,0,0,0-.0021-.024v-.0118l.0018-.0073.0019-.0128c.0019-.0061.001-.0058-.0006-.0112l.0006-.0126-.0014-.001c-.0056.0029-.0127.0032-.0176.0073l-.0027.0039-.0038.0017-.011.0047-.0157.0086-.0163.0109-.0107.0049-.01.0064-.02.0132-.0213.0136-.0156.0106-.0118.01-.0191.0124a.0728.0728,0,0,0-.0172.0141.0428.0428,0,0,1-.0177.0129l-.0083.0075-.0078.009-.0112.0045-.0083.0092c-.0068.0067-.0161.0088-.0224.0167a.0817.0817,0,0,1-.02.0156c-.0044.0025-.0132.012-.0187.0112-.0032-.0064-.0052.0069-.0074.009l-.0139.0095L10.31,18.87l-.01.01-.0114.0077-.012.0063-.0062.0085-.01.0058-.0094.0066-.0064.0077-.0084.0062c-.0031.0027-.009.0031-.009.0077l-.006-.0006-.0029.0046-.0085.0068-.0047.0036-.0063.0016-.0075.0092-.0171.0145a.0545.0545,0,0,1-.0177.0124l-.01.0062c-.0026.0038-.0019.0049-.0072.0069l-.0063.0016-.0039.0052-.0211.0166-.01.01v-.0009l-.0032.0043-.0105.0039-.0095.0078.0006-.0007c-.0052.007-.0122.008-.0188.0135l-.0174.0147-.017.0125-.0089.0071-.01.0065a.4822.4822,0,0,1-.039.0318c-.007.0056-.0129.0121-.0207.0173l-.0075.007-.0048.0044-.0055.0019-.0049.01-.0074.0022-.0057.0041L9.9,19.189l-.0078.009c-.004.0026-.0061.0016-.0089.0059l-.0082.0069a.0926.0926,0,0,0-.0192.0155l-.02.0155-.0124.01-.007.0089-.0068,0-.0035.0039-.01.0073-.0206.0178-.0082.0079-.0052.0029-.0033.0044-.01.0073-.0143.013c-.005.0035-.0116.0049-.0156.01a.17.17,0,0,1-.0206.0183l-.019.0139-.0194.0163-.0125.0069-.0029.0048-.0057.0017c-.0072.0038-.0125.0123-.02.0168a.4483.4483,0,0,0-.0361.0282c-.009.0069-.0157.0157-.0244.0227l-.0248.0151c-.0048.0025-.0053.0078-.01.011a.408.408,0,0,0-.0386.0309l-.02.0161-.02.0175-.01.0058-.0076.008a.12.12,0,0,1-.02.0168.0877.0877,0,0,0-.017.0152c-.0094.01-.0232.0155-.0324.0255-.0043.0049-.0107.0071-.0148.0113l-.0007-.0018-.0108.0111-.0128.0087-.0082.0065-.0073.008c-.0053.0055-.0139.0069-.0187.0125l-.0064.009-.0112.0069-.009.0065-.0052.0093-.0115.0047-.01.0081a.08.08,0,0,0-.0176.0141l-.0049.01-.01.0087-.0149.0167-.0108.0064c-.0055.0018-.0045.0021-.0075.0076-.0036.007-.01.01-.0151.0153l-.0138.0169-.0035.0094-.011.0093-.016.0145-.0074.0079L9.09,19.87a.045.045,0,0,0-.0138.0159.0123.0123,0,0,1-.0081.0083c-.0031.0014-.0074.0014-.0074.0067-.0064.0018-.01.0087-.0154.0118l-.0167.01a.0528.0528,0,0,0-.0169.0115c-.0106.0145-.0208.0151-.03.0245a.1539.1539,0,0,1-.019.0213l-.0126.0094-.0075.0111-.01.0107-.0089.0058-.0035.004-.0009.0057-.0128.0081c-.0071.0059-.0058.0119-.0117.0182l-.0116.0072c-.0055.0038-.0052.007-.01.0127l-.0148.0157L8.85,20.095a.064.064,0,0,0-.0323.03.088.088,0,0,1-.028.0394l-.021.0137-.0141.016-.0053.01-.008.0064c-.0079.0049-.0073.0113-.0138.0171a.0949.0949,0,0,0-.0166.0169l-.0078.0062-.0075.0086-.0035-.0018c-.0052.0049-.0057.013-.0115.0171l-.0077.0051-.0066.0073-.0126.0116-.0145.0182c-.0052.0048-.0121.0076-.0169.0125l-.0059.009-.0078.0075-.0158.0165c-.0025.0046-.0109.0077-.015.0121a.0839.0839,0,0,1-.0174.0157l-.0078.0086-.0089.0065-.006.01-.0068.0018-.003.0035-.001.0032h-.003l-.0037.0032-.0087.006c-.005.0031-.0046.01-.0086.0157l-.01.0136a.09.09,0,0,1-.0153.02l-.01.0094-.0085.007-.0024.0107-.0116.0083-.0071.0091-.0106.0041-.0066.0094-.0082.0069-.0071.0073L8.4,20.5644l-.0079.01-.0074.006c-.0067.0062-.007.0128-.02.0174-.007.0023-.009.01-.0162.0138s-.0083.0085-.0143.0146l-.0137.0172-.0028.0046-.0042.0031c-.01.0087-.0195.0181-.0306.0261-.0078.0053-.0127.012-.02.0175l-.0078.0066-.0064.0079c-.0045.0022-.0064.0005-.01.0052l-.0063.0084-.0142.0171-.0063.0093-.0126.007c-.0035.0032-.0047.0074-.01.01s-.0137.0012-.012.01l-.0072.0079c-.0032.0026-.0059.0009-.0094.0057s-.0024.0048-.0082.0059l-.0112.0014-.0042.0044-.0042.0033c-.0035.0032-.0035.0058-.0089.0068-.0089.0016-.0188-.0013-.0279,0l-.0131.0037L8.07,20.8125c-.0046,0-.0076.0023-.0119.0032a.0285.0285,0,0,1-.0132-.0025c-.0058-.0012-.0091.0021-.0143.0021l-.0054-.0024-.0065.0011A.1587.1587,0,0,1,7.991,20.81l-.0119-.0052-.0137-.0026-.0106-.0055-.0124-.0033c-.0158-.0063-.0286-.0175-.0439-.0231-.0086-.003-.0106-.0134-.0177-.018a.0435.0435,0,0,1-.0149-.01l-.0078-.0175-.0077-.01c-.0043-.0072-.0069-.0175-.0109-.025l-.005-.0124-.0068-.0219-.0045-.015a.1636.1636,0,0,1,.0015-.0168c-.0008-.0132-.01-.019-.0076-.0332.0009-.0061.01-.0252.0061-.03.0025-.0034.0078-.0093.0025-.0119a.0583.0583,0,0,1,.0121-.0259l.0153-.0239.0188-.0241c.01-.013.019-.0266.03-.0387a.2745.2745,0,0,0,.04-.0474.1694.1694,0,0,1,.02-.0223.2847.2847,0,0,1,.023-.0236c.016-.0151.0307-.033.048-.0479.0141-.0125.0265-.0272.04-.0393s.0277-.0239.0408-.0363l.0207-.0177a.1349.1349,0,0,1,.018-.019l.0221-.017.0091-.0131.0107-.01c.0143-.0146.0324-.0258.046-.0415a.4767.4767,0,0,1,.0429-.0374l.023-.0225c.007-.0067.0162-.012.0226-.0192a.5515.5515,0,0,1,.0433-.0432l.0206-.0178.0062-.005.0055-.0037.0082-.0109.0116-.0079.0123-.0125.0111-.0086.0113-.0112a.0953.0953,0,0,1,.0229-.02l.0073-.0027.0019-.0071.0154-.0136c.0053-.0056.0119-.0091.0174-.0141l.02-.0182a.5589.5589,0,0,1,.0469-.0386c.0088-.0066.0151-.0138.0236-.02s.0169-.0123.0246-.0194l.0089-.0109.0143-.0088a.12.12,0,0,1,.0267-.021l.0216-.0178a.1117.1117,0,0,1,.0249-.02l.0059-.0073a.2087.2087,0,0,1,.025-.02l.011-.0085.0117-.0087c.0055-.0035.0058-.0086.01-.0123l.0134-.0071c.0206-.012.0346-.0337.0546-.0465a.5255.5255,0,0,0,.0461-.038l.0233-.0187.0133-.0077c.0037-.0027.0046-.01.0105-.0059.0035-.0044.0055-.0132.01-.0165l.0149-.0089c.0167-.0134.0321-.0293.0491-.041a.0816.0816,0,0,0,.0222-.02l.01-.0115.0077-.0111c.0094-.0029.0169,0,.0225-.01a.0432.0432,0,0,1,.0157-.0146c.0075-.0061.03-.0169.03-.0286.0048-.0021.0034.0037.008.0037-.0026-.0122.027-.0122.0217-.0245a.0618.0618,0,0,0,.0289-.0192c.0116-.0109.0243-.0191.037-.03s.0263-.0212.039-.0334l.0119-.0076c.0061-.002.0066-.0058.0109-.01a.2274.2274,0,0,1,.026-.02c.016-.0123.03-.0262.0475-.0381s.0309-.0278.0489-.0378c.0095-.0052.015-.0129.0232-.017s.0116-.0132.0182-.0189l.0213-.0163.0229-.0149.0188-.0181a.1372.1372,0,0,1,.0227-.015l.011-.0108c.005-.0031.0108-.0036.015-.0072l.01-.01.0114-.01.0092-.012L9.618,18.95c.0086-.005.0146-.0125.0233-.0168v-.0042l.01-.0068.0137-.0054.02-.0142.0193-.0139.0113-.0062c.0026-.0031.0026-.0095.0069-.0095l.0011.0041c.0041,0,.0048-.005.0072-.0074l.01-.0058.0076-.0058a.0426.0426,0,0,1,.0226-.0131c-.0009-.0047.0037-.0065.0073-.0086l.0087-.007.0174-.0137H9.81l.0009-.0046.0122-.005c.0046-.0021.0036-.0065.007-.009s.0085-.0011.0085-.0067l.0179-.0121.0188-.0095.0064-.007.0077-.0054.007-.0074.0089-.0043v-.0021a.3176.3176,0,0,0,.0311-.02A.19.19,0,0,0,9.9676,18.7c.0066-.0062.015-.011.0219-.0176l.0145-.0075c.0062-.0019.0071-.0046.0119-.008l.01-.0088.0127-.0054.0091-.0105c.0041-.0029.0122-.0035.0112-.0095.0075,0,.0083-.0052.0141-.0094l.0177-.0088.0147-.0123c.0046-.0037.0144-.0035.0127-.0115l.0116-.003.0089-.0072.01-.0091c.0041-.0042.0069-.0041.0121-.0063s.0048-.0055.0081-.01l.0113-.0072a.0937.0937,0,0,0,.0219-.0126l.01-.0076c.0041-.0034.0081-.0042.0081-.01a.7156.7156,0,0,0,.0595-.0412.5063.5063,0,0,0,.05-.04l.0457-.0336.0125-.0094.0064-.0038.0048-.0055.0129-.0079.0117-.009.0228-.0166a.2692.2692,0,0,1,.0607-.04l-.0015-.0007.0046-.0023c.0013-.0071.0142-.0105.0191-.015l.0184-.0139.025-.0161a.2221.2221,0,0,1,.02-.0187l.0132-.0072.0123-.0075.0118-.0079.0177-.0081v-.0027l-.0012-.0006v-.0075c.0062-.0025,0-.0042,0-.0079s.0028-.007,0-.011a.0267.0267,0,0,0,.0018-.0125v-.0064l.0034-.0026c.0043-.0059-.001-.001,0-.0066l.001-.0075v-.009l-.0045-.0058v-.0119c.0043-.0024.0084-.001.0069-.0059l-.0054-.01a.0432.0432,0,0,1-.0008-.0164l.0021-.0075-.004-.0057a.0191.0191,0,0,1,.0015-.0155l.0012-.005.0013-.0082a.2564.2564,0,0,1-.0031-.0315c0-.0068.0041-.0258-.0091-.0278h-.0055a.0137.0137,0,0,0-.0125.0035c-.0028.0023-.0093.0072-.0087.0112l-.0148.0063-.0116.0082-.0145.0067c-.0054.0039-.0024.01-.0061.0128l-.0173.0031c-.0044.0019-.0054.0065-.0093.01l-.0062.0037-.0037.0053c-.0058.0027-.01-.0012-.0151.0038l-.0034.0059-.0082.0015c.0006.01-.0089.0077-.016.01l-.02.0057c-.0059.0012-.0183-.002-.0236,0l-.0055.0067-.01.0019.0035.0066c-.0023.0086-.0085.0014-.0138.0013s-.012.0053-.0168.0067-.0143,0-.016.0054c-.0022.0087.0093.0041.0139.0053-.0015.0086-.0139.0019-.0174.0014l-.0108.0022-.0106-.0029-.0063-.0007-.0028-.0038c-.0034-.0015-.0033-.0043-.0084-.0015l-.0019.0051-.0042.0016-.0115.0029a.2533.2533,0,0,0-.0321.0075c-.0111.003-.023,0-.0342.0037l-.0148.0037h-.0177v.0021c-.0084.0033-.0205-.0037-.0284.0008v.0028l-.0051.0009v-.0029l-.0148.0015-.0125-.0023c-.0047-.0005-.01.0017-.0147.0008l-.0142-.0023c-.0065-.0006-.0085-.0039-.0138-.0053l-.0168-.0014-.0126-.004a.02.02,0,0,0-.0138-.0033v.005c-.0063.0011-.0051-.0041-.0076-.0074l-.008-.0068-.0244-.01a.1436.1436,0,0,1-.0365-.0231l-.0024.0037-.0031-.007c-.0048-.0077-.0143-.0116-.0212-.0185a.2109.2109,0,0,1-.023-.0252l-.0106-.0107c-.0036-.0048-.0012-.01-.0041-.0148S9.9306,18.006,9.929,18a.029.029,0,0,0-.0059-.0141c.0047-.0046-.0052-.0151-.0071-.02L9.91,17.9442l-.005-.01-.0006-.012a.2676.2676,0,0,0-.0089-.0427.05.05,0,0,1-.0011-.02c.0005-.008-.0031-.0139-.0031-.0218,0-.006.0018-.0138-.0028-.0185l.0035-.0011a.1106.1106,0,0,1-.0014-.0237c.0013-.0238-.0029-.0456,0-.0656.0017-.0117-.0019-.0236-.0008-.035l.0015-.0159a.55.55,0,0,0,.0007-.056c-.0012-.024.0008-.0467.0008-.07a.0329.0329,0,0,0-.0022-.0167l-.0076-.0132c-.0019-.0073.0076-.0287.0009-.0323a.059.059,0,0,1,.0015-.0162.1645.1645,0,0,0,0-.0172l.0039-.0148.0051-.0159c.0023-.0056.0053-.0069.0053-.0142l.0008-.0179a.372.372,0,0,1,.0024-.0538c.0022-.0178.0009-.0351.0028-.0527a.2193.2193,0,0,0,.0013-.0269l-.0009-.0057.0036-.0039L9.9094,17.24l.0017-.0051v-.0066l.0007-.0129c.0024-.0059.0076-.0094.0081-.0159s-.0016-.013-.0008-.0194l.0025-.0134a.0948.0948,0,0,0,.0055-.0241c.0044-.0009-.0015-.0041-.0023-.0073l.0029-.01.0046-.0209A.4119.4119,0,0,1,9.94,17.06l.0062-.0236.0059-.0236a.0931.0931,0,0,0,.0072-.023l.0062-.0209.0045-.0178.0048-.015.0029-.0073.0066-.009.002-.0123.0048-.01.0034-.0108.0093-.0237.0049-.0094.0038-.0111.0051-.0094.0046-.01.0057-.0095.0039-.004.0013-.0044.0039-.0036v-.0061l.0058-.0092.0079-.0105.0035-.01.0028.0006.0052-.0145.0111-.0136.0085-.0127.0045-.0048c.0013-.0023-.0016-.0047.0026-.0054l.0055-.0092.0135-.0163a.09.09,0,0,1,.0165-.0236l.0072-.014.0052-.0041.0042-.0072.0133-.0151.0068-.0085.0035-.0048.0049-.002.0047-.01.0067-.0093.0155-.0143a.36.36,0,0,1,.0351-.029.13.13,0,0,1,.0379-.0265c0-.004.0088-.01.0127-.0112l.0079-.0022c.002-.0017-.0006-.0061.0045-.0037.002.0086.0054-.0021.0069-.0037l.0058-.0032.0052-.0034.0091-.009c.0036-.0024.009-.0034.01-.0077l.0082-.0059a.0454.0454,0,0,1,.0193-.0082l.0112-.0046.0124-.0026.01-.0049.0108-.004a.0583.0583,0,0,1,.022-.0065c.009,0,.0153-.0041.0245-.005.0059,0,.0042-.0023.0088-.0044l.0129-.0027.0138-.0014.0118-.0027.0131.0012.0114.0029.0106.0012.0107.0042.0112.0029.012.0038.0067.0089.0072.0073.0057.01-.0012.01.0022-.0011.0023.0121.0031.01a.0388.0388,0,0,1-.0019.0247c-.0063,0-.0057.0136-.0057.0184l-.0042.0046.0015,0a.0085.0085,0,0,1,.0053.0109c-.0019.0089-.0109.02-.0109.0253v.01l-.0052.0084-.0018.0193c0,.004-.008.0084-.0115.0115l-.0062.0065-.0018.0075v.009c-.0006.0051-.0061.0037-.01.0037l-.0039.0095-.0029.0085-.0108.0156c-.0018.0054-.0083.0019-.01.0071-.0056,0-.0058.0065-.0094.0089s-.0088.0009-.0118.0049v.0035h-.002l-.0017.0028c-.0034-.0028-.0154.0144-.0185.0194a.0493.0493,0,0,0-.0083.0269h-.0057c-.0011.0126-.0074.0106-.0161.0176l-.0008-.0014c-.005.0021-.0053.0091-.01.0127-.0029.0021-.0124.0076-.0041.0121a.0258.0258,0,0,0-.0037.0163h.0014l-.0093.0137c-.0041-.01-.01-.0009-.0111.0048s.0031.0182-.0069.0167l-.0019.0116c-.0044-.0014-.0076.008-.0076.0119-.01.0032-.0119.0216-.0119.03,0,.0113-.0067.0209-.0067.0313s-.0152.0162-.02.0244l-.01.0248a.0911.0911,0,0,0-.0076.0308.1157.1157,0,0,1-.0072.0279l-.0058.0123-.0026.0129-.0031.0112L10.308,17.1l-.01.02-.0045.013c-.0005.0047.008.0384-.0015.0392-.0048.003-.0035.0072-.0025.0152a.0362.0362,0,0,1,.0017.0146c-.0011.0034-.0026.0018-.0011.0059l.0036.0044c.0021.0048-.002.0119.0066.011a.112.112,0,0,1,.0065.0286c-.0006.0059-.0045.0213-.01.023l-.0018.01-.0044.0073a.044.044,0,0,0-.0006.02c0,.0045-.0028.0079-.0023.0123l.0014.0152a.0644.0644,0,0,1-.0044.0271.1685.1685,0,0,0-.0059.0543c0,.0095.0019.0183.0019.0275a.0619.0619,0,0,1-.0061.0231l-.0063.0088v.0139l.0022.0135a.0289.0289,0,0,1,.0049.0219l-.0044.0095c0,.0038.0069.0039.0069.0086l-.003.0092a.1432.1432,0,0,0,0,.0514.2071.2071,0,0,0,.0125.0532l.0068.0085a.0248.0248,0,0,1,.0041.0152.0555.0555,0,0,0,.0118.023.0925.0925,0,0,0,.02.02l.0125.0084.0155.0053.0126.0045a.0724.0724,0,0,0,.0123-.0006l.0271-.0017a.3545.3545,0,0,0,.0443-.01l.0127-.0066.0143-.0042.0126-.0065.01-.0041.0085-.0064.0108-.0075.0063-.003.003-.0043.0069-.0086.0031.0017.0128-.0108c.0081-.0108.0172-.0193.0256-.0293l.0138-.0157a.2189.2189,0,0,0,.04-.0909l.006-.0269.003-.0112.0012-.013a.2614.2614,0,0,0,.0084-.0542c.0007-.01.0034-.0186.0047-.0275a.2021.2021,0,0,1,.0039-.031l.0052-.0094a.0331.0331,0,0,0,0-.0133.2231.2231,0,0,1,.0043-.0415l.0026-.024.0011-.0226h.0033a.0678.0678,0,0,0,0-.0246l.0031-.0217c.0005-.0084.0042-.0161.0046-.0254s.0029-.0182.0029-.0273v-.0065l.0026-.0043a.062.062,0,0,0,0-.0161l.003-.0307a.1442.1442,0,0,1,.0032-.03.076.076,0,0,0,0-.0315l-.0009-.0123.0042-.0034v-.0055a.1092.1092,0,0,0,0-.0268c-.0042-.0019-.0073.0016-.008-.0031l.0028-.011c.0026-.01.0089-.0008.0118-.0059l-.0005-.0194.0045-.02c0-.0082.0013-.0159.0013-.0239l.0013-.0247.0012-.0141.0023-.0145a.0766.0766,0,0,1,.0009-.0135.0271.0271,0,0,0,.0018-.0132.23.23,0,0,1,.0022-.0322l.0023-.0124a.0726.0726,0,0,0-.0007-.014l.0036-.0259a.1511.1511,0,0,0,.0011-.0277.229.229,0,0,1,.0012-.031l.0009-.0134.0019-.0063-.0028-.005.004-.0122.0015-.013a.2355.2355,0,0,1,0-.0291c.0018-.0041.003-.0049.0018-.01l-.002-.0049.0025-.0055a.0664.0664,0,0,0,.0038-.025.1581.1581,0,0,1,.0006-.0182.1443.1443,0,0,0,0-.0186.1516.1516,0,0,1,.0028-.0336l.0028-.028.0027-.0123a.1428.1428,0,0,0,0-.0185.239.239,0,0,1,.0055-.027c.0014-.0089,0-.0178.0014-.0263l.0037-.0124.0029-.0127a.1.1,0,0,1,.0123-.0252L10.78,16.33v-.0063l.0084-.0095-.0008-.004.0037-.0006c.0017-.0058.01-.0127.0147-.0174l.014-.0137.0161-.0113c.006-.0031.0094-.01.016-.0107l.0044-.0031c.0018.005.01-.0025.0137-.0025l.0018-.0062.0137-.0017.0108-.0045c.0074-.0031.0131-.0076.0207-.01a.1261.1261,0,0,1,.06-.0053.1885.1885,0,0,0,.0336,0,.1.1,0,0,1,.0317.0083c.0168.0065.0359.0092.0468.0259.0042.0066.011.0105.0153.0166l.007.01c.0028.0055.0029.0059.008.0084l.002.0009a.0141.0141,0,0,1,.0061.0191c-.0014.0044-.0042.0063.0013.0085l.013.0023-.0033.0028c-.004.0021-.01-.0019-.011.004s.0055.0059.0074.0089-.0026.0065-.0049.01v.0122a.0469.0469,0,0,1,0,.014l-.0027.0129.0023.0107c0,.0039-.0013.01.0042.01l-.0051.006v.0111c0,.006-.0014.0155.0028.02l.009.0075-.0035.0083-.01.003.001.0132c.0063,0,.0048.0056.0038.01a.0134.0134,0,0,0,.0021.0115c.0041.01-.0011.011-.0059.0127-.0088.0024-.0048.0161-.0048.0247a.0546.0546,0,0,0,0,.014l.0035.01c-.0015.0034-.0061.0041-.0047.0093l.0069.0107c.0052.0111-.0054.013-.01.02s0,.0069.003.01l.0029.0109v.0119l.0044.0124c0,.0048-.0032.0073-.0032.0116v.0059l-.0051.0027c-.0043.0045-.001.0045.0012.0081v.0118c-.0048.0006-.0015-.0054-.0069-.0033l-.0039.008c.0014.0048.0105.0083.0052.0154l-.0056-.0027c-.0042.0027-.0015.0108-.0015.0156s-.0041.01-.001.0142c.0051.0065.0081.0029.0092-.0035.0124.0069-.0074.0124-.0115.0137-.001.011,0,.0216-.001.0327l-.0014.0179-.0038.0166c-.0007.0053.0044.0075.0031.0139-.001.0048-.0079.0067-.007.012l.0054.0059-.0021.0068-.0019.0178c0,.0129,0,.0259-.0014.0382l-.0007.02-.003.02-.0031.0732c-.0018.0271-.0071.0543-.0078.0814-.007,0-.0023.0159-.003.0208l-.0005.0264-.0022.0246c-.0009.0058-.0074.0162,0,.0181l-.0043.0061v.0088l-.0015.0182-.0033.0365c-.0005.0131-.0035.0257-.0028.0387a.0423.0423,0,0,1-.0007.0177c-.0015.0035-.0079.0105.0014.0105.002.01-.0043.0154-.0067.0229l-.0023.0246c-.0013.0089.0014.0181,0,.0266l-.0015.0129c.0029.004.0061,0,.01.0025l-.0063.0059-.005.0105v.0134a.1461.1461,0,0,1-.0022.0349l-.0036.0161-.0008.0088.005.0035-.0044.0062-.0006.0089-.0006.0173a.1609.1609,0,0,0,0,.0184c.0007.0082.0074.0079.0085.0124s-.0018.0055,0,.01l.0026.004-.0015.0062-.0028.0094c.0019.0039.0046.0048.0046.01a.0351.0351,0,0,1-.0083.02c-.0031.0039-.006.0048-.0031.01.0017.0034.0082.0042.0072.0086h-.0072c-.0016.0048-.0046.0235.0031.0235,0,.0027-.011.0132,0,.0107a.0328.0328,0,0,1-.0051.02c-.0041.0083.0051.0077.0059.0154l-.0008.0048.0027.0031-.0015.0082-.0005.01c-.0028.0029-.0058.001-.0058.0064l.0029.0044v.0055l-.0035.0119c-.0042.0078-.001.0164-.0029.0248a.0566.0566,0,0,0-.0036.0251c.0015.0083.0061.0146.0025.023a.0243.0243,0,0,0,.0017.0231.0448.0448,0,0,1-.0019.0235c-.0023.0068,0,.0047.0017.01l-.0025.0111c-.0026.0052-.0013.0062,0,.0113s.0009.0053-.0033.0091c.0021.006.0061.0139.0038.02l.023-.0074.009-.0063.0041-.0049.0047-.0022.0068-.0078.0067-.0024.0047-.0051.0093-.0064.01-.0056c.0035-.0046.0008-.0045.0071-.0059l.01-.0053a.1252.1252,0,0,0,.0211-.0126l.009-.0056.0112-.0077c.0067-.0053.0152-.0079.0227-.0129l.0218-.0119a.0362.0362,0,0,0,.0139-.0074c.004-.0045.0036-.0072.01-.0085l.012-.0025.0115-.0092a.6586.6586,0,0,1,.0659-.0423c.0363-.0224.0725-.043.1082-.0653a.58.58,0,0,1,.0585-.0367c.02-.01.039-.026.059-.0333l-.0025-.0018c0-.0041.0123-.0094.0153-.0114l.0128-.0095.0117-.0041.0137-.0085a.0993.0993,0,0,1,.0217-.014.0706.0706,0,0,0,.0216-.0108l.0215-.0159a.0284.0284,0,0,1,.0168-.0092l.0185-.0071.0215-.0144.019-.0112.0063-.0053.0119-.01c.0055-.0055.013-.0062.02-.0112a.1256.1256,0,0,1,.0233-.0134c.0074-.0032.0162-.005.0234-.0087l.0241-.01a.0471.0471,0,0,0,.02-.0117l.0065-.0078c.0044-.0045.0055-.001.01-.0016.0085-.0009.0128-.01.0185-.0145l.006-.0039v-.0053l.0144-.0073c.0056,0,.0059.0057.01.0057l.011-.0044.0106-.0058c.0054-.0019.0069-.001.01-.0054a.0379.0379,0,0,1,.0185-.013l.0059-.0012.0029-.0047.0058-.0014.0042-.0041.0054-.0032.0063.0007.0071-.0088c.0037-.0042.0049-.0021.01-.0031l.0109-.0068.01-.0048.0105-.0077.0107-.0058.01-.0067.0147-.0059.0163-.0107c.016-.009.0314-.02.0473-.029l.022-.0153c.0046-.0031.0068,0,.0109-.0017l.01-.0065c.008-.004.009-.0112.018-.014a.1168.1168,0,0,0,.0229-.01.3333.3333,0,0,1,.0418-.021.102.102,0,0,0,.0211-.0125l.0234-.0151c.0151-.01.0326-.0169.0487-.0259l.0475-.0262.01-.0061.0117-.0046.0043-.0039.0053.0016.009-.0082a.2274.2274,0,0,1,.0445-.024.4067.4067,0,0,1,.0462-.0266c.0007-.0049.01-.0047.013-.0063l.0127-.0088.0151-.0089.0063-.0024c.01-.0061.0216-.0113.0311-.018l.0113-.0058.0116-.0031-.0015-.0016a.0552.0552,0,0,1,.0187-.0117.3022.3022,0,0,0,.048-.0255l.01-.0051L12.76,16.96l.0246-.0116c.0343-.0168.0642-.0384.0983-.0568.015-.0079.03-.0144.045-.022.01-.0051.0191-.0117.0291-.0162l.0109-.0066.01-.0051.01-.0079.0111-.0058a.15.15,0,0,1,.0189-.0113c.0072-.0041.0108-.0089.0178-.0124a.2838.2838,0,0,0,.0281-.0166l.0088-.0027.0158-.01.01-.0066a.0112.0112,0,0,0,.0064-.0114c-.0008-.0122-.0043-.01-.0092-.0122a.0866.0866,0,0,1-.0244-.012l-.0085-.0082-.0112-.0075a.095.095,0,0,1-.0156-.0179l-.0095-.0109-.0049-.013-.0041-.0114-.0072-.0074-.0051-.011a.0518.0518,0,0,0-.0012-.0136A.0734.0734,0,0,1,13,16.6071l-.0023-.028a.3739.3739,0,0,1,0-.056.1889.1889,0,0,0,.0019-.0271l-.0032-.0128a.0414.0414,0,0,1,.0013-.014.032.032,0,0,0,.0014-.0134c-.0006-.0053-.0032-.0071-.0056-.0118-.0032-.0071.0034-.012.0045-.0185s-.0014-.0109.0025-.0176l.0022-.0086.0005-.0061.0012-.014c.0009-.011,0-.021,0-.031a.0642.0642,0,0,1,0-.0269.0771.0771,0,0,0,.0051-.0308.0981.0981,0,0,0-.0051-.0262c-.0021-.0085-.0089-.0122-.0054-.0216a.1157.1157,0,0,0,.006-.0335c0-.0048-.0011-.0093-.0011-.0134l.0044-.0119a.059.059,0,0,0,.007-.0238v-.0075l-.0042-.0032c-.0032-.0043-.0018-.01-.0018-.0161l-.0011-.007-.004-.0034a.0188.0188,0,0,1,.0037-.0145c.0032-.0035.0063-.0033.0077-.0079a.0346.0346,0,0,0-.0014-.0128l-.0049-.0007a.0264.0264,0,0,1,.0007-.0134l.0019-.0061.0048-.0017.0016-.0124L13.02,16.03l-.0009-.01c.0011-.0208.0021-.04.004-.06.0011-.01-.0017-.0184,0-.0274a.0824.0824,0,0,0,.0018-.0262l-.0018-.001c-.0017-.0019-.0049,0-.0037-.004l.0041-.0025.0014-.0123c-.0011-.0094.0017-.0188,0-.0279-.0021-.021,0-.0431,0-.0645a.5574.5574,0,0,0-.0023-.0578.0311.0311,0,0,1-.0006-.0125l.0008-.0044-.0056-.003-.0044-.01-.0067-.0115a.057.057,0,0,0-.0423-.0278.0672.0672,0,0,1-.0268,0l-.0047-.0033-.0051.002-.0044-.0033-.0077-.0018-.0122.0047c-.0061.0031-.0142.0008-.0214.002a.0348.0348,0,0,0-.0215.0118c-.004.0046-.0091.0016-.014.0046l-.0095.0089-.0144.0038-.0074.0058c-.0084.0048-.0084.0171-.02.0185-.0065.0006-.0068,0-.0112.0043l-.0093.0065-.0067.0086-.0037.0085c-.0007.0052.003.0041-.0016.0083a.0494.0494,0,0,1-.0179.01c-.0011.008,0,.0194-.0069.0251l-.0095.006-.0107.0077a.1352.1352,0,0,0-.0211.0182l-.0114.0128c-.003.0041-.0042.0069-.0079.0024l-.0023-.0056-.0062.0012.008.01a.0244.0244,0,0,1-.0055.0239.0929.0929,0,0,1-.0193.0129l-.0113.0057c-.0056.0032-.0042.0049-.0026.01a.0428.0428,0,0,1-.0021.026l-.0046.0112a.0232.0232,0,0,1-.0021.0119l-.0035.0017.0007.0033-.0014.0063-.0077-.0018-.0029.0051c-.0029.0065,0,.0055.0021.0108l-.0008.0126a.1185.1185,0,0,1,0,.0146l-.0007.0077-.0037.0041c0,.004.0049.0065.004.0117a.01.01,0,0,1-.0074.0084c-.0028.0037-.01.0093-.0068.0137s.0106-.001.0137.0044-.0042.0091-.0069.0126l-.0052.0043-.0076-.0006c.0107-.01-.0077-.0126-.0093-.0084s.0055.0052.003.01l-.0051.0019-.0025.0043c-.0056.0088.0032.0125.0122.0118.0035,0,.01-.0021.01.0026l-.0082.0059c.0008.0055-.0055.0044-.0049.009s.0066.0021.0057.0079c-.0022.009-.0117.0052-.0177.0084l.0137.0022.0084.0077c-.004.0077-.017.0032-.0214.0032s-.013.0083-.0125.0136l.0046.01c.0011.0041-.0008.0077,0,.0122s.0046.0028.0051.0091l-.0037.01.01.0088.0037.008c.0027.0057.0075.0111.0021.0157s.0011.0162-.0112.0151h-.01l.0025.0031c.0093.0112-.0118.0065-.016.0112.003.0051.0084.0059.0084.0133.0062,0,.0016.0046-.0028.0038l-.0114-.0036v.0115l.0021.0008-.0033.01c0,.0057.0017.0041.0056.0064.0021.0079.0079.0114.0154.015l.0048.0026-.0018.0045.0039.0106-.0074.0055.0046.008.0016.011-.0037.01.0079.0033c.0055.003.0083.0052,0,.008l-.0114.0052-.0112.0021c-.0006-.0048.0017-.015-.0027-.0184-.0083-.006-.0021.0081-.0021.01l-.0012.0084c.0007.0028.0063.0016.0031.0064-.001.0009-.0177.01-.0077.0122.0009.0055-.0072.0069-.004.0144l.0054.0041.006.0058c-.0025.0052.0042.0054.0032.0109h-.01c-.0056,0-.0051,0-.0051.0048v.0093l-.0023.0067a.0787.0787,0,0,0,.0005.02l-.0005.023-.0011.028a.1125.1125,0,0,1,.0007.0142l-.004.0128c.0007.005.0086.002.0086.0064l-.0074.0093c-.0009.005.0032.0062.0069.0041s.0037-.0089.0086-.0075l.0012.0022.0009-.0017.0056.0008a.0181.0181,0,0,1-.0067.0181c-.0044.0023-.0137.0018-.0119.0079.0009.0032.0066.0043.0056.0091l-.0065.0045c-.0053.0043-.0012.006.0009.0112s.0009.0087.0072.0112l.0054.0022v.0072c-.0041.0023-.0155-.0023-.0181.0035-.0038.0091.0128.0052.0162.0068-.0034.0075.0038.0038.0056.0051l.0044.0122c.0005.0077-.0083.0105-.0114.0163l-.0011.0053.0025.0043-.0037.0116c-.0016.0045-.0076.0064-.0074.0113s.0023.0011.0037.0033l.0014.0062c.0005.006,0,.0082.0038.0123.002.0029.0069.0105-.0012.0088s-.0066-.0211-.0133-.0182c-.0014.0079.0046.0138.0049.02a.0267.0267,0,0,0,.0035.0172c.004.0046.0069.0058.009.0126s-.0011.0117-.0011.0189c-.0058.0008-.01-.0026-.0114.0045-.0007.003.0058.0006.0023.0067l-.0069.0051-.0091.0083c-.0028.0054.0091.0125-.007.0109l-.0008.0076-.0043.0046-.0009.0072-.0028.0068c.0005.0053.0116.0054.0028.0085l-.0071.0022-.0028.0054-.0038.002-.0006.0065.0019.0067-.0011.0165c-.0041.0068-.0254.005-.0173.0137h.0026c.0047.0044-.0088.0074-.0114.0024l-.002.0006-.0086.0133-.0059.0046-.0026.006-.0078.0024-.0055.004-.0116.0074-.0084.007c-.0072.0034-.0156.005-.0225.0087l-.0077.0056-.0077.0017c-.0043.0019-.0054.0091-.0113.0091a.0191.0191,0,0,0-.015.0054l-.0122.0075c-.0117.004-.0224.01-.0343.014a.3593.3593,0,0,1-.0374.0059.1314.1314,0,0,1-.0337-.0017l-.0069.002-.0092-.0016-.0165-.0032A.0719.0719,0,0,1,12.1734,17c-.0106-.007-.017-.01-.0225-.0225l-.0053-.0157-.0049-.0084v-.0042l-.003-.0025a.149.149,0,0,1-.006-.0337.1145.1145,0,0,1,0-.0155l-.0016-.014a.0806.0806,0,0,1,.0012-.019c.0008-.003.003-.0023.0022-.0068l-.0027-.0116.0009-.0128.0022-.0213a.0733.0733,0,0,0,.0018-.0175l-.0013-.009-.0024-.0069.0028-.0164.0016-.0171c.0006-.0131.0022-.0262.0022-.039a.0471.0471,0,0,1,.0015-.0171c.0013-.0034.0077-.0114-.0006-.0128l.0022-.0119c.0005-.0061,0-.014,0-.02l-.0028-.0019c.0065-.0022.0028-.0134.0037-.0193s.0039-.017.0009-.0216l.0018-.0024-.0027-.0015.0022-.0135.0012-.0125a.2334.2334,0,0,0,.0011-.0245c-.0006-.0076.001-.017.001-.0257l.0013-.009.0016-.01c.0018-.0123-.0019-.0257-.0006-.038l.0013-.0374.0011-.0172a.1048.1048,0,0,1,0-.0224l.0029-.0068-.004-.0053c-.0019-.0058.0023-.0094.004-.0144l.0011-.011c0-.0065-.0013-.0169.0041-.0218-.0014-.0039-.0061-.0075-.0014-.011-.0034-.0042-.0017-.0143-.0017-.02l.0008-.0194c.0005-.0059-.0015-.0131-.0008-.0179.0013-.0081.0054-.0092.0042-.0171v-.01c-.0009-.0128.0014-.0246.0014-.0372s0-.024.0015-.036a.2648.2648,0,0,0,.0022-.0356l-.001-.0086.002-.0082L12.1655,16.1l.002-.0069a.19.19,0,0,0,.002-.0345.2953.2953,0,0,1,.0017-.0352.1875.1875,0,0,1,.002-.0367.2249.2249,0,0,0,.0025-.0478c.0012-.0193.0025-.0385.0052-.0574a.1939.1939,0,0,0,.0009-.0285.233.233,0,0,1,.0043-.03.1956.1956,0,0,1,.017-.05l.0088-.0238a.108.108,0,0,1,.0116-.0227l.0109-.0206.0136-.0187.0144-.02c.0065-.0071.0119-.02.0206-.0223s.0087-.0091.0125-.0112l.0076-.0028.0031-.0044.0064-.0017.0026-.004.0132-.009a.1258.1258,0,0,1,.0243-.0129c.0091-.0035.0148-.0114.0248-.014l.0076-.0023.0124-.0038.0263-.009a.2918.2918,0,0,1,.0589-.0071.1025.1025,0,0,1,.0287.0021c.0077.0024.0217.0057.0286.0007l.0082-.0076.0109-.006a.0441.0441,0,0,1,.0271-.0017c.0055.002.0052.0005.0107,0s.0076.0025.01.0067.0019.0071.0076.0082a.0791.0791,0,0,0,.0188-.0014l.0123.0034.0114.0028c.01.0034.0146,0,.0236-.002.0049-.0008.01.001.0149,0l.0116-.0044.0112-.0072.0127-.0034.0218-.01a.0555.0555,0,0,0,.02-.0139c.0028-.0044.0026-.0062.0075-.0085l.009-.0055a.0927.0927,0,0,0,.0181-.0137c.0042-.005.0049-.0116.0091-.0166l.0088-.004c.003-.0021.0018-.0061.0065-.0069L12.83,15.47c.0062-.0141.022-.0241.032-.0341l.0121-.0074.0088-.0082a.0784.0784,0,0,0,.0139-.017.0762.0762,0,0,1,.02-.0188l.0121-.01.0046-.0109a.0852.0852,0,0,1,.02-.0131l.0222-.0129.045-.0265.0241-.0119.0173-.0075.0106-.0077a.1036.1036,0,0,1,.0232-.007l.0139-.0053.0151-.002.0084-.0024h.006l.01-.004.0288-.0056.029-.0005c.01,0,.0208.0018.0308.0028a.1065.1065,0,0,1,.0263.0051.4172.4172,0,0,1,.05.0188l.01.009.0109.01c.0032.0042.0083.0168.0146.0168.0018-.0045.01-.0172.0109-.0054l-.0031.01c0,.0046.001.0048.0036.0089l.0088.01a.01.01,0,0,1,.0041.01l.0028.02c.0058.003.007-.0082.0093-.0042l-.0033.0113c-.0018.008.0042.0143.0049.0226l.0009.0121.013.0037c.0066.0024.0068.0117.0109.0177-.0018.0046-.012.0014-.0162.0014a.0551.0551,0,0,0-.0007.0285c.0012.0047.0036.0049.0074.01s.0026.0129.0082.0151c.0034.0014.0094-.0029.0134,0s-.0039.0023-.0032.0054c.0009.0075-.0039.0066-.0058.0094-.0035.0053-.0021.01-.0005.0165l.0032.0089.0049.0044.0049.001-.0017.0048-.0074.0006-.0039.0028H13.41l-.0061-.001-.0059.0087a.0691.0691,0,0,0-.0035.0274v.0155c0,.0055,0,.0075.0051.01v.01l-.0049.0056.001.0123c.0041.0029.0081-.0028.0093-.0045s.012-.0164.015-.0116l-.0012.0055-.0014.0044c0,.0048.0008.0064-.0015.011a.0324.0324,0,0,0-.0008.0259c.0074,0,.0031.0122.0112.0052l-.0038.0084-.0092-.0045c-.0052,0-.0065.0038-.007.0072-.0009.0054.0024.0044.0045.0082l.0009.01c-.0021.0024-.0092,0-.0082.0044s.0082.0012.01.0038l-.0056.0047.0028.0082-.0035.0053c-.0027.0055.0007.0067.0038.0112l.0048.0138c0,.0088-.0005.009.0079.0119l-.0026.0029-.0009.0049-.007-.001c-.0049-.0015-.0048.0009-.008.0016l-.01-.0016a.0739.0739,0,0,0-.0013.0285.0127.0127,0,0,0,.0116.0088c.0058.0007.0094,0,.0067.0068-.0021.0051-.0067.006-.0112.0067-.0062.0011-.0071,0-.0071.0068v.0147L13.4,15.84l.0012.004.0105.0069c.0062.0062-.0021.0043-.0063.0031h-.0128l-.0026.02.0035.0054-.004.0118a.1654.1654,0,0,0,0,.033v.0314l-.0019.03.0019.03a.0545.0545,0,0,0,0,.0171c.0017.0064.003.0038.0087.0064s.0047.0056.0057.01.0042.006-.002.0093h-.0128l.0009.0054.0024.0035-.0029.0047v.0061a.011.011,0,0,0,.0047.0107c.0035.002.009.0025.0065.0069s-.0079.0018-.0116.0044c-.0012.004.003.0038.003.0067l-.0037.0073.0007.0079.0021.0078.0155.0052c.0088.0036.0028.0047.0021.0106s-.01-.0012-.0088.0088l.0023.0093.0024.0062.0036.0072.0036.0057c.0025.0031.0027.0014.0009.0055l-.0045.0056v-.01c-.0049-.0046-.0049.0031-.0056.0054l-.0032.0085c-.0016.0027-.0044.0028-.0023.0075l.0047.0082v.0094a.0489.0489,0,0,1-.0015.0212c-.0035.0058-.0037-.0014-.0084-.0031-.0069-.0022-.0032.0015-.0032.006a.04.04,0,0,0,0,.012l.0016.0055-.0028.004c0,.0045.007.0045.0093.0016.0037-.0053-.0042-.0083.0037-.01s.0058.0031.0058.0073l.0007.0047v.0054c-.0028.0034-.0068,0-.012.0012s-.0068.0055-.0016.0072c.0018.0007.0134-.0009.0078.0043l-.012.0028c-.0049.0059.0014.0174.0083.0185.0049.001.0084-.0027.01.0036l-.0039.0108c-.0044.0012-.0047-.0062-.01-.0027l-.003.01c.0023.0051.0053.0036.0046.0106l-.0033.0106c-.0034.005-.0027.0032-.0006.0082l.0019.0059-.0033.0037c-.0005.0056.0049.0036.01.0036l.0133.0024c0,.0026-.0168.0183-.0052.0174l0,.0126c.002.0041.0072,0,.01.001l.0034.004.0059.0013.0015.0107a.02.02,0,0,1-.0159.0147c-.0056.0007-.0029.0035,0,.0063l.0033.0035-.0051.0014c.003.0037,0,.0057.0057.0077l.0016.0006.0084-.005c.0063-.0019.0027.0061.0086.0067l-.0007.0081v.003l-.0021.0018c-.0014.0046-.0011.0121.0027.0125s.0077-.0049.0086.0025l-.0014.0057-.0022.004c-.0006.0049.0029.0072.0069.0049a.0178.0178,0,0,1,.0158.0024c.0058.0037.0007.0108.0085.0177a.0341.0341,0,0,0,.0165.0091l-.0007.0032c.0044,0,.01.0039.0149.0039l.0171.0013a.1416.1416,0,0,0,.0481-.0135c.0074-.003.0162-.0046.0229-.0078.0038-.0018.02-.0031.02-.009l.01-.0023.0211-.0107c.0055-.0038.0144-.0055.0206-.0093l.01-.0048.013-.0061.0035-.0012.0007-.0025.0062-.0007.0079-.005.01-.0044.0032.0019v-.0037l.0162-.0073.0081-.0028.007-.0059c.006-.0038.0114-.0035.016-.0086h.0055c-.0023-.0043.0086-.0041.01-.0088l.0091-.0027.0051-.0057.0088-.0022c.0083-.0049.0179-.009.026-.0143l.0185-.01.0189-.0105c.0058-.0025.0167-.0055.0187-.011l.0024.002c.0041-.0023.01-.0093.0141-.0093l.0053.001.0042-.0031.0076-.0067a.08.08,0,0,1,.0205-.0117c.0152-.0069.03-.0122.0442-.0179l.0072-.0039.0241-.0067.0245-.0051.0129-.0029.006-.0028.0049.0019c.0037.0011.0065-.0006.0111,0l.0072.0011c.0133,0,.0266-.0025.04-.0025.0062,0,.0118.0028.0176.0025s.008.005.0149.0038.0113.0021.016.0021l.0164.0041a.0665.0665,0,0,1,.0167.0006.0227.0227,0,0,0,.0158.0014c-.0027-.0027-.0064-.0031-.0053-.0082.0043.0006.007.006.0106,0,.0065.0018.0038.0071.0058.0111a.0166.0166,0,0,0,.0147.0062l-.004-.0065c.0045-.0007.0069.0029.0114.0047s.0036.0072.0077.008-.0025.0042.0018.0056l.0049.0024.0053.0047c.0044.0025.0063.0031.0075.0088l.0056.01c.0025.0045.0054.0035.0046.01-.0008.0049.0028.0041.0058.0089l.0083.0069c.0021.0037-.0009.0094.0058.01l.0021.0113.0033.0042-.0005.0057c.0016.0038.0057.0015.0074.0067s-.0048.007-.0048.01l.0085.0066c.0033.0016.0045-.0016.0045.0033l-.0024.005V16.46c-.0067.0021-.0067.0025-.0068.0076v.0051c-.0023.0039-.0137.0059-.01.0108s.0081-.0023.0123-.0017v.0128l.009.0047Z"/><path class="cls-1" d="M16.93,15.0271a7.5988,7.5988,0,0,0-6.7685-3.5636c-4.0621,0-7.367,2.6456-7.367,5.8975s3.3049,5.8974,7.367,5.8974a11.155,11.155,0,0,0,1.9386-.16l.0071-.0006.0268-.005.0081-.0016c.0682-.0125.1344-.0255.198-.0389l.0527-.0113.012-.0029a7.49,7.49,0,0,0,1.1907-.377,2.9,2.9,0,0,1,1.16-.2727,3.0772,3.0772,0,0,1,1.6825.3731.2061.2061,0,0,0,.2449-.3315,3.37,3.37,0,0,0-1.9274-.4537,3.27,3.27,0,0,0-1.31.301,6.948,6.948,0,0,1-1.1865.3711c-.0624.0128-.125.0254-.1886.037l-.0132.0025a10.7071,10.7071,0,0,1-1.8958.1582c-3.835,0-6.955-2.4608-6.955-5.4854s3.12-5.4854,6.955-5.4854a7.1862,7.1862,0,0,1,6.4058,3.3469.206.206,0,0,0,.3628-.1951Z"/><polygon class="cls-1" points="16.93 15.027 16.93 15.027 16.93 15.027 16.93 15.027"/></svg>