<svg id="Capa_1" data-name="Capa 1" xmlns="http://www.w3.org/2000/svg" viewBox="0 0 70 70" width="70" height="70">
    <defs>
        <style>.cls-1{fill:#da002a;}.cls-2{fill:#fff;}.cls-3{fill:#db0626;}</style>
    </defs>
    <path class="cls-1" d="M30.0044,64.9789a.8537.8537,0,0,1-.8628-.8628c.1568-9.6484-3.896-10.59-6.0662-11.1126C10.1586,49.9965,1.1639,40.3743,1.1639,29.6016c0-13.44,13.6489-24.3693,30.4094-24.3693s30.4093,10.93,30.4093,24.3693c0,9.8314-7.2951,18.6691-18.6169,22.4867a.8434.8434,0,0,1-.5491-1.595C53.4324,46.9111,60.283,38.727,60.283,29.6277c0-12.4984-12.8645-22.67-28.71-22.67-15.8192,0-28.71,10.1713-28.71,22.67,0,9.9883,8.4717,18.9307,20.6041,21.7546,2.2748.523,7.5827,1.7519,7.4,12.786A.8613.8613,0,0,1,30.0044,64.9789Z"/><path class="cls-2" d="M57.3284,29.6277c0-11.0865-11.531-20.055-25.7551-20.055S5.8181,18.5674,5.8181,29.6277c0,8.1841,6.3015,15.2177,15.3224,18.3293a1.813,1.813,0,0,1,.2092.0784c.183.0523.366.1308.549.183,5.2818,1.7,8.9686,2.6671,9.6746,7.1644.706-4.4973,4.3927-5.4648,9.6745-7.1644.183-.0522.366-.1307.549-.183a1.7921,1.7921,0,0,0,.2092-.0784C51.0269,44.8716,57.3284,37.8118,57.3284,29.6277Z"/><path class="cls-1" d="M41.3785,64.6129a2.62,2.62,0,0,1-1.5949.4706,2.193,2.193,0,0,1-2.4579-2.4055V59.2527H36.1491V57.9192h1.1766V56.298h1.6735v1.6212h1.9087v1.3335H38.9992v3.3991c0,.706.34,1.0721.9936,1.0721a1.6676,1.6676,0,0,0,.9413-.2877Z"/><path class="cls-1" d="M49.1705,61.9721H43.6011a2.1523,2.1523,0,0,0,2.301,1.7,2.522,2.522,0,0,0,1.9349-.7844l.889,1.02a3.6094,3.6094,0,0,1-2.8763,1.15,3.6383,3.6383,0,0,1-3.9482-3.6606,3.5445,3.5445,0,0,1,3.6868-3.6345,3.48,3.48,0,0,1,3.6083,3.6868A3.3413,3.3413,0,0,1,49.1705,61.9721ZM43.575,60.8738h4.0528a1.9324,1.9324,0,0,0-2.0133-1.7257A1.9551,1.9551,0,0,0,43.575,60.8738Z"/><path class="cls-1" d="M50.8178,55.1214h1.6734v9.91H50.8178Z"/><path class="cls-1" d="M54.0862,61.449A3.5868,3.5868,0,0,1,57.93,57.8146a3.2061,3.2061,0,0,1,3.0331,1.6473l-1.2813.7582a2.0207,2.0207,0,0,0-1.778-.9936,2.2231,2.2231,0,0,0,0,4.445,2.0206,2.0206,0,0,0,1.778-.9935l1.2813.7582A3.2253,3.2253,0,0,1,57.93,65.11,3.6072,3.6072,0,0,1,54.0862,61.449Z"/><path class="cls-1" d="M61.7212,61.449A3.7937,3.7937,0,1,1,65.5125,65.11,3.5719,3.5719,0,0,1,61.7212,61.449Zm5.9093,0a2.12,2.12,0,1,0-2.118,2.2225A2.0745,2.0745,0,0,0,67.6305,61.449Z"/><path class="cls-3" d="M20.325,32.1543l.0121-.0236.0246-.013.0154-.056.0082-.0284.013-.0251a.3826.3826,0,0,0,0-.0849c0-.0279.027-.0482.0222-.0752l-.0087-.0646-.0038-.0319.0048-.0265L20.4,31.6976v-.03l-.0246-.0294-.0082-.0439a1.0068,1.0068,0,0,1,.0594-.28.3656.3656,0,0,1,.0058-.0685l.0178-.0275h.0357c.0333,0,.0366-.0241.0506-.0482l.0251-.0656v-.0579l-.0289-.0106-.0126-.0034v-.0284c.0044-.029.0208-.029.0425-.043l.0265-.0578-.0183-.0285-.014-.03a.0444.0444,0,0,1,.013-.0555.0834.0834,0,0,0,.03-.0511l.01-.0246-.0034-.0313c-.0063-.0213-.029-.0135-.029-.0391l.0155-.0675L20.61,30.51l.01-.06.0236-.0786.0164-.0352.0073-.0328c.0115-.0169.0183-.0155.013-.0348-.0077-.0313.0087-.0588.0087-.0906l.0067-.0372.0039-.0135-.0058-.0091.0145-.0232.0072-.0444.014-.0636c.0087-.0208.0231-.0352.0241-.0584l.0063-.0651.0087-.0627.01-.0627.0241-.0516.0174-.0574a.532.532,0,0,0,0-.068l.0072-.0294.0178-.02V29.46l.0078-.0237.0033-.0342.0174-.0574.0352-.1394.0261-.067c.0062-.0155,0-.0565.0289-.0516.0048-.02-.027-.0116-.0246-.0314l.0275-.0256-.0159-.0106.013-.0125a.2332.2332,0,0,1,.0077-.0965l.013-.03-.0067-.0371.0236-.0227v-.0342l.0116-.0719.0178-.0265.0077-.0362.0044-.0371.0159-.0063.0034-.0178.01-.0695.0034-.0386c.0121-.01.0232.01.026-.0149l-.0067-.0483.0111-.02v-.0352l.0183-.028.0082-.0318.0111-.03.0048-.0236v-.0284l.0159-.0613.0184-.054.014-.0564.0226-.0222V27.99l.0106-.0314v-.0328l.0126-.026.0072-.0333.0135-.0362.0174-.0226-.0068-.0164.0164-.0458.0237-.02.0154-.0217.0145-.0063v-.0164l.0029-.0391a.048.048,0,0,1,.0366-.0414l.0155-.041.0086-.0227.0044-.0241c.013-.0323,0-.0762.0173-.1061l.0386-.042a.1329.1329,0,0,0,.013-.0694.1.1,0,0,1,.0135-.0685c.0256-.03.0613-.04.0835-.0729l.0063-.0289.0111-.0246v-.0256l.0028-.0279a.2378.2378,0,0,1,.0063-.0618c.0077-.0222.0333-.0342.0347-.0569l.0053-.0386.0025-.0183.0067-.01.0159-.069.0193-.0646.015-.0743.0371-.0584a.0923.0923,0,0,1,.0482-.0482l.0338-.0087.0246-.0188a.081.081,0,0,0,.0367-.0521l.0115-.0294.0063-.0376.0164-.0289.0154-.029.0208-.0439.02-.0366.0034-.028c.0053-.0232.0159-.0314.0111-.0555a.1684.1684,0,0,1-.0062-.0709c.0062-.0212.0289-.0337.0274-.0569l-.0192-.026-.0131-.0338a.206.206,0,0,1,.0131-.069c.0053-.0231,0-.0525.0062-.0757l.013-.0265.0025-.0362a.1992.1992,0,0,0,.012-.0714.4142.4142,0,0,1,.0048-.0738v-.0337l.0116-.03-.0014-.0333-.0058-.0246.0231-.0241.014-.0314a.105.105,0,0,0,.0087-.0632.1159.1159,0,0,1,0-.068l.0357-.0313c.01-.0236-.01-.0294-.0155-.0482a.1344.1344,0,0,1,0-.0618.42.42,0,0,1,.0656-.1389c.0271-.0482.041-.0964.0685-.1447a.6074.6074,0,0,0,.0733-.1533l.0049-.0352-.01-.0309c-.0034-.0376.0212-.0584.0352-.09a1.175,1.175,0,0,0,.0381-.1327l.0174-.07.0068-.0762c.0053-.0256.0265-.0458.0265-.0743l.0067-.04.0348-.0241c.0294-.014.0323-.0275.0405-.0569A.2653.2653,0,0,1,22.5509,24l.0419-.0184.0145-.0458.0154-.0424c-.02-.028-.0482-.0372-.0554-.0709A.1954.1954,0,0,1,22.56,23.73l.0193-.0275.0169-.03.042-.0719a.3633.3633,0,0,0,.012-.0868l.0082-.0482.0222-.0323.0357-.0348.02-.0511.0058-.0415-.0217-.03a.0765.0765,0,0,1,.0115-.0708.3962.3962,0,0,0,.0459-.0656c.0062-.0164.0347-.0714,0-.0709l.0154-.055.0174-.0381c.0057-.0222.01-.0121.0274-.02s0-.0116-.0111-.0188l-.0135-.0314.0131-.09a.4931.4931,0,0,1,.0347-.0935l.01-.0155.0068-.0183.0135-.0328.0135-.0772.027-.0752c.0145-.0227.0178-.0449.041-.0617A.0736.0736,0,0,0,23,22.3736l.0082-.0371.0207-.0275-.0111-.0347.0126-.0367.0294-.0236.0091-.042-.0192-.0265.0221-.0333.015-.0347.0309-.015v-.0371l.0111-.029.0188-.0173.0043-.04.0072-.082.0087-.0521.0208-.0319.0033-.041.02-.03.01-.054.0222-.0482.0121-.0328a.2175.2175,0,0,1,.0313-.069l.013-.0265.029-.0092.0106-.0164.0092-.0115v-.01l.01-.0236v-.0193l.0087-.0121.0029-.0135-.0063-.0115.0082-.0333.0077-.0058.0077-.0087.0256-.0159.0048-.0328v-.0728l.0044-.0294.0183-.0189.0135-.0545.0063-.0366.0308-.055.0116-.0106v-.0444l.0058-.0337.026-.0526.0159-.0236.0324-.0507V20.73l.0236-.07.0222-.0613c.0159-.0627.08-.0839.0964-.1447l.0406-.0829.02-.0425-.012-.0352c.0193-.0043.0419-.0526.0554-.07.0237-.0309.0111-.06.027-.0921l.0328-.0381.014-.0188.0164-.0155.0106-.028.0174-.0159.0087-.0627.01-.0482c-.0038-.0207-.0212-.0231-.0183-.0482l.0082-.0627c.0034-.0121.0318-.0285,0-.0386a.32.32,0,0,1,.0352-.0883l.0434-.0892.0429-.108.0256-.042.0135-.06a.656.656,0,0,0,.0526-.1l.0048-.0285.02-.0145.0106-.06c.0371.0062.01-.0386.0342-.0517v-.0294l.0145-.0178.0482-.09.0159-.0232-.0077-.025.0222-.0135.0063-.0275c.0033-.0237,0-.056.0279-.0608v-.0275c.0314-.0024.06-.12.069-.1418.04-.0936.0839-.1852.1259-.2793a.631.631,0,0,1,.0825-.1577l-.0121-.0091.0241-.0483.0208-.0482a.3451.3451,0,0,1,.0424-.0965l.0116-.02.0183-.014.0116-.0483a.933.933,0,0,1,.0381-.0906c.0251-.0386.0338-.0753.0584-.1119l.012-.0236.0039-.0222.027-.055.0091-.0319.0189-.0149.0255-.0531.0188-.0559.0483-.0777.0144-.0376a.2429.2429,0,0,1,.0405-.0776.4555.4555,0,0,1,.0521-.0859l.0425-.0318c.014-.0135.014-.0241.04-.028.0072-.0246-.0106-.14.0444-.1143l.0144-.0559.0434-.03c-.0439-.0295.0121-.0632.0386-.0806l-.0053-.0077.0314-.0217.0077-.042c.0082-.0294.0318-.0429.0482-.0651s.0227-.0564.0536-.0719c.0217-.01.0168-.0139.0217-.0381a.2837.2837,0,0,1,.0482-.0877c.04-.0536.0854-.0965.122-.151l.0227-.03.0275-.0063.0246-.0458.03-.0521.0415-.0482.0356-.0371.04-.0608.0347-.04.041-.03.02-.0237L26,15.9681l.0217-.0227.0242-.028.0212-.0275.028-.0169.01-.026.0328-.02.0159-.03.027-.0135v-.0168l.0111-.01a.1418.1418,0,0,0,.0482-.068.4134.4134,0,0,1,.0738,0c.0309,0,.0063-.0328.0232-.0526l.0246-.0164.0207-.0255.0029-.0285v-.0226l.0261-.0164.0192.0236-.0135.0284-.0077.0136.0135.0086c0,.0188.0386-.0067.0439-.0125l.014-.0275.0222-.0227c.0193-.02.0082-.0323-.0044-.0525v-.0377l.0386-.02v-.0352l.0188.0159-.0072.026.0357-.0038.0116-.0087v-.04l.0116.0053.0077-.0309.0294-.01.0178-.0034.0131-.0082.0226.0125.0048.0116H26.72l.0058-.014.013-.0087.0179-.0212.0145-.0265v-.04l.0168-.0246c.0155.0034.0232.0218.0266-.0053.0024-.0135-.0053-.0371.0168-.0284l.0049-.0275a.1219.1219,0,0,0,.0086-.0685c-.0038-.0231-.0149-.0453-.0024-.0675a.0824.0824,0,0,1,.043-.04h.0178l.01-.0062.0256.0086-.0159-.052.0159-.0261.0275-.02.0058-.0313.0062-.013.0155-.0039.0154-.0289.0188-.02V14.78l.01-.0159.02-.027.0372-.0482c.0091-.0212.0294-.0415.0333-.0646l.0115-.0232.0266-.04.0135-.0063.0067-.0294.0289-.0545.0164-.0618.0174-.0226.0116-.0275v-.0381l.01-.03.013-.0631.0121-.0738.01-.0314.0077-.03-.01-.0062-.0145-.0232.0184-.0207c.01-.0184-.0039-.0483-.0029-.07l.0029-.1316-.0068-.0555-.0154-.0482.01-.0333-.0077-.0343-.0077-.0728-.0246-.0632-.0082-.03-.014-.0352v-.0419l-.0212-.054-.0154-.0314-.0092-.0362c-.0034-.0231-.0246-.03-.0314-.0554l-.0053-.0328-.025-.0256-.01-.0318-.0482-.0859-.013-.03-.0246-.0226-.0907-.1081-.0526-.04-.012-.0178-.0164-.0082-.0188-.0275-.0222-.0116-.0116-.013-.0149-.013-.0092-.01-.0318-.0221-.0073-.0251-.0443-.0039-.0227-.02-.0444-.0318-.0318-.015-.02-.0183-.0651-.0231-.0815-.0425-.0666-.027-.0709-.0159L26.26,12.52h-.0145l-.0188-.012a.1386.1386,0,0,0-.06-.0352l-.0829-.0092-.083-.0178-.0883-.0092-.0834-.01-.0381.0067-.0347-.0121-.0429.014-.0333-.014a.79.79,0,0,0-.1023.0189l-.1056.0149c-.0405.0053-.0506.0285-.0834.04a.7788.7788,0,0,0-.0926.0237l-.083.0371a2.3314,2.3314,0,0,0-.3772.2484c-.0439.0294-.0578.0584-.0964.0878l-.0184.0231-.0366.0053-.0159.0565a.0961.0961,0,0,0-.06.0549l-.0217.0054c-.0087.0241-.0237.0159-.0372.0323l-.03.0583-.081.0921q-.0416.0436-.0786.0912a.96.96,0,0,0-.1167.176.5.5,0,0,0-.043.1134c-.0569.0149-.09.1264-.1162.1731l-.0965.1828c-.0607.1139-.1008.2378-.1528.3622-.028.069-.0483.137-.0825.207a.644.644,0,0,0-.0864.1977,1.105,1.105,0,0,1-.0829.2445c-.0309.0724-.055.15-.0849.2209a4.0385,4.0385,0,0,0-.1688.4052q-.037.1105-.0849.217c-.03.0724-.0482.1447-.0772.2146-.0583.1332-.0964.2788-.1495.4139-.0183.0482-.0545.0849-.069.134a1.16,1.16,0,0,1-.053.1708c-.0449.1037-.0767.2136-.1206.3193-.0506.1157-.0916.2358-.1336.3554-.0521.152-.1143.3-.1659.4524-.0222.0637-.0622.123-.08.1872a1.1515,1.1515,0,0,1-.0709.21c-.0352.0747-.0651.1616-.0964.2382-.0333.1-.0593.2041-.0965.3-.0439.109-.0965.2127-.1331.3246-.0482.1418-.0965.2807-.151.4167-.1389.3323-.2493.6844-.3612,1.0245l-.0381.0964-.0294.0839a.8986.8986,0,0,1-.0574.082.3349.3349,0,0,0-.0483.1032,1.1794,1.1794,0,0,0-.0482.2267,1.0827,1.0827,0,0,1-.0965.287c-.0173.0521-.0221.1013-.0443.1529a1.4338,1.4338,0,0,0-.136.2894c-.0145.0685-.0565.1259-.0767.1929s-.0314.1413-.0512.2122c-.0154.0483-.0646.1245-.0352.1712-.0424.0348-.0511.1394-.068.1886a1.5245,1.5245,0,0,1-.0482.2142c-.0314.066-.0926.1307-.0936.2083a1.0484,1.0484,0,0,0,.0034.2233c.01.0536-.0405.0666-.0632.1052a.3225.3225,0,0,0-.039.1379.2416.2416,0,0,1-.02.1307,1.1632,1.1632,0,0,0-.0526.1447c-.055.1886-.1018.3675-.162.5527-.0295.0917-.0435.193-.0719.2836s-.0719.1823-.0989.274a5.4779,5.4779,0,0,0-.1336.5681c-.012.0666-.0386.13-.0453.1973-.0029.027.01.07.0058.0912-.0087.0419-.0512.07-.0608.1157a.7965.7965,0,0,1-.028.15,1.786,1.786,0,0,0-.0916.2619c-.0415.1987-.1167.3806-.1587.5754-.0318.151-.0965.2947-.1225.4476-.0121.0685-.0082.1346-.0265.2006-.0217.0786-.0483.1549-.0709.233l-.042.1529-.0111.0786c-.01.0246-.0323.0318-.04.0588-.0126.0483,0,.0825-.0212.1307a.3574.3574,0,0,0-.0246.1259c-.014.09-.0483.1891-.0685.2793-.0362.1447-.0757.2778-.1134.4239-.0188.0738-.0289.1544-.0482.2272-.0318.14-.0555.2836-.0781.4259-.0126.0776-.0391.15-.0555.2223l-.0453.2161c-.0116.054-.0618.1539-.0275.2016a.4244.4244,0,0,0-.0526.1973.8218.8218,0,0,1-.027.1929c-.0275.1037-.0584.2083-.0772.313a2.31,2.31,0,0,1-.0569.2614,1.346,1.346,0,0,0-.0323.1963c-.0164.1066-.0366.2113-.0482.32-.0217.218-.0753.4283-.1124.64a2.4543,2.4543,0,0,0-.0482.2812c-.01.1447-.0656.2894-.08.4312-.0048.0525-.0256.1032-.0343.1567-.0164.1081-.0221.2175-.04.327a4.4881,4.4881,0,0,1-.1129.6063,1.1241,1.1241,0,0,0-.0337.2218c-.0266.2721-.0791.5417-.1192.8108-.02.1307-.0371.2619-.0516.3931-.0034.0673-.01.1345-.02.2011a1.19,1.19,0,0,0-.01.136l-.025.0483a.373.373,0,0,0,0,.066c-.0082.082-.0285.1626-.0348.2523l-.03.01a.1748.1748,0,0,0-.0092.0762c-.0261.0145-.0183.0613-.04.0709-.0483.0227-.0391-.04-.0328-.0617-.041-.0434-.0319-.0482-.0907-.0217l-.027-.0709c-.0111-.0386-.0058-.0251,0-.0608a.36.36,0,0,0,.0092-.1712c-.0092-.03-.0261-.03-.0251-.0656.0024-.0236.0226-.0376.0226-.0641,0-.0883-.0607-.0685-.1191-.0917,0-.0246.0237-.0313.0256-.0506.0043-.0309-.0121-.0482-.013-.0781-.0025-.0483,0-.0965,0-.1515a.7645.7645,0,0,0,0-.137.7535.7535,0,0,1-.04-.1307c-.0043-.0482-.0313-.0921-.0308-.135l.0246-.0545c.0048-.0256-.0116-.0608-.0049-.0825.0155-.0651.0483-.0588.0295-.1249-.0415-.1365.0043-.0993-.0039-.1514a.3747.3747,0,0,0-.0357-.1225l-.0482-.0319c-.0323-.0178-.02-.0265-.0256-.0569l-.0077-.0347c.0116,0,.0434,0,.0386-.0179l-.0241-.0111c-.0193.0034-.0034.0087-.0121.0184-.03.0337-.0482-.0135-.0391-.0459.0049-.0144.0188-.0246.015-.0443s-.0208-.02-.0068-.0405.0709-.0333.0685-.0531l-.0193-.0087-.0207.0111-.0482.0155c-.0034.0332-.0381.012-.0449-.0078l.0063-.0381-.0058-.0376v-.0762a.09.09,0,0,1,.0058-.0617c.0111-.0184.0294-.027.03-.0511a.044.044,0,0,0-.02-.0483c-.0313-.0241-.0154-.013,0-.0342l.015-.0536.0183-.0482.0087-.0555.0207-.0125.0111-.0256.02-.0458a.1377.1377,0,0,0-.0072-.0964l-.0372-.0676c-.0087-.0246,0-.053-.0116-.0762l-.0371-.0371-.0082-.0564c-.0058-.0087-.0482-.0256-.0154-.0338.0034-.0241-.014-.0275-.0208-.0439l-.014-.0579-.027-.0415-.0048-.06c-.0038-.041-.0217-.0758-.0236-.1187s.0029-.09,0-.136a.3655.3655,0,0,0-.0039-.1124l-.02-.04c-.012-.0217-.0072-.0309-.0115-.0526l-.0193-.041-.0285-.0637c-.0072-.0313,0-.081-.0284-.1032.0188-.0135.0154-.0265.01-.0458l-.0169-.0545-.0086-.054c-.0078-.014-.0324-.0217-.0082-.0372l.0564-.0135.0154-.0443c-.0034-.027-.0434-.0671-.0627-.0878a.18.18,0,0,1-.0482-.1071.2874.2874,0,0,1,.012-.0776.577.577,0,0,0-.0144-.0815v-.0806c0-.0265-.014-.0371-.0251-.0617l-.0145-.068-.0424-.0454a.257.257,0,0,1-.0449-.1316l.01-.0381c-.0145-.014-.04-.0048-.0415-.027,0-.0357.026-.0164-.0072-.04l-.027-.0179-.0029-.0419c-.0044-.03-.01-.0328.0106-.056s.0318-.0294.0178-.0593a.062.062,0,0,0-.055-.0313c-.0381-.0058-.0347,0-.0414-.0381l-.0063-.0738a.29.29,0,0,0,0-.0709l-.0208-.06c-.0062-.0381.0111-.0569.0208-.0922l-.0034-.0482-.042-.012a1.8438,1.8438,0,0,0-.0419-.247c-.0077-.0318.0067-.02.0159-.0439s-.0077-.0337-.0236-.0516a.1658.1658,0,0,1-.03-.12L16.54,30.325a.5177.5177,0,0,1-.02-.083l.0169-.03.025-.0328-.0381-.01-.0183-.0294.013-.0333c.0082-.0193-.0072-.0174-.0154-.0294l-.0111-.0743.0087-.0362-.0087-.0212-.0174-.0145-.0057-.0415-.0087-.04-.0039-.02-.0082-.0145c0-.0039.0246-.04,0-.026-.0125-.0246,0-.0213.0179-.0285l-.0188-.026-.0126-.0386c-.0063-.04.0058-.0439.04-.0531l.0213-.0241-.0213-.0309v-.0448l-.0115-.0453-.0029-.041c-.0087-.0184-.0357-.0208-.0323-.0415s.0294-.0111.0352-.0275l-.0193-.0309.0236-.0256-.0236-.0246c-.0256-.0062-.0483,0-.0656-.0255a.0689.0689,0,0,1-.0029-.0781c.02-.0237.03-.0275.0313-.0613,0-.0217,0-.0174-.0168-.0246l-.0217-.0328v-.0873l.0376-.01c.0034-.0222-.0179-.0246-.0338-.0193l-.0511.0106h0l-.0145-.03.0285-.0193.0111-.0357-.0285-.0169-.0135-.0757c.0135-.0048.0193.014.0285-.0067l-.0092-.03-.0241-.0323-.027-.028-.0212-.0907.011-.0366.0189-.0314c0-.0265-.03-.0569-.0449-.0767a.1152.1152,0,0,1-.0188-.0776V28.348l-.0106-.0386-.0039-.042-.01-.0357.0053-.0313a.2162.2162,0,0,1-.0227-.1264.2032.2032,0,0,0-.0149-.0762l-.0164-.0829-.02-.084v-.0482l-.0072-.0482a.5984.5984,0,0,1-.0039-.0965l-.0067-.0429-.0217-.0333c-.0044-.0309.0067-.0569-.0034-.0873l-.0058-.0174-.0145-.0154.0073-.03-.02-.0854a.8007.8007,0,0,0-.0222-.0964v-.0454a.1079.1079,0,0,0-.0082-.0482l-.0063-.0564-.0067-.0275L15.99,27.03l.0034-.0207-.0058-.0227c-.0038-.0217,0-.0449-.0034-.0666l-.0183-.0757v-.0429l-.0111-.0391a.3884.3884,0,0,1-.0067-.0926l-.0208-.0868-.0082-.0574c0-.0159.0063-.0371-.0154-.0443l-.0116-.0907-.0034-.0415-.013-.0434c-.0164-.0613-.0222-.1249-.0371-.1857l-.0092-.0859-.0251-.0791a1.0435,1.0435,0,0,0-.0549-.1659l-.0319-.0526-.01-.04-.0212-.028-.014-.0385-.0362-.0748-.0212-.0246-.0217-.0323-.04-.0425-.0372-.0438-.0564-.0435-.0482-.0458-.0483-.0386a.6818.6818,0,0,0-.107-.0554l-.0415-.0174-.0883-.028-.0434-.0135-.109-.0159a.6717.6717,0,0,1-.094-.0063l-.0348-.0125-.0385.0034a.4914.4914,0,0,0-.0883,0,.2193.2193,0,0,0-.0839.0111l-.0868.0231-.0391.0126-.0256.0241-.0511.0087h.0029l-.083.0323-.0627.0419a.4785.4785,0,0,0-.122.0888c-.0313.0352-.0665.0627-.0989.0965a.6737.6737,0,0,0-.1075.1509.8978.8978,0,0,0-.1061.2035c-.027.0787-.0608.1573-.0806.2373l-.0168.0594-.03.0564c-.0154.0395-.0159.0854-.0318.1244l-.0212.0386-.0145.0425-.0318.0766-.0145.0454.0034.0328-.0179.01-.0053.0232c-.0279.0882-.0646.178-.0844.2681l-.0255.0545-.0169.057-.0352.1138-.042.1032c-.0482.137-.068.2773-.1244.4124a.8012.8012,0,0,1-.0666.122.2279.2279,0,0,0-.0381.1331c-.0053.055-.0251.1-.0318.1611a.2337.2337,0,0,1-.055.1225.5077.5077,0,0,0-.0632.1789c-.013.0449-.0453.0922-.0583.1447a.5149.5149,0,0,0-.0087.12.7641.7641,0,0,1-.0482.1549l-.0941.2744c-.0265.08-.0651.1645-.082.2411a.2811.2811,0,0,1-.0545.13.3922.3922,0,0,0-.0482.1162c.027.03-.0294.0863-.0362.1225a.8139.8139,0,0,1-.0217.149,1.4986,1.4986,0,0,0-.0941.2812c-.0154.0873-.0964.1423-.13.2224a.362.362,0,0,0-.0337.1447.2927.2927,0,0,1-.02.1553.6778.6778,0,0,1-.0777.1857c-.0154.0154-.1369.0733-.0545.1046-.0328.04-.0834.0526-.0323.1192l-.0521.0877a.5639.5639,0,0,1-.0144.1389c-.0381.1134-.0965.22-.1365.3319-.0483.1365-.1264.258-.1674.3926h.0265a.6109.6109,0,0,1-.0318.1148l-.0482.1162c-.0092.0236,0,.0482-.0121.0757l-.0352.0569c-.0183.0367-.0169.0859-.0482.1134.01.0284-.0184.0713-.0294.1013s-.0107.0791-.0222.1167a2.2393,2.2393,0,0,1-.0883.2175c-.0313.0776-.054.1447-.0776.2214a1.1439,1.1439,0,0,0-.0869.4775.5227.5227,0,0,0,.0787.2373.9724.9724,0,0,0,.2961.3048.7188.7188,0,0,0,.1828.0685.5134.5134,0,0,1,.0834.0313.2332.2332,0,0,0,.0772-.0058c.0328,0,.0656.0039.0994.0039a.3277.3277,0,0,0,.0733-.0188l.0964-.0106.0483.0038.04-.0241.0439-.0053.027-.0241a.5117.5117,0,0,1,.0781-.0314.5736.5736,0,0,0,.1548-.0964l.0661-.0724.0314-.027.0241-.0482c.028-.0227.0752.0222.0892-.0029s-.012-.0227-.0193-.0391c-.0236-.0434,0-.0757.0179-.1133s.0125-.0386.0482-.0569.027-.0372.0227-.068l-.0063-.0405c.0077-.015.03-.0092.0207-.03.016-.02.028,0,.0323-.0352l.0078-.0651.0323-.04.0062-.0656c.0068-.042.0319-.0608.06-.0912l.0236-.0482c-.0077-.0183-.03-.0116-.0121-.0391s.0622-.0424.0767-.0738l.0145-.0569c.012-.0164.0318-.0178.0362-.0424s-.0116-.0338,0-.0627l.0173-.0564a.2358.2358,0,0,1,.0483-.1091.11.11,0,0,1,.054-.0511c.0144-.0043.0641-.0024.06-.026s-.0483-.0063-.0623-.0159v-.0613l.0222-.0212.0135-.0333.0044-.0328.0241-.0116.0034-.0217v-.0154l.0154-.0077-.0077-.02v-.0308l.0222-.0217v-.015l.0077-.0072.0217-.0169c-.0232-.01.0039-.0313.0106-.0458s.0314-.0241.042-.0415v-.0309l-.0246-.0255.0038-.015-.0029-.0178-.0058-.0236c-.0091-.0242.0222,0,.0275-.0227l.0058-.0256.02-.013v-.0188l-.0251.0082-.0255-.0044.0067-.0453.0275-.02.0077.0116.015.0068.026.01.0048-.027-.0222-.0183.0237-.0179.0072-.0308-.0038-.03.0067-.029.0063-.0332.0246-.0184.014-.0231-.0227-.0145c-.0376-.0048-.01-.0217-.0082-.041l.0169-.0637.0308.0029-.0086-.0265c-.0082-.0241.0183-.0381.025-.0588l.0082-.0285.0362-.0082.015-.0371-.02-.0174v-.0308c0-.0208-.0063-.0526.014-.0671l.0183-.0091.0039-.0222.0077-.0434.0169-.02.0149-.0072.014-.0135.0106-.0068h.0155l.0067-.0313-.03-.0087-.0043-.0106.0082-.0266.0173-.0173.0213-.014-.014-.0261.0578-.0217.0227-.0559-.0217-.015-.0087-.0327c.0044-.0353.0169,0,.0309.0024.0313.0082,0-.0338,0-.0406l.0193-.0144-.0077-.0237.0116-.0655-.015.0217-.0048-.0232-.0145-.0328v-.0371c.0154-.02.0342.0173.0482.0207s.0135-.0024.0155-.0154l.0222-.014h.053l.0121.0222.02-.0126c.0025-.0284-.04-.01-.0347-.0313v-.0131l-.0251-.0062-.0067.0178.0058-.039v-.0256l.0164-.0111-.0068-.0439c.0217-.0053.0555.0482.0786.029l.0073-.0232.0173-.0111v-.0444h.0169l.015-.0125v-.0323l-.0044-.0319.0111-.011.0087-.016.0265-.0178L14.23,30.4l.0029-.0236.0082-.0082V30.352l.0053-.0309c.012-.02.0217-.0232.0236-.0482v-.03l.0029-.014v-.0135l.0482-.0314h.0637l.0154.0237h.0275l.03.0091.0313.0068.0193.0154.0121.0256a.0507.0507,0,0,0,.0323.0453l.0318.0068h.02l-.0183.0207v.055l-.01.012-.0077.029c-.0072.0188-.025.0318-.014.0545l.0169.0173.0159.0256c.0213.0183.0261-.0227.0314-.0338a.056.056,0,0,1,.0555-.0265.0483.0483,0,0,1,.0482.0328c.0087.0232.0024.0357-.0251.041l-.0256.0125.0107.029v.067c-.0078.014-.0507.0135-.0189.0314l.0541.0361-.0169.0188-.0034.015-.0169.0077-.0207.0111.0092.0289.0135.02-.0121.0318-.01.0637c.0091.0227.0342.02.0482.0381s.0039.03-.0063.0482a.1087.1087,0,0,0,.0082.1312.1066.1066,0,0,0,.0507.0511l.0275.0049.0053.0313.0159.0217-.0048.0318.0265.0029.0135.03.0125.1134a.1662.1662,0,0,1-.0347.0921l.0453-.0309a.5919.5919,0,0,1,.0121.1307c0,.0261.013.028.0212.0483l.0077.0593a.6484.6484,0,0,0,.0145.1273.4218.4218,0,0,1,.02.1057c.0048.0294,0,.0617.0043.09l.0164.0593c.0106.04.0121.0844.0246.1244a.5839.5839,0,0,1,.0126.1278l.0091.0656c.0073.0193.0184.0246.014.0483l-.0125.0154.0058.0207.0111.0454.0183.0964.0188.1013.0135.0883.0159.0786.0169.0588a1.166,1.166,0,0,1,.0053.1245l.0058.026-.013.0241a.2306.2306,0,0,0,0,.0632.6058.6058,0,0,1,0,.1346c-.0029.013-.0135.0352.0106.0328.01.0178-.0155.0178-.0126.0366.03.0039.0106.1071.0483.0835l.01.0419.0318.0343a.3711.3711,0,0,1,.0024.07l.02.1524.0159.1143.015.0618c0,.02-.0169.0347-.0126.0482.0217.0072.0111.0386.0126.0564l.0164.0555.02.1206a1.9563,1.9563,0,0,1,.0386.2561l.0034.0569c.0058.0193.02.0318.0193.053a.15.15,0,0,0,0,.069l.0154.06.0145.1119.01.0482a.3008.3008,0,0,1,.0159.1216l.0106.0641v.0318l.013.0217a.211.211,0,0,1,.0058.0613l.0145.1283.0135.0564a.0835.0835,0,0,1,.015.06.5412.5412,0,0,0,.0043.122l.0193.0483c0,.0178-.0164.0222-.01.0439l.0131.0164v.0294l.01.054.026.1239a1.0854,1.0854,0,0,0,.0155.1192.5572.5572,0,0,0,.0111.0964.1373.1373,0,0,1,.0053.0594.2309.2309,0,0,0,.0149.0738l.0116.07a.9129.9129,0,0,1,.0053.0964l.0318.0965a.0988.0988,0,0,1,.0087.0482l-.012.0517c0,.0246.0313.0337.03.0622l-.0024.0521c-.0033.026.0106.0381.0179.0622l.0048.0347-.0048.0232c-.0058.0221.0091.03.013.0482l-.0149.0328.0168.0255c.0179.0179.0135.0574.0131.082v.0372l.02.0279c.0193.0242,0,.0555,0,.082a.1818.1818,0,0,0,.0232.0777l-.0029.0405v.0183l.0144.0068v.0337l.0135.041a.1662.1662,0,0,1,0,.0787h.02v.0144c-.0217,0-.01.014-.0039.0232v.041l.0053.0482.0073.0482.0053.0613.014.0149v.0275l.0106.083.0072.0834.02.0212-.0063.0352.0024.0439.0106.0367c.0044.0246,0,.0511.0044.0757l.0053.013-.0053.0126.0217.0241.0048.04.0058.0444v.0482l.02.0246c0,.0179-.0053.0348-.0039.054l.0174.0483.0135.0222-.0126.0188c-.0077.02.0126.0313.0135.0506l-.0081.0415.0091.0236.0058.0285c.0053.0246-.0077.1013.0265.1027.0039.0188,0,.041.0039.06l.01.0068-.0043.039a.0421.0421,0,0,0,.0062.0376l.0208.0656.0048.0444.0159.03-.01.0294.0043.0328c.0227.0048.0155.0391.0155.055l-.0208.0569c-.02.0193-.0236.0237-.0149.0507l.0024.053-.0116.0333L16,39.3668c-.0058.0236-.0189.0386.0033.06l.0352.0149.0319.0174.0453.0579.0077.0371.0073.0323.0106.03-.0155.0275c-.0115.0246-.01.0415-.0342.0593l-.028.0193-.0318.0169c-.0024.014.027.0058.0067.0193l-.0178.0222.0251-.02.0246.0077.0212-.0111.0429.0106.0217.0116.0116.03.0188.0685c.0048.0241,0,.0482.0034.0757l.0149.0714a.168.168,0,0,0,.0145.0733l.0125.0348.0073.0361-.0053.0164.0053.0116.0067.0294V40.29l-.0038.03-.0309.013.0289.0323.015.0319.0174.0347.0028.0366.0174.0328-.0024.0324.014.0284v.0434l.0111.09v.0405l-.02.0266c-.0144.02-.0193.0569.0048.07l.0266.0178.0149.0314a.1279.1279,0,0,1,.0246.0656.2781.2781,0,0,0,.0029.0723l.0111.0309v.0415l.0154.0188.0136.0964.02.0825.0087.0757.0043.0381v.0372l.0063.0159h.0154l-.0048.0367.0048.0178L16.46,41.53l-.0078.03-.0062.0222.0212.026.0063.0371.014.0314a.3064.3064,0,0,1,.0163.1124c0,.04.02.0767.0218.1167l.0086.06c0,.0246-.0058.0333.0082.054l.0073.0555.0043.0376.0111.0362.0024.0419.0135.0323.0164.0743a.1569.1569,0,0,0,.0154.0777c-.0245.0159,0,.0144.01.0284l-.0029.0535.0174.0483-.0053.0333.0149.0159-.0106.0164.0092.014.0062.0135v.0207l-.01.0328c-.0169.0251.0178.0227.0241.0448l.0053.03.0135.0053v.0492l.0135.0661.0121.03-.01.0256c.02.0062.015.0347.0193.0482l.0193.053v.0193l-.0116.0121.0213.0275a.1464.1464,0,0,1,.0062.07l.0078.0347L16.78,43.2l.0092.0482.0058.0434.0082.0169-.0087.0135.0121.0265a.2744.2744,0,0,1,.0188.0758v.0361l.0125.0377.0048.0376.0246.066v.0256l.0058.0217.01.0217c0,.028.0183.0482.0245.0709s-.0033.0207-.0062.0367l.0144.0482.0208.0285.0193.0381c.0111.0236.0275.0385.027.0665l.0231.0188c.0217.014.0256.0381.0391.0579l.028.026.0072.016.0159.01.0174.0318.0251.0222.0453.0294.04.0111.0092.0189.0251.03.06.0188a.2333.2333,0,0,0,.0791.0342l.04.0121.0579.01a.2954.2954,0,0,0,.0772.0164l.0386-.0145.0385-.0033a.5074.5074,0,0,1,.0854,0l.04-.0111h.0483a.2152.2152,0,0,0,.0853-.0227l.1423-.0352v-.0015l-.0038-.0231h.0381l.0226-.0256.0352-.0173.0348-.016.0236-.0183.06-.0448.0482-.0439.0251-.0237L18.3591,44l.0188-.0443.0174-.0145.0111-.0193.0231-.0352.0184-.0328.0082-.0275.013-.0255.0154-.0483.0275-.0685c.0111-.0255.0068-.054.0193-.0786l.0178-.0275.0082-.0342c.0092-.0241.0025-.0526.0126-.0757l.0173-.03.0058-.0367.0213-.0743.0048-.0347v-.0381a.8367.8367,0,0,1,.03-.12l.0246-.0294-.0266-.0208.0049-.0323c.0067-.026,0-.0535.0183-.0743a.1.1,0,0,0,.0125-.0752v-.0791l.0246-.0179v-.0294a.2281.2281,0,0,1,.0068-.0767l.0145-.0718a.1667.1667,0,0,0,.01-.0791.3.3,0,0,1,.012-.0753l.0068-.0564.0135-.08v-.0395l.0043-.0367.0053-.039.0025-.0386.0212-.0714.0125-.08.01-.0347L18.82,41.98l.0082-.0154-.0092-.0338.016-.03.0038-.0371.01-.0762.011-.0294-.0033-.0382.01-.0409v-.0372l.014-.0217V41.582l.0164-.02-.013-.0164.0082-.0222.0029-.056v-.0419l.01-.0381.0043-.0357.0169-.028a.3279.3279,0,0,1,.0063-.0815.3887.3887,0,0,0,.01-.081c.0043-.03.0164-.0425,0-.0709s.0067-.0439.0149-.07l.0034-.0174.0106-.0115,0-.0372v-.0366l.0125-.0671.0092-.0323.0086-.0738a.3631.3631,0,0,0,.0054-.082l-.0054-.0313.0169-.0251.0087-.0333v-.0318l.0072-.03v-.0347c-.025.0033,0-.0314,0-.0377.0092-.0255,0-.0545.0073-.0786l.0125-.0289-.0063-.0116.0116-.0087v-.0834l.01-.0728-.0034-.0381.0149-.0275a.1963.1963,0,0,0,.0087-.0791.4646.4646,0,0,0,.0087-.0724.1259.1259,0,0,1,.0135-.0733v-.0521l.0106-.0376c0-.0284.0063-.0569.0053-.0825l.0073-.0328.0082-.0371.0111-.013v-.0193l.0033-.04a.35.35,0,0,1,0-.0806l.0077-.0357c.0044-.0082.0189-.0222,0-.0212a.0883.0883,0,0,1,.0179-.069.141.141,0,0,0,.0048-.0767c-.0029-.025.0058-.0482.0034-.0762l.0043-.0439.0058-.0212.014-.0063-.013-.0246.0178-.026a.2569.2569,0,0,0,0-.0743l.0058-.0776.0087-.0685a.2.2,0,0,0,.014-.0883v-.0386l.0082-.0352a.24.24,0,0,1,.01-.08l.0106-.03v-.04l.0145-.0791a.2075.2075,0,0,0,.0068-.08v-.0192l.0115-.0078-.01-.0125v-.0222c.0053-.0207.0241-.0362.0183-.0612l-.0029-.0338.0063-.0352a.5088.5088,0,0,0,.01-.0738l.0067-.0328.0039-.041.01-.0347.0044-.0449-.0073-.03.0183-.0072c-.0217-.0126-.0067-.0482,0-.0637l.0044-.0381.0106-.0415v-.0834c0-.028.0231-.0425.0227-.0685a.2391.2391,0,0,1,.0111-.0844l-.0029-.0342.01-.0372.015-.0328.0077-.0381.0255-.02.0034-.0213.0063-.0154.0058-.0174.0135-.0081v-.03l.0087-.0246.0067-.0274.0159-.0217v-.0266a.2823.2823,0,0,0,0-.0675l-.0053-.053-.0091-.0116.0154-.0073.0029-.0212.0087-.0144.0318-.0213-.0092.0159h.0208l.0347.0029.0323-.0164.0082-.0178v-.0183c.0063-.0184.0362-.0237.0333-.0444l-.0116-.03-.0188-.0246-.0038-.0265c-.0116-.0106-.016.0029-.0174-.0179l-.0154-.0221-.0353-.0092c-.03-.013-.0289-.0309-.0289-.0617v-.0372l.013-.0294-.0043-.028-.0092-.0318.0121-.0338-.01-.0279c-.0039-.0193.0149-.04.025-.0555a.1176.1176,0,0,0,.0135-.0733.1865.1865,0,0,1,0-.08l.0116-.0709.0154-.07.0078-.0661.0058-.0752.011-.0222v-.0314c0-.0231-.0168-.0357-.0115-.0578l.0048-.0126-.0034-.0091-.0038-.0121.0033-.014.0159-.0246v-.0347c.01-.03.0526-.0159.0377-.0613h.0062l.0044-.0207.0169-.0149.012-.0507h.015l.0033-.01.0189-.014c.0183-.0048.0347-.0063.0438-.0256l.014-.0656c.0092-.0149.03-.026.029-.0482a.3376.3376,0,0,1-.0106-.06l.0043-.0458v-.0155h.013v-.0135h.0145l.0328-.0179a.1368.1368,0,0,0,.0043-.066.1151.1151,0,0,1,.0039-.0637l.0125-.0511.014-.0314.0039-.0371-.0082-.0314-.0261-.0217.0121-.0405v-.0332l.0087-.01V34.96l-.0029-.0145.0067-.0092-.0135-.01-.0053-.015-.0048-.0289c-.028-.0154-.02.0077-.0415.0159s-.039-.0154-.0511-.0275l-.0121-.0516v-.03l-.0106-.0217v-.0265l.0164-.0034-.0029-.014c-.0033-.0226.0213-.04.0087-.06l-.0058-.0236.0049-.0323v-.0955l.0159-.0261v-.0246l.0038-.0313.0039-.0261.0169-.0125v-.013l.013-.0169.013-.0236.0106-.0357-.0062-.0285.0033-.0347.0131-.0285a.06.06,0,0,0,0-.0573l.0062-.06.027-.0091.0131-.027v-.0642a.1443.1443,0,0,1,.0091-.0752l-.0034-.0241.0034-.0188-.0019-.0092.014-.0333.0062-.0284.0189-.0174h.03c.0207-.0116-.0352-.0289-.0406-.0357L20,33.718l.0106-.0068v-.0135l.0111-.027-.0091-.0294-.0227-.0246.0058-.0289.0077-.0314.0053-.0125v-.0164c.0029-.0237.0125-.041.04-.0415l.0173-.0241.0179-.0034.0111-.0111c.0323-.0318.0236-.0873.0154-.1278-.0043-.0193.0043-.0482-.0029-.07l-.0164-.0169.015-.0526.0043-.0241.01-.054.0275-.0415-.0289-.0434A.06.06,0,0,1,20.13,32.96c.0154-.0241-.0082-.0338-.0131-.0564a.1687.1687,0,0,1,.04-.1139l.0308-.0593.0044-.0159.0116-.0082.0043-.0328a.0713.0713,0,0,1,.0058-.0583l.0053-.029c0-.0236.0082-.027.0207-.0439l.0077-.02.01-.0371.0106-.0265v-.0516l-.0145-.0039-.0106-.0091v-.0135l-.0039-.0285-.0081-.03.0115-.026.0034-.0314.0077-.0284.0092-.01.0058-.0121.0144-.0048-.0072-.0125.0227-.0068.0125-.0072-.0029-.0116Z"/><path class="cls-3" d="M25.1857,26.19c.0285-.0482.0048-.0916-.0048-.1384v-.0526c-.0275.0034-.0367-.0419-.0372-.0607-.0028-.0415-.0043-.0613-.0438-.0758l-.0087-.0482-.0174-.0405-.01-.0207v-.027l-.0251-.0314-.0072-.0429-.02-.04c-.014-.03-.0145-.0665-.0521-.0434l-.0048-.0168a.07.07,0,0,1-.0531-.0179l-.014-.012-.0255-.0054-.0482-.013-.0169.0155-.0106-.0155c-.0386-.0149-.0709.0044-.1071.0082a.3247.3247,0,0,0-.055-.0038l-.0584.0139-.0352.0029-.0106.0222h-.0612a.673.673,0,0,0-.1081.0405l-.054.0295-.06.0212-.0916.054a.2867.2867,0,0,0-.0661.0333l-.0569.0453c-.0569.0439-.1085.09-.1616.1355l-.0853.0709c-.03.0217-.0661.0184-.083.0555a.1957.1957,0,0,1-.0666.07l-.0728.0531a.4132.4132,0,0,0-.0964.1408l-.0357.0362-.0483.0381v.0588a.0861.0861,0,0,1-.0178.0589l-.029.0482-.03.0391-.0063.0289-.0193.0193-.0072.0608-.0319.0675-.01.0371-.0212.0246a.1586.1586,0,0,0-.0063.0811.595.595,0,0,1-.0091.0776c-.0218.0039-.014.0193-.0092.0323l.012.0155-.0086.0193.01.0439c-.0048.0178-.0207.0159-.0135.0356l.0251.03v.053a.5743.5743,0,0,1,.0275.0815v.03l.0188.0048.0072-.0144.0188.0443.043.0189c.011.0337-.0058.0506.0221.079l.0483.04.0241.0173h.0391l.0631.0184-.02.0217.02.0217c.02-.0039.0343-.0222.0564-.02l.0126.0111.04.0063H23.66l.0313-.0131v.0131c.0294,0,.042.0217.0666.0246.0169,0,.026-.016.055-.014l.0385-.0029.0131-.03.0578-.0232-.0072.0126.0439.0024c-.0106-.0217.0246-.0184.0285-.0367l.0569-.0227c-.0222-.0448.0757-.0144.0781-.0482l.03-.0333.0458-.0188.0188-.014.02-.0043.0323-.0318.042-.027.02-.0111.0125-.0193.055-.0111.0362-.0275.0057-.0125.0439-.0126c.0131-.01.0077-.0347.03-.0371l.0767-.0564c-.0068-.0193.0482-.028.0613-.0372l.0188-.0217L24.6991,27c.0168-.02.0212-.0188.0482-.0246a.1163.1163,0,0,0,.0781-.06l.0145-.026.02-.0131c.0068-.02-.0173-.0289-.0115-.0516s.0217-.0246.0439-.0308c.0342-.0073.0342-.0054.0511-.0357l.041-.0483.0251-.0559.014-.0237v-.0371l.0231-.0077.0169-.0246c.0125-.0328.0386-.041.0583-.0675a.1078.1078,0,0,0,.016-.0738c0-.03.0029-.02.0183-.0405l.0063-.0237h.0231c.0034-.0178-.0236-.0154-.026-.0371l.0212-.0386-.0159-.0159v-.0482Z"/><path class="cls-3" d="M24.39,30.5941c-.0743,0-.0709-.0646-.1167-.1008-.0251-.02-.0323-.123.0178-.124v-.0125l-.0255-.0483-.0314-.0906a.5429.5429,0,0,0-.054-.1611.289.289,0,0,0-.0733-.0854c-.068-.0482-.07-.0781-.0844-.0781a.68.68,0,0,1-.0965-.0251l-.1374-.014a.69.69,0,0,0-.2412.0439,1.4891,1.4891,0,0,0-.4.1838.8966.8966,0,0,1-.1182.0839.26.26,0,0,0-.11.0723l.0188.015a.35.35,0,0,0-.0685.0217l-.0434.0424c-.0289.0266-.0777.0622-.082.0965-.0559.0193-.1027.0965-.1379.1418a1.1277,1.1277,0,0,0-.12.1833c-.0637.1331-.111.2677-.1708.4041l-.0607.152c-.0126.0361-.0082.1654-.0483.17l-.0077.015c.0444.0776-.0034.1384-.0169.2219a1.3424,1.3424,0,0,0-.0231.2662c.0048.0989-.0208.1847-.0159.2792a1.959,1.959,0,0,1-.0333.2412c-.0034.0482-.0415.2633.0053.2894.01.0482-.0227.0453-.0314.0791-.0062.0231.0169.0747.0155.1042l-.0164.2045-.0116.0964a.4689.4689,0,0,0,0,.0786,1.4136,1.4136,0,0,1-.0482.4452c.0164.0183.0028.1167,0,.1515a.2662.2662,0,0,0,.0086.1615l-.0043-.0024c-.0179.0555.0053.1264-.0179.1814-.0993-.0743-.0221.135-.0188.1611.0029.0395-.0212.0742-.0231.1094s.0217.0743.0159.1206a2.2546,2.2546,0,0,1-.0429.2277c-.0174.08-.0227.1562-.0338.2363a.1357.1357,0,0,0-.0048.053l.02.0068a1.2183,1.2183,0,0,1-.0053.1929c0,.1447-.0289.2812-.0212.4274a.6116.6116,0,0,1-.0164.12.5956.5956,0,0,0,.0049.1186.2693.2693,0,0,1-.0049.108.3772.3772,0,0,0-.0062.1076c0,.0791-.0213.1577-.0213.2383v.5189c0,.043.0227.1269,0,.1573.0328.03.0044.0694.0116.108a.7054.7054,0,0,0,.0376.1037l.0323.0965c.0063.0342.0483.0607.0483.0834.03.0111.0154.03.0323.0449s.0183.011.0482.0217l.1013.0419a.604.604,0,0,0,.23.0434l.0608.0063.0549-.0217c.0362-.0116.09,0,.12-.0116l.0357-.0405.0483-.0217.0964-.0482c.0579-.03.1071-.0569.164-.0931a.6119.6119,0,0,0,.0965-.069.2941.2941,0,0,1,.081-.0709l.0921-.0559a.8335.8335,0,0,0,.1447-.1336c.0318-.0386.0193-.0772.0714-.0555.0241.0106.0748.0227.0993-.01s.0034-.0965.0382-.124a.0694.0694,0,0,0,.0641.0536l.0439-.0058.0178-.0347a.2579.2579,0,0,1,.0295-.0869c.0043-.0926-.0594-.0405-.1129-.0352-.04.0034-.0217.0116-.0256-.0318a.2513.2513,0,0,1,.0039-.0873.81.81,0,0,1,.0666-.1206c.0168-.0405-.0111-.0887.0086-.13.0092-.0207.0217-.026.0232-.054l.012-.069a.4165.4165,0,0,1,.0193-.1307.0907.0907,0,0,0,.0121-.0593c-.0053-.02-.0217-.0213-.014-.0483v-.0082l.0256-.0612a.1989.1989,0,0,0,.0231-.0873l.0121-.0786c.0033-.0145.0357-.07,0-.0656-.0179-.054.0159-.138-.0333-.1838.0159-.0482.0381-.0762.0246-.1292l-.015-.0719-.0062-.0256.0284-.0723.0131-.0318-.0034-.0405v-.0377l-.013-.0038a1.0432,1.0432,0,0,1-.0063-.1346l.0193-.0482.0125-.0589a.5862.5862,0,0,0,.0048-.13.128.128,0,0,1,.0126-.0593l.0058-.0622.0144-.1356c0-.0385.0261-.0713.03-.1094.0039-.0483-.01-.0859-.0034-.1283s.04-.0608.0353-.1023a.2949.2949,0,0,1,0-.13h.0159c.0082-.0193-.0034-.0482,0-.07l.0222-.0517a.4458.4458,0,0,0,.0274-.1109.2629.2629,0,0,0,.0029-.1225.7178.7178,0,0,1,0-.1278.2309.2309,0,0,1,.0073-.1244l.0246-.028a.3151.3151,0,0,0,.0255-.1645c.0029-.0246-.0086-.0313.0049-.0559l.04-.0362c.013-.0265,0-.069,0-.1076v-.1128a.3755.3755,0,0,1,.0038-.1192l.0227-.1138a1.9536,1.9536,0,0,0-.0145-.2368.46.46,0,0,1,.0029-.1172c.01-.0309.0386-.0545.0483-.0854s.014-.0815.0231-.1123a.69.69,0,0,0,.0333-.1144c.0029-.0458-.0285-.0733-.01-.1181.0067-.0164.027-.0145.0323-.0434s-.01-.0376-.0126-.0584c-.0077-.0482.0087-.053.0237-.0965a.4827.4827,0,0,0,.01-.13l.0068-.0444-.0227-.0313a.2468.2468,0,0,1,.0159-.082c.0184-.0526.0483-.0854.0661-.1375l.03-.0848c-.0034-.0324-.04-.0483-.041-.0849l.0183-.0965.04-.0564-.0256-.0193c-.0231-.02-.0328-.0656-.0482-.0912a.3732.3732,0,0,1-.0536-.1476.277.277,0,0,1,.0208-.1586C24.2915,30.6134,24.3962,30.6462,24.39,30.5941Z"/><path class="cls-3" d="M27.2283,28.2621c.0174-.0255-.0111-.0193-.027-.013v-.0053c-.0511.02-.1047.03-.1558.0453s-.0965.0391-.1447.056l-.0482.0279-.0536.02-.0516.0222-.0574.0236-.0448.0377-.0454.0289-.03.0121-.0193.0183a1.7538,1.7538,0,0,0-.17.1447l-.08.08c-.025.0251-.04.056-.06.08l-.0135.02-.02.0144-.0285.0434-.0482.0931c-.02.0381-.0265.0811-.0434.1182a.7641.7641,0,0,0-.0434.11.0721.0721,0,0,0,0,.0631c-.0323.0285-.0328.0719-.0425.1144l-.0342.1485a1.1722,1.1722,0,0,0-.0357.2479l-.0145.2238-.0058.1148-.0057.0564-.0155.0511c.03,0,.0155.0516.014.0661a.32.32,0,0,0,0,.0806,1.222,1.222,0,0,1-.0106.2059c0,.08-.0217.1572-.0154.2368a.5221.5221,0,0,1,.0077.0671l-.0116.0559-.013.1225c0,.042-.0111.09-.01.1331a1.2186,1.2186,0,0,1,.0039.1351l-.0063.1321a.7975.7975,0,0,1-.0159.1192,1.0723,1.0723,0,0,0-.0173.1418.5822.5822,0,0,1,0,.07c-.0049.0188-.0246.0342-.0029.0521-.0222.0116-.0179.0665-.0188.0911a.3357.3357,0,0,0,0,.0763l.01.03-.0092.0237-.0048.0347-.03.0535a.457.457,0,0,1-.039.123c-.0444.0039-.0377.1095-.0063.1129V32.48c.0188.0145-.03.0579.0053.0622.0048.0155-.0434.17-.0034.1573l-.0053.0622c-.013.0193-.0333.0275-.04.0511s.0159.0439.0236.0637c.0169.04-.0236.0757.01.11.02.0207.0159.0154.0154.0482l.0034.0319-.014.0246-.0145.0564-.0217.0516-.0029.0627L25.66,33.33a.3885.3885,0,0,1,.0024.0676l-.0217.0559c-.0058.027.0087.027.0188.0482l.0179.0483a.2237.2237,0,0,1,.0106.1307v.014a.1059.1059,0,0,1-.0126.108c-.0173.0222-.0115.0164-.0028.0424l.0154.0762a1.2,1.2,0,0,1-.014.124,1.048,1.048,0,0,1-.0058.13c-.0058.0372-.04.0574-.0415.1l-.0058.0641c-.0053.0217-.013.0294-.0038.0521s.0284.0371.0265.0709l-.0111.0637a.532.532,0,0,0,.0053.1273.7244.7244,0,0,1,.0029.1292l-.0082.1337a1.149,1.149,0,0,0,.0053.135.9866.9866,0,0,0,.0111.1273l.0193.0449.0092.0545.0183.0511.0077.0313.0275.0165.01.0405.0159.0376c.0121.0289.0261.03.0483.0511l.026.03.0232.028.0038.0164.014.0111.0314.0188h.02v.0309c.0232.0038.0367.0231.06.03l.0637.025c.0106-.03.07.0082.0965.01a.388.388,0,0,0,.1239-.0077l.0227-.0048L26.31,35.68h.0579a.607.607,0,0,0,.1022-.0366c.0208-.0068.0685,0,.0753-.028l.0482-.0091c.0038-.0314.0882-.0222.1128-.0391l.0936-.055.0444-.0309.0251-.0091.0207-.0174.0261-.0072.0168-.0222.0483-.02.0458-.0217.0366-.0328.0357-.0274.0405-.0348.0555.0048c.0188-.0082.0077-.0313.014-.0482l.0246-.0352c.0376-.0391.083-.07.1157-.1114l.0285-.04.0362-.0352a.4461.4461,0,0,0,.0564-.1012l.0555-.0936.04-.0965c.01-.0207.0275-.09.0507-.0964l-.0024-.0348.0144-.0352.0212-.0791a.95.95,0,0,0,.0189-.1447l.012-.136a.7889.7889,0,0,0,.0034-.122.167.167,0,0,1-.0063-.0588l.0126-.0483c.0082-.039-.0063-.0786.01-.1181.0246,0,.0333-.0483.0352-.0637a.1713.1713,0,0,0-.0077-.0883.242.242,0,0,1-.02-.0825l.0265-.0279c.0111-.0184,0-.02-.02-.0184a.3678.3678,0,0,1,0-.1128l.0048-.1187.0024-.1562a.6442.6442,0,0,1,.0029-.0748c0-.0188.0188-.04.015-.0593-.0034-.0116-.04-.0371-.0049-.0429.0073-.0193-.0033-.0434,0-.06l.0092-.0647v-.1273l.01-.1317c0-.0453.0053-.0873.0034-.1326a.0672.0672,0,0,1,.0193-.0627c-.0212-.0116-.0174-.0425-.0169-.0642.0482,0,.015-.067.0135-.093a1.1941,1.1941,0,0,1,.0058-.124c.0043-.0333.0338-.0584.0362-.0916,0-.02-.0126-.027-.02-.042l-.0092-.055a.7548.7548,0,0,1,.0068-.1239.6161.6161,0,0,0,.02-.1061l-.0227-.0111.0145-.027-.0135-.0241.0135.0082.0053-.0618c.0029-.0241.0173-.0453.013-.0675-.0265-.0111-.014-.0381-.01-.0579l.0125-.0323.0154-.0318c.041-.015.01-.0565-.02-.0632-.0029-.02.0308-.014.0429-.027.0212-.0212.0048-.0285.0362-.0265h.025l.014-.0266-.0255-.0492-.01-.0588a.1282.1282,0,0,1-.0067-.0589l.026-.0511.0034-.0593c.01-.029.0439-.0391.0622-.0594s.0077-.03,0-.0569l-.0091-.0655.01-.0623c.0125-.0284.0309,0,.0482-.0212l-.0419-.027.013-.0545c.0193-.0323.0612-.0256.0791-.0617a.0735.0735,0,0,1-.0256-.0651.1387.1387,0,0,1,.02-.0777l.0337-.0685c.0111-.0188.0174-.0569.0483-.0579l.0173-.052.0343-.0521.0728-.0965.07-.0849.07-.09c.0246-.03.0429-.0694.0689-.0964.0174-.0189.0444-.0246.041-.0531l.0222-.0227.0376-.0087V29.77l-.0091-.0058.0443-.0294.0406-.04.0173-.0188.0241-.0309h.0319l.0188-.0241.0222-.0237.0342-.02-.0053-.0073.0637-.0443c.0164-.0106.053-.0309.0554-.0526a.1721.1721,0,0,0,.08-.042c.0232-.0265.0579-.0482.08-.0709l.0386-.0366.0154-.0174.0265-.0106.0391-.0391.0482-.027.0907-.0569a.7525.7525,0,0,1,.0632-.0656l.0217-.0087.0154-.02.0429-.02c.0483-.0294.07-.122.1279-.1273l.0376-.0922.027-.0424.04-.0285.0174-.0482.0241-.0424A.2205.2205,0,0,0,29.8,28.57c-.0435.01-.0078-.1051-.0078-.13l.0111-.0642.0164-.07-.0251-.0507.014-.0438h-.01l-.0227-.0483-.0183-.0173v-.0135l-.01-.0073L29.74,28.11l.0072-.01-.0183-.0189-.0261-.0439L29.7,28.0079l-.0149-.0212c0-.0256.01-.0313-.0053-.054l-.0367-.0347-.027-.0435-.0154-.0183-.0092-.03-.0376-.0434a.1711.1711,0,0,0-.0762-.0661l-.0483-.0313-.0646-.0169a.3938.3938,0,0,0-.1283-.03l-.0193.0058H29.18l-.0545.0048-.0637.0106-.0607.0135-.0483.013-.0265.0087-.0111.0058-.0087.0154-.0578.0174L28.8,27.7045l.0024.0251-.0024.0212-.0352.0135-.0154-.0376h-.0072l-.0078.0179c-.0164.0063-.0193.0178-.04.0173l.0265.0222-.0554.029-.02-.0164-.02.0067-.03.0082-.0448.0184c-.0184.0038-.0348,0-.0425.0217-.0482-.0049-.03.0342-.0535.053s-.0641-.0058-.0873,0l-.0275.01-.0024.0145c-.0352,0-.0752-.0087-.069.0362l.0483-.0121.0077.0208a.3711.3711,0,0,1-.1.0144c-.0482-.0029-.0771.0232-.093.0232-.028,0-.029.0347-.056.0482a.5206.5206,0,0,1-.122.0323c-.0449.01-.082.0434-.1278.0512l-.0483.0144a.0819.0819,0,0,1-.0569.01c-.0241,0-.0723,0-.0829.0231-.0661.0058-.137.0058-.204.0155l-.09.0159a.5186.5186,0,0,1-.09.0193Z"/><path class="cls-3" d="M51.7276,25.7141v-.0213l.0116-.0241c0-.0236-.0058-.0082-.0217-.0159l-.041-.0318c0-.0145.0314-.0232.0232-.0482s-.028-.014-.0357-.0324l.0024-.0274-.0159-.02-.01-.0545c-.0323-.0029-.0178-.03-.0279-.0482l-.04-.0333c-.0144-.0232-.0318-.0193-.0279-.0429.0038-.0314-.01-.0266-.0222-.0483l-.027-.0482c-.0058-.0275-.015-.03-.0362-.0424l-.0256-.0227-.0236-.0116c-.0207-.0067.0111-.0231-.0087-.027s-.0154-.03-.0371-.0386-.0333-.026-.055-.0226l.0193.0313a.08.08,0,0,1-.0709-.03c-.01-.0193.0034-.0449-.028-.0535-.0173.0289-.03.0029-.0511,0-.0053.0246.0125.0265.0256.04a.11.11,0,0,1-.0762-.0067.3188.3188,0,0,0-.0806-.0029l-.0791-.02c-.0227,0-.0439-.0159-.0772-.01s-.0439-.02-.0718-.0184-.055-.012-.0849-.012c-.0646,0-.1288.013-.1929.012l-.0348-.0053c-.0221-.0029-.0357.0053-.0535,0l-.0236-.0091-.029.0135-.0622.0139L50.22,25.02l-.1162.0324-.0347.0188c-.069.0275-.14.053-.2132.0863a.4006.4006,0,0,0-.0989.0564l-.0366.0324-.02.0149-.0255-.0048c-.0213,0-.0483.0337-.0681.0448l-.0115-.01c-.01.0265-.0622.041-.09.053a.882.882,0,0,0-.0912.0507l-.0892.0482c-.0391.0256-.0854.0453-.1254.069l-.0424.0106-.0246.0275-.0439.013c-.0068.0227-.0594.0217-.0483.0424h-.0265c-.0222.0246-.0482.0232-.0772.0415l-.0337.0285-.0391.0135-.0781.0352v.0178l-.0155-.0091-.0482.0212-.0381.0241-.03.0034-.0034.012-.0168.0058-.0627.03-.0483.0231c-.03.0183-.0728.0265-.0993.0449a.597.597,0,0,1-.1018.0516l-.0482.0111c0,.0284-.0782.0347-.0965.0434-.0323.0154-.0748.0231-.11.0376a.6691.6691,0,0,1-.232.0651.7577.7577,0,0,1-.0825-.0063c-.0236,0-.0507-.0207-.0719-.0188l.0034-.0154a.1651.1651,0,0,1-.08-.0439c-.0376-.0333-.013-.0675-.041-.0854a.0865.0865,0,0,0-.0762-.0116c-.0193.0111-.0362,0-.0333-.0236l.0106-.0193.0068-.0275c-.0043-.0357-.0232-.01-.0415-.012s-.02-.0381-.013-.06l.01-.0087v-.0145l.0034-.039c-.0285-.0029-.0111-.0415-.0415-.0324a.0331.0331,0,0,1-.04.0243l-.0079-.003c-.0289-.01-.013-.0193-.0275-.0372l.0246-.0067-.0159-.0169c-.0116-.0135-.0246-.027.0024-.03a.0966.0966,0,0,0,.0767-.0709l-.0073-.0516-.0284-.0063-.0164-.0193c-.0135-.0048-.0386.015-.0482-.0048l.0024-.0608c-.056.0044.027-.0713.025-.0839l-.0641-.0115c-.0246,0-.0506.01-.0482-.0174l.0159-.0178-.0092-.0285c-.01-.0241-.0135-.0154.0029-.04l.0159-.0512c.0034-.0337-.0111-.0265-.0221-.0511l.0144-.0482c.0256-.0169.027.0188.0483.013l.0188-.0521c-.0078-.03-.0246-.0125-.0483-.0173-.0332-.0053-.0636-.0608-.04-.0893l.0579-.0135c.027-.025-.029-.0173-.0376-.0207-.0251-.0082-.0174-.0275.0077-.0347s.0444.0106.0579-.0058v-.0261l-.0034-.0226c0-.02.01-.0434-.028-.0352s0,.0226-.0178.0482c-.0111.014-.0434.014-.0449-.0077l.0135-.0193-.0077-.0265a.1937.1937,0,0,1,0-.0579c0-.0217-.0179-.04.0154-.0289.0227.0081.0237.0429.0405.0149a.2419.2419,0,0,0,.0073-.1022v-.0454l-.0227-.04c-.01-.0227.0034-.0232.0111-.0362l.0154-.041c.0034-.0111.0034-.0482.027-.026v.0482l.0217-.027c.0087-.02.0078-.0116-.0043-.0265l-.0174-.0275-.0173-.0348-.0116-.03-.0111-.0449c-.0058-.0482.0391-.0139.0425-.0424s.0323-.0338-.01-.0511l-.0747-.0251-.01-.0376-.0033-.0381.0178-.0352c0-.014-.02-.0131-.0145-.0323.0179-.0126.0439,0,.056-.0213s-.0145-.0236-.0314-.0333a.0529.0529,0,0,1-.0226-.0516v-.0294l.014-.0226c0-.0189-.0049-.0044-.0116-.0169l-.0044-.0261h.0618c.03-.0159.0144-.0236.01-.0448s0-.0357-.0275-.0483-.0337,0-.0419-.0308a.26.26,0,0,1,0-.0825,1.3709,1.3709,0,0,0-.0092-.1447c0-.0482.0092-.0964.0092-.1447V23.13a.83.83,0,0,1,0-.1592l.0193-.0569-.0169-.0261.0125-.0964h.0618c.02.0058.06.0149.03-.015l-.0506-.0333-.0058-.0192-.0313.0024v-.0709c0-.0343.0043-.0275.0342-.0328.0217-.0034.0439-.0077.054-.0323.013-.0333-.0043-.0295-.0323-.0328a.0607.0607,0,0,1-.0559-.0425.3612.3612,0,0,1,.0062-.1374c.0193,0,.0328.0111.0483.0077s.0149-.015.0386-.0077l.0337.0048.0044-.0236.0125-.014c-.0405-.014-.0367-.015-.0381-.0574l-.0232-.0666c-.0149-.0217-.0313-.0275-.0183-.054l.0169-.0256-.0135-.04.027-.0227c-.0087-.0125-.0434.0024-.0482-.0183s.0294-.01.0395-.0212l-.0043-.0483c-.01-.0183-.0261-.0135-.0217-.04.0024-.0164.0086-.0333.0337-.0347.0179,0,.0256.0226.0444.0217s.0193-.0237.0183-.0405c-.039.0337-.0183-.0251-.054-.0251a.1564.1564,0,0,1,.0039-.1249c.0111-.0222.0053-.03.0072-.0531l.0068-.0212.0057-.0265c-.0144-.0232-.0593.0414-.0723.0559-.0058.0082-.0251.0357-.0449.0217l-.0048-.0593.0236-.027v-.0458c-.0255-.0121-.0246-.0217-.0246-.0483V21.47a.3333.3333,0,0,1,.0169-.1322l.0285-.042.0294.0049h.026l.0189-.0135.0356-.0029.0082-.0232-.0236-.0048c-.0236-.0072-.0135,0-.0236-.0212l-.0155-.043c-.0077-.0332-.0144-.054.0025-.0795.0091-.0135.0323-.0092.0279-.0454-.0033-.0149.0348-.012.0155-.026s-.0483.0067-.0647,0c-.027-.0106-.0212-.0482-.04-.0728s-.03-.0256-.0357-.0483a.2647.2647,0,0,1,.0034-.1374c.02,0,.0694.0154.0781-.0068-.02-.0289-.0207-.0738-.0526-.0854l-.0627-.0178-.0043-.0584c-.0034-.04-.0323-.07-.0236-.109l.0159-.0545c-.0111-.0193-.0169.0348-.0449.02l-.0135-.0965a.0489.0489,0,0,0-.02-.0482l-.0424-.0482c-.0125-.02-.0193-.0208-.0174-.043l.015-.0482c-.0034-.0569-.0439.0044-.0526.0261-.03,0-.055-.0608-.07-.0811l-.0526-.0482-.0482-.0434a1.9384,1.9384,0,0,0-.2411-.0907.5038.5038,0,0,0-.1269-.0246c-.0482-.0048-.1-.0135-.1485-.0135l-.14.0024a1.0885,1.0885,0,0,0-.1389.027l-.0483.0193h-.0289l-.0405.0116-.0728.01-.0671.0256a.493.493,0,0,0-.1119.0338l-.0511.0371-.0834.0362-.1163.0574-.217.1278-.1071.0622a.41.41,0,0,0-.0964.0632l-.0222.0525-.0584.0483a.3619.3619,0,0,0-.0964.0907.38.38,0,0,1-.0671.0819l-.0424.04-.0584.0357c-.0482.0482-.1244.0964-.1543.1644l.0067.0136c-.0226.0038-.0169.0231-.0313.0332l-.0425.0193c-.02.0241-.0236.056-.0439.08a.4438.4438,0,0,1-.0873.0661l-.0434.0265c-.0236.0111-.0226.02-.0361.041a.2669.2669,0,0,1-.0965.067.753.753,0,0,0-.1051.0507l-.0613.0164-.054.0347-.056.0212c-.0246.0048-.0482-.0038-.0718,0-.0434.01-.0661.0261-.1138.01l-.055-.0135-.0594-.0164a.3929.3929,0,0,1-.0906.0067c-.0275-.0053-.0275-.0193-.0367-.0395s-.0193-.0372-.0458-.0324-.0251.0121-.0516.0025a.21.21,0,0,0-.1307.0082l-.0526.0289-.04.0366c-.0333.0242-.1008.0082-.138-.0033a.4874.4874,0,0,0-.1384-.01,1.4009,1.4009,0,0,0-.2841.0343.9977.9977,0,0,0-.1268.0434l-.06.0183-.0367.0111c-.0482.0126-.0757.0507-.12.0675a.618.618,0,0,0-.1172.0623l-.0637.0434-.0125.0193-.0309.0082-.0149.0212-.0367.0135c-.0183.01-.0183.0439-.06.054s-.068.0733-.0993.1076l-.07.0964-.0656.09a.7038.7038,0,0,0-.0525.0994.5213.5213,0,0,0-.056.11l-.0424.1147a.9351.9351,0,0,0-.082.2412,1.07,1.07,0,0,0-.0207.1447.9406.9406,0,0,1-.0044.1374c-.013.0912-.0193.1838-.0251.2769a1.0843,1.0843,0,0,1-.012.23.8967.8967,0,0,0-.01.177,1.4376,1.4376,0,0,0-.0082.17.9166.9166,0,0,1-.01.1664l-.01.0333.0126.0342-.01.04a.2527.2527,0,0,0,.0049.0415,1.3149,1.3149,0,0,1-.0107.1717,1.5718,1.5718,0,0,0-.0072.1736c0,.0608-.0111.1177-.0067.1794v.0478c.0057.0381-.014.0434-.02.0824-.0034.0232.0063.0579.0039.0864l-.0039.0935c0,.0275-.0082.0763.0082.0965-.0227.0169,0,.0342.0068.0531-.0261.0236-.0189.0738-.02.1051l-.0053.0531c-.0082.0241-.0285.0414-.0193.0694l.0193.0256-.014.0328a.5.5,0,0,0,0,.108l-.0053.083-.0063.18c-.0063.0594.0116.124.0029.1833l-.0077.0483a.0808.0808,0,0,0-.0063.0434c0,.0419-.0077.0873-.0048.1239a1.1372,1.1372,0,0,1-.0053.1182l-.0058.06a.256.256,0,0,0-.0106.0651l.013.0072-.0087.0116c.0145.0222,0,.0757-.0043.1042s.0135.0824-.0179.0931l.0136.0091c0,.029.0024.0671,0,.0965l-.0107.0574c.04.0067.0092.0453.0029.0617a.2252.2252,0,0,0-.0072.0825c0,.0617-.0077.1249-.0106.1881l-.0077.0825-.0135.0791.0115.0332.0063.0435a.3639.3639,0,0,1-.0087.0844l-.0106.1027-.0043.0617a.2359.2359,0,0,0,.013.056c.0039.0217-.0068.0183-.0106.0328a.3851.3851,0,0,0-.0058.0916l.0077.0675a.5492.5492,0,0,0,0,.0748.718.718,0,0,0,.029.1625l.0144.0121v.02l.0237.0405.0255.0758c.0265.0617.0574.0747.1085.1085a.3454.3454,0,0,0,.151.0786l.08.0154.0444.0078.0332-.01a.642.642,0,0,0,.1626.0082,1.7177,1.7177,0,0,0,.18-.0285c.0574-.0207.109-.0482.1654-.0675l.0588-.0361a.0934.0934,0,0,1,.0724-.0261c.0284,0,.0337-.0347.0545-.0439l.0371-.0082.0372-.027c.0332-.0178.0737-.0255.1085-.0419l.0405-.0338.0559-.0357.0266-.0193.0376-.0116.0125-.0289.0285-.0222.0415-.0641.01-.0029c.0125.0241.0777.01.055-.0116h-.0125c-.0391-.042.0636-.0333.0834-.0661l.0053-.08-.0092-.0323.0029-.0313.0184-.01.0135-.026.0342-.0106c.0424-.015-.0111-.0155-.0135-.041l.0135-.0328.0043-.0348.0208-.0221.0038-.0367c.0777.0077.02-.0265.0338-.0526l.0439-.04.0333-.0246c.0169-.0294-.0145-.0179-.0111-.0323.0087-.0343.027-.0179.055-.0217,0-.0348.0154-.0584.0053-.0912s-.0242-.0386-.0434-.0608a.1284.1284,0,0,1-.0169-.0829c-.0015-.03-.03-.0584-.0237-.0965.0324-.014.0251.08.0642.0878s.0154-.0285.0058-.0424c-.0184-.02-.0159-.03-.0184-.0594l-.0067-.03c-.0068-.0106-.0169.0077-.0179-.0159s.028-.0328.0357-.0545l.0179-.0559-.0121-.0208.0053-.0255c.015-.028.0574-.0415.055-.0787l-.0212-.0588c-.0087-.0063-.0434.0116-.027-.0246-.0164-.0077-.0965.0111-.0782-.0328.0126-.028.0676-.0058.0873-.0169V26.519l-.026-.0106c-.03-.0121-.0246-.0289-.0347-.054s-.03-.0333-.0044-.054l.0314-.0217c.0048-.0232-.0227-.0285-.027-.0439-.0087-.03.0361-.027.0574-.0381a.0871.0871,0,0,0,.0323-.0873l-.027-.0039-.0044.0082-.0058-.0106c-.0236-.0068-.0236.026-.0414.0362s-.0377.0043-.0333-.02l.0357-.0449c0-.0212-.0381-.0067-.0415-.0308l.0193-.0618a.5419.5419,0,0,0-.0034-.0685c0-.0482.0034-.09.0053-.135l.0024-.1109a.38.38,0,0,1-.0024-.0965l.0111-.0323v-.0449c0-.0231-.0024-.0231.0246-.0231h.0482c.0049-.0266-.0275-.0275-.0154-.0526l-.0289-.028-.0261-.02c-.0154-.0361.0237-.0429.0193-.0694-.0482-.0092.0323-.0545.0372-.0588.0154-.0232-.0116-.0174-.015-.0309l.0058-.04c0-.0092-.03-.0772.01-.0483.0212.0164.01.0656.013.0888a.0558.0558,0,0,0,.0541-.01l.0549-.0251c.04-.0135.0266-.0241,0-.0386l-.0381-.0159.0179-.0482L43.268,25.12l-.0222-.0386.0357-.0265-.0188-.0511.0086-.0217-.0231-.0126c-.0362-.0173-.0642-.0342-.0743-.0723-.0188-.0111-.0289-.0034-.027-.0309l.0159-.0458-.01-.0039v-.0554l.055.0173c.0212.0039.0434-.0164.0135-.0183,0-.0357-.0261-.04-.0405-.0641.02-.0227.122,0,.0771-.054l-.012-.015h.0482c.0593.0053.028-.0506.054-.0728s.0029-.0483-.01-.0757L43.32,24.44l-.0483-.0425A.0618.0618,0,0,0,43.29,24.35c-.0024-.03-.0208-.0222-.0246-.0439s.0053-.0391,0-.0588l-.0222-.0483c-.0024-.0255.0391-.0656.06-.0656s.0839.0217.1032-.0154l-.04-.0371c-.0193-.0082-.0483.0029-.0661-.0106.0289-.0155.0748.0029.0854-.0406.0043-.0279-.0246-.0159-.0275-.0381s.0275-.0168.0236-.0434l.04-.0284c0-.0227-.0314-.0135-.0483-.0126-.0434.0034-.0858-.0144-.0588-.0569l.012-.0207L43.35,23.82c.0121-.0231-.0221-.0279-.0144-.0482s.0964-.0068.0448.0405l.0367.0029.0251-.0207c.013-.0169.0482-.0348.0332-.0608s-.0525,0-.066-.0212.0193-.0483.0328-.0661a.0485.0485,0,0,0,.0357-.0405c.0043-.0251-.0193-.0372-.0193-.0564l.0178-.02.0034-.0372a.6888.6888,0,0,0,0-.07l.0038-.0607c-.0082-.0256-.0241-.0208-.01-.0521l.014-.0246.0371.0086.0068-.03-.0034-.016.0169-.0082a.1155.1155,0,0,0,.01-.0574l.0222-.054a.2071.2071,0,0,0,.01-.1254c-.0077-.0246-.0144-.0328.0126-.0482l.0545-.0275a.4515.4515,0,0,0,.0931-.0622.1188.1188,0,0,0,.0265-.1153l-.0386-.0482.03-.0058.0111.027c.0179.0217.0236.0082.0381-.0116l.055-.0617a.6924.6924,0,0,1,.1018-.0878l.0516-.0371.0458-.029c.0313-.0275.028-.0824.0333-.121a.2383.2383,0,0,0,.0863-.0483c.0222-.02.0043-.0149.0077-.04l.0179-.041.0323-.0415.0448-.0313c.0213-.02.0227-.0179.0541-.0208.0559-.0067.0559-.066.0964-.0892l.0357-.028c.0246-.0082.0506-.0029.0695-.0183l.0458-.0429c.0236-.0145.0482,0,.0675-.0222a.1694.1694,0,0,1,.1037-.0569c.0347-.0058.0738.0053.1032-.01a.1029.1029,0,0,1,.0588-.0226.0522.0522,0,0,1,.0372.0087l.0212.0159.0246-.01.0227.0159a.33.33,0,0,0,.1292,0,.2762.2762,0,0,1,.2041.1341l.0323.0555.0212.0482.027.0145-.0039.0212a.1513.1513,0,0,0,.0029.06,2.7027,2.7027,0,0,1,.0111.2788c0,.1032-.01.21,0,.3111.0058.0439-.0077.0892-.0024.1345,0,.0213.0068.0405-.0067.0594l-.02.012c-.0058.02.01.01.0178.0193l.0087.0048a.4069.4069,0,0,1-.0087.1264c-.0082.0434.0053.0863,0,.1321-.0091.0965-.014.1891-.0193.2894l.0044.0483-.01.1114-.0078.06-.0231.0082L45.38,23.85a.1265.1265,0,0,0-.0033.0646l.0236.0034a.1652.1652,0,0,1,.0067.0617c-.0067.0222-.0217.0213-.0371.0381a.09.09,0,0,0-.0178.07l.0192.0164.0053.0337c0,.028-.0067.0569.0087.0777l.02.0154v.0362a.291.291,0,0,1-.0338.1148L45.35,24.44c0,.02.0068.0415.0053.0646a.5733.5733,0,0,1-.0289.1616c-.0169.0453.0159.0632.026.1042a.49.49,0,0,1,.0246.1263.3716.3716,0,0,1-.0246.1486.305.305,0,0,0,0,.13c0,.0482.0044.0965,0,.1495l-.0058.0675-.0024.0295-.0106.0415c-.0188.0323-.0068.0535-.0121.0849s-.0371.055-.0217.0892c.0116.0227.0241.0314.027.0569a.1537.1537,0,0,1-.0067.0646.1928.1928,0,0,0-.0063.0676l.0154.0617a.8413.8413,0,0,1-.0091.1307,1.8731,1.8731,0,0,0,0,.27,1.017,1.017,0,0,1,.0111.135.3436.3436,0,0,0,.0222.1182.2494.2494,0,0,1,.0057.0656.09.09,0,0,0,.0246.053l.0348.0357.02.055.0237.0627.0458.0526a.4548.4548,0,0,0,.0752.0863l.054.0362.041.04a.412.412,0,0,0,.1177.0578c.0237.0087.0405,0,.0444.0589a.0546.0546,0,0,1-.0309.055l-.0482.0318-.0762.0482-.0424.013a1.3784,1.3784,0,0,1-.1356.08c-.0337.0169-.0511.04-.0858.06a.7275.7275,0,0,0-.0912.0545l-.0535.028-.0482.0381-.0483.0246-.0526.0318c-.0482.0217-.0921.0536-.14.0781-.0724.0367-.1447.068-.217.1061-.1645.0888-.3087.193-.4742.274a1.2819,1.2819,0,0,0-.1186.056l-.0617.0409-.0483.0246a1.4253,1.4253,0,0,1-.2315.123.2629.2629,0,0,0-.09.0565l.0073.0077-.056.0149-.0545.028c-.0458.0323-.1032.0574-.15.0868l-.03.0116-.0728.0429-.0612.0425c-.0169.0077-.0594.0067-.0627.03a1.9619,1.9619,0,0,0-.2229.1283,1.122,1.122,0,0,0-.2146.1158l-.0434.04-.0256-.0077-.0207.0188-.0564.0222-.0483.0294-.2291.1264c-.0776.0434-.162.0752-.2348.1249l-.1129.0729a.497.497,0,0,1-.1018.06,1.6516,1.6516,0,0,0-.2016.1013.5644.5644,0,0,1-.11.0483c-.0434.0135-.0483.0482-.0868.0675l-.0483.0313c-.02.0068-.03-.0067-.0525.0082a1.0643,1.0643,0,0,1-.1062.0738c-.0766.041-.1509.0965-.2281.14l-.0786.0516-.0709.0285-.0482.0323-.0516.0279a.1109.1109,0,0,0-.0507.0372l-.0482.0231-.0526.0328c-.0246.0049-.03-.0053-.0482.015l-.0343.0424-.03-.0033-.0261.0154-.02.02-.028.0067-.014.0227-.0285.0058a.18.18,0,0,0-.0892.0627c-.0149.0212-.0222.0169-.0482.026l-.0512.028-.053.0212c-.02,0-.0212-.0274-.0482-.0274l-.0695.0352v.0255l-.0289.0188c-.0275.0227-.0483.0656-.0893.07-.0217.0029-.027-.014-.0482.0077l-.0313.0376a.2285.2285,0,0,1-.0965.0564.7066.7066,0,0,0-.1162.0483c-.0348.0178-.0772.0265-.1129.0419a.6184.6184,0,0,0-.1124.0647c-.0337.0241-.07.0274-.0964.054l-.0574.0482-.03.0256a.9257.9257,0,0,1-.0917.054.8292.8292,0,0,1-.1037.0694l-.0892.0343a.1366.1366,0,0,0-.081.0443h0l-.1037.0767a.3431.3431,0,0,1-.1042.0521.4845.4845,0,0,0-.1046.0675l-.0661.041-.0564.02-.0618.0458c-.0145.01-.0738.0352-.0738.055l.0121.0087c-.0965.0352-.1867.1138-.2846.1606a2.8083,2.8083,0,0,0-.2821.177c-.1722.1076-.3468.2069-.5219.315a3.1587,3.1587,0,0,0-.3178.204l-.0555.0443-.0579.0121c-.0308.0063-.0289.0193-.0482.041a.1745.1745,0,0,1-.0671.0357l-.1051.0574c-.0362.0241-.0772.0366-.1095.0622l-.054.0371-.0434.0271a.5849.5849,0,0,1-.1018.0607l-.0482.0256c-.03.0067-.0174.0063-.0342.0284l-.0483.027-.0448.0309-.0227.0246-.0323.0116-.0328.0376-.0227.0106-.02.0236-.0434.03-.1109.0357h0c.0111-.0294-.0082-.0675-.0183-.0964.02-.0184.0246-.0193.0159-.0439s-.015-.0295-.0024-.0545l.012-.0536c-.0072-.0255-.0193-.0154-.0082-.0482a.22.22,0,0,0,.0092-.1133.1178.1178,0,0,1-.0082-.1115c.0174-.0405-.0048-.0709-.0121-.1109a.2765.2765,0,0,1,.0174-.1211c.0092-.0405-.0063-.082.014-.12l.0169-.0574v-.0265l-.014-.0212c0-.0261.0145-.0169.028-.0309l.0024-.0482.0072-.04-.013-.0149.0039-.0231c-.0039-.0372-.0483-.0343-.0285-.0743a.16.16,0,0,0,.0246-.0965c-.0531.0121,0-.0386,0-.0516-.0371,0-.0227-.09-.015-.1133h.0348c.0048-.0213-.0266-.0251-.0348-.0415-.0139-.0251,0-.0294.015-.0482a.169.169,0,0,0,.04-.0965c0-.0251-.013-.0294-.0222-.0482s0-.0241.0135-.0454l.0073-.03-.0126-.0193c-.0086-.0217.0053-.0265,0-.0482s-.0376-.02-.041-.06a.7733.7733,0,0,1-.0024-.0888l.0029-.0834.0029-.0429.0212-.03-.0241-.0169.0039-.0424.0174-.0777a.7087.7087,0,0,0,.0106-.1683v-.0647l.0241-.0506.03-.0284c-.0188-.0107-.0343.0072-.0483-.0121l.0073-.0622c.0067-.041-.0063-.0854,0-.1283a.9255.9255,0,0,1,.0111-.1187c.0115-.0361.0419-.0641.0323-.11-.0449,0-.014-.0338-.0068-.0506a.2033.2033,0,0,0,.0034-.0854c-.0034-.0627.0111-.1235.0135-.1867l.0159-.176.0073-.0878v-.0424l.0207-.0295h0c-.0357-.0091-.0043-.0593,0-.0873l.0106-.1186c0-.0425,0-.0863.0024-.1273.0034-.0237-.0193-.1018.0145-.1.0034-.1307.0289-.2618.0376-.3926l.015-.353.0144-.0965.0034-.0964c.0068-.0594.0048-.1221.0068-.1843l.0091-.0858.01-.0328-.0261-.0285c-.0043-.0255.0289-.0347.0338-.0578.0062-.0309-.0184-.0415-.015-.0671a.43.43,0,0,0,.0183-.08l.0068-.0863c.0048-.0535,0-.1046.0048-.1577.02-.0063.1153-.0328.0555-.0661-.0053.0309-.02.0483-.0444.0169-.0149-.02.0048-.0453.0048-.0685s-.013-.0622.0073-.0752l.027.013c.0255-.0342-.0183-.0511-.0251-.0743l.0188-.0386c.0261-.01.01.0189.0333.016a.0715.0715,0,0,0,0-.057c-.0106-.0173-.0265-.0173-.0058-.039l.0246-.0131v-.0284c0-.0207.0179-.0328.0154-.056l-.0212-.06a.076.076,0,0,1,0-.0574.0556.0556,0,0,0-.014-.0525c-.0135-.015-.0308-.0217-.0144-.0483.0221-.0337.0733-.0429.0482-.0964l-.0333-.0516c-.0067-.0251.0154-.0285.0227-.0449s-.0116-.0284-.0169-.0482a.2631.2631,0,0,1,.0024-.0675c0-.0415-.0193-.1076.0232-.1192.0231-.0082.0482-.0149.0284-.0612a.0656.0656,0,0,1-.01-.0555c.0048-.0212.012-.0482-.0183-.0482l-.0049-.0637.0483-.0145.0168-.04-.0434-.0362c-.02-.0217-.0135-.0675-.0135-.0964v-.0536l.0246-.0289c-.0265,0-.02-.0294-.02-.0482a.2272.2272,0,0,0-.0111-.0517.1925.1925,0,0,1,.013-.0622.2385.2385,0,0,0,0-.0675v-.0588c.0111-.0169.0342-.027.0236-.0483-.0091-.0144-.0424-.0144-.0357-.0429s.0338-.0091.0531-.0193l.0159-.0135-.0627-.0111c-.0265-.0106-.013-.02-.0063-.041a.0684.0684,0,0,0-.0292-.0923l-.01-.0041c-.0246-.0121-.0251-.014-.0386-.0405l-.0338-.0483c-.0207-.0294-.0535-.0482-.0738-.08-.0525-.0806-.1447-.0936-.2257-.125a.4854.4854,0,0,0-.1529-.04.86.86,0,0,1-.162,0,.6115.6115,0,0,0-.2894.0256c-.0367.0115-.0642.0333-.1.0482l-.052.0217-.0661.0082-.0087.03c-.0188,0-.0574.0362-.0661.0121l-.0212.0149c-.0318.0044-.0482.0367-.0772.0516a.3846.3846,0,0,0-.0776.0545l-.0675.0661c-.0222.0227-.0627.056-.0709.0839l-.0179.0029.0039.0193-.0405.0458v.03l-.0184.0188a.47.47,0,0,0-.0593.1216l-.014.0612-.0178.06c-.0087.041,0,.084-.0068.1269a1.1542,1.1542,0,0,0-.0265.13.6323.6323,0,0,1,0,.0892l-.013.0594-.0135.135a.7108.7108,0,0,0-.0135.1621.79.79,0,0,1,0,.09.7552.7552,0,0,0-.0029.0877.3212.3212,0,0,1-.0184.1206l-.012.0266.01.0236c.0058.0246,0,.0284-.0086.0482a1.0279,1.0279,0,0,0,0,.14l-.0073.0627-.0193.0588.0135.0241-.0091.03-.0044.0646a1.1153,1.1153,0,0,0-.0058.15.7752.7752,0,0,1-.0053.1336.8471.8471,0,0,0-.0173.1249.3541.3541,0,0,1,.0034.0675l-.0111.06a1.075,1.075,0,0,0-.0107.1553.1308.1308,0,0,1-.0086.0637.3636.3636,0,0,0-.0044.0651l-.0111.07-.0058.068-.0062.1191c0,.0386-.0077.0758-.0063.1153a.4309.4309,0,0,1-.0217.0965c0,.0207.013.0781.0024.0935-.014.0246-.0444-.0212-.0569.0285l-.0135.0531c.0034.0226.0183.0057.0386.0149a.5483.5483,0,0,1,0,.1293v.0265l-.02.0164.0044.0593a.36.36,0,0,1,0,.1519.6975.6975,0,0,0-.0155.1447,1.3138,1.3138,0,0,0-.0144.1481.3257.3257,0,0,1,0,.0777l-.0126.0207v.0314c0,.0438-.012.0868-.014.1316s-.02.082-.0221.1225l-.015.1047a.3283.3283,0,0,1,0,.1186H34.121l-.0053.109-.0126.1158a1.0673,1.0673,0,0,0-.0207.2.1614.1614,0,0,1,0,.0642l-.0251.0453a.9534.9534,0,0,0-.0188.15c-.0063.043-.0193.0845-.0227.1327a1.2633,1.2633,0,0,1-.0405.2614l-.0058.0627-.0144.054a.8868.8868,0,0,0-.029.13,1.0574,1.0574,0,0,1-.1929.4385l-.0665.0757c-.0406.0482-.0844.0892-.1235.1413l-.0618.0521-.0149-.0082-.0333.0415-.0145.0207-.03.0145-.0521.0362-.041.0308-.0483.02-.0607.0313-.069.02-.0613.0318a1.7731,1.7731,0,0,1-.2136.0483.9854.9854,0,0,1-.1307.0082.3566.3566,0,0,1-.0593.0029L32.5916,31.9l-.0748-.0256-.06-.04a.4456.4456,0,0,1-.0964-.0965.27.27,0,0,1-.0569-.1109.1227.1227,0,0,0-.02-.0733l-.0328-.041a.99.99,0,0,1-.06-.2566.693.693,0,0,1,0-.2479l.0145-.0444c0-.0226-.0319-.0231-.0333-.0415l.0212-.0458a.14.14,0,0,0-.0236-.1056l-.0106-.0651v-.0671l.03-.0424a.3088.3088,0,0,0,.0294-.1114c0-.0444-.0111-.0868-.0092-.1327a.8243.8243,0,0,1,.0285-.2619.3151.3151,0,0,0,.0212-.1307l-.0068-.0733c-.0024-.0212.01-.0376.0111-.0593a.213.213,0,0,1,.0029-.0965l.0213-.0352.0086-.0482c.0266-.0082.0454-.0825.0483-.1109a.5442.5442,0,0,0-.0314-.138c-.0415.0044-.0217-.03-.0318-.053l-.0174-.0212c-.0072-.02,0-.0121.0053-.0285a.1715.1715,0,0,0-.0082-.07c-.0048-.0386-.0111-.0589.0121-.0733.0458-.0039.0048-.1664.0072-.1891l.0217-.0627a.6119.6119,0,0,0,.0482-.0965l.0078-.0656.0149-.054.0126-.0622.0279-.0593a.5533.5533,0,0,0,.0348-.1346.4486.4486,0,0,1,.0366-.1485.7847.7847,0,0,1,.0482-.12c.0232-.04.0965-.0676.0965-.1177s.0323-.0965.0323-.151c0-.0405.0082-.1292.0574-.1447,0-.0188.0155-.0641.0367-.0574l.0091-.0559c.0483.0072.028-.0531.0333-.0806s.0338-.0694.0536-.0231l.0448-.0661H32.89a.1226.1226,0,0,1,.0178-.0786c-.04-.0217.0058-.0483.02-.0584.0226-.0173.0241-.0511.0482-.0612l.0039.0067c.0419-.0337.0723-.0241.0776-.0849h.0275a.2369.2369,0,0,1,.04-.13c.015-.0241.0729-.1071.0893-.0936l.0082-.0135h.01v-.0169c.0145-.0192.04-.012.0569-.0236s.0184-.0424.0454-.0429c.0082-.0251.0395-.0082.0482-.0343l.0521-.0752.014-.041.0188-.0458c.0188,0,.0453.0067.0482-.0179v-.0434l.0087-.0361.03-.0314c.0169-.0149.0535-.0362.0555-.0554-.014-.0073,0-.0743.0086-.0931l.0251-.0406a.1343.1343,0,0,0,0-.0482c0-.0236.0434-.0791.0526-.122a.0413.0413,0,0,0-.0257-.0527l-.0071-.0018.02-.0222c0-.0231-.0029-.0873.0275-.0887a.1876.1876,0,0,0,.0091-.1192l-.0149-.0482-.0111-.0584-.0106.0054c-.0131-.0092.0077-.0295.0057-.0483l-.0275-.0482-.0347-.0352-.0323-.0429-.0579-.0184-.054-.014-.0516-.02a.1694.1694,0,0,0-.0511-.0058l-.055-.014-.0632-.0058a.1418.1418,0,0,0-.0569.0131.3916.3916,0,0,1-.0666.0067l-.0622.013c-.0222.01-.014.0193-.0424.0213-.0444.0043-.0748.0226-.1182.0241a.2842.2842,0,0,0-.1061.0313l-.0521.0193-.0482.0237-.06.0125-.054.0222a.22.22,0,0,0-.0931.04l-.04.0285c-.0048.0207-.0308.0255-.0482.0371l-.0439.0434-.0251.0164-.028.0155c-.0072.0077-.0236.0593-.0332.0178-.0246-.0116-.0121.01-.0217.0179l-.0381.0106c-.0188.0067-.06.0347-.0613.054a.6309.6309,0,0,0-.1828.1278,1.7033,1.7033,0,0,0-.1693.14l-.0747.0689-.0323.0449-.0227.0482-.0236.01-.0169.0231-.0328.041-.0642.0728-.02.0348-.0251.02-.0347.0675a.4312.4312,0,0,0-.08.1138l-.0651.0786-.0266.0444c-.02.0034-.0062.0149-.0125.026l-.0217.0232-.041.0612a.2907.2907,0,0,0-.0535.0656l-.0251.07-.0135-.0029-.0169.0482-.0381.0506-.028.0444v.0294l-.0188.0174-.0063.0212-.0188.0193-.0275.0458-.0221.0482-.0246.0454-.0184.0535-.0236.0454-.0449.1143-.0164.0521-.0231.0482-.01.0593-.0318.0434-.014.0352-.0231.0724-.0217.0858a.8691.8691,0,0,0-.03.1008.4462.4462,0,0,1-.0348.111.7041.7041,0,0,0-.0284.1138l-.03.1138a1.8979,1.8979,0,0,0-.0362.2132l-.0222.1008-.014.0482c.0039.0155.0323.0309.0111.0352a.4641.4641,0,0,1-.0265.1163l-.0121.0646c-.0038.0309.0063.0622.0039.0936s-.0275.0482-.0391.0766l-.0033.0623v.0318l-.0082.0246.0033.0516-.0173.0188.0043.0275a1.04,1.04,0,0,1-.0063.13c-.0091.0849-.0028.1684-.0135.2542a1.7853,1.7853,0,0,0-.0115.2595l-.0039.0863c0,.0352-.0145.0415-.0256.0685l-.0246.0767-.0188.0714a.79.79,0,0,1,0,.0829.29.29,0,0,0-.0072.0782c.0323.0173-.0135.1206-.0043.1558a.23.23,0,0,0,.0366.0636.1587.1587,0,0,1,.0106.0806c0,.1124-.01.2218-.0038.3376a2.6743,2.6743,0,0,1-.0034.27l-.0072.0767c-.0053.055.012.1124.0038.1688-.014.0964.0063.2016,0,.3164a.5275.5275,0,0,0,.0068.1143l-.0169.0053c.0222.0227.0135.06.0135.0892,0,.0381.0174.0666.0149.1052a.2341.2341,0,0,0,.0054.0964,1.3154,1.3154,0,0,1,.0429.206l.0029.0578.0241.0483a.8586.8586,0,0,0,.027.1046c.0092.0237.0569.0743.0342.0965a.1386.1386,0,0,1,.0285.068c.0077.0289.026.03.04.054s.0024.0482.02.0714.0357.027.0511.0516a.975.975,0,0,0,.111.1215c.0332.0333.0791.0521.1022.0893l.015.0337.0115-.0178a.6977.6977,0,0,0,.1761.1114,1.1049,1.1049,0,0,0,.1177.0482l.0385.0328c.0121.0159.0063.041.0367.0357v-.0241a.0969.0969,0,0,1,.0666.0159l.0607.0193.0811.0068c.0255.0067.0352.0226.0665.0255l.0685.0111c.0207.0044.0482-.0063.0709-.0038l.06.0111c.0289,0,.0444-.0063.0714-.0073v.014l.0246-.0043v-.0135c.0381-.0217.0964.012.1369-.0039v-.01h.0854l.0714-.0179c.054-.0178.1114-.0033.1649-.0178a1.2088,1.2088,0,0,1,.1549-.0362l.0554-.014.02-.0077.0092-.0246c.0246-.0135.0241,0,.0405.0072l.0135.0184.03.0033.0511.014.0521-.0106c.0169.0024.0767.0348.0839-.0067-.0222-.0058-.0777.0164-.067-.0256.0082-.028.054-.0193.0771-.026s.0555-.0328.0811-.0324.0554.0353.0665-.0062l-.0169-.0319.0483-.0091.0265-.0323c.0255-.01.0854.0057.1138,0a.66.66,0,0,0,.0965-.0275c.0342-.0111.08,0,.0771-.0483l.04-.0072.0164-.0284c.0251-.0242.0448-.0053.0728-.0184l.0179-.0255.03-.0179c.0188-.0169.0236-.039.0448-.0482s.0656,0,.0835-.015.0033-.0429.0294-.0617l.07-.0323.056-.04.0713-.03c-.0029-.0193.0285-.043.042-.0541a.0664.0664,0,0,1,.06-.0168h.0265c.0637.01.0425.1012.0439.134a1.1389,1.1389,0,0,0,.015.152l-.0063.0395-.0058.0241a.0924.0924,0,0,0-.0072.0748l.0193.0275-.01.0361a.2065.2065,0,0,0,.0039.0791l.026.0483c.0073.0236-.0125.0168-.0332.0284v.0574l.0217.028v.0434l-.0049.0362c-.0048.027.0208.0033,0,.0318l-.0164.0125v.0309a.1306.1306,0,0,1-.0086.06c.0135.0193,0,.0352,0,.053s.03.0261,0,.0381v.0363l.0057.0029v.013a.419.419,0,0,0-.0853.0391l-.0569.0381-.0594.0361-.0636.0348a1.0607,1.0607,0,0,0-.0965.09l-.1206.0776-.0887.0671c-.0236.0217-.0859.0381-.0921.0723l-.0222.0111.0072.0034a1.29,1.29,0,0,0-.2927.1929l-.11.08-.0564.0434-.0623.0381-.0231.0265-.0309.0183-.06.0454-.22.162a2.4279,2.4279,0,0,1-.2411.1929,3.4654,3.4654,0,0,1-.287.1988c0,.0279-.0193.0318-.0391.0482l-.0482.0367a.4582.4582,0,0,1-.1056.0607l-.0545.0348c-.0159.0217-.014.0376-.0391.0482s-.0386.01-.0584.03l-.0482.0439-.0429.0347-.056.0145c.0082.0385-.039.0376-.0612.0554a.7421.7421,0,0,1-.0709.0593l-.0854.0425c-.028.02-.0318.0453-.068.0453.0048.029-.0342.0319-.054.0458l-.0439.0507-.0613.026-.0482.0425c-.0231.0164-.0275.0294-.0574.0386a.18.18,0,0,0-.07.0361c-.0333.0319-.0738.055-.1056.0849a.9348.9348,0,0,1-.1505.1105,1.5484,1.5484,0,0,1-.15.0964v.01l-.0429.0207-.0338.0357-.0371.026-.0309.0338a.786.786,0,0,1-.0907.0458.5917.5917,0,0,1-.0863.0584c0,.027-.0246.02-.041.0323s-.0116.0333-.0338.0434l-.0588.0241-.0044.0222h-.027a.5044.5044,0,0,0-.0839.0661l-.042.0337c-.0173.01-.04.0188-.0352.0415a.2035.2035,0,0,0-.109.0632l-.0366.0279-.0483.028c-.0115.0116-.0149.0343-.0347.0357l-.0053-.02c-.0207,0-.0207.0309-.0333.0459l-.0545.03-.0931.067-.0964.0685-.0661.026-.0482.0328v.02c-.042.0207-.0709.0569-.1124.081l-.0593.0391a.1917.1917,0,0,0-.0444.0579l-.055.0482-.0482.0482c-.02.0174-.0483.02-.0724.0348l-.053.052a.6942.6942,0,0,0-.1095.0724l-.0907.0873a.8814.8814,0,0,1-.11.0719l-.1028.0786c-.0318.0275-.0482.0713-.0877.0911s-.0661.0569-.1119.082c-.0869.0483-.1524.1249-.2359.1823s-.1519.1245-.2291.1838a1.0852,1.0852,0,0,0-.1254.0965c-.0207.02-.0231.0385-.0525.0482l-.0574.0366c-.0613.0589-.1269.1086-.1881.1611s-.1225.0922-.1785.1447a.3014.3014,0,0,1-.1394.0926c.0256.0594-.1172.0594-.1046.1182-.0222,0-.0155-.028-.0386-.0179,0,.0565-.1085.1086-.1447.138a.2071.2071,0,0,0-.0757.07c-.0271.0482-.0632.0343-.1086.0482l-.0371.0536-.0482.0554a.4041.4041,0,0,1-.1071.0965c-.082.0564-.1563.1331-.2368.1978l-.0719.0429c-.0217.0159-.0313.0583-.0482.08-.0285-.0213-.0328.0154-.0507.0284l-.0641.0372-.1124.09a2.53,2.53,0,0,1-.2223.1833c-.0965.0617-.164.1664-.2634.2243l-.0646.0342c-.02.0179-.0217.0425-.0482.0593l-.0565.042-.053.041a1.0343,1.0343,0,0,0-.1206.0965l-.0284.0352a.5373.5373,0,0,0-.12.0964l-.1042.0859a.58.58,0,0,0-.1288.1013l-.069.0424-.0429.0526c-.0371.0342-.0776.0612-.1186.0935s-.0714.0671-.1139.0989a2.704,2.704,0,0,0-.2262.1862l-.0964.0878c-.0266.0241-.0584.041-.0839.068a.5146.5146,0,0,0-.0743.0656l-.0092.0342-.0352.013a.4546.4546,0,0,0-.11.0965.2088.2088,0,0,1-.0545.054l-.0536.0415-.0593.06-.0559.0381-.04.0526-.0265.0178-.03.0241-.0994.0859a2.5974,2.5974,0,0,0-.2088.2083c-.0309.0348-.0753.06-.109.0926s-.0714.0743-.1109.1085a2.2757,2.2757,0,0,0-.207.18c-.0656.0757-.1529.13-.2218.2l-.0516.0482-.0439.0632a1.1429,1.1429,0,0,1-.1066.082.6486.6486,0,0,0-.0868.0916l-.1.0854c-.0631.06-.1316.1167-.1967.1751s-.125.1292-.193.1895c-.0834.0719-.1543.1582-.2315.231a1.4541,1.4541,0,0,0-.1109.1139.8133.8133,0,0,0-.0965.1075,1.33,1.33,0,0,1-.1929.2286c-.053.0584-.0965.124-.1447.1867l-.0907.1162c-.0279.0386-.0482.08-.0738.1153a.2813.2813,0,0,0-.0583.1249c.0256.0125,0,.041-.0121.0574.0188.0232-.025.1153-.0294.1447-.0121.0685.0328.0965.0367.16a.7876.7876,0,0,0-.0073.0811l.0217.0723.0328.1056.0241.06c.0193.0362.0319.0859.0526.1206l.0372.0482a.498.498,0,0,0,.0376.0844.2091.2091,0,0,0,.0718.0483c.0343.0222.0439.0723.0854.0868.0738.027.1355.081.2117.1114l.06.0159.0512.0265.0661.0126.0573.0251a.767.767,0,0,0,.1322.0188l.0313-.0053.0261.0115c.0251,0,.041-.0159.069-.01a.1339.1339,0,0,0,.0636.0121c.0208-.0044.0352-.0179.0574-.0155l.0642.0155.0631-.0179c.0439-.0063.0917.0077.1346,0,.0261-.0048.0261-.0173.0429-.0328l.02-.0159.02-.0212.0541-.0068c.0279-.0053.0226-.0053.04-.0284s.03-.015.0454-.0275l.0347-.0381c-.0082-.0425.0323-.0357.0579-.0482s.0313-.0328.0482-.0483l.0608-.0337.03-.0449.0685-.0825.03-.04c.0174-.0226.0265-.0144.0483-.0251l.0308-.0381.0376-.0318c.0353-.0265.0589-.0588.0965-.0844.0535-.0386.0994-.0839.1476-.1259l.02-.0149.0136-.0222a.5131.5131,0,0,1,.066-.083c.029-.0294.0343-.0521.069-.07s.0444-.0555.0781-.0665c.0627-.0222.0642-.0541.0965-.084l.0357-.0289.0381-.05.0265-.0459.0342-.0352.04-.0333L23.28,45.35l.0511-.02.0343-.0439.0559-.04.0116-.0516.041-.0338.0482-.0453a.4307.4307,0,0,0,.0738-.0965l.0483-.0655c.0193-.0261.0173-.0608.0414-.0758l.042-.0289.0179-.0154H23.76l.0049-.0155.0144-.0169.0328-.0086.029-.0483.0429-.0313.0376-.0415a.42.42,0,0,0,.0839-.0757c.02-.0213.06-.0362.0724-.0584l.0762-.08.0376-.0361.0284-.0435c.0232-.0236.0565-.0371.0816-.06a.5845.5845,0,0,0,.07-.0878l.0608-.056.0318-.0352.0371-.0246c.028-.02.03-.0588.0555-.0825l.0169.0087.0362-.0415.0376-.03a.4538.4538,0,0,1,.08-.0815c.0314-.0279.0285-.0588.0666-.0824l.0386-.0309.0255-.0482a.4169.4169,0,0,1,.068-.0772,1.1425,1.1425,0,0,1,.1013-.0661.4245.4245,0,0,0,.1351-.19.3092.3092,0,0,1,.1558-.1471l.04-.0309c.0226-.0279.0482-.0482.0714-.0757s.0217-.0429.0482-.0612l.0559-.0348c.0285-.03.0222-.0593.0565-.0877l.0617-.0391.0043-.0275.0169-.0193.0429-.028.0483-.0516.0362-.0535.0607-.0453a.778.778,0,0,0,.0917-.1028c.0443-.0453.0935-.0482.1447-.1181a.2614.2614,0,0,1,.0815-.0555l.08-.0482c.0261-.015.0434-.0483.0743-.057,0-.0255.0207-.0255.0357-.0323a.0581.0581,0,0,0,.039-.04.2158.2158,0,0,1,.0666-.0767l.0439-.0251.0357-.0381.0772-.07.053-.0449.0169-.0453.0665-.0815c.0242-.0256.0555-.04.0729-.0738.0144-.0265.01-.028.0361-.0367l.0521-.0308.0719-.0806.0482-.0419.0237-.0483a.3789.3789,0,0,1,.0848-.068l.0483-.039.0554-.0227.0251-.0449.0434-.0313.0541-.0333.0308-.0434c.0232-.027.0647-.0338.09-.06l.0352-.0386.04-.0313.0617-.042.0521-.0535.0034.0087c.02-.02.0506-.0309.0714-.0545.0443-.0483.1109-.0758.1562-.123a.4266.4266,0,0,1,.082-.0733.5893.5893,0,0,0,.0965-.0811l.0366-.0385.0483-.028.0964-.0844.0965-.0777a2.0522,2.0522,0,0,1,.1862-.149c.0226-.0154.025-.041.0482-.053a1.1672,1.1672,0,0,0,.12-.0729c.042-.0337.0743-.0762.1177-.1095a2.136,2.136,0,0,1,.1741-.136c.0362-.0217.0617-.0627.0965-.081l.0275-.0082.014-.0232.06-.0332.0936-.0787.0916-.067a.8013.8013,0,0,0,.0994-.0883c.0193-.0246.0511-.0313.0752-.0482l.069-.0627.0482-.0352.016-.0212.025-.014.04-.0381a.8651.8651,0,0,1,.0994-.0859l.0482-.0352.0169-.0188.0328-.0024.0337-.0429.06-.0482.0965-.0748a.4386.4386,0,0,1,.0926-.0747l.0395-.0333c.0135-.0208.0237-.0159.043-.0285l.0376-.0434.0391-.0333.0274-.02.0357-.0106.0237-.0482.0265-.0092.0231-.0212.0362-.0337c.0376-.0251.0661-.0565.1-.0835a2.3522,2.3522,0,0,0,.1881-.1533l.0482-.0314.0429-.0342.082-.06.0839-.0709c.0319-.0266.0656-.0314.0907-.0651l-.0029.0033.0458-.0376.0507-.0188.0154-.0207v.0043l.0482-.0482.1018-.08.0188-.0251.03-.0077c.0255-.01.0222-.0149.0347-.0333l.0482-.03a.2643.2643,0,0,0,.0854-.06.9317.9317,0,0,1,.0825-.07l.0362-.0444.03-.0077.0227-.0174.041-.0327.014-.0222.0289.0029c0-.0222.0285-.0241.0434-.0372l.0406-.03.0308-.0371.0454-.0319.0482-.0279.03-.041.0579-.03.055-.0371.0458-.0464.0757-.0632a.5083.5083,0,0,0,.067-.0458c.0106-.01.02-.0743.0357-.0434.0266.0039.069-.0419.09-.054a.3986.3986,0,0,0,.0965-.0753c.03-.0381.0752-.0482.108-.0805l.04-.0444.0541-.0217.0376-.0434a.0579.0579,0,0,1,.04-.0362.2048.2048,0,0,0,.0854-.0622.3521.3521,0,0,1,.0829-.068.6793.6793,0,0,1,.0922-.06.276.276,0,0,0,.0569-.0482.672.672,0,0,1,.0752-.0511.9773.9773,0,0,0,.1028-.0656.744.744,0,0,1,.0964-.0637l.0482-.0308.0517-.0237a.366.366,0,0,0,.0786-.0526l.0757-.0414.0531-.0227.0183-.0082.013-.0188c.0236-.02.0579-.0212.0849-.0352l.0067.0048-.0029.0608c.0078.026.0121.0246.0029.054l-.0091.0617-.0087.0352v.0569a.4294.4294,0,0,1,.01.1158l-.0212.055.013.0511c.0058.0825-.013.17-.0072.2566.0029.0453-.0039.0844,0,.1288a.5016.5016,0,0,1,.0058.1312l-.0116.0048c-.01.0294.01.0689.0087.1022l-.0068.0521a.4644.4644,0,0,1,.0092.1158.0954.0954,0,0,0-.0072.0545c.0077.039-.0073.081,0,.1239s.0038.0883.0067.1331a.2637.2637,0,0,1,0,.0676l-.01.026.0067.0251c.0053.0458,0,.0916.0029.1379s0,.0748,0,.1182-.0029.0882,0,.1331a1.2008,1.2008,0,0,0-.0029.1244.6055.6055,0,0,1-.0058.0618l.0087.0622a.9013.9013,0,0,1,0,.1355c-.0029.0429.0029.0888.0043.1331a.31.31,0,0,1,.0068.1187l-.0082.0053a.6772.6772,0,0,0-.0029.2074.1835.1835,0,0,1,0,.0685l-.0169.054.013.054c.0054.0212-.0048.041,0,.0612a.132.132,0,0,1,.0049.0608l-.0135.0188.0086.0256c0,.0434-.0072.0931-.0062.1365l.0111.0516a.3478.3478,0,0,1-.0029.0637v.0656a.2869.2869,0,0,0-.0116.0573l.0188.056c.0121.0256.0058.0313-.0043.0545a.4157.4157,0,0,0-.0073.0911c-.0024.0415-.0048.0873-.0038.1308v.1051a.3546.3546,0,0,0-.0034.1013c.0072.03-.0077.0661-.0039.1032h.0063L34,40.4987l-.0135.029c.0222.0067.0116.0453.0135.0637v.0376l-.0106.0333.0217.0212-.0121.03a.6511.6511,0,0,1-.01.1394c-.0212.0048-.0348-.0126-.0483.0106v.0612l.028.0507.0111.0574a.1574.1574,0,0,1,.0024.0641l-.0183.0516a.5519.5519,0,0,1,.0183.1191.3618.3618,0,0,0-.0135.0907q0,.0483-.0048.0965c0,.0429-.0232.0714-.0207.1167a.8915.8915,0,0,1-.0049.13.3426.3426,0,0,0-.0062.0647l.0135.0545a1.3382,1.3382,0,0,1,.0231.2006v.1027a.3346.3346,0,0,1-.0217.0835l-.0058.0651a.7608.7608,0,0,0,.0082.1288.5847.5847,0,0,1,.0058.1268.9824.9824,0,0,0,.0068.1317.3306.3306,0,0,1,0,.0689l-.02.0483c-.0082.0279.01.0294.0174.0521a.2061.2061,0,0,1,0,.0665.4634.4634,0,0,1-.0237.1211.2857.2857,0,0,0-.0082.0829.242.242,0,0,1,.0087.06c-.0034.043-.0164.082-.0164.1283l-.0034.1317c0,.0449.0034.09,0,.1322l-.0077.1249c0,.0183-.0038.0366-.0024.0564l.0154.0444a.2826.2826,0,0,1-.013.1017.5822.5822,0,0,0,.0024.0647c0,.025-.013.03-.0188.0482v.067l.0058.0651-.0106.1279a.4626.4626,0,0,0,0,.1152.7861.7861,0,0,1-.0063.1085,1.1387,1.1387,0,0,0,0,.1139.3553.3553,0,0,1-.0053.0675l-.013.0482c.0246.0188.0106.0965.0106.1278l-.0053.1293c-.0029.0227.0072.0415.0053.0612s-.0154.0338-.0135.0574a.3539.3539,0,0,1,.0072.06l-.0053.0251.0063.029a1.1591,1.1591,0,0,1-.02.17c-.0034.0415.01.0835.01.1264l-.0063.055a.373.373,0,0,1,.0063.0651.2726.2726,0,0,0-.0208.0685.7641.7641,0,0,1-.0111.18c.0246.0058.0314.0424.0232.0622l-.0183.0275.0168.0458a.4355.4355,0,0,1,0,.0839.3219.3219,0,0,1-.0033.0965l.01.1215a.605.605,0,0,0,.0034.0646l.0077.0275.0082.01-.0091.012-.0025.029.0135.025a.6277.6277,0,0,1,.0039.0685l.0092.0632.01.0632.0183.0106V46.7l.0213.0545a.5072.5072,0,0,1,.0168.1095h.016l.0091.0646.0135.0483a.8041.8041,0,0,0,.0483.12l.02.0675.0068.0265.0168.0217a.5184.5184,0,0,0,.0483.1071l.0516.0646.0535.0444.042.0526a.5326.5326,0,0,0,.1071.0805.6452.6452,0,0,1,.0906.0594.4777.4777,0,0,0,.1086.0482,1.5081,1.5081,0,0,0,.2508.0752.92.92,0,0,0,.1379.0256l.2141.0034a.6656.6656,0,0,0,.23-.02l.0632-.0231.06-.0092.0444-.0367.06-.0241a3.0635,3.0635,0,0,0,.285-.1929l.041-.0381.0386-.04.0757-.0964.0232-.042.0125-.054.0376-.082.0212-.0381.0116-.0174.0077-.02.0516-.0068.01-.0188h.0241l.0289-.0289c.0121-.0082.0391,0,.0425-.0179a.4686.4686,0,0,0-.1032-.0337l-.0179-.0111-.0289-.0092-.01-.0574.02-.0429.0154-.0453c.0136-.0092.0965.0125.0753-.0324-.0251.0049-.0164-.0125-.0275-.0212l-.0328-.0193.0371-.0038.01-.04c-.0111-.0279-.0391-.0328.02-.0627.0087-.0033.0338-.0424.0661-.0482.0174-.0217.0232-.0506.0073-.06l-.0222.0338c-.0328.0062-.0044-.0251-.0111-.0348l-.0521-.0029-.0352-.027-.0063.0251-.0328-.0217.0212-.03c0-.0063-.0347-.013-.0236-.04.0067-.02.0395-.04.0125-.0594l-.0352.0295.0184-.0295-.0068-.0043c-.0265.03-.0178-.0145-.0241-.0207l-.0589-.0131.014-.0188c-.0246,0-.0183-.0226-.0236-.0347-.0068-.0232-.0154-.0232.0072-.0391H36.15l.02-.0187c.0159-.0058.0449.0126.042-.013-.0381,0-.0082-.0314-.0159-.0507l-.0261-.0178c-.0188-.0072-.0106.0024-.0231.0082s-.0434.0207-.0565-.0058l.0049-.03-.0217-.0188.0125-.0067-.0048-.0266c.0279-.0057.014.0164.0173.0275l.0328.028.0574.0058.0058-.0482c.0135,0,.0608.0053.0482-.0251-.0048-.0126-.0482-.0169-.026-.0429l-.028-.0145.0415.0058.027-.0261c-.0482-.0058-.0116-.0395.0188-.0357.0482.0049.0073.04.0048.056.0266-.0029.0545-.042.0386-.0685l-.0443-.015-.04-.0217c-.03,0-.0386-.0376-.0516-.0549-.0313-.0454-.0482.0352-.08-.0053.0221-.0121.0434-.0676.08-.043l.0275.0386.0381-.0357c-.02-.0048-.0135-.0241-.028-.0342s-.039.0063-.0275-.0251c-.0217-.0039-.02-.0193-.0356-.0289-.0285-.0169-.016.02-.0213.0352a.1307.1307,0,0,1-.0072-.0888c.0058-.0135.0183-.0043.0072-.0255l-.0323-.0208c-.0183.0314.0376.081-.026.0965-.0261.0048-.0965-.0227-.1032-.0483l-.0174-.0593c.0053-.0255.03-.0135.0106-.0434l-.0227-.0246-.0029-.0328-.0077-.026.0266-.0159.0086-.03c-.0149-.0131-.0294.013-.0246-.0131l.0174-.0067-.014-.0121-.0082-.0308c.0169-.0213.055.0082.0825,0a.1448.1448,0,0,0,.0593-.0454l-.0043-.0033-.015.0062-.0608-.041c-.0352-.0086-.0255.0348-.04.0483l-.0222-.0193c-.0661-.0077-.0067-.0439.014-.0511a.3168.3168,0,0,1,.0772-.0049c.027,0,.0414.0049.0641-.0125-.0149-.0149-.0439-.0217-.0362-.0482l.0444-.0425.0246-.0217-.0034-.0279.0444-.0468-.0333-.0324c.0039-.0125.0449-.0125.02-.0327l-.0275.0226c-.0236,0-.0024-.0226.0058-.0275l-.0444-.0029.0034-.0337-.0251.0058c-.0092-.02.0135-.02.0207-.0348.015-.0284-.0192-.0091-.0154-.0328l-.0038-.0149-.016-.0068-.01-.0419-.0048-.0483-.0111-.0482-.0145-.0029v-.01L36,44.6341l.0111-.0126.01.0184.0111-.0126-.016-.0144v-.0362l.0131-.015.0043-.0241.0039-.0207-.0193-.0111-.0135-.0193h-.028l.0067-.02.0121-.0169c0-.0115.0087-.04-.013-.0371l-.0217.0145-.0222.0169c-.0048.0125.0173.0294-.0044.04h-.03l-.0135-.0193L35.86,44.432l-.0237-.0053.0063-.0193v-.0207l-.0058-.0053v-.0145l-.04-.02.0169-.0236.0058-.0188.0125-.0135.0029-.0213v-.0173l.0318-.0357a.0482.0482,0,0,0-.0077-.06c-.0241-.0169-.0482-.0164-.041-.054.0092-.0569.0965-.0613.0916,0-.0453.0063-.0086.0588.0053.014v-.0222l.0126-.013c.0063-.0242,0-.0184-.0072-.0382L35.9151,44l.0054-.0347.02-.0338-.0559-.0077c-.0184-.0482.0738-.0337.0415-.0743-.02-.0226-.1066-.0154-.055-.0622.0135-.013.0308-.0149.039-.0361l.0024-.0328-.0279.0038-.0483-.0169-.0062-.0511c-.0034-.0217-.0116-.03,0-.0458l.02-.0193.0169-.0082.0174.0053c.0482-.0222-.0236-.0482-.0772-.0328-.0178.0039-.03.0227-.0482.0039s0-.04.02-.0459c.06-.0274-.0111-.0873.0188-.1118l.0222-.01.0043-.0135.0125-.0029.0222-.0212.0126-.0251c.0038-.0482-.0613-.0207-.0782-.0038l-.0188-.0053c.0154-.0222.0246-.03,0-.0541-.0188.016-.0313.0116-.0545,0l.0126-.0559c-.02-.01-.069-.0289-.069-.0531s.0357-.039.0482-.054a.1251.1251,0,0,0,.015-.1046c-.015-.016-.028-.01-.0328-.0377V42.932l-.02-.0251c-.0231-.0535.0516-.0318.0825-.0405l.0458-.0361-.0448-.0184-.0266-.0087.0029-.0236-.0082-.053.0024-.03.0159-.0165c.0049-.013-.0183-.0327-.0376-.0221s.0082.0217.0082.0385l-.0337.0352-.0483-.0062-.0072-.0314-.0227-.028c-.0033-.0294.041-.0168.0391-.0458,0-.0217-.0309-.0366-.0391-.0559-.014-.03.0232-.0362.0208-.0632-.0024-.0376.1066,0,.1244-.0164l-.0178-.0482c-.0193-.0121-.0449,0-.0434-.0328l.0038-.056c-.0135-.0125-.0482.0044-.0574-.02l.01-.0511-.01-.03-.0251-.0111c-.0371-.0082.0039-.0241.0131-.0328l.01-.0251.0227-.0188.0231-.06.0637-.0029c.0342-.0029.0448-.0482.053-.0723-.0231-.013-.0241.0352-.028.0444-.0091.0217-.0356.0183-.0385-.0068s.0159-.026.0284-.0458l.0126-.0584.0139-.0164c-.02-.0091-.02.0159-.0265.0275l-.0347.0179.0029-.04-.0338-.0256c-.0048-.02.029-.0077.0391-.027s-.0121-.039-.0082-.0593l.0149-.0217-.0135-.0072-.0062.027-.0256.013h-.0289l-.0024-.0342v-.0227l.012-.0164c.0082-.0212-.0159-.0246-.0323-.0289l-.0053-.0328-.0232-.0193c-.0246-.0212-.01-.0347.01-.0483l.0255-.0289.0227-.0183.0319-.0511c.0048-.015.0048-.0483-.016-.0512-.0115,0-.0226.0068-.0178-.0154l.0183-.0164.0338-.0043-.0039-.0227H35.645c-.0159,0-.0458.0111-.0482-.015l.0569.0063h.0338l.0226-.0145.0454-.0294v-.03l-.0338-.0115c-.0053-.0207.0266-.0328.0164-.0536l-.0082-.01-.0033-.0154-.03-.0121c-.013-.0082-.0429-.026-.0319-.0482l.0613-.0087c.0227-.0044.0309-.0222.0125-.0381l-.0506-.0241-.0231-.02-.01-.0246-.0328-.0342c-.0125-.0213.01-.0213.0261-.0285l.0192-.0159.057.0164.0207.0149.0058-.0284.0106-.0261-.0106-.0246-.0087-.0361L35.7213,40.9c-.0217-.0087-.042.0419-.0685.0318,0-.0169.0381-.0111.0313-.0362l-.0482-.01-.0077.0236-.01-.0241-.0149-.0193.0149-.02.0352-.0295L35.66,40.79h-.0318c-.0275-.0053.0062-.0405-.01-.0559l-.0173-.02.013-.0193.02-.02-.0029-.0168.0072-.0184.0029-.0308.02-.0246.054-.0174.0588-.0149-.0033-.0237h-.029l-.02-.0178-.0121-.0251c-.0087-.0347.0169-.0289.0338-.0405l-.01-.015-.026-.012-.0169-.0111.0145-.0145.027-.0386-.0183.0174-.0232-.0087.0145-.0222.0048-.0333.026-.0443.0049-.0246-.0208.0168c-.0082.0116-.0135.0555-.0371.0367l.0106-.0555.0323-.0574c.0077-.0178.029-.0361.0024-.0482l-.0246-.0053.013-.0183-.0048-.0145-.02.0034-.0125-.014.02-.028.0125-.0361.0034-.0213.0082-.0173.0087-.0217v-.02L35.74,39.92l.0067-.02V39.851l-.0173-.01-.0135-.0145c-.0121-.0115-.029-.012-.0323-.0333l.0038-.0178v-.0217l.0174-.0068.0144-.0159-.0144-.0381-.0174-.01-.0154.012-.0159.0034V39.68c.0057-.012.0274.0039.03-.0154v-.0439l.0126-.0063c.0212-.0092.02-.0448.02-.0632a.4305.4305,0,0,1,0-.0612l-.0044-.0454-.027-.0086.0053-.0169.0232-.0063.0106-.0188v-.0719L35.72,39.3v-.0709l.0087-.0207-.0029-.0183-.0048-.0241V39.1l.0183-.01v-.0179l-.0072-.0043-.0049-.0126-.0221-.02-.0145-.0082.0169-.0077.014-.014.0106-.0155.0038-.012-.0072-.0034v-.0106l-.0068-.0188-.0038-.0483.01-.0545.0126-.0159.0033-.0188v-.0111l-.0077-.0043-.0058-.0155V38.74l.0116-.0188.0319-.0068-.0184-.0082-.0067-.0145-.015-.0091.0082-.0111.0068-.0188.0038-.029-.0086-.0226V38.557h-.015l.0048-.0453c.0082-.0131.0217-.0285,0-.0338H35.71l-.0179.014-.0168.0063-.0121-.0155V38.48l.0179-.0063.0024-.0236.0072-.0207L35.71,38.42l.0067-.02L35.7,38.3805l.0361-.0222.0483-.0048.0082-.0193-.015-.0131-.02-.0024v-.0164l.0053-.0352.012-.0087.0087-.0154v-.0149h-.0145l-.0169-.03-.0135-.0111-.0072.013-.028-.0183.0159-.0106.0044-.028.0193-.0323.012-.0386-.0029-.0227-.0173-.0077-.0227-.0289.0034-.0217.0067-.016a.2589.2589,0,0,0,0-.0622v-.055l.0049-.0231-.0068-.0179v-.0525l.0048-.0483-.0057-.0395.0057-.0217.0135-.015.0082-.0226-.0163-.0131-.0063-.0168-.0058-.0271c-.0048-.027.02-.0139.0285-.0313l-.01-.0381-.0183-.01v-.0241l.0029-.0193.0154-.0125.0111-.0362.0183-.0279.0058-.0348-.0188-.0231.0039-.0381.0149-.0266c0-.0236-.0352-.0193-.0482-.0318l-.0048-.07.0125-.0275.0183-.0212.0082-.0343v-.0154l.01-.0116.0072-.0559-.0193-.0193-.0169-.0246a.0592.0592,0,0,1-.02-.0545v-.027l-.02-.0261c-.0091-.0188-.0067-.0482.0135-.055h.0319l.0091.0328.0415-.0207-.0154-.0352.0246-.03-.0029-.02-.01.0033-.0106-.0058-.0482-.0168c.0039-.0169.0227-.0348.013-.0541l-.0183-.0236.0034-.0309.0246-.0168.0038-.0372.0135-.0241-.02-.0241.0178-.026.0106-.0405.0106-.0285.02-.0376v-.1226l-.0265-.01-.0044-.027-.0173-.0121-.0275-.0043-.015-.0208.02-.0164.0159-.0578.0184-.0232.0057-.0294.0082-.0685.0227-.0482-.013-.0232-.0154.0164-.0531-.0275.0106-.0087.0029-.0178v-.03l.02-.0222.0183-.0212.0232-.02.0125-.0308.0217-.0217.01-.0294-.0121-.0246-.0275.0115c-.0275.0082-.0193-.025-.0227-.0424l.0039-.0275.0145-.0217v-.0434l.0062-.0294-.0178-.0294v-.04l.0169-.0521-.0044-.0453-.0231-.0111.0048-.0222.0241.0029.0232-.0106.0072-.0294-.0043-.0261c-.0227-.0115-.0536.0087-.0483-.0289.0034-.0232.0241-.0275.0323-.0482v-.041l.016-.0343.0062-.0337-.0188-.0169.0029-.0125-.01-.0092-.0058-.0314c.0072-.0255.0222-.0217.0424-.0332a.1187.1187,0,0,0,.0483-.0584l-.0082-.0039.026-.0419c.014.0106.0145.0222.0366.0178l.0222-.0308L36.03,34.79l.0131-.0391c.0231-.0183.0545-.0029.08-.012l.02-.02.0212-.0169.03-.0482c.0135-.0145.0275-.027.0188-.0483l-.0072-.0077.01-.0063.02-.0154.0237-.0207.0284-.0169.0266-.0145H36.34c-.0217-.0159.0111-.0308.0265-.0308l.028-.0082.01-.0256.01-.0082.0044-.0106.02-.0125.0121-.0068.0154-.0029.0068-.0125.014-.0092.0366-.0231v.0086l.029-.0226.0337-.0275c.0121-.0111.0357-.0372.0555-.0352l.0241-.0053.0039-.0208.0482-.0337h.0145l.0183-.0179.02-.0169.0246-.0173.0271-.02.025-.0178.0295-.0068c.0207-.0077.0805-.0935.1046-.07.0188-.0313.0545-.0415.083-.0632l.041-.0207.0434-.03a.3572.3572,0,0,1,.0964-.0535l.0367-.0319.0482-.03a.4491.4491,0,0,0,.0912-.0627.508.508,0,0,1,.1085-.0661l.0535-.0184.0589-.02-.0058-.0241.0174-.0222.0516-.0236a.0666.0666,0,0,1,.055-.0092c.0183,0,.0559.0053.0549-.0188l-.0221-.02c-.0029-.0217.0207-.0256.0371-.0313l.04-.0275.0444-.0319.0217-.0111.0241-.0246.054-.0164.0377-.039a.939.939,0,0,0,.1109-.0483l.0053-.013.1124-.0661.0294-.0164.0222-.0289c.0217-.0135.0521-.0048.054-.04l.0878-.0483c.0265-.0352.0511-.04.09-.06l.0916-.0564.0483-.029.0395-.0308a.8885.8885,0,0,1,.0965-.0613l.1095-.0636c.03-.0184.0675-.0222.0964-.04l.0376-.0347.0483-.03.0212-.0106.02-.0236.0382-.0063.026-.0178.0453-.0343.1105-.0641c.0694-.041.1447-.0757.2146-.1192.0318-.02.0482-.0482.0834-.0593s.0724-.0434.1115-.0612c.0738-.0357.1447-.09.2156-.1331l.1181-.0676c.0352-.0217.0743-.0323.11-.0525s.0733-.0483.1138-.069a.34.34,0,0,0,.1018-.0516.4053.4053,0,0,1,.0853-.056.3815.3815,0,0,0,.1028-.0516l.0381-.0362.0482-.02.0482-.04.0622-.0212.0406-.0285.0521-.026.0964-.0632.0526-.0381.0651-.0275.0482-.028.0294-.0048.0126-.0231.0579-.0164.0453-.028a.1533.1533,0,0,1,.083-.054.4115.4115,0,0,0,.1128-.0584l.04-.0352.0578-.0222a1.0065,1.0065,0,0,0,.1143-.0661c.0676-.0376.1375-.0767.2065-.1066l.0434-.0313.0988-.0482.041-.03.0994-.055a.6352.6352,0,0,1,.109-.0622l.0429-.0145.0415-.0289c.02-.0068.0849-.0217.0825-.0483l.04-.014.0285-.0212.0685-.039.0443-.0078.0459-.0313.0294-.0261.039-.013.0425-.0357.0559-.0255.1018-.055.0482-.0439.1076-.0482.0424-.0295a.7705.7705,0,0,0,.1307-.0588c.0188-.01.0338-.0275.0584-.03.0091-.0246.0111-.0309.04-.0391l.0941-.02c.0125-.0246.066-.0443.0887-.0583l.041-.03.0449-.0227a.52.52,0,0,1,.0964-.0482l.0483-.0246.03-.04.0695-.0058.0188-.0208.03-.0111a.7435.7435,0,0,1,.11-.0569,1.071,1.071,0,0,0,.1027-.0516l.0405-.03.0347-.0111.0222-.0212c.0391-.0256.0917-.0371.1331-.0617l.1168-.0632.1017-.0483a.8168.8168,0,0,0,.1071-.0525.3756.3756,0,0,1,.1447-.068.1243.1243,0,0,1,.0772-.0512l.0414-.011.0111-.02.06-.0237.0348-.0207.1321-.0579.0371-.0241c.0242-.0106.0271-.0053.0338-.0308l.0511-.0082.01-.0169.0236-.0063c.0323-.014.0588-.04.0892-.053l.0483-.0111.0405-.0309.09-.0482.0034.01.04-.0314.0535-.0178.0965-.0564.0516-.0333c.0294-.0169.0661-.0208.0936-.0391s.0328-.0371.0554-.0458l.0555-.0193.108-.0482a.6213.6213,0,0,1,.1447-.0733.4939.4939,0,0,0,.1129-.0526l.0627-.0314.0328-.0139h.0178l.0044-.014a1.1161,1.1161,0,0,0,.1051-.0483l.0449-.0279.0448-.03a.9475.9475,0,0,1,.1206-.0391l.1124-.0535.1037-.0459a.48.48,0,0,0,.0993-.04.9731.9731,0,0,1,.1042-.0482c.0145-.0067.0236-.027.0448-.0313h.0545c-.0207-.0213.0261-.0266.0372-.0309l.0511-.0251a.5466.5466,0,0,1,.1023-.0429.7062.7062,0,0,0,.1162-.0482l.0559-.0328.0618-.0184.0805-.0381.0815-.0246.084-.0376c.0255-.0111.0583-.0058.0839-.02l.094-.0482.0864-.0313a2.3254,2.3254,0,0,0,.27-.0965l.1239-.0444c.0372-.0164.233-.0694.2855-.09.0864-.0338.178-.0564.2663-.0834l.1331-.0449c.0482-.012.0965-.02.1447-.0357.0849-.0289.1746-.0506.2609-.081.0449-.0159.0907-.0159.1341-.0333.0641-.0246.1254-.0448.1862-.0747a1.5268,1.5268,0,0,1,.2156-.0777l.0887-.0448c.0289-.02.1654-.0931.2011-.11l.1066-.0632a1.0455,1.0455,0,0,1,.1987-.14l.0372-.02.0424-.0564c.0236-.0135.0671-.0169.0482-.0535a.0911.0911,0,0,0,.0483-.0357c.0149-.0169.0443-.0183.0579-.0386.0255-.0376.0535-.0719.0762-.1129s.0438-.04.0607-.0757l.0309-.0578.0188-.0483.01-.0241h.0213c.0067.01.0212.0482.04.0236.0125-.0164-.0246-.0424-.02-.0636l.02-.029-.0024-.0371a.0342.0342,0,0,0,.0395-.028l.0005-.0067h-.0087c-.0164-.0256.0236-.0965.0482-.0676l.0111.0246.0169-.0226c.0058-.02-.0043-.0319,0-.0521l.029-.0453a.0971.0971,0,0,0,.0067-.0608l.055-.014.0448-.0367-.0434-.0226v-.0618c-.02-.0029-.0414.0319-.0593.0082s.0372-.0332.0482-.0521v-.0246C51.6953,25.7261,51.6953,25.7242,51.7276,25.7141Z"/><path class="cls-3" d="M37.5825,29.7457l.04.1138a.21.21,0,0,0,.0444.081.4689.4689,0,0,0,.0916.0758c.0183.013.0569.0255.0584.0506a.8746.8746,0,0,1,.1177.0232.63.63,0,0,0,.1336.0125.3917.3917,0,0,0,.1447-.0072c.0265-.0116.1832-.0555.1977-.0637.0357-.0251.1794-.0965.2021-.11a.5161.5161,0,0,1,.123-.0646l.03-.0068.0111-.0265.0617-.0173.0921-.0719.06-.0154.0164-.0242.0357-.0178a.2962.2962,0,0,0,.0728-.0825.6364.6364,0,0,1,.1018-.0964.5074.5074,0,0,0,.1177-.1327A.3745.3745,0,0,1,39.39,29.27a.1371.1371,0,0,0,.0183-.0724c0-.0328.028-.0183.0531-.0313.0337-.0164.0337-.0521.0323-.0854s.0183-.0675.02-.0989c-.028.0183-.0323-.0173-.013-.02l.0173-.0053c.0039-.02.0068-.042-.0063-.0483l-.0067-.0424.0342-.0439.0116-.0236-.02-.0107.0048-.0482a.0482.0482,0,0,0,0-.0617L39.5,28.6436a.0746.0746,0,0,1-.015-.067l.01-.1355a.826.826,0,0,0,0-.1389l.0044-.0555.0183-.0135-.0053-.0111-.0082-.0232.0121-.02c0-.0159-.03-.0183,0-.0332-.0217-.0275.0058-.0854.0082-.1206a.3983.3983,0,0,0,.0033-.0724,1.2911,1.2911,0,0,1,.0068-.218.4851.4851,0,0,1,.0082-.1447l.0087-.0318-.0169-.0265.0135-.0145V27.49l.0154-.0578-.0091-.028.0043-.03.0087.0067.0145.0044.0805.0482.0241.0058v-.0318l-.0029-.0314-.0125-.0222-.0212.015-.042-.015v-.027l.0048-.0342-.0067-.01.0106-.01-.014-.013h-.0333l-.0024-.03-.0038-.0348.0284-.0168.0183.02-.013.0232.0193-.0053.0222.012.0256.0184-.0073.0115.0126.0082h.0164v-.0135l.0115-.0352.0174-.026-.0154-.0217-.0164-.03-.0232-.0188-.0583-.0294-.0169-.029-.0034-.0347V26.969a.1256.1256,0,0,1-.014-.0631l.015-.029.0275-.012L39.6,26.8393a.1362.1362,0,0,1-.0212-.0854c.0029-.0207.0226-.0265.0415-.0265l.027.01v-.0231l.0111-.0256-.014-.0212c-.0063-.02.026-.0338.0439-.03h.0231l.0034-.0241-.0352-.0348a.067.067,0,0,1,.0144-.066l.0174-.0261v-.04l-.0212-.0256-.0116-.0381.0193-.0294c.0125,0,.0333.0092.028-.0135l-.04-.0391v-.026l-.02-.0116-.0058-.0868.0149-.02-.0038-.02.01-.0169.0318-.03-.0062-.0308-.0212.0193-.0237.0149.0111-.0231-.01-.027.0063-.0319.0207-.03.0231-.0178-.0125-.0159H39.69l-.0063-.0111-.0178-.0131-.0029-.0607v-.0357l.0164-.0164.0072-.03.0077-.0116-.0313-.02a.0294.0294,0,0,1,.011-.04l.0039-.0018.0319-.02-.0082-.0135.01-.0173h-.0125l-.0121-.0054-.0236-.0246-.0087-.0289.0087-.0641c0-.0217.0193-.0314.0236-.0521l.0121-.0608.0029-.0077.0082.0029V25.401l-.0174-.0231-.0149-.0208.0072-.0087-.0072-.01.0057-.0121-.0043-.0091.0121-.0111L39.6777,25.3l-.0107-.0043-.01.0072v-.0116l.0092-.0063h-.0145l.0116-.0067.0149-.0265.0145-.0121-.01-.01-.0062.0086-.0179.0029-.0024-.01a.5553.5553,0,0,0,0-.07v-.13L39.66,25.02l-.01-.0275-.0043-.0126.0063-.012.01-.0092-.0039-.0212.0058-.0391a.164.164,0,0,1,.0024-.0632l.0049-.0077h.0053l.01.0068.0164-.0029.0082-.0131.0082-.013-.012-.0058v-.0115l-.0208-.02-.0188-.0261.01-.0241h.016l.0043.0121.0174-.0174.0033-.0313-.0072-.029-.0178-.0111-.0078-.0246-.0043-.012.0174.0072.0178-.0072h.0145l.0034.012h.0125l-.0053-.0072-.0087-.0164.0154-.013v-.0246l.0256-.0212-.015.0048-.01-.0048H39.73l-.0516-.0078.0048-.0062-.0048-.0063.0106-.0251.0135-.0034.01-.0111.0125-.0226.0212-.0174.0068-.012.0174-.0184-.0174-.0043-.0039-.0323-.0091-.0145.0062-.0106.0116-.0092.0135.0039.0087-.0285-.027-.0029-.0034-.0159-.0043-.0048.0077-.0178-.0024-.0121.0294-.0125.0241-.0155-.0144-.0193.0038-.0279-.0029-.0107.0106-.0062.0029-.0294-.014-.0058-.0024-.0073v.0025l-.0091-.01.0164-.0405.0144-.0038.0087-.0078h-.03l-.01-.0057-.0077.0067v-.0159l-.0053-.015-.01-.0154-.0067-.0111.0217-.0207.0429-.04.0034-.025-.0145-.02-.0111-.0058-.0024-.015.0087-.0236h.0116l.0192-.0087-.0062-.0087h.0106V23.82l-.0116.0039V23.81l-.0217-.0222.0251-.0145.0149-.0193V23.72l.0193-.0145.0092-.0236-.0063-.0236-.0111-.0073-.0043-.0409v-.0275l.0135-.0261.0024-.0318-.0077-.0232-.0053-.0057-.0082-.01.0058-.0111-.0106-.027-.0082-.0091-.0111.0193h-.0092l.0043-.0082-.0168-.0242v-.014l.0072-.0424.0043-.01-.0115.0057.0144-.0217-.0087-.01.0058-.0116-.0135-.0043-.0241-.0039-.01.0092-.0116.014v-.0126l-.01-.0192v-.0087h-.0106l.0043-.0256.0116-.0082v-.0077l.0067-.0116v-.0169l-.0106-.0077-.0106-.0034.0116-.0072.0043-.0357.0029-.0173-.01-.02-.01.0029v-.0338l-.0092-.0279v-.014l-.0121-.0087V23.04l-.013-.0063-.0188-.013-.0227-.0222-.0212-.0159-.026-.0135-.0338-.0077-.0217-.014-.0453-.0126a.1246.1246,0,0,1-.0676-.0053l-.0168-.0086-.0159.0125h-.03l-.0381.0063-.094.0091-.0207.014-.0164-.0231H39.176l-.0274.0135-.03.0125h-.04l-.0381.0063-.03.0149-.0318.01-.0362.0192-.0082.01H38.918l-.0217.02-.0309.0144-.0564.0237-.0665.0559-.0208.0208-.0839.0737-.0285.0179-.014.0251-.0376.0246-.0082.0144-.0241.0189-.0608.0689-.0622.0656L38.38,23.52l-.0107.0067-.0265.0482-.0159.0068-.0116.0444-.053.0757.0058.028-.0285.0559.0106.0068-.0217.0154-.0077.0087.0029.0106-.0039.0183-.0178.0087.0043.01-.0106.0145-.0072.0439-.01.02-.0207.0347v.0338l-.0125.0091-.0184.054-.026.1042h.0067l-.01.04-.0072.0752-.0106.0087.0067.01.0068.029-.014.0077.013.0174-.0125.0062-.0034.0352-.0044.0806-.027.055.0169.0279v.057l-.01.0082-.0106.0506-.0121.0612-.0034.0632-.013-.0067.0044.0106.01.0091-.013.0025v.0588l.0149.0053-.0033.014-.0116.0087-.0087.0429-.0092.0309v.0356l.0073.0136-.0135.02-.01.0068v.0386l-.0048.1051-.01.0632-.0067.04.0067.0169V25.36h-.011l-.0034.0144.0034.0377-.0068.0786-.0087.06v.0419l-.0029.0367-.0106.0222.0135.0034-.0082.0086-.0091.0053-.0039.0309.014.0053.0029.0087-.014-.0053h-.0145l.0068.0125.0111.0213-.0044.0212-.0077.0265.0125.0328-.0246.0043-.0082.0116c.02.0039.0082.0121.0126.0265l.0111.0232a.5182.5182,0,0,1-.0068.0757l-.02.0444-.0029.0719v.0144l-.0048.0155v.0853l-.0082.0483-.0126.0082.0208.0318-.0034.0159-.0145.0039-.0058.03a.185.185,0,0,1-.0029.0589l-.0125.0564.0024.0849.0063.0294-.0227.0135.014.0174-.014.0169v.0188l.0106.0053.0145.026-.028.01-.0029.01-.0043.1186-.014.0622-.0077.03.014.0256-.014.0178v.02l.0111.0068.0029.0159-.0116.0053-.0116.0034c-.0043.0361.0048.0627,0,.0675l-.01.1182-.0131.0279.0126.0309-.0068.0357a.5494.5494,0,0,0-.0125.0965c-.0048.0125-.0068.1128-.0135.1365v.066l-.0135.0762-.014.123-.014.0415.0077.0275.0029.0328-.014.1292-.0033.0454-.014.0241.0072.012-.0077.0483c-.0044.0106-.028.0246-.0092.0347l.0068.027h-.01l.0078.0068-.0092.0482v.0675a1.8417,1.8417,0,0,1-.0246.21.5444.5444,0,0,0-.0193.1336.6615.6615,0,0,1-.01.1447.8775.8775,0,0,0-.0121.1273.9453.9453,0,0,1-.0058.1447l-.0212.0661.0024.0545c-.0048.0193-.0111.1982-.0145.22a.5937.5937,0,0,0,0,.1447c0,.025-.0058.0419-.0058.068A.2531.2531,0,0,0,37.5825,29.7457Z"/><path class="cls-3" d="M38.7318,20.7145c.0121.0275.0049.0593.0188.0887l.0222.08.0087.0434.02.0289c.0241.0536.0689.0748.11.1143a.1117.1117,0,0,0,.067.0386.1245.1245,0,0,1,.082.028c.043.0352.1042.027.1553.0415.0425.0116.0859.0053.1269.0169s.0482-.0063.0825-.0179l.041-.0038.0294.0144a.0873.0873,0,0,0,.0767-.0038l.0294-.0227c.0357-.0164.0965-.0256.123-.0559a.1848.1848,0,0,1,.0583-.0483l.0762-.0207.0246-.0347.0324-.0256L40,20.9272a.8175.8175,0,0,0,.14-.1172.39.39,0,0,0,.0506-.0724.3252.3252,0,0,1,.0483-.067l.0419-.0671a.7185.7185,0,0,1,.0825-.0848.5074.5074,0,0,0,.0661-.0907c.0188-.0309.0482-.0246.07-.0483l.01-.0385.0184-.0324.0279-.0308.02-.0362.0256-.03.0058-.0439.0183-.0231.0029-.0309.0116-.0651.0294-.0743.041-.0535.0091-.0212-.0106-.0193v-.03L40.69,19.81l-.0082-.0232.01-.0188c-.03-.0092-.0217-.0617-.0208-.0834v-.0521c-.0034-.0246-.0125-.0222-.0294-.0343l-.0289-.03-.0179-.0361-.0217-.0266-.0265-.0448-.0174-.0352-.0226-.0242-.0309.0039a.15.15,0,0,1-.0806.0111l-.0434-.02-.0371-.0111-.0333-.0188-.0405-.0082a.4355.4355,0,0,1-.0666,0,.2061.2061,0,0,0-.0665,0l-.0449-.0034a.4342.4342,0,0,0-.09.0034l-.0183.0053-.0183-.0053-.04.0111a.215.215,0,0,1-.0815.0227.5241.5241,0,0,1-.0723.0231l-.0362.0068-.0323.0169c-.0261.0111-.0521.0082-.0753.0231l-.0275.0188-.0675.0319-.0342.0139-.0237.0246-.0323.014-.01.0135-.0222.0068-.0275.0222-.0309.0193-.011.0111-.0174.0048-.013.0183-.041.014-.0213.03-.0569.0482-.0231.03-.0381.0164-.0212.027c-.0053.0184.0024.0193-.0188.027l-.0357.0155v.02l-.0126.014-.0439.0545-.0217.0343-.0323.0275-.0169.0308-.0178.0309a.3479.3479,0,0,0-.0482.0849l-.0193.0444c-.0024.0082-.0121.0993-.0323.0805l-.0082.0453-.0044.0217-.0154.0121-.0077.0482-.01.0637-.02.0453-.0058.0425c.0043.0294-.0116.0535-.0106.0844S38.7217,20.6875,38.7318,20.7145Z"/>
</svg>