<svg width="143" height="62" viewBox="0 0 143 62" fill="none" xmlns="http://www.w3.org/2000/svg">
<path d="M18.1676 48.5804C27.649 48.5804 35.3352 40.8393 35.3352 31.2902C35.3352 21.7411 27.649 14 18.1676 14C8.68619 14 1 21.7411 1 31.2902C1 40.8393 8.68619 48.5804 18.1676 48.5804Z" fill="white"/>
<path d="M18.3008 40.9327C13.584 40.9485 8.67588 36.8934 8.65525 30.3826C8.64439 26.0774 10.9507 21.9333 13.899 19.469C16.7746 17.0706 20.7137 15.5323 24.287 15.5201C24.7032 15.5061 25.1193 15.5525 25.5225 15.6579C22.3986 16.3106 19.9118 19.2384 19.9227 22.5603C19.9226 22.6547 19.9295 22.7489 19.9433 22.8421C25.1712 24.1243 27.5441 27.301 27.5587 31.6965C27.5732 36.0919 24.1283 40.9131 18.3008 40.9327Z" fill="#E60000"/>
<path d="M46.89 38.4297L41.6238 25.547H45.0649L48.3457 34.0998L51.5268 25.547H54.8075L49.7054 38.4297H46.89Z" fill="white"/>
<path d="M67.1614 31.9348C67.161 32.7741 67.0335 33.6082 66.7835 34.4074C66.5419 35.1971 66.1618 35.935 65.6619 36.5849C65.155 37.2365 64.5145 37.766 63.7858 38.1357C62.1044 38.9197 60.1744 38.9197 58.4929 38.1357C57.7642 37.766 57.1237 37.2365 56.6168 36.5849C56.1169 35.9352 55.7372 35.1972 55.4965 34.4074C55.2459 33.6083 55.1184 32.7741 55.1186 31.9348C55.1178 31.0998 55.2454 30.27 55.4965 29.4758C55.7378 28.694 56.118 27.9646 56.618 27.3245C57.1262 26.6811 57.7669 26.1609 58.4941 25.8011C59.2499 25.4191 60.1321 25.2276 61.1406 25.2268C62.1491 25.226 63.0268 25.4174 63.7737 25.8011C64.4983 26.1659 65.1383 26.6853 65.651 27.3245C66.1574 27.9622 66.5421 28.692 66.7847 29.4758C67.0348 30.2702 67.1619 31.1 67.1614 31.9348ZM63.9815 31.9211C63.9835 31.4057 63.9219 30.8921 63.798 30.3926C63.6921 29.9464 63.5067 29.5241 63.2512 29.1469C63.0173 28.8078 62.7147 28.5244 62.3642 28.3161C61.5966 27.9043 60.6809 27.9043 59.9133 28.3161C59.5629 28.524 59.2606 28.8075 59.0275 29.1469C58.7715 29.5238 58.5861 29.9462 58.4808 30.3926C58.2361 31.4008 58.2361 32.455 58.4808 33.4632C58.5887 33.9063 58.769 34.3275 59.0142 34.7089C59.2402 35.0589 59.5443 35.3488 59.9012 35.5547C60.2807 35.7647 60.7069 35.8703 61.1382 35.8611C61.5658 35.8713 61.9884 35.7651 62.363 35.5534C62.7159 35.3421 63.0189 35.0532 63.25 34.7076C63.5024 34.3287 63.6875 33.907 63.7968 33.462C63.9223 32.9585 63.9839 32.4406 63.9803 31.9211H63.9815Z" fill="white"/>
<path d="M77.1324 38.4297L77.0036 37.4407C76.6704 37.8094 76.2742 38.1125 75.8347 38.3351C75.3011 38.6068 74.7109 38.741 74.1153 38.7262C73.3186 38.7436 72.531 38.5501 71.8285 38.1644C71.1752 37.7951 70.6077 37.2852 70.165 36.6696C69.7008 36.0159 69.3536 35.2828 69.1395 34.5046C68.9033 33.6709 68.785 32.8067 68.7883 31.9385C68.7884 31.1047 68.9113 30.2757 69.1529 29.4796C69.3857 28.6976 69.7604 27.9677 70.2574 27.3283C70.7611 26.6874 71.3957 26.1673 72.1165 25.8048C72.8601 25.4228 73.735 25.2314 74.7411 25.2306C75.4655 25.243 76.1839 25.3691 76.8711 25.6043V20.6029H80.1045V38.4297H77.1324ZM76.8699 28.3871C76.3184 28.1529 75.7291 28.0262 75.1323 28.0134C74.6382 27.9996 74.1484 28.1104 73.7058 28.336C73.3157 28.5443 72.9783 28.8428 72.7204 29.208C72.4581 29.582 72.2608 29.9996 72.1371 30.4425C72.007 30.8997 71.9416 31.3738 71.9427 31.8501C71.9407 32.3691 71.9973 32.8866 72.1116 33.3922C72.2102 33.8459 72.3853 34.2785 72.6292 34.6703C72.8551 35.0289 73.1561 35.3314 73.5102 35.556C73.8906 35.7857 74.3264 35.9014 74.7678 35.8898C75.1933 35.8816 75.6104 35.767 75.9829 35.556C76.3436 35.382 76.6494 35.1074 76.8651 34.7637L76.8699 28.3871Z" fill="white"/>
<path d="M89.4631 38.4172L89.3343 37.4556C88.9635 37.8658 88.5064 38.184 87.9977 38.3861C87.4322 38.6164 86.8285 38.7319 86.22 38.7262C85.6872 38.7279 85.1584 38.6317 84.6586 38.4421C84.1734 38.2621 83.7254 37.9904 83.3378 37.6412C82.5017 36.8795 82.0332 35.7805 82.0559 34.6341C82.0434 34.0468 82.1684 33.4651 82.4204 32.9375C82.6596 32.4532 82.9987 32.0281 83.4144 31.6918C83.8508 31.3428 84.3363 31.0636 84.8543 30.8635C85.4045 30.6463 85.9743 30.4852 86.5554 30.3826C87.0125 30.2887 87.4746 30.2226 87.9394 30.1846C88.4359 30.1397 88.8503 30.0982 89.1824 30.06V29.8819C89.1824 29.1694 89.0034 28.6615 88.6453 28.3584C88.2873 28.0553 87.794 27.9038 87.1654 27.9038C86.8116 27.9019 86.4591 27.9472 86.1167 28.0383C85.8092 28.1172 85.5107 28.2291 85.2261 28.3721C84.9871 28.4917 84.7551 28.6252 84.531 28.772C84.362 28.8822 84.1997 29.0028 84.045 29.1332L82.9769 26.8076C83.1775 26.6392 83.3908 26.4876 83.6149 26.3541C83.9484 26.1522 84.297 25.9777 84.6574 25.8322C85.105 25.6495 85.5662 25.5042 86.0365 25.3975C86.5821 25.2789 87.1387 25.2217 87.6964 25.2268C88.3409 25.2192 88.9828 25.3138 89.5992 25.5071C90.1517 25.6847 90.658 25.9879 91.0804 26.394C91.5119 26.8201 91.8442 27.3404 92.0525 27.9162C92.3037 28.6302 92.4232 29.3859 92.4048 30.1447V38.4235L89.4631 38.4172ZM89.2043 32.3894C88.8543 32.4069 88.4947 32.438 88.1277 32.4828C87.7608 32.5277 87.4108 32.585 87.0779 32.656C86.378 32.7988 85.8919 33.0438 85.6198 33.3909C85.3593 33.7094 85.2157 34.1113 85.2139 34.527C85.2006 34.9249 85.3708 35.3061 85.6732 35.5559C85.9794 35.815 86.4124 35.9442 86.9722 35.9433C87.3909 35.9426 87.8049 35.8518 88.1873 35.6767C88.5584 35.5134 88.9002 35.2873 89.1982 35.0078L89.2043 32.3894Z" fill="white"/>
<path d="M102.399 23.5427C102.202 23.4533 101.999 23.3776 101.791 23.316C101.396 23.2057 100.986 23.1561 100.576 23.169C100.161 23.1556 99.7563 23.3033 99.4426 23.5826C99.1388 23.8591 98.987 24.3088 98.987 24.9316V25.547H101.694V28.2202H99.0088V38.4347H95.7767V28.2202H94.1084V25.547H95.7767V24.8519C95.7591 24.1307 95.8648 23.4119 96.089 22.728C96.2699 22.1932 96.5689 21.7085 96.9626 21.3117C97.3363 20.9455 97.7863 20.6712 98.2786 20.5095C98.8098 20.3376 99.3643 20.2535 99.9214 20.2603C100.576 20.2448 101.231 20.321 101.866 20.4871C102.172 20.5637 102.472 20.6645 102.763 20.7885L102.399 23.5427Z" fill="white"/>
<path d="M114.391 31.9347C114.39 32.774 114.263 33.6082 114.013 34.4074C113.771 35.1971 113.391 35.935 112.891 36.5848C112.384 37.2365 111.743 37.7659 111.014 38.1357C109.333 38.9196 107.403 38.9196 105.722 38.1357C104.993 37.7656 104.353 37.2362 103.845 36.5848C103.345 35.9355 102.965 35.1974 102.725 34.4074C102.474 33.6084 102.346 32.7741 102.345 31.9347C102.345 31.0997 102.473 30.2699 102.725 29.4758C102.965 28.6938 103.345 27.9643 103.845 27.3245C104.354 26.6814 104.995 26.1612 105.722 25.801C106.549 25.4026 107.454 25.206 108.367 25.2268C109.376 25.2268 110.254 25.4182 111.001 25.801C111.725 26.1658 112.365 26.6853 112.878 27.3245C113.385 27.9621 113.77 28.6919 114.013 29.4758C114.263 30.2701 114.391 31.0999 114.391 31.9347ZM111.21 31.921C111.212 31.4056 111.15 30.8921 111.026 30.3926C110.92 29.9461 110.735 29.5237 110.478 29.1469C110.245 28.8074 109.943 28.5239 109.592 28.316C108.825 27.9042 107.909 27.9042 107.141 28.316C106.791 28.5239 106.489 28.8074 106.256 29.1469C105.999 29.5237 105.813 29.9461 105.708 30.3926C105.465 31.4009 105.465 32.4548 105.708 33.4632C105.816 33.9062 105.997 34.3273 106.242 34.7088C106.468 35.0586 106.772 35.3484 107.128 35.5546C107.508 35.765 107.935 35.8706 108.367 35.8611C108.796 35.8714 109.219 35.7653 109.594 35.5534C109.946 35.3424 110.249 35.0534 110.479 34.7076C110.733 34.329 110.918 33.9072 111.027 33.4619C111.152 32.9584 111.214 32.4405 111.21 31.921Z" fill="white"/>
<path d="M124.425 38.4297V31.0802C124.425 30.1011 124.225 29.3442 123.825 28.8094C123.424 28.2746 122.868 28.0072 122.156 28.0072C121.664 28.0037 121.18 28.1427 120.761 28.4083C120.359 28.6563 119.987 28.9524 119.653 29.2902V38.431H116.421V25.547H119.366L119.523 26.5622C120.032 26.1325 120.61 25.7981 121.232 25.5744C121.846 25.3462 122.494 25.2286 123.148 25.2268C123.768 25.2206 124.385 25.3243 124.97 25.5333C125.519 25.7338 126.011 26.0691 126.403 26.5099C126.833 27.0112 127.15 27.6043 127.329 28.2463C127.562 29.0801 127.672 29.9452 127.655 30.8124V38.4297H124.425Z" fill="white"/>
<path d="M132.839 32.8167C132.91 33.9038 133.242 34.6877 133.835 35.1685C134.428 35.6494 135.197 35.8898 136.143 35.8898C136.556 35.8904 136.968 35.8487 137.373 35.7652C137.722 35.6951 138.063 35.5921 138.394 35.4575C138.655 35.3507 138.908 35.2258 139.153 35.0838C139.323 34.9879 139.482 34.8712 139.625 34.7363L140.485 37.4357C140.296 37.5662 140.1 37.6863 139.898 37.7957C139.577 37.9695 139.241 38.1129 138.894 38.2242C138.433 38.3728 137.963 38.4889 137.486 38.5717C136.9 38.6733 136.307 38.7224 135.713 38.7187C134.919 38.7221 134.13 38.5865 133.38 38.3176C132.65 38.0559 131.986 37.6304 131.436 37.0719C130.856 36.4771 130.402 35.7654 130.103 34.9817C129.773 34.1446 129.607 33.148 129.607 31.9921C129.59 31.0099 129.745 30.0324 130.063 29.1058C130.334 28.3196 130.76 27.5988 131.315 26.9882C131.836 26.4239 132.467 25.9776 133.166 25.6777C133.881 25.3737 134.647 25.2195 135.42 25.2243C136.177 25.2165 136.928 25.352 137.637 25.6242C138.311 25.8902 138.914 26.3173 139.396 26.8699C139.931 27.5041 140.331 28.2462 140.57 29.0485C140.857 29.9396 141 30.9997 141 32.2287V32.8167H132.839ZM137.714 30.4387C137.691 30.0373 137.598 29.6434 137.44 29.2752C137.31 28.9732 137.123 28.7008 136.889 28.4743C136.684 28.2775 136.443 28.1231 136.181 28.0196C135.934 27.9226 135.672 27.8727 135.408 27.8726C134.849 27.8726 134.316 28.0865 133.809 28.5141C133.302 28.9418 133.005 29.5833 132.918 30.4387H137.714Z" fill="white"/>
</svg>
