<svg width="143" height="62" viewBox="0 0 143 62" fill="none" xmlns="http://www.w3.org/2000/svg">
<path d="M43.1474 31.1164L43.1271 31.0555C42.8428 30.0606 41.8683 29.411 40.8329 29.5531C41.2796 28.7816 41.1577 27.8071 40.5284 27.1574L40.4269 27.0762C40.4066 27.0559 40.3863 27.0356 40.366 27.0153L40.2035 26.8732L40.1629 26.8529C39.7772 26.5281 39.3712 26.2438 38.9245 26.0002C35.9401 24.3557 32.306 24.3557 29.3013 26.0002C27.8801 26.8123 26.7026 27.9898 25.8905 29.411C25.0378 30.8727 24.6115 32.5578 24.6115 34.4662C24.6115 36.3746 25.0378 38.0597 25.8905 39.5215C26.7026 40.9426 27.8801 42.1202 29.3216 42.9322C32.3263 44.5564 35.9401 44.5564 38.9448 42.9322C40.366 42.1202 41.5638 40.9426 42.3759 39.5215C43.2286 38.0597 43.6549 36.3746 43.6549 34.4662C43.6549 33.3496 43.4925 32.233 43.1474 31.1773C43.1474 31.157 43.1474 31.1367 43.1474 31.1164ZM38.7418 37.5116C38.2951 38.3439 37.6252 39.0545 36.8131 39.5621C35.1686 40.5366 33.1181 40.5366 31.4736 39.5621C30.6615 39.0545 29.9915 38.3642 29.5449 37.5116C29.0576 36.5777 28.814 35.5219 28.8343 34.4459C28.814 33.3699 29.0576 32.3142 29.5449 31.36C29.9915 30.5276 30.6615 29.817 31.4736 29.3095C33.1181 28.335 35.1686 28.335 36.8131 29.3095C37.077 29.4719 37.3206 29.6546 37.544 29.8576C37.5643 29.8779 37.5846 29.9185 37.6252 29.9388L37.7673 30.0606C37.7876 30.0809 37.8079 30.1012 37.8282 30.1216C38.2545 30.4667 38.7824 30.6088 39.3305 30.5479C39.026 31.0352 38.9448 31.6239 39.1072 32.1721L39.1275 32.233C39.1275 32.233 39.1275 32.2533 39.1478 32.2736C39.3712 32.9842 39.493 33.7353 39.4727 34.4662C39.493 35.5219 39.2493 36.5777 38.7418 37.5116Z" fill="url(#paint0_linear_210_44)"/>
<path d="M25.7078 27.7056C25.7281 27.5635 25.7484 27.4214 25.7484 27.259C25.7687 26.6905 25.5454 26.122 25.1596 25.6957C24.7942 25.3099 24.2866 25.0866 23.7588 25.0866C22.6828 25.0866 22.0128 25.5333 21.7286 26.4063L17.9929 36.4762L15.2928 29.1877C15.1709 28.8222 14.9476 28.4771 14.6431 28.2335C14.2979 27.9898 13.8919 27.868 13.4656 27.9086C12.552 27.9086 11.9226 28.335 11.5368 29.208L8.77574 36.6995L5.01984 26.4266C4.91833 26.0002 4.6544 25.6348 4.28896 25.4115C3.92352 25.2084 3.51747 25.0866 3.09113 25.0866C2.50236 25.0663 1.9339 25.3099 1.54816 25.7566C1.20302 26.1626 1 26.7108 1 27.259C1 27.5432 1.0406 27.8071 1.14212 28.071L6.4816 42.4653C6.64401 42.912 6.94855 43.2977 7.37489 43.521C7.76063 43.7647 8.22759 43.8459 8.69454 43.785C9.48632 43.7444 10.0751 43.2977 10.4811 42.4653L13.3031 33.8775L16.2876 42.4653C16.6733 43.2977 17.2824 43.7444 18.0742 43.785C18.5411 43.8459 19.0081 43.7647 19.3938 43.521C19.7998 43.2774 20.1247 42.912 20.2668 42.4653L25.6063 28.071C25.6469 27.9492 25.6875 27.8274 25.7078 27.7056Z" fill="url(#paint1_linear_210_44)"/>
<path d="M69.5809 25.8175C68.7079 25.0866 67.4288 24.7415 65.7437 24.7415C64.7692 24.7212 63.8353 24.9445 62.9623 25.3912C62.1706 25.7972 61.46 26.3251 60.8509 26.9747C60.3636 27.462 59.9576 28.0102 59.6125 28.5989C59.3079 27.665 58.8004 26.8123 58.1101 26.1018C57.2168 25.2085 55.8566 24.7618 53.9888 24.7618C53.2579 24.7618 52.5473 24.8836 51.857 25.1272C51.2277 25.3709 50.6186 25.6957 50.0704 26.0815C49.5629 26.4469 49.1162 26.8732 48.7102 27.3605C48.5884 27.5229 48.4666 27.665 48.365 27.8071V27.2387C48.3854 26.6702 48.162 26.1221 47.7763 25.716C46.9439 24.9039 45.6039 24.9039 44.7716 25.716C44.3858 26.1221 44.1625 26.6702 44.1828 27.2387V41.6735C44.1625 42.242 44.3858 42.7902 44.7716 43.1962C45.6039 44.0083 46.9439 44.0083 47.7763 43.1962C48.162 42.7902 48.3854 42.242 48.365 41.6735V32.7203C48.3447 32.0097 48.5072 31.2788 48.832 30.6494C49.1568 30.0201 49.6441 29.5125 50.2532 29.1674C50.9434 28.7816 51.7352 28.5786 52.527 28.5989C53.4406 28.5989 54.1309 28.7816 54.6181 29.1674C55.1054 29.5328 55.4708 30.0607 55.6332 30.6494C55.816 31.3194 55.9175 32.03 55.8972 32.7203V41.6735C55.8769 42.242 56.1002 42.7902 56.4859 43.1962C57.3183 44.0083 58.6583 44.0083 59.4907 43.1962C59.8764 42.7902 60.0997 42.242 60.0794 41.6735V32.7203C60.0591 31.9894 60.2215 31.2788 60.5464 30.6494C60.8712 30.0201 61.3585 29.5125 61.9675 29.1674C62.6578 28.7816 63.4496 28.5786 64.2414 28.5989C65.155 28.5989 65.8452 28.7816 66.3325 29.1674C66.8198 29.5328 67.1852 30.0607 67.3476 30.6494C67.5303 31.3194 67.6318 32.03 67.6115 32.7203V41.6735C67.5912 42.242 67.8146 42.7902 68.2003 43.1962C69.0327 44.0083 70.3726 44.0083 71.205 43.1962C71.5908 42.7902 71.8141 42.242 71.7938 41.6735V32.7203C71.8141 31.3803 71.6517 30.0201 71.3065 28.7207C71.1035 27.5838 70.4741 26.5687 69.5809 25.8175Z" fill="url(#paint2_linear_210_44)"/>
<path opacity="0.5" d="M31.0066 21.9194C31.0066 21.8991 31.0269 21.8788 31.0269 21.8585L31.1081 21.6555C31.1081 20.7622 30.4179 20.011 29.5043 19.9704H29.484C28.5501 19.9095 27.738 20.6201 27.6771 21.554L27.5349 23.767C27.5349 23.7873 27.5349 23.8076 27.5349 23.8279L27.4537 26.7311C28.2049 26.0611 29.0576 25.5129 29.9509 25.0866L31.0066 21.9194Z" fill="#19AA92"/>
<path opacity="0.8" d="M31.9405 24.4776L35.6965 21.4526L35.7168 21.3917C35.7371 21.3308 35.7574 21.2496 35.7777 21.1887C36.001 20.3766 35.5746 19.5239 34.8032 19.2194H34.7829C33.9099 18.8539 32.9151 19.2194 32.4887 20.072L31.5751 22.0617C31.5548 22.082 31.5548 22.1023 31.5548 22.1226L30.3976 24.904C30.9051 24.7213 31.4127 24.5791 31.9405 24.4776Z" fill="#19AA92"/>
<path d="M34.1332 24.2137C34.5595 24.2137 34.9859 24.234 35.3919 24.2949C36.2649 24.3761 37.1379 24.5994 37.9297 24.9446L38.1327 25.0258L39.1275 24.2746C39.1681 24.2543 39.1884 24.2137 39.2087 24.1934L40.8938 23.0159C41.7262 22.4271 42.051 21.148 41.6044 20.1532V20.1329C41.1577 19.1381 40.102 18.8133 39.2696 19.4021L37.28 20.8029C37.2597 20.8232 37.2394 20.8232 37.2191 20.8435L32.5902 24.3355C33.1181 24.2543 33.6256 24.2137 34.1332 24.2137Z" fill="#19AA92"/>
<path d="M82.2089 24.7618C83.7518 24.7415 85.2745 25.1679 86.5738 26.0003C87.8732 26.8326 88.9289 28.0102 89.6192 29.3907C90.3703 30.8322 90.7561 32.497 90.7561 34.3851C90.7561 36.2732 90.3907 37.9583 89.6395 39.3997C88.9492 40.7803 87.9138 41.9578 86.6144 42.8105C85.3557 43.6429 83.8736 44.0692 82.351 44.0489C81.4577 44.0489 80.5847 43.9068 79.7523 43.6023C78.9808 43.318 78.2702 42.9323 77.6206 42.4653C77.0724 42.0796 76.6054 41.5923 76.1994 41.0645C75.8543 40.5975 75.6918 40.1915 75.6918 39.8667L76.7679 39.42V41.9578C76.7882 42.5262 76.5648 43.0744 76.1791 43.4601C75.7934 43.8662 75.2452 44.0895 74.6767 44.0692C74.1286 44.0895 73.5804 43.8662 73.1744 43.4805C72.7683 43.0744 72.5653 42.5262 72.5856 41.9578V20.1329C72.5653 19.5645 72.7886 19.0366 73.1744 18.6306C74.0068 17.8185 75.3264 17.8185 76.1588 18.6306C76.5445 19.0366 76.7679 19.5848 76.7476 20.1329V28.9441L76.1588 28.6395C76.1588 28.335 76.3212 27.9696 76.6461 27.5432C77.0318 27.056 77.4784 26.6296 77.9657 26.2642C78.5545 25.8175 79.2041 25.4521 79.8944 25.2085C80.6253 24.9039 81.4171 24.7618 82.2089 24.7618ZM81.681 28.5989C80.7268 28.5786 79.7929 28.8426 79.0011 29.3704C78.2296 29.878 77.6206 30.6089 77.2145 31.4412C76.7679 32.3751 76.5445 33.3903 76.5648 34.4054C76.5445 35.4408 76.7679 36.4559 77.2145 37.3695C77.6003 38.2222 78.2296 38.9531 79.0011 39.4606C79.7929 39.9885 80.7268 40.2524 81.681 40.2321C82.6149 40.2524 83.5488 39.9885 84.3406 39.4606C85.1121 38.9328 85.7211 38.2019 86.1069 37.3695C86.5332 36.4356 86.7566 35.4205 86.7566 34.4054C86.7769 33.37 86.5535 32.3548 86.1069 31.4412C85.7008 30.6089 85.0918 29.8983 84.3406 29.3704C83.5488 28.8426 82.6352 28.5786 81.681 28.5989Z" fill="url(#paint3_linear_210_44)"/>
<path d="M101.009 24.7619C102.552 24.7416 104.074 25.1679 105.374 26.0003C106.673 26.8327 107.729 27.9899 108.439 29.3705C109.19 30.8119 109.576 32.4767 109.576 34.3648C109.576 36.2529 109.211 37.938 108.439 39.3997C107.749 40.7803 106.714 41.9578 105.414 42.8105C104.156 43.6429 102.653 44.0693 101.151 44.049C100.257 44.049 99.3845 43.9068 98.5521 43.6023C97.7806 43.3181 97.07 42.9323 96.4204 42.4654C95.8722 42.0796 95.4053 41.5924 94.9992 41.0645C94.6744 40.5976 94.4917 40.1915 94.4917 39.8667L95.5677 39.42V41.9578C95.588 42.5263 95.3646 43.0744 94.9789 43.4602C94.5932 43.8662 94.045 44.0896 93.4765 44.0693C92.9284 44.0896 92.3802 43.8662 91.9742 43.4805C91.5681 43.0744 91.3651 42.5263 91.3854 41.9578V20.133C91.3651 19.5645 91.5884 19.0163 91.9742 18.6103C92.8066 17.7982 94.1262 17.7982 94.9586 18.6103C95.3443 19.0163 95.5677 19.5645 95.5474 20.1127V28.9238L94.9586 28.6193C94.9586 28.3147 95.121 27.9493 95.4459 27.523C95.8316 27.0357 96.2783 26.6094 96.7655 26.2439C97.3543 25.7973 98.0039 25.4318 98.6942 25.1882C99.4251 24.904 100.217 24.7619 101.009 24.7619ZM100.481 28.599C99.5266 28.5787 98.5927 28.8426 97.8009 29.3705C97.0294 29.878 96.4204 30.6089 96.0143 31.4413C95.5677 32.3752 95.3443 33.3903 95.3646 34.4054C95.3443 35.4408 95.5677 36.4559 96.0143 37.3695C96.4001 38.2222 97.0294 38.9531 97.8009 39.4607C98.5927 39.9885 99.5266 40.2524 100.481 40.2321C101.435 40.2524 102.349 39.9885 103.14 39.4607C103.912 38.9328 104.521 38.2019 104.907 37.3695C105.333 36.4356 105.556 35.4205 105.556 34.4054C105.577 33.37 105.353 32.3549 104.907 31.4413C104.501 30.6089 103.892 29.8983 103.14 29.3705C102.349 28.8426 101.435 28.5584 100.481 28.599Z" fill="url(#paint4_linear_210_44)"/>
<path d="M126.224 24.7618C126.772 24.7415 127.32 24.9648 127.726 25.3505C128.132 25.7566 128.335 26.3048 128.315 26.8732V41.5517C128.335 42.1202 128.112 42.6683 127.726 43.0541C126.894 43.8662 125.574 43.8662 124.742 43.0541C124.356 42.648 124.133 42.0999 124.153 41.5517V39.8463L124.925 40.1509C124.925 40.4554 124.762 40.8208 124.437 41.2472C124.052 41.7344 123.605 42.1608 123.118 42.5059C122.509 42.9526 121.859 43.2977 121.148 43.5616C120.377 43.8459 119.545 44.0083 118.712 43.988C117.169 44.0083 115.667 43.5819 114.368 42.7495C113.048 41.9171 111.992 40.7396 111.282 39.3591C110.51 37.8161 110.124 36.1107 110.145 34.385C110.145 32.4969 110.53 30.8118 111.282 29.3704C111.972 27.9898 113.028 26.8123 114.327 25.9596C115.586 25.1475 117.068 24.7212 118.57 24.7212C119.504 24.7009 120.438 24.8633 121.311 25.1678C122.082 25.4318 122.813 25.8175 123.483 26.3048C124.031 26.6905 124.498 27.1777 124.904 27.7056C125.25 28.1726 125.412 28.5786 125.412 28.9034L124.153 29.3501V26.8935C124.133 26.3251 124.356 25.7769 124.742 25.3912C125.128 24.9851 125.676 24.7618 126.224 24.7618ZM119.22 40.2321C120.174 40.2524 121.108 39.9884 121.9 39.4606C122.671 38.9327 123.28 38.2221 123.686 37.3898C124.113 36.4762 124.336 35.461 124.336 34.4459C124.356 33.4105 124.133 32.3954 123.686 31.4615C123.28 30.6291 122.671 29.8982 121.9 29.3704C121.108 28.8425 120.174 28.5786 119.22 28.5989C118.286 28.5786 117.372 28.8425 116.58 29.3704C115.809 29.8982 115.18 30.6088 114.794 31.4615C114.347 32.3954 114.144 33.4105 114.144 34.4459C114.124 35.461 114.347 36.4762 114.794 37.3898C115.2 38.2425 115.809 38.953 116.58 39.4809C117.372 39.9884 118.286 40.2524 119.22 40.2321Z" fill="url(#paint5_linear_210_44)"/>
<path d="M140.395 39.1764C140.09 39.1764 139.766 39.2373 139.481 39.3591C139.217 39.4809 138.913 39.5418 138.608 39.5418C138.324 39.5418 138.06 39.4809 137.796 39.3794C137.553 39.2779 137.35 39.0952 137.208 38.8718C137.045 38.5876 136.984 38.2831 136.984 37.9582V27.259H139.786C140.375 27.2793 140.943 27.056 141.369 26.6499C141.776 26.2642 142.019 25.6957 141.999 25.1272C142.019 23.9294 141.085 22.9549 139.887 22.9143C139.847 22.9143 139.826 22.9143 139.786 22.9143H136.984V20.3968C137.004 19.7675 136.761 19.1381 136.335 18.6914C135.908 18.2245 135.299 17.9809 134.67 18.0012C133.37 17.9809 132.294 19.0163 132.274 20.3156C132.274 20.3562 132.274 20.3765 132.274 20.4171V22.9346H130.467C129.878 22.9143 129.31 23.1376 128.884 23.5437C128.478 23.9294 128.234 24.4979 128.254 25.0663C128.234 26.2642 129.168 27.2387 130.366 27.2793C130.406 27.2793 130.427 27.2793 130.467 27.2793H132.274V38.1613C132.274 38.5267 132.294 38.8718 132.315 39.1967C132.355 39.887 132.538 40.5569 132.863 41.1863C133.005 41.4705 133.188 41.7345 133.391 41.9781C133.655 42.3232 133.979 42.6074 134.345 42.8308C134.913 43.1759 135.563 43.4195 136.233 43.5007C136.842 43.582 137.451 43.6429 138.06 43.6429C138.974 43.6429 139.867 43.3992 140.639 42.9323C141.43 42.4653 141.836 41.8563 141.836 41.1254C141.857 40.6178 141.715 40.1103 141.39 39.7042C141.146 39.3794 140.781 39.1764 140.395 39.1764Z" fill="url(#paint6_linear_210_44)"/>
<defs>
<linearGradient id="paint0_linear_210_44" x1="33.972" y1="25.1779" x2="34.2116" y2="37.5907" gradientUnits="userSpaceOnUse">
<stop stop-color="#00AA92"/>
<stop offset="0.23" stop-color="#03AB99"/>
<stop offset="0.55" stop-color="#0DB0AB"/>
<stop offset="0.58" stop-color="#0EB0AD"/>
<stop offset="0.72" stop-color="#15ADAE"/>
<stop offset="0.92" stop-color="#29A3B2"/>
<stop offset="1" stop-color="#349EB4"/>
</linearGradient>
<linearGradient id="paint1_linear_210_44" x1="13.3428" y1="25.5739" x2="13.5824" y2="37.9866" gradientUnits="userSpaceOnUse">
<stop stop-color="#00AA92"/>
<stop offset="0.23" stop-color="#03AB99"/>
<stop offset="0.55" stop-color="#0DB0AB"/>
<stop offset="0.58" stop-color="#0EB0AD"/>
<stop offset="0.72" stop-color="#15ADAE"/>
<stop offset="0.92" stop-color="#29A3B2"/>
<stop offset="1" stop-color="#349EB4"/>
</linearGradient>
<linearGradient id="paint2_linear_210_44" x1="57.7834" y1="24.7192" x2="58.023" y2="37.1319" gradientUnits="userSpaceOnUse">
<stop stop-color="#00AA92"/>
<stop offset="0.23" stop-color="#03AB99"/>
<stop offset="0.55" stop-color="#0DB0AB"/>
<stop offset="0.58" stop-color="#0EB0AD"/>
<stop offset="0.72" stop-color="#15ADAE"/>
<stop offset="0.92" stop-color="#29A3B2"/>
<stop offset="1" stop-color="#349EB4"/>
</linearGradient>
<linearGradient id="paint3_linear_210_44" x1="81.9043" y1="20.4353" x2="81.4759" y2="32.7607" gradientUnits="userSpaceOnUse">
<stop stop-color="#00AA92"/>
<stop offset="0.23" stop-color="#03AB99"/>
<stop offset="0.55" stop-color="#0DB0AB"/>
<stop offset="0.58" stop-color="#0EB0AD"/>
<stop offset="0.72" stop-color="#15ADAE"/>
<stop offset="0.92" stop-color="#29A3B2"/>
<stop offset="1" stop-color="#349EB4"/>
</linearGradient>
<linearGradient id="paint4_linear_210_44" x1="100.69" y1="21.0284" x2="100.26" y2="33.3519" gradientUnits="userSpaceOnUse">
<stop stop-color="#00AA92"/>
<stop offset="0.23" stop-color="#03AB99"/>
<stop offset="0.55" stop-color="#0DB0AB"/>
<stop offset="0.58" stop-color="#0EB0AD"/>
<stop offset="0.72" stop-color="#15ADAE"/>
<stop offset="0.92" stop-color="#29A3B2"/>
<stop offset="1" stop-color="#349EB4"/>
</linearGradient>
<linearGradient id="paint5_linear_210_44" x1="119.802" y1="21.6942" x2="119.372" y2="34.0197" gradientUnits="userSpaceOnUse">
<stop stop-color="#00AA92"/>
<stop offset="0.23" stop-color="#03AB99"/>
<stop offset="0.55" stop-color="#0DB0AB"/>
<stop offset="0.58" stop-color="#0EB0AD"/>
<stop offset="0.72" stop-color="#15ADAE"/>
<stop offset="0.92" stop-color="#29A3B2"/>
<stop offset="1" stop-color="#349EB4"/>
</linearGradient>
<linearGradient id="paint6_linear_210_44" x1="135.035" y1="20.6304" x2="135.305" y2="34.6125" gradientUnits="userSpaceOnUse">
<stop stop-color="#00AA92"/>
<stop offset="0.23" stop-color="#03AB99"/>
<stop offset="0.55" stop-color="#0DB0AB"/>
<stop offset="0.58" stop-color="#0EB0AD"/>
<stop offset="0.72" stop-color="#15ADAE"/>
<stop offset="0.92" stop-color="#29A3B2"/>
<stop offset="1" stop-color="#349EB4"/>
</linearGradient>
</defs>
</svg>
