<svg width="143" height="62" viewBox="0 0 143 62" fill="none" xmlns="http://www.w3.org/2000/svg">
<path d="M103.573 36.8599C102.542 35.6257 101.838 32.2087 101.5 32.5116C101.218 32.7609 101.227 36.4947 101.194 37.9221L103.573 36.8599ZM101.194 37.9221C100.841 40.5068 99.7312 42.9294 98.0054 44.8858C95.0671 47.5873 88.8974 48.683 83.5443 47.4563C78.2361 46.2383 76.9197 44.9967 77.6228 41.8702C78.2349 39.1462 79.0689 38.4643 80.879 39.2086C83.8323 40.4228 87.1122 41.101 88.6344 40.8155C90.3273 40.4976 92.2983 38.8209 92.2983 37.6989C92.2983 37.0943 91.9791 37.0406 90.1914 37.3436C87.3932 37.8607 84.5096 37.6595 81.8103 36.7589C76.0757 34.0363 74.5797 25.5566 78.7311 19.2835C79.9718 17.4786 81.7832 16.1431 83.8743 15.4915C85.9654 14.8399 88.2148 14.91 90.2613 15.6906L92.3618 16.6206L93.6347 15.6794C94.7055 14.8878 95.3027 14.7794 97.4033 14.9963C100.759 15.3428 101.168 15.7654 101.168 18.8883C101.146 20.8308 101.265 22.7723 101.523 24.6976C101.718 24.8223 102.567 20.9826 103.408 19.8507C105.769 16.6767 108.404 15.5336 113.355 15.5336C116.749 15.5336 117.734 15.7106 119.838 16.6992C124.15 18.7212 126 22.2305 126 28.3939C126 32.8557 125.185 35.3664 123.008 37.5929C120.677 39.9815 118.164 40.8155 113.357 40.7956C108.407 40.7756 106.039 39.8244 103.565 36.8661L101.194 37.9221ZM117.029 31.5741C117.685 30.6818 118.07 29.6197 118.139 28.5145C118.208 27.4093 117.957 26.3076 117.417 25.3409C116.737 24.5319 115.82 23.9563 114.796 23.6947C113.772 23.4331 112.692 23.4987 111.707 23.8823C110.894 24.1114 110.177 24.5981 109.664 25.2693C109.151 25.9405 108.87 26.76 108.862 27.6048C108.686 28.5552 108.837 29.5375 109.292 30.3905C109.747 31.2435 110.478 31.9166 111.366 32.2997C112.266 32.797 113.301 32.9942 114.321 32.8626C115.341 32.731 116.292 32.2775 117.037 31.5679L117.029 31.5741ZM92.1998 30.3013C92.6552 29.1773 92.8376 27.9615 92.7321 26.7534C92.7321 23.3625 91.8819 21.9638 89.8199 21.9638C87.1484 21.9638 85.6699 23.5844 85.6499 26.5302C85.6312 29.4062 86.9876 30.8336 89.7402 30.8336C90.5971 30.8879 91.4521 30.7013 92.2085 30.295L92.1998 30.3013ZM22.2631 46.3281C20.7827 46.0446 19.3341 45.6149 17.9385 45.0454C16.1932 44.2749 16 44.0343 16 42.6767C16 38.8121 17.7291 37.1915 20.3932 38.5728C24.7327 40.8167 30.6356 39.7072 30.6356 36.6479C30.6356 35.8738 30.3488 35.8276 26.8707 36.0446C20.9404 36.4186 17.9684 34.8066 16.5049 30.4347C15.8816 28.5647 15.8467 21.5598 16.4525 18.3684C17.1419 14.732 17.855 14.2458 21.8255 14.7083L25.0918 15.0885V21.3566C25.0918 26.8967 25.1902 27.7345 25.937 28.5635C26.2144 28.8479 26.5455 29.0746 26.911 29.2304C27.2766 29.3862 27.6694 29.468 28.0667 29.4711C28.4641 29.4742 28.8581 29.3986 29.226 29.2486C29.594 29.0986 29.9286 28.8772 30.2105 28.5971C31.0407 27.7669 31.1068 27.2183 31.0071 21.9463C30.9385 18.2837 31.0732 16.026 31.3811 15.7218C31.9533 15.1496 38.5991 15.1085 39.1639 15.6744C39.5772 17.1597 39.7869 18.6942 39.7872 20.2359C39.9118 22.5272 39.4755 27.055 40.5352 27.2358C40.6598 27.6098 41.05 24.7226 42.0673 23.2702C44.4209 19.9043 46.9516 18.6838 51.9993 18.4831C57.0806 18.2812 59.6499 19.1065 62.056 21.7182C63.144 22.9598 64.0151 24.3759 64.6328 25.9069C65.0753 27.1535 65.3945 31.4993 65.5353 31.4993C65.6762 31.4993 66.393 27.5749 66.9328 26.8431C67.8341 25.6227 68.1371 25.5129 70.5643 25.5129C75.0173 25.5129 75.6519 26.8506 75.6519 36.2515C75.6519 43.0831 75.4499 43.4359 71.5317 43.4596C67.9501 43.4808 66.7832 42.6319 66.0814 39.4966C65.7797 38.1477 66.0041 34.9862 65.8046 34.9862C65.1821 36.0516 64.6332 37.1583 64.1615 38.2985C62.7304 40.5946 60.584 42.3564 58.053 43.3125C55.3179 44.0979 49.4113 43.9956 47.3842 43.1255C44.9626 42.1725 42.9456 40.4105 41.6758 38.1389C41.0962 37.0469 40.4467 32.0927 40.2335 32.1638C40.0203 32.2349 39.498 37.5305 39.0753 38.8956C38.012 42.3326 36.7778 43.8822 34.0514 45.2198C31.3536 46.54 26.1975 47.0213 22.2706 46.3219L22.2631 46.3281ZM55.5796 34.5972C56.2545 33.9048 56.7252 33.0397 56.9401 32.097C57.155 31.1543 57.1057 30.1706 56.7976 29.2541C56.6834 28.2954 56.2046 27.4175 55.4605 26.8024C54.7163 26.1873 53.7639 25.8822 52.8009 25.9505C50.1356 25.9505 48.7468 27.4203 48.49 30.5132C48.298 32.8307 48.379 33.1037 49.6332 34.3579C50.0006 34.7782 50.4499 35.1193 50.9536 35.3601C51.4574 35.6009 52.0049 35.7363 52.5628 35.7583C53.1207 35.7802 53.6772 35.6881 54.1983 35.4876C54.7193 35.2871 55.194 34.9825 55.5933 34.5922L55.5796 34.5972ZM68.1707 22.4138C64.3373 21.2058 63.7277 16.9286 67.0986 14.8691C68.0966 14.3437 69.1996 14.0487 70.3266 14.0055C71.4536 13.9624 72.5759 14.1723 73.6111 14.6198C74.2093 14.9617 74.7139 15.446 75.08 16.0296C75.4462 16.6133 75.6625 17.2784 75.71 17.9658C75.7575 18.6532 75.6346 19.3416 75.3522 19.9701C75.0698 20.5986 74.6366 21.1476 74.091 21.5685C72.3085 22.607 70.1908 22.9081 68.1894 22.4075L68.1707 22.4138Z" fill="url(#paint0_linear_326_20)"/>
<defs>
<linearGradient id="paint0_linear_326_20" x1="124.35" y1="29.3822" x2="16.66" y2="29.3822" gradientUnits="userSpaceOnUse">
<stop stop-color="#400B81"/>
<stop offset="0.434" stop-color="#8D1383"/>
<stop offset="1" stop-color="#F31E7F"/>
</linearGradient>
</defs>
</svg>
