<svg width="100" height="30" viewBox="0 0 100 30" fill="none" xmlns="http://www.w3.org/2000/svg">
<g clip-path="url(#clip0_81_7015)">
<path d="M72.0934 4.09092L63.4862 20.4712C63.3027 20.8215 62.769 20.8215 62.5855 20.4712L53.9783 4.09092C53.8949 3.92412 53.7281 3.82404 53.5446 3.82404H49.3745C49.0909 3.82404 48.9074 4.12429 49.0408 4.37449L62.6021 29.7623C62.7856 30.1126 63.286 30.1126 63.4862 29.7623L77.0475 4.37449C77.181 4.12429 76.9975 3.82404 76.7139 3.82404H72.5438C72.3436 3.82404 72.1768 3.92412 72.0934 4.09092Z" fill="#184177"/>
<path d="M76.9808 25.9591L85.588 9.57881C85.7714 9.22852 86.3052 9.22852 86.4887 9.57881L95.0959 25.9591C95.1793 26.1259 95.3461 26.226 95.5296 26.226H99.6997C99.9833 26.226 100.167 25.9258 100.033 25.6756L86.472 0.287743C86.2885 -0.0625485 85.7881 -0.0625485 85.588 0.287743L72.0267 25.6756C71.8932 25.9258 72.0767 26.226 72.3603 26.226H76.5304C76.7139 26.2093 76.8974 26.1093 76.9808 25.9591Z" fill="#184177"/>
<path d="M18.1485 15.9008C19.95 15 21.0675 13.0484 21.0675 10.6631C21.0675 6.57635 17.8816 3.80737 13.3945 3.80737H0.500417C0.216847 3.80737 0 4.02422 0 4.30779V29.5121C0 29.7957 0.216847 30.0125 0.500417 30.0125H12.844C19.0158 30.0125 22.2685 27.3603 22.2685 22.156C22.2685 17.0851 18.1485 15.9008 18.1485 15.9008ZM4.83736 7.61054H12.4937C15.3128 7.61054 16.7473 8.81154 16.7473 11.0467C16.7473 13.2819 15.3128 14.4829 12.4937 14.4829H4.83736C4.57047 14.4829 4.33695 14.2661 4.33695 13.9825V8.11096C4.33695 7.82739 4.55379 7.61054 4.83736 7.61054ZM12.5938 26.2094H4.83736C4.55379 26.2094 4.33695 25.9925 4.33695 25.7089V18.7532C4.33695 18.4863 4.55379 18.2527 4.83736 18.2527H12.5938C16.2969 18.2527 17.9483 19.3036 17.9483 22.2227C17.9316 25.1752 16.3303 26.2094 12.5938 26.2094Z" fill="#184177"/>
<path d="M44.6205 15.9008C46.422 15 47.5396 13.0484 47.5396 10.6631C47.5396 6.57635 44.3536 3.80737 39.8666 3.80737H26.9558C26.6722 3.80737 26.4554 4.02422 26.4554 4.30779V29.5121C26.4554 29.7957 26.6722 30.0125 26.9558 30.0125H39.2994C45.4712 30.0125 48.7239 27.3603 48.7239 22.156C48.7406 17.0851 44.6205 15.9008 44.6205 15.9008ZM31.3094 7.61054H38.9658C41.7848 7.61054 43.2193 8.81154 43.2193 11.0467C43.2193 13.2819 41.7848 14.4829 38.9658 14.4829H31.3094C31.0259 14.4829 30.809 14.2661 30.809 13.9825V8.11096C30.809 7.82739 31.0259 7.61054 31.3094 7.61054ZM39.0492 26.2094H31.2927C31.0259 26.2094 30.7923 25.9925 30.7923 25.7089V18.7532C30.7923 18.4863 31.0092 18.2527 31.2927 18.2527H39.0492C42.7523 18.2527 44.4037 19.3036 44.4037 22.2227C44.4037 25.1752 42.7857 26.2094 39.0492 26.2094Z" fill="#184177"/>
</g>
<defs>
<clipPath id="clip0_81_7015">
<rect width="100" height="30" fill="white"/>
</clipPath>
</defs>
</svg>
