<svg width="63" height="30" viewBox="0 0 63 30" fill="none" xmlns="http://www.w3.org/2000/svg">
<g clip-path="url(#clip0_81_7670)">
<path d="M4.10987 26.7841V28.0462H4.88331V29.0858H4.10987V29.8627H3.07355V29.0858H1.8165V29.8627H0.780184V29.0858H0V28.0462H0.780184V26.7841H0V25.7444H0.780184V24.9608H1.8165V25.7444H3.07355V24.9608H4.10987V25.7444H4.88331V26.7841H4.10987ZM3.07355 26.7841H1.8165V28.0462H3.07355V26.7841Z" fill="#1B75BB"/>
<path d="M9.7464 27.1303V27.2339C9.69079 28.1633 8.91735 28.9047 7.97793 28.9047H7.05198V29.861H5.95332V25.3551H8.13632C9.06226 25.3551 9.69753 26.1454 9.74555 27.0258V27.1295L9.7464 27.1303ZM8.63426 27.1303C8.63426 26.763 8.34443 26.4647 7.97793 26.458H7.05198V27.8027H7.9636C8.33684 27.8027 8.63341 27.5044 8.63341 27.1303H8.63426Z" fill="#1B75BB"/>
<path d="M10.3682 24.9608H11.4458V29.8618H10.3682V24.9608Z" fill="#1B75BB"/>
<path d="M16.1218 26.2987V29.8618H15.0577V29.5779C14.9263 29.6815 14.7814 29.7649 14.6297 29.834C14.3946 29.9309 14.1461 29.9798 13.8908 29.9798C13.6355 29.9798 13.3794 29.9309 13.1452 29.834C12.9244 29.7371 12.7172 29.5981 12.5444 29.4254C12.3717 29.2518 12.2336 29.0437 12.1367 28.8154C12.0398 28.5795 11.9917 28.3301 11.9917 28.074C11.9917 27.8178 12.0398 27.5676 12.1367 27.3325C12.2336 27.1109 12.3717 26.9028 12.5444 26.7293C12.7172 26.5557 12.9244 26.4175 13.1452 26.3206C13.3802 26.2238 13.6288 26.1682 13.8908 26.1682C14.1528 26.1682 14.3955 26.2238 14.6297 26.3206C14.7814 26.3897 14.9271 26.4731 15.0577 26.5768V26.2996H16.1218V26.2987ZM14.8437 28.0731C14.8437 27.5465 14.4157 27.1168 13.8908 27.1168C13.3659 27.1168 12.9303 27.5465 12.9303 28.0731C12.9303 28.5997 13.3583 29.037 13.8908 29.037C14.4233 29.037 14.8437 28.6073 14.8437 28.0731Z" fill="#1B75BB"/>
<path d="M18.5947 27.1093V28.2602C18.5947 28.9603 18.8777 28.9536 19.2645 28.9603V29.9242C17.9316 30.1601 17.4825 29.4734 17.4825 28.614V27.1093H16.9576V26.2912H17.4825V24.96H18.5947V26.2912H19.5619V27.1093H18.5947Z" fill="#1B75BB"/>
<path d="M24.1697 26.2987V29.8618H23.1056V29.5779C22.9741 29.6815 22.8292 29.7649 22.6776 29.834C22.4425 29.9309 22.1939 29.9798 21.9387 29.9798C21.6834 29.9798 21.4272 29.9309 21.193 29.834C20.9723 29.7371 20.765 29.5981 20.5923 29.4254C20.4196 29.2518 20.2814 29.0437 20.1845 28.8154C20.0876 28.5795 20.0396 28.3301 20.0396 28.074C20.0396 27.8178 20.0876 27.5676 20.1845 27.3325C20.2814 27.1109 20.4196 26.9028 20.5923 26.7293C20.765 26.5557 20.9723 26.4175 21.193 26.3206C21.4281 26.2238 21.6766 26.1682 21.9387 26.1682C22.2007 26.1682 22.4433 26.2238 22.6776 26.3206C22.8292 26.3897 22.975 26.4731 23.1056 26.5768V26.2996H24.1697V26.2987ZM22.8916 28.0731C22.8916 27.5465 22.4636 27.1168 21.9387 27.1168C21.4138 27.1168 20.9782 27.5465 20.9782 28.0731C20.9782 28.5997 21.4062 29.037 21.9387 29.037C22.4711 29.037 22.8916 28.6073 22.8916 28.0731Z" fill="#1B75BB"/>
<path d="M29.4608 26.3266H27.7547V29.8618H26.6771V26.3266H24.9709V25.356H29.4608V26.3266Z" fill="#1B75BB"/>
<path d="M33.066 28.0942C33.066 28.3504 33.0104 28.6006 32.9143 28.8356C32.8174 29.0648 32.6792 29.2653 32.5065 29.4389C32.3338 29.6192 32.1333 29.7506 31.9058 29.8475C31.6707 29.9512 31.4222 30 31.1669 30C30.9116 30 30.6631 29.9512 30.428 29.8543C30.1997 29.7574 30 29.6184 29.8205 29.4456C29.6478 29.2721 29.5096 29.064 29.4128 28.8424C29.3159 28.6065 29.2678 28.3571 29.2678 28.101C29.2611 27.8448 29.3159 27.5946 29.4128 27.3595C29.5096 27.1304 29.6478 26.9231 29.8205 26.7495C29.9933 26.576 30.1938 26.4378 30.4213 26.3409C30.6563 26.244 30.9049 26.1884 31.1602 26.1884C31.4154 26.1884 31.6648 26.2373 31.8991 26.3409C32.1274 26.4311 32.3271 26.5701 32.5065 26.7428C32.6792 26.9231 32.8174 27.1245 32.9143 27.3528C33.0112 27.5887 33.0592 27.8381 33.066 28.0942ZM32.1198 28.0942C32.1198 27.5601 31.6918 27.1379 31.1593 27.1379C30.6268 27.1379 30.2064 27.5676 30.2064 28.0942C30.2064 28.6208 30.6344 29.0581 31.1669 29.0581C31.6994 29.0581 32.1198 28.6216 32.1198 28.0942Z" fill="#1B75BB"/>
<path d="M37.7361 24.9608V29.8618H36.6585V29.5914C36.3266 29.834 35.9264 29.9865 35.4908 29.9865C34.4688 29.9865 33.5774 29.1128 33.5774 28.0664C33.5774 27.0747 34.4199 26.153 35.4908 26.153C35.9053 26.153 36.3055 26.292 36.6585 26.5481V24.9608H37.7361ZM36.4513 28.0664C36.4513 27.5398 36.0233 27.1025 35.4908 27.1025C34.9583 27.1025 34.5303 27.539 34.5303 28.0664C34.5303 28.5938 34.9583 29.037 35.4908 29.037C36.0233 29.037 36.4513 28.6005 36.4513 28.0664Z" fill="#1B75BB"/>
<path d="M42.4256 28.0942C42.4256 28.3504 42.37 28.6006 42.274 28.8356C42.1771 29.0648 42.0389 29.2653 41.8662 29.4389C41.6935 29.6192 41.493 29.7506 41.2655 29.8475C41.0304 29.9512 40.7819 30 40.5266 30C40.2713 30 40.0219 29.9512 39.7877 29.8543C39.5593 29.7574 39.3597 29.6184 39.1802 29.4456C39.0075 29.2721 38.8693 29.064 38.7724 28.8424C38.6755 28.6065 38.6275 28.3571 38.6275 28.101C38.6208 27.8448 38.6755 27.5946 38.7724 27.3595C38.8693 27.1304 39.0075 26.9231 39.1802 26.7495C39.3529 26.576 39.5535 26.4378 39.7809 26.3409C40.016 26.244 40.2645 26.1884 40.5198 26.1884C40.7751 26.1884 41.0237 26.2373 41.2587 26.3409C41.4871 26.4311 41.6867 26.5701 41.8662 26.7428C42.0389 26.9231 42.1771 27.1245 42.274 27.3528C42.3709 27.5887 42.4189 27.8381 42.4256 28.0942ZM41.4795 28.0942C41.4795 27.5601 41.0515 27.1379 40.519 27.1379C39.9865 27.1379 39.5661 27.5676 39.5661 28.0942C39.5661 28.6208 39.9941 29.0581 40.5266 29.0581C41.0591 29.0581 41.4795 28.6216 41.4795 28.0942Z" fill="#1B75BB"/>
<path d="M44.1739 26.3266V27.1303H45.9904V28.0942H44.1739V28.898H46.474V29.8618H43.0963V25.356H46.474V26.3266H44.1739Z" fill="#1B75BB"/>
<path d="M47.1371 24.9608H48.2147V29.8618H47.1371V24.9608Z" fill="#1B75BB"/>
<path d="M52.5175 29.2451H50.3412L50.0371 29.8618H48.8213L51.0523 25.356H51.8671L54.0155 29.8618H52.8208L52.5166 29.2451H52.5175ZM52.0962 28.3646L51.4264 26.9155L50.7911 28.3646H52.0971H52.0962Z" fill="#1B75BB"/>
<path d="M58.6031 28.0942V29.8618H57.5322V28.0942C57.5322 27.5255 57.3384 27.2272 56.7032 27.2272C56.2474 27.2272 55.9019 27.6013 55.8952 28.0731V29.8618H54.8109V26.2912H55.8817V26.5751C55.8885 26.5684 56.255 26.1732 56.8346 26.1732C58.2922 26.1732 58.6031 27.255 58.6031 28.0934V28.0942ZM57.1868 25.3417C56.8279 25.3417 56.3721 25.0156 56.0814 25.0156C55.8952 25.0156 55.6534 25.1748 55.6045 25.217L55.1765 24.6693C55.2178 24.6348 55.6323 24.3298 56.0814 24.3298C56.4403 24.3298 56.9037 24.6491 57.1868 24.6491C57.373 24.6491 57.6148 24.4899 57.6704 24.4477L58.0917 24.9954C58.0504 25.0299 57.6359 25.3417 57.1868 25.3417Z" fill="#1B75BB"/>
<path d="M63.1898 28.0942C63.1898 28.3504 63.1342 28.6006 63.0382 28.8356C62.9413 29.0648 62.8031 29.2653 62.6304 29.4389C62.4577 29.6192 62.2571 29.7506 62.0296 29.8475C61.7946 29.9512 61.546 30 61.2908 30C61.0355 30 60.7861 29.9512 60.5519 29.8543C60.3235 29.7574 60.1238 29.6184 59.9444 29.4456C59.7717 29.2721 59.6335 29.064 59.5366 28.8424C59.4397 28.6065 59.3917 28.3571 59.3917 28.101C59.3849 27.8448 59.4397 27.5946 59.5366 27.3595C59.6335 27.1304 59.7717 26.9231 59.9444 26.7495C60.1171 26.576 60.3176 26.4378 60.5451 26.3409C60.7802 26.244 61.0287 26.1884 61.284 26.1884C61.5393 26.1884 61.7878 26.2373 62.0229 26.3409C62.2512 26.4311 62.4509 26.5701 62.6304 26.7428C62.8031 26.9231 62.9413 27.1245 63.0382 27.3528C63.1351 27.5887 63.1831 27.8381 63.1898 28.0942ZM62.2437 28.0942C62.2437 27.5601 61.8156 27.1379 61.2832 27.1379C60.7507 27.1379 60.3303 27.5676 60.3303 28.0942C60.3303 28.6208 60.7583 29.0581 61.2908 29.0581C61.8232 29.0581 62.2437 28.6216 62.2437 28.0942Z" fill="#1B75BB"/>
<path d="M0.0935211 19.0724V3.67175H8.02511C9.49532 3.67175 10.6201 3.79813 11.3978 4.05005C12.1746 4.30197 12.8023 4.76957 13.2783 5.45286C13.7543 6.13531 13.9928 6.96773 13.9928 7.94844C13.9928 8.80277 13.8108 9.53998 13.446 10.1592C13.0811 10.7793 12.5807 11.2823 11.9429 11.6665C11.5368 11.9117 10.9799 12.1148 10.2713 12.2757C10.8383 12.4652 11.2512 12.6548 11.5098 12.8435C11.6851 12.9699 11.9387 13.2395 12.2706 13.6532C12.6034 14.0669 12.825 14.3862 12.9371 14.6103L15.2414 19.0732H9.86435L7.32075 14.3668C6.9989 13.7577 6.7116 13.3617 6.45884 13.1797C6.11593 12.9421 5.72668 12.8225 5.29278 12.8225H4.87236V19.0732H0.0935211V19.0724ZM4.8732 9.91154H6.88011C7.09748 9.91154 7.51706 9.84161 8.14053 9.70175C8.45564 9.63856 8.71346 9.47763 8.91314 9.21813C9.11281 8.95948 9.21223 8.66206 9.21223 8.32505C9.21223 7.82796 9.05468 7.44629 8.73957 7.18005C8.42447 6.91381 7.83301 6.78069 6.96436 6.78069H4.87404V9.91154H4.8732Z" fill="#0765A6"/>
<path d="M26.2339 16.5296H20.8316L20.0809 19.0724H15.222L21.0094 3.67175H26.2002L31.9875 19.0724H27.004L26.233 16.5296H26.2339ZM25.2473 13.1999L23.5479 7.66366L21.8654 13.1999H25.2473Z" fill="#0765A6"/>
<path d="M30.118 3.67175H35.404L38.507 8.8668L41.616 3.67175H46.8742L40.8863 12.622V19.0724H36.1168V12.622L30.118 3.67175Z" fill="#0765A6"/>
<path d="M63.0963 11.573C63.0963 16.4538 59.1398 20.4112 54.259 20.4112C49.3782 20.4112 45.4217 16.4546 45.4217 11.573C45.4217 6.6914 49.3782 2.73572 54.259 2.73572C59.1398 2.73572 63.0963 6.69224 63.0963 11.573Z" fill="url(#paint0_linear_81_7670)"/>
<path d="M58.2239 0L48.0411 10.813L54.4983 10.7642L48.9317 22.1004L60.4769 7.91979L54.6929 8.1102L58.2239 0Z" fill="white"/>
<path d="M58.6671 0.643677L48.4843 11.4567L54.9414 11.4079L49.3748 22.7433L60.92 8.56347L55.1369 8.75388L58.6671 0.643677Z" fill="#FFC80E"/>
</g>
<defs>
<linearGradient id="paint0_linear_81_7670" x1="45.4208" y1="11.573" x2="63.0963" y2="11.573" gradientUnits="userSpaceOnUse">
<stop stop-color="#205580"/>
<stop offset="0.02" stop-color="#205580"/>
<stop offset="1" stop-color="#3D82C4"/>
</linearGradient>
<clipPath id="clip0_81_7670">
<rect width="63" height="30" fill="white"/>
</clipPath>
</defs>
</svg>
