<svg width="60" height="30" viewBox="0 0 60 30" fill="none" xmlns="http://www.w3.org/2000/svg">
<g clip-path="url(#clip0_839_468)">
<path d="M60 -13H0V47H60V-13Z" fill="#0D013F"/>
<path d="M33.9221 11.9098H30.2947L30.927 10.822H33.2846L31.5807 7.95008L28.0979 13.8439H26.5654L30.9751 6.49803C31.0503 6.36408 31.1413 6.26227 31.2539 6.17655C31.3556 6.10153 31.4789 6.06402 31.6343 6.06402C31.7789 6.06402 31.9021 6.10689 32.004 6.17655C32.1057 6.25156 32.2021 6.36408 32.2719 6.49803L36.6334 13.7422C37.121 12.8742 37.1477 11.7758 36.6119 10.8488L31.6931 2.32943C30.8894 0.936318 29.0999 0.448732 27.6907 1.25245L19.182 6.16048H20.8751L23.865 9.69682L26.8656 6.16048H28.5694L24.4866 10.9238V13.8386H23.1417V10.9238L19.1124 6.20869C17.7567 7.03385 17.3013 8.7913 18.0997 10.1683L23.0184 18.6878C23.8221 20.0808 25.6117 20.5683 27.0209 19.7646L35.5403 14.8459C35.9743 14.5995 36.328 14.2458 36.5744 13.8439H35.0634L33.9221 11.9098Z" fill="#9CD200"/>
<path d="M19.182 6.17664H19.0696L19.1124 6.21949C19.1339 6.20878 19.1553 6.18735 19.1767 6.17664H19.182Z" fill="#9CD200"/>
<path d="M36.6227 13.7423C36.6013 13.7745 36.5798 13.8173 36.5584 13.8442H36.6816L36.6227 13.7423Z" fill="#9CD200"/>
<path d="M12.9184 28.3807V21.4419C12.9184 21.3187 12.9827 21.2437 13.1166 21.2437H15.919C16.4761 21.2437 16.9101 21.3991 17.221 21.7098C17.5317 22.0205 17.6979 22.4545 17.6979 23.0118V26.8054C17.6979 27.3625 17.5424 27.7965 17.221 28.1074C16.9101 28.4181 16.4654 28.5735 15.919 28.5735H13.1166C12.9773 28.5788 12.9184 28.5038 12.9184 28.3807ZM14.1454 27.6037H15.7474C16.294 27.6037 16.5619 27.3251 16.5619 26.7571V23.0547C16.5619 22.4974 16.294 22.2081 15.7474 22.2081H14.1454C14.065 22.2081 14.0222 22.2509 14.0222 22.3207V27.4698C14.0222 27.5662 14.065 27.6037 14.1454 27.6037Z" fill="white"/>
<path d="M19.182 21.7956V20.7614C19.182 20.6381 19.2463 20.5739 19.3696 20.5739H20.1143C20.2376 20.5739 20.3018 20.6381 20.3018 20.7614V21.7956C20.3018 21.9187 20.2376 21.9937 20.1143 21.9937H19.3696C19.241 21.983 19.182 21.9187 19.182 21.7956Z" fill="#9CD200"/>
<path d="M19.182 28.3808V22.9529C19.182 22.8298 19.2463 22.7548 19.3696 22.7548H20.1036C20.2268 22.7548 20.3018 22.819 20.3018 22.9529V28.3808C20.3018 28.4558 20.2911 28.5039 20.259 28.536C20.2268 28.5682 20.184 28.5789 20.1143 28.5789H19.3803C19.241 28.5789 19.182 28.5039 19.182 28.3808Z" fill="white"/>
<path d="M22.697 28.5789H21.9843C21.8504 28.5789 21.786 28.5146 21.786 28.3808V22.9529C21.786 22.8298 21.8504 22.7548 21.9843 22.7548H22.697C22.8201 22.7548 22.8951 22.819 22.8951 22.9529V23.3655H22.938C23.1256 22.9636 23.506 22.7655 24.0847 22.7655H24.583C25.1403 22.7655 25.5636 22.9208 25.8529 23.2209C26.1529 23.5209 26.2976 23.9656 26.2976 24.5336V28.3915C26.2976 28.5253 26.2226 28.5896 26.0886 28.5896H25.376C25.242 28.5896 25.1777 28.5253 25.1777 28.3915V24.5872C25.1777 24.0299 24.8991 23.7406 24.3526 23.7406H23.8167C23.1953 23.7406 22.8844 24.062 22.8844 24.7105V28.3915C22.8791 28.5039 22.8201 28.5789 22.697 28.5789Z" fill="white"/>
<path d="M31.7843 28.5789H29.325C28.7677 28.5789 28.3337 28.4235 28.0229 28.1126C27.7121 27.8019 27.5567 27.3679 27.5567 26.8106V24.5388C27.5567 23.9816 27.7121 23.5476 28.0229 23.2368C28.3337 22.9261 28.7677 22.7706 29.325 22.7706H30.2573C30.8144 22.7706 31.2591 22.9261 31.57 23.2368C31.8807 23.5476 32.0361 23.9816 32.0361 24.5388V25.9855C32.0361 26.1195 31.9611 26.1945 31.8271 26.1945H28.7784C28.698 26.1945 28.6551 26.2373 28.6551 26.3071V26.7946C28.6551 27.3519 28.9339 27.6198 29.4803 27.6198H31.7843C31.9183 27.6198 31.9933 27.6948 31.9933 27.8288V28.3966C31.9879 28.5145 31.9183 28.5789 31.7843 28.5789ZM28.773 25.4015H30.8091C30.8841 25.4015 30.9217 25.3586 30.9217 25.2889V24.5549C30.9217 24.2656 30.8573 24.0566 30.7234 23.9226C30.6001 23.7888 30.3804 23.7243 30.0911 23.7243H29.4803C29.191 23.7243 28.982 23.7888 28.848 23.9226C28.7249 24.0566 28.6499 24.2656 28.6499 24.5549V25.2889C28.6606 25.3641 28.7034 25.4015 28.773 25.4015Z" fill="white"/>
<path d="M34.2009 28.5789H33.4881C33.3543 28.5789 33.2899 28.5146 33.2899 28.3808V22.9529C33.2899 22.8298 33.3543 22.7548 33.4881 22.7548H34.2009C34.324 22.7548 34.399 22.819 34.399 22.9529V23.3869H34.4419C34.517 23.1995 34.6616 23.044 34.8759 22.9315C35.0956 22.819 35.3314 22.7548 35.5993 22.7548H36.0226C36.1459 22.7548 36.2209 22.819 36.2209 22.9529V23.5423C36.2209 23.687 36.1566 23.7513 36.0226 23.7299H35.3421C34.7099 23.7299 34.399 24.0728 34.399 24.764V28.37C34.399 28.5039 34.324 28.5789 34.2009 28.5789Z" fill="white"/>
<path d="M39.7626 28.5789H38.7606C38.2033 28.5789 37.7693 28.4235 37.4586 28.1126C37.1477 27.8019 36.9924 27.3679 36.9924 26.8106V24.5388C36.9924 23.9816 37.1477 23.5476 37.4586 23.2368C37.7693 22.9261 38.2033 22.7706 38.7606 22.7706H39.7626C40.3197 22.7706 40.7537 22.9261 41.0646 23.2368C41.3753 23.5476 41.5414 23.9816 41.5414 24.5388V26.8106C41.5414 27.3679 41.386 27.8019 41.0646 28.1126C40.743 28.4128 40.309 28.5789 39.7626 28.5789ZM38.9159 27.6036H39.6071C40.1536 27.6036 40.4216 27.3251 40.4216 26.7785V24.5656C40.4216 24.0083 40.1536 23.7405 39.6071 23.7405H38.9159C38.6266 23.7405 38.4176 23.8048 38.2837 23.9388C38.1604 24.0726 38.0854 24.2816 38.0854 24.5711V26.7839C38.0854 27.0732 38.1497 27.2822 38.2837 27.4162C38.4176 27.5341 38.6266 27.6036 38.9159 27.6036Z" fill="white"/>
<path d="M42.2647 18.5592C42.3773 18.6128 42.4897 18.6502 42.5969 18.7038C42.7094 18.7575 42.822 18.7949 42.9291 18.8485C43.063 18.9021 43.197 18.8485 43.2506 18.7146C43.3041 18.5914 43.2506 18.4466 43.1274 18.3931C42.9023 18.3019 42.6719 18.1948 42.4576 18.1038C42.3237 18.0502 42.1897 18.1038 42.1362 18.2376C42.0772 18.3609 42.1414 18.4949 42.2647 18.5592Z" fill="white"/>
<path d="M47.1031 19.2827C47.0603 18.5487 46.278 18.2485 45.7369 18.5808C45.3939 18.7897 45.0563 18.9827 44.7134 19.1915C44.0543 19.5827 43.39 19.9793 42.7309 20.3704C42.463 20.5365 42.1844 20.6918 41.895 20.8687C41.9379 20.6704 41.97 20.5044 42.0183 20.3543C42.2166 19.6417 41.9164 19.0094 41.2734 18.7737C40.893 18.629 40.5287 18.8273 40.459 19.197C40.4269 19.3524 40.384 19.497 40.3466 19.6417C40.2019 20.2097 40.0464 20.7775 39.9019 21.3455C39.8483 21.5653 39.7893 21.7688 39.7357 21.9885H39.7786C39.9126 21.9885 40.0464 21.9993 40.1804 22.01C40.2716 21.6671 40.3573 21.3188 40.4483 20.9758C40.6037 20.4078 40.7591 19.84 40.9037 19.2613C40.936 19.1487 41.0056 19.138 41.102 19.1594C41.4557 19.2505 41.7236 19.6471 41.6593 20.0167C41.6057 20.3061 41.536 20.5847 41.4717 20.8634C41.4396 20.9865 41.4181 21.0991 41.3914 21.2277C41.3593 21.3295 41.3914 21.426 41.4717 21.4848C41.5629 21.5598 41.6593 21.5277 41.7397 21.4741C42.0611 21.2867 42.3826 21.1044 42.6987 20.9063C43.5667 20.3918 44.4454 19.8721 45.3134 19.3577C45.5331 19.2237 45.7583 19.1005 45.9726 18.9665C46.1976 18.8218 46.4709 18.8755 46.6263 19.1005C46.7601 19.3203 46.7066 19.5988 46.4816 19.7328C45.86 20.1025 45.2331 20.4775 44.6009 20.8473C44.3544 20.992 44.1026 21.1365 43.8561 21.2813C43.7919 21.3134 43.7329 21.3563 43.7114 21.426C43.69 21.517 43.7007 21.6027 43.7757 21.6617C43.8507 21.726 43.9311 21.726 44.0114 21.6831C44.2097 21.5705 44.4026 21.4581 44.6116 21.3403C44.7991 21.2384 44.976 21.2384 45.1367 21.3617C45.4046 21.5705 45.3564 21.9617 45.0349 22.16C44.7777 22.3154 44.5259 22.4601 44.2687 22.6047C44.2151 22.6368 44.1561 22.669 44.1133 22.728C44.0597 22.8083 44.0597 22.8941 44.124 22.9637C44.1776 23.0387 44.258 23.087 44.349 23.0387C44.558 22.9477 44.7509 22.819 44.9491 22.6958C45.1367 22.5833 45.3189 22.5725 45.4957 22.6851C45.6724 22.7975 45.7207 22.9744 45.6831 23.1727C45.6617 23.3067 45.56 23.3977 45.4581 23.462C45.1796 23.6281 44.9116 23.7943 44.633 23.9603C44.4776 24.0514 44.4454 24.1585 44.5206 24.2925C44.5849 24.3943 44.708 24.4157 44.842 24.3461C44.976 24.2711 45.1099 24.1907 45.2439 24.1211C45.4903 23.9871 45.7583 24.0461 45.8976 24.2657C46.0314 24.4908 45.9511 24.7747 45.71 24.9194C45.1849 25.2301 44.6544 25.541 44.1294 25.8517C43.84 26.0178 43.5614 26.2054 43.2613 26.35C42.972 26.484 42.672 26.5697 42.3611 26.5751V26.8108C42.3611 26.8751 42.3611 26.9341 42.3504 26.9984C42.5863 26.9877 42.8166 26.9448 43.0524 26.8858C43.4329 26.7733 43.7757 26.5644 44.1186 26.3607C44.7294 25.991 45.3617 25.6374 45.9671 25.2624C46.278 25.0748 46.4226 24.7747 46.3904 24.4157C46.369 24.1585 46.2459 23.9388 46.0261 23.7835C45.9511 23.73 45.8921 23.7031 45.9726 23.596C46.085 23.4727 46.1387 23.3067 46.1494 23.1405C46.1709 22.7601 46.0154 22.4601 45.6724 22.2833C45.5974 22.2404 45.6081 22.219 45.6403 22.1707C45.86 21.7474 45.7743 21.3134 45.4046 21.0241C45.3027 20.9491 45.3296 20.9223 45.426 20.8687C45.86 20.6115 46.3047 20.3543 46.728 20.0918C46.9906 19.9043 47.1246 19.6148 47.1031 19.2827Z" fill="#9CD200"/>
<path d="M44.5311 18.2004C44.6651 18.2539 44.7991 18.2004 44.8527 18.0664C44.9063 17.9538 44.9437 17.8467 44.9866 17.7342C45.0294 17.6217 45.0777 17.5145 45.1206 17.4019C45.1849 17.2572 45.1313 17.1234 44.9973 17.0698C44.8634 17.0055 44.7294 17.0698 44.6651 17.2037C44.574 17.4234 44.4776 17.6377 44.3866 17.8574C44.3437 18.0021 44.3919 18.1468 44.5311 18.2004Z" fill="white"/>
<path d="M43.4006 17.9001C43.4649 18.0341 43.6096 18.0984 43.7329 18.0448C43.856 17.9912 43.9203 17.8465 43.8667 17.7125C43.7864 17.5035 43.7007 17.2999 43.6203 17.0909C43.5881 17.0266 43.5453 16.9785 43.5184 16.9571C43.3953 16.9035 43.2989 16.9142 43.2184 16.9892C43.1381 17.0695 43.1166 17.1661 43.1541 17.2678C43.2239 17.4821 43.3096 17.6911 43.4006 17.9001Z" fill="white"/>
</g>
<defs>
<clipPath id="clip0_839_468">
<rect width="60" height="30" fill="white"/>
</clipPath>
</defs>
</svg>
